/* XPM */
static char *f059c817898d4085a5966f68d98ae228zcqirdT1JtrkGBNt[] = {
/* columns rows colors chars-per-pixel */
"70 70 250 2 ",
"   c None",
".  c #060400",
"X  c #0B0601",
"o  c #0E0802",
"O  c #110701",
"+  c #140A02",
"@  c #1B0D03",
"#  c #1E1005",
"$  c #1E1109",
"%  c #210E03",
"&  c #241204",
"*  c #2B1504",
"=  c #2E1806",
"-  c #241408",
";  c #2C190A",
":  c #27170A",
">  c #341A05",
",  c #3B1D05",
"<  c #341D0A",
"1  c #3B1E09",
"2  c #331604",
"3  c #241B18",
"4  c #3C220B",
"5  c #3B2008",
"6  c #382515",
"7  c #491B04",
"8  c #551D02",
"9  c #451D11",
"0  c #432205",
"q  c #43250B",
"w  c #4B2A0C",
"e  c #48270C",
"r  c #522A06",
"t  c #5C2B05",
"y  c #522C0C",
"u  c #562508",
"i  c #5B320D",
"p  c #57300A",
"a  c #442A13",
"s  c #4C2D12",
"d  c #462818",
"f  c #542C15",
"g  c #4C341A",
"h  c #543313",
"j  c #5A3414",
"k  c #5D3914",
"l  c #5C3B1A",
"z  c #56371A",
"x  c #642D03",
"c  c #682C06",
"v  c #6B3304",
"b  c #69340A",
"n  c #67360A",
"m  c #733C0A",
"M  c #763B06",
"N  c #633B15",
"B  c #633D1B",
"V  c #693A16",
"C  c #733011",
"Z  c #583C25",
"A  c #483422",
"S  c #633A23",
"D  c #631E03",
"F  c #7A420B",
"G  c #66411A",
"H  c #6B431C",
"J  c #6C4215",
"K  c #724315",
"L  c #72451A",
"P  c #7A4D1D",
"I  c #784918",
"U  c #7C501E",
"Y  c #5C432B",
"T  c #694725",
"R  c #744C24",
"E  c #7A4C23",
"W  c #764A2A",
"Q  c #7B5224",
"!  c #75532C",
"~  c #7B542B",
"^  c #795834",
"/  c #6D4C30",
"(  c #6C512F",
")  c #7D5F42",
"_  c #85480A",
"`  c #94550D",
"'  c #834A17",
"]  c #85541D",
"[  c #8B541A",
"{  c #945B1B",
"}  c #965916",
"|  c #8E510F",
" . c #9E6119",
".. c #A76619",
"X. c #B6771C",
"o. c #A2600F",
"O. c #864926",
"+. c #8D5A24",
"@. c #855C2C",
"#. c #865625",
"$. c #925D28",
"%. c #835D34",
"&. c #895B32",
"*. c #9C692B",
"=. c #98642A",
"-. c #8B6333",
";. c #8C6739",
":. c #936433",
">. c #9A6B33",
",. c #946D3B",
"<. c #996B38",
"1. c #9B713B",
"2. c #8F632C",
"3. c #A66B29",
"4. c #AC732A",
"5. c #B87B27",
"6. c #A26E39",
"7. c #AB7433",
"8. c #A87638",
"9. c #B37B38",
"0. c #B66D37",
"q. c #A15F13",
"w. c #C27B15",
"e. c #8B6A43",
"r. c #976B48",
"t. c #997345",
"y. c #9B7754",
"u. c #936853",
"i. c #AA7C44",
"p. c #A37C4B",
"a. c #A67845",
"s. c #B17D43",
"d. c #A36E4E",
"f. c #855D46",
"g. c #BA8337",
"h. c #BE8628",
"j. c #C3851F",
"k. c #C6892A",
"l. c #CE933C",
"z. c #D49B36",
"x. c #CA8F34",
"c. c #D8A13B",
"v. c #E4A936",
"b. c #AC814B",
"n. c #A8814B",
"m. c #B28344",
"M. c #B98543",
"N. c #BE8B43",
"B. c #B2854A",
"V. c #BB8A4B",
"C. c #B6894A",
"Z. c #AA8657",
"A. c #B78C55",
"S. c #BD9358",
"D. c #BE904A",
"F. c #B99667",
"G. c #AD8F6A",
"H. c #BCA379",
"J. c #9F8F6D",
"K. c #C4924C",
"L. c #C8954A",
"P. c #D39C48",
"I. c #C39554",
"U. c #CB9A55",
"Y. c #C49A5C",
"T. c #CA9C5B",
"R. c #C69658",
"E. c #D29E54",
"W. c #C2884A",
"Q. c #D9A449",
"!. c #CCA25C",
"~. c #D4A359",
"^. c #DAA85A",
"/. c #CFA04F",
"(. c #E8B659",
"). c #E7B04E",
"_. c #C49A65",
"`. c #CD9771",
"'. c #CCA365",
"]. c #CCA56B",
"[. c #CAA569",
"{. c #D3A562",
"}. c #DCAC65",
"|. c #D4AB6A",
" X c #DAAC69",
".X c #D5A86A",
"XX c #DBB26D",
"oX c #DDB466",
"OX c #C9A976",
"+X c #D6AC75",
"@X c #D9B677",
"#X c #E6B668",
"$X c #E3B572",
"%X c #E3BB75",
"&X c #E4BC7B",
"*X c #E6BA78",
"=X c #EBB56B",
"-X c #F6C34F",
";X c #F4C568",
":X c #ECC37B",
">X c #E6C479",
",X c #F4C776",
"<X c #F6D07D",
"1X c #AF8E84",
"2X c #C9A884",
"3X c #C9B386",
"4X c #D8B986",
"5X c #D3AF85",
"6X c #E5BD86",
"7X c #F3BD81",
"8X c #DCC58E",
"9X c #E4C283",
"0X c #EBCA83",
"qX c #E4C68B",
"wX c #EBCB8C",
"eX c #E8C887",
"rX c #F3CC83",
"tX c #F3CA89",
"yX c #ECD189",
"uX c #F4D48C",
"iX c #F6D588",
"pX c #E7CC97",
"aX c #EDD494",
"sX c #EDD59E",
"dX c #F4D894",
"fX c #F3D69A",
"gX c #F6DC9D",
"hX c #F8D895",
"jX c #F1CA93",
"kX c #FAE39C",
"lX c #EAD7A7",
"zX c #F3DCA4",
"xX c #FADDA9",
"cX c #EBD2A9",
"vX c #FCEAAE",
"bX c #F8E4A7",
"nX c #FBEDBB",
"mX c #F8E8B4",
"MX c #FDF1BB",
"NX c #FEF2B7",
"BX c #EEE0BC",
"VX c #DDC7A8",
"CX c #F6EBC8",
"ZX c #FDF2C2",
"AX c #FDF3CC",
"SX c #FFFBCE",
"DX c #FCF6D3",
"FX c #FCF8D9",
"GX c #F0E8D6",
"HX c #F5EBD5",
/* pixels */
"                                                                                                                                            ",
"                                                                                                                                            ",
"                                                                                                                                            ",
"                                                                                                                                            ",
"                                                                                                                                            ",
"                                                                                                                                            ",
"                                                                                                                                            ",
"                                                                                                                                            ",
"                                                                                        $X6XeX.X:.                                          ",
"                                                                                  m.|. XN.9.M.&XV...g.^.K.^                                 ",
"                                                                                T.B.&XV.' | _ +.<.7.x.(.,X'.Z d                             ",
"                                                                              {.*XR.*XpXS.V.F , S d.*XtXtXrXn.s e                           ",
"                                                                              =X$X.XeXeXR.g.[ 2 9 / 5XjX}.#X*X1.w *                         ",
"                                              @X.X$X{.^.^.M.          :XuXtXtX7X Xr._.g.3.9.A.e 9 f Z H.6XU.V.~.<.<                         ",
"                                         X~.b.Z.y.u.4XbXrXE.L.W.  l.P.=XtXbXnXfXR.B Y.~.9.{.$XO.u B d d e.+Xs.%XyX;.                        ",
"                                        '.8Xr.z f 1 >.B.A.>X7.W.l.x.5.K.rXbXnXfX8.$.$X}.E.$XbX+XO.C j * 4 A.R. XvX[.h                       ",
"                                  aX    yXSXF.u 7 7 8 u f Y.^.|.].m.$.{ |.kXgX@X=.7.~.%XkXmXvXxX`.0.+.* * ;.@XU.:XY.G                       ",
"                                XXZXaX:XwXuXs.u 7 8 8 8 W F.Z.&.~ K m F  .@XqX8.| 3.L.XXgXDXMXbX7X=X!.e.h Z.zXV.8.@.-.^                     ",
"                              =.s.yXyX|._.^.}.' D c _ 7.a.+.V #.n i i I o.a.4X#.v { 4.g.fXCXAXdX,X#XeX&XA.D.aXp.h 8.i.A.<.G H               ",
"                              8.L *.'.+X6X&XeXi.C ..P.F.$.' w h r y i } | _ +.n x [ 4.} .XzXbXeX:XiXbX*XzX>X^.~ ^ %X>.S.i.%.W l             ",
"                            E.<XS.+.|.qX4XV.U.E.9.P.OX&.' [ y w r H Q ` _ M v x v F } | 4.aXdXXX&X9X@XrXAXgXg.h g ! h !._./ / B <           ",
"                          9.E.>X&XV.XX+X4X!.^.Q.).{.f.V ] N w j i Q +.` _ M v x v v _ } X.|.vX0XR.Y.;.eXMXiXL.a + @ ; ,.1.! ! h 5           ",
"                          #X>XeXsXT.XXR.L.Y.U.(.Q.G < K K y y ! R N I _ M v v c b [ | ..j.z.dXbXI.$.H 3XvX;X(.z + @ + 4 #.R 4 & &           ",
"                          dXzXlXBXU.W._.x.L.P.-XE.g ; s l j k R -.~ *.F v x v r i @XT.h.k.z.oXwX&XV.H J.SX%Xg.4 - - o e L k k 5 o           ",
"                        tXvXvXnXsX^.N.'./.z.Q.-XC.F.r.h h h H R t.Z.9._ M M ` F *.CXzXQ.k.c.x.D.9X.XG J.NX%X#.@ & @ @ Q ] h s ; o           ",
"              pXeX$X=X:XrXgXzXjX{.=X}.&XsX#Xj.v.b.A.8.H r.;.F.OXlXOX3.` _ _ _ M N.nXbX(.z.c.c.k._.G.T H.vX%Xg O + o # 1.XXp.a + X           ",
"            4X@X X^.(.;XzXfXwXE.g.wXxXhXsX`.E h.7.2.#.m.qXlXpXpXlX|.5. ._ [ _ M k.dXDX0X^.z.).z.g.H.r.'.uX@X6 O o + & ! 0X^ + X X           ",
"          .X$XM.}.(.;XrXnXbXjX8.N >.G.2X6.^ z X.5.s.F *.S.A.>.t.S..Xz.4.n I { _ ..(.mXkX#Xc.c.z.P.8Xb.eXnXeXg + + 2 , z I.6 X X             ",
"          %XrXK.#X#XrXiXgXZXzX@XA , 1 ; L R { w.w.4.} } B.a.t.%.>.6.L.h.p 0 m } g.#XcXMX0X/./.P.^.F.S.dXAXkX;.+ & r 0 G R & X X             ",
"        G a.>X#X#X=XtX<X;XiX!.S.d & & > ] $.X.w.k.4.W.g.m.p.3XZ 6.$.3.L.k > m A.@XaXbXFXmX4XXXP.K.p.XXeXDXdX,.@ & 0 5 k q @ + +             ",
"        H :. XuX*X$XrX=X#XT.] w w N y 0 ' 3.z.v.}.M.&XzX9X4XlX2XW.O.[ T.e.k 7.[.b.XXkXMXbXnX>X^.9.F.lX@XZXgX;.& # # & l @.: ( a             ",
"        H 1.*XfX_.%.-.V.M.m.=.V 1 1 i n { l./.(.N.M.fXAX8XF.Y.C.$.O.i.b.m.g.#X6.#.OXmXbXaXpXlX9Xg._.zXaXZXvX,.& @ & @ T -.: ^ 6             ",
"        q T p.p.k > > e H l q V f % w n 4.;XbX|.9.sXnXsX~ r | m y $.+XVX5X*XzXs.a.6XBX@X>XmXDXqX7.t.>XXXsXwX-.@ @ @ + # - + : o             ",
"        & a l h > * * & = & * 1 H 1 y L 9.I.].s.L.hXgX!.n t m v t R pXFXFX6X'.:._.6XOX6.B.].BXcXt.R B.i.XXXXQ @ + @ + + X o X X             ",
"        + ; B k * , > * & & & 2 0 5 , y Q j a ^ *XvXxX7.K m M r U @.eXlXmX].| P {.zX'.{ 1.OXCXGX3XR ! t.^ ;.R @ + + + + X X 3 6             ",
"        o @ : & * > & & @ & * > > > > > 0 1 1 5 n.zXOXJ { [ M r a.A.qX@XuXA.b #.C.9Xp.j :.+XAXHX3X~ l Z > , s @ + + + + X o Y Z :           ",
"        X + + @ * * & @ @ @ * > > > > , 0 0 0 , s ~ z t v x x V OXm.#.&.%X*.V a.T P R W F.eXsXF.%.! z 4 w e * + + @ @ @ + 3 ) h             ",
"          o + & * # @ @ @ & * , , , , 0 0 0 0 > > > 1 t 7 u x x L n b 7 >.K.#.z & e #.r._.rXZ.%.~ ^ / < ! @., @ + @ @ + + 6 Z &             ",
"          X + & @ + + @ & * 2 1 0 , > > > > , > , s @.v u u M x y E b f L +.I > + < K B E p.Y / n.F.y./ ^ ,.w & @ @ + X X + o X             ",
"              + o + + @ & * * > 0 , > > = * > > > 4 P m u 8 t t ;.&.' 6.9.m.k * @ < +.t b 5 6 $ Z ,.F.) ^ T * & @ + o X . . X               ",
"                o + + & & > > > , > > > > = * > > * L 3.t 8 7 n 8.a.[ 4.E.7.w & @ < ,.n r & ; + @ Z Z.A ) ! & @ & @ o X . . X               ",
"                + + @ & < q q = > > > > * > = > s R >.U.J * 1 n q.} 1.{ P.>., * & & s L p @ + + + + : ; 4 < # & = & + o o X                 ",
"                  + & < 5 s k s h 4 < > * = = > -.B.#.:.V.G L ] q...S.7.~.n.7 * * & 1 V N * @ o o + @ w 0 * + & & & # + + o                 ",
"                    4 h 1 w H E H s > > < > > > e h H L &.*.P 7.W.^.@X|.8.N * * & * > t I B < + + + & * & @ o = > = # + o                   ",
"                    1 w 0 w B +.#.Q h > > > e e j Q k #.5 T 1.>.#.G B H e , * > & > < f #.:.s @ + + @ @ + # @ * = = + + o                   ",
"                    1 0 q h H L P U P e > > h j H E h N > z Y.U.:.H w 0 1 q e q > * S :.*.B @ + + + & + + # @ & = & @ &                     ",
"                    * , q j E L H H i h e w k e H R -.> * T &X*XK.I.8.G h w J e > * N *.k + + + + + @ @ @ & @ & 4 > & *                     ",
"                    * > B E P 2.4XOX@.Q j q e e q 4 < * 1 a.@X:X XU.*.I H h h e * & y V 4 o + @ # & @ @ & # & 4 4 4 @                       ",
"                    5 , h Q H !.uXrX}.i.s e Q B , > & = e a.M.2.8.F.T V +.P w , & @ 0 > + o + @ > 0 * & & @ < P 4 =                         ",
"                    4 h k P >.|.dXhX XT.;.y H w r t > 5 L _.V.m 9.y.a ; 1.m.H < @ @ < & + @ + @ e , & @ @ * 1 h > &                         ",
"                    5 G 2.m.%XhXvXvX@XY.].N y e r r 0 0 G 4X[._ 5.j * ; OX].~ : + + @ @ @ + X + > * @ + & , N >.R                           ",
"                    4 G m.*XhXMXDXMX:XV.B.Q h w 5 e > = , -.E.' } e a :.@.< + o o o @ @ + o o + O + @ & y H B.C.                            ",
"                    : l S.gXbXZXZXvXdX@X1.2.R #.h 5 = * > 1 @.=.} I V.@.# + o . . o @ @ + + + + + + + & e -.,.                              ",
"                    $ s ,.].dXnXMXuXuXkX|.' >.>.-.T 4 4 & & ; B { 8.Y.4 + @ @ o o + + + + @ @ O + @ % & y                                   ",
"                      a b.T.dXSXAX:XL.K.I.S.i.' b.! q & o o < & 4 i.,.> & @ @ @ @ @ o X X + o O + o +                                       ",
"                      6 ;.U.uXZXFXwXU.g.V.tXI.B < $ + + o o # & @ : q B * @ & @ @ + . . .                                                   ",
"                        4 l S.eX+X:XdX$X*X0XF.d + X X X X X o @ + ; N h & + @ @ @ o .                                                       ",
"                        @ * a T T &.'.hXgXcX1XZ + X X X X X X & s B ! 4 & + + + + o                                                         ",
"                          + @ # & & s p._.2Xe.a + . . X X X X + g l < & 4 @ o o o                                                           ",
"                            @ & & * a Z Z Q f d             # @ : T s l d + X                                                               ",
"                              & > <                             @ ! <.,.6 X                                                                 ",
"                                                                ; W   6                                                                     ",
"                                                                                                                                            ",
"                                                                                                                                            ",
"                                                                                                                                            ",
"                                                                                                                                            ",
"                                                                                                                                            ",
"                                                                                                                                            ",
"                                                                                                                                            ",
"                                                                                                                                            "
};
