/* XPM */
static char *result[] = {
/* columns rows colors chars-per-pixel */
"80 80 247 2 ",
"   c #060400",
".  c #0B0601",
"X  c #0E0802",
"o  c #140A02",
"O  c #1B0D03",
"+  c #120701",
"@  c #1E1105",
"#  c #210F03",
"$  c #241204",
"%  c #2B1504",
"&  c #2E1906",
"*  c #251509",
"=  c #2D1A0A",
"-  c #29160A",
";  c #311604",
":  c #341A05",
">  c #3B1D05",
",  c #331D0A",
"<  c #3A1E09",
"1  c #361607",
"2  c #2F1D13",
"3  c #3D220B",
"4  c #3B2209",
"5  c #3D2412",
"6  c #3A2714",
"7  c #302522",
"8  c #481A04",
"9  c #561C02",
"0  c #451E11",
"q  c #432205",
"w  c #4D2505",
"e  c #43250B",
"r  c #49260A",
"t  c #46290E",
"y  c #4C2A0D",
"u  c #4F2806",
"i  c #532202",
"p  c #532D0C",
"a  c #582A06",
"s  c #59320D",
"d  c #4A2D13",
"f  c #452A16",
"g  c #542E12",
"h  c #582E17",
"j  c #4E3214",
"k  c #4B311A",
"l  c #543213",
"z  c #5A3512",
"x  c #5D3915",
"c  c #5C3B1B",
"v  c #56361B",
"b  c #4E300F",
"n  c #662B03",
"m  c #633206",
"M  c #6B3305",
"N  c #63350C",
"B  c #6B380B",
"V  c #753A08",
"C  c #623B15",
"Z  c #6B3C12",
"A  c #633D1A",
"S  c #663618",
"D  c #773B14",
"F  c #672A12",
"G  c #573A24",
"H  c #4E342B",
"J  c #623D23",
"K  c #7C430A",
"L  c #78410B",
"P  c #65421D",
"I  c #6C441C",
"U  c #6C4318",
"Y  c #73451B",
"T  c #744A1D",
"R  c #784817",
"E  c #7F511F",
"W  c #594227",
"Q  c #6C4B23",
"!  c #674726",
"~  c #744B23",
"^  c #774C26",
"/  c #7C5123",
"(  c #7A552C",
")  c #6A4934",
"_  c #7A5634",
"`  c #724F32",
"'  c #7A664C",
"]  c #75594A",
"[  c #833D0E",
"{  c #83460B",
"}  c #864B0C",
"|  c #8A4C0A",
" . c #99580D",
".. c #834B17",
"X. c #8A5319",
"o. c #88541A",
"O. c #955916",
"+. c #8F510C",
"@. c #9B621D",
"#. c #A46519",
"$. c #BA781B",
"%. c #B66D19",
"&. c #844A27",
"*. c #845524",
"=. c #8B5B25",
"-. c #845A2B",
";. c #8B5D29",
":. c #865627",
">. c #935C27",
",. c #835B34",
"<. c #9A4E24",
"1. c #8C612B",
"2. c #93632E",
"3. c #9D6629",
"4. c #8C6334",
"5. c #896337",
"6. c #966A34",
"7. c #946B3A",
"8. c #9A6D3B",
"9. c #976834",
"0. c #9C713A",
"q. c #A46A28",
"w. c #AA722A",
"e. c #B47827",
"r. c #A46D37",
"t. c #AD7B3C",
"y. c #A77538",
"u. c #B27B36",
"i. c #A35F12",
"p. c #C37D16",
"a. c #855C42",
"s. c #886943",
"d. c #976A44",
"f. c #9A7547",
"g. c #957654",
"h. c #A67B46",
"j. c #B37B44",
"k. c #AD7852",
"l. c #C6744B",
"z. c #BA8439",
"x. c #BE832B",
"c. c #C48728",
"v. c #C48B37",
"b. c #CA9236",
"n. c #D39938",
"m. c #D49629",
"M. c #DAA33A",
"N. c #E7AD39",
"B. c #D08A1B",
"V. c #AD8248",
"C. c #B48344",
"Z. c #B3854A",
"A. c #BC8C4B",
"S. c #B98847",
"D. c #A98656",
"F. c #B38B54",
"G. c #B88C56",
"H. c #BC935B",
"J. c #B99157",
"K. c #B69153",
"L. c #9C8262",
"P. c #B68C64",
"I. c #BB9967",
"U. c #AC8B6C",
"Y. c #BDA072",
"T. c #C38E47",
"R. c #C4924C",
"E. c #CA954C",
"W. c #CA9547",
"Q. c #D49B48",
"!. c #C49453",
"~. c #CD9B54",
"^. c #C49A5C",
"/. c #CB9D5C",
"(. c #C59656",
"). c #D19D56",
"_. c #D8A449",
"`. c #CDA15B",
"'. c #D7A65A",
"]. c #D6A850",
"[. c #E8B356",
"{. c #EAB552",
"}. c #C69C65",
"|. c #CD9C6B",
" X c #CDA465",
".X c #C8A56A",
"XX c #D3A563",
"oX c #DAAB64",
"OX c #D4AB6B",
"+X c #D7AA68",
"@X c #DDB369",
"#X c #C8A875",
"$X c #D3AC72",
"%X c #D8AC74",
"&X c #DEB374",
"*X c #DAB778",
"=X c #CBB17F",
"-X c #E1AC63",
";X c #E7B869",
":X c #E3BB74",
">X c #EBBB73",
",X c #E3BC7D",
"<X c #E6B875",
"1X c #EBB26E",
"2X c #F5C25D",
"3X c #F3C56A",
"4X c #E9C47A",
"5X c #F1C87A",
"6X c #EFC86F",
"7X c #D9B987",
"8X c #CBB08B",
"9X c #E3BC83",
"0X c #E1BB8B",
"qX c #E0BEAC",
"wX c #DEC696",
"eX c #E4C284",
"rX c #E8C889",
"tX c #F4CC83",
"yX c #F2CC8C",
"uX c #F3C586",
"iX c #EDD28C",
"pX c #F4D38C",
"aX c #F7D287",
"sX c #E8CC97",
"dX c #EDD699",
"fX c #F3DB9B",
"gX c #F6D896",
"hX c #F0CB90",
"jX c #FAE39C",
"kX c #EBD7A7",
"lX c #F5DBA3",
"zX c #EADAB3",
"xX c #FCE5A4",
"cX c #FAE5AC",
"vX c #F9E7A9",
"bX c #FBECBC",
"nX c #F8E8B4",
"mX c #FDF1B9",
"MX c #F7EBC6",
"NX c #FDF4C3",
"BX c #FBF5CC",
"VX c #F3EBD5",
"CX c #FDF8D6",
"ZX c #EEE2C2",
"AX c #FBF7E1",
"SX c #EADEC8",
"DX c None",
/* pixels */
"DXDXDXDXDXDXDXDXDXDXDXDXDXDXDXDXDXDXDXDXDXDXDXDXDXDXDXDXDXDXDXDXDXDXDXDXDXDXDXDXDXDXDXDXDXDXDXDXDXDXDXDXDXDXDXDXDXDXDXDXDXDXDXDXDXDXDXDXDXDXDXDXDXDXDXDXDXDXDXDX",
"DXDXDXDXDXDXDXDXDXDXDXDXDXDXDXDXDXDXDXDXDXDXDXDXDXDXDXDXDXDXDXDXDXDXDXDXDXDXDXDXDXDXDXDXDXDXDXDXDXDXDXDXDXDXDXDXDXDXDXDXDXDXDXDXDXDXDXDXDXDXDXDXDXDXDXDXDXDXDXDX",
"DXDXDXDXDXDXDXDXDXDXDXDXDXDXDXDXDXDXDXDXDXDXDXDXDXDXDXDXDXDXDXDXDXDXDXDXDXDXDXDXDXDXDXDXDXDXDXDXDXDXDXDXDXDXDXDXDXDXDXDXDXDXDXDXDXDXDXDXDXDXDXDXDXDXDXDXDXDXDXDX",
"DXDXDXDXDXDXDXDXDXDXDXDXDXDXDXDXDXDXDXDXDXDXDXDXDXDXDXDXDXDXDXDXDXDXDXDXDXDXDXDXDXDXDXDXDXDXDXDXDXDXDXDXDXDXDXDXDXDXDXDXDXDXDXDXDXDXDXDXDXDXDXDXDXDXDXDXDXDXDXDX",
"DXDXDXDXDXDXDXDXDXDXDXDXDXDXDXDXDXDXDXDXDXDXDXDXDXDXDXDXDXDXDXDXDXDXDXDXDXDXDXDXDXDXDXDXDXDXDXDXDXDXDXDXDXDXDXDXDXDXDXDXDXDXDXDXDXDXDXDXDXDXDXDXDXDXDXDXDXDXDXDX",
"DXDXDXDXDXDXDXDXDXDXDXDXDXDXDXDXDXDXDXDXDXDXDXDXDXDXDXDXDXDXDXDXDXDXDXDXDXDXDXDXDXDXDXDXDXDXDXDXDXDXDXDXDXDXDXDXDXDXDXDXDXDXDXDXDXDXDXDXDXDXDXDXDXDXDXDXDXDXDXDX",
"DXDXDXDXDXDXDXDXDXDXDXDXDXDXDXDXDXDXDXDXDXDXDXDXDXDXDXDXDXDXDXDXDXDXDXDXDXDXDXDXDXDXDXDXDXDXDXDXDXDXDXDXDXDXDXDXDXDXDXDXDXDXDXDXDXDXDXDXDXDXDXDXDXDXDXDXDXDXDXDX",
"DXDXDXDXDXDXDXDXDXDXDXDXDXDXDXDXDXDXDXDXDXDXDXDXDXDXDXDXDXDXDXDXDXDXDXDXDXDXDXDXDXDXDXDXDXDXDXDXDXDXDXDXDXDXDXDXDXDXDXDXDXDXDXDXDXDXDXDXDXDXDXDXDXDXDXDXDXDXDXDX",
"DXDXDXDXDXDXDXDXDXDXDXDXDXDXDXDXDXDXDXDXDXDXDXDXDXDXDXDXDXDXDXDXDXDXDXDXDXDXDXDXDXDXDXDXDXDXDXDXDXDXDXDXDXDXDXDXDXDXDXDXDXDXDXDXDXDXDXDXDXDXDXDXDXDXDXDXDXDXDXDX",
"DXDXDXDXDXDXDXDXDXDXDXDXDXDXDXDXDXDXDXDXDXDXDXDXDXDXDXDXDXDXDXDXDXDXDXDXDXDXDXDXDXDXDXDXDXDXDXDXDXDXDX<XeX<XZ.DXDXDXDXDXDXDXDXDXDXDXDXDXDXDXDXDXDXDXDXDXDXDXDXDX",
"DXDXDXDXDXDXDXDXDXDXDXDXDXDXDXDXDXDXDXDXDXDXDXDXDXDXDXDXDXDXDXDXDXDXDXDXDXDXDXDXDXDXDXDXDXDXDXj.}.1X@XXX/.<XhXj.>.w.'.E.4.DXDXDXDXDXDXDXDXDXDXDXDXDXDXDXDXDXDXDX",
"DXDXDXDXDXDXDXDXDXDXDXDXDXDXDXDXDXDXDXDXDXDXDXDXDXDXDXDXDXDXDXDXDXDXDXDXDXDXDXDXDXDXDXDXDXDXG.j.*XXXX.+.| O./.Z.%.e._.{.XX,.f DXDXDXDXDXDXDXDXDXDXDXDXDXDXDXDXDX",
"DXDXDXDXDXDXDXDXDXDXDXDXDXDXDXDXDXDXDXDXDXDXDXDXDXDXDXDXDXDXDXDXDXDXDXDXDXDXDXDXDXDXDXDXDX}.&XZ.9X%X2.q.O.M F &.j.(.1XaXaX+XG d t DXDXDXDXDXDXDXDXDXDXDXDXDXDXDX",
"DXDXDXDXDXDXDXDXDXDXDXDXDXDXDXDXDXDXDXDXDXDXDXDXDXDXDXDXDXDXDXDXDXDXDXDXDXDXDXDXDXDXDXDXDX1X1X).:XcX$X*Xq.F ; h a.9XhX9X>XaXF.d q 4 DXDXDXDXDXDXDXDXDXDXDXDXDXDX",
"DXDXDXDXDXDXDXDXDXDXDXDXDXDXDXDXDXDXDXDXDXDXDXDXDXDXDXDXDXDXDXDXDXDXDXDXDXDXDXDXDXDXDXDX-X>X1X|.rX,X^.u.r.D 1 0 J k.kX<X).;X1Xh.b & DXDXDXDXDXDXDXDXDXDXDXDXDXDX",
"DXDXDXDXDXDXDXDXDXDXDXDXDXDXDXDXDXDXDXDXDXDXDXDXDXDX,XOX%X,X).-X-XT.t.DXDXDXDXDX4XpXyXyXuX9X|.d.}.C.q.w./.d.1 0 h H g.hX%XT.S.'.z.6 DXDXDXDXDXDXDXDXDXDXDXDXDXDX",
"DXDXDXDXDXDXDXDXDXDXDXDXDXDXDXDXDXDXDXDXDXDXDX@XoXG.G.P.g.k.kXxXaX'.W./.DXDXb._.1XaXfXbXcXuXT.h (.-Xu.!.&X|.S h J f 5 ` P.+Xy.,XpX0.DXDXDXDXDXDXDXDXDXDXDXDXDXDX",
"DXDXDXDXDXDXDXDXDXDXDXDXDXDXDXDXDXDXDXDXDXDXDX X$Xg.G J 0 f P.}.^.5Xt.u.E.b.m.$.Q.tXgXmXnXhX9.:.&X@XW.E.yXlXl.D F h ; - ` &XT.<XvX*XQ DXDXDXDXDXDXDXDXDXDXDXDXDX",
"DXDXDXDXDXDXDXDXDXDXDXDXDXDXDXDXDXDXDXDXDXDXDX*XCX0XF 8 0 8 F F S OX-Xz.1X).v.r.3.;XfXvXfX$XX.j.oX:XtXfXlXNXhXl.<.<.1 * 5 (.|.E.pX4XT 6 DXDXDXDXDXDXDXDXDXDXDXDX",
"DXDXDXDXDXDXDXDXDXDXDXDXDXDXDXDXDXDXDXhXmXdXiXjXnX}.F 8 9 9 8 8 e f.*XP.L.d.o.L { 3.*XfX9XZ.+.w.W.@XdXmXNXlXlX1X-X!.c e 0 8XrXT.'.Z.*.Q DXDXDXDXDXDXDXDXDXDXDXDX",
"DXDXDXDXDXDXDXDXDXDXDXDXDXDXDXDXDXDXS.vXmX6X:X*X>XQ.&.8 9 9 n D k.P.d...E N B s B i.z.kXG.o.V @.T.E.hXnXAXmXxXtX2X4X.XJ.Z rXkXh.T T 6.V.5.DXDXDXDXDXDXDXDXDXDXDX",
"DXDXDXDXDXDXDXDXDXDXDXDXDXDXDXDXDX3.X.R.4X*X.XY.XX>Xj.n [ [ %.).7...Z J T u s s ..i.{ I.F.V M 3.q.@.&XcXCXcX5X;X;XfX:XeXS.].rX7.j K.z.K.!.1.~ ~ P DXDXDXDXDXDXDX",
"DXDXDXDXDXDXDXDXDXDXDXDXDXDXDXDXW.!.( L t.OX7XrX9X9X%X[ [ p.+Xk.>.X.s y p u p m  .| [ { V a M X.e.+.u.sXlXdXeX4XiXvX<XgXnX;X~.P ` rXy.0./.d.,.` P DXDXDXDXDXDXDX",
"DXDXDXDXDXDXDXDXDXDXDXDXDXDXDXDXQ.tX9X;.j.<XsX8Xj.T.'.v.l.1XU.*...O.s y u p ~ E i.| K V n n V { O.+.i.+XxXiXOX4X4X$X4XcXCX6Xw.t 6 ( 5 5.4Xh.H ) P 4 DXDXDXDXDXDX",
"DXDXDXDXDXDXDXDXDXDXDXDXDXDXDXu.E.@XpXA.!.1X$X0X}.]._.{.[.$X` D X.R y g g s ;.=. .} L M M m M M K  .#.z.fXvX:X(. X7..XmXmX6Xz.6 o O O Q F.9.` ( l t DXDXDXDXDXDX",
"DXDXDXDXDXDXDXDXDXDXDXDXDXDXDXoX4X:XvX+X+X%X(.~. X/.;X{.c.G 5 R R y y A ,.S C R K L V M n m M R } i.c.B.@XvXiXZ.1.I D.mX5X2X].6 o o o * C ;.T 4 * , DXDXDXDXDXDX",
"DXDXDXDXDXDXDXDXDXDXDXDXDXDXDXaXdXeXMX X).(.}.c.E.v.N.2X2.# % z A z x A 1.( T O.K L M s M w Z `.x.w.c.m.].jXfX*Xy./ _ VXvX].R.6 * - . O z T x v , o DXDXDXDXDXDX",
"DXDXDXDXDXDXDXDXDXDXDXDXDXDXiXcXvXnXBX*XR.Z./.W.b._.2X3Xd.g.H d v p A S ( _ f.z.| M M L K a 1.nXkX_.b.m.M.z..X4XoX/ ) MXnX].E @ - - X 4 ..U y x 3 X DXDXDXDXDXDX",
"DXDXDXDXDXDXDXDXDX9X,X<X,X>XtXcXnXvXsX1XW.`.OXoXM.m.N.].5.9X7.x c l / _ f.Y..Xw.+.K K K @.K `.BXfX].b.n.M.c.A.rX*XQ ' mXiX`.b X @ o X c z.6.! t @ X DXDXDXDXDXDX",
"DXDXDXDXDXDXDXDXdXeX-X-X>X5XaXgXkXrX).1X>X>X4XMXeXe.m.].f.Z.2.^ I.I.#XwXzXzX`.w. .+.R +.m K ].mXMX4XM.M.M.N.m.V.L.( ' jXjX^.* X X . o j OXiX7.2 X X DXDXDXDXDXDX",
"DXDXDXDXDXDXDX7X$XXXoX{.2X5XlXdXrXQ.w.XXlXZXgX0X|.) 3.e.q.E ..T.sXkXdX7XsXkX^.x.#.K R @.L | x.5XBXgX:XM._.N.m.z.8XD.K.iXjXK.o X X o % & K.*X6   X X DXDXDXDXDXDX",
"DXDXDXDXDXDX%X:Xj.'.1X2X3XgXMXcXdXS.S T r.Y.|.9._ f #.B.T.r.K 3.K.F.1.7.d..X`.n.w.L L @.+.} x.3XvXvX4XM.M.M.b.~.dXV..XmXnX.X= X o $ w & 7.V.@ . . X DXDXDXDXDXDX",
"DXDXDXDXDXh.tXaXT.'.3X;XgXaXvXNXnX7X' & q 4 4 T T R p.p.$.w. .O.V.V.5.7.5.3.y.E.b.N 4 a +.@.z.6XsXMXgX].].M.n.@XY.V.4XbXNXiXW o O w w q -.P o X X DXDXDXDXDXDXDX",
"DXDXDXDXDX/  XaX-X-X1X1XjX6X5XjX:X@X^ O @ @ : o.>.@.p.p.%.q.w.w.z.0.=X' P h.>.y.W.U > i X.`.*XfXfXCXCX*X=X].~.(.V.'.:XmXbX5XQ O $ w q x s & X   X DXDXDXDXDXDXDX",
"DXDXDXDXDXT ;.-XtXoX>XtXaX[.3XoX=.C b u b 4 q o.q.b.m.N.`.E.rXeX.X^.kX8Xk.k.&...~.5.* D t.7XJ.rXjXNXbXnXzX*X~.z.D.dXOXnXNX5XQ @ $ $ $ 4 U c o v , DXDXDXDXDXDXDX",
"DXDXDXDXDX*.C.,XxXhX}.A.oX;X!.A.r.p 4 u U p p +.c.v.N.;Xy.T.hXbXvXwXwX*X}.r.D r.G..X1.b.`.6.9.$XjXvXkXdXdX*X@Xx.I.nX*XvXNXiXQ @ O @ @ 4 A.I 2 V.j DXDXDXDXDXDXDX",
"DXDXDXDX3 I 7.%X9Xd.S d P 6.2.7.T *.h # 1 N B w.{.*XuXS.u.hXnXBXP.` 3.w.D ~ >.(.D.h.T.rX1X&.9.8XBXkXiXsXzXBX*Xz.V.fXeXvXbXdXQ O @ $ O $ ` 6 @ ! * DXDXDXDXDXDXDX",
"DXDXDXDX% 5 c 5.,.z : % $ : l 4 ; u S ; $ C B z.2XvX0Xw.oXbXnXeXI u K K a i d.sXVXSX9XgX7X9.(.hXzXY.`.iXbXVX*X3.( *XR.@XsXoXI o o @ o o X X X X X DXDXDXDXDXDXDX",
"DXDXDXDXO * t v g ; & ; % % % $ % : A x 8 l ~ t.h.H.h.C.>XgXpXE.s i V m M a ,.dXAXAXsX).8.9.$X0X#X3.0.Z.wXZXwXf.P V.6.^.*X`.c o o @ O O X     . X DXDXDXDXDXDXDX",
"DXDXDXDX. o , I A & : > % % $ % $ & : 0 > > s *.g e j /.gXbXkX3.R B } a N -.6.hXkXnXsXq.K 2.&XlX$X@.2.J.zXSXVX8XQ / 0.' Q 6.c o X o X o X     2 7 DXDXDXDXDXDXDX",
"DXDXDXDXDXX @ - % % : % % $ O $ $ : : : ; ; : q > q : Q eXcXI.B @.O.{ a U V.H.dX,XyX*XY M >.(.iXk.h ^ F.kXCXMXwX( P G t % r b o o X o o o   X ) ! & DXDXDXDXDXDX",
"DXDXDXDXDXX O o O $ & $ $ O O $ % ; > : : & > q q q q 4 ( f.c m K M M 9 d.*XK.1.7.iXS.N Y F.Q 2.^ S d.*XdXzXI.5.( P 6 b r : % o o O O o O + 7 ' x = DXDXDXDXDXDX",
"DXDXDXDXDX. X o @ % % O o o O O % > > & > > q q q q > : : < & m w i a n I 0.L F 9 y.).3.T ! - p &.d.J.4XrXL._ ~ ! W % 6 / U % o o O O o O o W ` 4 DXDXDXDXDXDXDX",
"DXDXDXDXDX  . o $ % O o O O O % ; > > 8 > : > 8 : q : 4 > z A m 9 i n V i i Z N 0 C r.r.U $ O 4 R -./ OX^.` s.d.D.U.k ` f.*.4 @ o O O o   o 2 @ X DXDXDXDXDXDXDX",
"DXDXDXDXDXDX. X o o o o O # $ & & 4 q 4 : : > & & ; : : : P ;.m w 9 n V u :.&.D ~ &.2.R u $ O , ..p D S G 2 k V.F.g.g.W d.W 4 $ O o o X     X     DXDXDXDXDXDXDX",
"DXDXDXDXDXDXDXDXDXX o o O # $ & & ; 8 q > ; : & % & ; : : 3 / V w 9 i i Y k.&.O.u.E.(.9.: $ o 4 y.N s 8 = 6 X 6 ( .XL.) V.6 $ @ @ o X X         DXDXDXDXDXDXDXDX",
"DXDXDXDXDXDXDXDXDXX X + O $ & 4 ; ; > : ; ; : ; & % ; : ; : ;.u.a 9 8 i { u.r.X.3.W.u.Z ; $ O = 7.B m 1 O @ o o f g.W 6 5.d @ @ % @ o . .     . DXDXDXDXDXDXDXDX",
"DXDXDXDXDXDXDXDXDXDX+ o # $ 4 e t ; ; : : : : & & & : 4 A -.h.'.R $ ; w ..#.X.h.X.b.!.s & % $ $ t Y Z - O o X X o @ * 4 4 & O $ & $ @ X X . . DXDXDXDXDXDXDXDXDX",
"DXDXDXDXDXDXDXDXDXDXo O $ 3 e l x t v 3 < < : - & & & z J.C.~ 0.A.P Z T O.#.#.J.q.T.*Xs > $ % $ = Z I e O X X X o X 3 s ; % o $ * $ @ O o X DXDXDXDXDXDXDXDXDXDX",
"DXDXDXDXDXDXDXDXDXDXDX$ d e < p U T Q l < & : : 4 & 4 4 z C Y I f.t.o.=.u.v.-X4X:XA.9.> ; $ $ % < a D Y 4 @ X o o * & ; * o X - & % % O X X DXDXDXDXDXDXDXDXDXDX",
"DXDXDXDXDXDXDXDXDXDXDX* p e 3 y P =.*.T A 4 : > : 3 r 4 Q c I o.e C 9.( j.8.9.4.6.s r % ; ; @ ; $ 0 U >.^ t X o o $ # O o @ o : 4 & @ X X DXDXDXDXDXDXDXDXDXDXDX",
"DXDXDXDXDXDXDXDXDXDXDX, q e e s C T =.*.*.x 4 : : 3 s z T Q j / < j V.A.=.z q 4 r > q : > : % ; k ) ;.y.v $ o O X * O + o $ @ % % * O O o DXDXDXDXDXDXDXDXDXDXDX",
"DXDXDXDXDXDXDXDXDXDXDXDX> e 3 z E I U U U U y ; 4 N l x ~ -.P t & 3 D.5X!.j.4.P b r e z z 4 > % J r.>.c O o o o X $ O o o @ o $ : : O & * DXDXDXDXDXDXDXDXDXDXDX",
"DXDXDXDXDXDXDXDXDXDXDXDX& > l A T U ( 4.U y l g b z r g A ( Q $ & ! %XaX;X!.'.S.I C r x C < : $ g >.Y O o o o o + O o O @ $ @ $ 4 4 @ $ DXDXDXDXDXDXDXDXDXDXDXDX",
"DXDXDXDXDXDXDXDXDXDXDXDX: 4 T / T 1.*XkXJ.7.-.d 4 t s 3 3 ; * & : 9.XX:X<X'.C.*.R T C p p < * * p N y + o o O $ & # @ $ @ $ = b 4 t O DXDXDXDXDXDXDXDXDXDXDXDXDX",
"DXDXDXDXDXDXDXDXDXDXDXDX> 4 l ( U J.tXtX4X`.y.y q / / 3 > % % & r 8.A.9.*.C.I.I C 1.o.C > < O O 0 > + + o o $ : w ; $ $ $ @ 3 *.4 = O DXDXDXDXDXDXDXDXDXDXDXDXDX",
"DXDXDXDXDXDXDXDXDXDXDX, t v z T 9./.yXgXtX`.`.( y T s q m u : 3 I F.+X..R (.a.t = *.S.*.r ; O o , - o O o o # u 8 % # O # ; < l 4 % DXDXDXDXDXDXDXDXDXDXDXDXDXDX",
"DXDXDXDXDXDXDXDXDXDXDX4 t / =.t.oXpXjXmXgX/. X XC p r u m w q q P $XdXR q.w.d 1 O L.dXG.! O + o O O O O + . O q & O + O # 8 z ;.c DXDXDXDXDXDXDXDXDXDXDXDXDXDXDX",
"DXDXDXDXDXDXDXDXDXDXDX; b T C.@XgXvXNXCXjX@XA.^.T b r > r 3 : : q 4.>X>.[ q.; - ! Z.^ 2 O o . + O O o o . + + o O o O < y P V.S.H.DXDXDXDXDXDXDXDXDXDXDXDXDXDXDX",
"DXDXDXDXDXDXDXDXDXDXDXO t /  XgXgXmXCXmXvX+XZ.9.6.P P s 4 4 % * & 3 8.t.[ ..y 7.j.j o +     . . O O o o . O + X . + # > x 0.F.DXDXDXDXDXDXDXDXDXDXDXDXDXDXDXDXDX",
"DXDXDXDXDXDXDXDXDXDXDXDX2 ! }.dXcXnXBXxXvXjXfXh.o.=.9.( l 4 = & : & 3 -.3.@.3.).P o o o     . + O o o o o O X o O o # & T ( DXDXDXDXDXDXDXDXDXDXDXDXDXDXDXDXDXDX",
"DXDXDXDXDXDXDXDXDXDXDXDX* c 0.H.aXmXBXfX6X4XyX@X*.9.3.2.J.k y 4 @ O @ = v X.(.(.- O O O # + o o + + X o O + + + O @ % < DXDXDXDXDXDXDXDXDXDXDXDXDXDXDXDXDXDXDXDX",
"DXDXDXDXDXDXDXDXDXDXDXDXX ! H.XXpXCXCXcX'.S.j.T. XH...;.k.k 4 O . . = , O d k.( 1 % # O # O o o X     o o X X o + X DXDXDXDXDXDXDXDXDXDXDXDXDXDXDXDXDXDXDXDXDXDX",
"DXDXDXDXDXDXDXDXDXDXDXDXDXk 6.`.aXbXCXMX@XE.u.R.pX.X-.4 @ X o X X . O @ @ O * 3 Q 1 O # # O O o       DXDXDXDXDXDXDXDXDXDXDXDXDXDXDXDXDXDXDXDXDXDXDXDXDXDXDXDXDX",
"DXDXDXDXDXDXDXDXDXDXDXDXDX@ t P (.pX9X&XpXyX-X<XuXOXJ * .   . . .   . O o o : C x = o O O O O X   DXDXDXDXDXDXDXDXDXDXDXDXDXDXDXDXDXDXDXDXDXDXDXDXDXDXDXDXDXDXDX",
"DXDXDXDXDXDXDXDXDXDXDXDXDXDX@ & j _ 4.;.^.aXxXgXsX8X] - .       .     o < k ! ,.3 O o o o O X . DXDXDXDXDXDXDXDXDXDXDXDXDXDXDXDXDXDXDXDXDXDXDXDXDXDXDXDXDXDXDXDX",
"DXDXDXDXDXDXDXDXDXDXDXDXDXDXDX@ $ # $ & 3 ,.$X0XqXU.G $ .     . . .   . , G z 5 $ 5 * o X o X DXDXDXDXDXDXDXDXDXDXDXDXDXDXDXDXDXDXDXDXDXDXDXDXDXDXDXDXDXDXDXDXDX",
"DXDXDXDXDXDXDXDXDXDXDXDXDXDXDXDXO * # # - j ` ,.g.D G 7       . DXX o O o G c % 1 3 $ X . DXDXDXDXDXDXDXDXDXDXDXDXDXDXDXDXDXDXDXDXDXDXDXDXDXDXDXDXDXDXDXDXDXDXDX",
"DXDXDXDXDXDXDXDXDXDXDXDXDXDXDXDXDXO % & , k k DXDX0 5 DXDXDXDXDXDXDXDX* O - ( ! 4.Q O . DXDXDXDXDXDXDXDXDXDXDXDXDXDXDXDXDXDXDXDXDXDXDXDXDXDXDXDXDXDXDXDXDXDXDXDX",
"DXDXDXDXDXDXDXDXDXDXDXDXDXDXDXDXDXDX< < DXDXDXDXDXDXDXDXDXDXDXDXDXDXDXDXDX- 7.h._ 6 X DXDXDXDXDXDXDXDXDXDXDXDXDXDXDXDXDXDXDXDXDXDXDXDXDXDXDXDXDXDXDXDXDXDXDXDXDX",
"DXDXDXDXDXDXDXDXDXDXDXDXDXDXDXDXDXDXDXDXDXDXDXDXDXDXDXDXDXDXDXDXDXDXDXDXDXf DXDXDXDXDXDXDXDXDXDXDXDXDXDXDXDXDXDXDXDXDXDXDXDXDXDXDXDXDXDXDXDXDXDXDXDXDXDXDXDXDXDX",
"DXDXDXDXDXDXDXDXDXDXDXDXDXDXDXDXDXDXDXDXDXDXDXDXDXDXDXDXDXDXDXDXDXDXDXDXDXDXDXDXDXDXDXDXDXDXDXDXDXDXDXDXDXDXDXDXDXDXDXDXDXDXDXDXDXDXDXDXDXDXDXDXDXDXDXDXDXDXDXDX",
"DXDXDXDXDXDXDXDXDXDXDXDXDXDXDXDXDXDXDXDXDXDXDXDXDXDXDXDXDXDXDXDXDXDXDXDXDXDXDXDXDXDXDXDXDXDXDXDXDXDXDXDXDXDXDXDXDXDXDXDXDXDXDXDXDXDXDXDXDXDXDXDXDXDXDXDXDXDXDXDX",
"DXDXDXDXDXDXDXDXDXDXDXDXDXDXDXDXDXDXDXDXDXDXDXDXDXDXDXDXDXDXDXDXDXDXDXDXDXDXDXDXDXDXDXDXDXDXDXDXDXDXDXDXDXDXDXDXDXDXDXDXDXDXDXDXDXDXDXDXDXDXDXDXDXDXDXDXDXDXDXDX",
"DXDXDXDXDXDXDXDXDXDXDXDXDXDXDXDXDXDXDXDXDXDXDXDXDXDXDXDXDXDXDXDXDXDXDXDXDXDXDXDXDXDXDXDXDXDXDXDXDXDXDXDXDXDXDXDXDXDXDXDXDXDXDXDXDXDXDXDXDXDXDXDXDXDXDXDXDXDXDXDX",
"DXDXDXDXDXDXDXDXDXDXDXDXDXDXDXDXDXDXDXDXDXDXDXDXDXDXDXDXDXDXDXDXDXDXDXDXDXDXDXDXDXDXDXDXDXDXDXDXDXDXDXDXDXDXDXDXDXDXDXDXDXDXDXDXDXDXDXDXDXDXDXDXDXDXDXDXDXDXDXDX",
"DXDXDXDXDXDXDXDXDXDXDXDXDXDXDXDXDXDXDXDXDXDXDXDXDXDXDXDXDXDXDXDXDXDXDXDXDXDXDXDXDXDXDXDXDXDXDXDXDXDXDXDXDXDXDXDXDXDXDXDXDXDXDXDXDXDXDXDXDXDXDXDXDXDXDXDXDXDXDXDX",
"DXDXDXDXDXDXDXDXDXDXDXDXDXDXDXDXDXDXDXDXDXDXDXDXDXDXDXDXDXDXDXDXDXDXDXDXDXDXDXDXDXDXDXDXDXDXDXDXDXDXDXDXDXDXDXDXDXDXDXDXDXDXDXDXDXDXDXDXDXDXDXDXDXDXDXDXDXDXDXDX",
"DXDXDXDXDXDXDXDXDXDXDXDXDXDXDXDXDXDXDXDXDXDXDXDXDXDXDXDXDXDXDXDXDXDXDXDXDXDXDXDXDXDXDXDXDXDXDXDXDXDXDXDXDXDXDXDXDXDXDXDXDXDXDXDXDXDXDXDXDXDXDXDXDXDXDXDXDXDXDXDX",
"DXDXDXDXDXDXDXDXDXDXDXDXDXDXDXDXDXDXDXDXDXDXDXDXDXDXDXDXDXDXDXDXDXDXDXDXDXDXDXDXDXDXDXDXDXDXDXDXDXDXDXDXDXDXDXDXDXDXDXDXDXDXDXDXDXDXDXDXDXDXDXDXDXDXDXDXDXDXDXDX"
};
