/* XPM */
static char *cf1d4a46a2be4b50f130e8f4781e22c5XW2Flabd85SK4pGa[] = {
/* columns rows colors chars-per-pixel */
"50 50 239 2 ",
"   c #020203",
".  c #0A0305",
"X  c #04040B",
"o  c #0A040B",
"O  c #02090C",
"+  c #0B090C",
"@  c #050805",
"#  c #11050D",
"$  c #160308",
"%  c #050513",
"&  c #0A0513",
"*  c #040A15",
"=  c #0B0914",
"-  c #060619",
";  c #0D061A",
":  c #060B1B",
">  c #0B0B1B",
",  c #130612",
"<  c #140B14",
"1  c #1A0A16",
"2  c #14061C",
"3  c #130B1C",
"4  c #1C0C1C",
"5  c #1B0615",
"6  c #0B1019",
"7  c #13121D",
"8  c #151115",
"9  c #23070D",
"0  c #230A1A",
"q  c #270919",
"w  c #26111C",
"e  c #350B1B",
"r  c #0B0C22",
"t  c #080B27",
"y  c #140C22",
"u  c #1B0C24",
"i  c #180C29",
"p  c #0B1223",
"a  c #0D132B",
"s  c #041326",
"d  c #141224",
"f  c #1A1223",
"g  c #1C142B",
"h  c #151729",
"j  c #0E1232",
"k  c #031930",
"l  c #1D1533",
"z  c #181937",
"x  c #240D24",
"c  c #290D25",
"v  c #330D28",
"b  c #231225",
"n  c #2C1423",
"m  c #23142A",
"M  c #2C142C",
"N  c #2D192E",
"B  c #271B2F",
"V  c #3B1325",
"C  c #3C132A",
"Z  c #3D1A2C",
"A  c #33182C",
"S  c #2C0E33",
"D  c #211533",
"F  c #2D1531",
"G  c #241A33",
"H  c #251B3C",
"J  c #291A3C",
"K  c #341A34",
"L  c #331C3C",
"P  c #381936",
"I  c #1A2237",
"U  c #2A273A",
"Y  c #38223B",
"T  c #24242E",
"R  c #440D1B",
"E  c #4A152C",
"W  c #471628",
"Q  c #58182C",
"!  c #4B1B39",
"~  c #451A36",
"^  c #551931",
"/  c #541C3B",
"(  c #591B35",
")  c #621C3E",
"_  c #47233A",
"`  c #59263A",
"'  c #66213B",
"]  c #241D44",
"[  c #2B1E47",
"{  c #381D45",
"}  c #1D2347",
"|  c #1F2A57",
" . c #2D2345",
".. c #2C264E",
"X. c #282448",
"o. c #34224C",
"O. c #3D254B",
"+. c #382345",
"@. c #393847",
"#. c #2A2754",
"$. c #3C2B52",
"%. c #362A57",
"&. c #39345D",
"*. c #26315E",
"=. c #3C2D62",
"-. c #3A3966",
";. c #2F2F63",
":. c #491C44",
">. c #581E42",
",. c #671F45",
"<. c #4B274B",
"1. c #462648",
"2. c #522A4A",
"3. c #582646",
"4. c #472955",
"5. c #552D58",
"6. c #48335B",
"7. c #5A3559",
"8. c #52324B",
"9. c #632643",
"0. c #672948",
"q. c #762A49",
"w. c #77324C",
"e. c #692A55",
"r. c #633555",
"t. c #693759",
"y. c #753858",
"u. c #732F50",
"i. c #483768",
"p. c #5B3B65",
"a. c #563765",
"s. c #4F366B",
"d. c #643C64",
"f. c #673965",
"g. c #793B65",
"h. c #3C404B",
"j. c #58495E",
"k. c #70435F",
"l. c #58446B",
"z. c #4D4472",
"x. c #594775",
"c. c #52506C",
"v. c #684567",
"b. c #7A4667",
"n. c #694B7A",
"m. c #734C71",
"M. c #774A76",
"N. c #64547B",
"B. c #7F517D",
"V. c #775279",
"C. c #7A546D",
"Z. c #5B6074",
"A. c #7C627D",
"S. c #873858",
"D. c #8B2E53",
"F. c #8D3E62",
"G. c #86445F",
"H. c #9E4D5C",
"J. c #AF4E5F",
"K. c #894767",
"L. c #954766",
"P. c #9B556D",
"I. c #864975",
"U. c #914D74",
"Y. c #885479",
"T. c #99577A",
"R. c #8D526E",
"E. c #A75978",
"W. c #B35173",
"Q. c #B05069",
"!. c #99637D",
"~. c #BA667C",
"^. c #A2667F",
"/. c #D15E6B",
"(. c #6A5884",
"). c #775986",
"_. c #7A668C",
"`. c #7A6B95",
"'. c #6A7899",
"]. c #797499",
"[. c #696B8D",
"{. c #7A7DA3",
"}. c #835C8B",
"|. c #885A85",
" X c #975B85",
".X c #8D5F92",
"XX c #A65E84",
"oX c #8A638C",
"OX c #85678A",
"+X c #91618D",
"@X c #9A6688",
"#X c #856B91",
"$X c #8B6591",
"%X c #936C93",
"&X c #887598",
"*X c #97789A",
"=X c #A76886",
"-X c #B66B84",
";X c #A66F93",
":X c #AC7196",
">X c #837CA3",
",X c #9A7EA1",
"<X c #A27EA2",
"1X c #C6798B",
"2X c #7D86AA",
"3X c #7E94A9",
"4X c #97849E",
"5X c #88849F",
"6X c #8383A5",
"7X c #8789A8",
"8X c #9785A7",
"9X c #8995AE",
"0X c #9B92AC",
"qX c #9B9AB6",
"wX c #8A96B3",
"eX c #AA9AAE",
"rX c #A491AE",
"tX c #98A4BB",
"yX c #A4A3BB",
"uX c #B1A4BC",
"iX c #9FAEC6",
"pX c #A6AAC2",
"aX c #B3A7C1",
"sX c #ABB3C9",
"dX c #B6B9CC",
"fX c #B8BDD3",
"gX c #AFBBD1",
"hX c #BDC3D7",
"jX c #C7C9DA",
"kX c #C8D3E5",
"lX c #D5D8E8",
"zX c #CCD1E9",
"xX c #E0DCF5",
"cX c #DAE2F5",
"vX c #DEE2EE",
"bX c #E6E7FA",
"nX c #F5F9FE",
"mX c #FAFFFF",
"MX c #E8E9F4",
/* pixels */
"        o X   o X % % > % X & X O o = & * X X   O .       .   @   .     <   h.*                     ",
"    X   X o X o   % X % % * ; > - ; 3 ; % % % % X & * X               @   X *                       ",
"          X X % o o % X % % % - > y d > > r r > % % > ,   X # X   X                                 ",
"  X     X o X & 5 o % : : 2 : h y 7 b f u p y > > ; ; 2 = + #     + o   @                           ",
"    X   X o % o 9 & % y t x y l M m K G J D B f p f 7 = < & $ o @ # o                               ",
"      X X o X % , c - - u F a L +.L +. . .U Y P A / Z = 3 = 1 , o . @         . @                   ",
"X       X o % % > v ; r S L U 4.o.O.O.1.O.1.1.2.0.w.' Z n < 4 = , & X X @                           ",
"    X   X o % % 3 f u x F G { 1.$.6.7.G.y.F.t.y.y.y.q.q.9.A v 1 & 3   X   @                         ",
"    X X X X & 3 2 u x y D o.4.=.&.j.K.W.G.L.L.K.H.t.b.r.3.( w r ; & X @   .   .                     ",
"        X % ; g ; u M z z 4.d.d.g.G.W.G.K.R.K.U.P.L.L.r.r.L.0.g r % & o   X o @                     ",
"      X % o - > y x m +.] #.f.P.S.U.K.p.M.I.b.v.b.K.F.S.S.J.0.g c u - X o X       @                 ",
"    X X & % % - r c K D #.4.C.P.b.E.b.m.m.l.I.v.v.7.6.t.D.w.2.{ / ! i % % X o o                     ",
"X X   o % & % : : i j ] <.b.T.U.Y.M.V.N.|.N.T.T.v.-.&.7.t.4.>.e.` >.F u = X +   X                   ",
"  X X   % % % - y t k J u.v.=XT.B.x.N.N.+X}.|. Xm.x.-.i.4.%.1.>.,.q.P > 4 ,   X   X                 ",
"  X X X & = - : t t g L 5.a.@X^.Y.V.|..XOX)._.}.=X Xs.;.$.%.O.:.,.D.' M W v X o X                   ",
"      o o & % % s - s { %.7.XXE.Y.n.}._.[.[.[.`._.-X Xs.6.$.4.[ U ! q.( c b : X X X X               ",
"  @ O X o < > - r : j z 1.p.T.XX(.(.$X[.[.{.>X'.#XoX@XY.i.%...4.{ ] ! q.Z u 2 * O X   O   X @       ",
"    @ o o & ; % r t a j O.f.=X-Xn.)._.].8X7X2X9X7X&X`..Xn.-.4.6.+.] l u.9.5 x & X         @         ",
"      o & & > = r a a j o.r.!.1X).}.`.{.rX6X3XwX9X2X{.#X+XN.=.6.4.] [ S ) Q n 2 , o o X             ",
"    X o o & ; - r t t j  .r.V.1XY..X`.6X0X9XtXpXiXqX8X].%XY.l.a.a.<.] z ~ ' Z x , + 7 =             ",
"    . . X o - - y t p j ] :.7.-X X).#X>XpXiXdXjXjXjXyX8X&XA.Y.p.a.e.O.z l W ( v 0 = :               ",
"    .   X + 4 4 x y a j ] 4.$.Y.=X}.].{.aXsXhXzXlXkXdXuX4X#X+XI.i.5.5.] z P ~ Q e + O o @           ",
"        @ = 4 x 2 u y t z o.4.v.:X+X#X{.yXfXjXcXvXlXzXdXeX<XOX Xv.5.<.4.H [ M W E < O o             ",
"o         . 5 q ; n x s z [ O.&.L. X$X'.qXfXjXcXbXbXlXjXuXrX@XoXY.f.d.{ { z g w ( n * o       @     ",
"@ .     . o & , 4 2 u a D D o...s.I.@X].9XgXzXcXmXmXxXkXdX7X*X}.=XT.K.O.1.L S g 0 C 4 + X   @       ",
"        .   o & 4 2 y D g J +.O.%.|. X#X7XsXjXbXnXmXbXkXdXqX8XOX@XT.K.b.+.Y L m y C b O X X         ",
"    @ . o   X & 2 x x m m :.{  .%.a.|.%X].iXjXlXMXnXbXkXdXpX4X%XoX^.l.g.5.<.T f : b e X *           ",
"  . @ o @ X   o 9 0 0 A F P L J o.;.n.@X*X9XdXzXMXbXxXkXhXpX4X*XoX~.m.i.r. .Y M d > v < O X o       ",
"              o w e e V A P [ H [ %.s.).;X8XtXjXlXvXlXjXsXpX5X*X X@X-Xi.j.1.H n m > V q < @ . @ @   ",
"        o X . @ @ R Q W 4 P L J ] #.-.s.oX,XwXuXjXlXlXhXiXtX6X*X;XT.=Xk.t.u.Y m u 3 n 0 0 o   @ < @ ",
"      X .   . . @ 9 R E C N K L { [ #.-.x.#X<X0XaXfXdXsXtXqX6X&X%XY.=XW.f.t.w.l p 2 3 < 0 #   o @ . ",
"    @ X     . $ # . 9 V ^ A P P { [ #.;.i.N.OX8X0XqXeXtXwX8X6X&X@XoXE.1XK.S.3.B a 3 6 < , , o       ",
"  o @ X     # $ $   + q Q ^ ~ / L { ..| ;.p.).$X,X,X7X2X2X2X'.*X@X|. XE.v.r.u.! h d > 7 9 $ o X -  .",
"    X X o     . $ . < e e W ( ! / J ] #.*.-.n.(.$X*X*X6X{.>X&X*X;X!. XE.p.7.0.` F y : ; < @ o     8 ",
"  @ X c.@.X @   6 < o 8 q E E ( ,.:.[ ..#.*.i.(.).oX&X&X].#X&X*X;X=XY.U.m.a.S.` G m 6 u % = o @ .   ",
"    X j.@.X     Z.U . + , C E ^ ~ :.{ [ ] #.#.-.x.).|.oX_.$X$X#XT.T.M.K.t.y.3.` N n : 2 ; @ $ X     ",
"      X +       c.U @ . o 4 W ^ ` ( :.4.[ #.#.*.-.z.N.(.).).(.(.@XT.Y.K.y.5.8.3.P h O 4 W @ . .     ",
"                % o   o # o 0 W D.' ( >.:.$.%.i.=.i.z.x.(.).x.n. XI.T.K.k.2.U _ M d 6 < Q . 1 + O   ",
"                @   o o   o 1 9 W ( / :.e.<.$.4.i.i.i.z.p.n.x.M.U.E.b.P.r.1.Y ~ g f ; * 5 # 9 < @   ",
"        @         .   . . @ o 2 2 v ~ ! u.u.y.3.6.7.p.p.f.M.l.M.E.P.a.b.t.3.2._ l 6 ; r & + .     o ",
"                @         .   o o 4 v ! 0.D.F.S.r.r.a.a.d.b.R.E.R.d.%.f.8.Y 0.A p > * % % + + o     ",
"                  < 8     @ o . o & ; u ~ 3.u.y.F.S.K.L.L.W.P.K.7.p...+._ _ 3.s 6 > = % % % , +     ",
"                  + + @   . o @ o o = - 3 L ! u.S.S.L.w.k.y.y.f.#...I I _ Y K : : > > % % o X o     ",
"                            . . = X o & - r c y.Q.w.q.u.p.l.+.} } J Y U +.A d y : r > & X X         ",
"                                  X O & > r 2 M >.9.J./.S.6.X. .O.3.0.K g M f 7 : ; % % % X @       ",
"                                  o   X o = 3 < 0 c 9.q.` ` 0.~ ~ E Z c r u > % & & % o X O   o     ",
"                                      f = o , 2 2 2 l l A 3.~ G A u r d g d > * % = & X X   X       ",
"                                @   % h o X o * > & & u 4 D a y u i t r 2 - ; - + X & o   X o .     ",
"                                  +       o X o o % % % * & - ; * % % & - & % & % o X   7 I O   X X ",
"                                X +       o X X X & % % % % & > % % & > = & % % & o X   7 I @   X @ "
};
