/* XPM */
static char *result[] = {
/* columns rows colors chars-per-pixel */
"80 80 255 2 ",
"   c #061B09",
".  c #06250C",
"X  c #052B0B",
"o  c #08260E",
"O  c #0A2C13",
"+  c #092813",
"@  c #093315",
"#  c #0B3B1C",
"$  c #083718",
"%  c #0C3215",
"&  c #153B24",
"*  c #0D3D22",
"=  c #09451B",
"-  c #06581B",
";  c #0C4324",
":  c #0B4B25",
">  c #0B4C2B",
",  c #074825",
"<  c #134B2C",
"1  c #154627",
"2  c #0B532B",
"3  c #0A5A2C",
"4  c #075728",
"5  c #12552C",
"6  c #164C31",
"7  c #0B5C33",
"8  c #0A5834",
"9  c #145533",
"0  c #135C33",
"q  c #1A5938",
"w  c #0D4D30",
"e  c #275739",
"r  c #2C4E33",
"t  c #05642C",
"y  c #07652B",
"u  c #0B6434",
"i  c #0A6B34",
"p  c #0C643B",
"a  c #066D3D",
"s  c #0B6C3C",
"d  c #066735",
"f  c #13643B",
"g  c #126C3C",
"h  c #176639",
"j  c #06733D",
"k  c #0B723D",
"l  c #087739",
"z  c #12733C",
"x  c #11652E",
"c  c #22663E",
"v  c #335943",
"b  c #0B6C43",
"n  c #096943",
"m  c #136C43",
"M  c #196945",
"N  c #067243",
"B  c #0B7343",
"V  c #0C7C44",
"C  c #0B754B",
"Z  c #067A4C",
"A  c #0B7B4B",
"S  c #057747",
"D  c #137344",
"F  c #137B45",
"G  c #13754B",
"H  c #1C734B",
"J  c #137C4C",
"K  c #1B7B4C",
"L  c #197544",
"P  c #0B7452",
"I  c #0C7C52",
"U  c #0C7C5B",
"Y  c #077954",
"T  c #1D7451",
"R  c #137D53",
"E  c #1C7C53",
"W  c #177A59",
"Q  c #1D6F53",
"!  c #266948",
"~  c #24774D",
"^  c #267956",
"/  c #367857",
"(  c #356B4F",
")  c #1C7E63",
"_  c #477054",
"`  c #6C7757",
"'  c #467D63",
"]  c #405E41",
"[  c #0B8245",
"{  c #06844B",
"}  c #0C844C",
"|  c #0B8A4C",
" . c #068648",
".. c #138245",
"X. c #12834C",
"o. c #1A824D",
"O. c #148A4D",
"+. c #0C8454",
"@. c #0C8B54",
"#. c #0C845A",
"$. c #0C8B5B",
"%. c #068755",
"&. c #148454",
"*. c #1B8454",
"=. c #138B53",
"-. c #14835A",
";. c #1C845B",
":. c #138B5B",
">. c #1C8C5C",
",. c #1A8B54",
"<. c #0B9354",
"1. c #0B945B",
"2. c #0B9A5C",
"3. c #079858",
"4. c #13935B",
"5. c #189559",
"6. c #14914E",
"7. c #23855C",
"8. c #228B5C",
"9. c #298559",
"0. c #2A8C59",
"q. c #09A35E",
"w. c #12A05D",
"e. c #0C8A63",
"r. c #138C62",
"t. c #1C8C65",
"y. c #0C9364",
"u. c #0C9D62",
"i. c #0C9969",
"p. c #159463",
"a. c #1B9463",
"s. c #149C6B",
"d. c #1B9C6B",
"f. c #189767",
"g. c #189A73",
"h. c #1F8F73",
"j. c #2B8B63",
"k. c #288967",
"l. c #348362",
"z. c #388B68",
"x. c #24936A",
"c. c #279768",
"v. c #36956D",
"b. c #3A8971",
"n. c #289974",
"m. c #3B9A73",
"M. c #379A77",
"N. c #0BA364",
"B. c #0AA968",
"V. c #13A364",
"C. c #14AB6B",
"Z. c #19A56B",
"A. c #08B36B",
"S. c #0BAC73",
"D. c #19A875",
"F. c #0BB977",
"G. c #16B677",
"H. c #15B36B",
"J. c #26A36B",
"K. c #25A678",
"L. c #37A47A",
"P. c #25B47B",
"I. c #458969",
"U. c #469677",
"Y. c #58967A",
"T. c #4C8974",
"R. c #6E8B71",
"E. c #43A27D",
"W. c #54A37F",
"Q. c #5C8C67",
"!. c #09C679",
"~. c #10C479",
"^. c #988B79",
"/. c #92977C",
"(. c #A38C7B",
"). c #AA977D",
"_. c #17BB85",
"`. c #14B888",
"'. c #2BA984",
"]. c #39A985",
"[. c #28B688",
"{. c #37B488",
"}. c #38B594",
"|. c #479C82",
" X c #549B86",
".X c #47A989",
"XX c #57A787",
"oX c #5AAB94",
"OX c #4AB897",
"+X c #57B599",
"@X c #46B28F",
"#X c #67A687",
"$X c #66AC96",
"%X c #68B698",
"&X c #74B092",
"*X c #58BAA2",
"=X c #4CBFA4",
"-X c #67BBA6",
";X c #76B9A7",
":X c #679886",
">X c #0CC885",
",X c #17C886",
"<X c #0AD288",
"1X c #13D393",
"2X c #30C898",
"3X c #36C9A2",
"4X c #5AC4A6",
"5X c #55CAAE",
"6X c #66C8AA",
"7X c #67CAB4",
"8X c #73CAB2",
"9X c #4EC29E",
"0X c #69D7C6",
"qX c #9C9885",
"wX c #918F83",
"eX c #AC9B8B",
"rX c #A89686",
"tX c #B39B89",
"yX c #AA968A",
"uX c #92AD92",
"iX c #A8A58D",
"pX c #A9A593",
"aX c #B4A494",
"sX c #BDAC9B",
"dX c #B9A795",
"fX c #B9B29A",
"gX c #AEAB90",
"hX c #B8B6A3",
"jX c #B6B8A7",
"kX c #8EBBA9",
"lX c #C2AC9D",
"zX c #CBB49E",
"xX c #C3B2A2",
"cX c #CCBBAB",
"vX c #C8B8A7",
"bX c #CEB9AA",
"nX c #87CBB2",
"mX c #B1C6AC",
"MX c #CAC2A9",
"NX c #C9C8B6",
"BX c #D7C9B6",
"VX c #D3C4AE",
"CX c #E2D0BD",
"ZX c #9EDBC7",
"AX c #D9D5C8",
"SX c #E9D8C9",
"DX c #E9D9CC",
"FX c #EBE6D8",
"GX c #F5E5D7",
"HX c #FAF7EB",
"JX c #FCFCF4",
"KX c #FCFDFB",
"LX c #F3F7F1",
"PX c #EEEEE4",
"IX c None",
/* pixels */
"IXIXIXIXIXIXIXIXIXIXIXIXIXIXIXIXIXIXIXIXIXIXIXIXIXIXIXIXIXIXIXIXIXIXIXIXIXIXIXIXIXIXIXIXIXIXIXIXIXIXIXIXIXIXIXIXIXIXIXIXIXIXIXIXIXIXIXIXIXIXIXIXIXIXIXIXIXIXIXIX",
"IXIXIXIXIXIXIXIXIXIXIXIXIXIXIXIXIXIXIXIXIXIXIXIXIXIXIXIXIXIXIXIXIXIXIXIXIXIXIXIXIXIXIXIXIXIXIXIXIXIXIXIXIXIXIXIXIXIXIXIXIXIXIXIXIXIXIXIXIXIXIXIXIXIXIXIXIXIXIXIX",
"IXIXIXIXIXIXIXIXIXIXIXIXIXIXIXIXIXIXIXIXIXIXIXIXIXIXIXIXIXIXIXIXIXIXIXIXIXIXIXIXIXIXIXIXIXIXIXIXIXIXIXIXIXIXIXIXIXIXIXIXIXIXIXIXIXIXIXIXIXIXIXIXIXIXIXIXIXIXIXIX",
"IXIXIXIXIXIXIXIXIXIXIXIXIXIXIXIXIXIXIXIXIXIXIXIXIXIXIXIXIXIXIXIXIXIXIXIXIXIXIXIXIXIXIXIXIXIXIXIXIXIXIXIXIXIXIXIXIXIXIXIXIXIXIXIXIXIXIXIXIXIXIXIXIXIXIXIXIXIXIXIX",
"IXIXIXIXIXIXIXIXIXIXIXIXIXIXIXIXIXIXIXIXIXIXIXIXIXIXIXIXIXIXIXIXIXIXIXIXIXIXIXIXIXIXIXIXIXIXIXIXIXIXIXIXIXIXIXIXIXIXIXIXIXIXIXIXIXIXIXIXIXIXIXIXIXIXIXIXIXIXIXIX",
"IXIXIXIXIXIXIXIXIXIXIXIXIXIXIXIXIXIXIXIXIXIXIXIXIXIXIXIXIXIXIXIXIXIXIXIXIXIXIXIXIXIXIXIXIXIXIXIXIXIXIXIXIXIXIXIXIXIXIXIXIXIXIXIXIXIXIXIXIXIXIXIXIXIXIXIXIXIXIXIX",
"IXIXIXIXIXIXIXIXIXIXIXIXIXIXIXIXIXIXIXIXIXIXIXIXIXIXIXIXIXIXIXIXIXIXIXIXIXIXIXIXIXIXIXIXIXIXIXIXIXIXIXIXIXIXIXIXIXIXIXIXIXIXIXIXIXIXIXIXIXIXIXIXIXIXIXIXIXIXIXIX",
"IXIXIXIXIXIXIXIXIXIXIXIXIXIXIXIXIXIXIXIXIXIXIXIXIXIXIXIXIXIXIXIXIXIXIXIXIXIXIXIXb.*X7X5X-X-X;X;XIXIXIXIXIXIXIXIXIXIXIXIXIXIXIXIXIXIXIXIXIXIXIXIXIXIXIXIXIXIXIXIX",
"IXIXIXIXIXIXIXIXIXIXIXIXIXIXIXIXIXIXIXIXIXIXIXIXIXIXIXIXIXIXIXIXIXIXIXIXIXIXIXb.~ I.*X-X-X0X-X-X6X6X-X%X&XIXIXIXIXIXIXIXIXIXIXIXIXIXIXIXIXIXIXIXIXIXIXIXIXIXIXIX",
"IXIXIXIXIXIXIXIXIXIXIXIXIXIXIXIXIXIXIXIXIXIXIXIXIXIXIXIXIXIXIXIXIXIXIXIXOX=X5Xh.Q ^ ) ) b. X$X*X4X+X+X+X%X&XIXIXIXIXIXIXIXIXIXIXIXIXIXIXIXIXIXIXIXIXIXIXIXIXIXIX",
"IXIXIXIXIXIXIXIXIXIXIXIXIXIXIXIXIXIXIXIXIXIXIXIXIXIXIXIXIXIXIXIXIXIXIXIX.XOX*Xk.Q W -.C C n M T ^ k.Q M H ~ _ IXIXIXIXIXIXIXIXIXIXIXIXIXIXIXIXIXIXIXIXIXIXIXIXIX",
"IXIXIXIXIXIXIXIXIXIXIXIXIXIXIXIXIXIXIXIXIXIXIXIXIXIXIXIXIXIX;XoX$Xb.IXIX|. Xb.T M R #.C n n n M ! x.P n n 9 e IXIXIXIXIXIXIXIXIXIXIXIXIXIXIXIXIXIXIXIXIXIXIXIXIX",
"IXIXIXIXIXIXIXIXIXIXIXIXIXIXIXIXIXIXIXIXIXIXIXIXIXIXIX;X;XZX*X|.W Q T.%Xm.|.k.G m W +.N C C b m ) n.P n p 8 6 IXIXIXIXIXIXIXIXIXIXIXIXIXIXIXIXIXGXIXIXIXIXIXIXIX",
"IXIXIXIXIXIXIXIXIXIXIXIXIXIXIXIXIXIXIXIXIXIXIXIXkX;X;X7X*X|.) ) p p U.-X].n.k.M m R I Z Y Y C Q ) k.n p 8 w 1 IXIXIXIXIXIXrX).lXIXIXIXIXIXIXIXCXSXIXIXIXIXIXIXIX",
"IXIXIXIXIXIXIXIXIXIXIXIXIXIXIXIXIXIXIXIXIX$X-X;X;X$X|.) W P U n 8 n n.6Xk.h.t.n 7 G I Z Z Y C T t.h.n 8 8 * _ IXIXIXIXIXIX).tXlXIXIXIXIXIXIXCXCXIXIXIXIXIXIXIXIX",
"IXIXIXIXIXIXIXIXIXIXIXIXIXIXIXIXIXIXIXIX+X*XoXoX].h.W ) U U U n f P k.7Xz.k.E 7 7 P Z S N N C T h.h.P 8 p & ` HXJXJXGXVXtX).tX).IXIXIXIXIXyXbXSXSXIXIXIXIXIXIXIX",
"IXIXIXIXIXIXIXIXIXIXIXIXIXIXIXIXIXIX/ b.m.( k.K._.`.'.k.U U Y S u N e.OXk.;.7.u 8 N S S N N G W h.g.P 8 2 ; wXFXDXFXFXvXsXdXlXtXaXIXIXwXyXyXlXDXSXbXbXIXIXIXIXIX",
"IXIXIXIXIXIXIXIXIXIXIXIXIXIXIXIXIXIXM b H x.G._.[.'.m.^ P P #.{ s A r.n.a.a.&.0 7 N S Z N N G W g.g.C 8 2 1 uXPXSXAXjXpXpXaXtXaXaXsXsXaXyXwXlXSXSXzXzXyXtXtXIXIX",
"IXIXIXIXIXIXIXIXIXIXIXIXIXIXIXIXIXIXM G K._.`.`.`.OX/ Q ^ W e.$.D A #.n.t.t.*.7 s B N N a u C ;.D.g.n 4 2 1 jXHXHXHXMXiXiXrXiXaXaXaXsXaXrXyXbXCXbXCXbX(.tXzXIXIX",
"IXIXIXIXIXIXIXIXIXIXIXIXIXIXIXIXIXIXH c.D.S.F.`.K.I.v.0X0X|.y.%.B b %.x.7.;.^ u p N N N a u D -.'.K.C 8 > 6 AXKXJXHXAXeXqXeXgXdXaXsXaXaXyXyXbXAXDXDXlXyXtXzXIXIX",
"IXIXIXIXIXIXIX|.|.IXIXIXIXIXIXIXIXIXx.D.Z.G.G.5.&.v.=X0X7X@Xy.1.A B $.f.U.OX^ 3 p a a N s x K t.D.g.C 8 2 e AXKXKXLXPXpXwXqXhXsXlXxXaXyXaXaXlXGXGXGXlXtXyXdXIXIX",
"IXIXIXIXIX XM.@X].E.|.U.IXIXIXIXIXIXc.C.V.>.M 9.'.5X0X-X-Xl.t.$.@.A 1.s.k.k.^ i f p a a s 3 / M.D.g.n 4 f ' PXKXLXKXKXjXpXpXpXvXxXaXyXeXdXdXlXDXGXDXlXtXyXtXIXIX",
"IXIXIXIXIXM.@X4X7X4X]..X|.IXIXIXIXIXE $.X.4 / 7X0X0X*X*XY.! ,.#.=.X.y.s.J E J s H p u d u 3 _ .Xg.g.P M *.#XLXKXKXKXKXDXcXpXpXcXbXyXwXyXlXlXlXbXGXbXyXtXyXyXIXIX",
"IXIXIXIXT.].].=X7X8X6XOX.XIXIXIXIXIX0 s p 9 oX0X*X*X6X@X! = s a.+.A y.@.G J V B K f p d f 0 ! n.D.g.n m *.&XLXKXKXKXKXLXNXhXaXsXbXaX^.yXlXlXdXlXCXlXtXtXyXyXIXIX",
"IXIXIXIX X4X}.@X=X7X7X4XE.M IXIXIXIXIXg f 2 9.+X4X@Xc.F u - 7 x.&.k &.z.U.8.V V J u u u 0 0 ! x.g.g.C h ~ #XAXFXJXJXJXJXAXMXfXfXcXxXrXrXsXvXlXdXbXlXtXtXeXrXIXIX",
"IXIXIXIX|.OX@X=XOX7X6X4Xv.M IXIXIXIXIXq c 5 h 7.7.K h &.F 3 p T R b .X-X+Xn.} } o.g u u 3 5 M x.i.y.Z f L &XmXNXAXDXFXPXBXNXMXxXhXvXrXrXlXbXhXdXdXtX(.yXyXIXIXIX",
"IXIXIXb.M.].OXOXOX9X9X@XE B IXIXIXIXIX! c q 0 F C I G #.>.p s D &.5.5X7X=Xf.} Z K D 3 u x 2 H d.i.e.Z z E nXPXFXFXFXSXMXhXvXcXhXfXiX^.rXaXlXxXxXlXtX(.rXyXIXIXIX",
"IXIXk.W Y R x..XOXOX.X^ a k.U.IXIXIXIXI.h ~ 3 D A %.$.+.>.b s s ,.^ M..Xn.=.F N V j d i i y K g.i.i.+.F J +XZXPXLXPXVXvXvXsXbXvXaXrX/.^.tXlXbXsXlXtX(.(.rXIXIXIX",
"IX) U C Z I s B *.8.R B N k..X|.IXIXIXIXD E s z +.$.+.Z Z D k i D 7.t.+.V *.*.k A F j i u F >.i.e.e.I &.,.2X2XnXZXmXMXVXVXbXbXVXMXaX^.^.).fXMXfXdXtX).(.(.IXIXIX",
"IXW #.Y Z #.+.C b C I I B A A >.6XIXIXIXJ +.K B =.:.+.A Z F k k i *.&.,.,.8.*.F A } V a d F =.y.e.e.&.J.{.3X1X[.W.mXNXBXCXBXbXvXMXfX/.(.).MXMXfXaXtX).).iXIXIXIX",
"^ P P #.Y Z :.} +.I &.P B C N N K.5Xn.IXK F ;.E } R -.+.} } B l i ..8.P.{.OXL.F V } A k u k } y.$.A A J 0.[.1XP.Y.uXnXmXNXBXzXfXgXfX).).).fXMXfX).gXMXgX/.IXIXIX",
"W n n P e.+.+.Z $.$.I C C C a s L.[.D.W h K &.F J D a.1.+.} V i l z m.5X5X0XM.z l  .V j j F V $.+.F o.o.z J.,XP.XX%X#X#XW.fXzXdX).).^.` Q./.gXgXgXMXMXfX^.] IXIX",
"W ) U P U i.e.%.%.$.$.Z N N n n 7X3Xp.C i x } &.X.B K 5.=.@.} k [ ..~ W.@XL.9.h l  .[ V  .[ F +.Z B o.o.X.n.[.n.L.v.U.E.M.uXzXlXeXeX` r 1 _ gXfXuXiXuXmXR.r IXIX",
"k.h.e.U P U #.$.%.%.$.$.I a a d {.3X#.R B 2 B X.F l z | } A } 6.5.{..Xo...F o.F V [ [ O.} O.=.@.+.} | [ A K.[.n.&.M.OXK.L.#XMXzXeXrXv 1 < ( ' _ I.R.uXY.c e _ IX",
"e.e.e.U P P P Y e.e.y.$.$.j d d e.2Xs.B D u F F 9.[ O.0.X.} &.C.V.2X5X,.l ......|  .}  .[ =.=.:.=.O.| | &.G.D.;.8.+X+Xn..X0.gXfXeXR.e 1 0 ! Y.&XW.&XnXW.~ ( e IX",
"k.U U U Y P n P u.i.D.e.y.$.k N Z D.D.N u F 5.<...| 6.0.J u.u.C.H.{.9XJ.w.6.o.O.2.<.@.| 6.<.u.i.1.| [  .<.D.f.J j.m.k..XE.j.wXiXeXe > > ! _ Y.T.&X6XnX%XI.c < r ",
"IXQ P U U U n n +.D.3Xi.p.[.=.k Z +.y.%.g ,.V.5...[ [ z V C.D.5.J.m.v.5.5.4.O.<.3.3.3.q.2.u.F.F.S.<.[ l 6.<.J *.0.o.>.v.R Y.iXiXR.> 9 q ( ' q w L 6X8X%Xz.M e e ",
"IXIX) h.) '.U n 8 C c.[.-.D.d.t k j +.y.k c.Z.5.6.V } O.V 5.G.=...o.6.6.6.| 3.3.q.q.q.q.N.B.>X>X_.2...l 6.O.o.X.,.F >.O.~ uXiX/.! f M ( R.( 6 $ x I.z.M.l.~ c v ",
"IXIXIX;X].]..Xb C p 7 J.K.$.4.d t j N %.V v.P.5.6.O.O.=.O.X.G.3.l o.| | | | <.q.B.A.A.B.B.A.<X<X>X2. ...<.<.X.B } *.c.9.Y.fXuX] 3 m ! T.v ; ; 1 : h *.M.T ! 6 r ",
"IXIXl.) *X}..XW r.R b A :.%.+.i t j [ a F j.P.3.<.=.o.@.w.F c.5.| z [ 3. .| 3.q.A.!.A.A.B.A.<X1X>Xq.6.O.[ O.c.} } :.W.0.uXhXQ.1 2 D l.( w > > ; : h f f ^ ! e r ",
"IX9.b 8 W .Xh.+.a.I Y e.B A N d t [ l d t z w.<.<.6.*.5.C.,.,.V.| [ | 3.3.3.q.A.!.!.~.~.H.~.!.1X<Xq.<.6.} } Z.Z.p.Z.z.c ( I.5 = 0 H q 7 7 2 > , , > 1 9 ! 9 e IX",
"~ ;.j.C n n J +.$.-.+.r.+.Z a t t l t 4 4 : ..3.<.[ F 5.V.J.*.5.3.| <.q.3.3.A.!.!.H.5.0.J.J.P.,X~.q.q.w.<.4.5.B._.P.h L z ~ g 4 ! q 4 7 N 8 7 > ; , 1 e q r IXIX",
"B B ! ^ G a d a N -.Z Z r.:.j t a j t y - = i 6.k V V X.5.J.,.5.3.<.<.B.q.q.!.!.~.J.0.J.c.9.j.5.P.H.q.q.B.Z.4.V.`.a.h B l / h h > > 8 d B m , * $ # ; < 6 r IXIX",
"F b 3 7 Q D p G B B B n b +.j d j l t - - - y 5.B {  .V 5.w.4.5.<.2.1.F.A.A.!.!.~.P.P.J.J.U.E.c.V.H.B.H.D.C.N.s.G.J s a j g z h , 4 8 d n 7 $ # ; > & 6 r IXIXIX",
"R 7.R 8 4 8 a n I Z Z b H b N i t i y y y - - 6.V %. . .| w.V.5.4.q.3.N.A.A.!.!.~.H.,X2XL.L.[.P.~.~.H.H.G.C.B.N.u.F i a j k z s , = 4 7 8 8 , $ * < 1 & IXIXIXIX",
"k.4X5X|.n 8 4 8 8 n P l.l.R e.h.c.D t y y - - i V +.%.{  .6.w.w.N.B.3.w.F.F.!.!.~.A.>X,XP.K.>X2XP.~.G.2.=.V.i.Z.$.s t s N s ^ F g 9 7 M d p 8 # $ * & IXIXIXIXIX",
"l.k.-XZXXXG N p 4 8 p m.|.-.y.[.7X%XL y y - - ..X.+.%. . .l 5.H.N.A.q.w.S.~.!.<X~.F.<X>XK.P.~.1X,X,XH.1.1.2.V.<.F 3 y i j j ~ H R 9.z.k.W A 7 2 & & IXIXIXIXIXIX",
"oXM.M |.nX8Xx.t.R p M M.{..Xn.g.P.4XL.l y y y 0.n.:.%. .[ i x 5.V.B.B.V.P.F.<X<X~.!.<X_.K.P.,X<XG.N.u.u.2.q.4.O.i = 4 s j S F ~ *.M.k.v.;.g 3 > & r IXIXIXIXIXIX",
"IXb.z.T m U.@XK.3X+X' ! 9..X9XK.g.g.p.y.} t y F a.@.{ [ l l y x 0.5.5.>.,.H.,X1X>X<X<XG.D.,X,XH.| V @.2.q.3.} z - = 4 a N A F / 9.L.W j.7 2 ; $ & IXIXIXIXIXIXIX",
"IXIXIXIXT p C h.K.m.I.~ s ~ OX].t.y.#.:.D.Z.k k =.} S l l l y y - x x h L O.6.Z.G.>X1X`.G.,X,Xd. .@.{ %.| [ l : = = 4 a B ,.,./ H M.v.m 4 : 9 e IXIXIXIXIXIXIXIX",
"IXIXIXIXIX^ D B R D h M f 2 ~ L.L.s.$.-.p.Z.D.O.V l j i l l l y x z F F z o.z 5.D.F.>XS.G.!.,X5.| 2.2.{ [ V k = = 4 4 a Z >.>.H H v.XXn p D XXIXIXIXIXIXIXIXIXIX",
"IXIXIXIXIXIXIXm i i u g h K f ! v.K.y.p.s.%.N.,.k l y l  .l l l ..c.5.6.o.,.6.O.} 3.S.s.p.H.G.<.<.N.S.u.5.F z t x 3 i V A R k.>.v.9.v.m >.L.IXIXIXIXIXIXIXIXIXIX",
"IXIXIXIXIXIXIXIXf g t m E j.M.&.D E :.p.s.$.+.X.J i y l | l l X.>.K.C.B.4.:.5.O.V @.2.$.X.| { | 2.N.S.S.'.L.7.V G B A B C I 9.;.;.7.9.n.L.l.IXIXIXIXIXIXIXIXIXIX",
"IXIXIXIXIXIXIXIXu s k f m K j.'.:.f M ,.f.1.f.c.,.i l [  . .} 5.5.p.u.s.Z.=.X.,.{ @.1.{  .} { 3.N.B.N.S.[.n.:.$.P.t.I D G &.&.8.G / #XL.I.IXIXIXIXIXIXIXIXIXIXIX",
"IXIXIXIXIXIXIXIXM F A M g N D t.K.&.g f T &.5.J.F y i [ | { 1.y.d.Z.p.f.d.5.o.,.{ 3.e.%.| X.{ 1.i.N.3.S.3X}.s.s.[.n.D D H J B C s / ;Xj.IXIXIXIXIXIXIXIXIXIXIXIX",
"IXIXIXIXIXIXIXIXIXk.>.-.E 9.s u o.x.8.x.~ H D K k i l [ <.1.i.s.'..X].n.p.:.o.,.%.2.i.$.$.@.%.3.u.N.u.s.@X3Xs.$.[.>.u ~ M i b Z N 7.U.v IXIXIXIXIXIXIXIXIXIXIXIX",
"IXIXIXIXIXIXIXIXIXIXU.v.-.7.8.g u K x.D.[.9.^ E k F V V } $.1.K.].8X8X|.f.@.V ~ :.i.u.$.5.+.<.3.u.V.N.u.c.v.L.Z.s.D h ~ D s N Y Z U.XXIXIXIXIXIXIXIXIXIXIXIXIXIX",
"IXIXIXIXIXIXIXIXIXIXIX$X.Xt.-.8.z x F d.[.n.x.-.&.,.=...} $.r.].M.*X4X.Xx.5.} ..6.<.=.| | { <.3.1.d.d.p.@.8.k.d.+.F L s j a a N H kXIXIXIXIXIXIXIXIXIXIXIXIXIXIX",
"IXIXIXIXIXIXIXIXIXIXIXIXIX$Xn.-.A o.g H E.n.p.r.r.c.X.V &.r.>.>.*.M.OX].a.5.X...8.6.X.X.} { <.u.d.+X].c.d...k Z A :.Z a k k 3 7 ( IXIXIXIXIXIXIXIXIXIXIXIXIXIXIX",
"IXIXIXIXIXIXIXIXIXIXIXIXIX( l.x.&.7.9.K l.U.a.$.n.M.} V >.c.*.&.F x.n.'.:.,.,.l o.F i V =.@.<.N.K.OXK.g.c.F B A I g.N.+.A g 9 IXIXIXIXIXIXIXIXIXIXIXIXIXIXIXIXIX",
"IXIXIXIXIXIXIXIXIXIXIXIXIX& : ! n.n.v.*.D ^ L.r.x.U.X.,.:.*.J 8.*.r.].M.:.8.5.[ ~ z z *.v.a.D.D.'.K.>.f.f.Z V +.-.y.S.2.A M IXIXIXIXIXIXIXIXIXIXIXIXIXIXIXIXIXIX",
"IXIXIXIXIXIXIXIXIXIXIXIXIXIX, 4 0 j.n.p.V M T v.^ v.X.V A V j F R #.e.-.r.c.0.X.K K 9.c.&.-.{.S.'..XF #.$.} &.r.U e.D.a.^ IXIXIXIXIXIXIXIXIXIXIXIXIXIXIXIXIXIXIX",
"IXIXIXIXIXIXIXIXIXIXIXIXIXIX> 4 : : H t.;.( r v l.7.+.S V j i k -.#.$.$.e.n.k.>.5.=.L.L.5.@.s.D.'.@Xj.@.@.} C r.U ;.W H IXIXIXIXIXIXIXIXIXIXIXIXIXIXIXIXIXIXIXIX",
"IXIXIXIXIXIXIXIXIXIXIXIXIXIXw 4 2 : = < ! M ! q M x.-.V  .V k B &.I I I #.r.K.].x.5.v.v.a.f.J.K.OX$X^ k #.-.R t.t./ ! IXIXIXIXIXIXIXIXIXIXIXIXIXIXIXIXIXIXIXIXIX",
"IXIXIXIXIXIXIXIXIXIXIXIXIXIX6 7 4 , # $ : D g f 9 G V B [ ..F F F V C R J -.n.n.&.@.,.x.9.M.M.m.j.( 1 : >.L.#Xl.G / ! IXIXIXIXIXIXIXIXIXIXIXIXIXIXIXIXIXIXIXIXIX",
"IXIXIXIXIXIXIXIXIXIXIXIXIXIXIX7 u 4 , $ @ 5 h 9 0 s *.K B } V N B s b I -.C C I &.C +.,.v.^ j.0.9.l.5 5 *.k.^ G n 8 M IXIXIXIXIXIXIXIXIXIXIXIXIXIXIXIXIXIXIXIXIX",
"IXIXIXIXIXIXIXIXIXIXIXIXIXIXIX< 4 3 t 2 @ X O # 5 h L *.J >.D g u q M C C C Z C R m *.*.T J E k.I./ 3 y R t.Y C p w w IXIXIXIXIXIXIXIXIXIXIXIXIXIXIXIXIXIXIXIXIX",
"IXIXIXIXIXIXIXIXIXIXIXIXIXIXIX1 2 4 : $ . . . . O $ = 5 h h 8 7 7 5 7 s B C I N b 9.z.k.l.m.x.M.j.q 0 5 ~ ^ m n q M 6 IXIXIXIXIXIXIXIXIXIXIXIXIXIXIXIXIXIXIXIXIX",
"IXIXIXIXIXIXIXIXIXIXIXIXIXIXIXIXO @ @ O O .     X X X @ # = , 4 8 8 3 g b B C b ~ z.I.|. X XT.^ L q = = = p H ^ 9 6 IXIXIXIXIXIXIXIXIXIXIXIXIXIXIXIXIXIXIXIXIXIX",
"IXIXIXIXIXIXIXIXIXIXIXIXIXIXIXIXIXIXIXIXIXIXIXIX. X X X @ $ = , 2 8 7 f b C G D ^ G / :X:X:X' G H r # = $ 0 m 6 # # IXIXIXIXIXIXIXIXIXIXIXIXIXIXIXIXIXIXIXIXIXIX",
"IXIXIXIXIXIXIXIXIXIXIXIXIXIXIXIXIXIXIXIXIXIXIXIXIXIX. X X @ # * > 8 n H T H ~ f H C H ~ ! ' ! Q ~ ( e $ : q w * * ; IXIXIXIXIXIXIXIXIXIXIXIXIXIXIXIXIXIXIXIXIXIX",
"IXIXIXIXIXIXIXIXIXIXIXIXIXIXIXIXIXIXIXIXIXIXIXIXIXIXIX. X X . O # < q q ! q q 9 7 m g g m ~ q M q 6 e = : ~ ' 6 ; & IXIXIXIXIXIXIXIXIXIXIXIXIXIXIXIXIXIXIXIXIXIX",
"IXIXIXIXIXIXIXIXIXIXIXIXIXIXIXIXIXIXIXIXIXIXIXIXIXIXIXIX. o . o O @ % 1 1 > 1 1 < 5 : 5 0 M q > > w 6 ; ; q v # % + + IXIXIXIXIXIXIXIXIXIXIXIXIXIXIXIXIXIXIXIXIX",
"IXIXIXIXIXIXIXIXIXIXIXIXIXIXIXIXIXIXIXIXIXIXIXIXIXIXIXIXIXo .   o O O @ @ O # % # ; 5 7 : w 9 w ; > w > % % $ $ IX  & IXIXIXIXIXIXIXIXIXIXIXIXIXIXIXIXIXIXIXIXIX",
"IXIXIXIXIXIXIXIXIXIXIXIXIXIXIXIXIXIXIXIXIXIXIXIXIXIXIXIXIXIXIXIX  O O @ @ X @ O @ = = = # # * > > > 8 * % & 6 & IXIXIXIXIXIXIXIXIXIXIXIXIXIXIXIXIXIXIXIXIXIXIXIX",
"IXIXIXIXIXIXIXIXIXIXIXIXIXIXIXIXIXIXIXIXIXIXIXIXIXIXIXIXIXIXIXIXIXIXIXo O O +   + % $ @ @ @ O & 6 ! 9 O % 1 v v IXIXIXIXIXIXIXIXIXIXIXIXIXIXIXIXIXIXIXIXIXIXIXIX",
"IXIXIXIXIXIXIXIXIXIXIXIXIXIXIXIXIXIXIXIXIXIXIXIXIXIXIXIXIXIXIXIXIXIXIXIXIXIXIXIXIXIXIXIXIXIXIXIXIX& # O o O & IXIXIXIXIXIXIXIXIXIXIXIXIXIXIXIXIXIXIXIXIXIXIXIXIX",
"IXIXIXIXIXIXIXIXIXIXIXIXIXIXIXIXIXIXIXIXIXIXIXIXIXIXIXIXIXIXIXIXIXIXIXIXIXIXIXIXIXIXIXIXIXIXIXIXIXIX. O . . * IXIXIXIXIXIXIXIXIXIXIXIXIXIXIXIXIXIXIXIXIXIXIXIXIX",
"IXIXIXIXIXIXIXIXIXIXIXIXIXIXIXIXIXIXIXIXIXIXIXIXIXIXIXIXIXIXIXIXIXIXIXIXIXIXIXIXIXIXIXIXIXIXIXIXIXIXIXIX  + & IXIXIXIXIXIXIXIXIXIXIXIXIXIXIXIXIXIXIXIXIXIXIXIXIX",
"IXIXIXIXIXIXIXIXIXIXIXIXIXIXIXIXIXIXIXIXIXIXIXIXIXIXIXIXIXIXIXIXIXIXIXIXIXIXIXIXIXIXIXIXIXIXIXIXIXIXIXIXIXIXIXIXIXIXIXIXIXIXIXIXIXIXIXIXIXIXIXIXIXIXIXIXIXIXIXIX"
};
