/* XPM */
static char *d493dbcc1608475aad5bc0f18998b75eXVHlQeSdyvTgobBg[] = {
/* columns rows colors chars-per-pixel */
"70 70 253 2 ",
"   c None",
".  c #061B09",
"X  c #0A1B10",
"o  c #06240C",
"O  c #062B0B",
"+  c #09250F",
"@  c #0A2D14",
"#  c #0C2915",
"$  c #0B351A",
"%  c #0A3C1C",
"&  c #083717",
"*  c #093311",
"=  c #0A3E21",
"-  c #133A21",
";  c #09451C",
":  c #07571C",
">  c #10471F",
",  c #0C4323",
"<  c #0C4925",
"1  c #0B4C2A",
"2  c #074726",
"3  c #134B2C",
"4  c #164628",
"5  c #0A542C",
"6  c #0B5C2D",
"7  c #075627",
"8  c #13532C",
"9  c #0B5C34",
"0  c #0A5934",
"q  c #135433",
"w  c #125B34",
"e  c #1B5D3B",
"r  c #1B5737",
"t  c #124E31",
"y  c #255738",
"u  c #294C30",
"i  c #06642B",
"p  c #076628",
"a  c #0C6434",
"s  c #066A34",
"d  c #0B6A35",
"f  c #0B643B",
"g  c #066C3C",
"h  c #0B6B3C",
"j  c #066536",
"k  c #12643A",
"l  c #136B3D",
"z  c #166439",
"x  c #06713B",
"c  c #0B733C",
"v  c #087638",
"b  c #11723D",
"n  c #16763E",
"m  c #12662F",
"M  c #25643E",
"N  c #295B44",
"B  c #0B6642",
"V  c #066E43",
"C  c #0B6C43",
"Z  c #0B6B4A",
"A  c #136C43",
"S  c #1A6C42",
"D  c #196946",
"F  c #067344",
"G  c #0B7343",
"H  c #0B7B45",
"J  c #0B744A",
"K  c #0C7B4B",
"L  c #067949",
"P  c #147345",
"I  c #1A7545",
"U  c #127B45",
"Y  c #14754B",
"T  c #1B744B",
"R  c #137B4B",
"E  c #1C7C4D",
"W  c #197D45",
"Q  c #0C7C52",
"!  c #0B7957",
"~  c #137D53",
"^  c #1B7B53",
"/  c #187856",
"(  c #266846",
")  c #22754B",
"_  c #247454",
"`  c #277A57",
"'  c #367959",
"]  c #356A4F",
"[  c #167B62",
"{  c #2B7D62",
"}  c #337F61",
"|  c #4E6E53",
" . c #5F7962",
".. c #0B8245",
"X. c #0C844C",
"o. c #0C8A4D",
"O. c #078648",
"+. c #13834D",
"@. c #1A834D",
"#. c #148A4C",
"$. c #1A894B",
"%. c #0C8353",
"&. c #0C8B54",
"*. c #0C845A",
"=. c #0C8C5C",
"-. c #068954",
";. c #138353",
":. c #1C8354",
">. c #148B54",
",. c #1A8A53",
"<. c #14845A",
"1. c #1B845B",
"2. c #148B5C",
"3. c #1B8A5B",
"4. c #0B9255",
"5. c #0D945B",
"6. c #0B9A5B",
"7. c #079757",
"8. c #14925C",
"9. c #1A925C",
"0. c #13995D",
"q. c #169657",
"w. c #09924F",
"e. c #23845C",
"r. c #228B5C",
"t. c #258558",
"y. c #25935D",
"u. c #32855B",
"i. c #0CA25C",
"p. c #0D8B63",
"a. c #158C62",
"s. c #198A65",
"d. c #0C9362",
"f. c #0C9C62",
"g. c #0D956A",
"h. c #149463",
"j. c #1B9365",
"k. c #159B62",
"l. c #1C9B6A",
"z. c #17966A",
"x. c #199B72",
"c. c #238D62",
"v. c #2D8C65",
"b. c #288967",
"n. c #348966",
"m. c #249365",
"M. c #22936B",
"N. c #2A946C",
"B. c #27996A",
"V. c #289A73",
"C. c #389976",
"Z. c #37916D",
"A. c #0BA363",
"S. c #0AA867",
"D. c #15A669",
"F. c #09B76C",
"G. c #18A775",
"H. c #0AB777",
"J. c #17B779",
"K. c #11B26D",
"L. c #25A36D",
"P. c #27A678",
"I. c #37A47B",
"U. c #29B47C",
"Y. c #448366",
"T. c #44926D",
"R. c #448F76",
"E. c #469A79",
"W. c #569579",
"Q. c #52876C",
"!. c #709475",
"~. c #46A27C",
"^. c #54906D",
"/. c #09C678",
"(. c #15C37D",
"). c #9A8C7B",
"_. c #858A70",
"`. c #A48C7C",
"'. c #A6947C",
"]. c #1CB784",
"[. c #15B386",
"{. c #2CAB84",
"}. c #39A885",
"|. c #27B788",
" X c #35B88F",
".X c #3C9F82",
"XX c #499B83",
"oX c #529D83",
"OX c #659D8B",
"+X c #47A987",
"@X c #56A687",
"#X c #56AA92",
"$X c #49B898",
"%X c #55B699",
"&X c #48AF90",
"*X c #6CB094",
"=X c #5BBBA5",
"-X c #69BBA7",
";X c #75BBA9",
":X c #0CC885",
">X c #17C785",
",X c #0CD388",
"<X c #16D194",
"1X c #32C696",
"2X c #36CDA1",
"3X c #4CC09D",
"4X c #58C4A8",
"5X c #5CCBB3",
"6X c #64C6AB",
"7X c #72CCB3",
"8X c #74C09D",
"9X c #6BD6C7",
"0X c #9A9988",
"qX c #AB9C8B",
"wX c #A79686",
"eX c #B29A88",
"rX c #AE988D",
"tX c #97A78B",
"yX c #8EA88B",
"uX c #AAA48A",
"iX c #B8A58E",
"pX c #AAA592",
"aX c #B5A493",
"sX c #BCAB9B",
"dX c #B9A796",
"fX c #BAB39B",
"gX c #A7B396",
"hX c #B7B5A6",
"jX c #92BCA9",
"kX c #C1AB9A",
"lX c #C1B399",
"zX c #C5AEA2",
"xX c #C2B4A3",
"cX c #CBBAA8",
"vX c #D3BEAE",
"bX c #B3C5AE",
"nX c #8BC7AD",
"mX c #CAC1A7",
"MX c #C8C5B4",
"NX c #D8C9B8",
"BX c #D3D1BA",
"VX c #A1DDCA",
"CX c #D7D6C8",
"ZX c #E7D6C7",
"AX c #E5D8CC",
"SX c #EBE4D5",
"DX c #F6E1D7",
"FX c #E8ECE1",
"GX c #F9F6EA",
"HX c #FDFDFB",
"JX c #FBFBF3",
"KX c #F4EEE3",
"LX c #D4E9DC",
/* pixels */
"                                                                                                                                            ",
"                                                                                                                                            ",
"                                                                                                                                            ",
"                                                                                                                                            ",
"                                                                                                                                            ",
"                                                                                                                                            ",
"                                                                      C.=X5X4X-X-X;X                                                        ",
"                                                                    C._ R.=X6X7X7X6X6X6X6X-X                                                ",
"                                                                $X4XV._ _ ^ ` n.XX+X$X+X+X@X@X!.                                            ",
"                                                              oX+X#Xb.T ~ %.V V B D _ b.A D e y                                             ",
"                                                  nX;X#XC._   W.XXZ./ A <.Q V V C D ` M.Z B 0 r                                             ",
"                                            ;X7X;X-X+Xv.B D #X+XV.N.A A ;.L Q Q J A b.s.Z f 0 3             eXiX            NXAX            ",
"                                      -X;X;X-XXXb.[ ! Z f Z %X&XN.s.B k K K ! Q J / s.s.B 0 1 u           '.eXkX            ZXZX            ",
"                                  -X%X*X#X}.M./ ! ! ! Z f J &X&Xb.s.f w J L F F J ^ M.s.f 0 1 | KXJXGXAXsXwXeXeX        wXcXZXZX            ",
"                                ' Z.' b.P.J.[.}./ ! ! J d L V.}.1.r.k 9 F L F V J ^ V.z.B 0 <  .SXAXSXCXsXdXdXeXaX    wXwXdXZXZXcXzX        ",
"                                A Y m.J.].|.{.n.Y J *.%.h %.z.V.a.1.w 9 F L F g J / x.z.B 5 , !.KXSXZXfXpXuXqXaXaXdXdXqX).sXZXNXvXdX`.iX    ",
"                                A B.J.H.[.|.oX` XXv.p.=.G K =.N.;.1.k h F F F a C <.P.x.j 5 < tXGXJXKXhXqXwXqXaXaXdXaXqXwXxXNXNXZXaX`.kX    ",
"                                c.P.K.J.G.9.n.4X9X=Xz.=.F L =.N.C.b.a f g F g a P 3.P.x.d 5 < hXJXJXJXMX0X0XaXsXsXxXpXqXaXkXZXDXZXaXwXiX    ",
"          E.+X.XXX              G.D.D.3.:.B.=X5X-X#Xm.=.X.K d.B.C.e.a f d g g a ) N.G.g.j 9 e CXHXJXHXSXpXqXpXxXzXdXqXaXdXsXZXDXZXaXwXrX    ",
"        C.}.4X6X&X}.+X          2.0.b ( %X5X9X=X%X' :.&.%.%.f.h.Y ^ h P f j j 6 ] +XG.g.f I n.LXHXHXHXGXMXsXpXxXxXqX).dXsXsXNXDXxXeXeXwX    ",
"        C.}.$X6X7X4X&Xn.        f g 9 R.9X4X4X4XT.8 a j.;.%.5.+.Y R F E k d a k N C.x.g.f T E.FXHXHXHXHXAXhXpXsXcXqX).aXkXdXkXZXaXiXeXwX    ",
"        %X$X$X%X7X6X%X_         e l 6 ) $X%X}.3.G 7 9 c.;.G r.E.v.+.H R a a 6 z e M.x.p.A S T.bXAXGXJXJXFXMXxXsXcXsXwXaXzXzXaXcXiXeXeXwX    ",
"      R.&X$X$X%X6X4X&XT           e r w E :.P A >.a a Y ~ ^ =X=XI.>.X.@.k a 6 6 z z.x.p.F S W.BXBXCXAXSXCXMXmXxXxXsXwXaXzXxXsXdXwX`.qXwX    ",
"    { N.M.}.$X$X$X$Xv.K _         M ( w P K Q %.a.Y g A ,.B.4X4XV.X.H R h i a 6 l z.g.p.L R @XLXKXKXSXNXxXxXcXxXaXwX).wXkXxXxXkXrX`.wX      ",
"  { ~ J Q Y c.I.I.c.g ;.@XXX      ` T l b %.=.%.%.G g h @.e.M.3.;.:.G H c s s d +.x.g.p.K K L.4XVXFXCXmXcXcXcXvXsXwX).wXdXcXsXdXeX`.'.      ",
"  / ! L %.K F C J Q F K 1.B.7X    r.K R b >.=.%.K K c x b 1.2.+.+.:.K K H c j b ,.d.p.*.>.B. X<X1X*XbXBXNXNXvXcXvXaX).'.dXmXlXiXeX'.wX      ",
"` ! ! *.L 2.%.K ;.Q J J F H }.4X  E R <.E +.~ %.K H G c v E j.P.&XI.U H X.H g h X.d.=.H +.y.{.<X].E.jXbXMXNXcXfXsXaXwX'.iXmXfXuXiXlXuX      ",
"~ B Z *.*.%.L =.*.K J F C C P.|.j.P I ;.R R Y h.&.%.H c v W +X4X9X&Xb c ..H x c U =.-.H :.I ,.].P.@X*X*X@XtXcXaXqXqX_. .!.gXgXpXmXmXuX|     ",
"` s.! ! p.p.-.-.=.-.L F V C 5X|.<.G 6 U ;.+.h ,.8.;.X.c ..@.n.+XI.u.n c ....X...R %.K H @.W 3.|.P.I.Z.~.I.OXcXkXqX0X| 4 M yXgXtXtXgXyX| u   ",
"s.z.! ! ! ! *.=.*.=.-.F g j {. XQ R a d R U c U +.X.X.q.0. XC.W U W U ....o.o.o.>.&.%.o.o.H l.|.V.:.&X&XP.E.fXxXqX_.u , ( |  .Y.!.*X' y ]   ",
"s.p.p.! ! J Q d.d.d.=.%.g g =.|.=.g h U +.@.o.q.t.&.&.D.K.2X$X#.#.+.#.4.o.O...#.8.5.2.o.o.o.D.G.:.v.#XC.&Xv.!.dXqX| 3 q D W.*X*X8X7XT.] y u ",
"{ Y ! ! ! V V h.G.].=.G.;.G K h.d.g P k.0.#.o.$.P 0.D.D.L.}.C.q.q.#.&.6.5.4.6.6.S.S.f.O...o.f.2.R y.t.N.Z.v.yXpX_.3 t r | ' ( E.7XnX@X_ r u ",
"    [ p.s.~ f C j.|.h.G.L.s G L d.K @.D.q.o.H X.G >.J.>.,.t.,.q.4.&.7.6.i.A.A.A.H.:XH.4.v ..&.+.:.r.U m.R ^.pXtX] 9 D | Q.r % D @X+XC._ ( y ",
"    #X&X{.}.A B 9 R {.5.h.d i x K X.t.U.0.4.$.>.&.+.G.5.H @.>.o.O.4.6.S.S.S.S.S.:X:X:X6.U #.q.+.G +.,.c.u.tXpX .9 A _  .r < , 1 T m.v._ y y ",
"    ' XX$X&X1.a.Y C >.=.%.h i H H c :.U.6.o.#.;.0.#.9.k...U o.w.o.7.A.F.F.F.S.S.,X,X:X6.#.#.O.k.X.X.B.v.W.bX!.4 5 Y Y.y 1 < , 1 k k T ( y u ",
"  1.C B Z.V.*.a.Q *.%.L H s i H c 6 a 9.7.7.#.,.A.0.:.k.o...&.7.w.A.F././.J.K.K.:X<X:Xi.q.&.X.k.D.f.L.` ( Y.M ; z S q a 0 1 < < 1 3 ( y y   ",
"T 1.` Z C G K %.<.*.=.%.G i s x i 7 > b w.o.H +.0.L.t.9.7.w.6.A.7.F./.(.D.y.B.L.L.|.(.i.i.6.0.0.D.].l.z P E S 6 z q 5 g f w 1 = , 3 r u     ",
"G C z ^ C j g F Q F J 2.H s x x i 7 : p #.G X.H ,.D.0.q.4.4.f.S.A.F./.J.L.B.V.v.n.y.L.S.A.D.D.k.f.J.;.h c I ) z , 5 9 g A , % % = , t u     ",
"R c a 0 B h P R L F B Z V s v v p p : : $.H -.O.o.0.A.q.5.6.A.H.F././.(.J.|.|.I.+XL.K.K.K.J.K.A.D.D.G j g c b k ; 1 9 j j , $ , 3 4 u       ",
"N.$XI.G 0 0 9 B Q Q } Y ;.;.P a i p p : d H -.O.O.o.k.k.A.A.7.S.F./././.F.>X1XP.J.>X>XJ.K.6.D.A.D.5.c s x x I P 9 1 0 f 9 9 & % , 4         ",
"{ +XnX-X~ g 9 5 0 / E.e.p.{.6XT.a i p : b +.%.-.O...q.D.S.S.i.D.H./.,X/.H.,X|.P.J.<X>X(.S.&.7.A.6.K 6 a g x ) T R ` ` ^ J d 1 & -           ",
"#Xb.{ ;X7XC.j.R a ` }.&XV.x. X4Xr.s p i :.B.;.-.O.v d y.D.S.S.D.J.:X,X/./.,XG.U.>X,XJ.D.f.f.f.0.X.a ; 6 g F U ) 1.C.b.N.Y 9 5 - u           ",
"  Z.` Y } +X{.2X@X' ^ C.3XP.z.x.h.=.v i U j.&.O.v v p m $.q.,.>.0.(.<X:X,X,XG.>X>XJ.o.X.4.6.6.X.b ; ; a x H R ' e.C.e.T 5 < % -             ",
"        A C 2.V.n.' S k C. XM.d.%.h.J.>.c +.H c c v v p 7 m m n W o.0.J.:X,XG.:X:XD.O.-.-.o.O.H > ; 7 i x ;.3.) T ~.n.9 5 e ]               ",
"          T G G d d S w w n.I.l.=.h.5.D.8.c c v v v v s l E +.U @.#.#.k.S.H.G.J.>X9.&.f.6.o.H c 7 7 7 a H ;.c.^ ` E.n.f ~ @X                ",
"            D a m a T ` c.A e.j.=.z.d.4.>.U s s ..H v c ,.L.k.8.,.q.#.X.7.f.2.4.f.&.7.S.S.D.m.E c d d G F K b.c.m.e.t.m.I.                  ",
"              k h h A ^ N.V.R A :.z.h.=.3.@.s v O.O...,.9.z.S.D.8.>.#.X.4.=.X...O.4.f.S.S.[.{.3.%.B.;.K P ~ ;.e.Y n.C.}.'                   ",
"              A K P l F R m.l.R z T <.8.L.U s c O.O.=.h.h.l.d.l.j.#.,.X.=.=.X.X.O.7.A.A.f.|. Xx.k.|.j.Y P R K R C W.#X`                     ",
"                e.<.~ :.P a 3.m.r.t.) P E c s c X.=.d.z.{.}.I.l.8.@.,.&.d.d.&.>.&.7.f.f.f.{.3XG.5.|.^ A ) l h L F v.Y.                      ",
"                  E.M.1.r.P a :.l.].V.` ^ P U H H &.=.P.}.7X-XB.8...E >.f.d.q.&.&.7.6.D.f.j.N.I.G.h.S I P g V L ~ ~.W.                      ",
"                    *XC.a.1.b d ~ P.P.j.a.;.3.+.+.=.2.P.C.%X$XI.9.o.@.>.5.X.o.O.&.6.k.L.l.h.,.:.a.%.Y l h g g g ` jX                        ",
"                      *XE.a.K ` S u.C.z.a.j.m.H X.j.3.3.;.I.}.V.>.>.U ,.#.U o.O.4.f.P.%XV.V.,.c H %.h.%.F G a w                             ",
"                        y e.j.m.u.) u.V.2.V.C.H >.j.;.,.;.M.}.M.>.>...) l c 3.9.f.D.P.}.j.x.>.H K <.G.f.-.P r                               ",
"                        ; 5 _ B.M.%.l e.V.v.Z.+.X.+.G R <.<.M.a.m.r.+.E I :.r.,.{.G.{.C.X.h.%.K <.*.g.S.2.                                  ",
"                        1 7 1 e e.a.` N N u.1.H H H x c <.*.=.*.l.v.3.2.,.I.B.&.h.G.{.+X,.%.%.K <.Q 1.1.                                    ",
"                        3 5 7 < < D D ( r ( c.K H H b G ;.%.Q %.a.V.P.j.9.C.m.k.l.P.$X@XT K 2.~ s.1.' e                                     ",
"                          9 7 2 % % k C k w R H H U U U K F J ~ ~ j.N.<.&.9.c.Z.C.C.n.( ; l V.@Xn.P ' (                                     ",
"                          q 6 7 2 & ; q 8 w P :.R X.K c h f Y ~ Q J K ;.K %.c.` ` t.n.' 8 k c.^ G f w r                                     ",
"                          3 6 6 0 % O o * , 8 l I :.P h 9 w A J J K L J E c.^ t.r.v.T.( 6 l m.Q C 9 0 3                                     ",
"                          $ % ; & @ o . o O O & > 8 1 5 9 6 a C F J V T T.n.R.E.C.Z._ r 5 8 z Z T e e                                       ",
"                            @ $ @       . o O O * & , 1 0 9 w h F J P T _ W.OXOXQ._ T 4 % & 5 A D = $                                       ",
"                                            o O O * % , 5 0 A T T ) S T J _ ' Y.' Y ) N 4 % w 0 = % =                                       ",
"                                              o O O O @ = q e D e r w k A S l T ( e r y 3 % z ' r , -                                       ",
"                                                  o o o @ @ $ , , , , 3 8 1 w z e 1 < t 3 ; 8 y = # #                                       ",
"                                                    o . o @ @ * * & $ % < 5 < < t 1 2 1 t $ $ % $ . X                                       ",
"                                                            @ @ @ @ + @ % ; % & $ 4 q q 1 $ - y u                                           ",
"                                                                + # +   $ @ @ @     4 r - + @ 4                                             ",
"                                                                                      o @ @ o $                                             ",
"                                                                                          . X -                                             ",
"                                                                                                                                            "
};
