/* XPM */
static char *a9e48b7d73fa49ea87cd0f6985cf2849iyRQBInyhhSgUnOB[] = {
/* columns rows colors chars-per-pixel */
"70 70 233 2 ",
"   c None",
".  c #531E08",
"X  c #4E1E09",
"o  c #5A220A",
"O  c #532109",
"+  c #4F2008",
"@  c #65230B",
"#  c #6C230B",
"$  c #6B290C",
"%  c #75250C",
"&  c #7D240B",
"*  c #732C0D",
"=  c #7B2D0D",
"-  c #7D310F",
";  c #762B12",
":  c #7C3411",
">  c #753311",
",  c #82250B",
"<  c #832A0D",
"1  c #892B0C",
"2  c #8D270D",
"3  c #932B0D",
"4  c #9B2D0C",
"5  c #84330F",
"6  c #8B370E",
"7  c #9A310E",
"8  c #823411",
"9  c #8B3411",
"0  c #8B3C12",
"q  c #953611",
"w  c #943C11",
"e  c #9B3912",
"r  c #872910",
"t  c #A82F0E",
"y  c #A7310E",
"u  c #AA3812",
"i  c #B43A13",
"p  c #BA3713",
"a  c #B5310F",
"s  c #C73D13",
"d  c #94400F",
"f  c #9D430E",
"g  c #934112",
"h  c #9B4413",
"j  c #99461A",
"k  c #AA470F",
"l  c #A14412",
"z  c #AB4611",
"x  c #AB4B14",
"c  c #A44B1A",
"v  c #AC4C19",
"b  c #A34A13",
"n  c #B34C13",
"m  c #BA4D14",
"M  c #B74314",
"N  c #B55314",
"B  c #BB5314",
"V  c #BB5A14",
"C  c #BD541A",
"Z  c #BA551B",
"A  c #B04E10",
"S  c #C64615",
"D  c #D54A13",
"F  c #D44D19",
"G  c #C35414",
"H  c #C65B14",
"J  c #CC5C14",
"K  c #C2551A",
"L  c #C4591A",
"P  c #CB5C1B",
"I  c #CE5617",
"U  c #D65B15",
"Y  c #D35C1A",
"T  c #D85B1A",
"R  c #DD5717",
"E  c #CF570F",
"W  c #E34E17",
"Q  c #E35714",
"!  c #CB611A",
"~  c #D36416",
"^  c #D4631A",
"/  c #DB641B",
"(  c #DB6B1C",
")  c #D86B18",
"_  c #DA7216",
"`  c #DE7419",
"'  c #E76618",
"]  c #F6691A",
"[  c #E47316",
"{  c #E5741B",
"}  c #EB761E",
"|  c #E37B1C",
" . c #E97A1A",
".. c #E07B14",
"X. c #F87615",
"o. c #FA7D17",
"O. c #FA7E19",
"+. c #F67717",
"@. c #C75921",
"#. c #D55E21",
"$. c #DB6921",
"%. c #DD7020",
"&. c #E76C23",
"*. c #E16521",
"=. c #EB7422",
"-. c #EE7D23",
";. c #E77925",
":. c #F57E23",
">. c #ED8519",
",. c #FA8317",
"<. c #F5821B",
"1. c #FA851A",
"2. c #F68B1B",
"3. c #FA8C1B",
"4. c #F98A15",
"5. c #F5911D",
"6. c #FB931C",
"7. c #FB9B1D",
"8. c #F69C1C",
"9. c #EF901D",
"0. c #FBA31E",
"q. c #FBAA1E",
"w. c #FAB51F",
"e. c #EB8627",
"r. c #F38224",
"t. c #F58C23",
"y. c #FA8C22",
"u. c #F4892B",
"i. c #F49322",
"p. c #FA9422",
"a. c #F79B22",
"s. c #FA9C23",
"d. c #F99529",
"f. c #F59A29",
"g. c #FA9C29",
"h. c #F4942B",
"j. c #E88339",
"k. c #F59A37",
"l. c #EC8F2B",
"z. c #F5A323",
"x. c #FAA423",
"c. c #F5AA25",
"v. c #FAAB23",
"b. c #FBA42A",
"n. c #FAAB2B",
"m. c #F7A42C",
"M. c #FAB324",
"N. c #FBBA25",
"B. c #FBB32B",
"V. c #FBBB2B",
"C. c #F7B529",
"Z. c #F9AB32",
"A. c #FAAE3C",
"S. c #F8A537",
"D. c #FAB433",
"F. c #FABB33",
"G. c #FAB43B",
"H. c #F9BA3C",
"J. c #F7B336",
"K. c #FBC324",
"L. c #FBCC26",
"P. c #FBC42D",
"I. c #FACC2C",
"U. c #FBD22A",
"Y. c #FBDA2D",
"T. c #FCD126",
"R. c #FBC334",
"E. c #FBCB33",
"W. c #FAC43B",
"Q. c #FBCC3C",
"!. c #F7C13C",
"~. c #FBD332",
"^. c #FBDB33",
"/. c #FBD23C",
"(. c #FCDD3D",
"). c #FBE434",
"_. c #FBE33C",
"`. c #EC8D40",
"'. c #F9B343",
"]. c #F9B842",
"[. c #F8B648",
"{. c #F7AB53",
"}. c #F7BC67",
"|. c #FAC543",
" X c #FBCC43",
".X c #F9C44B",
"XX c #FBCD4B",
"oX c #F7C147",
"OX c #FBD443",
"+X c #FBDC44",
"@X c #FBD44C",
"#X c #FBDB4C",
"$X c #F7C755",
"%X c #FAC451",
"&X c #F9C859",
"*X c #FBD453",
"=X c #FBDB54",
"-X c #FBD45C",
";X c #FBDC5B",
":X c #FAE244",
">X c #FBE54D",
",X c #FBE453",
"<X c #FBEB54",
"1X c #FCE25C",
"2X c #FBED5C",
"3X c #FCF25B",
"4X c #FBF254",
"5X c #FBF34F",
"6X c #F8C465",
"7X c #FAD664",
"8X c #FBDB64",
"9X c #FADE69",
"0X c #F7DB67",
"qX c #FBDB78",
"wX c #F8CC70",
"eX c #FBE464",
"rX c #FBEB66",
"tX c #FAE56B",
"yX c #FBEB6D",
"uX c #FCF36B",
"iX c #FBF360",
"pX c #FBE472",
"aX c #FBEA75",
"sX c #FCF677",
"dX c #FAD989",
"fX c #FAD38B",
"gX c #FAE68A",
"hX c #FCF987",
"jX c #FAE794",
"kX c #FCF79C",
"lX c #FAEAA7",
"zX c #FCF6B1",
"xX c #FEF9C9",
/* pixels */
"                                                                                                                                            ",
"                                                                                                                                            ",
"                                                                                                                                            ",
"                                                                                                                                            ",
"                                                                                                                                            ",
"                                                                                                                                            ",
"                                                                                                                                            ",
"                                                                                                                                            ",
"                                                                                                                                            ",
"                                                                                                                                            ",
"                                                                                                                                            ",
"                                                                                                                                            ",
"                                                                                                                                            ",
"                                                                                                                                            ",
"                              % & 2 3                       G J ~ ) _ | | .._ _ ~ H m z                                                     ",
"                            , , , 4 4 3             n E [ >.8.z.z.a.a.M.M.v.v.v.z.9.[ U J J B k f                                           ",
"                          , & , y t 1 1 q       B ~ [ i.B.M.w.q.0.7.7.0.v.7.0.q.v.M.v.5.5.<.| _ J x 0                                       ",
"                        & , & 1 7 e = 5 w       } i.B.B.b.6.3.6.0.v.0.7.0.0.0.0.0.0.q.V.I.Q.F.x.>.H l 0                                     ",
"                      % & 2 < < = - - w z n     F.R.P.v.6.3.6.0.q.v.0.x.7.x.v.q.M.N.M.N.I._.2XOXi./ n h 0                                   ",
"                    # % < 4 = * > 8 0 h K [ c.!./.Q.N.0.p.3.6.B.c.6.3.3.3.6.v.M.V.N.K.K.N.E.+X,XoX-.U n h 0                                 ",
"                    ; & 4 M 5 = : 0 l n ~ z.R.R.R.M.0.n.J.7.7.n.n.2.<.,.,.7.V.M.0.v.P.(.~.E./.+X#X.Xu.Y n h g                               ",
"                      3 t u 9 8 0 h m ' f.|.F.M.0.0.7.n.H.n.b.b.7.p.6.7.6.M.P.P.M.M.N.OX(.I.P.Q.#X#X$Xe.^ K x g                             ",
"                      t a i 9 0 g x ^ h.!.c.v.7.6.6.7.0.v.B.b.x.g.s.B.N.7.M.U.).^.K.0.v.V.V.V.R.Q. X1X$Xu.{ L x h                           ",
"                        p s M e l J i..X|.D.B.7.6.6.0.0.0.x.6.6.g.v.~.E.v.N.^._.E.0.6.7.M.M.N.N.F. X#XrX$Xd.} ! v                           ",
"                          S Q E I ' '.*X!.W.F.0.0.v.0.7.6.6.6.6.n.V.^.~.w.K.U.K.x.s.3.6.x.7.7.q.N.!. X#XrX Xp.=.C x                         ",
"                            D ' 4.b.-X*X XF.0.q.v.M.s.3.1.,.3.3.x.M.w.L.I.:X:XK.c.x.6.6.n.7.6.7.M.!.R.V.>XrXD.-.P C N                       ",
"                              U 5.*XtX*X|.XXB.0.q.M.x.6.6.3.1.,.6.x.q.w./.gXeXK.n.g.o.,.b.x.s.n.0.D.B.v.E.sXXXt.( P B                       ",
"                            m / k.9X*X XXX;X!.0.0.v.7.7.6.3.1.1.s.b.6.0.R.J.n.n.b.p.1.1.p.x.n.b.7.c.M.M.E.rXqXd.=.$.C                       ",
"                            L =.[.eX XV.V.|.F.x.7.0.0.7.p.6.3.1.1.1.,.1.s.p.g.'.A.g.p.1.3.6.x.Z.G.n.V.M.K.+XtXA.:.&.L                       ",
"                            ^ u.-X1XW.V.q.B.n.7.7.v.M.n.A.s.6.3.O.1.3.O.1.,.f.&X[.g.s.s.p.7.x.H.].n.c.7.M.+XeX&Xd.=.L                       ",
"                            ( S.eX=XW.F.7.0.7.6.x.v.M.v.n.6.6.3.3.p.3.X.o.y.}.lXdX[.g.b.7.b.H.7XqX%XB.7.v.Q.eXaXZ.=.L v                     ",
"                            %.H.eX@X Xn.6.x.6.4.7.v.v.x.8.6.6.o.6.6.p.o.+.S.wXjXlXdX&XA.6.b.0XzXzXpXW.v.v.V.=XaXA.=.P v                     ",
"                          K { .XtXXX!.c.p.7.3.1.3.7.0.B.b.6.S.6X'.].%X<.+.y.d.S.{.fXqX'.n.|.0XkXkXaX#XV.v.B.Q.eXS.&.L v                     ",
"                          Y <.@XtXXXF.b.6.6.3.1.,.1.6.b.G.oXgXxXlXlXwX1.1.3.3.3.2.f.A.G.F./.Q.<X<X,X,XW.M.V.Q.1Xk.*.C c                     ",
"                          Y t.;XtX-XXXb.g.g.d.y.3.3.6.6.b.-XjXjXjXlX&Xa.3.1.3.3.,.,.p.Z.W.+X+X<XuX:XOXW.F.Q.Q.;Xk.#.Z j                     ",
"                          Y t.8XaX8X-X.XA.d.d.g.b.g.x.b.D.H.H.Z.[.$X$Xm.s.<.p.6.p.3.3.0.E.2X3X5X5X^.P.F.F.|.@X8X`.@.v j                     ",
"                          P e.7XpX8X-XG.Z.g.p.b.s.3.p.B.F.F.B.7.x.H.[.b.g.5.n.7.s.6.7.q.P.2XuX3X,XP.q.D.|.XX*X8X`.@.c j                     ",
"                          P =.&XpX*X|.b.g.g.g.g.y.1.7.R.OXOXB.x.g.p.y.1.3.a.J.x.0.v.v.N.U.^.OX1X@XD.x.c.V.|.*X7Xj.@.c j                     ",
"                          P =.[.9XXX|.B.x.b.c.n.g.p.0.P.#X#XB.b.3.X.X.X.o.a.x.N.K.M.N.U._.U.E.@X*XG.x.v.v.F.@X7Xj.K c                       ",
"                          Y :.|.tX=X@XR.v.B.V.V.n.v.M.M.V.W.n.g.3.O.O.X.o.3.0.L.T.K.P.<X).L.N.R.@XD.q.0.c.|.=X7X;.C c                       ",
"                          Y r.R.uXuX,XW.V.c.c.x.p.g.v.q.v.B.b.6.3.1.3.o.o.,.v.L.L.T._.<X).Y.K.E.#X XV.q.B.Q.eX6X&.K v j                     ",
"                          T r.I.uXsX3X#XR.x.x.g.p.b.B.x.v.v.x.7.6.6.3.3.3.6.v.P.I.U.U.I.U.Y.^._.(./.E.V.M.Q.eX{.' F M u                     ",
"                          T :.V.2XsXiX<X XB.n.x.s.b.n.s.0.v.v.x.7.3.6.s.6.7.v.B.W.P.U.I.^.:X+XI.N.N.V.B.N.#X1Xm.] W S u                     ",
"                          I } v.,XhXuX1XXX|.H.x.x.x.s.x.q.v.c.v.!.].n.s.3.J.R.v.V.V.I.Y._.:XM.v.q.v.0.v.Q.1X#X6.] W S                       ",
"                          G } n._.kXhX1XXX XF.g.x.7.7.7.x.x.B.V.=XeXP.7.b.9X X0.0.M.U.)._.N.6.x.M.q.q.P.@XeX!.3.' D M                       ",
"                          C  .v.~.rXsX1XXXF.v.x.b.D.b.x.0.v.M.M.P.K.M.0.M.P.B.B.M.M.L.Y.Y.N.M.M.V.N.P./.=X;Xv.o.Q S u                       ",
"                          C ( d.B.P.@XyX=X@X|.B.M.H.Z.6.6.v.N.v.I.L.q.x.n.x.c.V.M.B.V.K.Y.~.P.V.P.E./.#X;XB.2.' D i q                       ",
"                            P { r.p.d.&XeXOXOXOX XF.6.6.7.v.M.E.(.L.M.x.x.x.c.B.s.v.M.w.L.~.E.R.OX#X=X1X'.+.Q R D u                         ",
"                            x N ! ( ' l.-X=X>X<X#XQ.M.R.F.B.M.K.K.V.V.s.6.7.7.p.6.7.0.M.N.M.P.E.OX@X1X.Xr.T m z S s                         ",
"                              h x N L $.k.;X2X4X,X XW.#X/.P.7.7.0.b.s.6.6.3.3.3.3.6.0.V.W.B.F. X@X;X$Xu./ B h 0 q p i                       ",
"                                g h x L =.Z.,X4X<X/.V.B.P.P.7.6.6.0.6.6.6.3.6.4.,.3.v.V.XX*X@X#X;X%Xr.Y m h 0 : 8 a t                       ",
"                                  0 h N ^ -.Z.=X3X+XE.V.R.R.D.7.7.0.x.x.c.s.3.3.6.x.V.R.Q.@X=X;X[.;.Y n h 0 : > 8 u 3 r                     ",
"                                    g b B / r.g. X2X2X<X+XV.n.v.0.q.v.7.6.3.O.1.3.x.M.V.E.#X*Xk.%.K z e w 8 9 - 8 7 , %                     ",
"                                          H ( { t.F.#X>X/.M.7.0.0.q.7.3.3.3.3.7.6.7.v.V.!.J.i.~ Z b d 0 9 9 y 7 < , % #                     ",
"                                            N H )  .2.f.C.V.V.M.M.N.v.s.x.q.V.P.V.M.c.l.| [ X.    0 5 : 5 4 4 1 % & % @                     ",
"                                          w h x N G P Y /  .5.z.B.V.F.F.F.V.N.c.l.` ! B           - - * = 3 < & & & #                       ",
"                                                f l l l x N H ) [ [  .;.;.[ ) J B k l f           * * $ * 1 , & & #                         ",
"                                                              A N N V V ! V x l w 0 6 5 8           $ @ $ % % # @ o                         ",
"                                                                d d f         6 5 5 - =             @ o o o o . .                           ",
"                                                                              = * * * $               o O + + X                             ",
"                                                                                  $                                                         ",
"                                                                                                                                            ",
"                                                                                                                                            ",
"                                                                                                                                            ",
"                                                                                                                                            ",
"                                                                                                                                            ",
"                                                                                                                                            ",
"                                                                                                                                            ",
"                                                                                                                                            ",
"                                                                                                                                            "
};
