/* XPM */
static char *_620a3101f454fedd145be37f755ac554wV14pTaMRezm1To[] = {
/* columns rows colors chars-per-pixel */
"70 70 239 2 ",
"   c None",
".  c #0B0A0D",
"X  c #070809",
"o  c #110C0E",
"O  c #0C0E12",
"+  c #110E12",
"@  c #0D1215",
"#  c #0E1419",
"$  c #121116",
"%  c #12151B",
"&  c #13191F",
"*  c #19161C",
"=  c #0E1925",
"-  c #141B23",
";  c #1B1C25",
":  c #151E2A",
">  c #191F2A",
",  c #141721",
"<  c #16212C",
"1  c #1A212D",
"2  c #162333",
"3  c #1B2533",
"4  c #1B2935",
"5  c #162539",
"6  c #1C2739",
"7  c #1D2A3C",
"8  c #212533",
"9  c #222B3D",
"0  c #212837",
"q  c #21232E",
"w  c #1C2D43",
"e  c #1B2E48",
"r  c #1E3145",
"t  c #1E324B",
"y  c #1F3553",
"u  c #1F3859",
"i  c #222E42",
"p  c #242F45",
"a  c #233245",
"s  c #22344C",
"d  c #233A4E",
"f  c #2A384C",
"g  c #213652",
"h  c #233A55",
"j  c #293954",
"k  c #233B5B",
"l  c #2A3D5B",
"z  c #253656",
"x  c #233D62",
"c  c #233E6C",
"v  c #2A3F64",
"b  c #213E73",
"n  c #1E3C63",
"m  c #28415B",
"M  c #344655",
"N  c #264163",
"B  c #2B4263",
"V  c #25436B",
"C  c #2A456C",
"Z  c #2C4A6B",
"A  c #2B4A62",
"S  c #324B6D",
"D  c #304960",
"F  c #3A5468",
"G  c #254473",
"H  c #2A4571",
"J  c #264974",
"K  c #2B4B73",
"L  c #264A7B",
"P  c #2B4C7B",
"I  c #25447A",
"U  c #334D76",
"Y  c #2E5275",
"T  c #2C527C",
"R  c #2E5878",
"E  c #33537D",
"W  c #385778",
"Q  c #2F516D",
"!  c #3A607B",
"~  c #435D76",
"^  c #455868",
"/  c #40596E",
"(  c #2C4C82",
")  c #264C8D",
"_  c #264B86",
"`  c #2C5384",
"'  c #2C558B",
"]  c #2D5A8C",
"[  c #2B5584",
"{  c #335A84",
"}  c #335589",
"|  c #315C8D",
" . c #375786",
".. c #2C5392",
"X. c #2D5B93",
"o. c #2E5D9B",
"O. c #2A539A",
"+. c #325B94",
"@. c #335C9B",
"#. c #385A97",
"$. c #2C4E8E",
"%. c #396488",
"&. c #2E629A",
"*. c #336294",
"=. c #32659B",
"-. c #3B6699",
";. c #39779C",
":. c #2B59A5",
">. c #345EA6",
",. c #305FB6",
"<. c #2E65A7",
"1. c #3A64A3",
"2. c #346BA3",
"3. c #3C6BAC",
"4. c #3768A9",
"5. c #3876A8",
"6. c #2D66B7",
"7. c #326BB3",
"8. c #336BBC",
"9. c #3868B6",
"0. c #3473B3",
"q. c #3B74BC",
"w. c #3777B6",
"e. c #2E72AE",
"r. c #456999",
"t. c #526993",
"y. c #447599",
"u. c #496B91",
"i. c #426BA3",
"p. c #446BA7",
"a. c #4672AC",
"s. c #4877A7",
"d. c #5479AA",
"f. c #4C7BB4",
"g. c #4579B7",
"h. c #557DB2",
"j. c #426BBB",
"k. c #475F86",
"l. c #396CC1",
"z. c #3C7BC4",
"x. c #3676C7",
"c. c #387BD2",
"v. c #2F76C8",
"b. c #457CC4",
"n. c #3B85A9",
"m. c #3787BA",
"M. c #3892BF",
"N. c #4A83BD",
"B. c #5484BB",
"V. c #5A87B8",
"C. c #508BB1",
"Z. c #648AB7",
"A. c #6F8EB6",
"S. c #3A89C7",
"D. c #3B97C5",
"F. c #3886D7",
"G. c #3A96D9",
"H. c #3BA2CC",
"J. c #3CA9D5",
"K. c #3CB3D9",
"L. c #3A96E5",
"P. c #3B8CE4",
"I. c #3AA8E7",
"U. c #3EB4EA",
"Y. c #4482C4",
"T. c #4C8BCD",
"R. c #4885C8",
"E. c #548AC3",
"W. c #578AC6",
"Q. c #4297C6",
"!. c #5B94C9",
"~. c #458BD4",
"^. c #4889D4",
"/. c #4995D9",
"(. c #5394D3",
"). c #5B9CD5",
"_. c #539CDB",
"`. c #5899D6",
"'. c #608DC1",
"]. c #6696C8",
"[. c #7399C5",
"{. c #659CD4",
"}. c #5AA6CB",
"|. c #46A6D8",
" X c #57A7D8",
".X c #46B7DA",
"XX c #56B5D8",
"oX c #47A8CD",
"OX c #77A1CE",
"+X c #68A5DB",
"@X c #74A8D9",
"#X c #79B4DC",
"$X c #65AED5",
"%X c #499EE5",
"&X c #549BE3",
"*X c #4CA6E5",
"=X c #46A8E8",
"-X c #57A7E3",
";X c #47B8E8",
":X c #54B4EA",
">X c #5AB9E9",
",X c #47A7F0",
"<X c #47BAF1",
"1X c #56BAF2",
"2X c #68ABE4",
"3X c #78ACE1",
"4X c #63B3EA",
"5X c #68B8E7",
"6X c #77B7E7",
"7X c #61BDF2",
"8X c #3DC5E7",
"9X c #47C5EB",
"0X c #56C5EC",
"qX c #4AC6F1",
"wX c #53CCF2",
"eX c #49D4F1",
"rX c #57D8F2",
"tX c #4ED3EE",
"yX c #68C4EB",
"uX c #77C7ED",
"iX c #66C5F2",
"pX c #76C7F1",
"aX c #75D8F3",
"sX c #60E1F4",
"dX c #809DBF",
"fX c #82ADD7",
"gX c #86B9E5",
"hX c #8AB5E3",
"jX c #88C5EB",
"kX c #98C7EA",
"lX c #8ACBF1",
"zX c #87D2F3",
"xX c #9AD6F3",
"cX c #8BD1EA",
"vX c #A7D8F3",
"bX c #B9E9F8",
"nX c #ABE2F7",
"mX c #9FE1F6",
"MX c #C3F1FA",
/* pixels */
"                                                                                                                                            ",
"                                                                                                                                            ",
"                                                                                                                                            ",
"                                                                                                                                            ",
"                                                                                                                                            ",
"                                                                                                                                            ",
"                                                                                                                                            ",
"                                                          1 8 3 3 0 0 3 3 3 6 6 3 >                                                         ",
"                                              , , ; > 1 0 0 6 6 7 7 7 7 6 3 3 6 i 9 6 3 1                                                   ",
"                                        % * ; 1 1 3 3 3 7 a a a a s s p p 7 3 1 6 9 p 9 9 9 8 ;                                             ",
"                                  $ % % , ; 1 6 9 p a p a s j B B B l l l s 9 6 3 6 9 9 9 a a p 8 ;                                         ",
"                                # % & - 1 3 7 9 p s j l j j j m C C S U S k s a 9 p p 7 7 7 p s p 6 ; % +                                   ",
"                            @ % , : 1 7 7 p s j g h j V H H H Z Z U E -.r.E B j f s p 7 7 9 p s a p 7 > % +                                 ",
"                            % , : 7 s h m C P [ ] ] ] ] X.X.=.=.| E Y E -.-. .S B l s 7 e w a s f a p 9 > * $                               ",
"                          % - 1 7 s h N P ] o.4.w.Q.S.M.D.D.D.D.D.m.5.| ` }  .E U U Z s p t e h k h s 9 3 ; % $ $                           ",
"                      % & : 3 w s l K ` +.2.e.m.G.=X;X;X;X;X;X;X.XJ.J.D.m.2.X.` H U #.U j s s g C Z m a 8 1 : % $ +                         ",
"                    % , < 4 7 k ` =.5.w.M.|.=X=X;X;X:X:X>XyXyXpXyXyX0X.X.X|.S.<.( K  . .S k k s l P B l 7 3 3 - $ + o                       ",
"                  % - : 3 4 y ] w.w.S.|.=X<X1X1X7X5X4X4X4X4X>X4XyXuXuXuX>X.X.XJ.0.' L } E Z N g s H P K s 6 4 3 & $ + . .                   ",
"                % , : < 4 h | w.S.S.F.L.=X=X*X_.T.N.f.a.p.i.a.E.).-X4X5XpXuX>X;X.Xm.' ` ` E H x t k P | C 7 4 4 > & $ O . .                 ",
"              # % , : < t [ w.S.S.F.L.=X%XR.1...( P  .r.u.t.t.t.Z.[.@XgX6XpXzXyX;X.XM.o.+.P E K k g C X.' g 7 4 1 - % $ . . X               ",
"              % % % : w J 4.S.G.-X>X%XT.=.( H B S ~ t.d.f.E.E.a.i.r.i.V.OXjXxXmXuX;XK.G.0.' H E C y k [ o.V r 7 4 2 - % O . X X             ",
"            % $ $ , 6 J 0.z.S.-X&X^.3.P H ( H  .f.T.~.F.c.c./.F.c.x.q.9.3.E.3XvXnXzX;X;X;Xw.J P P k k Y ] T k t 4 7 < % @ O . X             ",
"          $ $ $ % 6 L 7.7.x.^.^.l...c c G P 1.~.=X%XP.F.x.8.x.x.8.8.l.l.q.q.b.2XvXbXzX;XqX=X&.J E V k P [ ` J x r r 5 , @ O O X X           ",
"          @ $ $ : k <.7.8.z.9.>.( z z G X.q.*XiX1X,XP.x.6.:.:.7.0.7.6.9.z.T.R.^.2XvXbXaX0XI.S.[ T [ V P ] T ` [ s r 4 : # @ O . X           ",
"          O + % e X.0.w.z.9.@.H s e V 2.S.I.wXiX,XP.c.6.:.O...@.g.R.9.:.9.(.(.Y.(.6XbXbXaXL.L.<.P *.] X.&.` [ &.u r 4 < & @ @ . .           ",
"          + + 3 L <.6.7.>.+.V r e x | w.S.H.=X,XL.c.,.1.h.].].W.!.{.+XW.>.q._.g.N.`.lXbXbX:XL.8.L ' ' 2.2.] ] ] V t 4 1 : # @ O .           ",
"          O , y ) O.O.O.( l i e g P 2.5.5.e.F.P.~.b.].OXfX@X@X+X`.(.`.+X+Xb.R.(.N.).2XnXMXzX*Xc.L J L &.0.<.*.[ _ g 4 3 < % # @ O           ",
"          $ > x I c b L x a s g V *.2.;.;.e.7.6.g.].[.].'.E.E.).T.R.~._.6X@X(._.(.{.hXvXbXnX4X_.[ V L X.0.0.5.' _ y 7 4 3 , # # @           ",
"        O $ 7 x g y G c s i g v { ;.;.n.5.<._ ( s.V.h.'.].).).R.3.3.w.0.(._.3X3X5X3XkXvXbXbX6X2X@.N H ] e.w.5.] L y w 7 4 : % # #           ",
"        + - y z p k V z r g C *.5.5.n.n.:.G c i.B.W.@X3X`.(.].'.].].!.i.@.w.`.jXlXjXgXkXvXvXjX&X1.x C ' e.M.m.X.J y r w 4 : % # =           ",
"        $ 7 x s s x k s s k T *.n.n.n.o.b x -.{.`.+XuX2X!.A.r.i.s.-.r.V.B.3.N.6XxXjX+XgXkXvXjX^.>.x C ] 0.D.M.&.G g g r 4 : , - =           ",
"        : k e 6 9 j h s f v T { n.n.=.I x P p.(.4XpXuXhXZ.u.U N k k N { f.1.q.+XxXjX(.{.gXkXkXb.#.N V X.S.H.D.<.G k k w 3 < , : =           ",
"        5 w 1 6 9 s s i s V Y %.;.;._ c G +.3./.yXpX6XfXr.C t t t t k Z -.-.9.+XvXkXE.B.@XkX3Xj.#.K L <.Q.oXH.e.G J h 7 3 < : 2 :           ",
"        2 : > 3 9 i p i s S Y %.y.*.I G ..a.R.>XiX4X!.s.C t e t e = 2 N | 1.4.T.hX@Xg.f.+XgX{.3.#.` ..<.D.D.H.e._ P a 7 7 4 2 w 2           ",
"      - : & 1 6 p p s p s K R ;.C.' G ] 3.(.*X1X:X2XV.r.k k t s 2 X # h Y @.4.T.@XE.>.g.@X@XW.@.#.| o.0.D.M.J.v._ x r w y r e 5 =           ",
"      - , & 3 6 6 6 a 9 h Y %.C.5.( V ] g.(.I.<X7X+Xd. .u k s s s 2 2 s J 0.q.W.OXi.+.E.3X+Xf.1.1.' 7.G.D.H.U.v.G k r y V y w 5 ,           ",
"      ; * * > 8 3 3 9 9 l R %.;.2.J G L g.F.=X1X7XE.k.P c x h k s s s g V 4.N.E.V.} 1.{.6X+XR.g.-.) /.<XI.8XI.:.G h t k V t 5 :             ",
"      , $ & > q 1 3 9 9 m { %.;.2.G G G g.F.<XqX*X3.S V I G V l s s g l C } -.Z.V.i.f.@X6X#XE.p.+.6.=X<X9XeXG.:.J h y x x 7 2 -             ",
"      % $ % ; > 1 0 a a B R ! 5.2.C V L q.F.<XqX=X1.U L ' ' ..L V x V V V C E V.[.'.].{.{.[.h.i.O.F.U.<XeXwX/.<.L k k V l 4 2 ,             ",
"      % $ * ; > 1 0 9 p m R ! 5.=.V N G 9.F.<X<X=Xo.U  .+...>.+.+.L +.+.+.-.s.V.[.'.W.'.[.[.Z.a.8.I.U.eXrX:X/.4.G x I ) k r 5 ,             ",
"      + + * ; > 1 8 9 9 k Y ! ;.*.H l G :.L.<X,X=X>.V E p.o.9.q.f.*. .r.h.A.Z.A.h.a.B.OXOX].V.S.=XU.qXsX0X/.~.=.V ( :.>.x t < #             ",
"    O . + % ; 1 > 3 6 4 h Q W ;.*.J l x O.L.I.I.:Xw.c P 1.q.x._.+XZ.t.t.A.dXZ.s.i.s.V.@X#X{.(.=XqX9XrXwX/.`.Y._ L 3.Y.| y 5 = @             ",
"      . O $ ; > ; 3 3 4 s Q W -.=.P N x _ G.I.I.0X~.) ( >.b.~./. XB. .W  .r.E.!.a.a.a.].6X-XI.=X9XtXqX*X+X!.@.X.g.T.-.h w 2 #               ",
"      X . O & , ; ; q 9 r A F %.2.+.C k V F.I.I.wX=X8.) 4.R.+X-X*X|.7.) ) +.3.N.).{.+X6X-XJ.|..X9X;X=X2X@Xr.( >.z.0.N e w : @               ",
"        . O $ , & ; 1 7 7 m F ! 5.5.{ k u m.;XI.qX<X~.z.8.j.`.4X>XiX>X/.F.F.~.-XuXuX6X|.D.oXXX;X=X=X6XfXd.` @.9.0.P t e 5 # O               ",
"        . . $ % % & ; 6 6 d F ~ -.=.| N y =.<XI.;XwX=X_.q.:.,.~.:XpXaXxXzXpX7XiXiX:X|.oX}.XX|.=X*X6XgXZ. .1.q.0.P u t 7 - #                 ",
"          . + % $ * ; 1 3 r D ~ %.| | J g ' |.;X;XqX<X*X^.8.6.z./.*X>XpXlXzXuX5XXX}.}.XX>X:X:X4XjXkX].#.1.R.g.` x y t < # @                 ",
"            + $ $ % & ; 3 7 k F ~ { ' P k J Q.1X9X9X9X=X4XT.R.c./.>X:XyXuXcXcXjX#X5XyXiXiX>X5XgXkX].-.3.R.q.@.L n t 4 , @                   ",
"              + O $ % , 1 7 s M ^ W ` ` x V ] |.0XtXqX9X:X5X).`.2X6X:X:XyXpXpXpX>X:X*X%X_.).{.].d.1.Y.T.q.<.' V t 4 - # @                   ",
"              o . O $ & ; 6 s f F ~ E [ C V V 2. X0XrXeXqX1X4X6X6X6X X/.~.~.~. X X-X XT.N.B.V.a.q.R.Y.7.o.J u w 4 < % @                     ",
"                . . + % & : 4 a M ^ W ` T J x J g.}.yXaXrXwX7XuXlXjX+X).E.3.1.a.a.f.W.].].].(.T.z.0.X.L k t w 7 1 , # @                     ",
"                . . O $ % & : 7 f M W { [ T C k ] C.C.5XaXsXrXiXzXnXxXkXkX#X].].].].{.).).T.z.7.:.) b u t r 7 1 , % @                       ",
"                  . . + $ % & < 9 f F %.| ` K k C -.s.C.}.yXrXrXwXpXpX2X2X+X).(.R.b.z.q.8.8.8.6.:.) I k s 7 4 : % @                         ",
"                    o o + $ $ & 3 a m ! %.P T C k V ] *.y.C.}.0XtXeXqX;XL.F.c.v.v.x.F.x.v.6.:.) L G V m s 7 < & @                           ",
"                        o + $ $ & 4 a A W R K K m k N K T %.y.C.}.XX9X9XU.U.I.I.L.G.L.v.:...P Z N k d a r < , @                             ",
"                            . O $ , 4 d m Q H K C k g g l C P %.y.C.}.}.Q.D.M.m.w.0.w.5.| E Y A m d a 4 : % @                               ",
"                                + $ , 4 a d A Z N N h s r g l x C T -.s.C.s.u.u.%.%.%.y.y.%.S m d 7 < & # @                                 ",
"                                    @ % < 4 a m N h h s w r t g t g N V J ` Y Z Z K Y Y Z k g e 2 - % @ @ O                                 ",
"                                        # & : 7 d d r t r 7 w t t t t g h k k y t t y w 2 < : , # @ @ @ O                                   ",
"                                            @ % < 4 7 7 r w 7 w s s t t s t r w 7 7 4 3 < & % @ @ @ O                                       ",
"                                              @ @ % , < 3 4 4 7 a a r w 7 4 4 3 3 : , , & # @ @ @                                           ",
"                                                  @ @ @ % , - : < < 1 < < : , , % % % % % # @ @                                             ",
"                                                            @ % % $ # # # # % # $ # # @ @ @                                                 ",
"                                                                                                                                            ",
"                                                                                                                                            ",
"                                                                                                                                            ",
"                                                                                                                                            ",
"                                                                                                                                            ",
"                                                                                                                                            ",
"                                                                                                                                            "
};
