/* XPM */
static char *result[] = {
/* columns rows colors chars-per-pixel */
"80 80 245 2 ",
"   c #0B0A0C",
".  c #060809",
"X  c #110C0E",
"o  c #0D0E12",
"O  c #070C11",
"+  c #110E12",
"@  c #0D1215",
"#  c #0E141A",
"$  c #121216",
"%  c #13151B",
"&  c #12181E",
"*  c #1A151B",
"=  c #0E1824",
"-  c #141B23",
";  c #1A1B25",
":  c #151E2A",
">  c #1A1F29",
",  c #151721",
"<  c #16212C",
"1  c #1A222D",
"2  c #162333",
"3  c #1B2533",
"4  c #1C2836",
"5  c #1C2739",
"6  c #1D2B3C",
"7  c #16263B",
"8  c #1F303F",
"9  c #222B3C",
"0  c #212634",
"q  c #21222E",
"w  c #1D2D43",
"e  c #1C2E49",
"r  c #172C43",
"t  c #1E3145",
"y  c #1E324B",
"u  c #1E3553",
"i  c #1E3859",
"p  c #222E42",
"a  c #222F48",
"s  c #233245",
"d  c #22344C",
"f  c #28384B",
"g  c #223652",
"h  c #233A54",
"j  c #2A3A55",
"k  c #233B5B",
"l  c #293D5C",
"z  c #253755",
"x  c #303F4D",
"c  c #1F3C64",
"v  c #233D63",
"b  c #223D6A",
"n  c #2F3D67",
"m  c #2B435D",
"M  c #284157",
"N  c #364959",
"B  c #254164",
"V  c #2B4465",
"C  c #25436B",
"Z  c #2A456B",
"A  c #2B4A6D",
"S  c #2B4A66",
"D  c #324A69",
"F  c #244474",
"G  c #2A4575",
"H  c #2B4B74",
"J  c #25457A",
"K  c #264B7C",
"L  c #2B4C7B",
"P  c #274776",
"I  c #334C78",
"U  c #2D527C",
"Y  c #2E5475",
"T  c #33547B",
"R  c #385877",
"E  c #34546B",
"W  c #3A627E",
"Q  c #435869",
"!  c #425D74",
"~  c #445A6C",
"^  c #264B82",
"/  c #2B4D83",
"(  c #254987",
")  c #2C5383",
"_  c #2C548B",
"`  c #2D5A8C",
"'  c #295487",
"]  c #325485",
"[  c #325B83",
"{  c #315A8C",
"}  c #395889",
"|  c #274D94",
" . c #2C5593",
".. c #2E5C94",
"X. c #2C5B9A",
"o. c #285399",
"O. c #335C94",
"+. c #355C9B",
"@. c #395B97",
"#. c #314C86",
"$. c #3B658A",
"%. c #2F6199",
"&. c #336295",
"*. c #33649C",
"=. c #3A679A",
"-. c #39769A",
";. c #2E6087",
":. c #2D5CAA",
">. c #2A58A3",
",. c #355DA6",
"<. c #2B5DB1",
"1. c #2D65A7",
"2. c #3364A4",
"3. c #3B64A2",
"4. c #346BA4",
"5. c #376AAA",
"6. c #3777A9",
"7. c #2D68B4",
"8. c #336BB4",
"9. c #336CBC",
"0. c #3868B7",
"q. c #3473B3",
"w. c #3D74BB",
"e. c #3877B7",
"r. c #2E70A5",
"t. c #415D90",
"y. c #466898",
"u. c #457499",
"i. c #506C92",
"p. c #426CA4",
"a. c #456CA8",
"s. c #4976A9",
"d. c #557BAA",
"f. c #4373B3",
"g. c #457BBC",
"h. c #487AB5",
"j. c #527DB5",
"k. c #406FB0",
"l. c #336CC2",
"z. c #3978C4",
"x. c #367CD5",
"c. c #2E70C7",
"v. c #437BC6",
"b. c #3B86A9",
"n. c #3886BA",
"m. c #3992BE",
"M. c #35819F",
"N. c #4487A7",
"B. c #4B84BA",
"V. c #5484BC",
"C. c #5886B7",
"Z. c #5191B3",
"A. c #668CB8",
"S. c #6E8FB8",
"D. c #43809B",
"F. c #3887C6",
"G. c #3997C7",
"H. c #3787D8",
"J. c #3A96D7",
"K. c #3BA6CE",
"L. c #3CABD8",
"P. c #3EB6DC",
"I. c #3A8DE3",
"U. c #3A96E6",
"Y. c #3BA7E8",
"T. c #3DB4E6",
"R. c #3FB1F0",
"E. c #4484CB",
"W. c #4888C9",
"Q. c #5589C3",
"!. c #4497C8",
"~. c #5893C9",
"^. c #438BD4",
"/. c #4689D5",
"(. c #4996D9",
"). c #549BDB",
"_. c #5798D6",
"`. c #508ED0",
"'. c #6796C7",
"]. c #739AC7",
"[. c #659AD3",
"{. c #608FC1",
"}. c #59A6CB",
"|. c #46A9D9",
" X c #5CA2DC",
".X c #56A9D8",
"XX c #46B8DB",
"oX c #55B3D9",
"OX c #45A8CD",
"+X c #63A5CA",
"@X c #76A1CE",
"#X c #69A6DA",
"$X c #77A8D8",
"%X c #70B6DC",
"&X c #479BE4",
"*X c #589CE5",
"=X c #47A8E8",
"-X c #57A8E5",
";X c #43B4ED",
":X c #48B9E7",
">X c #53B3EA",
",X c #58BAEA",
"<X c #47ADF2",
"1X c #4BBCF2",
"2X c #47BAF1",
"3X c #57B8F1",
"4X c #66ACE3",
"5X c #74ACE3",
"6X c #6BBCED",
"7X c #66B7E9",
"8X c #78B7E7",
"9X c #69BDF2",
"0X c #3DC6E8",
"qX c #47C6EC",
"wX c #5AC6EC",
"eX c #48C7F2",
"rX c #56C7F3",
"tX c #4AD4F1",
"yX c #56D6F2",
"uX c #4ED4EE",
"iX c #63C3EC",
"pX c #6BC4EB",
"aX c #78C5EB",
"sX c #69C5F2",
"dX c #77CAF2",
"fX c #77D4F3",
"gX c #67D7F3",
"hX c #5AE1F3",
"jX c #6AE3F3",
"kX c #6BC1DF",
"lX c #89B1D7",
"zX c #86B9E5",
"xX c #96BDE5",
"cX c #88C6EA",
"vX c #98CAED",
"bX c #86CBF1",
"nX c #9BD6F4",
"mX c #90D2F1",
"MX c #A8DBF5",
"NX c #A8CDED",
"BX c #ABE5F7",
"VX c #B8E9F8",
"CX c #9EE0F5",
"ZX c #C4F0FA",
"AX c None",
/* pixels */
"AXAXAXAXAXAXAXAXAXAXAXAXAXAXAXAXAXAXAXAXAXAXAXAXAXAXAXAXAXAXAXAXAXAXAXAXAXAXAXAXAXAXAXAXAXAXAXAXAXAXAXAXAXAXAXAXAXAXAXAXAXAXAXAXAXAXAXAXAXAXAXAXAXAXAXAXAXAXAXAX",
"AXAXAXAXAXAXAXAXAXAXAXAXAXAXAXAXAXAXAXAXAXAXAXAXAXAXAXAXAXAXAXAXAXAXAXAXAXAXAXAXAXAXAXAXAXAXAXAXAXAXAXAXAXAXAXAXAXAXAXAXAXAXAXAXAXAXAXAXAXAXAXAXAXAXAXAXAXAXAXAX",
"AXAXAXAXAXAXAXAXAXAXAXAXAXAXAXAXAXAXAXAXAXAXAXAXAXAXAXAXAXAXAXAXAXAXAXAXAXAXAXAXAXAXAXAXAXAXAXAXAXAXAXAXAXAXAXAXAXAXAXAXAXAXAXAXAXAXAXAXAXAXAXAXAXAXAXAXAXAXAXAX",
"AXAXAXAXAXAXAXAXAXAXAXAXAXAXAXAXAXAXAXAXAXAXAXAXAXAXAXAXAXAXAXAXAXAXAXAXAXAXAXAXAXAXAXAXAXAXAXAXAXAXAXAXAXAXAXAXAXAXAXAXAXAXAXAXAXAXAXAXAXAXAXAXAXAXAXAXAXAXAXAX",
"AXAXAXAXAXAXAXAXAXAXAXAXAXAXAXAXAXAXAXAXAXAXAXAXAXAXAXAXAXAXAXAXAXAXAXAXAXAXAXAXAXAXAXAXAXAXAXAXAXAXAXAXAXAXAXAXAXAXAXAXAXAXAXAXAXAXAXAXAXAXAXAXAXAXAXAXAXAXAXAX",
"AXAXAXAXAXAXAXAXAXAXAXAXAXAXAXAXAXAXAXAXAXAXAXAXAXAXAXAXAXAXAXAXAXAXAXAXAXAXAXAXAXAXAXAXAXAXAXAXAXAXAXAXAXAXAXAXAXAXAXAXAXAXAXAXAXAXAXAXAXAXAXAXAXAXAXAXAXAXAXAX",
"AXAXAXAXAXAXAXAXAXAXAXAXAXAXAXAXAXAXAXAXAXAXAXAXAXAXAXAXAXAXAXAXAXAXAXAXAXAXAXAXAXAXAXAXAXAXAXAXAXAXAXAXAXAXAXAXAXAXAXAXAXAXAXAXAXAXAXAXAXAXAXAXAXAXAXAXAXAXAXAX",
"AXAXAXAXAXAXAXAXAXAXAXAXAXAXAXAXAXAXAXAXAXAXAXAXAXAXAXAXAXAXAXAXAXAXAXAXAXAXAXAXAXAXAXAXAXAXAXAXAXAXAXAXAXAXAXAXAXAXAXAXAXAXAXAXAXAXAXAXAXAXAXAXAXAXAXAXAXAXAXAX",
"AXAXAXAXAXAXAXAXAXAXAXAXAXAXAXAXAXAXAXAXAXAXAXAXAXAXAXAXAXAXAXAXAXAXq q 1 1 0 0 3 > q 5 3 0 > > AXAXAXAXAXAXAXAXAXAXAXAXAXAXAXAXAXAXAXAXAXAXAXAXAXAXAXAXAXAXAXAX",
"AXAXAXAXAXAXAXAXAXAXAXAXAXAXAXAXAXAXAXAXAXAXAXAXAXAXAXAX; > > > 0 0 q 5 6 6 p 5 6 5 1 3 3 w p 5 0 q q AXAXAXAXAXAXAXAXAXAXAXAXAXAXAXAXAXAXAXAXAXAXAXAXAXAXAXAXAX",
"AXAXAXAXAXAXAXAXAXAXAXAXAXAXAXAXAXAXAXAXAXAXAXAX& ; ; : > q > 3 0 p p 9 9 p p p 9 9 5 3 1 3 9 p p 9 9 9 q ; AXAXAXAXAXAXAXAXAXAXAXAXAXAXAXAXAXAXAXAXAXAXAXAXAXAX",
"AXAXAXAXAXAXAXAXAXAXAXAXAXAXAXAXAXAXAXAXAX% % & ; ; 1 0 9 9 9 9 9 p z l j l j j j j a 9 5 1 1 q 9 9 9 9 f 9 q ; AXAXAXAXAXAXAXAXAXAXAXAXAXAXAXAXAXAXAXAXAXAXAXAX",
"AXAXAXAXAXAXAXAXAXAXAXAXAXAXAXAXAXAXAX$ % & , ; > 3 4 9 s d z f f d f l Z V A V n m l d 9 9 9 9 9 9 6 9 p a d 9 q * % AXAXAXAXAXAXAXAXAXAXAXAXAXAXAXAXAXAXAXAXAX",
"AXAXAXAXAXAXAXAXAXAXAXAXAXAXAXAXAX@ # % * ; > 1 0 9 9 s s f l l l l l m V A D I t.R V l z p p p p 5 5 6 9 p f p p q , $ $ AXAXAXAXAXAXAXAXAXAXAXAXAXAXAXAXAXAXAX",
"AXAXAXAXAXAXAXAXAXAXAXAXAXAXAXAX$ $ & : > 5 p w p z j k k k l C G H L Y A A T T t.s.=.D m j j j p 6 w 5 p p f a p 6 3 ; * + AXAXAXAXAXAXAXAXAXAXAXAXAXAXAXAXAXAX",
"AXAXAXAXAXAXAXAXAXAXAXAXAXAXAX$ % & : 3 w g k V A L ] O...&.` ` O.%.*.5.&.] T H I } =.$.R D n l g p w e p a j d p p p q ; * + AXAXAXAXAXAXAXAXAXAXAXAXAXAXAXAXAX",
"AXAXAXAXAXAXAXAXAXAXAXAXAXAXAX% - : 5 w g h B L ` ..4.q.n.G.n.m.m.m.m.m.!.m.n.4.{ L ] { } R E I A f 9 w e e k z z f s 0 1 ; $ $ $ AXAXAXAXAXAXAXAXAXAXAXAXAXAXAX",
"AXAXAXAXAXAXAXAXAXAXAXAXAX% & - 2 6 w g l G ) ..2.5.q.F.(.|.=X:X:X:XqX:XXXL.K.OXG.n.*._ ) L I R @.I j d g t z A V m f 0 q ; ; $ $ + AXAXAXAXAXAXAXAXAXAXAXAXAXAX",
"AXAXAXAXAXAXAXAXAXAXAXAX% = : 3 5 s B U O.*.*.6.n.F.J.Y.;X:X:X;XqXiXiXiXwXwX:XXXXXL.K.n.2._ G H } t.D j h z d C T n M 9 3 1 1 , + + + AXAXAXAXAXAXAXAXAXAXAXAXAX",
"AXAXAXAXAXAXAXAXAXAXAX% - : 3 4 w C *.6.q.!.K.|.1XrXrX>X:X>X7X7X7X6XpXaXdXaXbXaXiXXXXXXXL.e. .L L { ] D l k a z L H D j 5 1 5 1 % $ + +   AXAXAXAXAXAXAXAXAXAXAX",
"AXAXAXAXAXAXAXAXAXAX% = : < 2 7 B &.e.n.F.J.Y.=X<X>X3X7X8X4X4X[._._.).).*X7X9X9XaXaX7XXXXXXXn.X.L ) ) T D B u t v ) ) A p 3 5 3 ; % $ o     AXAXAXAXAXAXAXAXAXAX",
"AXAXAXAXAXAXAXAXAX# - : < < w Z 4.e.F.F.H.J.U.=X=X(.W.g.a.3.,.t.} } t.p.j.lX X4X7X6XaXbXwX:XXXG.%./ _ L T A B t g A ` ` k 9 5 3 1 & % +       AXAXAXAXAXAXAXAXAX",
"AXAXAXAXAXAXAXAX# , - - : 3 i ` q.G.J.^.U.&X=X(.v.+.#.K b #.t.i.i.d.i.i.i.d.S.].zX8XdXbXmXwX:XXXJ.r.X.' H T G k d B U %.L d 6 2 2 : & $ @   O . AXAXAXAXAXAXAXAX",
"AXAXAXAXAXAXAXAX% % % - > u ) 5.F.J.&X6X-X&Xv.+.#.n n n ~ t.d.v.h.Q.~.j.a.3.y.p.d.'.zXmXCXBXpX1XP.L.n.1.H I ] C y i H X.` k w w 4 4 : & @ o   . . AXAXAXAXAXAXAX",
"AXAXAXAXAXAXAX% $ $ = : t ) q.F.z.*X*X(.v.3.G G #.n #.y.v.`.v.x.v.x.(.(.v.v.x.v.k.a.g.[.vXVXBXbXXXP.:X^._ H Y L k i A ` ` A i t 6 7 7 & @ O O O . . AXAXAXAXAXAX",
"AXAXAXAXAXAX% $ # $ - u ` q.q.l./.).v.0.( b F K G } f.&X<XU.&Xx.x.c.l.x.c.c.l.l.l.l.0.v._.xXVXVXdX:XqXqXn.L H T C h S ' ' K S k 8 t 6 < # @ @ O O . AXAXAXAXAXAX",
"AXAXAXAXAXAX$ # % & w K q.7.9.v.v.0.,.K k v C J :./.-X3X<X&Xx.x.l.<.<.0.0.5.<.0.0.v.v.v.v.).8XVXVXfXeXT.Y.2.K T ) B F ` ' K ' K y t 8 < - @ @ O . . AXAXAXAXAXAX",
"AXAXAXAXAXAXo $ $ : k X.8.9.z.0.,.+.b g y b &.F.J.3XgXsX<X&Xx.l.<.>.o.o.8.z.0.<.<.l._.).v.*X*XbXVXVXfXR.U.F._ / &.U K &.;.Y ' %.u t 6 < - # @ O   O AXAXAXAXAXAX",
"AXAXAXAXAX+ + $ & d X.9.q.z.0.5.#.n w e v { n.F.|.tXrX<XI.x.l.>.o.+.+.=.f.Q.~.W.0.:.z. XW.g.`.4XMXZXVXrXU.I.1.K &.&.%.5.%.' ' %.c y 8 4 < & @ @ o   AXAXAXAXAXAX",
"AXAXAXAXAX@ + $ 5 K :.>.<.,.+.L z w w z L *.6.G.F.J.=XU.x.l.,.a.'.lX$X#X[.~.[.$X#Xf.:.W._.k.Q.`.8XBXZXmX&X&X7.^ ) ^ X.6.%.` ` ' F i 7 4 < - # @ @ O AXAXAXAXAXAX",
"AXAXAXAXAX+ + - g | | | |  .G z p e u C O.4.6.r.r.z.H.x./.Q.lXlXlX@X#X#X X`.`._.#X5X~.v.`.`.Q.#X#XnXZXVX9X&Xz.P A L ^ q.r.r.%.' ' i 6 4 4 - # # @ @ AXAXAXAXAXAX",
"AXAXAXAXAX+ $ 2 b b b b J P k s a z v #.4.-.-.M.6.7.7.8.Q.].A.A.C.Q.B.~._.W.E./.(.6X8X#X`..X`.[.zXMXVXVXmX-X(.^ B H ^ q.q.n.r.' ' u 8 4 4 < - # @ @ @ AXAXAXAXAX",
"AXAXAXAXAX+ * r c z g v F l t p z k H =.-.-.b.e.1.| ^ t.C.j.j.{.'._._.~.f.3.q.e.e.`..X#X8X#X4X%XNXNXVXMXNX5X4X>.n G L 4.q.n.r.` K i t 6 6 4 - # # @ # AXAXAXAXAX",
"AXAXAXAXAX+ , e c a d b C d t g B ' -.b.-.6.b.<.J c #.s.C.Q.@X5X[._.[.'.'.{.+XC.&.O.w./.8XbXcXcXzXvXNXMXMX9X*X,.k Z P 1.r.G.6.` K u t 6 6 4 - & # & = AXAXAXAXAX",
"AXAXAXAXAX, 7 c u a k b z a t k L &.6.b.b.b.>.b c G Q.[.`.$X8X4X/.].S.d.h.V.B.C.@Xs.3.e..XmXMXcX%XlXNXMXNX8Xv.,.k Z K 5.q.K.n.%.K u d y 8 2 < # = : = AXAXAXAXAX",
"AXAXAXAXAX2 v i p w z k f d z l U [ -.m.b.r.J c b p.Q.-X4XdX8X$X].d.t.] [ U Z A } V.f.5.W.aXmXzX~.[.xXvXNXxXv.,.v Z K q.F.K.n.%.F k k u 4 2 - & - = # AXAXAXAXAX",
"AXAXAXAXAXe u 3 1 5 a j f s z n U [ 6.D.-.( c v ) 3.W.4XdXaXcXxXd.$.Z u w e u B I p.3.,.W.zXNXcX`.B.$XzXvX5X0.t.B F ' F.K.K.G.r.F c B t 4 < < = < = AXAXAXAXAXAX",
"AXAXAXAX= 7 3 > 3 9 a a p w d A Y ;.-.D...J c ^ +.5./.9XsX6X5X'.y.v t e d g t z V [ p.,.v.$XVXzX~.h.[.zXxX[.,.,.H K o.n.K.K.K.r.F L B 6 7 4 < < 7 7 AXAXAXAXAXAX",
"AXAXAXAX: 2 , 1 q p a p s p z D E ;.D.-.^ C K ..f.E.>XsX3X4XV.a.C e t e y : O : v ) 5.+.w.~.xX[.e.s.[.zX5Xv.a.@.' ` o.e.K.G.K.7.^ K u 8 6 6 7 7 r 7 AXAXAXAXAXAX",
"AXAXAXAX1 , , > 0 p p a s 9 z Y Y -.N.&.J F &.h._.&X3X<X9X#Xd.y.z z u y y = . @ g Z O.,.f.~.$Xj.@.f.[.8X[.h.@.t.` %.1.m.m.m.L.c.' B t 8 t u t t r = AXAXAXAXAXAX",
"AXAXAXAX: % , 3 4 4 0 p s 9 l Y ;.N.N.&.H F O.N.).U.1X<XdX~.i.} i k y s h t - 2 d C 2.w.v.'.].p. .g.4X5X[.f.@.3.) 1.H.G.m.K.T.F.F B t t k C y 7 7 = AXAXAXAXAXAX",
"AXAXAXAX; ; , > 0 3 0 5 9 9 V Y $.-.6.` C K ^ g.H.Y.1X3X6Xs.i.L c b h k h h h y h m ..W.B.~.C.] @.Q.8X5X[.g.k.3.( z.1XT.P.0XY.>.F l y u c B e 7 2 & AXAXAXAXAXAX",
"AXAXAX; , * , : q q q 0 9 p D [ $.-.-._ C K P W.x.R.rX2X-X} R b F F v B h s d g l b ) =.s.'.s.@.f.[.cX8X#XQ.s.+.o.U.qXR.qXeXH.o.P k u k B i 6 2 : AXAXAXAXAXAXAX",
"AXAXAX- % $ * ; 1 q 0 9 s s V [ W -.b.) C C K v.x.;XeX<X/.} D b / / / G k k g k v Z G T y.].C.V.~.$X#X@X'.s.=.o.c.;X;XeXtXeXx.>.K k u v C y 6 2 - AXAXAXAXAXAXAX",
"AXAXAX% $ + * > : 1 3 9 8 s A U R -.6.L V B ^ 9.H.R.eX;X/.#.! /  ._ ,. ./ G C ) K P A T y.'.].'.~.`.'.].S.d.p.>.J.R.2XtXtX,X(.:.G k v b K t 6 2 = AXAXAXAXAXAXAX",
"AXAXAX% + % * ; > ; 0 0 9 t S Y W -.6.U B v J 0.H.2X2X=X^.J I #.*.| :.,.3.O.I O.y.5.i.C.C.S.].C.Q.'.lX].S.C.5.x.Y.R.tXyXyX&X^.2.J v ^ | K u y 7 = AXAXAXAXAXAXAX",
"AXAXAX+ X $ * ; > 1 1 9 4 8 m Y ! -.4.) B m J :.U.R.R.R.(.( n U s.+.7.z.g.h.&.} y.C.S.S.].A.p.p.V.].].].~.V.H.2XR.qXhXgX&X).W...C K ,.9.) h 7 : # AXAXAXAXAXAXAX",
"AXAXAX  X + * > 1 1 q 0 4 9 M E R y.=./ C k b o.I.Y.Y.<X-XX.b T +.g.l./.#X@XS.i.y.S.].S.d.=.p.h.Q.$XlX[.[.(.2XeXqXtXyX=X(._.e.K F 2.W.6.B e 2 & @ AXAXAXAXAXAXAX",
"AXAXAX    + $ ; ; ; q 3 3 5 h E ! $.-.) A k c ( I.Y.Y.;X3Xc.J #.,.f././..X_.V.} R } y.h.+XV.s.p.a.Q.5X5X&XY.;XqXuXuX;X).#XQ.+. .h.`.B.P y 7 < # AXAXAXAXAXAXAXAX",
"AXAXAX.   o + & : ; ; q 0 9 y S ~ W 6.O.U B i F J.Y.Y.2XrX^.:.( 3.v./.-X(.&XG.X.^ ( #.3.h.V.~.~.~.8X8X=XT.|.XXqX:X;X*X5X[.} / ,.z.F.) y e 7 = @ AXAXAXAXAXAXAXAX",
"AXAXAXAX.   + * , , ; ; 3 6 t m E ! 6.6.*.Z i B n.;XL.T.rX=XE.:.0.g.[.8X-X>X9X(.z.9.9.z.E. XaXcXbX7XJ.G.OXoXwX:X;X-X8X$Xy.L  .5.e.*.i y e 2 # @ AXAXAXAXAXAXAXAX",
"AXAXAXAXAX  + $ & & & ; 1 4 6 M E ! u.6.3.U i i 4.2XY.T.yX<X&X(.9.1.0.H.-XsXfXdXdX7X-X>X>XsXfXsX=X!.OXoXoX|.L.=X-XzXlXd.#.@.0.w.%.b u t 7 < @ AXAXAXAXAXAXAXAXAX",
"AXAXAXAXAX  + $ % $ * ; 1 0 4 d N ! t.$...] k u ' =X:X;XqXeX&X-Xv.9.>.l.(.>XiXfXnXMXnXfXwX,XoX|.}.}..XoX|.=X=X-XcXxXC.] 3.g.v.&.F u y r < % @ AXAXAXAXAXAXAXAXAX",
"AXAXAXAXAXAXX + $ $ * * ; 1 5 t m R ! $.{ ` C h K G.:X:XqXqX;X&X).v.z.9.H.(.=X>X9X9XdXbXcX%X+X+X+XoXiXwXwX6X8XnXvXA.O.3.v.W.4.L c i y 7 & @ AXAXAXAXAXAXAXAXAXAX",
"AXAXAXAXAXAXAX+ $ $ $ % ; : 3 6 g N Q R ] _ L h C 6.,XqXqXqXqX<X7X_.E./.^.-X,X>X7XfXmXmXmXcXkX7XsX9XwX7X-X7XzXlXC.+.5.W.E.5. .K c y 6 : # @ AXAXAXAXAXAXAXAXAXAX",
"AXAXAXAXAXAXAXAXX X $ $ % : 3 6 s N Q ! T ) ) k C ^ m.,XwXuX0XeX3X9X[._.#X8X6X=X>X7XfXpXdXpX,X-X=X.X(.).[.[.S.s.3.v.`.F.5.>.' b e 4 < & @ AXAXAXAXAXAXAXAXAXAXAX",
"AXAXAXAXAXAXAXAXX X + $ % * 1 4 s f N ~ W Y ` C C C O.!.7XiXyXqX2X3X7X5X4X8X8X X(.^.(./..X-X*X-X#X`.B.V.C.V.3.w.W.`.9.4...F u r 6 < - # @ AXAXAXAXAXAXAXAXAXAXAX",
"AXAXAXAXAXAXAXAXAX    + $ % & 1 4 8 N N ! T ] H H B C 4.!.oXgXjXtXrX3X6XbXcX8X X_.Q.5.5.5.g.h.Q.~.~.Q.~.~.~.W.F.z.2.' F u t e 6 1 - & @ @ AXAXAXAXAXAXAXAXAXAXAX",
"AXAXAXAXAXAXAXAXAX      $ * % ; 1 8 9 N Q $.U ) K Z i U N.~.#XgXjXhXyXpXdXBXMXcXzX8X#Xj.j.j.C.C.'.#X%X#X_.W.8.:. .J c i t 6 6 2 : & & @ AXAXAXAXAXAXAXAXAXAXAXAX",
"AXAXAXAXAXAXAXAXAXAX    X $ $ % ; 1 9 M N ! { ` ) H i m &.B.N.Z.6XfXhXyXrXdXnXmXvXvXvXzX8X$X#X_.`.v.z.9.8.8.7.o.( J c u s 8 4 < & # @ AXAXAXAXAXAXAXAXAXAXAXAXAX",
"AXAXAXAXAXAXAXAXAXAXAXX X X $ $ * & 4 8 N E $.;.U Y C i C &.=.u.Z.}.wXyXtXqXwX3X&X&XE.x.c.9.c.7.9.l.l.c.c.9.1.| ( K B h t 4 3 - # @ AXAXAXAXAXAXAXAXAXAXAXAXAXAX",
"AXAXAXAXAXAXAXAXAXAXAXAXAXX X $ $ $ - 9 8 m $.$.U H H m k C ) { $.u.Z.}.wXuXtXtXeXT.U.H.H.H.x.H.J.x.c.7.>.| J C B B M M t 4 < # @ AXAXAXAXAXAXAXAXAXAXAXAXAXAXAX",
"AXAXAXAXAXAXAXAXAXAXAXAXAXAXX X @ @ $ < 9 f S E T C H C k h m C A T $.d.Z.}.oXXXXXT.P.P.T.J.J.J.J.z.>.o.' Y S M M y t 8 2 < # @ AXAXAXAXAXAXAXAXAXAXAXAXAXAXAXAX",
"AXAXAXAXAXAXAXAXAXAXAXAXAXAXAXAXX X X @ ; 9 h M E Y P A C h u u l V A Y y.u.Z.+X}.!.G.m.m.n.q.q.q.6.&.' Y S m M M t 4 < # # @ AXAXAXAXAXAXAXAXAXAXAXAXAXAXAXAXAX",
"AXAXAXAXAXAXAXAXAXAXAXAXAXAXAXAXAXAX+ + $ : 6 s M M E B B B u t t h k m B P [ $.N.C.N.u.u.t.W $.$.u.u.-.R S M M 8 < < # @ @ AXAXAXAXAXAXAXAXAXAXAXAXAXAXAXAXAXAX",
"AXAXAXAXAXAXAXAXAXAXAXAXAXAXAXAXAXAXAXAXo # - 3 8 t M S i M M y t t y u u u M C F U &.R Y R R R R R R Y m h t 2 < = @ @ @ AXAXAXAXAXAXAXAXAXAXAXAXAXAXAXAXAXAXAX",
"AXAXAXAXAXAXAXAXAXAXAXAXAXAXAXAXAXAXAXAXAXAX@ & - < 8 M M y t y t 8 t t t y d u k i k b k i u i c u 7 2 2 2 - & @ @ @ @ AXAXAXAXAXAXAXAXAXAXAXAXAXAXAXAXAXAXAXAX",
"AXAXAXAXAXAXAXAXAXAXAXAXAXAXAXAXAXAXAXAXAXAXAXAX@ # - 4 8 t t t t 6 6 8 t u y t y h g y y t t t t 6 2 < & & @ @ @ @ @ AXAXAXAXAXAXAXAXAXAXAXAXAXAXAXAXAXAXAXAXAX",
"AXAXAXAXAXAXAXAXAXAXAXAXAXAXAXAXAXAXAXAXAXAXAXAXAXAX@ # & < 4 4 8 8 6 8 t d s t t d 6 6 r 6 2 < 2 < < & # @ @ @ @ o AXAXAXAXAXAXAXAXAXAXAXAXAXAXAXAXAXAXAXAXAXAX",
"AXAXAXAXAXAXAXAXAXAXAXAXAXAXAXAXAXAXAXAXAXAXAXAXAXAXAX@ @ @ # - < 1 2 4 6 t 8 8 8 4 4 < < < < < & # # @ @ @ @ O AXAXAXAXAXAXAXAXAXAXAXAXAXAXAXAXAXAXAXAXAXAXAXAX",
"AXAXAXAXAXAXAXAXAXAXAXAXAXAXAXAXAXAXAXAXAXAXAXAXAXAXAXAXAX@ @ @ # # - - & < < - < < - - - & & $ # $ & @ @ @ AXAXAXAXAXAXAXAXAXAXAXAXAXAXAXAXAXAXAXAXAXAXAXAXAXAX",
"AXAXAXAXAXAXAXAXAXAXAXAXAXAXAXAXAXAXAXAXAXAXAXAXAXAXAXAXAXAXAXAXAXAXAX$ @ @ # # @ @ @ @ @ # @ $ @ # @ @ AXAXAXAXAXAXAXAXAXAXAXAXAXAXAXAXAXAXAXAXAXAXAXAXAXAXAXAX",
"AXAXAXAXAXAXAXAXAXAXAXAXAXAXAXAXAXAXAXAXAXAXAXAXAXAXAXAXAXAXAXAXAXAXAXAXAXAXAXAXAXAXAXAXAXAXAXAXAXAXAXAXAXAXAXAXAXAXAXAXAXAXAXAXAXAXAXAXAXAXAXAXAXAXAXAXAXAXAXAX",
"AXAXAXAXAXAXAXAXAXAXAXAXAXAXAXAXAXAXAXAXAXAXAXAXAXAXAXAXAXAXAXAXAXAXAXAXAXAXAXAXAXAXAXAXAXAXAXAXAXAXAXAXAXAXAXAXAXAXAXAXAXAXAXAXAXAXAXAXAXAXAXAXAXAXAXAXAXAXAXAX",
"AXAXAXAXAXAXAXAXAXAXAXAXAXAXAXAXAXAXAXAXAXAXAXAXAXAXAXAXAXAXAXAXAXAXAXAXAXAXAXAXAXAXAXAXAXAXAXAXAXAXAXAXAXAXAXAXAXAXAXAXAXAXAXAXAXAXAXAXAXAXAXAXAXAXAXAXAXAXAXAX",
"AXAXAXAXAXAXAXAXAXAXAXAXAXAXAXAXAXAXAXAXAXAXAXAXAXAXAXAXAXAXAXAXAXAXAXAXAXAXAXAXAXAXAXAXAXAXAXAXAXAXAXAXAXAXAXAXAXAXAXAXAXAXAXAXAXAXAXAXAXAXAXAXAXAXAXAXAXAXAXAX",
"AXAXAXAXAXAXAXAXAXAXAXAXAXAXAXAXAXAXAXAXAXAXAXAXAXAXAXAXAXAXAXAXAXAXAXAXAXAXAXAXAXAXAXAXAXAXAXAXAXAXAXAXAXAXAXAXAXAXAXAXAXAXAXAXAXAXAXAXAXAXAXAXAXAXAXAXAXAXAXAX",
"AXAXAXAXAXAXAXAXAXAXAXAXAXAXAXAXAXAXAXAXAXAXAXAXAXAXAXAXAXAXAXAXAXAXAXAXAXAXAXAXAXAXAXAXAXAXAXAXAXAXAXAXAXAXAXAXAXAXAXAXAXAXAXAXAXAXAXAXAXAXAXAXAXAXAXAXAXAXAXAX",
"AXAXAXAXAXAXAXAXAXAXAXAXAXAXAXAXAXAXAXAXAXAXAXAXAXAXAXAXAXAXAXAXAXAXAXAXAXAXAXAXAXAXAXAXAXAXAXAXAXAXAXAXAXAXAXAXAXAXAXAXAXAXAXAXAXAXAXAXAXAXAXAXAXAXAXAXAXAXAXAX",
"AXAXAXAXAXAXAXAXAXAXAXAXAXAXAXAXAXAXAXAXAXAXAXAXAXAXAXAXAXAXAXAXAXAXAXAXAXAXAXAXAXAXAXAXAXAXAXAXAXAXAXAXAXAXAXAXAXAXAXAXAXAXAXAXAXAXAXAXAXAXAXAXAXAXAXAXAXAXAXAX"
};
