/* XPM */
static char *result[] = {
/* columns rows colors chars-per-pixel */
"80 80 248 2 ",
"   c #0E1112",
".  c #141214",
"X  c #191316",
"o  c #15161A",
"O  c #1A161B",
"+  c #16191D",
"@  c #1A191E",
"#  c #0E0C0E",
"$  c #171B22",
"%  c #1B1C24",
"&  c #1C1E2A",
"*  c #171925",
"=  c #1D1E31",
"-  c #211E2A",
";  c #231C24",
":  c #1D212C",
">  c #1B2227",
",  c #1E2432",
"<  c #1E2439",
"1  c #22212D",
"2  c #232434",
"3  c #23263B",
"4  c #242A3D",
"5  c #292A3D",
"6  c #252738",
"7  c #28303D",
"8  c #22181D",
"9  c #232642",
"0  c #252B43",
"q  c #2A2B44",
"w  c #262C4B",
"e  c #2A2D4B",
"r  c #26264B",
"t  c #2A324C",
"y  c #293247",
"u  c #2A2D53",
"i  c #2C2E5B",
"p  c #272C51",
"a  c #2B3253",
"s  c #2C3B53",
"d  c #2D335C",
"f  c #2E3C59",
"g  c #313253",
"h  c #32345B",
"j  c #333C5A",
"k  c #343C4D",
"l  c #2E2D64",
"z  c #322D6A",
"x  c #2E3463",
"c  c #2F3666",
"v  c #313564",
"b  c #333A64",
"n  c #32356C",
"m  c #333B6B",
"M  c #393D68",
"N  c #362D78",
"B  c #343473",
"V  c #353C71",
"C  c #36357A",
"Z  c #363B7B",
"A  c #3A3C7D",
"S  c #3A3678",
"D  c #433B79",
"F  c #36445B",
"G  c #354468",
"H  c #364374",
"J  c #3A4272",
"K  c #3B437B",
"L  c #3C4C7A",
"P  c #384878",
"I  c #3E567B",
"U  c #3E546A",
"Y  c #47556A",
"T  c #434879",
"R  c #445777",
"E  c #444F5F",
"W  c #392B85",
"Q  c #3A3482",
"!  c #3B3C84",
"~  c #3B338B",
"^  c #3A3C86",
"/  c #3E3996",
"(  c #3E2D95",
")  c #413C88",
"_  c #412C9B",
"`  c #453B9A",
"'  c #4729A8",
"]  c #4739A8",
"[  c #4A3AB5",
"{  c #5036B7",
"}  c #3B4384",
"|  c #3C4B84",
" . c #3D438C",
".. c #3D4B8C",
"X. c #374484",
"o. c #3B5385",
"O. c #3E4A92",
"+. c #3F4796",
"@. c #3F5396",
"#. c #3E6C97",
"$. c #3F5AA8",
"%. c #3D6AA4",
"&. c #3C79A3",
"*. c #444788",
"=. c #455988",
"-. c #424B95",
";. c #434499",
":. c #424D9B",
">. c #4B4B9C",
",. c #474795",
"<. c #425295",
"1. c #42539C",
"2. c #485797",
"3. c #555A99",
"4. c #525788",
"5. c #476899",
"6. c #4E6C99",
"7. c #62679D",
"8. c #444DA4",
"9. c #4B4CA3",
"0. c #4847A8",
"q. c #445CA4",
"w. c #4855A7",
"e. c #525AA9",
"r. c #4B48B7",
"t. c #5148B8",
"y. c #4A58B6",
"u. c #5358B7",
"i. c #5149A7",
"p. c #4667A9",
"a. c #5866AB",
"s. c #4575AA",
"d. c #5574A9",
"f. c #4966B6",
"g. c #5B6CB4",
"h. c #5867B9",
"j. c #4575B8",
"k. c #5A74B9",
"l. c #6475BA",
"z. c #6771AD",
"x. c #5036C6",
"c. c #4D49C3",
"v. c #5348C3",
"b. c #4E56C5",
"n. c #535CC2",
"m. c #5557C8",
"M. c #555AD8",
"N. c #5152D6",
"B. c #4C67C5",
"V. c #5668C8",
"C. c #4A77C6",
"Z. c #5D73C4",
"A. c #5A76CB",
"S. c #5A6DD3",
"D. c #5667D8",
"F. c #4E79D7",
"G. c #5B75D3",
"H. c #5C7CD4",
"J. c #5877DA",
"K. c #4E68D7",
"L. c #657BC6",
"P. c #647CD6",
"I. c #6B74D3",
"U. c #576AE7",
"Y. c #5777E6",
"T. c #527DE6",
"R. c #5659E3",
"E. c #4584BA",
"W. c #5184AF",
"Q. c #7485BB",
"!. c #6980BB",
"~. c #3AA6D5",
"^. c #4587C5",
"/. c #5A89C8",
"(. c #4999CF",
"). c #4C89D6",
"_. c #5D85DB",
"`. c #4599D5",
"'. c #579CD3",
"]. c #5D9CCB",
"[. c #6B85C8",
"{. c #7689C7",
"}. c #7892CD",
"|. c #6887D8",
" X c #738DDA",
".X c #6793DA",
"XX c #7696D8",
"oX c #6896C9",
"OX c #42A7D8",
"+X c #56A6D9",
"@X c #47B3DE",
"#X c #6AA8D9",
"$X c #5A89E7",
"%X c #4D99E7",
"&X c #5898E9",
"*X c #539CF3",
"=X c #5897F4",
"-X c #518AEE",
";X c #658BE4",
":X c #6796E7",
">X c #789AE4",
",X c #609BF3",
"<X c #4AA9E8",
"1X c #57A8EC",
"2X c #49B4E8",
"3X c #58B8EA",
"4X c #4DA6F4",
"5X c #53ABF4",
"6X c #57A5F4",
"7X c #4AB9F4",
"8X c #57B7F6",
"9X c #68A3EB",
"0X c #77A6EA",
"qX c #66B8EB",
"wX c #7AB8EB",
"eX c #67A9F3",
"rX c #71ABF2",
"tX c #69B5F3",
"yX c #77B8F4",
"uX c #3DD0F4",
"iX c #48C8F4",
"pX c #58C6F7",
"aX c #49D5F5",
"sX c #4DD0F2",
"dX c #79C5F6",
"fX c #67D0F6",
"gX c #51E1F8",
"hX c #67E2F7",
"jX c #829AD6",
"kX c #8897C2",
"lX c #829CE4",
"zX c #86A9E8",
"xX c #89B5EA",
"cX c #9AB6E7",
"vX c #88B9F1",
"bX c #95BDF2",
"nX c #92ACEA",
"mX c #9AB4E4",
"MX c #87C4F3",
"NX c #99C6F3",
"BX c #9AD6F9",
"VX c #89C9EE",
"CX c #A9D7F8",
"ZX c #A8C9F3",
"AX c #B7E7FA",
"SX c #ACE7FA",
"DX c #C4F1FD",
"FX c None",
/* pixels */
"FXFXFXFXFXFXFXFXFXFXFXFXFXFXFXFXFXFXFXFXFXFXFXFXFXFXFXFXFXFXFXFXFXFXFXFXFXFXFXFXFXFXFXFXFXFXFXFXFXFXFXFXFXFXFXFXFXFXFXFXFXFXFXFXFXFXFXFXFXFXFXFXFXFXFXFXFXFXFXFX",
"FXFXFXFXFXFXFXFXFXFXFXFXFXFXFXFXFXFXFXFXFXFXFXFXFXFXFXFXFXFXFXFXFXFXFXFXFXFXFXFXFXFXFXFXFXFXFXFXFXFXFXFXFXFXFXFXFXFXFXFXFXFXFXFXFXFXFXFXFXFXFXFXFXFXFXFXFXFXFXFX",
"FXFXFXFXFXFXFXFXFXFXFXFXFXFXFXFXFXFXFXFXFXFXFXFXFXFXFXFXFXFXFXFXFXFXFXFXFXFXFXFXFXFXFXFXFXFXFXFXFXFXFXFXFXFXFXFXFXFXFXFXFXFXFXFXFXFXFXFXFXFXFXFXFXFXFXFXFXFXFXFX",
"FXFXFXFXFXFXFXFXFXFXFXFXFXFXFXFXFXFXFXFXFXFXFXFXFXFXFXFXFXFX# # X X % % % - FXFXFXFXFXFXFXFXFXFXFXFXFXFXFXFXFXFXFXFXFXFXFXFXFXFXFXFXFXFXFXFXFXFXFXFXFXFXFXFXFXFX",
"FXFXFXFXFXFXFXFXFXFXFXFXFXFXFXFXFXFXFXFXFXFXFXFXFXFXFXFXFX. . X . X O O * % - & = = & FXFXFXFXFXFXFXFXFXFXFXFXFXFXFXFXFXFXFXFXFXFXFXFXFXFXFXFXFXFXFXFXFXFXFXFXFX",
"FXFXFXFXFXFXFXFXFXFXFXFXFXFXFXFXFXFXFXFXFXFXFXFXFXFXFXX . X . O X 8 O O O ; ; % & 2 r r 2 * O X X O O o FXFXFXFXFXFXFXFXFXFXFXFXFXFXFXFXFXFXFXFXFXFXFXFXFXFXFXFX",
"FXFXFXFXFXFXFXFXFXFXFXFXFXFXFXFXFXFXFXFXFXFXFXFXFXFXX X X O o O ; ; ; ; % % ; % % % = u l 3 - % O O o O O O $ FXFXFXFXFXFXFXFXFXFXFXFXFXFXFXFXFXFXFXFXFXFXFXFXFX",
"FXFXFXFXFXFXFXFXFXFXFXFXFXFXFXFXFXFXFXFXFXFXFXFXFXX X O O $ % - % - 1 - 1 & 2 2 1 , 2 2 i l i 9 2 & O O * O @ @ FXFXFXFXFXFXFXFXFXFXFXFXFXFXFXFXFXFXFXFXFXFXFXFX",
"FXFXFXFXFXFXFXFXFXFXFXFXFXFXFXFXFXFXFXFXFXFXFXX X O O % ; & > 1 2 1 - 2 - 6 6 5 6 2 2 6 q u i z z i 3 % @ $ O @ $ + FXFXFXFXFXFXFXFXFXFXFXFXFXFXFXFXFXFXFXFXFXFX",
"FXFXFXFXFXFXFXFXFXFXFXFXFXFXFXFXFXFXFXFXFX. . X X O @ @ @ % - 1 - 2 2 = 2 2 6 5 q q 5 5 q e r i N ~ C p - % @ $ * % $ FXFXFXFXFXFXFXFXFXFXFXFXFXFXFXFXFXFXFXFXFX",
"FXFXFXFXFXFXFXFXFXFXFXFXFXFXFXFXFXFXFXFX. . . X O @ @ 8 > > 1 2 2 2 6 2 6 6 6 3 q e r g g l p p z ( ] $.i 0 & $ % % % * FXFXFXFXFXFXFXFXFXFXFXFXFXFXFXFXFXFXFXFX",
"FXFXFXFXFXFXFXFXFXFXFXFXFXFXFXFXFXFXFXX . X o O @ @ ; ; 1 1 1 6 6 5 5 5 5 6 5 q g q r g h n z z z ( ' y.:.! u = % & 2 % % FXFXFXFXFXFXFXFXFXFXFXFXFXFXFXFXFXFXFX",
"FXFXFXFXFXFXFXFXFXFXFXFXFXFXFXFXFXFXFXX X @ @ % % % 1 1 , 6 6 2 6 5 4 0 y q 5 y g q q a a a n C N ( [ y.y.y. .r 2 : , : & % FXFXFXFXFXFXFXFXFXFXFXFXFXFXFXFXFXFX",
"FXFXFXFXFXFXFXFXFXFXFXFXFXFXFXFXFXFXX X O @ 8 % 1 1 2 6 9 0 4 0 q 5 0 w q q q 4 5 q q e g e t x C ` ] b.y.r.f.X.u 2 , , & % $ FXFXFXFXFXFXFXFXFXFXFXFXFXFXFXFXFX",
"FXFXFXFXFXFXFXFXFXFXFXFXFXFXFXFXFXX X O @ % & 1 2 6 6 4 < y t a h b G H G b b b g g e g g e q y g S ] r.b.r.y.f. .i 9 < 2 : % FXFXFXFXFXFXFXFXFXFXFXFXFXFXFXFXFX",
"FXFXFXFXFXFXFXFXFXFXFXFXFXFXFXFXFXX @ 8 @ - - 3 0 9 w t s F G U U P P I =.| L P J J M n h d a e q i A r.r.D.c.B.w.+.m 9 4 6 : $ $ FXFXFXFXFXFXFXFXFXFXFXFXFXFXFX",
"FXFXFXFXFXFXFXFXFXFXFXFXFXFXFXFXX o O % - 2 4 w e a F G U U R R I R I I I o.=.I P I P P } K n u e q d ) { v.I.K.B.y.p.x 0 4 2 & % O FXFXFXFXFXFXFXFXFXFXFXFXFXFX",
"FXFXFXFXFXFXFXFXFXFXFXFXFXFXFXFXX O @ % 2 4 e a j E Y R R R =.=.5.5.5.5.6.5.s.s.#.o.o.I | <.} x i e q v ` { P.;XF.F.B.1.m e 9 & % $ O FXFXFXFXFXFXFXFXFXFXFXFXFX",
"FXFXFXFXFXFXFXFXFXFXFXFXFXFXFXX o @ & 6 7 y k E Y Y R =.5.p.q.q.q.p.p.p.E.s.s.j.W.&.&.s.p.%.5.Z v i w q B ] M.;X$X).B.f.1.v w 6 : % @ FXFXFXFXFXFXFXFXFXFXFXFXFX",
"FXFXFXFXFXFXFXFXFXFXFXFXFXFXFXO @ : 4 y k F E Y R R =.<.p.p.,.! ! A A A Z } O.-.@.#.#.W.E.s.s.1.} m i w u S t.Y.rXJ.C.f.p.} u q 3 & $ @ FXFXFXFXFXFXFXFXFXFXFXFX",
"FXFXFXFXFXFXFXFXFXFXFXFXFXFX+ $ : 4 y k F Y Y T L } ,. .8.1.K V m b m n n n n B B ^ O.5.E.&.#.5.1.@.A v r l ) V.,XU.K.C.f.<.v a q 2 $ @ FXFXFXFXFXFXFXFXFXFXFXFX",
"FXFXFXFXFXFXFXFXFXFXFXFXFXFX$ > 7 k F I R =.| |  . . . .} V c x d x c v n C Z C B z N ~ $.&.&.&.%.p.8. .v l z 0.;X-XY.F.C.1.m d a 3 - % @ FXFXFXFXFXFXFXFXFXFXFX",
"FXFXFXFXFXFXFXFXFXFXFXFXFX$ > 7 s G =.=...| } *.X.Z n x d d x x n C C ^ ! C ^ ;.;.^ z z W ] &.&.#.%.f.B.<.B B S n.$X$X-X).q.} v h 0 2 % @ FXFXFXFXFXFXFXFXFXFXFX",
"FXFXFXFXFXFXFXFXFXFXFXFXFX> > y F U =.....} Z m x d a a a x B W ( ] [ v.B.V.k.d.f./ Q l l N r.f.&.%.^.C.B.C S S ,.Y.=X*X`.p.-.! b q 2 - % FXFXFXFXFXFXFXFXFXFXFX",
"FXFXFXFXFXFXFXFXFXFXFXFX+ > 7 s G o.K X.X.K V n n B Z  .$.f.F.Y.Y.U.U.M.N.N.U._._.f.,.) n l W 0.%.$.^.%X$X0.S ) ) u.&X*X1Xj.1.*.V q 4 2 > % FXFXFXFXFXFXFXFXFXFX",
"FXFXFXFXFXFXFXFXFXFXFXFX$ , y G H V H P K m c n ^ p.).%X4X4X%X-X*X4X5X5X4X=X-XT.$XS.i.9.w.A l / r.b.-XiX5XS.) S S ] $X6X8XF.w.:.! g 5 2 - - FXFXFXFXFXFXFXFXFXFX",
"FXFXFXFXFXFXFXFXFXFXFX+ > 0 F H V Z H n d d n +.j.1X8X<X%X%X-X-X-X*X4X7XpX8X8X5X6XeXD.A.L.L.! W [ K.Y.tXfX:Xn.D z ) m.eX5X).f.8. .g q 6 2 & FXFXFXFXFXFXFXFXFXFX",
"FXFXFXFXFXFXFXFXFXFXo + < s G m m G x x c Z q./.3X8X2X<X<X<X7X4X*X=X*X*X*X6XeX=X6XyXrX,X:X[.a.,.r.M.Y.=XfX=XP.i.M D m.0X5X%XC.y.,.h y 5 5 1 FXFXFXFXFXFXFXFXFXFX",
"FXFXFXFXFXFXFXFXFXFX+ > 7 s f c m d h m -.f./.3XpX2X7X7XsXpXtXeX&X_.J.S.J.&XrXyXrXeXyXyX:XI.Z.z.L.V.D.U.,X,X-XS.T C e.9X6X4X).C.;.d t q 5 1 ; FXFXFXFXFXFXFXFXFX",
"FXFXFXFXFXFXFXFXFXo + : y t d c s d m <.W./.9XpXiXiXiX8X6X-XU.b.] W N ) ,.,.a.L. X:XeXyXdX>XL.g.[.L.x.R.Y.Y.Y.I.4.D 9.9X9X5X%X^.O.h a g 5 2 1 FXFXFXFXFXFXFXFXFX",
"FXFXFXFXFXFXFXFXFXo + 6 w t d a a x X.2.d.oXfXsX7X7X*X-XY.V.] C l n T T M T 4.a.g.l.lXbXwXzXjXz.{.jXt.x.N.U.U.S.3.*.>.>X9X5X1Xj.-.v h g 5 6 1 FXFXFXFXFXFXFXFXFX",
"FXFXFXFXFXFXFXFXFX+ > 4 w t y t a m ..p./.fXhXiX7X&X$X:XJ.r.~ ! ! D *.! n m Z *.3.e.[.mX>X:XlXL.l.jXi.' x.M.R.U.7.3.,.:X9X1X<XE.*.M h g 5 2 2 FXFXFXFXFXFXFXFXFX",
"FXFXFXFXFXFXFXFXFX+ : 0 y w 0 y f A 2.d.qXhXaX5X,X9X;Xm.y.t.i.] 9.e.:.` ^ C z i i m -.z.{.A.;XL.L.jX{._ ' c.N.R.u.7.*.|.rX3X5X^.O.S v g 4 5 6 FXFXFXFXFXFXFXFXFX",
"FXFXFXFXFXFXFXFXFX> , 0 0 0 w a m | 6.].hXaX8XeXrX|.m.r.r.u.V.u.u.0.( ) ! n x d i p b <.z.I.|.[.L.XXjX>._ r.v.M.Z.a.) ;XrXtX2XE.:.A h t e q 6 FXFXFXFXFXFXFXFXFX",
"FXFXFXFXFXFXFXFXFX> , 0 0 w a f V =.W.fXgXpXeX,X:XS.m.' [ |.P.S.b.[ ] ] Q x a a a w w V 4.z.XX.Xk..XjXi._ [ m.Y.I.7.,.P.yXqX2X^.8.K h g g q 6 2 FXFXFXFXFXFXFXFX",
"FXFXFXFXFXFXFXFX+ > < 0 0 y a x } d.].sXaXyXrX0XP.S.v.v.D.0X:XJ.S.m.] ` A b d w t w w u *.a.{.H._.>X}.0./ r.m.Y.h.3.3.;XyX3X2X^.q.J b j h 5 6 2 FXFXFXFXFXFXFXFX",
"FXFXFXFXFXFXFXFX@ > 4 w t t a c 2.W.pXaXpXvXvX0X;XS.D.J.,X9X_.$X:Xh.0.} h a f a p p p p o.a.[.h.|..X|.u.r.u.b.M.e.7.g.:XdXpX<X^.<.J b m g q q 1 FXFXFXFXFXFXFXFX",
"FXFXFXFXFXFXFXFX+ > q t p p a Z 6.].sXiXdXBXvX0XzX:X$X6XtX1X$X_.}.g.-.Z d t a y * = t p K k.[.9.V.G.[.V.B.0.v.N.>.z. XeXMX3X`.^.| J M m h r 3 2 FXFXFXFXFXFXFXFX",
"FXFXFXFXFXFXFXFX+ > 0 t t t d | W.+XaX3XBXBX0XxX0XeX&XtXdXtXA.k.l.2.! n a t a & #   w a B k.oXy.V.G. XP.y.r.v.m.>.l.:XrXwX2X`.j.K K V M h q q 6 FXFXFXFXFXFXFXFX",
"FXFXFXFXFXFXFXFX+ : q t w p m 2.oX<XaX1XNXVX|..X,X6X1XdXdX$X/ *.7.*.-. .d a t < $ & a c B !.Z.f.H._.XXL.[ r.x.t.i.kX:XwXdX@X(.%.P *.D M g q 3 5 FXFXFXFXFXFXFXFX",
"FXFXFXFXFXFXFXFX@ : 0 t t d V d.].2X7X;XbXxX_._.&XtXtXBXyXK.W T 3.2.3.C v d a a a x m J *.}.1.u._..X Xr.{ v.v.t.z.nXrXdXqX@X^...L <.*.j g q 6 6 FXFXFXFXFXFXFXFX",
"FXFXFXFXFXFXFXFX+ : 4 t a d } W.(.2X=XJ.NXzXZ.J.tXdXrXCXrXr.W =.Q.7.e.C n n b n H L | e.k.g.;.H.rXzXu.' t.v.t.t.I.zXrXwX+X~.j.K @.a.T G g q 6 2 FXFXFXFXFXFXFXFX",
"FXFXFXFXFXFXFXFX$ > , 0 a x O.d.^.@XT.D.bXXXu.J.dXVXwXBX,Xr.) >.kX{.e.V V ) ;.w.,.w.e.9.u.9.y._.0XL.{ m.P.V.t.h.nXyXyXqX@X`.@. .3.2.M g e 5 2 2 FXFXFXFXFXFXFXFX",
"FXFXFXFXFXFXFXFX+ > , 0 p c o.6.E.<XK.M.zXk.i.S.dXVXVXdX=Xm.9.g.Q.Q.g.K ) 1.Z.n.0.` 0.] y.y.H. X XV.A.;X:Xm.m. XNXMXMX2X@XC./ *.*.D h g 5 2 6 6 FXFXFXFXFXFXFXFX",
"FXFXFXFXFXFXFXFX@ > , 9 p d L 6.E.%XK.N.zXg.u.$XyXVXVXtX,XV.h.oXa.Q.l.2.3.a.V.u.u.u.n.A.A._.0XzXI.H..XV.V.M.P.NXBXVX3X2XOX8. .*.T M g q 6 = 3 3 FXFXFXFXFXFXFXFX",
"FXFXFXFXFXFXFXFX+ $ : 0 w a I =.%.%XM.b.>Xg.u.:XqXdX#XqXyX.XZ.Z.e.z.{.[.{.[.[.[.P.P.0XxXvXVXVX>X$X_.u.h.$XP.bXCXBXqX<X@Xf.^ ! T M g q 5 2 2 q 6 FXFXFXFXFXFXFXFX",
"FXFXFXFXFXFXFXFX+ $ : 6 q a L =.f.T.N.r. Xl.h.$X9XwX#X1XdXwX/.e.a.e.{.}.!.a.k.jXjXnXZXZXVXCXdX#XH.Z.Z.G.;XvXAXSXfX3X@XC.` S J P M g q 3 2 q q 1 FXFXFXFXFXFXFXFX",
"FXFXFXFXFXFXFXFX+ $ & < w d L o.$.T.K.c.|.l.l.:X&XyX].'.tXvX[.e.a.e.l.[.k.;.^ 9.Z.{.cXcXvXvXcX0XXX|.P.>XvXAXAXdX2X@X^.;.A V T T z g e 9 6 q 5 1 FXFXFXFXFXFXFXFX",
"FXFXFXFXFXFXFXFX+ $ $ , y x L =.$.-XT.c.F.[.[.;X$XtX#X'.&XvX|.e.L.l.L.[.L.u.>.` ;.h.A.H.[.0XnXcXnX X0XCXAXAXdX<XOX`.8.A ! *.-.V u q q 5 5 q 6 FXFXFXFXFXFXFXFXFX",
"FXFXFXFXFXFXFXFX@ $ $ , 9 a I p.$.B.M.c.V.XXA.I.$XtX#X'.(.:XzXL.}.}.L.P.>X|.A.u.u.u.a.Z.|.zXcXZXNXBXCXDXSXdX2X2X`.$.^ ^ *.2.T g q 9 9 5 q 4 2 FXFXFXFXFXFXFXFXFX",
"FXFXFXFXFXFXFXFX+ @ + > , 0 L 6.@.] N.c.B.0Xl.Z.$XtXpX].(.).rXlXzXjX}.I.XXvXzX>X X|.|.jXnXZXZXAXAXAXDXSXdX7XiX<XB.+. .} K T g 5 q 0 4 5 5 5 1 FXFXFXFXFXFXFXFXFX",
"FXFXFXFXFXFXFXFX+ + + > : < J 5.X.~ x.c.c..X[.k.|.eXqX+X+X(.$X>XXX{.{.kXXXzX>X>XzXzXnXzXNXZXCXSXAXSXBXtX*X%X8X).8. .K K M h e w w 0 4 q q 5 FXFXFXFXFXFXFXFXFXFX",
"FXFXFXFXFXFXFXFXFX+ + $ > < b I X.X._ c.r.|.[.l.|.:XqX%X+X(.%X$X|.l.[.Q.{.>X|. X XjXnXbXNXZXCXCXNXrX$XY.T.-Xj. .C K K G h h u r q q 5 q g 6 FXFXFXFXFXFXFXFXFXFX",
"FXFXFXFXFXFXFXFXFXo + + $ , a G G V / c.r.G.A.k..X0XrX%X+X+XOX*X_.Z.z.d.e.L.u.u.u.I.I.lXnXzX>X>X,X$XU.U.K.$.! V K K J n h a e e e 5 q t 5 ; FXFXFXFXFXFXFXFXFXFX",
"FXFXFXFXFXFXFXFXFXFX+ + $ : w F G G Q ] 0.y.G.w.Q.zXwX&X<X3X2X<X6XF.t.e.>.e.e.>.>.] { { m.D.;X:XP.m.r.$. .Z H P L A v i e e d d g g g g 6 FXFXFXFXFXFXFXFXFXFXFX",
"FXFXFXFXFXFXFXFXFXFX  o + $ < s s G V ( _ [ B.u.e.mXNX:X%X4X2X2X7X6XK.' ` ,.i.i.,.>.>.i.` i.9.+.~ C ^ Z K X.| P M i e e i M m d g e 5 5 1 FXFXFXFXFXFXFXFXFXFXFX",
"FXFXFXFXFXFXFXFXFXFXFXo o + , 0 F s c ~ ~ / b.G.i.l.bXxX:X*X7XiX7X*X*XK.c.' Q } +.^ Z m x d x x m V } -.@.X.c d u u a v A K b g e q q 1 FXFXFXFXFXFXFXFXFXFXFXFX",
"FXFXFXFXFXFXFXFXFXFXFXo o + > < y s d Z W C 0.F.Z.>.l.cXzX&X1XiXaX7X4X*X*X-Xb.8.+. .! B m m m B Z Z ^ 8.X.c d p d c m } A M F t q q 2 ; FXFXFXFXFXFXFXFXFXFXFXFX",
"FXFXFXFXFXFXFXFXFXFXFXFXo o + > 4 y f n l c / y.G.e.,.l.zXzX;X*XsXgXiX7X*X5X5XF.$.] +.^ ^ Z Z ^ ^ }  .@.^ m H H P X.O.} G j g q q 6 - O FXFXFXFXFXFXFXFXFXFXFXFX",
"FXFXFXFXFXFXFXFXFXFXFXFXFX+ + $ : 0 d s p p B $.B.S.i.) e.jXlX;X%XpXgXuXiX4X<X).C.f.B.B.y.q.8.w.w.f.y.$.@...X...O.+. .H g q 5 5 6 - O FXFXFXFXFXFXFXFXFXFXFXFXFX",
"FXFXFXFXFXFXFXFXFXFXFXFXFXFX+ + $ < t y y w a +.y.V.B.>.) 3.[.>XP.$X8XaXuXuX%XE.^.^.`.(.F.%.y.$.y.y.@.+. .X...O.+.A h w 4 2 2 1 ; @ X FXFXFXFXFXFXFXFXFXFXFXFXFX",
"FXFXFXFXFXFXFXFXFXFXFXFXFXFXFXo + > < 7 0 w w n 8.0.A.n.>.S ,.V.|.Y.;X6X7XiXuX~.^.^.~.~.`.`.^.j.j.$.O.X.K ! ^ m d e 0 4 6 2 1 ; 8 O FXFXFXFXFXFXFXFXFXFXFXFXFXFX",
"FXFXFXFXFXFXFXFXFXFXFXFXFXFXFXFX+ $ > , < 0 9 i ^ / 9.V.t.,.^ ;.u.J.D.D.N.K.-X<X~.`.).C.j.&.%.%.%.@.O. . .X.m d q 9 9 2 3 2 % % O FXFXFXFXFXFXFXFXFXFXFXFXFXFXFX",
"FXFXFXFXFXFXFXFXFXFXFXFXFXFXFXFXFX+ > > : < 0 w c ! Z 1.n.[ 0.+.C +.$.$.] ( ] b.N.$.$.$.$.$.O.../ X. .+.@.H d y 0 < 2 2 2 % 8 O FXFXFXFXFXFXFXFXFXFXFXFXFXFXFXFX",
"FXFXFXFXFXFXFXFXFXFXFXFXFXFXFXFXFXFX+ $ % : 2 0 w x c B @.b.n.f.C n C C ! C V C ~ Q C B B Z Z X.^ / C c p t 0 < < 2 2 & % O O O FXFXFXFXFXFXFXFXFXFXFXFXFXFXFXFX",
"FXFXFXFXFXFXFXFXFXFXFXFXFXFXFXFXFXFXFXo $ $ > , < p i a n @.B._.0.A c d d d x c c Z ^ l d a p i i d s y w w w 0 2 , % % @ O O FXFXFXFXFXFXFXFXFXFXFXFXFXFXFXFXFX",
"FXFXFXFXFXFXFXFXFXFXFXFXFXFXFXFXFXFXFXFX+ $ $ % , 9 t p p d } h.V.] Q x a t t w y a c c d a y y 0 7 4 4 < 0 0 < & & @ + X X FXFXFXFXFXFXFXFXFXFXFXFXFXFXFXFXFXFX",
"FXFXFXFXFXFXFXFXFXFXFXFXFXFXFXFXFXFXFXFXFXO + $ > > < w p p a V f.t.( N x d u w 0 0 0 t a t 0 4 < < < < < , : > % O O o X FXFXFXFXFXFXFXFXFXFXFXFXFXFXFXFXFXFXFX",
"FXFXFXFXFXFXFXFXFXFXFXFXFXFXFXFXFXFXFXFXFXFXo + + $ % : 9 r w p x X.Q C n x x x w 0 4 4 4 7 w 4 4 < , , > > $ + o X X . X FXFXFXFXFXFXFXFXFXFXFXFXFXFXFXFXFXFXFX",
"FXFXFXFXFXFXFXFXFXFXFXFXFXFXFXFXFXFXFXFXFXFXFXFXFX+ + $ & < 9 9 w d a t p x x m a 9 < , , , < < , > > $ $ $ +   o . . . FXFXFXFXFXFXFXFXFXFXFXFXFXFXFXFXFXFXFXFX",
"FXFXFXFXFXFXFXFXFXFXFXFXFXFXFXFXFXFXFXFXFXFXFXFXFXFXFX+ + $ * , < 9 t < 4 9 9 p 0 < < : > > > > $ $ + + $   +   o   . FXFXFXFXFXFXFXFXFXFXFXFXFXFXFXFXFXFXFXFXFX",
"FXFXFXFXFXFXFXFXFXFXFXFXFXFXFXFXFXFXFXFXFXFXFXFXFXFXFXFXFXo o $ $ , < < < < 9 9 w < , > > > $ $ $ $ $ $   + +     . FXFXFXFXFXFXFXFXFXFXFXFXFXFXFXFXFXFXFXFXFXFX",
"FXFXFXFXFXFXFXFXFXFXFXFXFXFXFXFXFXFXFXFXFXFXFXFXFXFXFXFXFXFXFXFX+ $ $ & & : < 9 9 r < , = * $ $ $ + o   o         FXFXFXFXFXFXFXFXFXFXFXFXFXFXFXFXFXFXFXFXFXFXFX",
"FXFXFXFXFXFXFXFXFXFXFXFXFXFXFXFXFXFXFXFXFXFXFXFXFXFXFXFXFXFXFXFXFXFXFXFXFXFX$ > = < < , * & * $ + o o   .       FXFXFXFXFXFXFXFXFXFXFXFXFXFXFXFXFXFXFXFXFXFXFXFX",
"FXFXFXFXFXFXFXFXFXFXFXFXFXFXFXFXFXFXFXFXFXFXFXFXFXFXFXFXFXFXFXFXFXFXFXFXFXFXFXFXFXFXFXFX$ * * $ + FXFXFXFXFXFXFXFXFXFXFXFXFXFXFXFXFXFXFXFXFXFXFXFXFXFXFXFXFXFXFX",
"FXFXFXFXFXFXFXFXFXFXFXFXFXFXFXFXFXFXFXFXFXFXFXFXFXFXFXFXFXFXFXFXFXFXFXFXFXFXFXFXFXFXFXFXFXFXFXFXFXFXFXFXFXFXFXFXFXFXFXFXFXFXFXFXFXFXFXFXFXFXFXFXFXFXFXFXFXFXFXFX",
"FXFXFXFXFXFXFXFXFXFXFXFXFXFXFXFXFXFXFXFXFXFXFXFXFXFXFXFXFXFXFXFXFXFXFXFXFXFXFXFXFXFXFXFXFXFXFXFXFXFXFXFXFXFXFXFXFXFXFXFXFXFXFXFXFXFXFXFXFXFXFXFXFXFXFXFXFXFXFXFX",
"FXFXFXFXFXFXFXFXFXFXFXFXFXFXFXFXFXFXFXFXFXFXFXFXFXFXFXFXFXFXFXFXFXFXFXFXFXFXFXFXFXFXFXFXFXFXFXFXFXFXFXFXFXFXFXFXFXFXFXFXFXFXFXFXFXFXFXFXFXFXFXFXFXFXFXFXFXFXFXFX",
"FXFXFXFXFXFXFXFXFXFXFXFXFXFXFXFXFXFXFXFXFXFXFXFXFXFXFXFXFXFXFXFXFXFXFXFXFXFXFXFXFXFXFXFXFXFXFXFXFXFXFXFXFXFXFXFXFXFXFXFXFXFXFXFXFXFXFXFXFXFXFXFXFXFXFXFXFXFXFXFX",
"FXFXFXFXFXFXFXFXFXFXFXFXFXFXFXFXFXFXFXFXFXFXFXFXFXFXFXFXFXFXFXFXFXFXFXFXFXFXFXFXFXFXFXFXFXFXFXFXFXFXFXFXFXFXFXFXFXFXFXFXFXFXFXFXFXFXFXFXFXFXFXFXFXFXFXFXFXFXFXFX"
};
