/* XPM */
static char *_8defd1af94849dcee61e8f265f4a4eeLwNo141DUTHHYEkP[] = {
/* columns rows colors chars-per-pixel */
"70 70 251 2 ",
"   c None",
".  c #110F11",
"X  c #141215",
"o  c #14161A",
"O  c #1A161B",
"+  c #16191D",
"@  c #1A191E",
"#  c #191315",
"$  c #0C0E11",
"%  c #21191F",
"&  c #171B21",
"*  c #1B1C24",
"=  c #1C1E2A",
"-  c #141721",
";  c #1C1F33",
":  c #231E2A",
">  c #221C23",
",  c #1D222D",
"<  c #192027",
"1  c #1E2333",
"2  c #1E2439",
"3  c #21212D",
"4  c #232434",
"5  c #23263B",
"6  c #242A3C",
"7  c #2A2A3E",
"8  c #262638",
"9  c #252B43",
"0  c #2A2B44",
"q  c #262B4B",
"w  c #2A2D4C",
"e  c #242643",
"r  c #27314A",
"t  c #2B314C",
"y  c #293447",
"u  c #2A2E53",
"i  c #2C2E5B",
"p  c #272C52",
"a  c #2B3253",
"s  c #2D335B",
"d  c #2E3C5A",
"f  c #2B3952",
"g  c #313354",
"h  c #32345B",
"j  c #333A5B",
"k  c #323551",
"l  c #312D6C",
"z  c #2E3462",
"x  c #2F3765",
"c  c #313563",
"v  c #323A63",
"b  c #32356C",
"n  c #343B6C",
"m  c #39326A",
"M  c #332C73",
"N  c #372D79",
"B  c #343473",
"V  c #353B73",
"C  c #393C73",
"Z  c #35357A",
"A  c #363A7A",
"S  c #3A3C7D",
"D  c #3A347A",
"F  c #2F2D65",
"G  c #1F2342",
"H  c #364357",
"J  c #36446A",
"K  c #3B4474",
"L  c #3A447C",
"P  c #384779",
"I  c #3C557C",
"U  c #3E5368",
"Y  c #424678",
"T  c #445779",
"R  c #43526A",
"E  c #434D5D",
"W  c #3C2E8D",
"Q  c #3B3B83",
"!  c #3B3E8A",
"~  c #3A3486",
"^  c #3D2D92",
"/  c #3D3892",
"(  c #403D89",
")  c #412A99",
"_  c #433A97",
"`  c #4638A7",
"'  c #4B39B6",
"]  c #4B2FB2",
"[  c #3A4383",
"{  c #3D4B83",
"}  c #3C448B",
"|  c #3D4A8C",
" . c #374180",
".. c #3C5688",
"X. c #3E4491",
"o. c #3D4A92",
"O. c #3F4999",
"+. c #3F5295",
"@. c #3E6897",
"#. c #3C76A4",
"$. c #3E74AA",
"%. c #42438B",
"&. c #444986",
"*. c #455987",
"=. c #43439C",
"-. c #424B9C",
";. c #454797",
":. c #41539C",
">. c #495598",
",. c #575A96",
"<. c #524E9E",
"1. c #4A679A",
"2. c #44759D",
"3. c #4F6294",
"4. c #4A44A3",
"5. c #4C4CA5",
"6. c #4847A8",
"7. c #4354A4",
"8. c #455CA3",
"9. c #4555AB",
"0. c #4C53AB",
"q. c #4B58A6",
"w. c #5259A9",
"e. c #4A4DB4",
"r. c #4C44BB",
"t. c #4B48B8",
"y. c #5349B8",
"u. c #465CB3",
"i. c #4B5AB3",
"p. c #4C57BA",
"a. c #535BB8",
"s. c #4667A8",
"d. c #5766AA",
"f. c #4579A9",
"g. c #4962B5",
"h. c #4769B5",
"j. c #5768B8",
"k. c #4579BA",
"l. c #5C76B6",
"z. c #5276AA",
"x. c #626BB5",
"c. c #6173BC",
"v. c #687BB9",
"b. c #6D74AB",
"n. c #503FC3",
"m. c #4E4AC6",
"M. c #4E55C5",
"N. c #5458C6",
"B. c #544BD4",
"V. c #5559D7",
"C. c #534AC6",
"Z. c #4A67C5",
"A. c #5C6BCB",
"S. c #5769C6",
"D. c #4979C7",
"F. c #5C76C8",
"G. c #5667D6",
"H. c #4E78D7",
"J. c #5C72D3",
"K. c #5B7CDC",
"L. c #5978D6",
"P. c #4F65D6",
"I. c #647AC5",
"U. c #6679C8",
"Y. c #657CD6",
"T. c #626DD1",
"R. c #586AE9",
"E. c #5677E6",
"W. c #4F79E3",
"Q. c #5B6CE2",
"!. c #5485B4",
"~. c #7685BB",
"^. c #6C81BA",
"/. c #3CA9D8",
"(. c #4788C6",
"). c #4493CD",
"_. c #4C8ADA",
"`. c #5D87D9",
"'. c #4998D6",
"]. c #5A99D5",
"[. c #569DCD",
"{. c #6986C8",
"}. c #728BCB",
"|. c #7588C6",
" X c #6483DB",
".X c #6489DB",
"XX c #6989D6",
"oX c #738BD6",
"OX c #6C95DB",
"+X c #7896D9",
"@X c #6A97CA",
"#X c #45A7D9",
"$X c #57A4D5",
"%X c #4BB3DE",
"&X c #7CA3DD",
"*X c #61AADA",
"=X c #5988E8",
"-X c #4C98E8",
";X c #539BEC",
":X c #5898E9",
">X c #5986F3",
",X c #5699F3",
"<X c #4D91EC",
"1X c #6388E5",
"2X c #6493E4",
"3X c #6C9DEB",
"4X c #6997E7",
"5X c #779AE4",
"6X c #6E93E7",
"7X c #4AA7E8",
"8X c #58A8EC",
"9X c #49B5E9",
"0X c #59B6E9",
"qX c #52A4F4",
"wX c #56ADF6",
"eX c #4BB7F3",
"rX c #56B6F5",
"tX c #4EA3F3",
"yX c #6BA4EE",
"uX c #66A7ED",
"iX c #79A5EA",
"pX c #67B6EA",
"aX c #79B7EA",
"sX c #67A7F3",
"dX c #6CBBF3",
"fX c #66B3F4",
"gX c #78B8F4",
"hX c #78AEF1",
"jX c #3ED4F6",
"kX c #48C6F4",
"lX c #54C5F6",
"zX c #4AD5F5",
"xX c #56D6F6",
"cX c #74C2F3",
"vX c #75C5F7",
"bX c #6ECBF3",
"nX c #52E0F7",
"mX c #859AD1",
"MX c #86A9E7",
"NX c #89B6EC",
"BX c #99BCE9",
"VX c #8ABBF2",
"CX c #95B4EE",
"ZX c #93AEEB",
"AX c #88C9F6",
"SX c #9AD6F8",
"DX c #93C7EF",
"FX c #A9CDF4",
"GX c #A7D7F8",
"HX c #B8E7FB",
"JX c #B3E9FB",
/* pixels */
"                                                                                                                                            ",
"                                                                                                                                            ",
"                                                        #                                                                                   ",
"                                                    . X # # O * * : = =                                                                     ",
"                                                X X X # # # O O @ > * = 4 5 ; O # O                                                         ",
"                                              # # # o O @ % % @ * * * * = e i e = O O # # O o @                                             ",
"                                            # # O @ * : : : : 3 , 4 4 4 , 4 q z p e 4 * O # @ + @                                           ",
"                                        # # O @ * * = 3 4 3 3 3 4 8 5 5 4 8 5 u i F l u 4 * @ + @ * +                                       ",
"                                    X X # o O @ @ * = 3 3 4 4 4 4 8 8 0 0 0 0 w q u N ^ Q q , * @ * * *                                     ",
"                                  X # # o O @ > * = 3 8 8 8 7 8 8 8 5 0 w w g c i i l ^ e.o.i 5 * * = = *                                   ",
"                                # # o # @ * * : 3 4 4 4 8 7 7 0 0 0 w t 0 w a s B M M ) ' i.6.A 5 , = = = *                                 ",
"                                # # O @ * = 3 4 8 7 7 8 7 7 0 0 0 7 0 0 0 w a w a b ~ ) t.a.e.i.V e 1 1 , * *                               ",
"                              # # O @ * , 4 4 8 5 9 w a a d v v j j a r r w g t 9 r c ~ ` N.p.p.u.A q 4 4 1 *                               ",
"                              # @ @ * = 8 9 9 9 a d J J J P I ..{ P P K J n c s a 0 0 c _ r.N.M.Z.9.} a 5 5 , *                             ",
"                            # # @ * , 5 w a f J U U R T T T T I ..*...P P P L L V i w w n ` ' J.P.Z.g.+.u 9 4 = * +                         ",
"                            o # * 1 9 r k H R T T *.*.3.1.s.s.f.1.2.f.2.@.....+.:.c s q 0 B ' G.1XH.H.g.| s 9 4 * @                         ",
"                          # # * 4 0 y H E R T *.1.s.8.:.-.:.:.8.8.s.s.f.2.2.f.f.s.| n i q u ~ C.1X2XH.D.h.[ u 5 , * +                       ",
"                          O * 8 y k H R T T { | -.g.;.S C V V B V A Q | +.@.!.f.f.s.+.S c w i _ J.3XG.D.g.7.c w 7 = * O                     ",
"                        o * 6 y j R T T L [ } %.| | n x s z c b B V B B N ~ :.f.#.@.s.7.%.b i M 0.=XE.H.D.s.V a r 4 * @                     ",
"                        * 6 f J *.*.{ [ } } Q V v s z z x B Z A Z Z X.} B l N =.f.#.@.s.g.8.B M ~ J.=X=X_.h.[ c s 7 = *                     ",
"                      & , y d I *.o.} L V c s a a z b ~ _ ` ' M.S.j.h.g.( B F M 6.h.#.$.D.D.X.Z Z 4.=X,X;XD.;.S v 7 4 * *                   ",
"                      * 6 f J P L [ L V b b V } 7.h.H.E.E.E.G.P.V.G.`.`.w.;.Q z M 6.u.s.).-XZ.D ( ~ A.,XwX'.7.} n 0 8 3 *                   ",
"                    + , y J K V L K n c B o.(.-X8XqX-X<X<XqXrXwXqX,X=X:XG.e.w.>.l ~ e.P.;XlX:X4.D N 6.:XwX:Xu.-.S w 7 4 :                   ",
"                  + & 6 H J V K n s z A 8.].0X9X7X-X-X<X,X,XwXeXrXwXqXwXuXE.L.XXq.Q t.R.>XbXfXJ.%.m _  XfX;Xh.9.} g 0 8 4 *                 ",
"                  + , f v v n v s n | h.].rXeX9X9XkXrXwX,X=X=X=X:XfXfXsXfXgXyX Xc.d.j.G.E.,XsX>Xj.C ~ T.fXqX_.h.| a 0 0 4 *                 ",
"                o + 6 t s v s s n 8.l.].0XkXeXkXlXwX=XL.p.4.=.5.q.F.OXyXyXgXgX5XU.c.{.S.B.R.>XE.F.T S S.uX8X;X(.o.g a 0 8 :                 ",
"                + * 6 r a s a c | s.!.pXxXkXeXqX=XE.t.W M m Y Y Y *.d.l.{.MXgXNX+Xj.|.{.' B.R.R.J.,.%.j.yX8X7X(.| h h w 8 3                 ",
"                + , 9 r r r a V :.z.*XxXkXeX,X1X1XN.W Q S Q %.A b S &.>.d.mXMX6X5XI.|.+X4.] B.V.G.d.>.d.yX8X9X(.| b h 0 8 4                 ",
"                + 4 9 r 9 r z [ 1.[.bXzXrXsX3XJ.M.p.e.` 5.w.=.! Z b i s V >.v.U. X{.{.mXx.) r.B.V.j.,.w.3XfX9X(.o.C g 0 7 8                 ",
"                * 6 9 9 r a n *.!.bXxXrXsXyXJ.M.6.a.A.N.p.` _ ( B z s s w n ,.~.Y.XXI.&X|.) ` m.V.U.,.w.yXdX9X(.O.C h t w 8 3               ",
"              + , 6 9 9 a s L 1.$XxXxXsXyX.XG.t.' Y.6XL.N.r.` _ b s r w q u L ,.}.XXF.&XU.) ` M.E.I.,.a.3XdX9X(.7.C h h w 8 8               ",
"              @ , 9 9 w a z *.!.0XzXdXgXiX XG.N.G.3X2XK. Xp.=.S c s a a w w n q.{.F..XOXU.` e.M.G.a.,.S.yXcX9X(.:.n v v 0 8 8               ",
"              @ , w w a a n 1.[.zXlXAXAXiX5X=X=XuXuX=X1X+Xd.;.n a a a 5 9 w s d.{.0.F. XU.j.p.t.V.5.b..XgXcX7X(.| J n v w 7 4               ",
"              + , w w w a L !.%XzXvXGXNXMXhXuX:XvXdX`.F.^.>.A z r a 1 $ * w s >.@Xi.S.Y.oXS.e.m.C.<.|.3XgXpX#Xk.L K n v w 9 8               ",
"              + 1 9 w w c >.@X9XeXgXDXOXOX:X8XfXAXyXe.&.,.%.;.n a a 2 o 1 s b >.{.g.L. X+Xt.t.n.C.w.+XyXgX0X'.s.L { K c w 5 7               ",
"              + 1 9 r a b z.[.9XqX5XDXXXK.:XfXgXSX=X^ Y ,.>.;.b z a a a v n [ v.w.i.`.OXU.] r.C.y.x.MXhXaX%X).| { >.K j 0 7 8               ",
"              + , 9 a s V z.(.9XE.5XDXF.L.dXgXAXAXP.W &.~.x.;.b V B V L &.>.j.l.-.L.hX+X' r.N.C.y.oXhXgX0X#Xk.[ >.1.J j 0 8 8               ",
"              @ , 5 r s { z.(.7XP.6X&X0.J.vXAXAXgXP._ >.mX~.>.C ( 0.i.=.5.5.6.0.a..X5XS.M. XJ.y.A.NXgXgX%X#X7.%.>.{ h t 5 4 8               ",
"              + = 5 q s P 1.(.-XV.XX}.0.L.cXDXcXfXL.0.{.v.^.d.%.>.S.N.6.6.e.a.S..X5XY.J..XL.A.N.MXSXAXpX9XD.X.%.&.v g 0 4 4 8               ",
"              + * 4 9 u K 3.k.<XB.Y.}.i.2XcXDXpXfX2Xj.{.d.~.v.v.v.F.U.A.J.OX3XaXVXiX`. Xa.A.J.5XGXSXdX9X#X9.[ Y K h w 8 4 5 8               ",
"              + * 4 9 w K *.h.W.m.A.}.a.=XuXaX*XdXgXXXj.q.l.|.}.c.v.+XmXZXFXDXSXAXyX XS.S.Y.3XGXJXcX9X#Xg.! C K v g 0 8 8 0 8               ",
"              + * , 6 u K *.u.W.M.N.{.j.2X:XpX].8XVXOXw.d.d.I.I.q.( q.I.+XBXNXNXNXMXoXXX XiXGXHXAX9X#Xh.! C K L c u 0 8 0 9 3               ",
"              + * = 6 u L *.g.W.P.N.oXI.6X:XpX].].hX+Xw.I.c.I.{.j.5.;.4.j.F.F.OXMXBXMX5XVXHXHXAX7X#XD.! S %.>.C u 0 0 7 0 8                 ",
"              + @ * 4 9 K 1.8.M.B.M.XX{.F.=XdX*X[.].MXXX+X+XU.oX5XXXF.j.j.j.XXMXBXFXFXGXHXJXvX9X9X).O.! %.&.K a 9 9 7 7 7 8                 ",
"              + @ & , 2 J 1.o.` m.r..X}.j..XdXpX$X).2XMX&X+X|.oXMXMXiX+X+X+XMXBXFXHXHXHXJXvXrXkX7Xu.;.Q L J g 0 q 9 7 0 0 4                 ",
"              o + + * 1 d *.{ / ' r.L.{.c..XuX8X$X'.'.2XoX|.|.}.&X5XoX5XMXCXDXFXGXHXGXAXsX>X<X-Xh.| L L J h w w 9 9 9 0 7                   ",
"                + + + , a J K Q ` m.S.XXc.XXyXuX-X$X'.<XK.c.v.l.I.A.S.U.oXMXCXCXVXMX3X1XR.E.D.+.A K L K c h w q w 0 0 t 8                   ",
"                + + + * 9 d J V ^ t.e.J.w.}.MXyX;X7X%X7X;XS.w.q.w.a.4.4.y.y.V.Q.1X3X1XV.M.7.! V K L S z u w u s u w a 0 3                   ",
"                  o + & 2 a H v A ` ` S.a.d.BXNX:X7X9X9XrX;Xm.` _ 5.5.;.;.=.=.4.0.=.! Q Q S [ P L n s w w s n s g w 0 8                     ",
"                    o + = 9 f d V ^ W p.F.5.|.BXiX:XeXkXeXtX<XP.' / ! ;.! V b z z c n V } :.{ n s a a s V S J a w 0 5 :                     ",
"                    o o & 1 r a b Z M O.S.S.-.|.ZXiX:XkXzXkXtX,X;XH.e.=./ A V n n V A S } o.b s s s n L S n j t 0 7 :                       ",
"                      o + * 6 r v z i A e.J.i.;.v.MX6X:XlXnXzXeXqXwX_.u.6.7.O.| } X.O.-.7.O. .P P [ X.;.K j t 0 0 4 @                       ",
"                      o o + , 9 a r r s -.a.A.5.%.d.+X6X=XrXzXjXeX7X(.(.(.).D.u.9.9.g.u.9.-.o.| o.-.} n r 7 8 8 3 * #                       ",
"                        o + + 1 6 9 9 q A 6.g.S.5.( <.U. XE.8XlXkX9X).(.).#X).).D.h.g.7.o.[  .[ L n a 9 8 4 4 : % #                         ",
"                            + * 1 6 9 9 i / =.j.a.=.Q -.S.L.K.K.W.-X9X/.).).(.(.$.s.s.+.| } [ V s r 9 5 5 4 = * O                           ",
"                              + * , 2 9 q b Q [ i.e.4._ Q -.0.6.` ` Z.Z.u.u.9.+.o.| } } X.-.[ z r 9 5 5 4 = * O                             ",
"                                + * = 1 6 q z z [ i.N.j.A B Z A A B Z ~ ~ B B B A A ! Q b s a r 6 5 4 4 * @ O #                             ",
"                                  + * * , 6 p i a P i.L.0.~ z a a s s c A V z a u u u a t 9 9 9 e 2 = * @ # #                               ",
"                                    + & & , 6 q q u v 8.S.` D z a u q 9 w s s a q 9 7 6 6 6 6 2 1 = * @ # #                                 ",
"                                      o + & * 1 9 p q a | 4.W B z s u 9 7 7 9 r 9 7 6 8 1 1 , < & @ O # #                                   ",
"                                          + + @ , 2 e q p z s s z x n a 9 4 2 8 6 6 4 , , * & + o o # # X                                   ",
"                                              o + * = 1 5 q q 6 9 q a r 5 1 , , , , = & + + o o o X X X                                     ",
"                                                  o o & = 1 2 2 1 5 e 9 2 , = * * @ + + + o o o X X .                                       ",
"                                                        o & * = , 1 2 G e 2 , = & + + o o X X . . .                                         ",
"                                                                    = = 1 ; = = = - + o X X X .                                             ",
"                                                                                                                                            ",
"                                                                                                                                            ",
"                                                                                                                                            ",
"                                                                                                                                            ",
"                                                                                                                                            "
};
