/* XPM */
static char *result[] = {
/* columns rows colors chars-per-pixel */
"80 80 248 2 ",
"   c #0E1112",
".  c #141214",
"X  c #191316",
"o  c #15161A",
"O  c #1A161B",
"+  c #16191D",
"@  c #1A191E",
"#  c #0E0C0E",
"$  c #171B22",
"%  c #1B1C24",
"&  c #1C1E2A",
"*  c #171925",
"=  c #1D1E31",
"-  c #211E2A",
";  c #231C24",
":  c #1D212C",
">  c #1B2227",
",  c #1E2432",
"<  c #1E2439",
"1  c #22212D",
"2  c #232434",
"3  c #23263B",
"4  c #242A3D",
"5  c #292A3D",
"6  c #252738",
"7  c #28303D",
"8  c #22181D",
"9  c #232642",
"0  c #252B43",
"q  c #2A2B44",
"w  c #262C4B",
"e  c #2A2D4B",
"r  c #26264B",
"t  c #2A324C",
"y  c #293247",
"u  c #2A2D53",
"i  c #2C2E5B",
"p  c #272C51",
"a  c #2B3253",
"s  c #2C3B53",
"d  c #2D335C",
"f  c #2E3C59",
"g  c #313253",
"h  c #32345B",
"j  c #333C5A",
"k  c #343C4D",
"l  c #2E2D64",
"z  c #322D6A",
"x  c #2E3463",
"c  c #2F3666",
"v  c #313564",
"b  c #333A64",
"n  c #32356C",
"m  c #333B6B",
"M  c #393D68",
"N  c #362D78",
"B  c #343473",
"V  c #353C71",
"C  c #36357A",
"Z  c #363B7B",
"A  c #3A3C7D",
"S  c #3A3678",
"D  c #433B79",
"F  c #36445B",
"G  c #354468",
"H  c #364374",
"J  c #3A4272",
"K  c #3B437B",
"L  c #3C4C7A",
"P  c #384878",
"I  c #3E567B",
"U  c #3E546A",
"Y  c #47556A",
"T  c #434879",
"R  c #445777",
"E  c #444F5F",
"W  c #392B85",
"Q  c #3A3482",
"!  c #3B3C84",
"~  c #3B338B",
"^  c #3A3C86",
"/  c #3E3996",
"(  c #3E2D95",
")  c #413C88",
"_  c #412C9B",
"`  c #453B9A",
"'  c #4729A8",
"]  c #4739A8",
"[  c #4A3AB5",
"{  c #5036B7",
"}  c #3B4384",
"|  c #3C4B84",
" . c #3D438C",
".. c #3D4B8C",
"X. c #374484",
"o. c #3B5385",
"O. c #3E4A92",
"+. c #3F4796",
"@. c #3F5396",
"#. c #3E6C97",
"$. c #3F5AA8",
"%. c #3D6AA4",
"&. c #3C79A3",
"*. c #444788",
"=. c #455988",
"-. c #424B95",
";. c #434499",
":. c #424D9B",
">. c #4B4B9C",
",. c #474795",
"<. c #425295",
"1. c #42539C",
"2. c #485797",
"3. c #555A99",
"4. c #525788",
"5. c #476899",
"6. c #4E6C99",
"7. c #62679D",
"8. c #444DA4",
"9. c #4B4CA3",
"0. c #4847A8",
"q. c #445CA4",
"w. c #4855A7",
"e. c #525AA9",
"r. c #4B48B7",
"t. c #5148B8",
"y. c #4A58B6",
"u. c #5358B7",
"i. c #5149A7",
"p. c #4667A9",
"a. c #5866AB",
"s. c #4575AA",
"d. c #5574A9",
"f. c #4966B6",
"g. c #5B6CB4",
"h. c #5867B9",
"j. c #4575B8",
"k. c #5A74B9",
"l. c #6475BA",
"z. c #6771AD",
"x. c #5036C6",
"c. c #4D49C3",
"v. c #5348C3",
"b. c #4E56C5",
"n. c #535CC2",
"m. c #5557C8",
"M. c #555AD8",
"N. c #5152D6",
"B. c #4C67C5",
"V. c #5668C8",
"C. c #4A77C6",
"Z. c #5D73C4",
"A. c #5A76CB",
"S. c #5A6DD3",
"D. c #5667D8",
"F. c #4E79D7",
"G. c #5B75D3",
"H. c #5C7CD4",
"J. c #5877DA",
"K. c #4E68D7",
"L. c #657BC6",
"P. c #647CD6",
"I. c #6B74D3",
"U. c #576AE7",
"Y. c #5777E6",
"T. c #527DE6",
"R. c #5659E3",
"E. c #4584BA",
"W. c #5184AF",
"Q. c #7485BB",
"!. c #6980BB",
"~. c #3AA6D5",
"^. c #4587C5",
"/. c #5A89C8",
"(. c #4999CF",
"). c #4C89D6",
"_. c #5D85DB",
"`. c #4599D5",
"'. c #579CD3",
"]. c #5D9CCB",
"[. c #6B85C8",
"{. c #7689C7",
"}. c #7892CD",
"|. c #6887D8",
" X c #738DDA",
".X c #6793DA",
"XX c #7696D8",
"oX c #6896C9",
"OX c #42A7D8",
"+X c #56A6D9",
"@X c #47B3DE",
"#X c #6AA8D9",
"$X c #5A89E7",
"%X c #4D99E7",
"&X c #5898E9",
"*X c #539CF3",
"=X c #5897F4",
"-X c #518AEE",
";X c #658BE4",
":X c #6796E7",
">X c #789AE4",
",X c #609BF3",
"<X c #4AA9E8",
"1X c #57A8EC",
"2X c #49B4E8",
"3X c #58B8EA",
"4X c #4DA6F4",
"5X c #53ABF4",
"6X c #57A5F4",
"7X c #4AB9F4",
"8X c #57B7F6",
"9X c #68A3EB",
"0X c #77A6EA",
"qX c #66B8EB",
"wX c #7AB8EB",
"eX c #67A9F3",
"rX c #71ABF2",
"tX c #69B5F3",
"yX c #77B8F4",
"uX c #3DD0F4",
"iX c #48C8F4",
"pX c #58C6F7",
"aX c #49D5F5",
"sX c #4DD0F2",
"dX c #79C5F6",
"fX c #67D0F6",
"gX c #51E1F8",
"hX c #67E2F7",
"jX c #829AD6",
"kX c #8897C2",
"lX c #829CE4",
"zX c #86A9E8",
"xX c #89B5EA",
"cX c #9AB6E7",
"vX c #88B9F1",
"bX c #95BDF2",
"nX c #92ACEA",
"mX c #9AB4E4",
"MX c #87C4F3",
"NX c #99C6F3",
"BX c #9AD6F9",
"VX c #89C9EE",
"CX c #A9D7F8",
"ZX c #A8C9F3",
"AX c #B7E7FA",
"SX c #ACE7FA",
"DX c #C4F1FD",
"FX c None",
/* pixels */
"FXFXFXFXFXFXFXFXFXFXFXFXFXFXFXFXFXFXFXFXFXFXFXFXFXFXFXFXFXFXFXFXFXFXFXFXFXFXFXFXFXFXFXFXFXFXFXFXFXFXFXFXFXFXFXFXFXFXFXFXFXFXFXFXFXFXFXFXFXFXFXFXFXFXFXFXFXFXFXFX",
"FXFXFXFXFXFXFXFXFXFXFXFXFXFXFXFXFXFXFXFXFXFXFXFXFXFXFXFXFXFXFXFXFXFXFXFXFXFXFXFXFXFXFXFXFXFXFXFXFXFXFXFXFXFXFXFXFXFXFXFXFXFXFXFXFXFXFXFXFXFXFXFXFXFXFXFXFXFXFXFX",
"FXFXFXFXFXFXFXFXFXFXFXFXFXFXFXFXFXFXFXFXFXFXFXFXFXFXFXFXFXFXFXFXFXFXFXFXFXFXFXFXFXFXFXFXFXFXFXFXFXFXFXFXFXFXFXFXFXFXFXFXFXFXFXFXFXFXFXFXFXFXFXFXFXFXFXFXFXFXFXFX",
"FXFXFXFXFXFXFXFXFXFXFXFXFXFXFXFXFXFXFXFXFXFXFXFXFXFXFXFXFXFXFXFXFXFXFXFXFXFXFXFXFXFXFXFXFXFXFXFXFXFXFXFXFXFXFXFXFXFXFXFXFXFXFXFXFXFXFXFXFXFXFXFXFXFXFXFXFXFXFXFX",
"FXFXFXFXFXFXFXFXFXFXFXFXFXFXFXFXFXFXFXFXFXFXFXFXFXFXFXFXFXFXFXFXFXFXFXFXFXFXFXFXFXFXFXFXFXFXFXFXFXFXFXFXFXFXFXFXFXFXFXFXFXFXFXFXFXFXFXFXFXFXFXFXFXFXFXFXFXFXFXFX",
"FXFXFXFXFXFXFXFXFXFXFXFXFXFXFXFXFXFXFXFXFXFXFXFXFXFXFXFXFXFXFXFXFXFXFXFXFXFXFXFXFXFXFXFXFXFXFXFXFXFXFXFXFXFXFXFXFXFXFXFXFXFXFXFXFXFXFXFXFXFXFXFXFXFXFXFXFXFXFXFX",
"FXFXFXFXFXFXFXFXFXFXFXFXFXFXFXFXFXFXFXFXFXFXFXFXFXFXFXFXFXFXFXFXFXFXFXFXFXFXFXFXFXFXFXFXFXFXFXFXFXFXFXFXFXFXFXFXFXFXFXFXFXFXFXFXFXFXFXFXFXFXFXFXFXFXFXFXFXFXFXFX",
"FXFXFXFXFXFXFXFXFXFXFXFXFXFXFXFXFXFXFXFXFXFXFXFXFXFXFXFXFXFXFXFXFXFXFXFXFXFXFXFXFXFXFXFXFXFXFXFXFXFXFXFXFXFXFXFXFXFXFXFXFXFXFXFXFXFXFXFXFXFXFXFXFXFXFXFXFXFXFXFX",
"FXFXFXFXFXFXFXFXFXFXFXFXFXFXFXFXFXFXFXFXFXFXFXFXFXFXFXFX+ + + + + + @ @ $ + $ $ + + + + + FXFXFXFXFXFXFXFXFXFXFXFXFXFXFXFXFXFXFXFXFXFXFXFXFXFXFXFXFXFXFXFXFXFXFX",
"FXFXFXFXFXFXFXFXFXFXFXFXFXFXFXFXFXFXFXFXFXFXFXFXFXFXo + + + + $ $ $ $ > > > > : : > > > > > $ + + o + FXFXFXFXFXFXFXFXFXFXFXFXFXFXFXFXFXFXFXFXFXFXFXFXFXFXFXFXFX",
"FXFXFXFXFXFXFXFXFXFXFXFXFXFXFXFXFXFXFXFXFXFXFXFXo o + + + $ $ > > : , 1 , , < 0 0 0 y 0 < < , : > $ $ + + FXFXFXFXFXFXFXFXFXFXFXFXFXFXFXFXFXFXFXFXFXFXFXFXFXFXFX",
"FXFXFXFXFXFXFXFXFXFXFXFXFXFXFXFXFXFXFXFXFXFXo o o o + + > > , , , < 0 0 0 0 s t w a e q 0 0 0 0 7 2 > > $ + FXFXFXFXFXFXFXFXFXFXFXFXFXFXFXFXFXFXFXFXFXFXFXFXFXFX",
"FXFXFXFXFXFXFXFXFXFXFXFXFXFXFXFXFXFXFXFXFXo o o + + $ & : , 0 0 y w w w a a a w w t p y 0 0 0 y y y 0 0 < > + + FXFXFXFXFXFXFXFXFXFXFXFXFXFXFXFXFXFXFXFXFXFXFXFX",
"FXFXFXFXFXFXFXFXFXFXFXFXFXFXFXFXFXFXFXFX+ o o + > > , < < r u x d a a d c x d a a e a p w y 0 0 t t t f s 0 , > $ + FXFXFXFXFXFXFXFXFXFXFXFXFXFXFXFXFXFXFXFXFXFX",
"FXFXFXFXFXFXFXFXFXFXFXFXFXFXFXFXFXFXFXo + $ > , < w a b G I | | L L I L | @.P m V d a a a a w y w a d d G G y 7 2 > + O FXFXFXFXFXFXFXFXFXFXFXFXFXFXFXFXFXFXFXFX",
"FXFXFXFXFXFXFXFXFXFXFXFXFXFXFXFXFXFXo + $ > , y s f G I 5.6.5.#.=.=.=.6.6.d.k.d.2.| V c x d a y t a G c c G G s y 7 : @ + + FXFXFXFXFXFXFXFXFXFXFXFXFXFXFXFXFXFX",
"FXFXFXFXFXFXFXFXFXFXFXFXFXFXFXFXFX+ $ > : < y F f G G P o.@.$.$.$.f.j.j.^.^./.].oXW.6.2.| V m h a a a m V V H G f s 7 > o o . . FXFXFXFXFXFXFXFXFXFXFXFXFXFXFXFX",
"FXFXFXFXFXFXFXFXFXFXFXFXFXFXFXFX+ $ > < 0 y y F F H H ^ / ] K.F.U.F.%X<X<XOX2X2X3X+X].W.d.=.| J H d s d m H V o.I G k 4 1 @ O + X X FXFXFXFXFXFXFXFXFXFXFXFXFXFX",
"FXFXFXFXFXFXFXFXFXFXFXFXFXFXFX+ $ : 3 y s x x c B Z ~ ' [ N.N.T.K.N.K.R.K.T.*X7XaXuXsX3X].W.6.2...X.n x x H H K =.=.F y 4 & @ @ @ X X FXFXFXFXFXFXFXFXFXFXFXFXFX",
"FXFXFXFXFXFXFXFXFXFXFXFXFXFX+ $ % , 4 y s n C ^ / ] c.c.c.c.c.c.r.c.c.m.K.D.J.$X6X8XaXaXsXqX].k.5.q.@.m x m P X...=.U F y 6 ; @ @ 8 X X . FXFXFXFXFXFXFXFXFXFXFX",
"FXFXFXFXFXFXFXFXFXFXFXFXFXo $ > > 4 0 y p l W W ' ] r.r.t.V.V.G._. X>X0XzXbXNXNXNXBXdXpXaXgXhXqX/.d.k.@.f d P X.-.*.R F k 7 2 % % 8 O X . . FXFXFXFXFXFXFXFXFXFX",
"FXFXFXFXFXFXFXFXFXFXFXFX+ $ % : < 0 0 w a c W / [ y.A._..X9XXX[.l.l.g.g.g.XXzXxXVXCXCXyXtXpXgXhXfX]./.p.X.d m Z X.} =.Y F y 4 2 % % @ O X . . FXFXFXFXFXFXFXFXFX",
"FXFXFXFXFXFXFXFXFXFXFXo + $ > , 7 0 w i B / $.b.V.A.A.[.[.L.[.L.k.h.h.u.i.y.A.|..X0XvXMXrXeX7XiXfXfX9X/.q.n c V J } L R E F t 5 2 % @ @ . . X FXFXFXFXFXFXFXFXFX",
"FXFXFXFXFXFXFXFXFXFXFX+ $ % , 0 w i B +.8.y.A.F.y.e.g.L.h.Z.I.;X:X;X:X$XG.J.J.J.:XzXzX:X>XeXeX5XiXsXpXqX/.+.B m m *.K R Y F a e 4 1 ; @ + O . X FXFXFXFXFXFXFXFX",
"FXFXFXFXFXFXFXFXFXFXFX+ > , < w c ^ $.r.V.J.V.i.e.!.}.|..X$X$X$X&X9XqXyXyXdXtX1X,X0X0X;X|.:XrXeX7X7XiXpX3Xj.! m x ^ } L R Y j e 0 2 & % @ O O . FXFXFXFXFXFXFXFX",
"FXFXFXFXFXFXFXFXFXFXo $ : < p c ^  .0.B.A.w.,.l.mXzXrX:XeXtXtXqXwXqXVXVXVXVXdXtX1XtX:XG.S.V.|.9X%X7XiX7X8X1Xp.B d Z  .} R Y G a r 2 1 % @ @ O O X FXFXFXFXFXFXFX",
"FXFXFXFXFXFXFXFXFXFX+ % < p i c Z w.S.B.9.:.l.NXNXrXtXtXqXqX#X#XoX#X#XdXVXyXrXqX1X=X$XD.v.b.m.;X$X*XiX2X2X5X).A a V  .-.=.R Y F q 3 2 - ; @ @ @ X O FXFXFXFXFXFX",
"FXFXFXFXFXFXFXFXFX+ + , w w i V 1.V.n.>.) l.cXxX:X=X%X'.'.+X+X'.'.1XtXtXdXBXCXBXdXtX&XJ.v.' r.m.;X-X7XiX<X1X%X^ a x  . .<.4.R G a 3 6 1 1 8 @ 8 O X X FXFXFXFXFX",
"FXFXFXFXFXFXFXFXFX+ & 9 r p c :.B.t.>.) a.lXzX:X&X<X+X+X+X(.(.&XyXdXtXeX,X,XrXyXdXdXtX:XD.t.] y.J.Y.6XsX<X%X7X$.a d X.8.p.6.R U s 4 0 , 1 % % % @ O . FXFXFXFXFX",
"FXFXFXFXFXFXFXFXo $ < p p d :.n.0.` S e.jXzX:X*X<X3X+X(.(.).:XvXwXwX;XV.b.t.r.V.$XtX6X9XzXI.V.r.r.D.$XpX<X%X4Xf.x h V 1.p.p.R Y F w 4 6 1 ; % & % X . . FXFXFXFX",
"FXFXFXFXFXFXFXFX+ & < r p ..V.n.0.A ,.{.lX;X4X7X2X2X`.%X$X0X0X|.[./.k.h.9.) W W / ).$XJ.:XP.V.i.W ] U.tX7X-X%XF.B x c K O.1.=.U G s 5 6 2 1 - & % O X   # FXFXFX",
"FXFXFXFXFXFXFXFX+ , 9 p H f.H.f.` ;.h.>X;X=XiXiX7X<X=X$X0X>XL.e.e.u.Z.oXg.>.=.*.*.g..X$XJ.D.m.` } W b.eX5X-X-XU.W x b V } p.=.R G s 5 2 2 2 - - - @ X .   FXFXFX",
"FXFXFXFXFXFXFXo * < w v f.V.$.C C h.|.P.&XsXuX7X7X5X$X X}.xXXXL.g.e.3.z.l.kXQ.7.7.!.}..XG.b.u.>.) n ` ;X=X=X-XU.( B d m X.q.5.R G f w 6 4 1 1 2 1 % O . . FXFXFX",
"FXFXFXFXFXFXFX$ = 9 a ^ r.] W n +.G.Y.$XpXaX7X4X6XJ.h.!.{.jX}.h.e.3.l.Q.Q.Q.z.2.) 2.g.h.b.{ 0.a.A n W _.=X4X4XY.] C x m ! q.5.I I d 0 4 5 6 1 1 1 8 O X O FXFXFX",
"FXFXFXFXFXFXFX% < p a Q ( Q c C 8.S.$X8XgXaX4X*XM.r.l.Q.{.}.L.L.Z.{.{.l.g.e.w.3.-.Q -.9.] ] _ :.) T Q F.=X5X5XK.[ Q c c A p.5.I L G q 5 5 6 1 1 - 8 O X % FXFXFX",
"FXFXFXFXFXFXFX& < 0 t S B x i Z 0.J.8XaXuX4X*XK.' e.z.l.}.[.[.I.[.}.[.2.K V C Z ^ n ! X.` ] ) / ^ T ^ S.*X7X4XR.c.^ c m A p.5.I L J y q 5 6 1 1 - % 8 @ - FXFXFX",
"FXFXFXFXFXFXFX& , < a c c p d ^ ] M.7XuX7X4X*Xc.` >.a.[.XXXX>XL.k.[.{.3.A S m v d a d d Q Q ^ ^ B V *.J.*X7X*XM.n.! B n } j.5.I o.J q y 5 2 2 1 1 ; @ O % FXFXFX",
"FXFXFXFXFXFXFX: < 0 x c d p d H _ U.7XuX4X8X$X] ;.e.Z.>X0XvX Xu.;.a.[.a.2.) n x a y t s v x z C m T ,.:X6X8X=XM.A.Z Z n  .p.6.o.| M q q 5 6 2 6 1 % % % - FXFXFX",
"FXFXFXFXFXFX* < < w x x a p d B ] %X2X~.%X5Xb.Q 9.u.V.|.>XzXL.,.^ l.[.h.A.;.v a a a a d h a v n A 4.a.tXeX8X-XD.h.! Z n X.s.s.o.K b 5 q 5 2 6 6 2 & ; - FXFXFXFX",
"FXFXFXFXFXFX& 9 9 p m x y w x C b.2X~.^.).F.8.! e.>.u.L.>X>Xu.` 9.}.|.n.u.8.m a , & w s t a d i *.7.L.yX=X8XY.$Xf.+.B V O.E.W.I T h 5 q q 5 3 3 2 % % - FXFXFXFX",
"FXFXFXFXFXFX& 9 y 0 s w 0 w c ~ b.~.^.^.C.$.] +.,.` h.I.nX Xe.0.l.jXI.u.0.*.H a $ # * w e a d i 3.g..XrX=X5X&X_.p.>.B C 1.W.#.P J a 5 t e q q 3 1 % & = FXFXFXFX",
"FXFXFXFXFXFX< 9 4 < 9 0 0 s ^ W $.`.^.^.%.+./ ^ ,.i.I.jXnXP.u.f.[.nX|.n.` w.X.h : o , p r e p n e.L.:XeXyX9XV.u.;.! z ^ #.s.o.P J g q t e e q 6 1 & 2 & FXFXFXFX",
"FXFXFXFXFXFX< < , , < < 0 c P C $.`.~.`.C./ ^ Z i.{ I.nXnXP.h.[.cXZX>Xn.] e.| m i w p p q e h ,.{.XXrXyXtXY.i.;.A z N  .#.5.o.L M u e q e q 5 2 1 < 9 & FXFXFXFX",
"FXFXFXFXFXFX= = > , , 4 w c c B $.F.`.`.C.X.V c i.x.lXbXxXlXZ.Z.cXZXwXG.0.9.e.K c a w r i V =.g.mXbXyXyX:XS.9.*.l z W p.&.s.o.P b g e t g g 5 6 3 u r FXFXFXFXFX",
"FXFXFXFXFX* & & > : , 4 p d i C $.C.`.C.y.^ n c ;.m.nXZXNXnX X[.xXNXwXA.w.u.k.*.V m K | *.=.z.kX>XrXyX0X:XA.w.n l W @.W.E.%.o.K v g t a h g 9 q i l = FXFXFXFXFX",
"FXFXFXFXFX= : * $ > , 0 t a a Z +.&.`.%.w.Z c x ] I.zXNXZXZXzX>XxXBXNX.Xy.w.g.}.k.k.k.g.a.l.{.S.:XxXXXI.[.L.S l N $.&.s.W.&.1.H d e q h n h e u l 3 % FXFXFXFXFX",
"FXFXFXFXFX* * * + > < 0 0 t p Z +.%.).y.$.Z m x :.;XlXCXCXCXcXxXvXMXMX0XH.f.;.>.Z.oX[.[.}.|.|.;XXX}.L.Z.a.! l W ] j.&.&.s.q.| n a 0 e n z u r l u - O FXFXFXFXFX",
"FXFXFXFXFX* + $ > > < 4 0 0 i ^ +.%.&.y.8.! m b ` :X>XCXCXSXZXcXzX#X:XzX X_.P.y.f.f.9.u.P..X[.L.L.g.l.k.-.W ( r.%.&.%.%.2.K h u w e v N z i i z 9 $ O FXFXFXFXFX",
"FXFXFXFXFX$ + + $ % : 4 4 7 i  . .%.f.$.y.^ S m Q _.:XNXAXAXCXzX XH.:XG. X0XrX;XG.V.V.|./.k.L.L.l.}.{.l.t.r.r.$.&.%.%.q.K v u e q h S C z z N z < O O FXFXFXFXFX",
"FXFXFXFXFXFXo o $ $ : 4 , 7 x ^ X.@.$.y.f.X.A V Z b.T.rXAXAXBX X.Xk.H.J.V.[.0X;X_.G.H.;X>XXXXXjXjXjXl.S.R.U.b.%.%.%.p.O.n i e q u S _ _ ( ( ~ i & O O FXFXFXFXFX",
"FXFXFXFXFXFX  o + + & , < 0 a C  .O. .$.y.+.^ X.^ r.U.=XVXDXCX0XP.L.u..XS.[ u.XXXX X|.[. XXXjX{.u.{ v.M.Y.Y.).E.^.f.8.A i e w d Q ` ] [ ] [ Z 3 $ X o FXFXFXFXFX",
"FXFXFXFXFXFX. o + + $ : , 0 w l +. .X.+.$.+.1.:.Z 0.U.Y.tXSXDXCX>XG.h.V.|.m.' [ Z.P.L.u.i.>.` ] ' x.R.U.=X8XiX%XF.f...x r w h ) r.r.B.y.y.+.p % O O O FXFXFXFXFX",
"FXFXFXFXFXFX. o o + $ > < 4 0 s @. .P ..O.! X.<.X. .B.T.*XdXSXDXvX;XH.S. XP.c.[ [ y.B.r.` _ ' ' x.N.U.,XdXfX1X_.B.-.z p u n ` { t.b.y.y.8.h - @ O O FXFXFXFXFXFX",
"FXFXFXFXFXFX  .   + + $ , 0 y p Z X.^ X...V c X.X.Z q.-X4X7XdXAXAXvX;Xm.m.S.m.t.r.r.0.y.t.] [ c.M.U.Y.=X,X=XS.0.C B l l S ] { m.D.r.r.y.! 9 % $ $ + FXFXFXFXFXFX",
"FXFXFXFXFXFX      + + + , 9 y 0 d V ! X.X.V a V | J ! j.7XiX<XdXAXAXbXP.m.t.v.v.x.v.b.v.m.m.v.N.R.U.Y.$XY.u.` S S B z ) t.M.I.S.c.y.y. .p & $ O O @ FXFXFXFXFXFX",
"FXFXFXFXFXFX      o o + > < < 0 w s V ....H a x K P V  .).<X<X<XdXSXCXbX Xu.i.t.v.m.M.M.Y.Y.M.M.M.I.I.Z.e.D S ) S S 9.D.P.;X$XD.B.f.X.e = $ O O $ FXFXFXFXFXFXFX",
"FXFXFXFXFXFXFX      o O * & 3 < 9 w d -.+.H a a m K K S $.B.`.OX3XtXBXBXBXzXI.g.i.,.i.3.h.I.S.u.e.7.4.T M z N ) ;.V.$X,XrX$XF.C.y.X.u 2 & % $ $ FXFXFXFXFXFXFXFX",
"FXFXFXFXFXFXFXFX    . O $ % , 2 3 9 t Z :.X.x a i K K K ^ 8.$.`.@X3X3XVXMXyXzXnXjXQ.z.7.7.7.7.7.3.*.S S N ) ` u.J.$XT.Y.S.F.F.y. .d 3 : % & % @ FXFXFXFXFXFXFXFX",
"FXFXFXFXFXFXFXFXFXo o X O % % 2 < 3 0 h  .O.m a u v J K A  .! :.^.@X<X3XdXyXrXrX:X:X Xg.3.,.) ) >.>.>.e.m.I.$X&X=X$XY.K.C.C.f.p.m 9 , , & & $ FXFXFXFXFXFXFXFXFX",
"FXFXFXFXFXFXFXFXFXFX    X O % & 2 3 6 w J } } v e u b J K ! ! ! +.C.2X2X3XqXwXdXyXtX9X:XP.;X|.|.:X>X:XrXrX:X6X4X=X-XF.C.B.f.<.x 9 2 : : & $ FXFXFXFXFXFXFXFXFXFX",
"FXFXFXFXFXFXFXFXFXFXFXX X X O $ 1 3 2 3 a J S A d e h v J T ,.Q A ` B.`.@X@X+XqXwXdXMXwXyXwXrXrX9X9X1X1X6X5X8X3X%X).C.f.y.1.G w 3 2 , & % FXFXFXFXFXFXFXFXFXFXFX",
"FXFXFXFXFXFXFXFXFXFXFXFXFXO X @ - 2 2 2 5 j M K n e a d h V =.*.V A  .8.j.`.~.@X@X2X3XpXqXpXtX3X1X1X6X6X%X).F.C.s.q.<.@.P c w 3 3 : % $ FXFXFXFXFXFXFXFXFXFXFXFX",
"FXFXFXFXFXFXFXFXFXFXFXFXFXFXO @ @ % 1 6 5 k j G m i e e e g J 2.T V Z }  .1.j.^.(.`.~.<X2X2X2X<X<X&X%X).C.f.w.8.,.A V v u e 0 < : % $ FXFXFXFXFXFXFXFXFXFXFXFXFX",
"FXFXFXFXFXFXFXFXFXFXFXFXFXFXFXX 8 @ ; 1 6 q g a h d e e e 5 g J J T *.*.*.} K ..q.j.^.^.^.^.^.^.E.^.^.j.y.w.+.} } v d u q 6 & % $ FXFXFXFXFXFXFXFXFXFXFXFXFXFXFX",
"FXFXFXFXFXFXFXFXFXFXFXFXFXFXFXFXFXO 8 ; 6 q q q g g e q e 9 q u z M M T 4.9.<.K P K | 1.q.w.-.O...O.+.:. . .A V b h d 0 2 : % % + FXFXFXFXFXFXFXFXFXFXFXFXFXFXFX",
"FXFXFXFXFXFXFXFXFXFXFXFXFXFXFXFXFXFXO @ - 3 q q q e q q 9 q 0 q g g g M T 2.a.2.T K J H A K A S m b h h h h g e 0 0 6 1 & & @ @ FXFXFXFXFXFXFXFXFXFXFXFXFXFXFXFX",
"FXFXFXFXFXFXFXFXFXFXFXFXFXFXFXFXFXFXFXO 8 % 2 q q g q 5 0 6 0 q r q r g g M T T K J M b h h h h h h g e q q 5 5 2 1 & ; $ $ + FXFXFXFXFXFXFXFXFXFXFXFXFXFXFXFXFX",
"FXFXFXFXFXFXFXFXFXFXFXFXFXFXFXFXFXFXFXFXFXO ; 2 q e g q q q 3 5 5 5 5 q e h M M b m M M h g g g g g g q 5 4 2 1 - ; % % @ FXFXFXFXFXFXFXFXFXFXFXFXFXFXFXFXFXFXFX",
"FXFXFXFXFXFXFXFXFXFXFXFXFXFXFXFXFXFXFXFXFXFXFXFX; 5 5 y q 5 q 5 6 2 2 2 q q g g g h h g h g q 5 4 5 5 5 4 2 1 ; % + @ FXFXFXFXFXFXFXFXFXFXFXFXFXFXFXFXFXFXFXFXFX",
"FXFXFXFXFXFXFXFXFXFXFXFXFXFXFXFXFXFXFXFXFXFXFXFXFXFX; 6 5 5 5 q q q 2 2 2 5 q 5 q r q q 5 q q 5 2 2 2 1 1 : - % FXFXFXFXFXFXFXFXFXFXFXFXFXFXFXFXFXFXFXFXFXFXFXFX",
"FXFXFXFXFXFXFXFXFXFXFXFXFXFXFXFXFXFXFXFXFXFXFXFXFXFXFXFXFX1 2 2 9 q q 3 2 2 6 5 3 3 3 9 5 6 6 5 2 1 1 % FXFXFXFXFXFXFXFXFXFXFXFXFXFXFXFXFXFXFXFXFXFXFXFXFXFXFXFX",
"FXFXFXFXFXFXFXFXFXFXFXFXFXFXFXFXFXFXFXFXFXFXFXFXFXFXFXFXFXFXFXFX- 1 6 3 6 2 2 5 5 5 2 2 2 2 FXFXFXFXFXFXFXFXFXFXFXFXFXFXFXFXFXFXFXFXFXFXFXFXFXFXFXFXFXFXFXFXFXFX",
"FXFXFXFXFXFXFXFXFXFXFXFXFXFXFXFXFXFXFXFXFXFXFXFXFXFXFXFXFXFXFXFXFXFXFXFXFXFXFXFXFXFXFXFXFXFXFXFXFXFXFXFXFXFXFXFXFXFXFXFXFXFXFXFXFXFXFXFXFXFXFXFXFXFXFXFXFXFXFXFX",
"FXFXFXFXFXFXFXFXFXFXFXFXFXFXFXFXFXFXFXFXFXFXFXFXFXFXFXFXFXFXFXFXFXFXFXFXFXFXFXFXFXFXFXFXFXFXFXFXFXFXFXFXFXFXFXFXFXFXFXFXFXFXFXFXFXFXFXFXFXFXFXFXFXFXFXFXFXFXFXFX",
"FXFXFXFXFXFXFXFXFXFXFXFXFXFXFXFXFXFXFXFXFXFXFXFXFXFXFXFXFXFXFXFXFXFXFXFXFXFXFXFXFXFXFXFXFXFXFXFXFXFXFXFXFXFXFXFXFXFXFXFXFXFXFXFXFXFXFXFXFXFXFXFXFXFXFXFXFXFXFXFX",
"FXFXFXFXFXFXFXFXFXFXFXFXFXFXFXFXFXFXFXFXFXFXFXFXFXFXFXFXFXFXFXFXFXFXFXFXFXFXFXFXFXFXFXFXFXFXFXFXFXFXFXFXFXFXFXFXFXFXFXFXFXFXFXFXFXFXFXFXFXFXFXFXFXFXFXFXFXFXFXFX",
"FXFXFXFXFXFXFXFXFXFXFXFXFXFXFXFXFXFXFXFXFXFXFXFXFXFXFXFXFXFXFXFXFXFXFXFXFXFXFXFXFXFXFXFXFXFXFXFXFXFXFXFXFXFXFXFXFXFXFXFXFXFXFXFXFXFXFXFXFXFXFXFXFXFXFXFXFXFXFXFX",
"FXFXFXFXFXFXFXFXFXFXFXFXFXFXFXFXFXFXFXFXFXFXFXFXFXFXFXFXFXFXFXFXFXFXFXFXFXFXFXFXFXFXFXFXFXFXFXFXFXFXFXFXFXFXFXFXFXFXFXFXFXFXFXFXFXFXFXFXFXFXFXFXFXFXFXFXFXFXFXFX",
"FXFXFXFXFXFXFXFXFXFXFXFXFXFXFXFXFXFXFXFXFXFXFXFXFXFXFXFXFXFXFXFXFXFXFXFXFXFXFXFXFXFXFXFXFXFXFXFXFXFXFXFXFXFXFXFXFXFXFXFXFXFXFXFXFXFXFXFXFXFXFXFXFXFXFXFXFXFXFXFX",
"FXFXFXFXFXFXFXFXFXFXFXFXFXFXFXFXFXFXFXFXFXFXFXFXFXFXFXFXFXFXFXFXFXFXFXFXFXFXFXFXFXFXFXFXFXFXFXFXFXFXFXFXFXFXFXFXFXFXFXFXFXFXFXFXFXFXFXFXFXFXFXFXFXFXFXFXFXFXFXFX"
};
