/* XPM */
static char *c71f11a2b74d480f863b1da93d2f1d92KLLzPUN5PKiZr2gK[] = {
/* columns rows colors chars-per-pixel */
"70 70 251 2 ",
"   c None",
".  c #110F11",
"X  c #141215",
"o  c #14161A",
"O  c #1A161B",
"+  c #16191D",
"@  c #1A191E",
"#  c #191315",
"$  c #0C0E11",
"%  c #21191F",
"&  c #171B21",
"*  c #1B1C24",
"=  c #1C1E2A",
"-  c #141721",
";  c #1C1F33",
":  c #231E2A",
">  c #221C23",
",  c #1D222D",
"<  c #192027",
"1  c #1E2333",
"2  c #1E2439",
"3  c #21212D",
"4  c #232434",
"5  c #23263B",
"6  c #242A3C",
"7  c #2A2A3E",
"8  c #262638",
"9  c #252B43",
"0  c #2A2B44",
"q  c #262B4B",
"w  c #2A2D4C",
"e  c #242643",
"r  c #27314A",
"t  c #2B314C",
"y  c #293447",
"u  c #2A2E53",
"i  c #2C2E5B",
"p  c #272C52",
"a  c #2B3253",
"s  c #2D335B",
"d  c #2E3C5A",
"f  c #2B3952",
"g  c #313354",
"h  c #32345B",
"j  c #333A5B",
"k  c #323551",
"l  c #312D6C",
"z  c #2E3462",
"x  c #2F3765",
"c  c #313563",
"v  c #323A63",
"b  c #32356C",
"n  c #343B6C",
"m  c #39326A",
"M  c #332C73",
"N  c #372D79",
"B  c #343473",
"V  c #353B73",
"C  c #393C73",
"Z  c #35357A",
"A  c #363A7A",
"S  c #3A3C7D",
"D  c #3A347A",
"F  c #2F2D65",
"G  c #1F2342",
"H  c #364357",
"J  c #36446A",
"K  c #3B4474",
"L  c #3A447C",
"P  c #384779",
"I  c #3C557C",
"U  c #3E5368",
"Y  c #424678",
"T  c #445779",
"R  c #43526A",
"E  c #434D5D",
"W  c #3C2E8D",
"Q  c #3B3B83",
"!  c #3B3E8A",
"~  c #3A3486",
"^  c #3D2D92",
"/  c #3D3892",
"(  c #403D89",
")  c #412A99",
"_  c #433A97",
"`  c #4638A7",
"'  c #4B39B6",
"]  c #4B2FB2",
"[  c #3A4383",
"{  c #3D4B83",
"}  c #3C448B",
"|  c #3D4A8C",
" . c #374180",
".. c #3C5688",
"X. c #3E4491",
"o. c #3D4A92",
"O. c #3F4999",
"+. c #3F5295",
"@. c #3E6897",
"#. c #3C76A4",
"$. c #3E74AA",
"%. c #42438B",
"&. c #444986",
"*. c #455987",
"=. c #43439C",
"-. c #424B9C",
";. c #454797",
":. c #41539C",
">. c #495598",
",. c #575A96",
"<. c #524E9E",
"1. c #4A679A",
"2. c #44759D",
"3. c #4F6294",
"4. c #4A44A3",
"5. c #4C4CA5",
"6. c #4847A8",
"7. c #4354A4",
"8. c #455CA3",
"9. c #4555AB",
"0. c #4C53AB",
"q. c #4B58A6",
"w. c #5259A9",
"e. c #4A4DB4",
"r. c #4C44BB",
"t. c #4B48B8",
"y. c #5349B8",
"u. c #465CB3",
"i. c #4B5AB3",
"p. c #4C57BA",
"a. c #535BB8",
"s. c #4667A8",
"d. c #5766AA",
"f. c #4579A9",
"g. c #4962B5",
"h. c #4769B5",
"j. c #5768B8",
"k. c #4579BA",
"l. c #5C76B6",
"z. c #5276AA",
"x. c #626BB5",
"c. c #6173BC",
"v. c #687BB9",
"b. c #6D74AB",
"n. c #503FC3",
"m. c #4E4AC6",
"M. c #4E55C5",
"N. c #5458C6",
"B. c #544BD4",
"V. c #5559D7",
"C. c #534AC6",
"Z. c #4A67C5",
"A. c #5C6BCB",
"S. c #5769C6",
"D. c #4979C7",
"F. c #5C76C8",
"G. c #5667D6",
"H. c #4E78D7",
"J. c #5C72D3",
"K. c #5B7CDC",
"L. c #5978D6",
"P. c #4F65D6",
"I. c #647AC5",
"U. c #6679C8",
"Y. c #657CD6",
"T. c #626DD1",
"R. c #586AE9",
"E. c #5677E6",
"W. c #4F79E3",
"Q. c #5B6CE2",
"!. c #5485B4",
"~. c #7685BB",
"^. c #6C81BA",
"/. c #3CA9D8",
"(. c #4788C6",
"). c #4493CD",
"_. c #4C8ADA",
"`. c #5D87D9",
"'. c #4998D6",
"]. c #5A99D5",
"[. c #569DCD",
"{. c #6986C8",
"}. c #728BCB",
"|. c #7588C6",
" X c #6483DB",
".X c #6489DB",
"XX c #6989D6",
"oX c #738BD6",
"OX c #6C95DB",
"+X c #7896D9",
"@X c #6A97CA",
"#X c #45A7D9",
"$X c #57A4D5",
"%X c #4BB3DE",
"&X c #7CA3DD",
"*X c #61AADA",
"=X c #5988E8",
"-X c #4C98E8",
";X c #539BEC",
":X c #5898E9",
">X c #5986F3",
",X c #5699F3",
"<X c #4D91EC",
"1X c #6388E5",
"2X c #6493E4",
"3X c #6C9DEB",
"4X c #6997E7",
"5X c #779AE4",
"6X c #6E93E7",
"7X c #4AA7E8",
"8X c #58A8EC",
"9X c #49B5E9",
"0X c #59B6E9",
"qX c #52A4F4",
"wX c #56ADF6",
"eX c #4BB7F3",
"rX c #56B6F5",
"tX c #4EA3F3",
"yX c #6BA4EE",
"uX c #66A7ED",
"iX c #79A5EA",
"pX c #67B6EA",
"aX c #79B7EA",
"sX c #67A7F3",
"dX c #6CBBF3",
"fX c #66B3F4",
"gX c #78B8F4",
"hX c #78AEF1",
"jX c #3ED4F6",
"kX c #48C6F4",
"lX c #54C5F6",
"zX c #4AD5F5",
"xX c #56D6F6",
"cX c #74C2F3",
"vX c #75C5F7",
"bX c #6ECBF3",
"nX c #52E0F7",
"mX c #859AD1",
"MX c #86A9E7",
"NX c #89B6EC",
"BX c #99BCE9",
"VX c #8ABBF2",
"CX c #95B4EE",
"ZX c #93AEEB",
"AX c #88C9F6",
"SX c #9AD6F8",
"DX c #93C7EF",
"FX c #A9CDF4",
"GX c #A7D7F8",
"HX c #B8E7FB",
"JX c #B3E9FB",
/* pixels */
"                                                                                                                                            ",
"                                                                                                                                            ",
"                                                                                                                                            ",
"                                                                                                                                            ",
"                                                                                                                                            ",
"                                                                                                                                            ",
"                                                                                                                                            ",
"                                                o + + + + + + + + + + + + @ + +                                                             ",
"                                            o o + + + & & * * = , , 1 4 , , , , * + + o o                                                   ",
"                                          o o + + & * = , 4 4 4 4 9 9 q q q 9 6 5 4 , < + o o                                               ",
"                                      o o o + + * , 4 6 6 9 9 q r a w q w w 9 9 9 9 9 6 5 , * +                                             ",
"                                  o o + + & * , 1 2 9 p p w p s s s a w w a q 9 9 9 t r t f 6 , * +                                         ",
"                                o o + & , 2 9 a d J K P K K K P { A b c a a a a r 9 t a s v J y 5 , * o                                     ",
"                                o + * 1 9 a d J *.1.1.*.*.*.3.1.z.z.z.>.L n z s a r r s c c J J f y 5 * O #                                 ",
"                              + & , 5 y f H J P { o.u.h.u.h.k.(.(.(.[.@X!.1.*.L n z a a s n V J J H f 6 * # o #                             ",
"                            + * 1 9 r a d v J Q / ` M.W.W.W.<X-X7X9X9X9X0X[.!.1.*.[ V c s v K A P I J y 8 * # # # #                         ",
"                          + * 1 6 a v b V A ^ ` ' C.B.P.M.m.B.V.P.E.qXeXzXzX0X$X!.1.:.| V s n P L *.*.H y 4 * @ @ # # #                     ",
"                        + & , 6 9 t z Z ^ ` t.m.r.r.M.N.S.A.Y.XX6X5X5XgXvXlXzXxXbX[.z.s.8.n s K [ o.*.R k 0 4 * @ O # # X                   ",
"                      + & = 1 6 9 r i M W ` t.S.L..XXXXX{.}.}.}.MXDXDXDXGXAXdXxXnXbX*X!.l.| z n  .} { T H y 9 , * @ O o # X                 ",
"                    o & * 1 6 9 q s A O.p.S.J.XX{.}.{.I.j.a.i.0.0.I..XOXNXAXgXsXrXzXxXpX].h.A c A L [ T R H r 5 = * + # # X                 ",
"                    + * , 6 q i A -.e.S.J.p.w.c.c.j.F.2X2X=X2XL.J.L.K.2XMXiXiX3XsXrXkXxX0X].8.B b V } L T E g q 8 3 * + o # #               ",
"                  + & , 6 q b ! 6.p.J.S.5.d.}.XX.X.X=X:X:XuXdXcXvXdX:X:XhX5X X.XyXsXeXkXkXrX].o.b z } [ T R H a 9 4 = & O o #               ",
"                  + * 5 p z Q =.g.A.i.<.|.BXMXyXuXdXdXpXpXaXDXDXAXgXfX8XuX=XV.G.J.3X,XeXeXeXrX(.V s Q } { T R f 9 4 3 * + O # #             ",
"                o & 2 q i z [ j.S.5.;.|.BXNXuX8X8XpX*X].].*XpXcXAXAXgXfX,X=XN.t.m.J.1XqXkX9X9X-X} a V } | *.T J q 8 4 : > + + # #           ",
"                + , 9 q s  .i.a.5.%.v.ZXiX:X;X-X$X$X[.].8XdXfXfXgXAXSXAXvXuXG.' ` M.1X=XlX9X7X8X7.a v | -.1.T U a 5 8 3 * @ * O # X         ",
"              o & 5 q p A i.e.=.( d.MXiX:X7X7X$X'.).].hXVXgX2XL.G.G.=XuXdXuX3XY.a.p.N.E.wXlX-X8Xh.s s | g.s.*.U d 9 6 4 = * * + # X         ",
"              o = e q c i.N.4.Q >.+X5X;XeX9X9X'.'.2XhX+XOX@Xj.0._ W W e._.=X2X2XA.0./ t.=XrX-X-XH.b z n X.8.*.R J q 6 4 3 = = * o X .       ",
"              & 1 q s 8.L.j.=.-.U.6X:XkXkX9X7X<X2XiXXXw.w.j.{.{.<.&.Y &.F.1XK.L.N.4.Q W L.wX<X<XE.~ z x S :.3.T J a 8 4 4 3 3 : O # X       ",
"            o = 5 p | S.0.A Q S. X=XlXzXeXrX;XK.oX&X+Xc.d.q.d.v.mX~.,.,.^.+X XN.p.5.S M p.,X,X<XE.) x s C :.1.T J a 6 8 4 3 4 : @ # # #     ",
"            & 1 q z 4.` ~ B -.L.E.rXnXeXtX;XS.c.{.+X+Xc.d.x.~.^.~.x.<.%.>.j.p.r.` w.Q m 4.=X,XqXE.` B z V :.s.T P d 6 7 8 4 3 : % # O       ",
"            * 5 q s W D z Z 0.K.8XzXzXtX<Xm.w.v.|.|.U.U.I.}.v.d.>.-.;.;.A ;.=.` / =.%.Y =.=XwXrXG.' Z c V :.s.T I v 9 7 8 4 3 : % O O       ",
"            = 2 6 s B z s A 6.K.lXjXwX,XP.` q.l.}.oXXXXXI.}.v.Y C b b b z n S _ ( ! A Y 5.=XeXwXP.M.A b B 8.f.T ..v 0 0 8 4 3 3 @ O &       ",
"            , 1 9 z z a s A ` E.kXeXqX;X' _ w.I.&XMX5Xj.q.c.v.>.( V z a t a c b B Z b K w.:XrXqXV.S.Z B V 8.2...{ j 0 0 4 4 4 , * + *       ",
"            1 2 q b s p s B ` -X9X7XwXH./ 5.a.A.5XMXXX6.( v.I.S.0.B a a t a s s z b S *.F.fXwX,XG.j.Z V A s.2.*.L j 7 9 4 4 8 4 * > :       ",
"          = 2 e a n p q s Z Z.9X).(._.e.! 5.4.S.oXiXF.;.q.+XU.N.i.A a 2 1 a a t s i &.d.OXfXqX=X`.h.X.B Q s.f...P a 9 r 5 8 5 4 * * =       ",
"          = G 9 q a 9 9 z ~ Z./.(.(.u.=.;.;.4.U.5X5Xj.4.I.mXA.6.=.P a o $ 4 a w s s >.c.yXsXwX:X`.g.X.B } f.2.P K t 0 t 0 0 5 4 * = =       ",
"          1 e 2 4 9 6 q A ~ u.).).(.6.X.! ;.y.oXMX+Xj.j.+XZXJ.6.5.&.c 1 & 9 w q w V d.{.yXfXsXA.i._ B N +.2.@.P J w 0 0 w 0 4 , = 5         ",
"          ; 2 , 1 4 6 s A B u.'.#X).7.A V ;.y.MXCX+Xj.F.BXFXOXe.5.>.n s w w q p n >.mXMXgXgXK.e.;.B l ~ @.2...P n w q w w 9 8 4 e 5         ",
"          = , = , 2 9 s z B 9.(.).D.O.V n =.V.CXDXMXXXF.NXDX4Xa.6.j.&.b s s n L ,.v.MXgXgXyXL.w.Q F N :.!.f...L c g a a g 9 5 q i ;         ",
"          = = * , 6 r a a B :.(.).u.} n c 4.Q.CXFXBXMXOXNXSXaXS.0.l.v.q.>.d.q.,.~.U.6XgX5X XXX>.z M =.f.f.f.+.L s t w s c w u z e O         ",
"          = & & , 6 9 r a A o.$.D.9.} n z 0.1XVXGXFXDXMXNXAXVX.Xp.-.w.{.@X{.{.}.Y. X5X+XU.c.q.b M 4.f.#.f.s.:.n a 9 a B i q i p = #         ",
"          - + + , 6 6 9 p A | s.h.9.X.V c =.4XMXHXHXFXBXMXyXiX5X.XL.p.g.i.0.F..XXX{.I.j.c.d.Q ~ 6.h.#.@.1.| c a 0 t b M i p F e O #         ",
"          + + + = 4 5 6 p ! } s.h.g.X.A n ! 1X3XGXHXFXMXoX`.`.Y.5XhX`.L.S.F..XF.I.{.|.|.{.j.r.t.u.#.@.s.:.n a q 0 c ~ M l N l 4 #           ",
"          o o + & , 6 5 a Q } +.7.u.-.S A Q V.1XAXHXGX5XXXS. XJ.S.+XOX XY. XOX&X&XmX+X{.S.G.R.P.s.$.s.7.S i q q c ( ) ) ^ ^ p * #           ",
"          X o + + , 1 5 a b X.| o.9.7.} } Q M.R.sXJXHXVX XS.a..XM.' U.+XXXU.U.{.|.x.4.] B.E.>X;X).D.g.} c q q n _ ` t.' e.Q 4 O #           ",
"          X X o + * 1 5 9 s -.} [ -.O.o.:.Q 7.E.>XvXHXHXiXY.A.L. Xr.] y.S.a.` ) ) ) ] B.R.,XbXlX-XD.8.b w p B ` r.N.p.i.o.q & # o           ",
"          X X o o & , 6 9 a [  . .o. .b { L ! D.<XrXvXHXGX3XJ.A.J.N.r.t.e.p.e.` ` r.B.R.>XsXfX:XZ.X.B i i ~ ' ' N.p.e.6.i , + + o           ",
"          . X o o + < 6 9 y z A  .| P s n L A +.-XkX9XAXHXGX5XN.y.C.C.n.m.t.M.M.m.B.V.R.E.>XJ.4.D B M l _ C.G.J.M.p.i.A 5 & + & +           ",
"            . X o o & 1 e 6 r s L o.P s s L K A g.7X9X7XAXJXGXMXA.e.y.C.C.V.G.=XV.V.G.J.F.j.&.D ( Z S 0.J.1X1XP.Z.u.A 5 * + + +             ",
"            . X X o + = 2 4 9 r n -.[ s a n L K } u.).#X9XcXSXSXNXoXx.w.<.5.w.I.U.j.d.,.T C m M ~ 4.J.=X3X2XH.Z.9.A 9 , * & &               ",
"              . X # O & = 4 4 9 a } X.n a s S L L ;.O.D.#X9XdXAXgXhXMX+X|.b.,.,.,.,.>.%.S ~ _ 6.A.=X=XE.G.H.H.g.} q 1 = = * +               ",
"                X # # + * 3 4 4 9 n ;.L s w c K L Q ! ! h.#X9X0XgXgXhXyX4X.XF.a.w.w.j.j.S.U. X:X,X,X=XH.D.D.g.+.s 5 1 = = &                 ",
"                  X # # + * 4 4 8 t K S C w p c J L %.S ! g.'.9X%X0XaXaXgXgXuXyX3X3XyXyXuXfXfXwXwX;X_.D.g.h.| p 4 4 , = &                   ",
"                      # # + = 4 4 6 j n S z w h h J &.%.C ! 9.D.#X#X%X0XpXcXcXdXdXfX8X8X8XqX;X:X'.D.h.s.:.[ s 9 4 1 * &                     ",
"                        O O * = 4 8 t j J n u w w g K >.K C [ X.8.k.).'.'.7X9X9X9X9X9X7X;X_.Z.u.7.;.[ V c p 9 4 , * &                       ",
"                          O O * : 4 0 t a s s q w 9 a C L K &.%.%.[ +.s.k.(.(.(.(.(.(.D.(.h.9.-.X.S c s w 5 4 = &                           ",
"                              O % 3 9 9 w g u q 9 q 9 w c v K &.>.>.{ P L | :.7.-.o.| | o.} } S n v s t 6 , * &                             ",
"                                # * 4 5 0 w w 0 9 9 9 0 u g h v { 1.>.&.K J n C C C b h h a g w 0 6 6 4 = * + +                             ",
"                                  # @ : 5 0 g 0 9 6 6 9 0 9 w g h J Y C n n v g g g h h a 0 9 6 4 4 = * & +                                 ",
"                                        : 8 0 t 0 9 7 7 8 4 8 9 t j j c v v v h t 0 0 w 0 9 8 4 3 * & + O                                   ",
"                                            3 4 7 0 7 0 9 8 4 4 5 0 0 q w q 0 w w 6 4 4 4 4 4 : > &                                         ",
"                                                  4 4 8 9 0 5 5 4 8 6 5 9 6 8 8 8 8 4 3 : * *                                               ",
"                                                        4 4 8 8 4 8 8 7 8 4 4 8 3                                                           ",
"                                                                                                                                            ",
"                                                                                                                                            ",
"                                                                                                                                            ",
"                                                                                                                                            ",
"                                                                                                                                            ",
"                                                                                                                                            ",
"                                                                                                                                            "
};
