/* XPM */
static char *result[] = {
/* columns rows colors chars-per-pixel */
"80 80 248 2 ",
"   c #0E1112",
".  c #141214",
"X  c #191316",
"o  c #15161A",
"O  c #1A161B",
"+  c #16191D",
"@  c #1A191E",
"#  c #0E0C0E",
"$  c #171B22",
"%  c #1B1C24",
"&  c #1C1E2A",
"*  c #171925",
"=  c #1D1E31",
"-  c #211E2A",
";  c #231C24",
":  c #1D212C",
">  c #1B2227",
",  c #1E2432",
"<  c #1E2439",
"1  c #22212D",
"2  c #232434",
"3  c #23263B",
"4  c #242A3D",
"5  c #292A3D",
"6  c #252738",
"7  c #28303D",
"8  c #22181D",
"9  c #232642",
"0  c #252B43",
"q  c #2A2B44",
"w  c #262C4B",
"e  c #2A2D4B",
"r  c #26264B",
"t  c #2A324C",
"y  c #293247",
"u  c #2A2D53",
"i  c #2C2E5B",
"p  c #272C51",
"a  c #2B3253",
"s  c #2C3B53",
"d  c #2D335C",
"f  c #2E3C59",
"g  c #313253",
"h  c #32345B",
"j  c #333C5A",
"k  c #343C4D",
"l  c #2E2D64",
"z  c #322D6A",
"x  c #2E3463",
"c  c #2F3666",
"v  c #313564",
"b  c #333A64",
"n  c #32356C",
"m  c #333B6B",
"M  c #393D68",
"N  c #362D78",
"B  c #343473",
"V  c #353C71",
"C  c #36357A",
"Z  c #363B7B",
"A  c #3A3C7D",
"S  c #3A3678",
"D  c #433B79",
"F  c #36445B",
"G  c #354468",
"H  c #364374",
"J  c #3A4272",
"K  c #3B437B",
"L  c #3C4C7A",
"P  c #384878",
"I  c #3E567B",
"U  c #3E546A",
"Y  c #47556A",
"T  c #434879",
"R  c #445777",
"E  c #444F5F",
"W  c #392B85",
"Q  c #3A3482",
"!  c #3B3C84",
"~  c #3B338B",
"^  c #3A3C86",
"/  c #3E3996",
"(  c #3E2D95",
")  c #413C88",
"_  c #412C9B",
"`  c #453B9A",
"'  c #4729A8",
"]  c #4739A8",
"[  c #4A3AB5",
"{  c #5036B7",
"}  c #3B4384",
"|  c #3C4B84",
" . c #3D438C",
".. c #3D4B8C",
"X. c #374484",
"o. c #3B5385",
"O. c #3E4A92",
"+. c #3F4796",
"@. c #3F5396",
"#. c #3E6C97",
"$. c #3F5AA8",
"%. c #3D6AA4",
"&. c #3C79A3",
"*. c #444788",
"=. c #455988",
"-. c #424B95",
";. c #434499",
":. c #424D9B",
">. c #4B4B9C",
",. c #474795",
"<. c #425295",
"1. c #42539C",
"2. c #485797",
"3. c #555A99",
"4. c #525788",
"5. c #476899",
"6. c #4E6C99",
"7. c #62679D",
"8. c #444DA4",
"9. c #4B4CA3",
"0. c #4847A8",
"q. c #445CA4",
"w. c #4855A7",
"e. c #525AA9",
"r. c #4B48B7",
"t. c #5148B8",
"y. c #4A58B6",
"u. c #5358B7",
"i. c #5149A7",
"p. c #4667A9",
"a. c #5866AB",
"s. c #4575AA",
"d. c #5574A9",
"f. c #4966B6",
"g. c #5B6CB4",
"h. c #5867B9",
"j. c #4575B8",
"k. c #5A74B9",
"l. c #6475BA",
"z. c #6771AD",
"x. c #5036C6",
"c. c #4D49C3",
"v. c #5348C3",
"b. c #4E56C5",
"n. c #535CC2",
"m. c #5557C8",
"M. c #555AD8",
"N. c #5152D6",
"B. c #4C67C5",
"V. c #5668C8",
"C. c #4A77C6",
"Z. c #5D73C4",
"A. c #5A76CB",
"S. c #5A6DD3",
"D. c #5667D8",
"F. c #4E79D7",
"G. c #5B75D3",
"H. c #5C7CD4",
"J. c #5877DA",
"K. c #4E68D7",
"L. c #657BC6",
"P. c #647CD6",
"I. c #6B74D3",
"U. c #576AE7",
"Y. c #5777E6",
"T. c #527DE6",
"R. c #5659E3",
"E. c #4584BA",
"W. c #5184AF",
"Q. c #7485BB",
"!. c #6980BB",
"~. c #3AA6D5",
"^. c #4587C5",
"/. c #5A89C8",
"(. c #4999CF",
"). c #4C89D6",
"_. c #5D85DB",
"`. c #4599D5",
"'. c #579CD3",
"]. c #5D9CCB",
"[. c #6B85C8",
"{. c #7689C7",
"}. c #7892CD",
"|. c #6887D8",
" X c #738DDA",
".X c #6793DA",
"XX c #7696D8",
"oX c #6896C9",
"OX c #42A7D8",
"+X c #56A6D9",
"@X c #47B3DE",
"#X c #6AA8D9",
"$X c #5A89E7",
"%X c #4D99E7",
"&X c #5898E9",
"*X c #539CF3",
"=X c #5897F4",
"-X c #518AEE",
";X c #658BE4",
":X c #6796E7",
">X c #789AE4",
",X c #609BF3",
"<X c #4AA9E8",
"1X c #57A8EC",
"2X c #49B4E8",
"3X c #58B8EA",
"4X c #4DA6F4",
"5X c #53ABF4",
"6X c #57A5F4",
"7X c #4AB9F4",
"8X c #57B7F6",
"9X c #68A3EB",
"0X c #77A6EA",
"qX c #66B8EB",
"wX c #7AB8EB",
"eX c #67A9F3",
"rX c #71ABF2",
"tX c #69B5F3",
"yX c #77B8F4",
"uX c #3DD0F4",
"iX c #48C8F4",
"pX c #58C6F7",
"aX c #49D5F5",
"sX c #4DD0F2",
"dX c #79C5F6",
"fX c #67D0F6",
"gX c #51E1F8",
"hX c #67E2F7",
"jX c #829AD6",
"kX c #8897C2",
"lX c #829CE4",
"zX c #86A9E8",
"xX c #89B5EA",
"cX c #9AB6E7",
"vX c #88B9F1",
"bX c #95BDF2",
"nX c #92ACEA",
"mX c #9AB4E4",
"MX c #87C4F3",
"NX c #99C6F3",
"BX c #9AD6F9",
"VX c #89C9EE",
"CX c #A9D7F8",
"ZX c #A8C9F3",
"AX c #B7E7FA",
"SX c #ACE7FA",
"DX c #C4F1FD",
"FX c None",
/* pixels */
"FXFXFXFXFXFXFXFXFXFXFXFXFXFXFXFXFXFXFXFXFXFXFXFXFXFXFXFXFXFXFXFXFXFXFXFXFXFXFXFXFXFXFXFXFXFXFXFXFXFXFXFXFXFXFXFXFXFXFXFXFXFXFXFXFXFXFXFXFXFXFXFXFXFXFXFXFXFXFXFX",
"FXFXFXFXFXFXFXFXFXFXFXFXFXFXFXFXFXFXFXFXFXFXFXFXFXFXFXFXFXFXFXFXFXFXFXFXFXFXFXFXFXFXFXFXFXFXFXFXFXFXFXFXFXFXFXFXFXFXFXFXFXFXFXFXFXFXFXFXFXFXFXFXFXFXFXFXFXFXFXFX",
"FXFXFXFXFXFXFXFXFXFXFXFXFXFXFXFXFXFXFXFXFXFXFXFXFXFXFXFXFXFXFXFXFXFXFXFXFXFXFXFXFXFXFXFXFXFXFXFXFXFXFXFXFXFXFXFXFXFXFXFXFXFXFXFXFXFXFXFXFXFXFXFXFXFXFXFXFXFXFXFX",
"FXFXFXFXFXFXFXFXFXFXFXFXFXFXFXFXFXFXFXFXFXFXFXFXFXFXFXFXFXFXFXFXFXFXFXFXFXFXFXFXFXFXFXFXFXFXFXFXFXFXFXFXFXFXFXFXFXFXFXFXFXFXFXFXFXFXFXFXFXFXFXFXFXFXFXFXFXFXFXFX",
"FXFXFXFXFXFXFXFXFXFXFXFXFXFXFXFXFXFXFXFXFXFXFXFXFXFXFXFXFXFXFXFXFXFXFXFXFXFXFXFXFXFXFXFXFXFXFXFXFXFXFXFXFXFXFXFXFXFXFXFXFXFXFXFXFXFXFXFXFXFXFXFXFXFXFXFXFXFXFXFX",
"FXFXFXFXFXFXFXFXFXFXFXFXFXFXFXFXFXFXFXFXFXFXFXFXFXFXFXFXFXFXFX+ * * & * FXFXFXFXFXFXFXFXFXFXFXFXFXFXFXFXFXFXFXFXFXFXFXFXFXFXFXFXFXFXFXFXFXFXFXFXFXFXFXFXFXFXFXFX",
"FXFXFXFXFXFXFXFXFXFXFXFXFXFXFXFXFXFXFXFXFXFXFXFX        o . o + $ * = * = < < = : * FXFXFXFXFXFXFXFXFXFXFXFXFXFXFXFXFXFXFXFXFXFXFXFXFXFXFXFXFXFXFXFXFXFXFXFXFXFX",
"FXFXFXFXFXFXFXFXFXFXFXFXFXFXFXFXFXFXFXFXFXFXFX  .     . o o + + + * * = = < 9 9 < < : & $ : + o FXFXFXFXFXFXFXFXFXFXFXFXFXFXFXFXFXFXFXFXFXFXFXFXFXFXFXFXFXFXFXFX",
"FXFXFXFXFXFXFXFXFXFXFXFXFXFXFXFXFXFXFXFXFXFX#       o o + + + + $ + $ > > , < w 9 < < < < < , * + + o FXFXFXFXFXFXFXFXFXFXFXFXFXFXFXFXFXFXFXFXFXFXFXFXFXFXFXFXFX",
"FXFXFXFXFXFXFXFXFXFXFXFXFXFXFXFXFXFXFXFXFX. . . o o o + + + $ > & & : : : , < y s w < < 4 t 9 < = & $ + + FXFXFXFXFXFXFXFXFXFXFXFXFXFXFXFXFXFXFXFXFXFXFXFXFXFXFX",
"FXFXFXFXFXFXFXFXFXFXFXFXFXFXFXFXFXFXFXFX. . . o o + + + > > > , 4 < , , , 4 0 a m z x a t a a w 9 9 < : + + o FXFXFXFXFXFXFXFXFXFXFXFXFXFXFXFXFXFXFXFXFXFXFXFXFX",
"FXFXFXFXFXFXFXFXFXFXFXFXFXFXFXFXFXFXFXX . . o O $ $ > > > , 4 < 7 0 0 4 < < 9 w x c c c N Q } b w r r 0 : > + + + + FXFXFXFXFXFXFXFXFXFXFXFXFXFXFXFXFXFXFXFXFXFX",
"FXFXFXFXFXFXFXFXFXFXFXFXFXFXFXFXFXFXFXX o + > $ * , , , < , < < 4 0 p a w 0 < y w a d c B ( r.f.V p p w w < > > + + + FXFXFXFXFXFXFXFXFXFXFXFXFXFXFXFXFXFXFXFXFX",
"FXFXFXFXFXFXFXFXFXFXFXFXFXFXFXFXFXFXX O + $ $ > < 9 0 4 0 0 7 0 y y p f c c s w t w a p x Q ] S.B.| d p w p 0 , & $ $ o FXFXFXFXFXFXFXFXFXFXFXFXFXFXFXFXFXFXFXFX",
"FXFXFXFXFXFXFXFXFXFXFXFXFXFXFXFXFXO O O % % , < 4 w y 0 p p d l i a a i c K ^ c x d d d l x Q 8._.B.:.n i i p 4 2 > & + + FXFXFXFXFXFXFXFXFXFXFXFXFXFXFXFXFXFXFX",
"FXFXFXFXFXFXFXFXFXFXFXFXFXFXFXFXO @ O @ & 2 < < 4 0 t d c C ^ ^ Z Z Z C B C W ~ Z B Z Z C C n C f.b.n.1.B c x w 4 , & % $ + FXFXFXFXFXFXFXFXFXFXFXFXFXFXFXFXFXFX",
"FXFXFXFXFXFXFXFXFXFXFXFXFXFXFXFXO O % 2 2 3 3 3 w f H @.+.+. . .+.+.O.$.$.$.$.b.b.] _ ] 0.$.+.Q ) 0.[ n.1.A ! c w 4 , , > > o FXFXFXFXFXFXFXFXFXFXFXFXFXFXFXFXFX",
"FXFXFXFXFXFXFXFXFXFXFXFXFXFXFX8 @ & 2 6 3 3 9 w d m X. .O. .$.$.%.%.&.C.F.`.`.~.7X-XD.M.J.S.G.h.;.! ,.t.V.w./ ^ i 0 y < , > $ o FXFXFXFXFXFXFXFXFXFXFXFXFXFXFXFX",
"FXFXFXFXFXFXFXFXFXFXFXFXFXFXO 8 ; 1 2 2 6 5 e x V ^ K K X. .$.%.C.^.`.`.~.`.`.^.~.uX7X7X6X;XY.P.V.,.A >.n.V.8.0.B w 0 0 4 , : + o FXFXFXFXFXFXFXFXFXFXFXFXFXFXFX",
"FXFXFXFXFXFXFXFXFXFXFXFXFXO @ ; 2 2 2 5 w d Z O.O.X.X.O.+.$.$.y.$.$.%.C.^.`.^.^.&.~.uXuXaX8X$XP. X{.3.) >.B.V.y.+.p t w y y < > + + FXFXFXFXFXFXFXFXFXFXFXFXFXFX",
"FXFXFXFXFXFXFXFXFXFXFXFXFX; ; 6 5 5 q g J  .:.+.| X...O.w.f.p.y.y.$.8.y.C.B.f.C.).*X4X7XuXgXsX&X;XlXjXe.) 9.S.B.$.B p p s a y : + + o FXFXFXFXFXFXFXFXFXFXFXFXFX",
"FXFXFXFXFXFXFXFXFXFXFXFXO ; 6 q q t F G } ..X.H H m V ^ +.+.^ ^ ^ Z Z ^  ./ +.0.F.5X5X4X4XuXgXsX4X;XzXzXl.,.e.P.c. .c l V f t < : $ + o FXFXFXFXFXFXFXFXFXFXFXFX",
"FXFXFXFXFXFXFXFXFXFXFXFX; 2 q q g j b S } V b d d d c X.:.^ A Z V m c m V Z +.+.+.B.-X*X*X4X2XaXiX4X:XzXcXL.>.h.F.8.Q W C x s y , $ + o . FXFXFXFXFXFXFXFXFXFXFX",
"FXFXFXFXFXFXFXFXFXFXFXFX1 q q q g G K A x a a p d m X.<.-.} V m b x x c m Z ^ +./ ~ _ c.U.*X4X7XiX7X*X:XxXbXl.i.G.n./ W ^ c s F y , + o + FXFXFXFXFXFXFXFXFXFXFX",
"FXFXFXFXFXFXFXFXFXFXFX1 5 q t e d M n a w u i m K L } } ! Z C ~ / 9.i.>.` >.>.>.9.w.,.` ' M.6X7X2X3X<X&X:XNXmXa.y.V.[ ( / m G s s < $ + o o FXFXFXFXFXFXFXFXFXFX",
"FXFXFXFXFXFXFXFXFXFXFX6 t g g g d d e e u v A } P J Z  .8.c.B.H.:X;XR.N.{ { i.` >.u.e.9.e.t.J.4X<X2X2X<X&XwXzX!.e.F.y.] [ C c G F w : $ + o FXFXFXFXFXFXFXFXFXFX",
"FXFXFXFXFXFXFXFXFXFX; q t q w e w e g v b J K H V Q q.K.U.U.$X:X>X0XzXzXlXI.I.u.u.n.Z.a.d.z.L.$X*X%X+X+X&XeX0X Xg.H.G.r.c.~ H G G a , $ o + o FXFXFXFXFXFXFXFXFX",
"FXFXFXFXFXFXFXFXFXFX2 y q 0 q q e u a v J } H Z  .j.%XT.Y.$XrXNXCXCXNXZXbXnXjXjX[.|.>X{.l.Q.l. X$X%X(.+X%XqX,X|.l.L.|.r.c.' X.o.I b < & + + + FXFXFXFXFXFXFXFXFX",
"FXFXFXFXFXFXFXFXFXFX5 q 5 q 3 e e w g M K A X.w.).8X<X-XeXBXAXAXAXCXZXNXnXnXnXzX>X>X0XXXkX}.{.}.0X&X^.+X+XqXeX|.k.L. Xb.c.{ ( X.5.G < : > + + o FXFXFXFXFXFXFXFX",
"FXFXFXFXFXFXFXFXFX2 5 5 5 5 0 r q g T L ^ *.+.B.2X7XpXdXSXAXAXAXAXZXNXcXlXI.|. X>XzXxXXX[.}.XXzXXXrX).(.+XpXtXH.Z.[.XXB.c.N.] @.6.R 0 < > + + + FXFXFXFXFXFXFXFX",
"FXFXFXFXFXFXFXFXFX2 5 q 5 3 q 0 g J ,.-.^ ^ $.<X@X<XdXSXAXSXCXNXZXcXzX|.L.e.u.u.u.L. X>XP.L.}.XXL.zX9X).].#XtX$XG.P..XV.c.R.B.$.p.o.i < , > > + FXFXFXFXFXFXFXFX",
"FXFXFXFXFXFXFXFXFX6 q 5 5 q q u V 2.*.D ! :.).~.<XdXAXAXCXyX;XnXmXzXXX|.A./.u.0.` 0.u.L.L.L.h.L.e.[.MX&X'.#XqX$X;X[.[.S.c.T.-X%.=.L d y , $ @ @ FXFXFXFXFXFXFXFX",
"FXFXFXFXFXFXFXFX; 5 q 6 5 e g h T T V Z ;.^.@X2XdXAXAXMX>XP..XXXzXcXxXxXxXmX{.l.>.) ,.k.L.L.e.a.e./.vXtX'.].qX&X:Xk.l.P.r.K.K.y.=.I i w 2 > + @ FXFXFXFXFXFXFXFX",
"FXFXFXFXFXFXFXFX2 r 5 2 5 e g j J V A / C.@X<XfXCXAXvX;XS.L.Z._.#XdXBXVXCXZXmXjXjXl.a.L.}.{.e.e.e.[.wXdX1X#XwX9X;Xh.l. Xc.M.T.f.R L a r 6 : + + FXFXFXFXFXFXFXFX",
"FXFXFXFXFXFXFXFX6 r 2 2 3 e h T T K *.B.<X2XqXBXSXbXP.H.u.u.H.;X>XMXNXwXxX>XP.P.[.L.[.{.[.[.z.e.Z.Z..XyX3X0XMXtX:Xh.k.>Xc.K.%X%.=.I d w 0 , $ + FXFXFXFXFXFXFXFX",
"FXFXFXFXFXFXFXFX6 6 2 2 q g j T *.*.8.(.2X3XVXCXbXP.D.V.V..XH.G.zX0X.XA.G.n.n.u.B.h.a.3.3.l.Q.z.oXh.V.,XqXxXVXdX$Xe.h.zXm.K.%X^.5.L x p 9 , & + FXFXFXFXFXFXFXFX",
"FXFXFXFXFXFXFXFX6 6 2 9 e h T -.*. .C.@X<XdXMXNX Xm.V. X.XS.m. X X_.e.r.] 0.` ] n.A.1.*.J k.Q.z.g.8.m.=XdXVXVXdXJ.i.g.zXM.K.<X^.6.o.n a 0 , > + FXFXFXFXFXFXFXFX",
"FXFXFXFXFXFXFXFX2 2 5 e h b 2.2.^ w.OXOXqXMXyXzXn.v.m.P.m.t.[.0X_.y.w.u.9.e.w.-.9.;.! S M a.Q.kX2.^ r.,XBXMXVXdXJ.y.XXbXD.T.@X^.d.@.d a 0 2 : $ FXFXFXFXFXFXFXFX",
"FXFXFXFXFXFXFXFX- 6 q g G T a.<.A j.OX+XwXtXxXI.t.v.m.v.' u.0XrX_.+.g.l.e.*.K H m v n n Z e.z.Q.4.W r.rXCXrXdXtXJ.Z.zXNXJ.*X2X^.d.L d a t 4 : + FXFXFXFXFXFXFXFX",
"FXFXFXFXFXFXFXFX6 5 5 g M T <.L ..^.@X3XwXrXnXa.t.v.t.[ [ XX.X_.y.:.oX*.K b d s a a d v Z w.2.3.*.W n.yXBX8XtX&XJ.|.xXbX;X7X2X'.s.V i t t 4 1 + FXFXFXFXFXFXFXFX",
"FXFXFXFXFXFXFXFX3 3 q h M D *.J p.`.@XdXwX>XjX9.v.x.t.[ S.XXP.J.f.l.[.B m a & o = p a x } ,.) 7.=.` $XdXdX1X1X,X:X.XMXMXeXiX2XoX2.V p w w 0 : + FXFXFXFXFXFXFXFX",
"FXFXFXFXFXFXFXFX5 5 r g M V L K s.`.2XwXqX;Xl.>.v.v.r.y.P.XXG.V.u.oXg.m u w o # = p w s B A -.Q.g.F.tXdXtX&XeX0XzX0XCXBX8XaX+XW.| d s w t 0 > + FXFXFXFXFXFXFXFX",
"FXFXFXFXFXFXFXFX2 5 q h M M J ..^.`.3XMX9X XQ.>.M.b.8.B.Z.|.P.V.8.oXg.K w a , * 0 s w f ! -.g.}.|.$X1XtXeX$X:X0X0XvXCXdXiXsX].6.H p p t t w > + FXFXFXFXFXFXFXFX",
"FXFXFXFXFXFXFXFX2 5 5 h m b V <.^.<XpXdX:Xz.7.i.M.c.y.r.u.[..X|.y.[.g...w p u u s x p f X.9.h.;X$X_.9X:XJ.K.S.;X0XvXyXpXaX3XW.5.c s p w w 5 > + FXFXFXFXFXFXFXFX",
"FXFXFXFXFXFXFXFX2 5 5 h h b K q.^.2XqXyX;Xe.3.h.Y.m.r.] i.XX>X/.H.[.a.*.h w w t w d v A ` ] m.S.D.:XrXS.v.c.D.|.0XrXyXsXsX].d.L x a w y w 6 > + FXFXFXFXFXFXFXFX",
"FXFXFXFXFXFXFXFX2 6 5 g a h A 8.E.2XpXrXP.,.7.I.Y.m.0.( 9.XXXXk..X|.z.4.V e e u a d x Q ] ] [ b.S.J. X{ ] m.S.;X:XeXpXgXqXW.=.J d s w 4 4 , > FXFXFXFXFXFXFXFXFX",
"FXFXFXFXFXFXFXFXFX6 q q t h A @.^.2XqXyX|.) 7.Z.M.x.r.' ` jXjXL.[.|.{.z.<.h e d d c B Q ) ~ 0.y.u.V.u.r.t.m.|.rXeX8XgXhX].6.| m a w 0 0 0 , > FXFXFXFXFXFXFXFXFX",
"FXFXFXFXFXFXFXFXFX5 5 5 g h Z O.E.5X1XrX;X*.7.u.M.N.c.' _ {.jXL.[.;XS.{.z.,.m i p n C ^ / 9.a.9.] 0.y.t.m.Y.0X6X7XaXhXqXW.<.A d y 0 y y 0 : + FXFXFXFXFXFXFXFXFX",
"FXFXFXFXFXFXFXFXFX6 2 5 g v M *.^.<X1X9X:X>.3.e.D.R.M.x.' i.jXQ.L.lX:X>XmX{.a.2.} A B B ! ) A ! ) ~ 0.P.;X;X=X7XiXgXfXW.d.*.m a w w s 0 4 > + FXFXFXFXFXFXFXFXFX",
"FXFXFXFXFXFXFXFXFX- 6 5 g h v O.^.%X4X9X>X>.*.7.S.U.U.M.x.t.jX{.g.XXzXwXxX>Xl.z.7.4.T M T T B x N ] D.Y.-X4X7X7XpXfX].d.1.} b a p d t w < $ + FXFXFXFXFXFXFXFXFX",
"FXFXFXFXFXFXFXFXFX1 2 5 g a h +.^.'.5X9X9Xw.D 4.Y.Y.Y.U.R.x.L.[.g.L.>XyXyXrX:X:X[.f.*.*.) S ~ ] b.U.$X6XiXiX7XsXpX1X!.k.<.m d a c f t y : + + FXFXFXFXFXFXFXFXFX",
"FXFXFXFXFXFXFXFXFX; 1 5 q e d -.C.).4X6X9X9.S T L.$X,X,XU.M.V.L.g.l.G.0XyXyXeXrXyXrX:XJ.J.S.J.=XeXtXpXsX2X2XiX8XeX/.j.<.V d d m c f s 0 > + FXFXFXFXFXFXFXFXFXFX",
"FXFXFXFXFXFXFXFXFXFX: 5 5 q h -.y.C.%X5X0Xt.S M i.P.,XdX-XY.M.r.>.a.|. X:XrXyX=X=XeX6X*X6X=X=X*X4X4X<X<XOX2X8X3X/.w.X.c d x G V G G s < + o FXFXFXFXFXFXFXFXFXFX",
"FXFXFXFXFXFXFXFXFXFX- 2 4 q g  .8.f.).5XeXS.) z D n.,XfX8X-XK.[ N ) L.A.S.G.eX5X8X8X8X7X7X5X*X-X-X-X%X%X4X4X1Xj.+.n d x m H Z V H F 9 > + FXFXFXFXFXFXFXFXFXFXFX",
"FXFXFXFXFXFXFXFXFXFX; 1 2 5 g ! :.w.F.8X6X;X] D S ) D.5XpXT.B.r./ z A w.9.r.V.$XT.-X=X*X4X5X4X-X%X%X4X8X%X).p.^ n c V H K P V H G y 2 + FXFXFXFXFXFXFXFXFXFXFXFX",
"FXFXFXFXFXFXFXFXFXFX% > 1 5 e V  .<.C.1X*X&Xn.Q ) S 0._.%X^.$.%.0.N l n ^ ,.h._.$XD.M.R.M.K.Y.Y.T.K.B.q. .A V m m V H X.X.K o.G s 7 > + FXFXFXFXFXFXFXFXFXFXFXFX",
"FXFXFXFXFXFXFXFXFXFXFX& ; 2 q b A -.p.%X*X&XJ.;.S C C B.F.^.%.&.p.0.N l l W ;.f.g.j.Z.m.v.[ ] _ W C x a a a d x m H X.-...=.I s y , > FXFXFXFXFXFXFXFXFXFXFXFXFX",
"FXFXFXFXFXFXFXFXFXFXFX+ & 1 q h n } q.).$X-X;XV.S B n :.f.p.%.%.&.j.8.W z l Z ,.;.Q Z ^ ^ Z C n x x d d x m Z ^ O.X.| *.=.=.G s 4 & + FXFXFXFXFXFXFXFXFXFXFXFXFX",
"FXFXFXFXFXFXFXFXFXFXFX+ % - 3 a d m 1.C.F.T.T.Y.9.z l v *.8.q.%.&.&.j.<.~ N z B C Z V B c c x d x b V }  . .*. .} | R R U F y 7 : $ FXFXFXFXFXFXFXFXFXFXFXFXFXFX",
"FXFXFXFXFXFXFXFXFXFXFXFX@ % , q a v <.f.C.K.Y.,XV.~ l p v A -.q.%.#.&.E.%...~ Q B n n M n m b m V K 1.8.+.*.| T L R Y G s k 7 > + O FXFXFXFXFXFXFXFXFXFXFXFXFXFX",
"FXFXFXFXFXFXFXFXFXFXFXFX+ % - 2 r e } p.j.C.J.rXY.t.D u w i n | 1.s.&.E.s.#.5.@.O...} ! ! A A } ^ +.p.p.2.o.R R E E F k y 4 - O o FXFXFXFXFXFXFXFXFXFXFXFXFXFXFX",
"FXFXFXFXFXFXFXFXFXFXFXFXFX$ % : 3 w b 1.f.B.).$X;XM.] B w q u v K p.&.%.s.5.W.W.E.s.p.j.p.p.q.q.q.q.p.5.4.R Y Y E F y w 6 & + O O FXFXFXFXFXFXFXFXFXFXFXFXFXFXFX",
"FXFXFXFXFXFXFXFXFXFXFXFXFX+ $ & , 3 t b :.B.F.F.;XP.{ ` v 0 e i d } @...I o.I #.W.#.5.5.5.5.5.5.=.=.R R R Y F j y y 4 , > O O o FXFXFXFXFXFXFXFXFXFXFXFXFXFXFXFX",
"FXFXFXFXFXFXFXFXFXFXFXFXFXFXO $ & , 5 r v q.y.B.K.I.v.{ ) h q e a n H X.P P P P I o.#.I I I I R U R U Y G j s t w 5 2 ; % O X o FXFXFXFXFXFXFXFXFXFXFXFXFXFXFXFX",
"FXFXFXFXFXFXFXFXFXFXFXFXFXFXFX+ $ > 6 3 9 m O.w.B.c.D.t.0.Q g q q a d b b M J P P P o.o.o.L L P G G F s t w 9 0 6 : & % @ O X FXFXFXFXFXFXFXFXFXFXFXFXFXFXFXFXFX",
"FXFXFXFXFXFXFXFXFXFXFXFXFXFXFXFXFX& : 2 2 9 d } f.y.r.N.r.] S d y r e g u a t g j M m M M G f f s s w 4 3 3 , 2 1 1 @ 8 8 X X FXFXFXFXFXFXFXFXFXFXFXFXFXFXFXFXFX",
"FXFXFXFXFXFXFXFXFXFXFXFXFXFXFXFXFX$ & : , 2 3 u  .y.y.y.B.] ` C h u q e e q q q 5 5 q q e q q 5 4 4 0 5 3 2 2 & & @ + O X X FXFXFXFXFXFXFXFXFXFXFXFXFXFXFXFXFXFX",
"FXFXFXFXFXFXFXFXFXFXFXFXFXFXFXFXFXFX$ & , = - = r  .y.$.y.[ ( N S n h g a q e t t 5 q t 7 5 5 2 2 6 6 2 1 - ; % 8 @ O X X FXFXFXFXFXFXFXFXFXFXFXFXFXFXFXFXFXFXFX",
"FXFXFXFXFXFXFXFXFXFXFXFXFXFXFXFXFXFXFX% & & % - - p ! 8.y.' ( z z z z l g e q e q 5 5 5 5 5 5 5 2 1 1 1 1 ; @ @ O o X . X FXFXFXFXFXFXFXFXFXFXFXFXFXFXFXFXFXFXFX",
"FXFXFXFXFXFXFXFXFXFXFXFXFXFXFXFXFXFXFXFX$ & % % % & 9 i 8.] ( B u u h g g e e q 5 6 2 2 6 6 2 2 2 1 1 % @ 8 + O X o . . FXFXFXFXFXFXFXFXFXFXFXFXFXFXFXFXFXFXFXFX",
"FXFXFXFXFXFXFXFXFXFXFXFXFXFXFXFXFXFXFXFXFX$ $ % O $ % 1 p Z ~ N i e r 5 5 5 q q 3 6 1 2 2 2 1 1 1 ; > @ @ @ O O . . . FXFXFXFXFXFXFXFXFXFXFXFXFXFXFXFXFXFXFXFXFX",
"FXFXFXFXFXFXFXFXFXFXFXFXFXFXFXFXFXFXFXFXFXFX$ $ + + $ O * 9 p z z i i r 3 2 3 3 3 6 6 1 ; 1 1 2 1 1 & ; @ O O X X FXFXFXFXFXFXFXFXFXFXFXFXFXFXFXFXFXFXFXFXFXFXFX",
"FXFXFXFXFXFXFXFXFXFXFXFXFXFXFXFXFXFXFXFXFXFXFXFX% O $ O O O & = r u l i 3 1 - 2 2 2 2 ; - ; - - & % @ @ O O X FXFXFXFXFXFXFXFXFXFXFXFXFXFXFXFXFXFXFXFXFXFXFXFXFX",
"FXFXFXFXFXFXFXFXFXFXFXFXFXFXFXFXFXFXFXFXFXFXFXFXFX+ + O O O O ; % & 3 l i = - * % - % % % 8 ; ; O O O X X X FXFXFXFXFXFXFXFXFXFXFXFXFXFXFXFXFXFXFXFXFXFXFXFXFXFX",
"FXFXFXFXFXFXFXFXFXFXFXFXFXFXFXFXFXFXFXFXFXFXFXFXFXFXFXFXO O X X X O @ = r 9 = & $ ; % O O 8 O O X . . . . FXFXFXFXFXFXFXFXFXFXFXFXFXFXFXFXFXFXFXFXFXFXFXFXFXFXFX",
"FXFXFXFXFXFXFXFXFXFXFXFXFXFXFXFXFXFXFXFXFXFXFXFXFXFXFXFXFXFXFXFXFXFXFXFXFX& = 1 - - % O % O X . . . . FXFXFXFXFXFXFXFXFXFXFXFXFXFXFXFXFXFXFXFXFXFXFXFXFXFXFXFXFX",
"FXFXFXFXFXFXFXFXFXFXFXFXFXFXFXFXFXFXFXFXFXFXFXFXFXFXFXFXFXFXFXFXFXFXFXFXFXFXFXFXFXFX- & & % X . . # FXFXFXFXFXFXFXFXFXFXFXFXFXFXFXFXFXFXFXFXFXFXFXFXFXFXFXFXFXFX",
"FXFXFXFXFXFXFXFXFXFXFXFXFXFXFXFXFXFXFXFXFXFXFXFXFXFXFXFXFXFXFXFXFXFXFXFXFXFXFXFXFXFXFXFXFXFXFXFXFXFXFXFXFXFXFXFXFXFXFXFXFXFXFXFXFXFXFXFXFXFXFXFXFXFXFXFXFXFXFXFX",
"FXFXFXFXFXFXFXFXFXFXFXFXFXFXFXFXFXFXFXFXFXFXFXFXFXFXFXFXFXFXFXFXFXFXFXFXFXFXFXFXFXFXFXFXFXFXFXFXFXFXFXFXFXFXFXFXFXFXFXFXFXFXFXFXFXFXFXFXFXFXFXFXFXFXFXFXFXFXFXFX",
"FXFXFXFXFXFXFXFXFXFXFXFXFXFXFXFXFXFXFXFXFXFXFXFXFXFXFXFXFXFXFXFXFXFXFXFXFXFXFXFXFXFXFXFXFXFXFXFXFXFXFXFXFXFXFXFXFXFXFXFXFXFXFXFXFXFXFXFXFXFXFXFXFXFXFXFXFXFXFXFX"
};
