/* XPM */
static char *_1ca478703624c04a9007b14797a3364MvFJXl7cVdlo9xnx[] = {
/* columns rows colors chars-per-pixel */
"70 70 251 2 ",
"   c None",
".  c #110F11",
"X  c #141215",
"o  c #14161A",
"O  c #1A161B",
"+  c #16191D",
"@  c #1A191E",
"#  c #191315",
"$  c #0C0E11",
"%  c #21191F",
"&  c #171B21",
"*  c #1B1C24",
"=  c #1C1E2A",
"-  c #141721",
";  c #1C1F33",
":  c #231E2A",
">  c #221C23",
",  c #1D222D",
"<  c #192027",
"1  c #1E2333",
"2  c #1E2439",
"3  c #21212D",
"4  c #232434",
"5  c #23263B",
"6  c #242A3C",
"7  c #2A2A3E",
"8  c #262638",
"9  c #252B43",
"0  c #2A2B44",
"q  c #262B4B",
"w  c #2A2D4C",
"e  c #242643",
"r  c #27314A",
"t  c #2B314C",
"y  c #293447",
"u  c #2A2E53",
"i  c #2C2E5B",
"p  c #272C52",
"a  c #2B3253",
"s  c #2D335B",
"d  c #2E3C5A",
"f  c #2B3952",
"g  c #313354",
"h  c #32345B",
"j  c #333A5B",
"k  c #323551",
"l  c #312D6C",
"z  c #2E3462",
"x  c #2F3765",
"c  c #313563",
"v  c #323A63",
"b  c #32356C",
"n  c #343B6C",
"m  c #39326A",
"M  c #332C73",
"N  c #372D79",
"B  c #343473",
"V  c #353B73",
"C  c #393C73",
"Z  c #35357A",
"A  c #363A7A",
"S  c #3A3C7D",
"D  c #3A347A",
"F  c #2F2D65",
"G  c #1F2342",
"H  c #364357",
"J  c #36446A",
"K  c #3B4474",
"L  c #3A447C",
"P  c #384779",
"I  c #3C557C",
"U  c #3E5368",
"Y  c #424678",
"T  c #445779",
"R  c #43526A",
"E  c #434D5D",
"W  c #3C2E8D",
"Q  c #3B3B83",
"!  c #3B3E8A",
"~  c #3A3486",
"^  c #3D2D92",
"/  c #3D3892",
"(  c #403D89",
")  c #412A99",
"_  c #433A97",
"`  c #4638A7",
"'  c #4B39B6",
"]  c #4B2FB2",
"[  c #3A4383",
"{  c #3D4B83",
"}  c #3C448B",
"|  c #3D4A8C",
" . c #374180",
".. c #3C5688",
"X. c #3E4491",
"o. c #3D4A92",
"O. c #3F4999",
"+. c #3F5295",
"@. c #3E6897",
"#. c #3C76A4",
"$. c #3E74AA",
"%. c #42438B",
"&. c #444986",
"*. c #455987",
"=. c #43439C",
"-. c #424B9C",
";. c #454797",
":. c #41539C",
">. c #495598",
",. c #575A96",
"<. c #524E9E",
"1. c #4A679A",
"2. c #44759D",
"3. c #4F6294",
"4. c #4A44A3",
"5. c #4C4CA5",
"6. c #4847A8",
"7. c #4354A4",
"8. c #455CA3",
"9. c #4555AB",
"0. c #4C53AB",
"q. c #4B58A6",
"w. c #5259A9",
"e. c #4A4DB4",
"r. c #4C44BB",
"t. c #4B48B8",
"y. c #5349B8",
"u. c #465CB3",
"i. c #4B5AB3",
"p. c #4C57BA",
"a. c #535BB8",
"s. c #4667A8",
"d. c #5766AA",
"f. c #4579A9",
"g. c #4962B5",
"h. c #4769B5",
"j. c #5768B8",
"k. c #4579BA",
"l. c #5C76B6",
"z. c #5276AA",
"x. c #626BB5",
"c. c #6173BC",
"v. c #687BB9",
"b. c #6D74AB",
"n. c #503FC3",
"m. c #4E4AC6",
"M. c #4E55C5",
"N. c #5458C6",
"B. c #544BD4",
"V. c #5559D7",
"C. c #534AC6",
"Z. c #4A67C5",
"A. c #5C6BCB",
"S. c #5769C6",
"D. c #4979C7",
"F. c #5C76C8",
"G. c #5667D6",
"H. c #4E78D7",
"J. c #5C72D3",
"K. c #5B7CDC",
"L. c #5978D6",
"P. c #4F65D6",
"I. c #647AC5",
"U. c #6679C8",
"Y. c #657CD6",
"T. c #626DD1",
"R. c #586AE9",
"E. c #5677E6",
"W. c #4F79E3",
"Q. c #5B6CE2",
"!. c #5485B4",
"~. c #7685BB",
"^. c #6C81BA",
"/. c #3CA9D8",
"(. c #4788C6",
"). c #4493CD",
"_. c #4C8ADA",
"`. c #5D87D9",
"'. c #4998D6",
"]. c #5A99D5",
"[. c #569DCD",
"{. c #6986C8",
"}. c #728BCB",
"|. c #7588C6",
" X c #6483DB",
".X c #6489DB",
"XX c #6989D6",
"oX c #738BD6",
"OX c #6C95DB",
"+X c #7896D9",
"@X c #6A97CA",
"#X c #45A7D9",
"$X c #57A4D5",
"%X c #4BB3DE",
"&X c #7CA3DD",
"*X c #61AADA",
"=X c #5988E8",
"-X c #4C98E8",
";X c #539BEC",
":X c #5898E9",
">X c #5986F3",
",X c #5699F3",
"<X c #4D91EC",
"1X c #6388E5",
"2X c #6493E4",
"3X c #6C9DEB",
"4X c #6997E7",
"5X c #779AE4",
"6X c #6E93E7",
"7X c #4AA7E8",
"8X c #58A8EC",
"9X c #49B5E9",
"0X c #59B6E9",
"qX c #52A4F4",
"wX c #56ADF6",
"eX c #4BB7F3",
"rX c #56B6F5",
"tX c #4EA3F3",
"yX c #6BA4EE",
"uX c #66A7ED",
"iX c #79A5EA",
"pX c #67B6EA",
"aX c #79B7EA",
"sX c #67A7F3",
"dX c #6CBBF3",
"fX c #66B3F4",
"gX c #78B8F4",
"hX c #78AEF1",
"jX c #3ED4F6",
"kX c #48C6F4",
"lX c #54C5F6",
"zX c #4AD5F5",
"xX c #56D6F6",
"cX c #74C2F3",
"vX c #75C5F7",
"bX c #6ECBF3",
"nX c #52E0F7",
"mX c #859AD1",
"MX c #86A9E7",
"NX c #89B6EC",
"BX c #99BCE9",
"VX c #8ABBF2",
"CX c #95B4EE",
"ZX c #93AEEB",
"AX c #88C9F6",
"SX c #9AD6F8",
"DX c #93C7EF",
"FX c #A9CDF4",
"GX c #A7D7F8",
"HX c #B8E7FB",
"JX c #B3E9FB",
/* pixels */
"                                                                                                                                            ",
"                                                                                                                                            ",
"                                                                                                                                            ",
"                                                                                                                                            ",
"                                                                                                                                            ",
"                                            $ X X X X + - * = * ; 1 = =                                                                     ",
"                                        . $ X X X o o + + & = , 2 e G 2 1 < = * & o                                                         ",
"                                      . X X X X o + + + @ * * = , 2 9 e 5 2 2 5 1 = & + o                                                   ",
"                                    X X X X X o + + & = , , , , 1 5 q a q 9 6 q q 5 2 = & + o                                               ",
"                                  X X X o o + & * < , 4 6 6 6 1 4 e a n b z s s z u q e 2 < @ + +                                           ",
"                                  X o O @ & < , 1 1 6 6 6 9 r 9 6 6 9 a s z B W 4.| s q p e 1 * & + +                                       ",
"                                # O @ * = 1 6 6 6 6 6 6 9 w a s s q 9 q p a z D ` S.8.c p q q 5 , & & +                                     ",
"                              O O @ * = 2 e 9 9 9 a a u u u a z V A c s s s s z ~ 0.L.i.P s i p 6 , * * +                                   ",
"                            O O @ * 3 4 5 6 r a s b Q ! A A Z B B ~ ~ Z B A A Z B A j.N.i.[ z z q 6 1 = * +                                 ",
"                            O * = 4 5 5 9 t z [ O.X.} } | O.:.9.u.u.Z.Z.` ` ` 0.-.Q =.4.e.i.[ Q b q 6 1 , * +                               ",
"                          O * = 4 5 5 9 r s V [ } | +.s.s.$.(.(.).)./.9X;XE.K.K.L.S.-.Q =.a.j.=./ i 9 6 6 1 * +                             ",
"                        O % : 4 4 5 9 a n L [ L [ o.7.g.h.D.).).#X).(.).9XkXlX8XE.Y.U.>.! 5.S.j.6.A q 9 6 6 1 + o X                         ",
"                      O * 3 4 8 6 t n } -.o.| | -.9.u.g.9.9.u.D.).(.(.(.7XeXjXzXrX=X6X+Xd.%.5.S.p.-.s r t a 9 < + o X                       ",
"                      @ 4 0 0 t j K ;.X.[ P P [ O.7.-.X.X.} } O.7.6.u._.wXqXeXzXxXlX:X5XMXv.;.i.J.e.A i z v r 6 * + o                       ",
"                      : 5 0 t j n S L n s s s b o.} S A V n n B A / =.e.H.;X,XtXeXzXkX;XiXZX|.<.S.S.O.M Z b a r 1 & + X                     ",
"                    : 5 0 w a n S V s a a s n | :.} V n c z z b V ! X.! / ' P.<XtXeXkXeX:XiXBX|.5.J.p.W ^ B d f 9 = + o                     ",
"                    8 0 w g s n z w p s n L L [ Q Q Q ! =.0.4.=.=.;.;.5.5._ ` m.;XrX9X9X7X:XNXBXd.a.S.` ` A v d a 2 & o X                   ",
"                  3 0 g w u s u w u c S L P V ! 7.M.V.1X6X1XQ.N.y.y.4.4.a.w.q.w.S.;X7X9X7X;XuXMX}.w.J.e.t.^ n J d 9 * + o o                 ",
"                  8 t 0 0 w q w h c K L K A +.D.E.R.1X3XMXCXCXCXMXoXU.S.A.I.l.v.c.`.<X'.$X-X8XyXXXc.XXS.m.` Q K J a , @ + +                 ",
"                  7 0 9 9 9 w w h K L L } g.-X<X>XsXAXGXHXGXFXDXCXMX5XoX5XiX}.|.{.oX2X_.'.$X8XuXXXc.{.L.r.' / { *.d 1 * + + +               ",
"                4 0 0 6 9 q 9 g K L Q ;.u.7XkXrXvXJXHXHXHXFXFXMX+X+X+XiXMXMXoX|.+X&XiX2X).$XpXdX1XS.}..Xr.m.` o.1.J 2 , & @ +               ",
"                4 7 7 6 9 9 a K &.%.! O.).9X9XvXJXHXGXFXFXBXMXXXj.j.j.F.XX5XXXU.+X+XXXhX].[.*XdX=XF.{.XXM.B.M.8.1.P 9 6 * @ +               ",
"                5 0 7 0 0 w C >.%.S ! D.#X7XAXHXHXVX5XMXBXMXOXF.F.j.4._ 6.j.XXU.c.I.w.+XhX].].pX:X2XI.XXN.P.W.g.*.P a 6 = * +               ",
"              3 9 0 5 0 u c Y Y C ! h.#X9XAXHXGXiX XXXoXMXNXNXNXBX+XI.q.( q.{.I.d.d.w.@XVX8X].pX:X2Xj.{.S.M.W.u.*.P p 6 , * +               ",
"              4 0 5 4 0 g v Y C Q g.#X9XcXJXGX3XY.S.S. XyXAXSXDXFXZXmX+Xv.c.}.|.x.q.j.XXaXdX*XaXuX=Xa.}.A.m.W.h.*.K w 9 4 * +               ",
"              5 5 4 5 w h K Y [ 9.#X9XdXSXGX5XJ.A.j.`.`.iXVXaX4XOXJ.A.U.I.v.v.v.~.w.{.j.2XfXpXDXcX2Xi.}.Y.B.<Xk.3.K u 9 4 * +               ",
"              5 4 4 0 g v &.%.X.D.9X0XAXSXMXN.A.Y..XJ.Y.5X.XS.a.e.6.6.N.S.>.&.d.^.v.{.0.L.fXcXDXcXL.0.}.XXV.-X(.1.P s q 5 = +               ",
"              4 4 5 t h { >.%.8.#X%XgXgXNXA.y.J. XM.S.5X.Xp.0.6.5.5.=.i.0.( C >.~.mX>._ G.gXAXAXcXJ.0.&X6XP.7X(.z.| s r 5 < +               ",
"              8 5 0 j K 1.>.[ k.#X0XgXhXoXy.C.N.r.' +XhXL.-.l.j.>.&.P V B V b -.x.~.&.W G.AXAXcXdXJ.F.DX5XE.9X(.z.V s a 9 , +               ",
"              8 6 0 j Y >.{ +.).%XaXhXMXx.y.C.r.] U.OX`.i.w.v.&.n c a a a z b -.>.,.Y ^ =XSXgXfX:XK..XDX5XqX9X[.z.b a w 9 1 +               ",
"              7 5 w c C { P s.'.0XaXyX+Xw.C.n.t.t.+X XL.g.{.>.b s 2 + 2 a a n ;.%.,.&.e.uXAXfX8X:X2XOXDXgXeX9X@X>.c w w q 4 +               ",
"              8 9 w v n K [ k.#XpXgX3X|.<.C.m.e.S.XXY.S.i.@X>.s w & $ 2 t t z A >.^.F.`.dXvX:XuXhXMXNXGXvXzX0X!.L a w w w , +               ",
"              4 6 w v n n | (.7XcXgXXXb.5.V.t.p.a.U. XJ.0.{.d.s w 9 5 a a a B ;.j.OX1X=XuXuX=X=X5XiXAXAXlXzX[.1.n a a w w , @               ",
"              4 5 0 v v n :.(.9XcXuXS.,.w.G.M.e.4.U.OX.XF.{.q.n q w a a s c S =.p. XK.2X3XG.N.P. XiXgXdXzX0X!.*.z a w 9 9 < @               ",
"              8 5 w h g C 7.(.9XdXyXa.,.I.=XM.` ) U.&XF..X}.,.L p q w t s b _ ` ' N.L.2XY.' t.G..X3XsXxXxX$X1.L s a 9 9 6 < +               ",
"              3 8 w t g C -.(.9XdXyXw.,.U.V.m.` ) |.+XI.XXY.~.,.n q s s z Z ( / ` p.N.A.a.` m.J.yXsXrXxXbX!.*.n a r 9 9 6 *                 ",
"                8 6 0 g C o.(.9XfX3Xw.,.j.V.B.r.) x.mXI.U. XU.v.>.V s i b Z ! =.w.5.4.0.p.M.J.3XsXrXzXbX[.1.[ z r 9 9 9 4 +                 ",
"                4 4 0 h b | (.9X8XyXd.>.w.G.V.B.] 4.+X|.U.5X6XMXmXd.>.&.S b A %.Q S Q / N.1X1X,XeXkXxX*Xz.:.V a r t t 9 , +                 ",
"                3 4 w h h | (.7X8XyXj.%.,.J.R.R.B.' {.}.j.+XNXgXMX{.l.d.*.K Y Y m M W t.E.=XqXeXkXxXpX!.s.| x a s a r 6 * o                 ",
"                : 4 0 a g o.(.;X8XuXS.Q T F.E.>XR.B.S.{.c.U.5XgXgXyXyXOXF.w.5.=.4.p.L.=XwXlXkXeXkX0X].l.8.n s s c s t 6 + o                 ",
"                * 4 0 0 a } h._.qXfXT.~ C j.=XsX,XE.V.j.d.j. XyXgXfXsXfXfX:X=X=X=X,XrXrXlX9X9XeXrX].h.| n s v n c v f , o                   ",
"                * 4 5 0 g } 9.h.;XfX X_ m &.J.fXbX>XR.t.Q q.XXK.K.sXwXqXwXrXrXwX,X,X<X-X-X7X9XrX].8.A z s n K V J J 6 & o                   ",
"                  : 4 6 t S -.u.-XwX:X6.N D 6.:XlX;XP.e.~ b >.w.e.A.:X=X,XqXwXrXqX<X<X;XqX8X-X(.o.B c n K P V K J y , +                     ",
"                  * 3 4 0 n X.7.'.wX,XA.~ ( D Z.-X).s.u.6.M z Q ;.i.`.`.G.V.P.G.E.E.E.H.h.7.} V n n V L [ L P J f 6 &                       ",
"                  * * 4 6 v S ;.D.;X,X=X4.Z B X.D.D.$.#.h.6.M F Z _ g.h.j.S.M.' ` ) ~ b s a a s c V L } o.*.I H y , +                       ",
"                    * = 6 s c [ h._.=X=XJ.S M B 8.g.s.@.#.f.=.N l Z } X.Z Z A Z B x x z s v V S } } [ | *.*.J f 6 *                         ",
"                    @ * 4 t s V s.D.H.E.=X0.M i b %.7.s.@.#.f.:.~ N B B B B b c z s c n | | %.} [ L T T R j y 6 * +                         ",
"                    O * = 6 w c :.g.D.G.3XJ._ i q c S +.s.f.f.!.@.+.} Q A V B V V C S ;.g.-.| { T T R H k y 8 * O                           ",
"                      + * , 5 p [ h.D.H.2X1XC.~ p q i n | s.f.f.2.2.f.s.s.8.8.:.:.-.:.8.s.1.*.T R E H y 0 4 * O O                           ",
"                        @ * 4 9 s | g.H.H.1XG.' B w q s c :.+.....@.2.f.2.2.f.s.s.1.1.*.*.T T R H g r 9 1 * O o                             ",
"                        + * = 4 9 u +.g.Z.G.J.' ` n w w u n L L P P P ..*...I T T T T R U U J f a w 5 , * @ O o                             ",
"                            * , 5 5 s } 9.Z.M.N.r._ c 0 0 a s c n J K P L { ..I P J J J d a 0 9 9 5 = * * @ O                               ",
"                              * 1 4 4 q A u.p.p.N.` ~ c t 9 t g w w t a j j v v d a a w 9 5 4 4 4 3 * @ O # X                               ",
"                              * * , 1 1 e V i.e.p.t.) ~ b a w a w 0 0 0 7 0 0 0 6 6 8 6 6 8 4 3 = * @ O O #                                 ",
"                                * = = = , 5 A 6.i.' ) M M B s a t 0 t w 0 0 0 7 7 5 4 4 4 3 3 * * @ O o X #                                 ",
"                                  * = = * * 5 i o.e.^ l i i c g w w 0 5 4 4 5 8 8 4 4 3 = * > @ O O X X X                                   ",
"                                    * * * @ * , q Q / D u q w 0 0 0 0 5 4 4 4 4 4 3 3 = * @ @ O o X X X                                     ",
"                                      & * @ O @ * 4 u l F i u 5 5 4 5 5 4 4 3 3 3 4 3 = * * @ O O #                                         ",
"                                          @ O @ O O * 4 e p z q 4 , 4 4 4 , 3 : : : : * @ O O O                                             ",
"                                            @ + o O O O O = e i e = * * * * @ % % @ O o o X X                                               ",
"                                                        X O O ; 5 4 = * > @ O O O O X X X X                                                 ",
"                                                                    = = : = * * O X X .                                                     ",
"                                                                                  X                                                         ",
"                                                                                                                                            ",
"                                                                                                                                            "
};
