/* XPM */
static char *_0b3aca2a50f446bb6f08239ff9229c7[] = {
/* columns rows colors chars-per-pixel */
"70 70 131 2 ",
"   c #020202",
".  c #090504",
"X  c #060905",
"o  c #090906",
"O  c #060609",
"+  c #090708",
"@  c #060A0B",
"#  c #0B0B0A",
"$  c #110000",
"%  c #1B0100",
"&  c #1A0B04",
"*  c #120E0D",
"=  c #1A0F09",
"-  c #0E110E",
";  c #141205",
":  c #11110E",
">  c #19110F",
",  c #0E0E11",
"<  c #110F11",
"1  c #180F10",
"2  c #0F1111",
"3  c #131312",
"4  c #1A1514",
"5  c #141915",
"6  c #1A1A17",
"7  c #161519",
"8  c #191718",
"9  c #1C1C1B",
"0  c #221F1D",
"q  c #1F2109",
"w  c #1F201D",
"e  c #212316",
"r  c #21211E",
"t  c #1E1F24",
"y  c #211F20",
"u  c #232322",
"i  c #2A2524",
"p  c #272823",
"a  c #2A2926",
"s  c #272528",
"d  c #2C2B2A",
"f  c #302825",
"g  c #332E2D",
"h  c #2E302F",
"j  c #3B3D25",
"k  c #32312B",
"l  c #302E31",
"z  c #323231",
"x  c #373332",
"c  c #353432",
"v  c #363634",
"b  c #373737",
"n  c #333333",
"m  c #3B3736",
"M  c #3A3937",
"N  c #3B3A37",
"B  c #3A3A38",
"V  c #3D3E38",
"C  c #3E3E3C",
"Z  c #3E3E3E",
"A  c gray24",
"S  c #3F3F3D",
"D  c #58361D",
"F  c #423A38",
"G  c #403F3D",
"H  c #40403E",
"J  c #694934",
"K  c #6F533D",
"L  c #414141",
"P  c #444341",
"I  c #464643",
"U  c #4B4644",
"Y  c #4A4947",
"T  c #494947",
"R  c #4D4C47",
"E  c #484848",
"W  c #4A494A",
"Q  c #524849",
"!  c #505050",
"~  c #565050",
"^  c #545550",
"/  c #545252",
"(  c #585752",
")  c #565855",
"_  c #595854",
"`  c gray35",
"'  c #63645E",
"]  c #64635F",
"[  c #717457",
"{  c #666563",
"}  c #6B6563",
"|  c #6D6D6B",
" . c #6C6C6C",
".. c #6A6C69",
"X. c #756C6D",
"o. c #70706E",
"O. c #73726D",
"+. c #7A7172",
"@. c #787973",
"#. c #7A7975",
"$. c #7A7A78",
"%. c #7C7C7C",
"&. c #7E7E7E",
"*. c #866A55",
"=. c #807F7D",
"-. c #81807E",
";. c #81817F",
":. c #88807E",
">. c gray51",
",. c #8B8B89",
"<. c #8D8D8D",
"1. c #8C8889",
"2. c #90908E",
"3. c #B2B59A",
"4. c #A9AAA5",
"5. c #ACADA7",
"6. c #AFAFAD",
"7. c #BCB3B4",
"8. c #BFBAB7",
"9. c #D3B39C",
"0. c #E1C3AB",
"q. c gray78",
"w. c #C6C6C4",
"e. c #D4CECE",
"r. c #D2D1CD",
"t. c #F9DAC5",
"y. c #FFE6D0",
"u. c #E6E6E4",
"i. c #EFE5E6",
"p. c #FEFFFA",
"a. c #FFFCFD",
/* pixels */
"      X # X         ,     X + +     X X     X +               X                     X o :                                 X X   +     3 +   ",
"!       #   X             X X # + # + X       X           X + # X + o                 # X +   X             X                         # #   ",
"E   X   X                     +               X X         X + 3   X                   o   o                 o     X X                   +   ",
"X +       X   O     O           + X             X           X +                     +                       o                   X #         ",
"  +   X +   s ` 3   +   3 X X X # X             X               #                   o   o     X             X                   # 3 X   X X ",
"  X   X     %.q.z       y   X X           X X                   :           +         #       # X           X   o X               +     X   ",
"  X +       o.6.a       3       + + X   X X                     o     o     # o       X       o X           o   # # X       X               ",
"# 3     +   + z     X       X             X X                       o :                                     o     o o           +     X     ",
"  +   3 #       #         +       X     + # 3             X X   X         o     a u     X   #       # o           9 H o X           X O     ",
"  +   #     p     o     +     +   X + X         X     X                   d +   r # 9 6     X   X                 3 r     o X o             ",
"  O +       w 6   o     9 #   , +   X   X +   X     X # # X       X       k #   X   u 6           # +       3       X d 6 X   # X + X   X + ",
"  + #     o 5.'         3 b   O +       + # X X X X X X X X               #       o X   o             9         o     :       +   +         ",
"    X X     k k     :     u       # + X     +   + + + +       #     X         o   o     X X     X       X   X 3             o     +         ",
"O     o     o       X       # X   #         +    .d     + X   +       #   +     X   X     #           X         9       o       + + X   X X ",
"    + u 4.V   X             3 X           X X         + +         X   # o o           X X #           ,.a +   +     # # 3 o     3           ",
"X Z    .p.@.X             +         # X       +   X       + +   X     o 3     X X 9   o 9 X           $.p X a   :   o r 9     T y X         ",
"X q.r b u.^           + 3           3 X   X   + X         X               X   +     X   X #   X           4 0   X X         9 B + X         ",
"  :   X 9   +             o +         #     # 3     +     3     X +               +     + X 3 X   #     3           o       o o             ",
"#   +     o       # X 6 # o + # +       X     9   3 Z 3       +     X # X +             X   +             + :   o                         X ",
"  o 3                 9 3     +   +       X >.3   X 9     +     +   X X             + + # 3         #   o     6 :     X o     X             ",
"  3 + o     #           o   X     X       + <.u         X 3 +   L 9       + +       # + + 3       . .                       X               ",
"  o     o     X +   #           X       X   X u # 3   #     X X 3 3 #   X     X   X         X     { d   o             o     +               ",
"X     o     X u     : X   X       X X #     X   + O             X     + z u +     #   X     + X   3   + o 3 #   X   X a r X :             X ",
"o +       #   +     o   X Z 9   X   X   X #   +     +             X     3     +     #     X   X     c T   *       X   3 +   9           X X ",
"# +             o       X o o           + + X   X   X     +     3                 0           # X   9 a   #   3 a     #         X     +     ",
"                  #       #   X       X X X     X       X 3 + + X   o             x 0   .             X     o G 6     +     # 3   +     X X ",
"o X             : 6     3 Z :       X X                       +     X   o 3 4 *   .         X     #     . # M =.            # 6   X     X   ",
"+     + 3 #         +     o : o     X               X         + :   X       *   . .     .       #                             + #     #     ",
"B 9             +   #       #                           # 3 #   o   .   .         .           o     +             # +   X           # X     ",
"        X X       X +   X     3           X             X 3 3     o     m a . * . . 9 3     o   o         +   o o # o   X o         3   u   ",
"                        # o   3           X       X X     # 9     o     g i   .   i ~ *     3       : p     o     X       o     #   X X z 3 ",
"                o       # + o         X         + X X X   9 z X X   #       $   4 7.e.# o   X         d   9 P o         X o       + u p .   ",
"  X     X     X             . +       3 3       X # +       X     # #     .   > F =.8.0           #     # +   X   X X   + +   6 7   +       ",
"          +   +   X + X   X     X X         X               X # ,     O     .     4 i   .         X     X   X X X     X 7   X %.-.      k ; ",
"#       6 d         X     X     X +   +   X           X X   X 7 O     , i . . . . .     .     3 + +   u 3   3 X         # +   u e X X   3.[ ",
"    2     3   +             . #   3 # s # X       X           X   O   + a   . . . . #         3 + + X 9 6   X   X         X         X   j q ",
"          # +   +           # 9 X 3 # u +     X   X     3 a 3 X X       .   *       .     #   + X +   X 3 +     X   X +   + 3 #         -   ",
"    3 2 X   + + X     +     X 4   #   +   X X       X X z E 9           3 # *   *       +         X +   3 3   X   # X   + 3 +   #         X ",
"#   - o     X #     X X       .   X       + X       + X u p       o     0 0 . .   # 4 .                 # #     X #           #     ,     X ",
"+ o h w   X   6   X + X   X X   X X   X X     X     +   + + + Z :       . *       0 / u # l <   X           X       X +     +   X   3 #     ",
"        +           X     X                 + + O     + 3 + X 3   > P a       .   3 W s   u 7       X X X       X X X       X   o           ",
"    X   X         <                   + + X X 3 + X   X #     X   X #.r.o .       < u ,       +     X     +               + #               ",
"    X   X     X   3   X   +           # # X X #         X       3 * u ]       X         < .   .       6 #     +     X X X + +               ",
"        X         X   X                 X # 3 3         X X X X .           X       + X     .     3   d u   +               X +   O   O O t ",
"        +   X             X   3 X X       + + X     X           # 3   3 X   O   2   X     . .   3   +   X z     3     3 #         O O , # u ",
"        # X + X         #     < # X                 X       X   4 u           , ,                 X       #     I 6           + X X O O   O ",
"        +   + O             8           + + X X           + 3 3     +       #       # o     X         +       X #     + # X                 ",
"              X           i 1.d   X       # +             + 3 8         X     , X X     . R {     X       X +       X +       X o       X   ",
"@   o     3 #   .   . *   +.a.X.    +   #     . +     # .     o   _ u   +     X           N (                   +   X 3   +   X           + ",
"  - 5 9 #         *   * 4 Q i.}   . X +   < X # #   X +       X   O.P                 o       .                     X + X p 3             X ",
"      9   o 9     .       1 U . .         3 +   .                 .           . .             # X X                       + X   X X         ",
"X 3 X   ) -.X   X   .     g . . .   #       .               X     #     # .   X   #     :   : a + O X           X             X     X       ",
"3 ..    ! I X r # .       6         9 #                   X +       . o   o +       # #   * U   o X                 X     X         X   X   ",
"w 3 o   o 9               X #       + <   +   .                 # o   o #     6 #       + # . #                               6 # X +   X   ",
"    : #       o     -             X   X   3                         X X     + 6     X         o                       +     X z 3 X +   +   ",
"  + o                     +       # 8                 X     + # : r     + +     3 +   X   : k                     +   X   #         +   3   ",
"                #                 .   <                     .   6 k           ,                   X X                     + +     X     X   ",
"    + # + X     o X         o - X #   #     X             X # X   6     X X   + O X                                                     X   ",
"    # +                       o       # .                 X + X   #     #       # #                                           X     X       ",
"  . o           X             o * X             +                 o     #       # 3     X     X                         X   X # X   X       ",
"  X                                 +       +   +                       <   +   O ,           +     X X X       X       X   X +             ",
"  o           X     .         3 9     X *             +                 #         +           .     X + X     X X                 +         ",
"  : # + * o . 4 i . .       . a / #   X 3     X     X +                 +                             X X     X   X X             u X X X   ",
"  o X   .     9 u       # #   . <     . 3 #           +                       # O   . .               X X       X # # X           b 3 3 #   ",
"          . +     .     X         o     *       o #   o   :       r 4   . .   +   # $ $ .   @ O 2     o +   X X 3 3 3 O     + 3     X z 6   ",
"+ +       X X   + #         X   o X   o o *   .     :         +   6 :   . .   + @   % %           #   X                     X O   X   #     ",
"* .             + +         +         # 3 c     o     o           o o         X , . *.K . # O 7 p p X         +                   X       X ",
"X                         + +         + 3 b .   X X a     o                       i y.0.= X     # o     d #     X               X X     X   ",
"    #                 3 # # #     9 o     o   .       3 # X   X X     X     .     f t.9.&   O #         d <                 X + # X         ",
"  + y                 u 3 # X     M #           o a 2.  # X X   O                   J D & .     + a *     #         X X         X   +       "
};
