/* XPM */
static char *result[] = {
/* columns rows colors chars-per-pixel */
"80 80 119 2 ",
"   c #020202",
".  c #090404",
"X  c #060805",
"o  c #090906",
"O  c #050509",
"+  c #0A0709",
"@  c #060909",
"#  c #0B0B0A",
"$  c #120500",
"%  c #120A06",
"&  c #11050C",
"*  c #110D0D",
"=  c #190F0D",
"-  c #0F110D",
";  c #101207",
":  c #11110E",
">  c #1B120E",
",  c #1B1C0C",
"<  c #0D0E10",
"1  c #110F10",
"2  c #180B12",
"3  c #0F1311",
"4  c #141313",
"5  c #191515",
"6  c #161817",
"7  c #1A1916",
"8  c #171619",
"9  c #191718",
"0  c #17181A",
"q  c #1B1B1A",
"w  c #271000",
"e  c #201513",
"r  c #2B1812",
"t  c #231B1C",
"y  c #1E201D",
"u  c #21211E",
"i  c #33231D",
"p  c #1F2022",
"a  c #242323",
"s  c #292523",
"d  c #272926",
"f  c #2A2927",
"g  c #2A2728",
"h  c #2C2B2B",
"j  c #332927",
"k  c #3E2A23",
"l  c #31262A",
"z  c #322D2D",
"x  c #2F302B",
"c  c #33312E",
"v  c #3F312E",
"b  c #312F30",
"n  c #382F30",
"m  c #343433",
"M  c #3A3534",
"N  c #3B3C34",
"B  c #3D3C3B",
"V  c #422C1E",
"C  c #443025",
"Z  c #533328",
"A  c #423634",
"S  c #413C3B",
"D  c #42413E",
"F  c #624132",
"G  c #433F40",
"H  c #434342",
"J  c #4E4443",
"K  c #494A43",
"L  c #4C4B4A",
"P  c #504B47",
"I  c #574E4F",
"U  c #505141",
"Y  c #53524F",
"T  c #535252",
"R  c #585856",
"E  c #5E5E5D",
"W  c #665D5E",
"Q  c #606153",
"!  c #60615F",
"~  c #666463",
"^  c #6B6463",
"/  c #6A6A66",
"(  c #6E6A69",
")  c #706F6D",
"_  c #786E6C",
"`  c #73726E",
"'  c #767474",
"]  c #7D7270",
"[  c #797B70",
"{  c #7E7A7B",
"}  c #817F7C",
"|  c #82837E",
" . c #848282",
".. c #8F8A87",
"X. c #8B8B89",
"o. c #958B8B",
"O. c #9B908E",
"+. c gray58",
"@. c #979893",
"#. c #9D999A",
"$. c #A89FA0",
"%. c #ACA3A2",
"&. c #B8BAAF",
"*. c #B6B6B3",
"=. c #BDBCBB",
"-. c #CCB5AD",
";. c #D1B9AF",
":. c #DCBCAD",
">. c #C8BEBD",
",. c #E6C8BE",
"<. c #C6C6C4",
"1. c #CBCBC9",
"2. c #D1D2CD",
"3. c #E1E2D4",
"4. c #FEE0D5",
"5. c #FDE2D9",
"6. c #F5EFEE",
"7. c #FFF8F6",
"8. c #FFFEFD",
/* pixels */
"          0 X         X         - -     -   .       # X O     O       #     X                   X   6 X                                   X X   X   #   o :     ",
"N       + @                       ; - X -           O X             . # X   @ .                   4 + X     #       O                                   X # X . ",
"X.4     #         X                 #   X             O             X 1 o   o X                   0     X #         O     O # X     X                   .   X   ",
"    . X X   #                       #                               X # X                       #         #               O # O   X # .             X       .   ",
"  :           X q     #     #       0 .                                 o .     X               <   O                       X                       y   X   .   ",
"  X       .   Y X.f   #   o q       :           X         X             # #             .       # O X       0               X             X         a   X X .   ",
"  O X         | 2.T X .   o 0 # X           X   O                       X #   .       X X         #         < X           O #   X .           .     #           ",
"  X         X / &.D       . # X       # o   #   # .                     . X           # # .               #   #           X O   : - X         . .               ",
"# 4     X     y B X X               X       X   X             #                 4                   X                     #         X X   X         .   X o     ",
"@     # ;           X     X                   X o 4                                 .       a .   O O   O X X       #         X   # L                           ",
"X O     y   X c X ;   ;       #                   4             .                           T q   X     # O X       # X           - L . # o .   X               ",
"  # :   X X   ;           # #   O X   O       O         #     X X                   L c .       B B #         O # X O                 # 7       #   X X   .   . ",
"    1         ` D   X     # q 0 O # < O   X #   :   # o     o ; X .       .     X     #     X     <   X #       < # O         O X #   q u   X o #   X #         ",
"X       X   X &.[ X     X   0 H   O @     O X   #     .   X # o                     o         o   #           X O X # @       #         X       .   X .         ",
"    #     ;   ; ,   X   #   O O       O O             - d   #                     X   . o   #         X X           # O       # #   X     o       X #           ",
"    .       X     X     #       <     < 1 X         X d '   -         . X   X . q   #   X X         O   X                     # q     .           : 4         X ",
"#       ~ @.7                 @ # #               X   X           #     *       # #           O     O @ 0       .   ^ '   o         .   m           X           ",
"  6 o # 1.8.L X .         X     X       O # X   X                   +   *     + 1 + .     O + # O O h         .   . ` {   7 4   X     X h #     H d #           ",
"X *.'   =.8.D           . - .           # # O       O               +           + O       O . X     O   * o .   .   . > X N p     . o - o     7 L d             ",
"  L m   H R # X     X     - #   X       # O         #           O                       .         O   < 4 . .           #       X             : 0       X       ",
"  X       X               o     # # O             # a @ X < 6 #   o   +     +         O   O     O O #     5 .           7 X @   .                             O ",
"        #     . o X # o 4 a 4 o O # O X           O <     f H O       o       # + o         . O       .   #       %           # X   .                           ",
"    7 4     #           o 6 #   X X               +.E   <     0 . O O     5   + O O           O   p O g &     .   *       #   X :       X X                     ",
"    #     .   X     .     .                       } L     X         4   0 L +           O .     < 2 O *   *   . *   o o     X         .       .                 ",
"                    .   . X         #       X     O 4 p 4 1             # 5 0                                   ' B .   .               o   X                   ",
"                q o   X #     #         O O         # # X X         O       # .   s g   +     1 . .       O     d *   . 7   % X . o     x     : #             X ",
"X               0     o o   X m 4   X   #       X   @                         O   0 a   o   o 1 .       . O         B   % %             m o o q X       X     O ",
"# o             .           X d 0 X           O O   #   O               # O         X   +     X .         . O     4  .  5 . . = 6       #                       ",
". X                 X         X O         X # # X   X   X         + +   1 # O     #     . O   S * .         O     .     . $ . = S .   6 #   X   X X O           ",
"                    # #     o h     X   O O     X                 # #   # . .               O z * o       O O O O   . . . . n _ #     X   .   : p #             ",
"          X X       o X     4 D #   O   o                     X   o O   #     O .   4 g * 1     X         O O O O   &   . e A _   o #     .   # 0 #             ",
"# o o . X # o                   q X O O # X           X   X             9 #     O       o     o X .               .   $ . . . .         X X       O             ",
"L 6                   # X         #                           . . 7 -     X X       O     . $ . . . . o             & .   .       #   : X         +   O #   .   ",
"X         X @       X #           O         X         X @       X # - X X         0 l   $ . . . e = %   . X       o       *   o X - o X .   #       O 8 4 #   X ",
"              X       X   O # X X # X O                           . y             B ^   . . . = A = $   # o         5 + .         # #       : #         .   ^   ",
"O                         O 4 <   O             O O           .   - m X     @ X       * . . . o.%.= .   # X       + S 5 o t D           X X -     O < @ f : ;   ",
"  X       X                 O   X         X 1 4       X 3 < o     X x       -   O       . s J >.7.j   .     @       + *   a a   O     . . #     <     q 0   X o ",
"    O               X X         # +     O X < 4         # #         #         X +     %   5 r ^ O.e .           % .   . = .   X #         -     a T     X . o o ",
"#           O       O # X                                       .     X 4 X   X   o .   =     % %   .             & #       # X           -     ' =.  X .   R , ",
"        # h f   X     X               # #                             o #       o z %   . . . . $ . .     # 4   0 O . A     + X     #   X o     < &   +   , 3.D ",
"      #           O             # #     6 O B           X               >       o S .   .   .   . .         p O O 8 O M   O   X                   O   o   ; N u ",
"#   1   X   a #   O X             4   + a # b O                 # d 7     o     .     . +     . . .   o     <   < 8   2 +     X O O O     . - #       X     ;   ",
"  X X O X                       O p # X 6   X   X           O   b m d # .     .     . 7   % .   . .   X       O   <   O a                 # 6 6           . .   ",
"  O 4   4     # 4       # O       < X   O       O             O h K a           . % z . . X *   . %       @             g X     O @ # O     .     O           . ",
"@   3 a     #   6 X     # # O             X   # O           O X   y     a   . . . 5 f   .   O 9 n i     O   O       O   #       O O @ @           + O + <       ",
"# O 1 B   #     #       O     X #   X X                     X O y     d c   %     . . =   o   b I n # a H 3 @   O                   O       O O O O O < 8   X   ",
"        X     #                                   O # # X     O 0     # % . M P I       . O   4 L a   o 6     O     O O   @   O # O X           O O O O         ",
"      #   O       . O O X               X   # #   # 4 4 O     #   @     *   % ..6.> .     X   X 5 =   o           O     O O               @ < < O O + O   +     ",
"X           .   X   -     . X   #           X q   # #       X     #     # t   M ( % o       @     # X         X       0       #       X   #   O O   O     O     ",
"                      . X     .                 # 6 6 #         #           5   #               . . o   # X         d H     #             O     X             0 ",
"        .               X     .   o     #   #   O # # X                 # o   *   + X O   3     o     X       q X #   # 0 a         O   # #     # O     #   # H ",
"        : #       .     o       X > 4   X   X                     X O     M t   . *       0           . -     .         # q     H 6     #         O # @ 4 #   + ",
"        - -   X #       #   o       *           X O             @     X +   .             #       0 .               X #   O X   G 3     X       X   O           ",
"              X o   .   .     o t # .     .   * # o               X p h     *   .   o O #   O   o       #         #       X   O       # +   #       O #   @ O X ",
"      X     . X           .   B %.W   .     . . +                     0 # O             X   @       #   =.m   .     X                 #     O   #             # ",
"-         o - X   o     . 9   } 7.$.. . . . . . O           @ 3     X @     { t . *     @               E u     O                     q #   X     X     + X   X ",
"    - y   . . .           o : ~ 6.o.. = &   .   # + O 0 X     #       #   # #.z .     .   X   @ . X     X                         #   #     H #   X O       O   ",
"  -   y y     4 #       o #   7 ^ z     .   . . 0 # X #           X   #     5   .   .     O           .     o                               6                   ",
"-         K H u               z .   .   . .     .         X             +           o   O   X     #     . X m 4                         O             O         ",
"  L 6   # <.E   : # .       o z     *   . 5                             .   *     +         X       X X d m X     X                 O   #     #     #       X   ",
"y ! 4     0 o X 4 X     .     #         o 6 .       X             X   #     #   . .   .   @     #       7 a   X           O                       # O       X   ",
"3   @ X X   u           X     X         # :   X #           @             O . . o   O   O f   X       # -   -                               #   h 6     O       ",
"X   @ y   #     X       o       .       6 #     6 X O               O   o O   . .   O     6     X   .     o                                 #   f 0 O X # +     ",
"  @ -   .           .       X . X   X   6 X         X       # #   X   9   a 5     +         6 #         g m                   O         X     O         X # < X ",
"X                 #                   X     >                 .       o . M c           X X             . o .                               O @ X               ",
"      # # #   O   X X           X   o   o   4                       o #   # *           . X X             .                                                 X X ",
"  X X 4 # #                     .   *   o   #                       o *   . # # . #       o X       X                                   X O                     ",
"  - 4 #   X     O                 . #   X     .       . .                               . 4 6 7               .           X               O     #               ",
"    X     O   X X                 .   . X             . . .                     . 4 *       . X   O       O X                                 X 3 O             ",
"                        X           .       o               . X         .   X .   X X     . # 4             @   X     X X     X   O           X             O   ",
"@   <   # #       6     +   X     . m       o .             X #                   # o         .                 O O X + X     X O                   X +         ",
"  + d   O # #   0 m X   #   O     # ` -   . o #           . # :         X         . .               O         O     O o                   O       O 4 4 X       ",
"      # X #     6 d O           #   *         d o   .       .       X   X       .   o   . *       . o   X               9     .   # < #       O   @ p h   0   # ",
"      X       #   X       O         #   .     o         q :     X @   X     a .         . & . . . .         X 3     & # #       6 0 0 4 @       a     # 3 L X   ",
"O 3       O < #     4             o o . o   4 o #   *     o   #   X   - X   D q   X . . o o . . $ . .         - 1   . .     X ;     X         X #         4 X   ",
"# #         #   O   4 X       X *           : : o o .                       X         . * . . . r V . .   X X q p O & & X X   X                   X O       O X ",
"+ O                     X   O   #           X - )       #   .       X   . #   4 o     . . .   t -.;.i . .   - y g . . . $     @ X X             O   X     #     ",
"X             X X O X         O #   .   .   . o q   o o o . x     X           X o   .       . C 4.4.C . %         . 2 t G <                       X             ",
"    #               O     4 # a .     o 4 .       : .   X   o q 3 3   X       .     . .     . i ,.:.V .     X X   . . & s           X X           0   # #   +   ",
"  # h #   X     X       0 m   #       f S #       .       / X.  3 X       -       .     . .   . Z F w $ o X     z l . . +           O X           #   O @ X     "
};
