/* XPM */
static char *_d283d44e3744fe186b8808090ce2988[] = {
/* columns rows colors chars-per-pixel */
"70 70 209 2 ",
"   c None",
".  c #040506",
"X  c #04060B",
"o  c #07080B",
"O  c #0B0B0C",
"+  c #080808",
"@  c #040711",
"#  c #060A14",
"$  c #0B0D13",
"%  c #070A1C",
"&  c #0A0D1A",
"*  c #0E111B",
"=  c #0F1013",
"-  c #131315",
";  c #12141B",
":  c #15181D",
">  c #1A1B1C",
",  c #070B23",
"<  c #070C2A",
"1  c #0A0E2B",
"2  c #0A0E22",
"3  c #0E1225",
"4  c #0D112B",
"5  c #111323",
"6  c #171A22",
"7  c #1B1D23",
"8  c #12152B",
"9  c #16192C",
"0  c #1B1E2B",
"q  c #080C37",
"w  c #0E1235",
"e  c #0C113E",
"r  c #121534",
"t  c #151934",
"y  c #1A1D35",
"u  c #11153B",
"i  c #15193B",
"p  c #1A1E3B",
"a  c #1F2024",
"s  c #1F2128",
"d  c #1F2234",
"f  c #1C213C",
"g  c #222324",
"h  c #24252B",
"j  c #27282A",
"k  c #2B2B2C",
"l  c #2F302F",
"z  c #222535",
"x  c #2D2E31",
"c  c #22253A",
"v  c #25283D",
"b  c #292B3A",
"n  c #262937",
"m  c #2E3033",
"M  c #2E313D",
"N  c #323334",
"B  c #353639",
"V  c #36383B",
"C  c #3B3B3C",
"Z  c #0D1243",
"A  c #0A1049",
"S  c #151944",
"D  c #161A4A",
"F  c #161A48",
"G  c #141A54",
"H  c #1E2244",
"J  c #1C214E",
"K  c #1D2257",
"L  c #202441",
"P  c #252A44",
"I  c #292C43",
"U  c #252B4D",
"Y  c #21264C",
"T  c #2E3144",
"R  c #2E334C",
"E  c #3E3F41",
"W  c #33354B",
"Q  c #353848",
"!  c #252B52",
"~  c #232952",
"^  c #2C3253",
"/  c #2B325A",
"(  c #393D53",
")  c #393E5B",
"_  c #373C57",
"`  c #1A2061",
"'  c #2D356D",
"]  c #2F3668",
"[  c #343B65",
"{  c #383F65",
"}  c #323A6B",
"|  c #333A64",
" . c #242C78",
".. c #2C3671",
"X. c #323C77",
"o. c #3F4043",
"O. c #3C405A",
"+. c #3B4161",
"@. c #444444",
"#. c #444549",
"$. c #47484A",
"%. c #4B4B4C",
"&. c #50504F",
"*. c #4D4E50",
"=. c #4B4D5A",
"-. c #4F5052",
";. c #4F515D",
":. c #545454",
">. c #54555B",
",. c #5B5B5C",
"<. c #5E5F62",
"1. c #555868",
"2. c #565A7A",
"3. c #485473",
"4. c #5B6369",
"5. c #5D6175",
"6. c #646464",
"7. c #65676C",
"8. c #6C6C6C",
"9. c #676867",
"0. c #666A76",
"q. c #6A747B",
"w. c #6A7A7C",
"e. c #677678",
"r. c #747474",
"t. c #7C7C7C",
"y. c #75767A",
"u. c #2C5C96",
"i. c #4E5786",
"p. c #596A98",
"a. c #626B83",
"s. c #6F7F83",
"d. c #777B88",
"f. c #777C96",
"g. c #6B7092",
"h. c #4D5FB5",
"j. c #4E61B5",
"k. c #697EC1",
"l. c #3A8CB0",
"z. c #5D929D",
"x. c #68848B",
"c. c #73868B",
"v. c #708E92",
"b. c #768F96",
"n. c #6C80BF",
"m. c #51BDC3",
"M. c #47CBD8",
"N. c #4EDDE6",
"B. c #838484",
"V. c #85868B",
"C. c #848B8B",
"Z. c #8C8C8C",
"A. c #908F8F",
"S. c #90908F",
"D. c #8D8F92",
"F. c #838699",
"G. c #859394",
"H. c #8E9292",
"J. c #8E999A",
"K. c #939393",
"L. c #93969B",
"P. c #93999B",
"I. c #9B9C9C",
"U. c #A09F9F",
"Y. c #9E9EA2",
"T. c #8E9FB1",
"R. c #93ABAB",
"E. c #99A2A3",
"W. c #8CAAB4",
"Q. c #98B6BB",
"!. c #90A1B2",
"~. c #A3A3A4",
"^. c #ABABAB",
"/. c #A7A8A8",
"(. c #ACB3B3",
"). c #AEBBBB",
"_. c #B4B4B4",
"`. c #B6B6B9",
"'. c #B4BABA",
"]. c #BBBCBC",
"[. c #B8B8B7",
"{. c #A3BFC0",
"}. c #B1BFC0",
"|. c #A4C2C4",
" X c #ADC4C5",
".X c #BCC4C4",
"XX c #B5C7C9",
"oX c #BBD8DA",
"OX c #B6DAE1",
"+X c #C3C3C3",
"@X c #C3CCCC",
"#X c #CBCBCB",
"$X c #C4D3D3",
"%X c #C4DADB",
"&X c #CDDEDE",
"*X c #C5D7D7",
"=X c #D4D4D4",
"-X c #DBDBDB",
";X c #D5DFDF",
":X c #CCE2E2",
">X c #C7E2E2",
",X c #DEE3E3",
"<X c #DAE8E8",
"1X c #E2E2E2",
"2X c #EBEBEA",
"3X c #E4EBEB",
"4X c #EAF3F3",
"5X c #F5F5F5",
"6X c #FBFBFB",
/* pixels */
"                                                                                                                                            ",
"    + j >.,.,.                                                                                                                              ",
"        6.K.~.~.~.K.t.                                                                                                                      ",
"            K.^._._._.^.I.B.                                                                                                                ",
"              t.~.[.[._.^.~.I.K.t.                                                                                                          ",
"                %.Z.'.(.^.^._._.^.I.Z.                                                                                                      ",
"                  B Q.OXoX%X*XXX.X.X'.I.B.                                                                                                  ",
"                    H..X@X@X$X%X:X:X>X&X$X_.                                                                                                ",
"            %.6.y.B.I.^._._._.].+X.X].'. X%X&X@X                                                                                            ",
"        @.:.>.,.,.,.9.r.t.Z.I.~.Z.>.k g ,.B.J.XXoX'.                                                                                        ",
"        ].+X+X+X_.I.t.%.N N N x ; X X X a 8.~.H.G.|. X                                                                                      ",
"        B B :.8.y.6.        $ ; * # X X X X N I.].E.R.{.                                                                                    ",
"            k %.8.y.r.8.8.6.,.:.#.V n 7 ; @ X O %._.[.(.R.                                                                                  ",
"                @.8.Z.I.I.Z.t.B.K.K.K.Z.Z.9.h $ . O ,.^.P.,.                                                                                ",
"                      t.I.B.>.E V V V #.9.I.^.t.V k ,.~.U.Z.9.%.                                                                            ",
"                      O Q B.^.^.B.>.x j g x ,.D.[._.+X#X=X=X=X+X^.B.9.%.                                                                    ",
"                    + ; c v 6.].#X+X6.h n I P H W B M O.0.L.+X=X=X=X#X].^.K.C.9.                                                            ",
"                + & t L z L a 6.].#X~.b I z 7 ; 3 w i y y y ( d.+X=X=X-X-X,X<X+X_.Z.                                                        ",
"              5 t H H p 9 i ; V ^._.[.-.- - ; t y h h d y 9 5 4 ( ~.-X1X-X4X,X#X=X#XB.  t.y.                                                ",
"            > ~ H D i 8 w 4 $ >.I.I.~.D.m : 8 7 g a 0 0 a k #.=.#.<.+X#X;X3X#X#X=X1Xy.* I.#X^.t.                                            ",
"            r K p S u 3 e * @.y.>.j g %.w.c.4.4.e.x.c.C.Z.K.^.[.[.^._.].:X+X_.+X=X+XT % #.=X2X1X].B.%.                                      ",
"            1 8 D r w 4 p %.,.m # # * 6 7 N o.%.7.s.v.4.d.Y.~.K.I.~.^.XXXX^._._.#X`.P u t ~.1X1X-X=X+XI.9.                                  ",
"                4 w ; B :.V - @ < w S H c h 7 - o o - x p.n.d.K.B.Z.Z.!.P.I.I.~.[._.#.7 n L.#X+X#X=X-X-XI.r.y.                              ",
"                  g %.>.a X @ # # & * 8 r & o O > k V C E 3.j.1.9.:.>.a.9.8.y.B.Z.K.7.J W K.I.~._.[._.C.I.=X=X_.Z.                          ",
"                l :.@.7 , < < < % X X + O > g j x x m x k V 2.g.@.> > 7 g k @.>.,.9.,.H p 9.B.Z.Z.B.9.Z.^._.[.+X#X+XI.                      ",
"              C %.k $ $ # @ X X @ O > g k N k k k N N @.B.[.-X2X1.) ) R c 7 ; g j b s F i x %.>.,.,.8.y.y.B.Z.I.~.^.^.Z.I.                  ",
"            k %.@.> > > > > g j k N B x N N k x N k g ~.6X5X5X=XB Q W ^ ! ! Y t 3 e Z w Z A 2 Z S 7 z x C %.,.,.9.8.y.I._.^.Z.              ",
"              > k V C V N k g > > g B N B B V B > ; 7 0.2X6X6XK.O > k l k j 7 8 4 1 , q , 1                   j N @.,.9.r.B.K.Z.            ",
"                                O k C C %.>.V > 6 U | ( V.2X+Xk . + + o O - - $ @ @ X                                   j B :.y.Z.8.        ",
"                              > x @.:.,.%.k 0 U } [ ( ) ^ ;.%.C C V N k k k 7 - o +                                           j @.,.C       ",
"                        - > k V %.%.V j z / } [ ) O.{ ] H B 9.9.9.9.9.8.r.r.9.9.,.%.V k k g                                       - 7 O     ",
"                  > a j k k > - a d Y ' X.} [ { [ | ! 0 @.y.t.t.t.B.Z.K.K.K.K.I.K.K.Z.S.Z.B.y.6.%.- O                                   +   ",
"                o = -       + r K  . ...] | | ^ P 7 g ,.Z.K.I.~.^._._._.^.^.^.^._._.Z.7.4.0.q.V.K.:.9.9.6.%.N                               ",
"                            + Z G D S f d 0 : $ o > 9.Z.I.~.^.^.~.I.t.6.:.@.@.@.%.6.B.Y.Y.f.i.u.l.z.P.^.I.B.9.%.B N                         ",
"                              + & @ o + + . . + + - 9.^.[.=X-X-X-X-X=X=X1X-X=X1X=X_.Z.,.^.=X#XW.M.N.m.w.A.~.^.K.r.r.9.                      ",
"                              + & @ o + + . . + o - 9._.+X=X-X1X-X-X-X1X-X1X1X-X-X+XK.>.^.=X#XW.M.N.m.w.K.^._.K.8.y.B.                      ",
"                            + e G F i p y 7 ; $ + > 9.Z.I.~.^.^.~.K.t.6.%.%.@.@.%.4.t.I.~.F.i.u.l.z.J.~.I.B.9.%.B V                         ",
"                o - -       + r `  . .' ] | | ^ v 7 g 6.Z.K.I.~.^._._._.^.~.~./._._.Z.7.1.5.0.V.K.,.8.9.9.%.B                               ",
"                  > g j k k > - 7 d ~ ..X.} [ { [ | U 0 %.y.t.B.B.B.Z.K.K.K.K.I.P.K.Z.K.K.Z.y.9.%.- -                                   +   ",
"                      O - > k V $.$.V j c / } [ ) +.{ ] H V 9.9.9.9.9.8.r.r.8.9.9.:.C N k j >                                     - > O     ",
"                              > N @.>.,.%.k 0 U } [ ( ) ^ =.%.@.@.C B N N k g ; O +                                           g C ,.C       ",
"                                O k E E *.>.V : 7 U } ( B.2X].k . + + o O - - $ @ @ X                                   g N %.r.Z.r.        ",
"              - k V V B N k g > - g B N B V C B > ; 0 0.5X5X5XI.o > k k k j 7 5 4 1 , q % 1                     N C ,.6.8.B.K.Z.            ",
"            j %.@.> > > > g j k k N B x N N k x N k a ~.6X6X6X#XN Q T R ! ! Y t 5 e Z w e A 2 Z S 7 h k V %.,.,.6.8.y.I._.^.Z.              ",
"              C %.k $ $ # @ X X @ $ > j k N k k k N N $.B.#X2X1X>.{ +.^ v 0 ; > h n 7 S i x $.=.>.>.8.y.y.t.Z.I.~.^.^.H.I.                  ",
"                N :.o.> , < < < % X X + O > g j x x m k k V 2.f.@.> > 7 g k @.>.,.6.,.H y 6.B.B.B.t.9.Z.^.^._.+X#X+X~.                      ",
"                  j %.>.7 X @ # # & * 8 4 & o O > k V C C 3.h.1.9.:.>.a.6.9.r.B.Z.S.7.J W K.I.~._._.^.B.I.=X=X[.K.                          ",
"                4 w ; V :.B $ @ < w S H c h 7 - + + ; N p.k.d.Z.B.Z.Z.T.L.K.I.~._._.$.7 b L.+X+X#X=X-X-XI.y.B.                              ",
"            1 8 D r w 4 c &.,.n % % ; 6 7 x C #.4.e.x.1.f.L.~.K.K.~.^.XXXX^._._.#X`.I u t E.1X1X-X=X+X~.8.                                  ",
"            r K p S u 3 e ; %.y.:.g 7 $.e.c.0.4.w.v.b.D.Z.I.^.[.]._._.].:X+X_.+X=X+XI & o.=X2X1X+XZ.:.                                      ",
"            > ~ H D i 8 w 4 = ,.I.I.I.K.B 6 9 7 g a 0 0 g k *.1.$.6.+X#X,X3X#X#X=X1Xr.* I.=X_.B.                                            ",
"              5 i H H p 9 i ; V ^._.[.:.- - ; t y h h d y 9 5 4 W ~.-X1X-X4X,X#X=X=XV.  B.t.                                                ",
"                o & y L z H a <.].#X~.M P z 7 ; 4 w i y y y W y.+X=X=X-X-X,X<X+X[.K.                                                        ",
"                    + ; c v ,.[.#X#X9.h n I P H T x b ( 2.D.].=X=X=X#X].^.I.G.8.                                                            ",
"                      o T d.^.^.Z.,.m j g x >.Z.`._.].+X=X-X=X+X^.Z.8.%.                                                                    ",
"                      y.I.Z.,.@.B B B o.6.I.^.B.o.N 9.^.~.Z.r.:.                                                                            ",
"                E 9.Z.I.I.Z.y.B.K.K.Z.K.Z.8.j $ . O >.^.I.:.                                                                                ",
"            k -.8.y.y.r.y.8.,.,.*.E m s ; $ X o C ~.+X).R.                                                                                  ",
"        k N %.6.y.Z.I._.#XZ.- ; * # @ X X X k Z.].I.R.|.                                                                                    ",
"        ~.#X#X].+X_.~.I.Z.9.N k * X X X 7 8.^.Z.G.|. X                                                                                      ",
"        k >.,.,.,.,.6.8.y.B.I.I.B.*.j 7 ,.B.H. XoX'.                                                                                        ",
"            %.6.y.B.I.^._._._.].].].'.(.).*X&X$X                                                                                            ",
"                    H.].@X@X@X%X:X:X:X:X*X'.                                                                                                ",
"                  m Q.OXoX%X%XXX.X.X'.~.B.                                                                                                  ",
"                %.Z.'.(.^.^._._.^.I.Z.                                                                                                      ",
"              y.~.[.[._.^.^.~.K.B.                                                                                                          ",
"            K.^._._._.^.I.B.                                                                                                                ",
"        ,.K.~.~.~.K.B.                                                                                                                      ",
"    + j ,.6.6.                                                                                                                              ",
"                                                                                                                                            "
};
