/* XPM */
static char *result[] = {
/* columns rows colors chars-per-pixel */
"80 80 213 2 ",
"   c #040505",
".  c #04060A",
"X  c #06080D",
"o  c #0A0B0C",
"O  c #080709",
"+  c #040611",
"@  c #060A13",
"#  c #0B0D13",
"$  c #060B1C",
"%  c #0A0D19",
"&  c #0F1014",
"*  c #0E111B",
"=  c #121314",
"-  c #13151A",
";  c #17181D",
":  c #1B1B1D",
">  c #070B24",
",  c #0A0D24",
"<  c #060A2C",
"1  c #0A0E2B",
"2  c #0E1123",
"3  c #0D112B",
"4  c #131523",
"5  c #161923",
"6  c #1C1D22",
"7  c #16192C",
"8  c #1A1D2B",
"9  c #121629",
"0  c #0A0E35",
"q  c #080D36",
"w  c #0D1234",
"e  c #0E123C",
"r  c #121634",
"t  c #151835",
"y  c #1B1E33",
"u  c #12163C",
"i  c #15193B",
"p  c #181C3C",
"a  c #1E2023",
"s  c #1E212D",
"d  c #1E2133",
"f  c #1E213B",
"g  c #222324",
"h  c #24262A",
"j  c #27282C",
"k  c #2B2B2D",
"l  c #222533",
"z  c #2D2E31",
"x  c #22253B",
"c  c #25293E",
"v  c #272A38",
"b  c #2F3032",
"n  c #323334",
"m  c #353639",
"M  c #3B3C3D",
"N  c #37383A",
"B  c #090F48",
"V  c #0D1242",
"C  c #0C124B",
"Z  c #111641",
"A  c #1B1F43",
"S  c #171B48",
"D  c #141A57",
"F  c #090F50",
"G  c #1E2344",
"H  c #1D224C",
"J  c #1C2153",
"K  c #1F255C",
"L  c #212544",
"P  c #252942",
"I  c #2A2F4D",
"U  c #24294A",
"Y  c #2B304B",
"T  c #393B46",
"R  c #252A52",
"E  c #252B59",
"W  c #2C335D",
"Q  c #2B3255",
"!  c #393D55",
"~  c #363B57",
"^  c #181F71",
"/  c #1D267C",
"(  c #252C66",
")  c #2D3564",
"_  c #2D356B",
"`  c #353C63",
"'  c #343C6B",
"]  c #353C63",
"[  c #212975",
"{  c #2E3878",
"}  c #333B70",
"|  c #323C7C",
" . c #3E4244",
".. c #3A405C",
"X. c #3A4169",
"o. c #394375",
"O. c #444444",
"+. c #44464B",
"@. c #4B4C4C",
"#. c #47494B",
"$. c #4C4D51",
"%. c #4E5152",
"&. c #4A5053",
"*. c #545454",
"=. c #55565B",
"-. c #5B5B5B",
";. c #57595A",
":. c #454963",
">. c #5D5E62",
",. c #555964",
"<. c #444C76",
"1. c #4B5279",
"2. c #5E6162",
"3. c #5C656C",
"4. c #5E647E",
"5. c #636364",
"6. c #66666A",
"7. c #6B6C6C",
"8. c #66686E",
"9. c #6E6F73",
"0. c #646876",
"q. c #68777A",
"w. c #747474",
"e. c #7B7B7C",
"r. c #767779",
"t. c #80807F",
"y. c #2C3680",
"u. c #3D4B9F",
"i. c #246CA8",
"p. c #4A578A",
"a. c #4D5C95",
"s. c #6B7785",
"d. c #767A85",
"f. c #727F9F",
"g. c #5A6FA2",
"h. c #536293",
"j. c #586EC7",
"k. c #2C96BC",
"l. c #568486",
"z. c #6D8589",
"x. c #7E8182",
"c. c #738386",
"v. c #789398",
"b. c #4796A7",
"n. c #778FA5",
"m. c #2B9BC0",
"M. c #7288C7",
"N. c #4AD4DE",
"B. c #51D4DA",
"V. c #53E4EC",
"C. c #838384",
"Z. c #8B8B8B",
"A. c #888887",
"S. c #8E8F91",
"D. c #858D97",
"F. c #8E9292",
"G. c #879799",
"H. c #949494",
"J. c #95969A",
"K. c #9B9B9C",
"L. c #979898",
"P. c #8F908E",
"I. c #9FA09F",
"U. c #A0A09F",
"Y. c #8B99A3",
"T. c #9093A2",
"R. c #89A3A6",
"E. c #9CA4A9",
"W. c #84AAB1",
"Q. c #9AB3B4",
"!. c #96A7B7",
"~. c #A4A4A4",
"^. c #ABABAB",
"/. c #A4A9AB",
"(. c #ACAEB1",
"). c #AAACBC",
"_. c #ACB2B2",
"`. c #B4B4B4",
"'. c #B6B6B9",
"]. c #B4BABB",
"[. c #BBBBBB",
"{. c #B8B7B7",
"}. c #C0BFBF",
"|. c #C0C0BF",
" X c #B9B9C0",
".X c #BDC4C4",
"XX c #B7C5C7",
"oX c #B7D3D5",
"OX c #ADCDCE",
"+X c #B6DDE3",
"@X c #BEE1E4",
"#X c #C3C3C3",
"$X c #C4CCCC",
"%X c #CCCCCC",
"&X c #C8C7C7",
"*X c #C4D1D1",
"=X c #C9D3D3",
"-X c #C5DCDC",
";X c #CCDCDC",
":X c #D3D3D3",
">X c #DCDCDC",
",X c #D7D8D8",
"<X c #C3DFE0",
"1X c #CCE4E4",
"2X c #C8E4E4",
"3X c #D7E4E5",
"4X c #E4E4E4",
"5X c #ECECEC",
"6X c #E1EFEF",
"7X c #E6F2F2",
"8X c #F4F4F4",
"9X c #FCFCFC",
"0X c None",
/* pixels */
"0X0X0X0X0X0X0X0X0X0X0X0X0X0X0X0X0X0X0X0X0X0X0X0X0X0X0X0X0X0X0X0X0X0X0X0X0X0X0X0X0X0X0X0X0X0X0X0X0X0X0X0X0X0X0X0X0X0X0X0X0X0X0X0X0X0X0X0X0X0X0X0X0X0X0X0X0X0X0X0X",
"0X0X  = N O.0X0X0X0X0X0X0X0X0X0X0X0X0X0X0X0X0X0X0X0X0X0X0X0X0X0X0X0X0X0X0X0X0X0X0X0X0X0X0X0X0X0X0X0X0X0X0X0X0X0X0X0X0X0X0X0X0X0X0X0X0X0X0X0X0X0X0X0X0X0X0X0X0X0X",
"0X0X0X0XO.t.L.H.H.H.t.0X0X0X0X0X0X0X0X0X0X0X0X0X0X0X0X0X0X0X0X0X0X0X0X0X0X0X0X0X0X0X0X0X0X0X0X0X0X0X0X0X0X0X0X0X0X0X0X0X0X0X0X0X0X0X0X0X0X0X0X0X0X0X0X0X0X0X0X0X",
"0X0X0X0X0X0XC.^.`.`.(.^.U.H.t.0X0X0X0X0X0X0X0X0X0X0X0X0X0X0X0X0X0X0X0X0X0X0X0X0X0X0X0X0X0X0X0X0X0X0X0X0X0X0X0X0X0X0X0X0X0X0X0X0X0X0X0X0X0X0X0X0X0X0X0X0X0X0X0X0X",
"0X0X0X0X0X0X0Xr.E.`.{.{.{.`.^.L.t.0X0X0X0X0X0X0X0X0X0X0X0X0X0X0X0X0X0X0X0X0X0X0X0X0X0X0X0X0X0X0X0X0X0X0X0X0X0X0X0X0X0X0X0X0X0X0X0X0X0X0X0X0X0X0X0X0X0X0X0X0X0X0X",
"0X0X0X0X0X0X0X0X0XC.`.{.`.(.^.^.^.^.L.r.0X0X0X0X0X0X0X0X0X0X0X0X0X0X0X0X0X0X0X0X0X0X0X0X0X0X0X0X0X0X0X0X0X0X0X0X0X0X0X0X0X0X0X0X0X0X0X0X0X0X0X0X0X0X0X0X0X0X0X0X",
"0X0X0X0X0X0X0X0X0X0X2./.].(.^.^.`.`.^.^.~.A.0X0X0X0X0X0X0X0X0X0X0X0X0X0X0X0X0X0X0X0X0X0X0X0X0X0X0X0X0X0X0X0X0X0X0X0X0X0X0X0X0X0X0X0X0X0X0X0X0X0X0X0X0X0X0X0X0X0X",
"0X0X0X0X0X0X0X0X0X0X0Xq.+X+X@X-X-XoXXX.X.X`.K.t.0X0X0X0X0X0X0X0X0X0X0X0X0X0X0X0X0X0X0X0X0X0X0X0X0X0X0X0X0X0X0X0X0X0X0X0X0X0X0X0X0X0X0X0X0X0X0X0X0X0X0X0X0X0X0X0X",
"0X0X0X0X0X0X0X0X0X0X0X5.^..X$X*X*X<X1X1X1X2X;X$X`.0X0X0X0X0X0X0X0X0X0X0X0X0X0X0X0X0X0X0X0X0X0X0X0X0X0X0X0X0X0X0X0X0X0X0X0X0X0X0X0X0X0X0X0X0X0X0X0X0X0X0X0X0X0X0X",
"0X0X0X0X0X0X0X0X*.w.C.H.^.`.`.`.`.#X#X#X$X=X=X2X1X-X#X0X0X0X0X0X0X0X0X0X0X0X0X0X0X0X0X0X0X0X0X0X0X0X0X0X0X0X0X0X0X0X0X0X0X0X0X0X0X0X0X0X0X0X0X0X0X0X0X0X0X0X0X0X",
"0X0X0X0X= b O.*.5.7.7.w.C.P.L.~.^.`._.I.w.@.O.6.C._.1X-X].0X0X0X0X0X0X0X0X0X0X0X0X0X0X0X0X0X0X0X0X0X0X0X0X0X0X0X0X0X0X0X0X0X0X0X0X0X0X0X0X0X0X0X0X0X0X0X0X0X0X0X",
"0X0X0X0X0X~.H.Z.C.7.5.-.*.#.@.;.7.7.O.: .   # $.J.Z.r.R.oXOX0X0X0X0X0X0X0X0X0X0X0X0X0X0X0X0X0X0X0X0X0X0X0X0X0X0X0X0X0X0X0X0X0X0X0X0X0X0X0X0X0X0X0X0X0X0X0X0X0X0X",
"0X0X0X0X7.L.~.}.:X,X:X0X0X0X0X0X& * & @ + . . . g x.&XK.x.Q.oXG.0X0X0X0X0X0X0X0X0X0X0X0X0X0X0X0X0X0X0X0X0X0X0X0X0X0X0X0X0X0X0X0X0X0X0X0X0X0X0X0X0X0X0X0X0X0X0X0X",
"0X0X0X0X0XO = b O.@.O.k k 0X0X= - : * * $ + . . . . n ~.:X/.G.OXG.0X0X0X0X0X0X0X0X0X0X0X0X0X0X0X0X0X0X0X0X0X0X0X0X0X0X0X0X0X0X0X0X0X0X0X0X0X0X0X0X0X0X0X0X0X0X0X",
"0X0X0X0X0X0X0Xb @.w.A.Z.C.e.e.r.w.7.2.=.+.m j 5 & + . o @.`.&X_.Q.&.0X0X0X0X0X0X0X0X0X0X0X0X0X0X0X0X0X0X0X0X0X0X0X0X0X0X0X0X0X0X0X0X0X0X0X0X0X0X0X0X0X0X0X0X0X0X",
"0X0X0X0X0X0X0X0X0X0X*.t.L.U.U.Z.e.C.H.K.L.L.L.H.w.b # X   & 5.^.I.9.0X0X0X0X0X0X0X0X0X0X0X0X0X0X0X0X0X0X0X0X0X0X0X0X0X0X0X0X0X0X0X0X0X0X0X0X0X0X0X0X0X0X0X0X0X0X",
"0X0X0X0X0X0X0X0X0X0X0X0X5.H.~.e.@.n n M M N @.r.~._.A.O.: a -.~.J.t.2.+.0X0X0X0X0X0X0X0X0X0X0X0X0X0X0X0X0X0X0X0X0X0X0X0X0X0X0X0X0X0X0X0X0X0X0X0X0X0X0X0X0X0X0X0X",
"0X0X0X0X0X0X0X0X0X0X0X0X0Xa ,.K.(.~.d.$.n z h g m 7.K.|._.|.:X:X,X:X:X#X^.A.5. .k 0X0X0X0X0X0X0X0X0X0X0X0X0X0X0X0X0X0X0X0X0X0X0X0X0X0X0X0X0X0X0X0X0X0X0X0X0X0X0X",
"0X0X0X0X0X0X0X0X0X0X0X0X  & L m t.}.#X#XA.z h j l c U :.w.2.-.9.J. X:X>X:X:X%X[.~.A.7.-.0X0X0X0X0X0X0X0X0X0X0X0X0X0X0X0X0X0X0X0X0X0X0X0X0X0X0X0X0X0X0X0X0X0X0X0X",
"0X0X0X0X0X0X0X0X0X0XO @ 4 x P L k C.#X%X%X-.l I Q f s * % > e A G Y >.~.:X,X:X:X:X:X%X1X#XL.P.>.0X0X0X0X0X0X0X0X0X0X0X0X0X0X0X0X0X0X0X0X0X0X0X0X0X0X0X0X0X0X0X0X",
"0X0X0X0X0X0X0X0X0X# & L x p d G : k K.[.&XH.x j : = - w i f s s d t t d >.`.:X:X>X>X3X7X>X%X%X(.6.0X0X0X0X0X0X0X0X0X0X0X0X0X0X0X0X0X0X0X0X0X0X0X0X0X0X0X0X0X0X0X",
"0X0X0X0X0X0X0X0X5 D x D p 7 t r * g L._.'.'.O.# & 2 f s s s d f y 4 - 2 0 v I.>X4X,X7X5X%X:X:X>XP.0Xe.^.w.0X0X0X0X0X0X0X0X0X0X0X0X0X0X0X0X0X0X0X0X0X0X0X0X0X0X0X",
"0X0X0X0X0X0X0X: E A S i u 2 V , # @.H.L.Z.I.Z.T a 9 a a a a s a j z =.6.5.;.9.#X&X;X6X:X}.:X,X4Xe.@ >.:X:X[.C.O.0X0X0X0X0X0X0X0X0X0X0X0X0X0X0X0X0X0X0X0X0X0X0X0X",
"0X0X0X0X0X0X0Xr E y D r r 3 V = O.r.5.z = a @.c.v.z.3.q.v.v.G.L.H.U.~.{.#X}.`.`.[.;X=X`.}.#X,X[.c * 4 K.5X4X4X&XA.*.0X0X0X0X0X0X0X0X0X0X0X0X0X0X0X0X0X0X0X0X0X0X",
"0X0X0X0X0X0X0X0 4 S i Z , 0 s %.7.T = X # - ; 6 b  .#.2.e.v.n.3.d.K.~.K.S.U.~.^. XoX`.(.{.{.:X`.P u w =.>X4X4X>X,X&XU.7.0X0X0X0X0X0X0X0X0X0X0X0X0X0X0X0X0X0X0X0X",
"0X0X0X0X0X0X0X0X0Xr 3 0 - m ;.O.: X < q V A f l h s 6 & o O = j g.M.d.S.S.A.H.H.!.!.L.^.~.`.}.{. .6 7 :.&X%X&X%X,X>X4X=Xe.*.0X0X0X0X0X0X0X0X0X0X0X0X0X0X0X0X0X0X",
"0X0X0X0X0X0X0X0X0X0X, g @.;.g   . X @ $ 2 7 A p 4 o . O = j M O.+.a.j.0.e.w.6.6.n.9.e.t.A.H.K.U.6.p d t.^.~.(.}.&X%X{.C.K.:X#XH.0X0X0X0X0X0X0X0X0X0X0X0X0X0X0X0X",
"0X0X0X0X0X0X0X0X0X0Xn *.%.j $ > > > $ @ @ @ X X # & : g n n n n n m o.u.+.O.j n +.M O.*.5.7.w.r.9.R D *.A.H.L.K.L.C.7.~.&X%X%X%X#X~.0X0X0X0X0X0X0X0X0X0X0X0X0X0X",
"0X0X0X0X0X0X0X0X: M *.N = # , , > > > .   . = : k k k j k b n k z *.t.).^.j h g : = = : n #.@.%.@.p 7 z 7.w.w.w.7.5.Z.H.H.L.~.{.&X%X#XU.0X0X0X0X0X0X0X0X0X0X0X0X",
"0X0X0X0X0X0X0Xn @.*.k o # # X O . . O = 6 k k z b k k k b b n 6.[.4X5X9X`.I p.<.X.W I 8 = = 4 i - u D r h m ! O.@.5.5.7.w.e.C.Z.P.H.~.P.~.^.0X0X0X0X0X0X0X0X0X0X",
"0X0X0X0X0X0Xo g O.@.g g a g g k z n n n n n n n b k b n b a a [.9X8X8X9Xw.k v v c P L R U r 9 u C e 1 F B $ F V * 4 6 g n O.*.*.-.5.7.Z.~.`.(.Z.0X0X0X0X0X0X0X0X",
"0X0X0X0X0X0X0X0X& g n M M m b g a ; = = n n n n N M M h - - s 0.4X9X9X4Xm O : k n z z g - 3 1 1 $ q < # V 0X0X0X0X0X0X0X0X0X0X0Xk n *.>.5.w.C.H.H.w.0X0X0X0X0X0X",
"0X0X0X0X0X0X0X0X0X0X0X0X0X0X0X0X0X0X0X= N M M #.;.O.a * s R ' ! A.5X5Xr.O       O o = : = # + . . 0X0X0X0X0X0X0X0X0X0X0X0X0X0X0X0X0X0X0X: k M ;.e.Z.e.0X0X0X0X0X",
"0X0X0X0X0X0X0X0X0X0X0X0X0X0X0X0X0X0Xa N O.%.>.>.N : s R _ ] T ..Y 8.6.m b k k g : : : = # O     0X0X0X0X0X0X0X0X0X0X0X0X0X0X0X0X0X0X0X0X0X0X0X: k @.7.-.0X0X0X0X",
"0X0X0X0X0X0X0X0X0X0X0X0X0X0X  o : n O.@.;.@.k a f W } ] ....X.] ( 7 #.5.-.5.5.-.5.5.5.-.%.@.M k : = o 0X0X0X0X0X0X0X0X0X0X0X0X0X0X0X0X0X0X0X0X0X0X& : k g 0X0X0X",
"0X0X0X0X0X0X0X0X0X0X0X= : g k n b k n n g s U _ o.X.X.~ ..X.] H g ;.w.w.w.w.w.e.t.C.t.t.C.A.A.t.w.9.7.>.@.O.z : 0X0X0X0X0X0X0X0X0X0X0X0X0X0X0X0X0X0X0X0Xo O o 0X",
"0X0X0X0X0X0X0X0X0Xo = : g g g : o o 4 f ( y.u.' ) X.X.' W U s j 7.C.C.A.P.P.L.U.~.^.~.^.^.^.~.U.Z.Z.S.K.L.S.A.w.g g : g 0X0X0X0X0X0X0X0X0X0X0X0X0X0X0X0X0X0X0X0X",
"0X0X0X0X0X0X0X0X0X0X0X0X0X0X0X0X  e ^ / [ ( E ) ) Q P d : = M t.H.K.~.^.^.{.{.`.^.K.P.P.P.H.^.{.L.w.,.&.:.1.s.D.w.P.P.P.r.-.O.k 0X0X0X0X0X0X0X0X0X0X0X0X0X0X0X0X",
"0X0X0X0X0X0X0X0X0X0X0X0X0X0X0X0X  1 Z i t 7 5 5 - & X   O M r.Z.H.U.^.^.~.U.Z.7.*.@.@.O.O.O.M @.7.L.{.(.T.a.i.k.b.v.~.K.Z.e.5.*.M N 0X0X0X0X0X0X0X0X0X0X0X0X0X0X",
"0X0X0X0X0X0X0X0X0X0X0X0X0X0X0X0X0X. @ @ X . .         X o : t.{.}.:X4X4X>X4X5X>X4X8X5X4X4X8X4X&XL.;.t.:X:X#XW.N.B.B.l.e.~.^.`.H.r.r.r.0X0X0X0X0X0X0X0X0X0X0X0X0X",
"0X0X0X0X0X0X0X0X0X0X0X0X0X0X0X0X0X  @ @ X . O         X o : t.[.%X:X4X4X5X4X4X5X5X5X5X8X8X4X4X:X~.-.e.:X:X%XW.N.V.B.l.t.~.{.|.L.w.e.C.w.0X0X0X0X0X0X0X0X0X0X0X0X",
"0X0X0X0X0X0X0X0X0X0X0X0X0X0X0X0X  > V t t 9 5 ; = @ X     M r.Z.H.K.^.^.^.K.A.9.5.@.@.@.@.O.@.@.5.S.{.`.T.h.i.k.b.v.U.L.Z.r.5.*.M O.5.0X0X0X0X0X0X0X0X0X0X0X0X0X",
"0X0X0X0X0X0X0X0X0X0X0X0X0X0X0X0X. e ^ / / ( ) ) W Q P s : & O.C.L.K.~.^.`.`.`.`.~.H.P.A.A.Z.~.{.U.e.,.:.:.<.s.D.r.H.H.P.t.5.O.k 0X0X0X0X0X0X0X0X0X0X0X0X0X0X0X0X",
"0X0X0X0X0X0X0X0X0Xo = : g g : : o # 4 G ( y.| } ' ] X.' W U 5 z 7.C.A.A.P.P.K.U.^.^.~.^.(.^.^.U.A.C.S.J.L.H.Z.e.g j g k 0X0X0X0X0X0X0X0X0X0X0X0X0X0X0X0X0X0X0X0X",
"0X0X0X0X0X0X0X0X0X0X0X- : g k n n g n z a s R } o.' X.~ X.' ) G g -.r.r.r.w.w.e.t.C.A.t.A.A.A.t.e.r.7.5.;.O.n g 0X0X0X0X0X0X0X0X0X0X0X0X0X0X0X0X0X0X0X0Xo   O 0X",
"0X0X0X0X0X0X0X0X0X0X0X0X0X0XO = : n O.%.*.#.k a f ) } ] ! ..X.] E 8 @.5.5.5.5.5.5.5.5.5.-.@.O.b a = = 0X0X0X0X0X0X0X0X0X0X0X0X0X0X0X0X0X0X0X0X0X0X0X= k g 0X0X0X",
"0X0X0X0X0X0X0X0X0X0X0X0X0X0X0X0X0X& g N O.*.>.;.n : s W ' ~ T ..I 3.6.N n n k g g g : = o O     0X0X0X0X0X0X0X0X0X0X0X0X0X0X0X0X0X0X0X0X0X0X0X= k O.7.;.0X0X0X0X",
"0X0X0X0X0X0X0X0X0X0X0X0X0X0X0X0X0X0X0X= M T M @.;.O.a = d E ' ..C.5X5X9.O   O   O o = = ; o + + O 0X0X0X0X0X0X0X0X0X0X0X0X0X0X0X0X0X0X0X: g m *.r.Z.e.0X0X0X0X0X",
"0X0X0X0X0X0X0X0X& : n M M N k g : = = = z N n N N M M g = : s 0.8X8X5X5Xm O : k n z k g - 4 1 1 $ < q o 0X0X0X0X0X0X0X0X0X0X0X0Xk n @.;.5.9.t.H.H.r.0X0X0X0X0X0X",
"0X0X0X0X0X0Xo g M @.k g g g k k n b n n n n k n n k k N b a : ].9X8X8X8Xw.h z z v P L U H r 9 w C V 1 B B % F B # 4 5 g n O.#.*.;.5.7.A.~.`.(.H.0X0X0X0X0X0X0X0X",
"0X0X0X0X0X0X0Xn @.*.g o # @ O O . O o - g k k n b k k k b n n 7.[.5X9X9X~.Y p.o.X.] I y - = 4 i 4 u D u g z ~ T #.-.5.5.9.r.C.A.A.H.K.Z.~.^.0X0X0X0X0X0X0X0X0X0X",
"0X0X0X0X0X0X0X0X: O.*.N = # , $ > > > +   O = a k k k k k b n k n -.Z. X^.k j a : = = : z O.@.@.O.p 7 k 6.w.w.9.7.5.Z.H.H.H.~.`.&X%X#X~.0X0X0X0X0X0X0X0X0X0X0X0X",
"0X0X0X0X0X0X0X0X0X0Xm =.$.h $ 1 > > $ @ @ @ . . # & : j n z n b n m ' u.+.T g z T M O.*.>.7.7.r.7.R D %.A.S.K.K.L.C.7.~.&X&X%X%X&X~.C.0X0X0X0X0X0X0X0X0X0X0X0X0X",
"0X0X0X0X0X0X0X0X0X0X, g @.;.a   . + @ $ 2 7 p p 4 o . . = k  . .+.p.j.h.r.w.5.7.f.9.r.e.C.H.K.U.7.f h t.^.~.^.[.&X&X`.t.~.:X&XK.0X0X0X0X0X0X0X0X0X0X0X0X0X0X0X0X",
"0X0X0X0X0X0X0X0X0Xr 3 r - T *.O.; + < q Z G G l j s : & O o = j g.M.d.Z.F.A.H.H.!.E.H./.~.`..X{.+.4 7 :.&X%X&X%X:X>X4X%Xr.-.0X0X0X0X0X0X0X0X0X0X0X0X0X0X0X0X0X0X",
"0X0X0X0X0X0X0X1 9 S t u , 0 h *.5.M # + % * : 5 k T O.;.r.z.v.,.d.L.~.L.Z.I.~.^. XoX^.`.{.[.%X`.c u w =.>X4X>X>X:X%X^.r.0X0X0X0X0X0X0X0X0X0X0X0X0X0X0X0X0X0X0X0X",
"0X0X0X0X0X0X0Xr D d D r r 9 e & #.r.2.j = ; +.q.v.c.0.z.v.R.Y.K.L.U.~.{.#X}.`.`.{.1X%X_.[.|.>X[.c 2 4 H.5X4X4X%XH.;.0X0X0X0X0X0X0X0X0X0X0X0X0X0X0X0X0X0X0X0X0X0X",
"0X0X0X0X0X0X0X: E L S i u % V , & %.P.H.A.L.H. .s 5 6 g 6 g 8 h k N >.9.9.2.9.#X&X;X6X:X#X%X:X4Xr.+ -.:X:X#XZ.@.0X0X0X0X0X0X0X0X0X0X0X0X0X0X0X0X0X0X0X0X0X0X0X0X",
"0X0X0X0X0X0X0X0X7 D l D p 9 u r = h H.`.{.{.O.# = 4 i d h h l f 7 4 = 9 0 l K.>X>X>X7X5X%X:X:X>XF.0Xe.`.r.0X0X0X0X0X0X0X0X0X0X0X0X0X0X0X0X0X0X0X0X0X0X0X0X0X0X0X",
"0X0X0X0X0X0X0X0X0X% - R x x y A 5 h K.[.|.L.z h : = - w i p s s d y r y =.(.:X:X>X>X4X7X>X%X:X`.7.0X0X0X0X0X0X0X0X0X0X0X0X0X0X0X0X0X0X0X0X0X0X0X0X0X0X0X0X0X0X0X",
"0X0X0X0X0X0X0X0X0X0X  # 4 x P L k r.#X&X%X>.x I Y c 6 * % 1 u Z A Y ,.K.%X,X:X:X%X,X:X1X$XK.H.5.0X0X0X0X0X0X0X0X0X0X0X0X0X0X0X0X0X0X0X0X0X0X0X0X0X0X0X0X0X0X0X0X",
"0X0X0X0X0X0X0X0X0X0X0X0XO & H m r.#X&X#XF.b h h l P P X.6.*.*.6.D.`.:X,X:X:X%X}.^.F.w.2.&.0X0X0X0X0X0X0X0X0X0X0X0X0X0X0X0X0X0X0X0X0X0X0X0X0X0X0X0X0X0X0X0X0X0X0X",
"0X0X0X0X0X0X0X0X0X0X0X0X0X: *.J.`.~.C.;.n z h g n 5.H.|.{.}.:X:X:X,X:X&X`.S.7.@.n 0X0X0X0X0X0X0X0X0X0X0X0X0X0X0X0X0X0X0X0X0X0X0X0X0X0X0X0X0X0X0X0X0X0X0X0X0X0X0X",
"0X0X0X0X0X0X0X0X0X0X0X0X5.Z.~.d.%.m n m m N +.7.~.`.P.$.a k 5.^.K.A.7.@.0X0X0X0X0X0X0X0X0X0X0X0X0X0X0X0X0X0X0X0X0X0X0X0X0X0X0X0X0X0X0X0X0X0X0X0X0X0X0X0X0X0X0X0X",
"0X0X0X0X0X0X0X0X0X0X*.e.L.U.U.A.r.t.Z.L.L.L.K.L.e.m # X   o -.^.U.7.0X0X0X0X0X0X0X0X0X0X0X0X0X0X0X0X0X0X0X0X0X0X0X0X0X0X0X0X0X0X0X0X0X0X0X0X0X0X0X0X0X0X0X0X0X0X",
"0X0X0X0X0X0X0X0X@.9.A.Z.C.t.t.e.r.w.7.-.$.T k g # @ . o M ^.=X`.Q.&.0X0X0X0X0X0X0X0X0X0X0X0X0X0X0X0X0X0X0X0X0X0X0X0X0X0X0X0X0X0X0X0X0X0X0X0X0X0X0X0X0X0X0X0X0X0X",
"0X0X0X0X0X0Xo k O.@.*.5.7.A.~.5.- 5 - % @ + . . . . k H.%X~.D.OXR.0X0X0X0X0X0X0X0X0X0X0X0X0X0X0X0X0X0X0X0X0X0X0X0X0X0X0X0X0X0X0X0X0X0X0X0X0X0X0X0X0X0X0X0X0X0X0X",
"0X0X0X0X0XA.^.`.|.,X>X>X>X>X,XA.= - % # + + . . a e.[.~.x.Q.oXG.0X0X0X0X0X0X0X0X0X0X0X0X0X0X0X0X0X0X0X0X0X0X0X0X0X0X0X0X0X0X0X0X0X0X0X0X0X0X0X0X0X0X0X0X0X0X0X0X",
"0X0X0X0X0X~.^.H.C.r.7.>.-.*.*.*.5.5.M :     # +.K.L.w.G.OXOX0X0X0X0X0X0X0X0X0X0X0X0X0X0X0X0X0X0X0X0X0X0X0X0X0X0X0X0X0X0X0X0X0X0X0X0X0X0X0X0X0X0X0X0X0X0X0X0X0X0X",
"0X0X0X0Xo k O.*.5.5.7.w.t.Z.L.E.^.`.(.L.7.O.M 6.x./.-X1XXX0X0X0X0X0X0X0X0X0X0X0X0X0X0X0X0X0X0X0X0X0X0X0X0X0X0X0X0X0X0X0X0X0X0X0X0X0X0X0X0X0X0X0X0X0X0X0X0X0X0X0X",
"0X0X0X0X0X0X0XO.;.w.C.H.^.`.`.`.`.}.}.#X&X*X*X-X1X1X&X0X0X0X0X0X0X0X0X0X0X0X0X0X0X0X0X0X0X0X0X0X0X0X0X0X0X0X0X0X0X0X0X0X0X0X0X0X0X0X0X0X0X0X0X0X0X0X0X0X0X0X0X0X",
"0X0X0X0X0X0X0X0X0X0X0X5.^.|.$X$X*X-X1X1X2X2X;X=X`.K.0X0X0X0X0X0X0X0X0X0X0X0X0X0X0X0X0X0X0X0X0X0X0X0X0X0X0X0X0X0X0X0X0X0X0X0X0X0X0X0X0X0X0X0X0X0X0X0X0X0X0X0X0X0X",
"0X0X0X0X0X0X0X0X0X0X0Xq.+X+X@X2X2XoXXX$X.X`.I.C.0X0X0X0X0X0X0X0X0X0X0X0X0X0X0X0X0X0X0X0X0X0X0X0X0X0X0X0X0X0X0X0X0X0X0X0X0X0X0X0X0X0X0X0X0X0X0X0X0X0X0X0X0X0X0X0X",
"0X0X0X0X0X0X0X0X0X0X;./.]._./._.{.`.^.^.~.P.0X0X0X0X0X0X0X0X0X0X0X0X0X0X0X0X0X0X0X0X0X0X0X0X0X0X0X0X0X0X0X0X0X0X0X0X0X0X0X0X0X0X0X0X0X0X0X0X0X0X0X0X0X0X0X0X0X0X",
"0X0X0X0X0X0X0X0X0XC.^.{.`.^.^.^.^.^.K.e.0X0X0X0X0X0X0X0X0X0X0X0X0X0X0X0X0X0X0X0X0X0X0X0X0X0X0X0X0X0X0X0X0X0X0X0X0X0X0X0X0X0X0X0X0X0X0X0X0X0X0X0X0X0X0X0X0X0X0X0X",
"0X0X0X0X0X0X0Xr.K.`.{.{.{.`.^.L.C.7.0X0X0X0X0X0X0X0X0X0X0X0X0X0X0X0X0X0X0X0X0X0X0X0X0X0X0X0X0X0X0X0X0X0X0X0X0X0X0X0X0X0X0X0X0X0X0X0X0X0X0X0X0X0X0X0X0X0X0X0X0X0X",
"0X0X0X0X0X0XC.~.`.`.`.^.~.L.C.0X0X0X0X0X0X0X0X0X0X0X0X0X0X0X0X0X0X0X0X0X0X0X0X0X0X0X0X0X0X0X0X0X0X0X0X0X0X0X0X0X0X0X0X0X0X0X0X0X0X0X0X0X0X0X0X0X0X0X0X0X0X0X0X0X",
"0X0X0X0XO.e.K.L.L.H.C.0X0X0X0X0X0X0X0X0X0X0X0X0X0X0X0X0X0X0X0X0X0X0X0X0X0X0X0X0X0X0X0X0X0X0X0X0X0X0X0X0X0X0X0X0X0X0X0X0X0X0X0X0X0X0X0X0X0X0X0X0X0X0X0X0X0X0X0X0X",
"0X0X  = M #.O.0X0X0X0X0X0X0X0X0X0X0X0X0X0X0X0X0X0X0X0X0X0X0X0X0X0X0X0X0X0X0X0X0X0X0X0X0X0X0X0X0X0X0X0X0X0X0X0X0X0X0X0X0X0X0X0X0X0X0X0X0X0X0X0X0X0X0X0X0X0X0X0X0X",
"0X0X0X0X0X0X0X0X0X0X0X0X0X0X0X0X0X0X0X0X0X0X0X0X0X0X0X0X0X0X0X0X0X0X0X0X0X0X0X0X0X0X0X0X0X0X0X0X0X0X0X0X0X0X0X0X0X0X0X0X0X0X0X0X0X0X0X0X0X0X0X0X0X0X0X0X0X0X0X0X"
};
