/* XPM */
static char *b9507bf1c0764323bdf0cbbc1b2f946d[] = {
/* columns rows colors chars-per-pixel */
"70 70 212 2 ",
"   c None",
".  c #030405",
"X  c #04050B",
"o  c #07090B",
"O  c #0B0B0C",
"+  c #080709",
"@  c #040612",
"#  c #060A14",
"$  c #0B0D13",
"%  c #060A1C",
"&  c #0A0D1A",
"*  c #0E111C",
"=  c #0E1014",
"-  c #131315",
";  c #12141B",
":  c #16191D",
">  c #1B1B1D",
",  c #2E0201",
"<  c #070B24",
"1  c #0A0D23",
"2  c #070B2A",
"3  c #0A0F28",
"4  c #0E1124",
"5  c #0D112B",
"6  c #111323",
"7  c #171A22",
"8  c #1B1D23",
"9  c #11142B",
"0  c #16192C",
"q  c #1B1E2B",
"w  c #070B37",
"e  c #0E1234",
"r  c #0C113E",
"t  c #0E1C36",
"y  c #111534",
"u  c #151934",
"i  c #1A1D35",
"p  c #11153B",
"a  c #15193B",
"s  c #1A1E3B",
"d  c #1F2024",
"f  c #1E2129",
"g  c #1F2234",
"h  c #1C213C",
"j  c #232324",
"k  c #23252C",
"l  c #27282A",
"z  c #2B2B2D",
"x  c #222536",
"c  c #2D2E31",
"v  c #22253A",
"b  c #25283D",
"n  c #292B3A",
"m  c #262937",
"M  c #2E3033",
"N  c #2E313D",
"B  c #323334",
"V  c #353639",
"C  c #37383B",
"Z  c #3B3B3C",
"A  c #3C3A36",
"S  c #2F302F",
"D  c #0D1243",
"F  c #0A1049",
"G  c #151944",
"H  c #161A48",
"J  c #141A54",
"K  c #1E2244",
"L  c #1C214E",
"P  c #1D2357",
"I  c #202441",
"U  c #252A44",
"Y  c #292C43",
"T  c #252B4D",
"R  c #21264C",
"E  c #2E3144",
"W  c #2E334C",
"Q  c #3D3E41",
"!  c #33354B",
"~  c #353848",
"^  c #252B52",
"/  c #232852",
"(  c #2C3253",
")  c #2B325A",
"_  c #393D53",
"`  c #393E5B",
"'  c #373C57",
"]  c #1A2061",
"[  c #2D356D",
"{  c #2F3668",
"}  c #343B65",
"|  c #383F65",
" . c #323A6B",
".. c #333A64",
"X. c #242C78",
"o. c #2C3671",
"O. c #323C77",
"+. c #3F4043",
"@. c #3C405A",
"#. c #3B4161",
"$. c #444545",
"%. c #444549",
"&. c #47484A",
"*. c #4B4B4C",
"=. c #50504F",
"-. c #4D4E50",
";. c #4B4D5A",
":. c #4F5055",
">. c #545454",
",. c #54555B",
"<. c #5B5B5C",
"1. c #5E5F62",
"2. c #555868",
"3. c #565A7A",
"4. c #485473",
"5. c #5B6369",
"6. c #5D6175",
"7. c #646464",
"8. c #65676C",
"9. c #6C6C6C",
"0. c #676867",
"q. c #656A77",
"w. c #6A747B",
"e. c #677A7C",
"r. c #747474",
"t. c #757679",
"y. c #7B7B7B",
"u. c #777878",
"i. c #9B0000",
"p. c #A20000",
"a. c #E60204",
"s. c #F40000",
"d. c #FE0000",
"f. c #CC0F26",
"g. c #2C5C96",
"h. c #4E5786",
"j. c #596A98",
"k. c #626B83",
"l. c #777B88",
"z. c #777C96",
"x. c #6D788B",
"c. c #4D5FB5",
"v. c #4E61B5",
"b. c #3A4FC5",
"n. c #0F5CE8",
"m. c #1566FF",
"M. c #1568FF",
"N. c #697EC1",
"B. c #3A8CB0",
"V. c #5D929D",
"C. c #68848B",
"Z. c #76888B",
"A. c #748F95",
"S. c #6C80BF",
"D. c #51BDC3",
"F. c #47CBD8",
"G. c #4EDDE6",
"H. c #838484",
"J. c #8C8C8C",
"K. c #86878A",
"L. c #90908F",
"P. c #8D8F92",
"I. c #838699",
"U. c #8D9292",
"Y. c #889596",
"T. c #939393",
"R. c #93969B",
"E. c #94999A",
"W. c #9B9C9C",
"Q. c #908F8F",
"!. c #9E9EA2",
"~. c #8E9FB1",
"^. c #96A6A7",
"/. c #8CAAB4",
"(. c #97B6BA",
"). c #90A1B2",
"_. c #A3A3A3",
"`. c #ABABAB",
"'. c #A8A8A8",
"]. c #ADB3B3",
"[. c #A7BABA",
"{. c #B4B4B4",
"}. c #B6B6B9",
"|. c #B4B9B9",
" X c #BCBCBC",
".X c #B8B8B7",
"XX c #A9BFC0",
"oX c #A8C2C4",
"OX c #BCC4C4",
"+X c #B5C7C9",
"@X c #BAD7D9",
"#X c #B6DAE1",
"$X c #C3C4C4",
"%X c #C2CCCC",
"&X c #CBCBCB",
"*X c #C3D3D3",
"=X c #C4DADB",
"-X c #CDDEDE",
";X c #C5D7D7",
":X c #D4D4D4",
">X c #DBDBDB",
",X c #D5DFDF",
"<X c #CCE2E2",
"1X c #C7E2E2",
"2X c #DEE3E3",
"3X c #DBE8E8",
"4X c #E2E2E2",
"5X c #EBEBEA",
"6X c #E4EBEB",
"7X c #EAF3F3",
"8X c #F5F5F5",
"9X c #FBFBFB",
/* pixels */
"                                                                                                                                            ",
"    . j >.<.<.                                                                                                                              ",
"        <.T._._.W.T.u.                                                                                                                      ",
"            T.`.{.{.{.`.W.H.                                                                                                                ",
"              u._..X.X{.`._.W.T.u.                                                                                                          ",
"                *.J.|.].`.`.{.{.'.W.H.                                                                                                      ",
"                  M (.#X@X=X;X+XOXOX|.W.y.                                                                                                  ",
"                    U.OX%X%X*X=X<X<X1X-X*X].                                                                                                ",
"            $.<.u.H.W.`.{.{.{. X$XOX X|.+X=X-XOX                                                                                            ",
"        Z >.>.<.<.<.0.r.y.J.W._.J.>.z j <.H.E.+X@X].                                                                                        ",
"        `.$X$X$X{.T.r.Z l z B c ; X X X d 9._.U.Y.oXXX                                                                                      ",
"        B V >.9.u.>.        $ ; * # X X X X B W. X^.^.[.                                                                                    ",
"            j *.9.u.r.9.9.7.<.>.%.C m 8 ; # X O &.{..X].^.                                                                                  ",
"                Z 9.L.W.W.J.y.H.T.T.T.J.J.0.k $ . O <.`.E.:.                                                                                ",
"                      y.W.H.>.Q C Z Z %.9.W.`.y.C z <._.W.H.0.%.                                                                            ",
"                      + ~ H.`.`.H.,.c l j c <.P..X{.$X&X:X:X:X$X`.H.0.$.                                                                    ",
"                    . ; v b 7. X&X$X7.k m Y U K ! V N @.q.R.$X:X:X:X&X X`.T.Z.0.                                                            ",
"                . & u I x I d 7. X&X_.n Y x 8 ; 4 e a i i i _ l.$X:X:X>X>X2X3X$X{.J.                                                        ",
"              * u K K s 0 a ; Z `.{..X:.- - ; u i k k g i 0 6 5 _ _.>X4X>X7X2X&X:X&XH.  u.r.                                                ",
"            - / K H a 9 e 5 $ ,.W.W._.P.M : 9 8 j d q q d l %.;.%.1.$X&X,X6X&X&X:X4Xt.& W.&X`.u.                                            ",
"            9 P s G p 4 r * $.u.>.l j *.e.Z.5.5.e.C.Z.K.J.T.`..X.X`.{. X<X$X{.$X:X$XE % %.:X5X4X XH.$.                                      ",
"            2 9 H u e 5 s *.<.B # # * 7 8 B +.*.8.l.A.5.l.!._.T.W._.`.+X+X`.{.{.&X}.U p u _.4X4X>X:X XW.0.                                  ",
"                1 e ; V >.Z - @ 2 e G K v k 8 - o o - c j.S.l.T.H.J.J.).E.W.W._..X{.%.8 m R.&X$X&X:X>X>XW.9.u.                              ",
"                  8 *.>.d X # # # & * 9 y & o O : z Z Z Q 4.v.2.9.>.,.k.0.9.u.H.J.T.8.L ! T.W._.{..X{.K.W.:X:X{.J.                          ",
"                z >.$.8 < 2 2 2 % X X X O > j l c c M c z Z 3.x.$.> > 8 j z $.>.<.0.<.K s 0.H.J.J.H.0.J.`.{..X$X&X XW.                      ",
"              Z *.z $ $ # # X X @ O : j z B z z z B B $.H..X>X5X2.` ` W v 8 : j l m f H a c *.,.,.<.9.u.u.H.J.W._.`.`.J.T.                  ",
"            j *.$.> : : : > j l l B V c B B z c B z j _.9X8X8X:XV ~ ! ( ^ ^ R u 4 r D e D F 1 D G 8 k z Z *.<.<.0.9.u.W.{.`.H.    M.    M.  ",
"              - l V Z V B l j > - j V B V V Z V > ; 8 q.5X9X9XT.O : l S z l 8 9 5 3 < w % 2                   j z Z <.7.r.K.T.J.    M.      ",
"                                + l Z Z *.>.Z > 7 T .._ K.5X$Xz . + + o O - : $ # @ X                                   j B =.u.K.q.    M.  ",
"                              : c $.>.<.*.z q T  .} _ ` ( ;.*.Z Z Z B z z l 8 - o .                                         t j $.<.A   M.  ",
"                        $ > l Z *.*.Z l x )  .} ` @.| { K V 0.9.9.0.0.9.r.r.9.0.<.*.Z z j >                                 M.n.  O > $     ",
"                  - 8 j l l > - d g R [ O. .} | } ..^ q $.u.y.y.y.H.J.T.T.T.T.W.T.T.J.T.J.H.u.7.*.- o                 M.M.M.    f.a.p., .   ",
"                + O O       . y P X.X.o.{ ....( U 8 j <.J.T.W._.'.{.{.{.`.`.`.`.{.{.J.8.6.q.w.K.T.>.0.0.7.$.z                 d.d.d.d.s.    ",
"                            X D J H G h g q ; $ o > 0.J.W._.`.`._.W.y.7.>.$.$.$.*.7.H.!.!.z.h.g.B.V.E.`.W.H.9.*.B z     M.    d.d.d.d.d.s.  ",
"                              X $ $ o X + . . X X - 0.`..X:X>X>X>X>X:X:X4X>X:X4X:X{.J.<.`.:X&X/.F.G.D.e.Q._.`.T.r.r.7.      a.d.d.d.d.d.s.  ",
"                              X $ $ o X + . . X o - 0.{.$X:X>X4X>X>X>X4X>X4X4X>X>X$XT.>.`.:X&X/.F.G.D.e.T.`.{.T.9.u.u.      a.d.d.d.d.d.s.  ",
"                            . r J H a s i 8 ; $ X > 0.J.W._.`.`._.T.y.7.*.*.$.$.*.5.y.W._.I.h.g.B.V.E._.W.H.9.*.V V           d.d.d.d.d.s.  ",
"                + O O       . y ] X.X.[ { ....( b 8 j 7.J.T.W._.`.{.{.{.`._._.'.{.{.J.8.2.6.q.K.T.<.9.9.0.*.B               b.a.d.d.d.s.    ",
"                  - 8 j l l : - 8 g / o.O. .} | } ..T q *.u.y.H.H.H.J.T.T.T.T.W.T.T.J.T.T.J.u.0.*.- O                 M.M.M.        i., .   ",
"                      o - > z Z &.&.C k v )  .} ` #.| { K C 0.9.9.9.9.9.r.r.9.9.0.>.Z B l j :                         M.      n.  o : O     ",
"                              : B $.>.<.*.l q T  .} _ ` ( ;.*.$.$.Z V B B z j : O .                                           f Z <.Z       ",
"                                X z Q Q -.>.Z : 8 T  ._ H.5X Xz . + + o O - - $ # X X                                   > z *.r.H.9.        ",
"              - j V Z V c l j : - j V B V C Z V > ; q q.8X8X8XW.o : l z z l 8 6 5 3 < w % 2                     z Z <.<.9.H.T.J.        M.  ",
"            j *.$.> > > > j j l z B V c B B z c B z d _.9X9X9X&XB ~ E W ^ / R u 6 r D e r F 1 D D 7 k l Z *.>.<.7.9.u.W.{.`.J.          M.  ",
"              Z *.l $ $ # # X X @ $ > j z B z z z B B &.H.&X5X4X,.| #.( b q : > k v 8 G a c &.;.>.>.9.u.u.y.J.W._.`.`.J.W.        M.    M.  ",
"                B >.+.> < 2 2 2 % X X X O > j l c c M z z Z 3.z.$.> > 8 j l $.>.<.7.<.K i 7.H.H.H.y.0.J.`.`.{.$X&X$X_.            M.        ",
"                  j *.>.8 X # # # & * 9 5 & o O : z Z Z Z 4.c.2.0.>.,.k.7.9.r.H.J.L.8.L ! T.W._.{.{.`.H.W.:X:X.XJ.                          ",
"                1 e ; Z >.V $ @ 2 e G K v k 8 - X + : B j.N.x.J.H.J.J.~.R.T.W._.{.{.&.8 m E.$X$X&X:X>X>XW.u.y.                              ",
"            < 9 H y e 5 v =.<.m % % ; 7 8 c Z %.5.e.C.2.z.E._.T.T._.`.+X+X`.{.{.&X}.Y p u ^.4X4X>X:X$XW.9.                                  ",
"            y P s G p 4 r ; *.u.>.j 8 &.w.Z.q.5.e.A.A.P.J.W.`..X X{.{. X<X$X{.$X:X$XY & +.:X5X4X$XH.*.                                      ",
"            - / K H a 9 e 5 = <.W.W.W.T.V 7 0 8 j d q q j z -.2.&.7.$X&X<X6X&X&X:X4Xr.& W.:X{.H.                                            ",
"              4 a K K s 0 a ; Z `.{..X>.- - ; u i k k g i 0 6 5 ! _.>X4X>X7X2X&X:X:XH.  y.u.                                                ",
"                . & i I x K d 1. X&X_.N U x 8 ; 4 e a i i i ! t.$X:X:X>X>X2X3X$X.XT.                                                        ",
"                    . ; v b <..X&X&X0.k m Y U K E c n _ 3.P. X:X:X:X&X X`.E.Y.9.                                                            ",
"                      + E l.`.`.J.<.M l j c ,.J.}.{. X$X:X>X:X$X`.J.9.*.                                                                    ",
"                      u.W.J.<.$.V V V +.7.W.`.H.+.B 0.`._.J.9.*.                                                                            ",
"                Z 0.J.W.W.J.u.H.T.T.J.T.J.9.l $ . O >.`.W.*.                                                                                ",
"            j *.9.u.u.r.u.9.1.<.-.Q M f ; $ X o Z _.$X[.^.                                                                                  ",
"        j B *.7.r.J.W.{.&XJ.- ; * # @ X X X z J. XW.^.[.                                                                                    ",
"        J.&X&X X$X{._.W.J.0.B z * X X X 8 9.`.J.Y.oXoX                                                                                      ",
"        j >.<.<.<.<.7.9.u.H.W.W.H.-.l 8 <.H.Y.oX@X[.                                                                                        ",
"            $.<.t.H.W.`.{.{.{. X X X|.].[.;X-X%X                                                                                            ",
"                    U. X%X%X%X=X<X<X<X<X;X|.                                                                                                ",
"                  c (.#X@X=X=X+XOX$X|._.H.                                                                                                  ",
"                $.J.|.].`.`.{.{.`.W.J.                                                                                                      ",
"              u._..X.X{.`.`._.T.y.                                                                                                          ",
"            J.`.{.{.{.`.W.H.                                                                                                                ",
"        <.T._._._.T.y.                                                                                                                      ",
"    . j >.<.<.                                                                                                                              ",
"                                                                                                                                            "
};
