/* XPM */
static char *result[] = {
/* columns rows colors chars-per-pixel */
"80 80 215 2 ",
"   c #030304",
".  c #04060B",
"X  c #06080D",
"o  c #0A0B0C",
"O  c #080709",
"+  c #040611",
"@  c #060A13",
"#  c #0B0D13",
"$  c #060B1B",
"%  c #0A0D1A",
"&  c #05071B",
"*  c #0F1014",
"=  c #0E121D",
"-  c #121315",
";  c #13151A",
":  c #17181C",
">  c #1B1B1D",
",  c #3B0000",
"<  c #060C24",
"1  c #090D23",
"2  c #06092C",
"3  c #0A0E2B",
"4  c #0E1123",
"5  c #0D112B",
"6  c #051225",
"7  c #131523",
"8  c #161922",
"9  c #1C1E22",
"0  c #16192C",
"q  c #1A1D2B",
"w  c #121629",
"e  c #0A0E35",
"r  c #080D39",
"t  c #0D1234",
"y  c #0E123C",
"u  c #121533",
"i  c #151835",
"p  c #1B1E33",
"a  c #12163C",
"s  c #15193B",
"d  c #181C3C",
"f  c #1E2024",
"g  c #1E212D",
"h  c #1E2133",
"j  c #1E213B",
"k  c #232324",
"l  c #24262A",
"z  c #27282C",
"x  c #2B2B2D",
"c  c #2A2926",
"v  c #222533",
"b  c #2D2E31",
"n  c #22263C",
"m  c #25293E",
"M  c #272A38",
"N  c #2F3032",
"B  c #323334",
"V  c #353639",
"C  c #3C3C3D",
"Z  c #373839",
"A  c #090F46",
"S  c #080E4E",
"D  c #0C1446",
"F  c #111641",
"G  c #181D46",
"H  c #141A57",
"J  c #1E2344",
"K  c #1D224C",
"L  c #1C2153",
"P  c #1F255C",
"I  c #212544",
"U  c #252942",
"Y  c #2A2F4D",
"T  c #24294A",
"R  c #2B304B",
"E  c #393C46",
"W  c #252A52",
"Q  c #252B59",
"!  c #2C335D",
"~  c #2B3255",
"^  c #393D55",
"/  c #363B57",
"(  c #181F71",
")  c #1D267C",
"_  c #252C66",
"`  c #2D3564",
"'  c #2D356B",
"]  c #353C63",
"[  c #343C6B",
"{  c #353C63",
"}  c #333B70",
"|  c #323C7C",
" . c #273077",
".. c #3E4244",
"X. c #3A405C",
"o. c #3A4169",
"O. c #394375",
"+. c #444445",
"@. c #44464B",
"#. c #444A4B",
"$. c #4B4C4C",
"%. c #4C4D51",
"&. c #4F5053",
"*. c #535454",
"=. c #55565B",
"-. c #5B5B5B",
";. c #575858",
":. c #454963",
">. c #585B63",
",. c #444C76",
"<. c #4B5279",
"1. c #5D6369",
"2. c #5F6C7B",
"3. c #636364",
"4. c #66666B",
"5. c #6B6B6C",
"6. c #66686E",
"7. c #6E6F73",
"8. c #646876",
"9. c #6A777A",
"0. c #747474",
"q. c #7B7B7C",
"w. c #767779",
"e. c #ED0101",
"r. c #E60000",
"t. c #F30000",
"y. c #FE0000",
"u. c #D70711",
"i. c #80807F",
"p. c #2C3680",
"a. c #3D4B9F",
"s. c #0D47B5",
"d. c #246CA8",
"f. c #4A578A",
"g. c #4D5C95",
"h. c #757A86",
"j. c #6D7A8E",
"k. c #5A6FA2",
"l. c #536293",
"z. c #1566FF",
"x. c #1266FB",
"c. c #586EC7",
"v. c #2C96BC",
"b. c #568486",
"n. c #6D8589",
"m. c #7E8182",
"M. c #738386",
"N. c #789398",
"B. c #4796A7",
"V. c #778FA5",
"C. c #2B9BC0",
"Z. c #7288C7",
"A. c #51D4DA",
"S. c #4AD4DE",
"D. c #53E4EC",
"F. c #838383",
"G. c #8B8B8B",
"H. c #888887",
"J. c #8E8F92",
"K. c #858D97",
"L. c #889496",
"P. c #949494",
"I. c #95969A",
"U. c #9B9C9C",
"Y. c #979898",
"T. c #8F908E",
"R. c #9FA09F",
"E. c #A0A09F",
"W. c #9092A3",
"Q. c #86A2A6",
"!. c #99A5A8",
"~. c #9AB3B4",
"^. c #8DA9B4",
"/. c #A4A4A4",
"(. c #ABABAB",
"). c #A4A9AB",
"_. c #ACADB3",
"`. c #ACB2B3",
"'. c #ADB7B8",
"]. c #B4B4B4",
"[. c #B6B6B9",
"{. c #BBBBBB",
"}. c #B4B9B9",
"|. c #C0BFBF",
" X c #C0C0BF",
".X c #B9B9C0",
"XX c #ABC6C8",
"oX c #BDC4C4",
"OX c #B6C8C9",
"+X c #B8D3D5",
"@X c #AFD1D4",
"#X c #B6DDE3",
"$X c #BEE1E4",
"%X c #C3C3C3",
"&X c #C4CCCC",
"*X c #CCCCCC",
"=X c #C8C7C7",
"-X c #C4D1D1",
";X c #C9D3D3",
":X c #C5DBDC",
">X c #CCDCDC",
",X c #D3D3D3",
"<X c #DCDCDC",
"1X c #D7D8D8",
"2X c #C3DFE0",
"3X c #CCE4E4",
"4X c #C8E4E4",
"5X c #D7E5E5",
"6X c #E4E4E4",
"7X c #ECECEC",
"8X c #E1EFEF",
"9X c #E6F2F2",
"0X c #F4F4F4",
"qX c #FCFCFC",
"wX c None",
/* pixels */
"wXwXwXwXwXwXwXwXwXwXwXwXwXwXwXwXwXwXwXwXwXwXwXwXwXwXwXwXwXwXwXwXwXwXwXwXwXwXwXwXwXwXwXwXwXwXwXwXwXwXwXwXwXwXwXwXwXwXwXwXwXwXwXwXwXwXwXwXwXwXwXwXwXwXwXwXwXwXwXwX",
"wXwX  o B +.wXwXwXwXwXwXwXwXwXwXwXwXwXwXwXwXwXwXwXwXwXwXwXwXwXwXwXwXwXwXwXwXwXwXwXwXwXwXwXwXwXwXwXwXwXwXwXwXwXwXwXwXwXwXwXwXwXwXwXwXwXwXwXwXwXwXwXwXwXwXwXwXwXwX",
"wXwXwXwXC i.Y.P.P.G.q.wXwXwXwXwXwXwXwXwXwXwXwXwXwXwXwXwXwXwXwXwXwXwXwXwXwXwXwXwXwXwXwXwXwXwXwXwXwXwXwXwXwXwXwXwXwXwXwXwXwXwXwXwXwXwXwXwXwXwXwXwXwXwXwXwXwXwXwXwX",
"wXwXwXwXwXwXF.).].].].(.U.P.w.wXwXwXwXwXwXwXwXwXwXwXwXwXwXwXwXwXwXwXwXwXwXwXwXwXwXwXwXwXwXwXwXwXwXwXwXwXwXwXwXwXwXwXwXwXwXwXwXwXwXwXwXwXwXwXwXwXwXwXwXwXwXwXwXwX",
"wXwXwXwXwXwXwX0.U.].].{.{.].(.Y.q.wXwXwXwXwXwXwXwXwXwXwXwXwXwXwXwXwXwXwXwXwXwXwXwXwXwXwXwXwXwXwXwXwXwXwXwXwXwXwXwXwXwXwXwXwXwXwXwXwXwXwXwXwXwXwXwXwXwXwXwXwXwXwX",
"wXwXwXwXwXwXwXwXwXF.].{.].(.(.).(.(.Y.0.wXwXwXwXwXwXwXwXwXwXwXwXwXwXwXwXwXwXwXwXwXwXwXwXwXwXwXwXwXwXwXwXwXwXwXwXwXwXwXwXwXwXwXwXwXwXwXwXwXwXwXwXwXwXwXwXwXwXwXwX",
"wXwXwXwXwXwXwXwXwXwX1.).}.`.(.(.].].(.(.R.H.wXwXwXwXwXwXwXwXwXwXwXwXwXwXwXwXwXwXwXwXwXwXwXwXwXwXwXwXwXwXwXwXwXwXwXwXwXwXwXwXwXwXwXwXwXwXwXwXwXwXwXwXwXwXwXwXwXwX",
"wXwXwXwXwXwXwXwXwXwXwX9.#X#X+X4X:X+XOXoXoX].Y.q.wXwXwXwXwXwXwXwXwXwXwXwXwXwXwXwXwXwXwXwXwXwXwXwXwXwXwXwXwXwXwXwXwXwXwXwXwXwXwXwXwXwXwXwXwXwXwXwXwXwXwXwXwXwXwXwX",
"wXwXwXwXwXwXwXwXwXwXwX-.`.%X&X&X;X:X3X3X3X4X>X&X(.wXwXwXwXwXwXwXwXwXwXwXwXwXwXwXwXwXwXwXwXwXwXwXwXwXwXwXwXwXwXwXwXwXwXwXwXwXwXwXwXwXwXwXwXwXwXwXwXwXwXwXwXwXwXwX",
"wXwXwXwXwXwXwXwX&.0.i.P.).].].].[. X X%X&X;X:X>X3X>X{.wXwXwXwXwXwXwXwXwXwXwXwXwXwXwXwXwXwXwXwXwXwXwXwXwXwXwXwXwXwXwXwXwXwXwXwXwXwXwXwXwXwXwXwXwXwXwXwXwXwXwXwXwX",
"wXwXwXwXo x +.;.3.5.5.0.F.G.U./.`.].`.R.0.$.@.4.H.'.2X:X`.wXwXwXwXwXwXwXwXwXwXwXwXwXwXwXwXwXwXwXwXwXwXwXwXwXwXwXwXwXwXwXwXwXwXwXwXwXwXwXwXwXwXwXwXwXwXwXwXwXwXwX",
"wXwXwXwXwXU.P.G.q.7.3.-.&.+.$.;.3.4.$.> O   # %.P.G.w.!.@XXXwXwXwXwXwXwXwXwXwXwXwXwXwXwXwXwXwXwXwXwXwXwXwXwXwXwXwXwXwXwXwXwXwXwXwXwXwXwXwXwXwXwXwXwXwXwXwXwXwXwX",
"wXwXwXwX;.P./. X,X1X%XwXwXwXwXwX* ; # @ + . X . g i.=XR.m.~.@XL.wXwXwXwXwXwXwXwXwXwXwXwXwXwXwXwXwXwXwXwXwXwXwXwXwXwXwXwXwXwXwXwXwXwXwXwXwXwXwXwXwXwXwXwXwXwXwXwX",
"wXwXwXwXwX  o B +.$.C c k wXwX* ; : = = @ + . . . . Z R.1X/.L.XXL.wXwXwXwXwXwXwXwXwXwXwXwXwXwXwXwXwXwXwXwXwXwXwXwXwXwXwXwXwXwXwXwXwXwXwXwXwXwXwXwXwXwXwXwXwXwXwX",
"wXwXwXwXwXwXwXc $.0.H.H.F.i.q.w.0.5.3.;.#.V z 8 @ X . O $.[.%X`.~...wXwXwXwXwXwXwXwXwXwXwXwXwXwXwXwXwXwXwXwXwXwXwXwXwXwXwXwXwXwXwXwXwXwXwXwXwXwXwXwXwXwXwXwXwXwX",
"wXwXwXwXwXwXwXwXwXwX&.i.Y.E.U.G.i.F.J.U.I.I.U.P.0.N * X   * 3.(.U.3.wXwXwXwXwXwXwXwXwXwXwXwXwXwXwXwXwXwXwXwXwXwXwXwXwXwXwXwXwXwXwXwXwXwXwXwXwXwXwXwXwXwXwXwXwXwX",
"wXwXwXwXwXwXwXwXwXwXwXwX3.T./.q.$.B B C E C $.0./.`.H.+.8 k -./.Y.i.-...wXwXwXwXwXwXwXwXwXwXwXwXwXwXwXwXwXwXwXwXwXwXwXwXwXwXwXwXwXwXwXwXwXwXwXwXwXwXwXwXwXwXwXwX",
"wXwXwXwXwXwXwXwXwXwXwXwXwX9 =.Y._./.q.&.B z l l V 5.U. X`. X,X1X1X,X,X|.(.H.3.E k wXwXwXwXwXwXwXwXwXwXwXwXwXwXwXwXwXwXwXwXwXwXwXwXwXwXwXwXwXwXwXwXwXwXwXwXwXwXwX",
"wXwXwXwXwXwXwXwXwXwXwXwX  # I E i.|.=X%XG.b l l v m U :.7.3.-.7.I..X1X<X1X*X*X{./.H.5.;.wXwXwXwXwXwXwXwXwXwXwXwXwXwXwXwXwXwXwXwXwXwXwXwXwXwXwXwXwXwXwXwXwXwXwXwX",
"wXwXwXwXwXwXwXwXwXwX  @ 7 n U I x F.|.*X*X-.v Y Y U g = % 1 t G I R >./.,X1X1X*X,X1X*X3X%XY.G.;.wXwXwXwXwXwXwXwXwXwXwXwXwXwXwXwXwXwXwXwXwXwXwXwXwXwXwXwXwXwXwXwX",
"wXwXwXwXwXwXwXwXwX@ ; G n j p J 8 l E.{.%XP.M v f - = u s j h g p i i h >.].,X,X<X<X6X9X<X=X,X_.3.wXwXwXwXwXwXwXwXwXwXwXwXwXwXwXwXwXwXwXwXwXwXwXwXwXwXwXwXwXwXwX",
"wXwXwXwXwXwXwXwX8 H h L d 0 i u - c P.`.[.[.+.o * 4 i h l g h j p 8 ; 4 e M R.<X<X1X9X7X*X,X,X1XJ.wXw.(.0.wXwXwXwXwXwXwXwXwXwXwXwXwXwXwXwXwXwXwXwXwXwXwXwXwXwXwX",
"wXwXwXwXwXwXwX- Q G G s a = D 1 # $.P.U.G.U.P.Z f w f f f f g f z B ;.4.4.;.7.%X=X>X9X;X|.,X1X6Xq.+ 1.;X,X{.F.+.wXwXwXwXwXwXwXwXwXwXwXwXwXwXwXwXwXwXwXwXwXwXwXwX",
"wXwXwXwXwXwXwXu Q p H u t 5 y - +.w.3.x ; f $.n.N.n.1.n.n.N.L.I.P.U./.[.=X{.].].{.>X;X].|.|.1X|.U = : U.6X6X6X%XG.$.wXwXwXwXwXwXwXwXwXwXwXwXwXwXwXwXwXwXwXwXwXwX",
"wXwXwXwXwXwXwX2 7 G s F 1 e q &.5...* . # ; : 9 b ..$.1.h.N.V.1.h.U.(.Y.J.E./.(..X+X_.].].{.,X].U a e >.<X6X6X<X1X%XU.5.wXwXwXwXwXwXwXwXwXwXwXwXwXwXwXwXwXwXwXwX",
"wXwXwXwXwXwXwXwXwXe 5 t ; Z ;.@.> + 2 r a G j v l g > * o O - c k.Z.h.J.J.G.P.P.~.!.Y.(.E.].%X].+.8 0 &.=X*X=X*X1X<X6X,Xq.&.wXwXwXwXwXwXwXwXwXwXwXwXwXwXwXwXwXwX",
"wXwXwXwXwXwXwXwXwXwX& 9 $.;.k . . + @ $ 4 i d d 7 # .   - c C +.@.g.c.8.q.0.3.7.V.0.q.q.H.P.U.E.4.d v h.(./.(.|.=X*X[.F.U.,X%XG.wXwXwXwXwXwXwXwXwXwXwXwXwXwXwXwX",
"wXwXwXwXwXwXwXwXwXwXN ;.*.z $ < < 1 $ @ @ @ X O @ * : c N B B B B V } a.@.+.c b ^ C +.;.3.5.0.w.7.W H *.H.P.Y.U.U.F.5./.%X*X*X,X{./.wXwXwXwXwXwXwXwXwXwXwXwXwXwX",
"wXwXwXwXwXwXwXwX- C *.Z ; @ 1 < < < $ .   O * > x x z x x N N x N *.h._.(.z l f > - - > B +.$.*.$.j w N 5.0.w.0.5.3.G.P.P.U./.{.=X,X%XU.wXwXwXwXwXwXz.wXwXwXwXwX",
"wXwXwXwXwXwXwXx +.;.c o # @ + . . . O - f x x N B x x x B B B 5.{.6X0XqX].Y f.,.o.! R q ; - 7 a = a H u l B ^ +.$.3.3.5.0.q.F.G.G.P.U.P./.).wXwXwXwXz.wXwXwXz.wX",
"wXwXwXwXwXwX  c +.$.c k k k c c N B B N B B N B B x x B N f f {.qX0X0XqX0.c M M m U T W T i w a S y 3 S A $ S A # ; 8 k B +.$.*.-.3.5.G./.].`.H.wXwXwXz.wXwXz.wX",
"wXwXwXwXwXwXwXwXo > B C C B b l 9 : - * N V B V B C C z - ; g 8.6XqXqX6XZ O > x N b b k : 1 3 3 % e 2 X A wXwXwXwXwXwXwXwXwXwXwXc B *.-.3.0.F.Y.T.7.wXz.wXwXz.wX",
"wXwXwXwXwXwXwXwXwXwXwXwXwXwXwXwXwXwXwX- Z C C #.;.#.f * f W } ^ H.7X7X0.O       O o - : - o + . . wXwXwXwXwXwXwXwXwXwXwXwXwXwXwXwXwXwXwX> c C ;.q.G.w.wXwXwXz.wX",
"wXwXwXwXwXwXwXwXwXwXwXwXwXwXwXwXwXwX> Z +.*.>.-.Z > g W } ] E ^ Y 6.5.V N x x k > > > - # X     wXwXwXwXwXwXwXwXwXwXwXwXwXwXwXwXwXwXwXwXwXwXwX- c $.5.;.wXwXz.wX",
"wXwXwXwXwXwXwXwXwXwXwXwXwXwX  o > N +.%.;.$.N f v ! } ] / X.o.{ _ 0 $.3.-.3.3.-.3.3.3.3.*.$.C c > o o wXwXwXwXwXwXwXwXwXwXwXwXwXwXwXwXwXwXwXwXx.s.6 - N f F wXwX",
"wXwXwXwXwXwXwXwXwXwXwX- : f x B N x B N l f T ' | [ o./ o.[ [ J f ;.0.0.w.0.0.q.i.i.i.q.F.H.H.i.q.7.5.-.&.C x : wXwXwXwXwXwXwXwXwXwXwXz.z.z.z.z.x.wXwX, O   wXwX",
"wXwXwXwXwXwXwXwXwX  - > k f > -   @ : d _ | | } [ ] o.[ ! T f x 5.i.F.H.T.T.U.E./././.(.(.(./.U.H.H.P.U.I.P.F.0.> k : k wXwXwXwXwXwXwXwXwXwXz.wXwXt.t.y.e.wXwXwX",
"wXwXwXwXwXwXwXwXwXwXwXwXwXwXwXwX  a ( ) ) _ ' ` ! ~ U h > - E i.P.U./.(.(.].|.].(.U.P.T.J.P.(.{.U.0.=.:.:.<.j.K.0.T.G.T.0.-.E c wXwXwXwXz.wXwXwXt.y.y.y.y.t.wXwX",
"wXwXwXwXwXwXwXwXwXwXwXwXwXwXwXwX  2 F s i 0 q > ; * o O O C w.G.Y.E.(.(./.U.H.5.;.$.$.+.+.+.+.+.5.P.[.].K.g.d.v.B.N./.E.T.q.3.&.C B wXwXwXz.wXt.y.y.y.y.y.y.e.wX",
"wXwXwXwXwXwXwXwXwXwXwXwXwXwXwXwXwX  $ # @ .   .     . O o > i.}.|.,X6X6X<X6X7X<X6X7X0X6X6X0X6X%XU.;.q.,X,X%X^.S.D.A.b.q.E.(.].P.0.w.0.wXwXwXwXe.y.y.y.y.y.y.t.wX",
"wXwXwXwXwXwXwXwXwXwXwXwXwXwXwXwXwX  @ # X O .       . o o > i.{.*X,X6X6X7X6X6X7X7X7X7X0X0X7X6X,X/.;.q.,X,X=X^.S.D.A.b.i./.].%XP.7.q.i.-.wXwXwXe.y.y.y.y.y.y.e.wX",
"wXwXwXwXwXwXwXwXwXwXwXwXwXwXwXwX  < y a i w 8 : * # o   . C w.G.P.U.(.(.(.U.H.0.3.$.$.$.$.+.+.$.3.P.}.].W.l.d.v.B.M.E.Y.H.q.3.*.+.C ;.wXwXz.wXe.y.y.y.y.y.y.e.wX",
"wXwXwXwXwXwXwXwXwXwXwXwXwXwXwXwX  a ( ) ) _ ' ` ` ~ U g : - +.F.P.E./.(.(.].].]./.P.T.H.H.G./.{.U.w.=.:.o.<.j.K.q.P.P.P.w.3.+.x wXwXwXwXwXwXwXwXt.y.y.y.y.t.wXwX",
"wXwXwXwXwXwXwXwXwX  - > 9 f > -   @ 7 J _ p.| } ` ] o.[ ! U 8 b 5.F.H.H.T.P.U././.(.(.(.].(./.E.G.H.P.Y.Y.T.G.q.k c > c wXwXwXwXwXwXwXwXz.z.z.wXwXu.t.t.r.wXwXwX",
"wXwXwXwXwXwXwXwXwXwXwX- > k x B N c x N f g W } | [ X.X.o.] ` J k -.w.0.q.0.0.q.i.F.i.i.H.H.H.i.q.w.7.3.;.+.N > wXwXwXwXwXwXwXwXwXwXwXz.wXwXz.wXz.wXwXwXO     wX",
"wXwXwXwXwXwXwXwXwXwXwXwXwXwX  o > B #.$.*.+.x g m ` } ] X.X.o.[ _ q $.3.3.3.3.-.3.4.3.3.-.$...N > - o wXwXwXwXwXwXwXwXwXwXwXwXwXwXwXwXz.wXwXwXwXs.6 - x k wXwXwX",
"wXwXwXwXwXwXwXwXwXwXwXwXwXwXwXwXwXo f C +.*.-.;.B > h ~ [ / E X.Y 1.4.Z B B x c k > > > * O     wXwXwXwXwXwXwXwXwXwXwXwXwXwXwXwXwXwXwXwXwXwXwX- k $.4.;.wXwXwXwX",
"wXwXwXwXwXwXwXwXwXwXwXwXwXwXwXwXwXwXwX- Z ..C $.;.+.f = g Q [ ^ i.7X7X7.O   O   O o - - - o @ . . wXwXwXwXwXwXwXwXwXwXwXwXwXwXwXwXwXwXwX: k Z *.0.G.w.wXwXwXwXwX",
"wXwXwXwXwXwXwXwXo > B C C B c c > ; - * x Z B Z Z C C k - : g 8.0XqX7X6XV O 9 b b B x k ; 7 3 3 $ 2 2 . wXwXwXwXwXwXwXwXwXwXwXwXk N &.;.3.5.F.P.P.0.wXwXwXz.z.wX",
"wXwXwXwXwXwX  k C $.c k k k c x B B B N B B x B B x B B N f 9 {.qX0X0XqX0.k b v M U I K K i w u D D 3 A A $ S A @ ; ; 9 B +.$.*.-.3.5.H.E.].(.G.wXwXwXz.wXwXz.wX",
"wXwXwXwXwXwXwXN $.*.k * # @ . . .   o - k x x B N x x x N B B 5.[.7XqXqX/.Y <.,.o.{ Y v ; - 7 a 7 a H a f b / E $.3.3.3.5.q.F.F.G.J.U.T./.(.wXwXwXwXwXz.wXwXz.wX",
"wXwXwXwXwXwXwXwX: C *.B ; @ 1 1 < < < +   o - f x x z x x N B b B -.G..X(.x M f > - - > x +.$.$.+.d w b 5.0.0.0.5.>.G.T.P.Y./.].=X*X%XE.wXwXwXwXwXwXz.wXwXwXwXwX",
"wXwXwXwXwXwXwXwXwXwXB ;.$.l & 2 < < $ @ @ @ X X # - > l N B N N N V [ a.$.C k b E Z +.*.3.3.7.w.7.W H &.H.J.I.U.I.i.5./.%X=X*X,X%X).q.wXwXwXwXwXwXwXz.wXwXwXwXwX",
"wXwXwXwXwXwXwXwXwXwX& k $.-.k   X + @ $ 4 w d d 7 o O O - x C #.@.f.c.l.w.0.3.6.j.h.w.q.F.P.Y.E.5.d l i.(./.(.{.%X=X].i./.,X%XP.wXwXwXwXwXwXwXwXwXwXwXwXwXwXwXwX",
"wXwXwXwXwXwXwXwXwX3 5 t ; E ;.+.: + 2 r F J J v v l 8 * o o - g k.Z.h.T.J.H.P.P.^.!.P.)./.].|.[.+.8 0 :.=X*X=X*X1X6X6X,Xw.-.wXwXwXwXwXwXwXwXwXwXwXwXwXwXwXwXwXwX",
"wXwXwXwXwXwXwX2 7 H i F % e l *.3.C # + # = : 8 z C +.;.9.M.N.>.h.Y./.Y.G.E./._..X+X(.].].{.,X].m a t =.<X6X<X<X1X=X/.0.wXwXwXwXwXwXwXwXwXwXwXwXwXwXwXwXwXwXwXwX",
"wXwXwXwXwXwXwXu Q p H i u 5 y ; $.0.3.k # > #.9.N.M.6.n.N.Q.W.U.Y.E.).].%X|.].].{.3X&X`.|.|.1X{.m % : Y.6X6X6X=XP.&.wXwXwXwXwXwXwXwXwXwXwXwXwXwXwXwXwXwXwXwXwXwX",
"wXwXwXwXwXwXwX- Q G G F F % F 1 # *.P.P.H.Y.I...g 0 f f f f q k x B -.0.7.3.7.%X%X1X8X,X%X*X1X6Xw.+ >.,X1X XG.$.wXwXwXwXwXwXwXwXwXwXwXwXwXwXwXwXwXwXwXwXwXwXwXwX",
"wXwXwXwXwXwXwXwX7 W d L d 0 a u * l U.(.].].+.o * : s h l z v j f 7 - 5 e v U.<X<X<X9X6X*X,X,X<XJ.wXq.`.w.wXwXwXwXwXwXwXwXwXwXwXwXwXwXwXwXwXwXwXwXwXwXwXwXwXwXwX",
"wXwXwXwXwXwXwXwXwX@ ; G n v d d > l U.{.%XU.M l > - ; t s d v g h d i q =._.,X,X5X<X6X9X1X*X,X].4.wXwXwXwXwXwXwXwXwXwXwXwXwXwXwXwXwXwXwXwXwXwXwXwXwXwXwXwXwXwXwX",
"wXwXwXwXwXwXwXwXwXwX  # w n U I x w.%X*X,X>.v Y Y m q = % 3 t F J U >.U.=X1X1X*X,X1X,X3X&XU.P.-.wXwXwXwXwXwXwXwXwXwXwXwXwXwXwXwXwXwXwXwXwXwXwXwXwXwXwXwXwXwXwXwX",
"wXwXwXwXwXwXwXwXwXwXwXwX  * I V w.oX%X=XG.N z l v U T X.4.*.*.4.J.].,X<X1X,X*X|.(.G.0.-.#.wXwXwXwXwXwXwXwXwXwXwXwXwXwXwXwXwXwXwXwXwXwXwXwXwXwXwXwXwXwXwXwXwXwXwX",
"wXwXwXwXwXwXwXwXwXwXwXwXwX: &.I.]./.F.;.Z x z f N 3.P. X[.%X,X,X1X1X1X=X].T.4.@.x wXwXwXwXwXwXwXwXwXwXwXwXwXwXwXwXwXwXwXwXwXwXwXwXwXwXwXwXwXwXwXwXwXwXwXwXwXwXwX",
"wXwXwXwXwXwXwXwXwXwXwXwX-.G./.h.&.Z N V V Z @.5./.].T.&.q x 3.(.U.F.3.+.wXwXwXwXwXwXwXwXwXwXwXwXwXwXwXwXwXwXwXwXwXwXwXwXwXwXwXwXwXwXwXwXwXwXwXwXwXwXwXwXwXwXwXwX",
"wXwXwXwXwXwXwXwXwXwX$.w.Y.E.E.H.0.i.T.Y.Y.Y.U.U.q.B # o   o -./.!.3.wXwXwXwXwXwXwXwXwXwXwXwXwXwXwXwXwXwXwXwXwXwXwXwXwXwXwXwXwXwXwXwXwXwXwXwXwXwXwXwXwXwXwXwXwXwX",
"wXwXwXwXwXwXwXwX$.7.G.G.H.i.i.q.w.0.5.-.&.E b 9 * + . O E (.,X}.~.#.wXwXwXwXwXwXwXwXwXwXwXwXwXwXwXwXwXwXwXwXwXwXwXwXwXwXwXwXwXwXwXwXwXwXwXwXwXwXwXwXwXwXwXwXwXwX",
"wXwXwXwXwXwXo x +.+.&.3.7.F./.3.: 8 : % @ + . . . . b P.*X/.L.XXL.wXwXwXwXwXwXwXwXwXwXwXwXwXwXwXwXwXwXwXwXwXwXwXwXwXwXwXwXwXwXwXwXwXwXwXwXwXwXwXwXwXwXwXwXwXwXwX",
"wXwXwXwXwXF./.].|.,X<X1X<X<X,XG.- - % @ X X . . f q.{./.i.~.@XL.wXwXwXwXwXwXwXwXwXwXwXwXwXwXwXwXwXwXwXwXwXwXwXwXwXwXwXwXwXwXwXwXwXwXwXwXwXwXwXwXwXwXwXwXwXwXwXwX",
"wXwXwXwXwXH.(.P.F.w.5.3.-.;.;.;.3.3.+.; .   @ @.U.Y.w.L.@XXXwXwXwXwXwXwXwXwXwXwXwXwXwXwXwXwXwXwXwXwXwXwXwXwXwXwXwXwXwXwXwXwXwXwXwXwXwXwXwXwXwXwXwXwXwXwXwXwXwXwX",
"wXwXwXwXo c +.*.3.3.5.0.q.G.P.U.(.].(.Y.5.+...3.m.).4X:X'.wXwXwXwXwXwXwXwXwXwXwXwXwXwXwXwXwXwXwXwXwXwXwXwXwXwXwXwXwXwXwXwXwXwXwXwXwXwXwXwXwXwXwXwXwXwXwXwXwXwXwX",
"wXwXwXwXwXwXwXC *.0.F.P.(.].].].].{.%X%X=X-X-X:X4X>XoXwXwXwXwXwXwXwXwXwXwXwXwXwXwXwXwXwXwXwXwXwXwXwXwXwXwXwXwXwXwXwXwXwXwXwXwXwXwXwXwXwXwXwXwXwXwXwXwXwXwXwXwXwX",
"wXwXwXwXwXwXwXwXwXwXwX-.(.oX&X&X-X:X3X3X4X4X>X-X].P.wXwXwXwXwXwXwXwXwXwXwXwXwXwXwXwXwXwXwXwXwXwXwXwXwXwXwXwXwXwXwXwXwXwXwXwXwXwXwXwXwXwXwXwXwXwXwXwXwXwXwXwXwXwX",
"wXwXwXwXwXwXwXwXwXwXwX9.#X#X$X4X4X-XOXoX%X].U.i.wXwXwXwXwXwXwXwXwXwXwXwXwXwXwXwXwXwXwXwXwXwXwXwXwXwXwXwXwXwXwXwXwXwXwXwXwXwXwXwXwXwXwXwXwXwXwXwXwXwXwXwXwXwXwXwX",
"wXwXwXwXwXwXwXwXwXwX;.).}.`.(.`.}.].`.(./.G.wXwXwXwXwXwXwXwXwXwXwXwXwXwXwXwXwXwXwXwXwXwXwXwXwXwXwXwXwXwXwXwXwXwXwXwXwXwXwXwXwXwXwXwXwXwXwXwXwXwXwXwXwXwXwXwXwXwX",
"wXwXwXwXwXwXwXwXwXi.(.{.].(.(.(.(.(.U.w.wXwXwXwXwXwXwXwXwXwXwXwXwXwXwXwXwXwXwXwXwXwXwXwXwXwXwXwXwXwXwXwXwXwXwXwXwXwXwXwXwXwXwXwXwXwXwXwXwXwXwXwXwXwXwXwXwXwXwXwX",
"wXwXwXwXwXwXwX7.U.].[.}.[.].(.U.F.3.wXwXwXwXwXwXwXwXwXwXwXwXwXwXwXwXwXwXwXwXwXwXwXwXwXwXwXwXwXwXwXwXwXwXwXwXwXwXwXwXwXwXwXwXwXwXwXwXwXwXwXwXwXwXwXwXwXwXwXwXwXwX",
"wXwXwXwXwXwXq./.`.].].(./.P.q.wXwXwXwXwXwXwXwXwXwXwXwXwXwXwXwXwXwXwXwXwXwXwXwXwXwXwXwXwXwXwXwXwXwXwXwXwXwXwXwXwXwXwXwXwXwXwXwXwXwXwXwXwXwXwXwXwXwXwXwXwXwXwXwXwX",
"wXwXwXwXC q.I.U.Y.T.F.wXwXwXwXwXwXwXwXwXwXwXwXwXwXwXwXwXwXwXwXwXwXwXwXwXwXwXwXwXwXwXwXwXwXwXwXwXwXwXwXwXwXwXwXwXwXwXwXwXwXwXwXwXwXwXwXwXwXwXwXwXwXwXwXwXwXwXwXwX",
"wXwX  o C +.+.wXwXwXwXwXwXwXwXwXwXwXwXwXwXwXwXwXwXwXwXwXwXwXwXwXwXwXwXwXwXwXwXwXwXwXwXwXwXwXwXwXwXwXwXwXwXwXwXwXwXwXwXwXwXwXwXwXwXwXwXwXwXwXwXwXwXwXwXwXwXwXwXwX",
"wXwXwXwXwXwXwXwXwXwXwXwXwXwXwXwXwXwXwXwXwXwXwXwXwXwXwXwXwXwXwXwXwXwXwXwXwXwXwXwXwXwXwXwXwXwXwXwXwXwXwXwXwXwXwXwXwXwXwXwXwXwXwXwXwXwXwXwXwXwXwXwXwXwXwXwXwXwXwXwX"
};
