/* XPM */
static char *_1ec4b9511fb42259514b5816b7fca62[] = {
/* columns rows colors chars-per-pixel */
"70 70 219 2 ",
"   c None",
".  c #030405",
"X  c #04050B",
"o  c #07080B",
"O  c #0A0B0C",
"+  c #080709",
"@  c #040612",
"#  c #060A14",
"$  c #0B0D13",
"%  c #060A1C",
"&  c #0A0D1A",
"*  c #0E111C",
"=  c #0E1014",
"-  c #131315",
";  c #12141B",
":  c #1B1B1D",
">  c #18191B",
",  c #120F07",
"<  c #322E19",
"1  c #070B24",
"2  c #070B2A",
"3  c #0A0E25",
"4  c #0E1124",
"5  c #0D112B",
"6  c #111323",
"7  c #171A22",
"8  c #1B1D23",
"9  c #11142B",
"0  c #16192C",
"q  c #1B1E2B",
"w  c #0E1234",
"e  c #0C113E",
"r  c #111534",
"t  c #151934",
"y  c #1A1D35",
"u  c #11153B",
"i  c #15193B",
"p  c #1A1E3B",
"a  c #070B37",
"s  c #1F2024",
"d  c #1F2128",
"f  c #1F2234",
"g  c #1C213C",
"h  c #222324",
"j  c #23252B",
"k  c #27282A",
"l  c #2B2C2D",
"z  c #2B2A27",
"x  c #222536",
"c  c #2D2E31",
"v  c #22253A",
"b  c #25283D",
"n  c #282A39",
"m  c #2E3033",
"M  c #2E313D",
"N  c #323334",
"B  c #353639",
"V  c #37383B",
"C  c #3B3B3C",
"Z  c #3C3A35",
"A  c #343229",
"S  c #4F420A",
"D  c #54460A",
"F  c #725E08",
"G  c #63530D",
"H  c #796408",
"J  c #47453A",
"K  c #0C1243",
"L  c #0A1049",
"P  c #151944",
"I  c #161A48",
"U  c #141A54",
"Y  c #1E2244",
"T  c #1C214E",
"R  c #1D2357",
"E  c #252A44",
"W  c #292C43",
"Q  c #252B4D",
"!  c #202546",
"~  c #2E3247",
"^  c #3D3E41",
"/  c #33354B",
"(  c #353848",
")  c #252B52",
"_  c #232852",
"`  c #2C3253",
"'  c #2B325A",
"]  c #393D53",
"[  c #393E5B",
"{  c #373C57",
"}  c #1A2061",
"|  c #2E366A",
" . c #343B65",
".. c #383F65",
"X. c #323A6B",
"o. c #333A64",
"O. c #242C78",
"+. c #323C77",
"@. c #2C3671",
"#. c #3F4043",
"$. c #3C405A",
"%. c #3B4161",
"&. c #444545",
"*. c #444549",
"=. c #47484A",
"-. c #4B4C4C",
";. c #4D4E50",
":. c #4B4D5A",
">. c #4F5055",
",. c #545454",
"<. c #54555B",
"1. c #5B5B5C",
"2. c #50504F",
"3. c #595A65",
"4. c #565A7A",
"5. c #485473",
"6. c #5B6369",
"7. c #5D6175",
"8. c #646464",
"9. c #65676C",
"0. c #6C6C6C",
"q. c #676867",
"w. c #666A76",
"e. c #68787C",
"r. c #747474",
"t. c #7B7B7B",
"y. c #767679",
"u. c #FF2204",
"i. c #FF2D04",
"p. c #FF3404",
"a. c #8F7504",
"s. c #FF4604",
"d. c #FF5804",
"f. c #FF6904",
"g. c #FF7C04",
"h. c #FF7204",
"j. c #A68807",
"k. c #BD9A06",
"l. c #FF8D04",
"z. c #FD8404",
"x. c #FE9B04",
"c. c #FF9504",
"v. c #C9A405",
"b. c #D4AA04",
"n. c #D5B002",
"m. c #FFA404",
"M. c #E7BD03",
"N. c #FDB704",
"B. c #E8A204",
"V. c #ECC103",
"C. c #FEC304",
"Z. c #F4CA04",
"A. c #FDCD04",
"S. c #F3C504",
"D. c #FFD204",
"F. c #2C5C96",
"G. c #4E5786",
"H. c #596A98",
"J. c #777B88",
"K. c #6D758C",
"L. c #4E60B5",
"P. c #697EC1",
"I. c #3A8CB0",
"U. c #5D929D",
"Y. c #76888B",
"T. c #6F8A91",
"R. c #6C80BF",
"E. c #51BDC3",
"W. c #47CBD8",
"Q. c #4EDDE6",
"!. c #838484",
"~. c #8C8C8C",
"^. c #85868A",
"/. c #90908F",
"(. c #8D8F92",
"). c #838699",
"_. c #8D9292",
"`. c #889596",
"'. c #939393",
"]. c #9B9C9C",
"[. c #94989B",
"{. c #908F8F",
"}. c #9E9EA2",
"|. c #8E9FB1",
" X c #96A6A7",
".X c #91ADB6",
"XX c #A3A3A3",
"oX c #ABABAB",
"OX c #A8A8A8",
"+X c #ADB3B3",
"@X c #A7BABA",
"#X c #B4B4B4",
"$X c #B4B9B9",
"%X c #BCBCBC",
"&X c #B7B7B8",
"*X c #A9BFC0",
"=X c #A8C2C4",
"-X c #BCC4C4",
";X c #B5C7C9",
":X c #BAD7D9",
">X c #B6DAE1",
",X c #C3C4C4",
"<X c #C2CCCC",
"1X c #CBCBCB",
"2X c #C4DADB",
"3X c #C7D8D8",
"4X c #D4D4D4",
"5X c #DBDBDB",
"6X c #D5DFDF",
"7X c #CCE2E2",
"8X c #C7E2E2",
"9X c #DEE3E3",
"0X c #DBE8E8",
"qX c #E2E2E2",
"wX c #EBEBEA",
"eX c #E4EBEB",
"rX c #F5F5F5",
"tX c #FBFBFB",
"yX c #EAF3F3",
/* pixels */
"                                                                                                                                            ",
"    . h ,.1.1.                                                                                                                              ",
"        1.'.XXXX].'.y.                                                                                                                      ",
"            '.oX#X#X#XoX].!.                                                                                                                ",
"              y.XX&X&X#XoXXX].'.y.                                                                                                          ",
"                -.~.$X+XoXoX#X#XOX].^.                                                                                                      ",
"                  m .X>X:X2X2X;X-X-X$X].t.                                                                                                  ",
"                    _.-X<X<X<X2X7X7X8X2X3X+X                                                                                                ",
"            &.1.y.^.].oX#X#X#X%X,X-X%X$X;X2X3X-X                                                                                            ",
"        C ,.,.1.1.1.q.r.t.~.].XX~.,.l h 1.!.[.;X:X+X                                                                                        ",
"        oX,X,X,X#X'.r.C k l N c ; X X X s 0.XX_.`.=X*X                                                                                      ",
"        N B ,.0.y.,.        $ ; * # X X X X N [.%X X X@X                                                                                    ",
"            h -.0.y.r.0.0.8.1.,.*.V c 8 ; # X O =.#X&X+X X                                                                                  ",
"                C 0.~.].].~.t.^.'.'.'.~.~.q.j $ . O 1.oX[.>.                                                                                ",
"                      t.].^.,.^ V V V *.0.].oXt.V l 1.XX].^.q.*.                                                                            ",
"                      + ( !.oXoX^.<.c k h c 1.(.&X#X,X1X4X4X4X,XoX^.q.&.                                                                    ",
"                    . ; v b 8.&X1X,X8.j n W E Y / B M $.w.[.,X4X4X4X1X%XoX'.Y.q.                                                            ",
"                . & t ! x ! s 8.%X1XXXM W x 8 ; 4 w i y y y ] J.,X4X4X5X5X9X0X,X#X~.                                                        ",
"              * t Y Y p 0 i ; V oX#X&X>.- - ; t y j j f y 0 6 5 ] XX5XqX5XyX9X1X4X1X!.  y.r.                                                ",
"            - _ Y I i 9 w 5 $ <.].].XX(.m ; 9 8 h s q q s k *.:.*.3.,X1X6XeX1X1X4XqXy.& ].1XoXy.                                            ",
"            9 R p P u 4 e * &.y.,.k h -.e.Y.6.6.e.T.Y.^.~.'.oX&X&XoX#X%X7X,X#X,X4X,X~ % *.4XwXqX%X!.&.                                      ",
"            2 9 I t w 5 p -.1.m # # * 7 8 N #.-.9.J.T.6.J.].XX'.].XXoX;X;XoX#X#X1X&XE u t XXqXqX5X4X%X].q.                                  ",
"                3 w ; B ,.C - @ 2 w P Y v j 8 - o o - c H.R.J./.^.~.~.|.[.].].XX&X#X*.8 n [.1X,X1X4X5X5X].0.y.                              ",
"                  8 -.,.s X # # # & * 9 r & o O > l C ^ ^ 5.L.3.0.,.<.K.q.0.y.!.~.'.9.T / '.].XX#X&X#X^.].4X4X#X~.                          ",
"                l ,.&.8 1 2 2 2 % X X X O : h k c c m c l C 4.K.&.: : 8 h l &.,.1.q.1.Y p q.!.~.~.!.q.~.oX#X&X,X1X%X].                      ",
"              C -.l $ $ # # X X @ O > h l N l l l N N &.!.&X5XwX3.[ [ ~ v 8 > h k n d I i c -.<.<.1.0.y.y.!.~.].XXoXoX~.'.                  ",
"            h -.&.: > > > : h k k N B c N N l c N l h XXtXrXrX4XB ( / ` ) ) Q t 4 e K w K L 3 K P 8 j l C -.1.1.q.0.y.].#XoX^.              ",
"              > z Z C B N k h : - h B N B B V B : ; 8 w.wXtXtX'.O > k l l k 8 9 5 3 1 a % 2                   h l C 1.8.r.^.'.~.            ",
"          V.Z.V.n.k.j.S         + k C C -.,.V : 7 Q o.] ^.wX,Xl . + + o O - > $ # @ X                                   h N ,.y.~.0.        ",
"      V.A.N.c.g.l.D.D.        > c &.,.1.-.l q Q X. .] [ ` :.-.C C C N l l k 8 - o .                                           h &.1.C       ",
"    N.C.x.i.u.p.h.S.v.D $ : k C -.-.C k x ' X. .[ $...| Y B q.0.0.q.q.0.r.r.0.q.1.-.C l h :                                       - : O     ",
"  z.p.i.u.d.N.b.j.G z h k k : - s f Q @.+.X. ... .o.) q &.y.t.t.t.!.~.'.'.'.'.].'.'.~.'.~.^.y.8.-.- o                                   .   ",
"x.u.f.z.l.A.M.a.D F H H j.  . r R O.O.@.| o.o.` E 8 h 1.~.'.].XXoX#X#X#XoXoXoXoX#X#X~.9.7.w.e.^.'.,.q.q.8.&.l                               ",
"m.g.A.D.D.D.D.A.C.A.D.A.A.V., K U I P g f q ; $ o : q.~.].XXoXoXXX].t.8.,.&.&.&.-.8.!.}.}.J.G.F.I.U.[.oX].^.0.-.N l                         ",
"D.D.D.A.g.g.g.s.p.d.z.s.x.Z.  X $ $ o X + . . X X - q.oX&X4X5X5X5X5X4X4XqX5X4XqX4X#X~.1.oX4X1X.XW.Q.E.e.{.XXoX/.r.r.8.                      ",
"A.x.m.D.l.i.p.f.z.d.i.s.N.Z.  X $ $ o X + . . X o - q.#X,X4X5XqX5X5X5XqX5XqXqX5X5X,X'.,.oX4X1X.XW.Q.E.e.'.oX#X'.0.y.y.                      ",
"V.f.i.f.x.N.C.A.D.D.C.A.D.M.+ e U I i p y 8 ; $ X : q.~.].XXoXoXXX'.t.8.-.-.&.&.-.6.t.].XX).G.F.I.U.[.XX].^.0.-.B B                         ",
"  N.d.s.u.l.Z.a.F F G j.v.  . r } O.O.@.| o.o.` b 8 h 8.~.'.].XXoX#X#X#XoXXXXXOX#X#X~.9.3.7.w.^.'.1.0.0.q.-.N                               ",
"  M.D.A.h.u.f.B.a.D < h A k > - 8 f _ @.+.X. ... .o.Q q -.y.t.!.!.!.~.'.'.'.'.].[.'.~.'.'.~.y.q.-.- O                                   .   ",
"    S.D.C.f.d.N.D.A.b.S $ : l C =.=.V j v ' X. .[ %...| Y V q.0.0.0.0.0.r.r.0.0.q.,.C N k h >                                     O : O     ",
"      S.A.D.D.D.D.D.D.V.      > N &.,.1.-.k q Q X. .] [ ` :.-.&.&.C B N N l h > O .                                           : C 1.C       ",
"          V.Z.S.M.b.v.H         X l ^ ^ ;.,.C > 8 Q X.] !.wX%Xl . + + o O - - $ # X X                                   : l -.r.^.0.        ",
"              < A Z J B l k h > - h B N B V C B : ; q w.rXrXrX].o > k l l k 8 6 5 3 1 a % 2                     l C 1.1.0.!.'.~.            ",
"            h =.*.: : : : h h k l N B c N N l c N l s XXtXtXtX1XN ( ~ ~ ) _ ! t 6 e K w e L 3 K K 7 j k C -.,.1.8.0.y.].#XoX~.              ",
"              C -.k $ $ # # X X @ $ : h l N l l l N N =.!.1XwXqX<...%.` b q > : j v 8 P i c =.:.,.,.0.y.y.t.~.].XXoXoX~.].                  ",
"                N ,.#.: 1 2 2 2 % X X X O : h k c c m l l V 4.K.&.: : 8 s k &.,.1.8.1.Y y 8.!.^.^.t.q.~.oXoX#X,X1X,XXX                      ",
"                  h -.,.8 X # # # & * 9 5 & o O > l V C C 5.L.3.q.,.<.K.8.0.r.!.~./.9.T / '.].XX#X#XoX^.].4X4X&X~.                          ",
"                3 w ; C ,.B $ @ 2 w P Y v j 8 - X + > N H.P.K.~.^.~.~.|.[.'.].XX#X#X=.8 n [.,X,X1X4X5X5X].y.t.                              ",
"            1 9 I r w 5 v 2.1.c # # ; 7 8 c C *.6.e.T.3.J.[.XX'.'.XXoX;X;XoX#X#X1X&XW u t  XqXqX5X4X,X].0.                                  ",
"            r R p P u 4 e ; -.y.,.h 8 =.e.Y.w.6.e.T.T.(.~.].oX&X%X#X#X%X7X,X#X,X4X,XW & #.4XwXqX,X^.-.                                      ",
"            - _ Y I i 9 w 5 = 1.].].].'.B 7 0 8 h s q q h l ;.3.=.8.,X1X7XeX1X1X4XqXr.& ].4X#X!.                                            ",
"              4 i Y Y p 0 i ; V oX#X&X,.- - 6 t y j j f y 0 6 5 / XX5XqX5XyX9X1X4X4X^.  t.y.                                                ",
"                . & y ! x Y s 3.%X1XXXM E x 8 ; 5 w i y y y / y.,X4X4X5X5X9X0X,X&X'.                                                        ",
"                    . ; v b 1.&X1X1Xq.j n W E Y ~ c n ] 4.(.%X4X4X4X1X%XoX[.`.0.                                                            ",
"                      + ~ J.oXoX~.1.m k h c <.~.&X#X%X,X4X5X4X,XoX~.0.-.                                                                    ",
"                      y.].~.1.&.B B B #.8.].oX!.#.N q.oXXX~.0.-.                                                                            ",
"                C q.~.].].~.y.!.'.'.~.'.~.0.k $ . O ,.oX].-.                                                                                ",
"            h -.0.y.y.r.y.0.3.1.;.^ m d ; $ X o C XX,X@X X                                                                                  ",
"        h N -.8.r.~.].#X1X~.- ; * # @ X X X l ~.%X]. X@X                                                                                    ",
"        ~.1X1X%X,X#XXX].~.q.N l * X X X 8 0.oX~.`.=X=X                                                                                      ",
"        h ,.1.1.1.1.8.0.y.^.].].!.;.k 8 1.!.`.=X:X@X                                                                                        ",
"            &.1.y.^.].oX#X#X#X%X%X%X$X+X$X3X3X<X                                                                                            ",
"                    _.%X<X<X<X2X7X7X7X7X3X$X                                                                                                ",
"                  c .X>X:X2X2X;X-X,X$XXX!.                                                                                                  ",
"                &.~.$X+XoXoX#X#XoX].~.                                                                                                      ",
"              y.XX&X&X#XoXoXXX'.t.                                                                                                          ",
"            ~.oX#X#X#XoX].^.                                                                                                                ",
"        1.'.XXXXXX'.t.                                                                                                                      ",
"    . h ,.1.1.                                                                                                                              ",
"                                                                                                                                            "
};
