/* XPM */
static char *result[] = {
/* columns rows colors chars-per-pixel */
"80 80 223 2 ",
"   c #030304",
".  c #04060B",
"X  c #06080D",
"o  c #0A0B0C",
"O  c #080709",
"+  c #040611",
"@  c #060A13",
"#  c #0B0D13",
"$  c #060B1B",
"%  c #080B1A",
"&  c #0F1014",
"*  c #0E121D",
"=  c #131315",
"-  c #13151A",
";  c #17181C",
":  c #1A1B1D",
">  c #1F1C11",
",  c #141105",
"<  c #29271D",
"1  c #322C0F",
"2  c #070B24",
"3  c #060A2C",
"4  c #090E27",
"5  c #0E1123",
"6  c #0D112B",
"7  c #131523",
"8  c #1C1D22",
"9  c #16192C",
"0  c #1A1D2B",
"q  c #141725",
"w  c #090D37",
"e  c #0D1234",
"r  c #0E123C",
"t  c #121533",
"y  c #1B1E33",
"u  c #12163C",
"i  c #15193B",
"p  c #171A39",
"a  c #1E2024",
"s  c #1E212D",
"d  c #1E2133",
"f  c #1E213B",
"g  c #232325",
"h  c #24262A",
"j  c #27282C",
"k  c #2B2B2D",
"l  c #222533",
"z  c #2D2E31",
"x  c #22263C",
"c  c #26293A",
"v  c #2F3032",
"b  c #323334",
"n  c #353639",
"m  c #3C3C3D",
"M  c #373839",
"N  c #36342D",
"B  c #201F1C",
"V  c #443A0C",
"C  c #403F3A",
"Z  c #534712",
"A  c #635723",
"S  c #090E48",
"D  c #0D1247",
"F  c #161B45",
"G  c #141A57",
"H  c #1E2344",
"J  c #1D224C",
"K  c #1D2255",
"L  c #252942",
"P  c #2A2F4D",
"I  c #232847",
"U  c #2B304B",
"Y  c #3A3C45",
"T  c #252B56",
"R  c #2C335A",
"E  c #383C56",
"W  c #181F71",
"Q  c #1D267C",
"!  c #252C66",
"~  c #2D3564",
"^  c #2D356B",
"/  c #353C63",
"(  c #343C6B",
")  c #353C63",
"_  c #323B75",
"`  c #273077",
"'  c #3E4244",
"]  c #3A405C",
"[  c #3A4169",
"{  c #394375",
"}  c #444445",
"|  c #44464B",
" . c #4B4B4C",
".. c #444A4B",
"X. c #4C4D51",
"o. c #4F5053",
"O. c #545454",
"+. c #55565B",
"@. c #5B5B5B",
"#. c #575859",
"$. c #454963",
"%. c #585B63",
"&. c #444C76",
"*. c #4B5279",
"=. c #5D6369",
"-. c #5F6C7B",
";. c #636364",
":. c #66666B",
">. c #6B6B6C",
",. c #66686E",
"<. c #686B74",
"1. c #6A777A",
"2. c #747474",
"3. c #7B7B7C",
"4. c #767779",
"5. c #FF1B04",
"6. c #FF1504",
"7. c #FF2704",
"8. c #FF3604",
"9. c #8C7305",
"0. c #FF5904",
"q. c #FF4804",
"w. c #FF6904",
"e. c #FF7604",
"r. c #AB8C05",
"t. c #B89604",
"y. c #B78D03",
"u. c #9B8103",
"i. c #FF8704",
"p. c #FF9804",
"a. c #CBA604",
"s. c #DAB302",
"d. c #D7AF04",
"f. c #FFA304",
"g. c #FDAD04",
"h. c #E6BA03",
"j. c #FEB504",
"k. c #FFBA04",
"l. c #C29E04",
"z. c #ECC203",
"x. c #FFC404",
"c. c #FDCB04",
"v. c #F3C804",
"b. c #FFD204",
"n. c #80807F",
"m. c #2C3680",
"M. c #3D4B9F",
"N. c #246CA8",
"B. c #4A578A",
"V. c #4D5C95",
"C. c #757A86",
"Z. c #6D7A8E",
"A. c #5A6FA2",
"S. c #536293",
"D. c #586EC7",
"F. c #2C96BC",
"G. c #568486",
"H. c #7E8182",
"J. c #738386",
"K. c #789398",
"L. c #6D8589",
"P. c #4796A7",
"I. c #778FA5",
"U. c #2B9BC0",
"Y. c #7288C7",
"T. c #4DD4DC",
"R. c #53E4EC",
"E. c #838383",
"W. c #8B8B8B",
"Q. c #888887",
"!. c #8E8F92",
"~. c #858D97",
"^. c #889496",
"/. c #949494",
"(. c #9B9C9C",
"). c #969799",
"_. c #8F908E",
"`. c #9FA09F",
"'. c #A0A09F",
"]. c #9092A3",
"[. c #99A5A8",
"{. c #9AB3B4",
"}. c #8BA6AF",
"|. c #A4A4A4",
" X c #ABABAB",
".X c #A4A9AB",
"XX c #ACADB3",
"oX c #ACB2B3",
"OX c #ADB7B8",
"+X c #B4B4B4",
"@X c #BBBBBB",
"#X c #B5B7B9",
"$X c #C0BFBF",
"%X c #C0C0BF",
"&X c #B9B9C0",
"*X c #ABC6C8",
"=X c #BDC4C4",
"-X c #B6C8C9",
";X c #B8D3D5",
":X c #AFD1D4",
">X c #B6DDE3",
",X c #BEE1E4",
"<X c #C3C3C3",
"1X c #C4CCCC",
"2X c #CCCCCC",
"3X c #C8C7C7",
"4X c #C5DBDC",
"5X c #CCDCDC",
"6X c #C6D2D2",
"7X c #D3D3D3",
"8X c #DCDCDC",
"9X c #D7D8D8",
"0X c #CCE4E4",
"qX c #C8E4E4",
"wX c #D7E5E5",
"eX c #E4E4E4",
"rX c #ECECEC",
"tX c #E1EFEF",
"yX c #E6F2F2",
"uX c #F4F4F4",
"iX c #FCFCFC",
"pX c #C3DFE0",
"aX c None",
/* pixels */
"aXaXaXaXaXaXaXaXaXaXaXaXaXaXaXaXaXaXaXaXaXaXaXaXaXaXaXaXaXaXaXaXaXaXaXaXaXaXaXaXaXaXaXaXaXaXaXaXaXaXaXaXaXaXaXaXaXaXaXaXaXaXaXaXaXaXaXaXaXaXaXaXaXaXaXaXaXaXaXaX",
"aXaX  o M ' aXaXaXaXaXaXaXaXaXaXaXaXaXaXaXaXaXaXaXaXaXaXaXaXaXaXaXaXaXaXaXaXaXaXaXaXaXaXaXaXaXaXaXaXaXaXaXaXaXaXaXaXaXaXaXaXaXaXaXaXaXaXaXaXaXaXaXaXaXaXaXaXaXaX",
"aXaXaXaXC n.)././.W.3.aXaXaXaXaXaXaXaXaXaXaXaXaXaXaXaXaXaXaXaXaXaXaXaXaXaXaXaXaXaXaXaXaXaXaXaXaXaXaXaXaXaXaXaXaXaXaXaXaXaXaXaXaXaXaXaXaXaXaXaXaXaXaXaXaXaXaXaXaX",
"aXaXaXaXaXaXn..X+X+X+X X(./.4.aXaXaXaXaXaXaXaXaXaXaXaXaXaXaXaXaXaXaXaXaXaXaXaXaXaXaXaXaXaXaXaXaXaXaXaXaXaXaXaXaXaXaXaXaXaXaXaXaXaXaXaXaXaXaXaXaXaXaXaXaXaXaXaXaX",
"aXaXaXaXaXaXaX2.(.+X+X@X@X+X X).n.aXaXaXaXaXaXaXaXaXaXaXaXaXaXaXaXaXaXaXaXaXaXaXaXaXaXaXaXaXaXaXaXaXaXaXaXaXaXaXaXaXaXaXaXaXaXaXaXaXaXaXaXaXaXaXaXaXaXaXaXaXaXaX",
"aXaXaXaXaXaXaXaXaXE.+X#X+X X X.X X X).2.aXaXaXaXaXaXaXaXaXaXaXaXaXaXaXaXaXaXaXaXaXaXaXaXaXaXaXaXaXaXaXaXaXaXaXaXaXaXaXaXaXaXaXaXaXaXaXaXaXaXaXaXaXaXaXaXaXaXaXaX",
"aXaXaXaXaXaXaXaXaXaX=..X#XoX X X+X+X X.X(.Q.aXaXaXaXaXaXaXaXaXaXaXaXaXaXaXaXaXaXaXaXaXaXaXaXaXaXaXaXaXaXaXaXaXaXaXaXaXaXaXaXaXaXaXaXaXaXaXaXaXaXaXaXaXaXaXaXaXaX",
"aXaXaXaXaXaXaXaXaXaXaX1.>X,X;XqX4X;X-X=X<X+X(.4.aXaXaXaXaXaXaXaXaXaXaXaXaXaXaXaXaXaXaXaXaXaXaXaXaXaXaXaXaXaXaXaXaXaXaXaXaXaXaXaXaXaXaXaXaXaXaXaXaXaXaXaXaXaXaXaX",
"aXaXaXaXaXaXaXaXaXaXaX#.oX=X1X1X6X4X0X0X0XqX5X1XoXaXaXaXaXaXaXaXaXaXaXaXaXaXaXaXaXaXaXaXaXaXaXaXaXaXaXaXaXaXaXaXaXaXaXaXaXaXaXaXaXaXaXaXaXaXaXaXaXaXaXaXaXaXaXaX",
"aXaXaXaXaXaXaXaXo.2.E./. X+X+X+X+X<X<X<X1X6X5X4X0X5X@XaXaXaXaXaXaXaXaXaXaXaXaXaXaXaXaXaXaXaXaXaXaXaXaXaXaXaXaXaXaXaXaXaXaXaXaXaXaXaXaXaXaXaXaXaXaXaXaXaXaXaXaXaX",
"aXaXaXaXo k } #.;.>.>.2.E.!.(.|. X+X+X[.2. .} >.E.OXpX4XOXaXaXaXaXaXaXaXaXaXaXaXaXaXaXaXaXaXaXaXaXaXaXaXaXaXaXaXaXaXaXaXaXaXaXaXaXaXaXaXaXaXaXaXaXaXaXaXaXaXaXaX",
"aXaXaXaXaX'.).W.n.>.;.@.O.C  .#.;.>.} : . . # X./.W.2.[.:X*XaXaXaXaXaXaXaXaXaXaXaXaXaXaXaXaXaXaXaXaXaXaXaXaXaXaXaXaXaXaXaXaXaXaXaXaXaXaXaXaXaXaXaXaXaXaXaXaXaXaX",
"aXaXaXaX@./.|.%X7X7X3XaXaXaXaXaX& - & @ X X X . h n.<X`.H.{.:X~.aXaXaXaXaXaXaXaXaXaXaXaXaXaXaXaXaXaXaXaXaXaXaXaXaXaXaXaXaXaXaXaXaXaXaXaXaXaXaXaXaXaXaXaXaXaXaXaX",
"aXaXaXaXaX  & k }  .C g g aXaX# = q * & @ + . . . . M `.9X|.^.*X^.aXaXaXaXaXaXaXaXaXaXaXaXaXaXaXaXaXaXaXaXaXaXaXaXaXaXaXaXaXaXaXaXaXaXaXaXaXaXaXaXaXaXaXaXaXaXaX",
"aXaXaXaXaXaXaXg  .2.Q.Q.E.3.3.4.2.>.;.O.' Y h q # X . .  .#X3XoX{...aXaXaXaXaXaXaXaXaXaXaXaXaXaXaXaXaXaXaXaXaXaXaXaXaXaXaXaXaXaXaXaXaXaXaXaXaXaXaXaXaXaXaXaXaXaX",
"aXaXaXaXaXaXaXaXaXaXo.n.).'.'.W.n.E.!.(.).).(./.2.v & X   & ;. X(.;.aXaXaXaXaXaXaXaXaXaXaXaXaXaXaXaXaXaXaXaXaXaXaXaXaXaXaXaXaXaXaXaXaXaXaXaXaXaXaXaXaXaXaXaXaXaX",
"aXaXaXaXaXaXaXaXaXaXaXaX;._.|.3. .n b m m m  .2..XoXQ.} ; h @.|.).n.@.' aXaXaXaXaXaXaXaXaXaXaXaXaXaXaXaXaXaXaXaXaXaXaXaXaXaXaXaXaXaXaXaXaXaXaXaXaXaXaXaXaXaXaXaX",
"aXaXaXaXaXaXaXaXaXaXaXaXaX: +.).+X'.3.o.b k h s n >.(.%X+X@X7X7X9X7X7X<X XQ.;.} g aXaXaXaXaXaXaXaXaXaXaXaXaXaXaXaXaXaXaXaXaXaXaXaXaXaXaXaXaXaXaXaXaXaXaXaXaXaXaX",
"aXaXaXaXaXaXaXaXaXaXaXaX  # I Y C.$X3X<XW.z h h l c L $.2.@.%.2.).&X9X8X7X7X2X@X|.Q.>.#.aXaXaXaXaXaXaXaXaXaXaXaXaXaXaXaXaXaXaXaXaXaXaXaXaXaXaXaXaXaXaXaXaXaXaXaX",
"aXaXaXaXaXaXaXaXaXaX  + 7 x L x k n.<X2X2X@.l P P x d * % 2 t F H U %.|.7X7X7X2X7X7X2X0X<X).W.#.aXaXaXaXaXaXaXaXaXaXaXaXaXaXaXaXaXaXaXaXaXaXaXaXaXaXaXaXaXaXaXaX",
"aXaXaXaXaXaXaXaXaX@ * I x x l F : j '.@X3X/.c h a = * e u f s s y p t d %.+X7X7X8X8XwXyX8X3X7XXX;.aXaXaXaXaXaXaXaXaXaXaXaXaXaXaXaXaXaXaXaXaXaXaXaXaXaXaXaXaXaXaX",
"aXaXaXaXaXaXaXaX7 T f G i 9 t t - g /.+X#X+X' # & 5 p s s j d H 0 q - 7 w c '.8XeX9XyXrX2X7X7X9XW.aX4..X2.aXaXaXaXaXaXaXaXaXaXaXaXaXaXaXaXaXaXaXaXaXaXaXaXaXaXaX",
"aXaXaXaXaXaXaX= T F F i D - D * #  ./.).W.(.!.m a 9 a g a a s a j v +.:.:.+.>.<X1X7XtX7X$X7X9XeX3.+ =.7X7X@Xn.' aXaXaXaXaXaXaXaXaXaXaXaXaXaXaXaXaXaXaXaXaXaXaXaX",
"aXaXaXaXaXaXaXt T y G t e 6 D & } 4.;.k - 8 X.J.^.L.=.G.L.K.^.)./.'.|.+X3X$X+X+X@XqX2X+X$X<X9X$XL * - (.eXrXeX3XQ. .aXaXaXaXaXaXaXaXaXaXaXaXaXaXaXaXaXaXaXaXaXaX",
"aXaXaXaXaXaXaX3 q F i D 5 w 0  .>.Y = . # * ; a z '  .=.H.K.I.=.C.(.|.).!.'.|. X&X;XXX+X+X@X7X+XL u e +.8XeXeX8X9X<X(.>.aXaXaXaXaXaXaXaXaXaXaXaXaXaXaXaXaXaXaXaX",
"aXaXaXaXaXaXaXaXaXe 6 t - n #. .: X 3 w D H f l h s : & o O = g A.Y.C.!.!.W././.{.[.). X'.+X$X+X' 8 9 $.3X2X3X2X7XeXeX7X4.O.aXaXaXaXaXaXaXaXaXaXaXaXaXaXaXaXaXaX",
"aXaXaXaXaXaXaXaXaXaX% 8  .#.g   . + @ $ 5 9 p F 7 # O   = j m } | V.D.<.3.2.:.>.I.2.3.3.Q./.(.'.:.y l n. X|. X@X3X3X#XE.(.7X<XW.aXaXaXaXaXaXaXaXaXaXaXaXaXaXaXaX",
"aXaXaXaXaXaXaXaXaXaXv O.O.k % 2 2 2 $ @ @ @ o X o & : g b b b b b n { M.| } j z E C } #.;.>.2.4.2.T G O.Q./.(.(.(.Q.>.|.<X2X2X7X@X|.aXaXaXaXaXaXaXaXaXaXaXaXaXaX",
"aXaXaXaXaXaXaXaX= C #.M = @ 2 2 2 2 2 .   . & : k k k k k v v k v o.C.XX Xj h a : = = : b }  .o. .y 9 v >.2.4.2.>.;.W././.(.|.@X3X7X%X(.aXaXaXaXaXaXaXaXaXaXaXaX",
"aXaXaXaXaXaXaXz  .O.g # # # + O . . O = g k k v v k h z v b b :.@XeXuXiX+XP B.&.[ R U 0 = = q i 5 r G u h b E }  .;.;.:.2.3.Q.Q.W./.'._.|.|.aXaXaXaXaXaXaXaXaXaX",
"aXaXaXaXaXaX  g }  .j 8 8 g g k v b b v b b k b b k v b v a a #XiXuXuXiX2.j z c c L J T I i 7 r S r 4 S S @ S S # 7 q < M }  .O.@.>.>.W.|.+X XQ.aXaXaXaXaXaXaXaX",
"aXaXaXaXaXaXaXaX, B v C m M z g B ; = & k M b M M M m h = ; s <.eXiXiXeXM O B k b v k g ; 4 6 6 2 w 3 + S aXaXaXaXaXaXaXaXaXaXaXg b O.@.;.4.Q././.>.aXaXaXaXaXaX",
"aXaXaXaXaXaXz.v.z.s.t.r.9.aXaXaXaXaXaX= M m m ..#...a = a T ( E Q.rXrX4.O       O o = ; = # + X . aXaXaXaXaXaXaXaXaXaXaXaXaXaXaXaXaXaXaX: g m #.3.W.4.aXaXaXaXaX",
"aXaXaXaXz.v.x.j.g.f.c.b.v.aXaXaXaXaX: M } O.%.@.M q a T _ ) Y E U ,.>.N v v k g B : : = o .     aXaXaXaXaXaXaXaXaXaXaXaXaXaXaXaXaXaXaXaXaXaXaX= k  .>.#.aXaXaXaX",
"aXaXz.v.b.g.8.5.6.8.j.b.s.aX  O : v }  .#. .v a l R _ / E ] [ ) ! 9 } ;.;.;.;.@.;.;.;.@.O. .m j ; o O aXaXaXaXaXaXaXaXaXaXaXaXaXaXaXaXaXaXaXaXaXaX  > k g aXaXaX",
"aXh.i.w.e.7.8.e.p.g.d.9.V 8 h v b j b b h 0 P ^ { ( / ] / [ ) J s #.4.2.2.2.2.3.n.E.E.3.E.Q.Q.n.4.2.>.@.o.C k = aXaXaXaXaXaXaXaXaXaXaXaXaXaXaXaXaXaXaXaX      aX",
"h.w.5.7.5.q.j.z.u.V 1 g a < < >   o 7 f ! _ m.( ^ / [ ( ~ I a k >.E.E.Q.Q._.(.'.|.|.|. X X X|.(.W.Q.!.(.)./.Q.4.B g ; < aXaXaXaXaXaXaXaXaXaXaXaXaXaXaXaXaXaXaXaX",
"p.5.e.x.j.x.c.h.r.u.r.a.t.d.z.a.  u W Q Q ! ^ ^ ~ R L d : = Y n./.(.|. X X+X@X+X X(./.!._./. X@X(.2.%.X.$.*.Z.~.2._.W.W.4.@.} g aXaXaXaXaXaXaXaXaXaXaXaXaXaXaXaX",
"k.i.c.b.b.c.b.b.c.x.c.b.b.k.c.z., 3 D i t 0 a q = & o O   m 3.W./.'. X X|.'.Q.>.O. . .C } } }  .>.).@XXX~.V.N.F.P.K.|.'.W.3.;.o.m M aXaXaXaXaXaXaXaXaXaXaXaXaXaX",
"b.b.b.b.j.0.i.w.8.5.8.w.w.8.j.z.aX  @ # @ . .       O . o : n.#X$X7XeXeX8XeXrX8XeXuXrXeXrXuX8X<X(.O.3.7X7X3XI.R.R.T.G.3.|. X+X/.4.4.2.aXaXaXaXaXaXaXaXaXaXaXaXaX",
"b.g.p.b.x.0.6.7.0.i.0.7.5.w.c.v.aX  @ @ o .         . o o q H.@X2X9X8XrXrXeXeXrXrXrXrXuXuXrXeX9X|.#.4.7X7X2X}.T.R.T.G.n.|.@X$X/.2.4.n.@.aXaXaXaXaXaXaXaXaXaXaXaX",
"z.i.5.i.f.k.g.j.b.b.b.x.j.c.b.h.  2 r i t 9 q q & & o     C 2.W./.(.|. X X(.Q.2.;. . . . .} }  .;./.@X+X].S.N.F.P.L.'./.Q.3.;.O.} C @.aXaXaXaXaXaXaXaXaXaXaXaXaX",
"aXj.8.6.6.0.x.v.t.r.l.r.l.z.v.aX  r W Q Q ! ~ ~ ~ P L s : = ' E./.'.|. X X+X+X+X|./._.Q.Q.W.|.#X(.4.%.$.[ *.Z.~.4./././.3.;.} k aXaXaXaXaXaXaXaXaXaXaXaXaXaXaXaX",
"aXz.x.j.i.5.w.g.y.Z > q B Z Z =   # q H ! m._ ( ~ / [ ( R I a z >.E.Q.W._./.(.'.|. X X XXX X X'.Q.Q._.).)._.W.3.g j B j aXaXaXaXaXaXaXaXaXaXaXaXaXaXaXaXaXaXaXaX",
"aXaXv.b.b.w.6.7.g.v.t.r.V : k b b g v b s s T ( { ( [ / [ ( ~ H h @.4.4.4.2.2.4.n.E.n.n.Q.Q.Q.n.3.4.2.;.#.} z : aXaXaXaXaXaXaXaXaXaXaXaXaXaXaXaXaXaXaXaX      aX",
"aXaXaXc.b.c.p.p.x.b.b.b.s.V   o : b }  .O...k a f ~ _ E ] ] [ ( T 0  .;.;.;.;.;.;.:.;.;.@. .} k : = O aXaXaXaXaXaXaXaXaXaXaXaXaXaXaXaXaXaXaXaXaXaXaX= j g aXaXaX",
"aXaXaXaXv.b.c.b.b.b.b.b.b.aXaXaXaXo g M } O.=.#.b : d R ( E Y ] P =.:.m b N z j < B : ; & O     aXaXaXaXaXaXaXaXaXaXaXaXaXaXaXaXaXaXaXaXaXaXaX= g } >.O.aXaXaXaX",
"aXaXaXaXaXs.h.v.v.z.a.a.r.aXaXaXaXaXaX= M m m  .#.} 8 = s T ( E E.rXrX>.O       O o & - - o @ . . aXaXaXaXaXaXaXaXaXaXaXaXaXaXaXaXaXaXaX= g M O.4._.4.aXaXaXaXaX",
"aXaXaXaXaXaXaXaX1 1 N } C N k g : = = & v b b M b m C a = ; s <.uXuXuXeXn O 8 z z b k h = 5 6 3 % 3 3 . aXaXaXaXaXaXaXaXaXaXaXaXg b  .#.;.2.E././.2.aXaXaXaXaXaX",
"aXaXaXaXaXaX  g m | k g g g j z v b b v b b v b b v v b v a a #XiXuXuXuX>.g z j c x I I I i 7 t D D 6 S D % S S # * - g b C  .O.#.;.>.Q.'.+X XW.aXaXaXaXaXaXaXaX",
"aXaXaXaXaXaXaXv  .O.g o # # O . . O o = g k v v v k k k v b b >.@XrXiXiX XP B.&.{ R P d * & 7 i 5 t G r 8 v U Y | @.;.;.>.4.E.Q.W./.(.W.|. XaXaXaXaXaXaXaXaXaXaX",
"aXaXaXaXaXaXaXaX: C O.b = # 2 2 2 2 2 +   o = B k k k k k v v z b @.W.&X Xk j a : = = ; b }  . .| p 9 z >.4.4.2.>.;.W./././.|.+X3X2X<X'.aXaXaXaXaXaXaXaXaXaXaXaX",
"aXaXaXaXaXaXaXaXaXaXb #. .h 2 2 2 2 $ @ @ + . X @ = : h b b v v v n ( M.| C h z Y m } O.;.;.2.4.2.T G O.Q.!.(.(.).n.>.|.3X3X2X7X<X.X3.aXaXaXaXaXaXaXaXaXaXaXaXaX",
"aXaXaXaXaXaXaXaXaXaX$ a  .#.g   X + @ $ 5 9 f F 7 # . . = k ' ' | B.D.S.4.2.;.,.Z.C.4.3.E./.(.(.,.y 0 n. X|. X@X3X1X+Xn.|.7X<X).aXaXaXaXaXaXaXaXaXaXaXaXaXaXaXaX",
"aXaXaXaXaXaXaXaXaXe 6 6 - m #.} ; + 3 w D H f l h h ; & O o & j A.Y.C.W.!.Q./.!.{.[./. X|.+X$X#X} q 0 $.<X2X<X2X9X8XeX7X4.#.aXaXaXaXaXaXaXaXaXaXaXaXaXaXaXaXaXaX",
"aXaXaXaXaXaXaX3 7 F t F 5 w s O.;.M # + & * : q j Y } #.4.L.K.%.C.).|.(.W.'.|.XX&X;X XXX+X#X7X#XL t e %.8XeXeX9X9X3X|.2.aXaXaXaXaXaXaXaXaXaXaXaXaXaXaXaXaXaXaXaX",
"aXaXaXaXaXaXaXt K p G t t 6 r *  .4.@.j = : ..1.K.J.<.L.K.}.].(./.'.|.+X3X$X+X+X@XqX2XoX@X%X9X@Xc 2 ; ).rXeXeX3X_.O.aXaXaXaXaXaXaXaXaXaXaXaXaXaXaXaXaXaXaXaXaXaX",
"aXaXaXaXaXaXaX= T I F i u * D 5 &  ././.Q./.).' s q a a 8 s 0 g z N %.2.2.%.2.$X3X7XtX7X%X7X9XeX4.+ %.7X9X%XW. .aXaXaXaXaXaXaXaXaXaXaXaXaXaXaXaXaXaXaXaXaXaXaXaX",
"aXaXaXaXaXaXaXaX9 G x K i 9 t t - h /.+X+X+X} o & 7 i d h g l f 0 q = 7 w l (.8X8X9XyXrX2X7X7X9X!.aX3. X4.aXaXaXaXaXaXaXaXaXaXaXaXaXaXaXaXaXaXaXaXaXaXaXaXaXaXaX",
"aXaXaXaXaXaXaXaXaX@ = K x y l F : g (.@X<X(.c h : = - e u d s s d p t y +.XX7X7XeX8XwXyX9X2X7X+X;.aXaXaXaXaXaXaXaXaXaXaXaXaXaXaXaXaXaXaXaXaXaXaXaXaXaXaXaXaXaXaX",
"aXaXaXaXaXaXaXaXaXaX  # 9 x L L j 3.<X2X7X%.l P U c 0 * % 4 r F H L %.(.2X9X7X7X7X7X7X0X1X(./.@.aXaXaXaXaXaXaXaXaXaXaXaXaXaXaXaXaXaXaXaXaXaXaXaXaXaXaXaXaXaXaXaX",
"aXaXaXaXaXaXaXaXaXaXaXaX  & F n 4.%X3X<X_.z j j l c L [ :.+.O.:.!.#X7X9X7X7X2X$X X_.2.@...aXaXaXaXaXaXaXaXaXaXaXaXaXaXaXaXaXaXaXaXaXaXaXaXaXaXaXaXaXaXaXaXaXaXaX",
"aXaXaXaXaXaXaXaXaXaXaXaXaX= +.).+X|.Q.#.M j j g b ;./.%X#X$X7X7X9X9X9X3X+X!.:.} k aXaXaXaXaXaXaXaXaXaXaXaXaXaXaXaXaXaXaXaXaXaXaXaXaXaXaXaXaXaXaXaXaXaXaXaXaXaXaX",
"aXaXaXaXaXaXaXaXaXaXaXaX@.W.|.C.o.n z n n n } >.[.+X_.X.8 k ;. X(.E.;.} aXaXaXaXaXaXaXaXaXaXaXaXaXaXaXaXaXaXaXaXaXaXaXaXaXaXaXaXaXaXaXaXaXaXaXaXaXaXaXaXaXaXaXaX",
"aXaXaXaXaXaXaXaXaXaX .4.).'.'.Q.2.n.W.)./.).(.(.4.n # X   o #. X|.;.aXaXaXaXaXaXaXaXaXaXaXaXaXaXaXaXaXaXaXaXaXaXaXaXaXaXaXaXaXaXaXaXaXaXaXaXaXaXaXaXaXaXaXaXaXaX",
"aXaXaXaXaXaXaXaX .2.Q.W.E.E.n.n.4.2.>.@.X.Y v a & X X . m  X7X#X{...aXaXaXaXaXaXaXaXaXaXaXaXaXaXaXaXaXaXaXaXaXaXaXaXaXaXaXaXaXaXaXaXaXaXaXaXaXaXaXaXaXaXaXaXaXaX",
"aXaXaXaXaXaXo k } } O.;.2.E.|.;.- 8 ; * @ + . . . . z /.3X|.^.*X^.aXaXaXaXaXaXaXaXaXaXaXaXaXaXaXaXaXaXaXaXaXaXaXaXaXaXaXaXaXaXaXaXaXaXaXaXaXaXaXaXaXaXaXaXaXaXaX",
"aXaXaXaXaXE.|.+X$X7X8X8X8X8X7XQ.= = % @ + . . . a 3.@X|.H.{.:X^.aXaXaXaXaXaXaXaXaXaXaXaXaXaXaXaXaXaXaXaXaXaXaXaXaXaXaXaXaXaXaXaXaXaXaXaXaXaXaXaXaXaXaXaXaXaXaXaX",
"aXaXaXaXaXQ. X/.n.3.>.@.#.#.#.#.=.;.C - . . #  .(.).4.^.:X*XaXaXaXaXaXaXaXaXaXaXaXaXaXaXaXaXaXaXaXaXaXaXaXaXaXaXaXaXaXaXaXaXaXaXaXaXaXaXaXaXaXaXaXaXaXaXaXaXaXaX",
"aXaXaXaXO j } O.=.;.>.2.n.W./.(. X+X+X).>.} Y ;.H..XqX4XOXaXaXaXaXaXaXaXaXaXaXaXaXaXaXaXaXaXaXaXaXaXaXaXaXaXaXaXaXaXaXaXaXaXaXaXaXaXaXaXaXaXaXaXaXaXaXaXaXaXaXaX",
"aXaXaXaXaXaXaXm O.2.Q./.|.+X+X+X+X$X<X%X<X6X6X5X0X5X=XaXaXaXaXaXaXaXaXaXaXaXaXaXaXaXaXaXaXaXaXaXaXaXaXaXaXaXaXaXaXaXaXaXaXaXaXaXaXaXaXaXaXaXaXaXaXaXaXaXaXaXaXaX",
"aXaXaXaXaXaXaXaXaXaXaX@. X<X1X6X1X4X0X0XqXqX4X6XoX).aXaXaXaXaXaXaXaXaXaXaXaXaXaXaXaXaXaXaXaXaXaXaXaXaXaXaXaXaXaXaXaXaXaXaXaXaXaXaXaXaXaXaXaXaXaXaXaXaXaXaXaXaXaX",
"aXaXaXaXaXaXaXaXaXaXaX-.>X>X,XqXpX;X-X=X<X+X`.n.aXaXaXaXaXaXaXaXaXaXaXaXaXaXaXaXaXaXaXaXaXaXaXaXaXaXaXaXaXaXaXaXaXaXaXaXaXaXaXaXaXaXaXaXaXaXaXaXaXaXaXaXaXaXaXaX",
"aXaXaXaXaXaXaXaXaXaX#..X#XoX.XoX@X+X+X X|.Q.aXaXaXaXaXaXaXaXaXaXaXaXaXaXaXaXaXaXaXaXaXaXaXaXaXaXaXaXaXaXaXaXaXaXaXaXaXaXaXaXaXaXaXaXaXaXaXaXaXaXaXaXaXaXaXaXaXaX",
"aXaXaXaXaXaXaXaXaXn.+X#X+X X X X.X X(.4.aXaXaXaXaXaXaXaXaXaXaXaXaXaXaXaXaXaXaXaXaXaXaXaXaXaXaXaXaXaXaXaXaXaXaXaXaXaXaXaXaXaXaXaXaXaXaXaXaXaXaXaXaXaXaXaXaXaXaXaX",
"aXaXaXaXaXaXaX2.(.+X+X@X+X+X X(.E.;.aXaXaXaXaXaXaXaXaXaXaXaXaXaXaXaXaXaXaXaXaXaXaXaXaXaXaXaXaXaXaXaXaXaXaXaXaXaXaXaXaXaXaXaXaXaXaXaXaXaXaXaXaXaXaXaXaXaXaXaXaXaX",
"aXaXaXaXaXaX3.|.+X+X+X X|./.3.aXaXaXaXaXaXaXaXaXaXaXaXaXaXaXaXaXaXaXaXaXaXaXaXaXaXaXaXaXaXaXaXaXaXaXaXaXaXaXaXaXaXaXaXaXaXaXaXaXaXaXaXaXaXaXaXaXaXaXaXaXaXaXaXaX",
"aXaXaXaXm n.(.(./._.E.aXaXaXaXaXaXaXaXaXaXaXaXaXaXaXaXaXaXaXaXaXaXaXaXaXaXaXaXaXaXaXaXaXaXaXaXaXaXaXaXaXaXaXaXaXaXaXaXaXaXaXaXaXaXaXaXaXaXaXaXaXaXaXaXaXaXaXaXaX",
"aXaX  o M } C aXaXaXaXaXaXaXaXaXaXaXaXaXaXaXaXaXaXaXaXaXaXaXaXaXaXaXaXaXaXaXaXaXaXaXaXaXaXaXaXaXaXaXaXaXaXaXaXaXaXaXaXaXaXaXaXaXaXaXaXaXaXaXaXaXaXaXaXaXaXaXaXaX",
"aXaXaXaXaXaXaXaXaXaXaXaXaXaXaXaXaXaXaXaXaXaXaXaXaXaXaXaXaXaXaXaXaXaXaXaXaXaXaXaXaXaXaXaXaXaXaXaXaXaXaXaXaXaXaXaXaXaXaXaXaXaXaXaXaXaXaXaXaXaXaXaXaXaXaXaXaXaXaXaX"
};
