/* XPM */
static char *result[] = {
/* columns rows colors chars-per-pixel */
"80 80 213 2 ",
"   c #040505",
".  c #04060A",
"X  c #06080D",
"o  c #0A0B0C",
"O  c #080709",
"+  c #040611",
"@  c #060A13",
"#  c #0B0D13",
"$  c #060B1C",
"%  c #0A0D19",
"&  c #0F1014",
"*  c #0E111B",
"=  c #121314",
"-  c #13151A",
";  c #17181D",
":  c #1B1B1D",
">  c #070B24",
",  c #0A0D24",
"<  c #060A2C",
"1  c #0A0E2B",
"2  c #0E1123",
"3  c #0D112B",
"4  c #131523",
"5  c #161923",
"6  c #1C1D22",
"7  c #16192C",
"8  c #1A1D2B",
"9  c #121629",
"0  c #0A0E35",
"q  c #080D36",
"w  c #0D1234",
"e  c #0E123C",
"r  c #121634",
"t  c #151835",
"y  c #1B1E33",
"u  c #12163C",
"i  c #15193B",
"p  c #181C3C",
"a  c #1E2023",
"s  c #1E212D",
"d  c #1E2133",
"f  c #1E213B",
"g  c #222324",
"h  c #24262A",
"j  c #27282C",
"k  c #2B2B2D",
"l  c #222533",
"z  c #2D2E31",
"x  c #22253B",
"c  c #25293E",
"v  c #272A38",
"b  c #2F3032",
"n  c #323334",
"m  c #353639",
"M  c #3B3C3D",
"N  c #37383A",
"B  c #090F48",
"V  c #0D1242",
"C  c #0C124B",
"Z  c #111641",
"A  c #1B1F43",
"S  c #171B48",
"D  c #141A57",
"F  c #090F50",
"G  c #1E2344",
"H  c #1D224C",
"J  c #1C2153",
"K  c #1F255C",
"L  c #212544",
"P  c #252942",
"I  c #2A2F4D",
"U  c #24294A",
"Y  c #2B304B",
"T  c #393B46",
"R  c #252A52",
"E  c #252B59",
"W  c #2C335D",
"Q  c #2B3255",
"!  c #393D55",
"~  c #363B57",
"^  c #181F71",
"/  c #1D267C",
"(  c #252C66",
")  c #2D3564",
"_  c #2D356B",
"`  c #353C63",
"'  c #343C6B",
"]  c #353C63",
"[  c #212975",
"{  c #2E3878",
"}  c #333B70",
"|  c #323C7C",
" . c #3E4244",
".. c #3A405C",
"X. c #3A4169",
"o. c #394375",
"O. c #444444",
"+. c #44464B",
"@. c #4B4C4C",
"#. c #47494B",
"$. c #4C4D51",
"%. c #4E5152",
"&. c #4A5053",
"*. c #545454",
"=. c #55565B",
"-. c #5B5B5B",
";. c #57595A",
":. c #454963",
">. c #5D5E62",
",. c #555964",
"<. c #444C76",
"1. c #4B5279",
"2. c #5E6162",
"3. c #5C656C",
"4. c #5E647E",
"5. c #636364",
"6. c #66666A",
"7. c #6B6C6C",
"8. c #66686E",
"9. c #6E6F73",
"0. c #646876",
"q. c #68777A",
"w. c #747474",
"e. c #7B7B7C",
"r. c #767779",
"t. c #80807F",
"y. c #2C3680",
"u. c #3D4B9F",
"i. c #246CA8",
"p. c #4A578A",
"a. c #4D5C95",
"s. c #6B7785",
"d. c #767A85",
"f. c #727F9F",
"g. c #5A6FA2",
"h. c #536293",
"j. c #586EC7",
"k. c #2C96BC",
"l. c #568486",
"z. c #6D8589",
"x. c #7E8182",
"c. c #738386",
"v. c #789398",
"b. c #4796A7",
"n. c #778FA5",
"m. c #2B9BC0",
"M. c #7288C7",
"N. c #4AD4DE",
"B. c #51D4DA",
"V. c #53E4EC",
"C. c #838384",
"Z. c #8B8B8B",
"A. c #888887",
"S. c #8E8F91",
"D. c #858D97",
"F. c #8E9292",
"G. c #879799",
"H. c #949494",
"J. c #95969A",
"K. c #9B9B9C",
"L. c #979898",
"P. c #8F908E",
"I. c #9FA09F",
"U. c #A0A09F",
"Y. c #8B99A3",
"T. c #9093A2",
"R. c #89A3A6",
"E. c #9CA4A9",
"W. c #84AAB1",
"Q. c #9AB3B4",
"!. c #96A7B7",
"~. c #A4A4A4",
"^. c #ABABAB",
"/. c #A4A9AB",
"(. c #ACAEB1",
"). c #AAACBC",
"_. c #ACB2B2",
"`. c #B4B4B4",
"'. c #B6B6B9",
"]. c #B4BABB",
"[. c #BBBBBB",
"{. c #B8B7B7",
"}. c #C0BFBF",
"|. c #C0C0BF",
" X c #B9B9C0",
".X c #BDC4C4",
"XX c #B7C5C7",
"oX c #B7D3D5",
"OX c #ADCDCE",
"+X c #B6DDE3",
"@X c #BEE1E4",
"#X c #C3C3C3",
"$X c #C4CCCC",
"%X c #CCCCCC",
"&X c #C8C7C7",
"*X c #C4D1D1",
"=X c #C9D3D3",
"-X c #C5DCDC",
";X c #CCDCDC",
":X c #D3D3D3",
">X c #DCDCDC",
",X c #D7D8D8",
"<X c #C3DFE0",
"1X c #CCE4E4",
"2X c #C8E4E4",
"3X c #D7E4E5",
"4X c #E4E4E4",
"5X c #ECECEC",
"6X c #E1EFEF",
"7X c #E6F2F2",
"8X c #F4F4F4",
"9X c #FCFCFC",
"0X c None",
/* pixels */
"0X0X0X0X0X0X0X0X0X0X0X0X0X0X0X0X0X0X0X0X0X0X0X0X0X0X0X0X0X0X0X0X0X0X0X0X0X0X0X0X0X0X0X0X0X0X0X0X0X0X0X0X0X0X0X0X0X0X0X0X0X0X0X0X0X0X0X0X0X0X0X0X0X0X0X0X0X0X0X0X",
"0X0X0X0X0X0X0X0X0X0X0X0X0X0X0X0X0X0X0X0X0X0X0X0X0X0X0X0X0X0X0X0X0X0X0XO 0X0X0X0X0X0X0X0XO 0X0X0X0X0X0X0X0X0X0X0X0X0X0X0X0X0X0X0X0X0X0X0X0X0X0X0X0X0X0X0X0X0X0X0X",
"0X0X0X0X0X0X0X0X0X0X0X0X0X0X0X0X0X0X0X0X0X0X0X0X0X0X0X0X0X0X0X0X0X0X0XO 0X0X0X0X0X0X0X0XO 0X0X0X0X0X0X0X0X0X0X0X0X0X0X0X0X0X0X0X0X0X0X0X0X0X0X0X0X0X0X0X0X0X0X0X",
"0X0X0X0X0X0X0X0X0X0X0X0X0X0X0X0X0X0X0X0X0X0X0X0X0X0X0X0X0X0X0X0X0X0Xg o 0X0X0X0X0X0X0X0Xo g 0X0X0X0X0X0X0X0X0X0X0X0X0X0X0X0X0X0X0X0X0X0X0X0X0X0X0X0X0X0X0X0X0X0X",
"0X0X0X0X0X0X0X0X0X0X0X0X0X0X0X0X0X0X0X0X0X0X0X0X0X0X0X0X0X0X0X0X0X;.b 0X0X0X0X0X0X0X0X0X0Xk -.0X0X0X0X0X0X0X0X0X0X0X0X0X0X0X0X0X0X0X0X0X0X0X0X0X0X0X0X0X0X0X0X0X",
"0X0X0X0X0X0X0X0X0X0X0X0X0X0X0X0X0X0X0X0X0X0X0X0X0X0X0X0X0X0X0X0Xr.7.: 0X0X0X0X0X0X0X0X0X0X= 6.e.0X0X0X0X0X0X0X0X0X0X0X0X0X0X0X0X0X0X0X0X0X0X0X0X0X0X0X0X0X0X0X0X",
"0X0X0X0X0X0X0X0X0X0X0X0X0X0X0X0X0X0X0X0X0X0X0X0X0X0X0X0X0X0X0Xw.P.@.o 0X0X0X0X0X0X0X0X0X0X0XO.Z.e.0X0X0X0X0X0X0X0X0X0X0X0X0X0X0X0X0X0X0X0X0X0X0X0X0X0X0X0X0X0X0X",
"0X0X0X0X0X0X0X0X0X0X0X0X0X0X0X0X0X0X0X0X0X0X0X0X0X0X0X0X0X0X0XH.e.k 0X0X0X0X0X0X0X0X0X0X0X0Xk r.H.0X0X0X0X0X0X0X0X0X0X0X0X0X0X0X0X0X0X0X0X0X0X0X0X0X0X0X0X0X0X0X",
"0X0X0X0X0X0X0X0X0X0X0X0X0X0X0X0X0X0X0X0X0X0X0X0X0X0X0X0X0X0XP.H.;.= 0X0X0X0X0X0X0X0X0X0X0X0X= *.H.F.0X0X0X0X0X0X0X0X0X0X0X0X0X0X0X0X0X0X0X0X0X0X0X0X0X0X0X0X0X0X",
"0X0X0X0X0X0X0X0X0X0X0X0X0X0X0X0X0X0X0X0X0X0X0X0X0X0X0X0X0X0X^.C.M 0X0X0X0X0X0X0X0X0X0X0X0X0X0XM t.`.0X0X0X0X0X0X0X0X0X0X0X0X0X0X0X0X0X0X0X0X0X0X0X0X0X0X0X0X0X0X",
"0X0X0X0X0X0X0X0X0X0X0X0X0X0X0X0X0X0X0X0X0X0X0X0X0X0X0X0X0X^.`.w.k 0X0X0X0X0X0X0X0X0X0X0X0X0X0Xg w.^.^.0X0X0X0X0X0X0X0X0X0X0X0X0X0X0X0X0X0X0X0X0X0X0X0X0X0X0X0X0X",
"0X0X0X0X0X0X0X0X0X0X0X0X0X0X0X0X0X0X0X0X0X0X0X0X0X0X0X0X0X~.~.6.: 0X0X0X0X0X0X0X0X0X0X0X0X0X0X: 5.~.~.0X0X0X0X0X0X0X0X0X0X0X0X0X0X0X0X0X0X0X0X0X0X0X0X0X0X0X0X0X",
"0X0X0X0X0X0X0X0X0X0X0X0X0X0X0X0X0X0X0X0X0X0X0X0X0X0X0X0XU.P.A.-.0X0X0X0X0X0X0X0Xw.0X0X0X0X0X0X0X*.A.Z.~.0X0X0X0X0X0X0X0X0X0X0X0X0X0X0X0X0X0X0X0X0X0X0X0X0X0X0X0X",
"0X0X0X0X0X0X0X0X0X0X0X0X0X0X0X0X0X0X0X0X0X0X0X0X0X0X0X0X}.U.7.*.0X0X0X0X0X0X0Xr.C.5.0X0X0X0X0X0X*.7.K.#XC.0X0X0X0X0X0X0X0X0X0X0X0X0X0X0X0X0X0X0X0X0X0X0X0X0X0X0X",
"0X0X0X0X0X0X0X0X0X0X0X0X0X0X0X0X0X0X0X0X0X0X0X0X0X0X0X~.%XH.5.m 0X0X0X0X0X0XM r.e.M 0X0X0X0X0X0Xn 5.P.%X^.0X0X0X0X0X0X0X0X0X0X0X0X0X0X0X0X0X0X0X0X0X0X0X0X0X0X0X",
"0X0X0X0X0X0X0X0X0X0X0X0X0X0X0X0X0X0X0X0X0X0X0X0X0X0X0X#X%XP.-.k 0X0X0X0X0X0XM w.9.O.0X0X0X0X0X0Xj -.A.&X&X0X0X0X0X0X0X0X0X0X0X0X0X0X0X0X0X0X0X0X0X0X0X0X0X0X0X0X",
"0X0X0X0X0X0X0X0X0X0X0X0X0X0X0X0X0X0X0X0X0X0X0X0X0X0XH.%X[.A.*.0X0X0X0X0X0Xk *.H.H.*.z 0X0X0X0X0X0X%.A.{.%XK.0X0X0X0X0X0X0X0X0X0X0X0X0X0X0X0X0X0X0X0X0X0X0X0X0X0X",
"0X0X0X0X0X0X0X0X0X0X0X0X0X0X0X0X0X0X0X0X0X0X0X0X0X0X#X%X~.A.%.0X0X0X0X0X0XO.5.`.|.6.O.0X0X0X0X0X0X@.C.~.%X&X0X0X0X0X0X0X0X0X0X0X0X0X0X0X0X0X0X0X0X0X0X0X0X0X0X0X",
"0X0X0X0X0X0X0X0X0X0X0X0X0X0X0X0X0X0X0X0X0X0X0X0X0X*.:X%XK.r.#.0X0X0X0X0X0X-.e.^.{.e.5.0X0X0X0X0X0XO.w.L.&X,X-.0X0X0X0X0X0X0X0X0X0X0X0X0X0X0X0X0X0X0X0X0X0X0X0X0X",
"0X0X0X0X0X0X0X0X0X0X0X0X0X0X0X0X0X0X0X0X0X0X0X0X0Xe.K.&XH.w.n 0X0X0X0X0X0Xr.Z.U.~.A.e.0X0X0X0X0X0Xn 7.H.&X~.r.0X0X0X0X0X0X0X0X0X0X0X0X0X0X0X0X0X0X0X0X0X0X0X0X0X",
"0X0X0X0X0X0X0X0X0X0X0X0X0X0X0X0X0X0X0X0X0X0X0X0X7.:Xt.~.H.7.g 0X0X0X0X0Xg P.K.t.t.L.H.k 0X0X0X0X0Xg 6.H.~.e.%Xw.0X0X0X0X0X0X0X0X0X0X0X0X0X0X0X0X0X0X0X0X0X0X0X0X",
"0X0X0X0X0X0X0X0X0X0X0X0X0X0X0X0X0X0X0X0X0X0X0X0XK.4X{.7.Z.6.5 0X0X0X0X0X: Z.~.l.l.U.P.g 0X0X0X0X0X; 5.A.7.`.4X^.0X0X0X0X0X0X0X0X0X0X0X0X0X0X0X0X0X0X0X0X0X0X0X0X",
"0X0X0X0X0X0X0X0X0X0X0X0X0X0X0X0X0X0X0X0X0X0X0X*.#X4X%XC.2.5.4 0X0X0X0X0Xg P.v.B.B.v.H.k 0X0X0X0X0X4 -.5.e.&X>X&X*.0X0X0X0X0X0X0X0X0X0X0X0X0X0X0X0X0X0X0X0X0X0X0X",
"0X0X0X0X0X0X0X0X0X0X0X0X0X0X0X0X0X0X0X0X0X0X0XA.:X,X&XK.7.@.- 0X0X0X0X0Xg 7.b.V.V.b.w.g 0X0X0X0X0X- #.7.K.&X,X,XH.0X0X0X0X0X0X0X0X0X0X0X0X0X0X0X0X0X0X0X0X0X0X0X",
"0X0X0X0X0X0X0X0X0X0X0X0X0X0X0X0X0X0X0X0X0X0X#.#X>X%X[.K.w.O.V 0X0X0X0X: w.D.k.N.N.m.D.e.a 0X0X0X0XB T w.K.[.%X>X&X*.0X0X0X0X0X0X0X0X0X0X0X0X0X0X0X0X0X0X0X0X0X0X",
"0X0X0X0X0X0X0X0X0X0X0X0X0X0X0X0X0X0X0X0X0X0XC.4X4X&X^.K.w.! F 0X0X0X0Xk Z.d.i.W.W.i.s.Z.n 0X0X0X0XB ~ w.L.^.&X>X4XA.0X0X0X0X0X0X0X0X0X0X0X0X0X0X0X0X0X0X0X0X0X0X",
"0X0X0X0X0X0X0X0X0X0X0X0X0X0X0X0X0X0X0X0X0X0X[.4X4X%X~.H.w.m $ 0X0X0X0XO.P.1.p.&X&Xh.<.H.#.0X0X0X0X$ z w.S.~.%X4X5X#X0X0X0X0X0X0X0X0X0X0X0X0X0X0X0X0X0X0X0X0X0X0X",
"0X0X0X0X0X0X0X0X0X0X0X0X0X0X0X0X0X0X0X0X0Xw.:X5X>X&X^.A.7.h B V 0X0X0X*.K.X.T.:X:XT.:.L.*.0X0X0X0XB a 7.A.^.&X>X4X,Xr.0X0X0X0X0X0X0X0X0X0X0X0X0X0X0X0X0X0X0X0X0X",
"0X0X0X0X0X0X0X0X0X0X0X0X0X0X0X0X0X0X0X0X0X^.:XK.,.&.t.*.z u C @ 0X0X0X-.K.:.(.:X:X`.:.L.5.0X0X0XX B u z $.C.:.=.J.:X^.0X0X0X0X0X0X0X0X0X0X0X0X0X0X0X0X0X0X0X0X0X",
"0X0X0X0X0X0X0X0X0X0X0X0X0X0X0X0X0X0X0X0X0Xr.>.5 0 t s D 7 D 1 < 0X0Xo 6.H.=.'.e.e.{.,.Z.9.# 0X0X< 3 D 7 D s 8 w ; >.e.0X0X0X0X0X0X0X0X0X0X0X0X0X0X0X0X0X0X0X0X0X",
"0X0X0X0X0X0X0X0X0X0X0X0X0X0X0X0X0X0X0X0X0X0X@ 2 u 5 y R p u e q 0X0X= 9.A.9.L.;.;.P.e.C.e.= 0X0X< V w p R f ; u , + 0X0X0X0X0X0X0X0X0X0X0X0X0X0X0X0X0X0X0X0X0X0X",
"0X0X0X0X0X0X0X0X0X0X0X0X0X0X0X0X0X0X0X0X6.Z.e.c P O.6.w.#.4 C $ o 0X: r.Z.K.7.K.^.5.K.A.t.: 0XX $ C 2 #.9.6.+.P c r.H.7.0X0X0X0X0X0X0X0X0X0X0X0X0X0X0X0X0X0X0X0X",
"0X0X0X0X0X0X0X0X0X0X0X0X0X0X0X0X0X0X0X5.^.>X4X[.`.'.I.e.*.u e 1 @   k t.K.{.@.#X,X@.}.U.C.n   . 1 r u @.w.U.{.`.[.4X,X`.6.0X0X0X0X0X0X0X0X0X0X0X0X0X0X0X0X0X0X0X",
"0X0X0X0X0X0X0X0X0X0X0X0X0X0X0X0X0X0X0XZ.:X:X,X,X:X|.K.9.@.5 2 3 @   M A.~.^.M 4X4XO.U.~.C.O.  @ 1 9 9 @.7.L.|.:X,X,X:X:XH.0X0X0X0X0X0X0X0X0X0X0X0X0X0X0X0X0X0X0X",
"0X0X0X0X0X0X0X0X0X0X0X0X0X0X0X0X0X0X0XK.%X:X:X#X{.`.H.7.#.= t 4 X X @.A.^.H.O.8X5XO.P.^.Z.@.O o 2 i & O.7.H.`.[.}.:X:X%XK.0X0X0X0X0X0X0X0X0X0X0X0X0X0X0X0X0X0X0X",
"0X0X0X0X0X0X0X0X0X0X0X0X0X0X0X0X0X0X0X.X,X%X#X X'.~.A.5.n = H ; - o *.C.^.Z.O.5X8X@.C.^.C.-.= = - H = b >.C.~.`. X#X%X,X$X%.0X0X0X0X0X0X0X0X0X0X0X0X0X0X0X0X0X0X",
"0X0X0X0X0X0X0X0X0X0X0X0X0X0X0X0X0X0X;.1X7X5X:X(._.^.e.*.: s R g ; = >.t.^.P.O.4X8X*.C.^.t.5.: = g R l = *.t.^.`.`.=X5X7X1X2.0X0X0X0X0X0X0X0X0X0X0X0X0X0X0X0X0X0X",
"0X0X0X0X0X0X0X0X0X0X0X0X0X0X0X0X0X0X7.%X4X7X6X=X`.H.e.#.= I H k = : 5.t.~.H.@.5X5X@.Z.^.t.5.: = k G I = O.r.H.^.%X6X7X4X:Xw.0X0X0X0X0X0X0X0X0X0X0X0X0X0X0X0X0X0X",
"0X0X0X0X0X0X0X0X0X0X0X0X0X0X0X0X0X0XA.,X>X>X;X1XoXE.w.M = W P n o : 5.t.~.K.@.8X5X@.H.^.C.7.: o n c W = M w.E.oX1X=X,X>X,XP.0X0X0X0X0X0X0X0X0X0X0X0X0X0X0X0X0X0X",
"0X0X0X0X0X0X0X0X0X0X0X0X0X0X0X0X0Xj ~.:X>X>X&X[. X!.n. .: X.v n o : 5.t.~.^.*.4X8X-.~.~.t.5.g O b v o.: T f.!. X[.&X>X>X:X^.b 0X0X0X0X0X0X0X0X0X0X0X0X0X0X0X0X0X",
"0X0X0X0X0X0X0X0X0X0X0X0X0X0X0X0X0XO.[.%X,X>X#X`.^.H.8.b 6 <.v z   g -.e.U.{.7.4X5Xw.(.~.e.5.g   k l <.g z 6.H.^.`.#X>X:X:X}.#.0X0X0X0X0X0X0X0X0X0X0X0X0X0X0X0X0X",
"0X0X0X0X0X0X0X0X0X0X0X0X0X0X0X0X0X5.%X:X:XU.9.`.~.H.6.j h 1.n :   k -.w.L.{.Z.4X4XA.{.K.w.5.b   : z p.j g 5.H.~.`.w.K.=X:X%X7.0X0X0X0X0X0X0X0X0X0X0X0X0X0X0X0X0X",
"0X0X0X0X0X0X0X0X0X0X0X0X0X0X0X0X0XA.%X,X`.v ;.[.~.A.w.O.j I h O   k 5.w.P.`.K.5X4XK.`.H.w.5.n   O h Y z M w.A.K.[.2.l (.,X:XS.0X0X0X0X0X0X0X0X0X0X0X0X0X0X0X0X0X",
"0X0X0X0X0X0X0X0X0X0X0X0X0X0X0X0X0X^.,X:X>.0 8.#XZ.H.r.+.(.`.w.N   n 5.w.P.(.~.>X5X^.^.P.w.5.n O n w.~.(.+.r.S.Z.#X9.w =.%X,X`.0X0X0X0X0X0X0X0X0X0X0X0X0X0X0X0X0X",
"0X0X0X0X0X0X0X0X0X0X0X0X0X0X0X0XO.}.>XE.y 3 8.{.L.P.4.u.).9X9X4Xw.N 5.w.A.^.^.4X5X^.^.Z.w.5.N 9.4X8X9X'.a.h.A.K.{.9.3 8 K.,X&X@.0X0X0X0X0X0X0X0X0X0X0X0X0X0X0X0X",
"0X0X0X0X0X0X0X0X0X0X0X0X0X0X0X0X5.:X:X>.r - ;.~./.d.j.o.t.5X8X9X5X7.#.w.C.~.~.4X>X~.~.A.r.@.6.5X8X8X9XS.} j.d.~.^.>.- r ,.:X:X6.0X0X0X0X0X0X0X0X0X0X0X0X0X0X0X0X",
"0X0X0X0X0X0X0X0X0X0X0X0X0X0X&.7.C.:X XT t 5 b K.K.M.a.m *.4X8X9X5X6.8 -.C.K.U.:X,XU.K.C.-.8 3.5X8X8X5X-.n p.M.J.K.n ; i P '.,XA.7.&.0X0X0X0X0X0X0X0X0X0X0X0X0X0X",
"0X0X0X0X0X0X0X0X0X0X0X0X0XG.).K.L.:XJ.G y y j H.d.g.+.b b [.9X5XA.Y E 8 7.H.H.}.%XL.L.7.g E I t.8X9X'.n b +.g.d.L.z y d A S.,XK.U.Q.Y.0X0X0X0X0X0X0X0X0X0X0X0X0X",
"0X0X0X0X0X0X0X0X0X0X0X0XG.OX(.^.~.,X9.S s f a L.3.h #.b k 5.[.0.! ~ ` L k t.Z.'.[.Z.C.k G ' ! ! 0.{.9.k n O.j ,.K.a f s A 8.:X/.^.`.OXG.0X0X0X0X0X0X0X0X0X0X0X0X",
"0X0X0X0X0X0X0X0X0X0X0X0XOXG.#X5.-.:X-.e s l s Y.n.& M n n n g a ' T X.) a M r.x.x.w.O.6 ) X.T } l a n n n M & v.R.s f s e %.:X5.;.:XD.OX0X0X0X0X0X0X0X0X0X0X0X0X",
"0X0X0X0X0X0X0X0X0X0X0XOXQ.~.{.& g [.-.> p j 6 v.v.o j n b n a - R X...X.U = M : : M = P ' ..` Q - a n z n k X c.n.a j d 3 *.|.k o ^.~.Q.OX0X0X0X0X0X0X0X0X0X0X0X",
"0X0X0X0X0X0X0X0X0X0XXXoXx.,X@.  5 `.w.* u h a z.c.o = b k b b & 8 } ..X.W 5   o X O ; W X.~ } s = b n k n - X w.v.g j i % 6.[.a   T %Xx.oXXX0X0X0X0X0X0X0X0X0X0X",
"0X0X0X0X0X0X0X0X0X0X<XR.U.U.o X  .|.:.* w d a s.2.&   h k k n k & R X...' d . O X O s ` ~ ` W = g m k k h O & ;.z.g y r * :.[.$.X O H.~.G.1X0X0X0X0X0X0X0X0X0X0X",
"0X0X0X0X0X0X0X0X0X.X1Xr.&Xm . & A.I.P s - t a 8.@.:   : k j b M a s } ~ X.L o O O . P X.X.} s 6 M k k k ; O 5 O.0.6 t - 7 L H.F.& X z [.w.-X&X0X0X0X0X0X0X0X0X0X",
"0X0X0X0X0X0X0X0X0X;X].A.x.. X z _.7.f P = 4 7 q. .s # & z k k N #.: W ' ] Q &     & Q ` ' W ; #.M k k z = # g M c.5 4 = c P 5.`.N X . e.L.Q.1XK.0X0X0X0X0X0X0X0X",
"0X0X0X0X0X0X0X0X`.1Xx.H.g . @ w.~.m v I : & a v.k j 5 @ k b b N ;.N f | ] ) =     = ) ) | x n -.N n n k # 4 l j v.s & : Y l b ~.r.%   g K.e.1X`.0X0X0X0X0X0X0X0X",
"0X0X0X0X0X0X0Xt.$X;X6.@.. . 5 H.w.s h I h # M z.: d A X : n b N #.-.a } } ) 5     ; _ } { a ;.@.N n n : . A l : q. .o h I h a 9.K.6 O . +.6.-X*XA.0X0X0X0X0X0X0X",
"0X0X0X0X0X0X0XK.;X-X#.@ . . j K.$.h h l l O.F.$.5 f p o & k k n M -.b U | _ 7 . . 5 ) | I j 2.M n b k & X p f 5 #.L.#.l l j j #.K.z . . @ M *X;XK.0X0X0X0X0X0X0X",
"0X0X0X0X0X0XZ.`.2X=X@.. X + m L.M j b -.H.`.K.a - G r @ O k n N M *.#.s y.( 7 . . 9 ( y.s #.*.M N n b O @ 9 G * : L.].L.>.z k m L.T X . . O.$X2X`.Z.0X0X0X0X0X0X",
"0X0X0X0X0X0XE.#X2X#Xw.X + @ +.L.M n Z.%X&X[.Z.- # V * X   g n b N #.*.g ( [ t X X r [ ( a *.#.m b n a   @ 2 Z % & A.`.#X%XF.m m L.$.@ X . 7.$X2X#X~.0X0X0X0X0X0X",
"0X0X0X0X0Xr.^..X1X|.K.: @ * *.K.M %.#X%X|.(.L.z X q $ + . & b = ; m @.n f / i @ @ i / G b %.N : = b = O @ % q + h H.(.[.%X#X;.m L.-.* % - K.#X1X.X^.e.0X0X0X0X0X",
"0X0X0X0X0XK.^.XX1X|.`.#.* * 5.P.n e.#X#XK.H.H.5.* < @ $ > . b ; 0X: O.n 5 ^ Z @ @ u ^ 4 b #.: 0X= n O > $ @ < % 2.H.H.K.#X&XA.b Z.7.- % O.^.}.1XoX^.K.0X0X0X0X0X",
"0X0X0X0X0X^.`.oX;X#X`.7.* ; 7.C.m ~.|.x.j h @.r. .X @ > > O b ; 0X0Xn k o e < .   > e & g n & 0X= n O > > @ O M r.%.h j r.[.~.m e.w.5 = 5.`.#X-XoX`.^.7.0X0X0X0X",
"0X0X0X0Xt.^.`.<X*X'.(.6.& - w.t.@._.t.z : & & O.5.: . > > O b g 0X0X: n .   O 0X0X  O O b : 0X0X: b O > > O = 5.@.& * : k e.`.%.e.r.- = >.^.`.*X;X{.^.A.0X0X0X0X",
"0X0X0X0XK.^.^.2X*X`.~.;.0X= w.Z.e.K.T x G r 2 # %.O.  > > . j g 0X0Xo n : 0X0X0X0X0X0X: n & 0X0Xg z X > >   O.*.* , r p L m J.e.A.e.5.A.-.U.`.$X2X_./.K.0X0X0X0X",
"0X0X0Xe.^.^.^.oX$X`.L.@.0X0Xe.U.~.=.G P y u V V s ;.g $ > @ g n 0X0XO j g 0X0X0X0X0X0X: j O 0X0Xk j + , $ a ;.s V Z r f L L *.~.I.t.~.,X*.H.{.$X@X/.^.^.C.0X0X0X",
"0X0X0XL.`._._.+X#X`.P.@.0X0Xt.K.P.g # x d 7 - 1 0 m ;.j @ # g m 0X0X0Xg g 0X0X0X0X0X0Xg g 0X0X0XN g o @ g ;.M 0 3 * 9 f x * : Z.I.t.C.>X;.Z.`. X+X_.^.`.K.0X0X0X",
"0X0X0XK.[.`.].+X(.^.t.*.0Xk C.K.5.0X. 4 f S u r 4 - #.*.= # g M 0X0X0X: g 0X0X0X0X0X0Xg : 0X0X0XM g = = @.%.- , w u p f 5 . 0X5.J.C.9.>X;.t.^.^.+X].`.[.U.0X0X0X",
"0X0X0X^.[.{./.q.>.H.w.-.0Xk A.t.0X0X0X# S J i r Z 3 g -.N o g M 0X0X0X; : 0X0X0X0X0X0X: : 0X0X0XM g o n ;.g 3 Z r i D R # 0X0X0Xe.Z.5.>X5.w.H.>.q./.'.'.^.0X0X0X",
"0X0XC.^.`._.5.0X0XC.7.6.:XO.A.*.0X0X0X  - x S D t 3 , n *.j k m 0X0X0X0X= 0X0X0X0X0X0X= 0X0X0X0Xn k g *.m 2 3 t D S l -   0X0X0X@.Z.*.>X7.7.C.0X0X-.^.[.`.A.0X0X",
"0X0XH.`.`.A.0X0X0Xw.7.7.,X@.w.0X0X0X0X0X@ D P t S e 0X0XM *.#.g 0X0X0X0XO 0X0X0X0X0X0XO 0X0X0X0X: @.*.O.0X0Xw D y L R % 0X0X0X0X0Xw.@.,Xe.6.w.0X0X0Xe.`.`.H.0X0X",
"0X0XH.`.K.0X0X0X0X;.5.t.:XO.%.0X0X0X0X0X0X5 E E 4 0X0X0X: #.O.o 0X0X0X0X0X0X0X0X0X0X0X0X0X0X0X0Xo M %.: 0X0X0X4 D E 7 0X0X0X0X0X0X@.O.|.t.>.;.0X0X0X0XK.`.L.0X0X",
"0X0XH.^.r.0X0X0X0X0X;.Z.}.k k 0X0X0X0X0X0X0X: r 3 0X0X0X0Xn j 0X0X0X0X0X0X0X0X0X0X0X0X0X0X0X0X0X0Xg N 0X0X0X0X3 t : 0X0X0X0X0X0X0X0Xz `.H.*.O.0X0X0X0Xw.^.L.0X0X",
"0X0XH.A.0X0X0X0X0X0X#.H.^.= 0X0X0X0X0X0X0X0X0X0X0X0X0X0X0X0Xo 0X0X0X0X0X0X0X0X0X0X0X0X0X0X0X0X0X0Xo 0X0X0X0X0X0X0X0X0X0X0X0X0X0X0X0Xo ^.^.O.0X0X0X0X0X0XC.K.O.0X",
"0X#.e.0X0X0X0X0X0X0Xk ~.L.  0X0X0X0X0X0X0X0X0X0X0X0X0X0X0X0X0X0X0X0X0X0X0X0X0X0X0X0X0X0X0X0X0X0X0X0X0X0X0X0X0X0X0X0X0X0X0X0X0X0X0X0X0XA.U.k 0X0X0X0X0X0X0Xt.@.0X",
"0XN O.0X0X0X0X0X0X0X= 0X7.0X0X0X0X0X0X0X0X0X0X0X0X0X0X0X0X0X0X0X0X0X0X0X0X0X0X0X0X0X0X0X0X0X0X0X0X0X0X0X0X0X0X0X0X0X0X0X0X0X0X0X0X0X0X0X0X& 0X0X0X0X0X0X0XM M 0X",
"0X= 0X0X0X0X0X0X0X0X0X0X0X0X0X0X0X0X0X0X0X0X0X0X0X0X0X0X0X0X0X0X0X0X0X0X0X0X0X0X0X0X0X0X0X0X0X0X0X0X0X0X0X0X0X0X0X0X0X0X0X0X0X0X0X0X0X0X0X0X0X0X0X0X0X0X0X0X= 0X",
"0XO 0X0X0X0X0X0X0X0X0X0X0X0X0X0X0X0X0X0X0X0X0X0X0X0X0X0X0X0X0X0X0X0X0X0X0X0X0X0X0X0X0X0X0X0X0X0X0X0X0X0X0X0X0X0X0X0X0X0X0X0X0X0X0X0X0X0X0X0X0X0X0X0X0X0X0X0X  0X",
"0X0X0X0X0X0X0X0X0X0X0X0X0X0X0X0X0X0X0X0X0X0X0X0X0X0X0X0X0X0X0X0X0X0X0X0X0X0X0X0X0X0X0X0X0X0X0X0X0X0X0X0X0X0X0X0X0X0X0X0X0X0X0X0X0X0X0X0X0X0X0X0X0X0X0X0X0X0X0X0X",
"0X0X0X0X0X0X0X0X0X0X0X0X0X0X0X0X0X0X0X0X0X0X0X0X0X0X0X0X0X0X0X0X0X0X0X0X0X0X0X0X0X0X0X0X0X0X0X0X0X0X0X0X0X0X0X0X0X0X0X0X0X0X0X0X0X0X0X0X0X0X0X0X0X0X0X0X0X0X0X0X"
};
