/* XPM */
static char *fd7c24ca8d7c41b3b1ab822f44e357c0[] = {
/* columns rows colors chars-per-pixel */
"70 70 210 2 ",
"   c None",
".  c #040506",
"X  c #04060B",
"o  c #07080B",
"O  c #0B0B0C",
"+  c #080808",
"@  c #040712",
"#  c #060A14",
"$  c #0B0D13",
"%  c #070A1C",
"&  c #0A0D1A",
"*  c #0E111B",
"=  c #0F1013",
"-  c #131315",
";  c #12141B",
":  c #15181D",
">  c #1A1B1C",
",  c #070B23",
"<  c #070C2A",
"1  c #0A0E2B",
"2  c #0A0E22",
"3  c #0E1225",
"4  c #0D112B",
"5  c #111323",
"6  c #171A22",
"7  c #1B1D23",
"8  c #12152B",
"9  c #16192C",
"0  c #1B1E2B",
"q  c #080C37",
"w  c #0E1235",
"e  c #0C113E",
"r  c #121534",
"t  c #151934",
"y  c #1A1D35",
"u  c #11153B",
"i  c #15193B",
"p  c #1A1E3B",
"a  c #1F2024",
"s  c #1F2128",
"d  c #1F2234",
"f  c #1C213C",
"g  c #222324",
"h  c #24252B",
"j  c #27282A",
"k  c #2B2B2C",
"l  c #2F302F",
"z  c #222535",
"x  c #2D2E31",
"c  c #22253A",
"v  c #25283D",
"b  c #292B3A",
"n  c #262937",
"m  c #2E3033",
"M  c #2E313D",
"N  c #323334",
"B  c #353639",
"V  c #36383B",
"C  c #3B3B3C",
"Z  c #0D1243",
"A  c #0A1049",
"S  c #151944",
"D  c #161A4A",
"F  c #161A48",
"G  c #141A54",
"H  c #1E2244",
"J  c #1C214E",
"K  c #1D2257",
"L  c #202441",
"P  c #252A44",
"I  c #292C43",
"U  c #252B4D",
"Y  c #21264C",
"T  c #2E3144",
"R  c #2E334C",
"E  c #3E3F41",
"W  c #33354B",
"Q  c #353848",
"!  c #252B52",
"~  c #232952",
"^  c #2C3253",
"/  c #2B325A",
"(  c #393D53",
")  c #393E5B",
"_  c #373C57",
"`  c #1A2061",
"'  c #2D356D",
"]  c #2F3668",
"[  c #343B65",
"{  c #383F65",
"}  c #323A6B",
"|  c #333A64",
" . c #242C78",
".. c #2C3671",
"X. c #323C77",
"o. c #3F4043",
"O. c #3C405A",
"+. c #3B4161",
"@. c #444444",
"#. c #444549",
"$. c #47484A",
"%. c #4B4B4C",
"&. c #50504F",
"*. c #4D4E50",
"=. c #4B4D5A",
"-. c #4F5055",
";. c #545454",
":. c #54555B",
">. c #5B5B5C",
",. c #5E5F62",
"<. c #555868",
"1. c #565A7A",
"2. c #485473",
"3. c #5B6369",
"4. c #5D6175",
"5. c #646464",
"6. c #65676C",
"7. c #6C6C6C",
"8. c #676867",
"9. c #666A76",
"0. c #6A747B",
"q. c #6A7A7C",
"w. c #677678",
"e. c #747474",
"r. c #7C7C7C",
"t. c #75767A",
"y. c #2C5C96",
"u. c #4E5786",
"i. c #596A98",
"p. c #626B83",
"a. c #777B88",
"s. c #777C96",
"d. c #6D788B",
"f. c #4D5FB5",
"g. c #4E61B5",
"h. c #697EC1",
"j. c #3A8CB0",
"k. c #5D929D",
"l. c #68848B",
"z. c #73868B",
"x. c #748F95",
"c. c #6C80BF",
"v. c #51BDC3",
"b. c #47CBD8",
"n. c #4EDDE6",
"m. c #838484",
"M. c #85868B",
"N. c #848B8B",
"B. c #8C8C8C",
"V. c #908F8F",
"C. c #90908F",
"Z. c #8D8F92",
"A. c #838699",
"S. c #859394",
"D. c #8E9292",
"F. c #8E999A",
"G. c #939393",
"H. c #93969B",
"J. c #93999B",
"K. c #9B9C9C",
"L. c #A09F9F",
"P. c #9E9EA2",
"I. c #8E9FB1",
"U. c #93ABAB",
"Y. c #99A2A3",
"T. c #8CAAB4",
"R. c #98B6BB",
"E. c #90A1B2",
"W. c #A3A3A4",
"Q. c #ABABAB",
"!. c #A7A8A8",
"~. c #ACB3B3",
"^. c #AEBBBB",
"/. c #B5B5B5",
"(. c #B4B4B4",
"). c #B6B6B9",
"_. c #B4BABA",
"`. c #BBBCBC",
"'. c #B8B8B7",
"]. c #B1BFC0",
"[. c #A3BFC0",
"{. c #A4C2C4",
"}. c #ADC4C5",
"|. c #BCC4C4",
" X c #B5C7C9",
".X c #BBD8DA",
"XX c #B6DAE1",
"oX c #C1C1C1",
"OX c #C4C4C4",
"+X c #C3CCCC",
"@X c #CBCBCB",
"#X c #C4D3D3",
"$X c #C4DADB",
"%X c #CDDEDE",
"&X c #C5D7D7",
"*X c #D2D2D2",
"=X c #D5D5D5",
"-X c #D4D4D4",
";X c #DBDBDB",
":X c #D5DFDF",
">X c #CCE2E2",
",X c #C7E2E2",
"<X c #DEE3E3",
"1X c #DAE8E8",
"2X c #E2E2E2",
"3X c #EBEBEA",
"4X c #E4EBEB",
"5X c #EAF3F3",
"6X c #F5F5F5",
"7X c #FBFBFB",
/* pixels */
"                                                                                                                                            ",
"                                                              +             +                                                               ",
"                                                            O                 O                                                             ",
"                                                          C >                 > C                                                           ",
"                                                        7.>.-                 - >.e.                                                        ",
"                                                        B.@.                    C B.                                                        ",
"                                                      B.t.g                     g e.B.                                                      ",
"                                                    B.G.;.                        %.G.B.                                                    ",
"                                                    Q.m.N                         N m.Q.                                                    ",
"                                                  K./.e.g                         g 7./.K.                                                  ",
"                                                  B.K.5.                            5.K.D.                                                  ",
"                                                K.Q.t.>.            7.m.            >.t.Q.W.                                                ",
"                                                oXQ.7.@.          N e.t.C           C 7.!.oX                                                ",
"                                              B.@XW.5.N           N e.7.N           N 5.W.@XG.                                              ",
"                                              /.OXK.>.g           %.G.G.%.            >.K.OX'.                                              ",
"                                            r.-X'.B.>.          N 7.!./.7.N           >.B./.-Xm.                                            ",
"                                            e.*X(.m.%.          %.m.W.!.m.%.          %.r.Q.-Xt.                                            ",
"                                          7.K.K.Q.t.C           5.K.V.G.K.5.          C t.!.K.K.7.                                          ",
"                                          K.;XM.B.t.x           5.!.q.q.W.7.          k t.B.m.;XW.                                          ",
"                                        %.oX;X(.8.7.z         O 8.J.v.v.F.7.-         h 7.5.Q.;XOX;.                                        ",
"                                        m.-X-X'.m.>.7         - ;.k.n.n.k.>.-         7 ;.r./.-X-XB.                                        ",
"                                        `.;X@X(.B.:.S         %.G.j.b.b.j.G.%.        S ;.m.(.@X;XoX                                        ",
"                                      r.2X2XoXW.B.:.Z         5.M.y.T.T.y.M.5.        Z =.m.W.oX2X2Xm.                                      ",
"                                      Q.3X2X@XK.m.%.2         t.0.u.@X@Xu.9.t.>       2 $.m.K.OX2X3X/.                                      ",
"                                    t.@X*XW.H.G.5.x A 1     g m.9.s.-X-XA.4.B.g     1 A x 5.G.K.Y.*X*Xr.                                    ",
"                                    r.K.#.t n W p u Z ,     j B.3.P.Q.!.W.<.G.k     % e u y W b t o.K.m.                                    ",
"                                      * & u 6 J H F w q     k G.6.P.>.;.P.6.G.N     q w S H J 6 u & *                                       ",
"                                    m.t.T P #.6.>.s Z , X   C B.B.m.B.G.r.B.G.    X , Z 0 >.6.$.I I e.M.                                    ",
"                                  B.@X2XOX).(.G.5.b e 1 @ + %.G./.5./.OX5.).G.;.+ X 1 e c 5.C.(.).oX2X*XG.                                  ",
"                                  /.-X-X*X@X'.B.>.j 3 4 @ o >.G./.&.-X;X%.(.K.5.O @ 4 5 h >.B./.@X*X-X-X'.                                  ",
"                                7.OX@X@XoX/.W.m.;.g t 8 $ - 5.K.Q.@.2X;X@.!.K.7.; $ 8 t > ;.m.W./.oX@X@XOX7.                                ",
"                                N.1X<X@X'./.K.t.@.; Y 7 ; > 7.G.Q.@.-X2X@.W.G.e.g - 7 Y ; @.e.K././.@X<X1XS.                                ",
"                                G.<X5X4XOX!.K.7.k 7 ! j - j e.G.!.@.;X2X%.W.G.e.k - j ! 0 j 7.G.!.OX4X5X<XK.                                ",
"                                !.;X;X:X>X XJ.5.g c ! k O k e.G.Q.;.2X;X%.!.G.e.N O k ! v g 5.H. X>X>X;X;XQ.                                ",
"                              %.`.;X2X@X`. XE.p.0 R ^ l o k 7.G.(.5.-X2X5.(.G.7.N o k R ^ 7 p.I. X`.@X2X;X`.%.                              ",
"                              5.@X*X;XOX(.!.B.:.> ) W j + N 5.B./.r.*X;Xr./.B.7.N + j T +.> :.B.!.(.OX;X*X@X7.                              ",
"                              m.*X-XW.,.~.W.B.;.> ) Q > + V 5.m.(.K.;X;XG.(.m.7.C + > Q { > ;.B.W.(.5.W.-X*XB.                              ",
"                              !.-XOX( #.`.K.M.7.@.<.B O . C 7.r.!.W.;X;XW.!.m.7.@.. o N :.@.8.m.G.`.$.W oX-XQ.                              ",
"                            %.OX-Xa.4 =.'.G.C.<.d.3X*XG.k C 7.r.W.Q.;X2XQ.W.m.7.@.k K.@X2Xs.<.B.G.'.<.4 t.-XOX;.                            ",
"                            7.*XoX( 5 #.!.W.a.g.1.;X6X7XoX%.5.r.K.Q.;X;X!.K.r.5.%.`.6X7X3X1.f.d.W.!.*.5 W `.-Xe.                            ",
"                          >.B.-XH.y 9 j G.K.c.2.C '.6X7X3X=.B t.G.W.*X*XW.G.t.V =.3X6X7X@XC 2.h.K.K.k 9 y Z.;XB.;.                          ",
"                        U.J.L.*X9.y y a B.a.i.E k m.7X3XM./ H @.B.K.'.OXK.B.%.H ^ m.6X7Xm.k C i.a.B.g y y 1.*XW.K.U.                        ",
"                      [.~.Q.W.@XO.y d 0 M.3.x C x @.W.9.( ) ] 0 >.B.Q.(.B.5.0 ] ) ( 9.W.$.k C N <.Z.0 d y ( OX!.!.^.{.                      ",
"                    }.U.'.>.>.oXM i h 0 z.x.- C m N g 7 | ( { ! g 5.5.5.5.g U { ( } 0 a N m C - l.x.0 h i b `.5.;.oXU.}.                    ",
"                  ^.{.Y.(.O k /.N w h a l.a.o k x N k ; U [ O.| 7 > - - > 7 | +.[ U ; k N x k + w.x.a h r x /.N O W.K.{.].                  ",
"                  .XS.`.%.. V '.W 3 y g w.6.o > x k N > 6 } ) [ P o . o . v [ ) } 7 > N k x > . 3.q.g y 4 T ).o.. C `.S..X                  ",
"                +X XD.K.O $ r.Z.H ; r 7 3.%.- O j k x N > U [ { / $ + . $ ^ { [ U : N x k j O - #.3.0 t ; H B.m.$ o B.B.}.#X                ",
"                %XF.W.N X h !.>.U 7 ; 8 3.o.7 o g k k V C 0 } [ | : . . ; | [ } 0 C C k k g o 7 C 9.9 5 6 P :.Q.j X k !.D.%X                ",
"              (.$Xm.7.X @ 5.K.x I z - : z.N h & > N N B ;.k / } | 0 . . 7 | } / k ;.V N N > & h x z.6 - z I x K.7.$ X 7.m.&X'.              ",
"            m.#X}.>.a X ; B.7.g n I - m q.7 c r O k N N %.%.z X.} d + + y ] X.c %.*.B N k O 4 c 7 w.B - P n g 5.B.; X 7 >.^.&Xm.            ",
"            K.%X_.g X X 7 B.@.j h b -.Z.%.: H 8 . g x N C >.j ' ..f . . y ' ..j >.E N x g . 8 H 6 $.G.;.M h j o.G.s X X 7 ~.>XW.            ",
"          B.'.,X`.k X X x G.V x 5.W.'.W.g * S * X > N N C ;.C Y  .S o o i  .~ V ;.E N N > X * S ; a K.'.W.5.m B B.m @ X j '.,X'.B.          ",
"          K.|.,X|.:.X & V G.V :.OX@X/.K.j # w & X O N g k @.%.d  .D @ $ F  .d $.@.k g N $ X & w % g K./.@X@X>.B G.o.# X *.`.,X|.K.          ",
"        r.!.|.>XoXB.; * #.G.V m.@X`.!.K.;.# < # % @ j > O x %.a K G & $ G ` 0 $.N O - k @ % # < % ;.K.!.`.@XB.B G.*.* * m.`.>X|.!.m.        ",
"        G./. X$X`.W.x ; ;.m.E !.'.5.V :.t.m @ # < X j >   > C - r Z . . e r - C >   > j X < # @ x t.>.V ,.'.Q.@.m.>.; k K.`.$X X/.G.        ",
"        K./.&X#X/.K.N $ >.r.;.Q.5.a ; $ @.>.- @ < X g g     k > . .     . . > k     g g X < @ $ >.%.= ; a >.Q.>.t.,.- N K./.+X$X/.W.        ",
"      m.W.!.$X+X(.B.N   5.B.m.m.v L i 4 * %.C X < @ > j     > k             j >     j g @ < X N &.; 4 i H v a.B.B.7.B.5.m.(.+X$XQ.!.m.      ",
"      K.Q.!..X+X(.r.N   7.K.K.Q c z 9 w e p ;.a , # > N     - k             k -     N > # , 7 ;.c e w 9 z c T K.K.t.@XB.t.(.+X.X!.Q.K.      ",
"      Q.(.~.XX|.!.e.%.  7.K.r.O ; L p 8 3 4 B ;.7 $ > C       g             j O     B > $ > ;.C 4 3 8 p L ; o t.K.e.(.K.7.!.`.XX~.(.Q.      ",
"    r./.'.'.R.D.K.5.r.  e.B.    . t H i u w 5 %.@.$ > C       a -         - g       V > $ o.%.; w u i H y .     B.t.K.W.5.K.D.R._.'./.m.    ",
"    G./.'.B.B   m.>.K.5.t.7.      & H D S r w g ;.k > C       > =         - >       C > j ;.j w r S D H &       7.t.B./.>.m.  m B.'./.G.    ",
"    W./.W.%.    t.>./.t.7.@.      o t H p D 4   N %.@.j         o         o         j @.%.N   4 D p H i o       E 7.t.oX>.t.    %.W./.W.    ",
"    W.Q.r.      5.>.OX7.%.          5 ~ K 8       C %.>                             - %.C       8 K ~ 5           &.5.`.>.5.      t.Q.W.    ",
"  >.W.G.        %.:.OX;.j             > r 1         j                                 g         1 r >             j %.@X>.%.        G.W.5.  ",
"  >.G.            ;.oXN                                                                                             N @X;.            G.5.  ",
"  ;.5.            @.`.N                                                                                             k W.k             >.>.  ",
"  j                                                                                                                                     g   ",
"  +                                                                                                                                     +   ",
"                                                                                                                                            ",
"                                                                                                                                            "
};
