/* XPM */
static char *result[] = {
/* columns rows colors chars-per-pixel */
"80 80 219 2 ",
"   c #040405",
".  c #04060A",
"X  c #06080D",
"o  c #0A0B0C",
"O  c #080709",
"+  c #040611",
"@  c #060A13",
"#  c #0B0D13",
"$  c #060B1C",
"%  c #0A0D19",
"&  c #0F1014",
"*  c #0E111B",
"=  c #121314",
"-  c #13151A",
";  c #16181C",
":  c #1B1B1D",
">  c #140B0B",
",  c #070B24",
"<  c #0A0D24",
"1  c #0A0E2B",
"2  c #060A2C",
"3  c #0E1123",
"4  c #0C122B",
"5  c #131523",
"6  c #161923",
"7  c #1C1D22",
"8  c #16192C",
"9  c #1A1D2B",
"0  c #121629",
"q  c #0A0E35",
"w  c #080D36",
"e  c #0D1234",
"r  c #0E123C",
"t  c #121634",
"y  c #151835",
"u  c #1B1E33",
"i  c #12163C",
"p  c #15193B",
"a  c #181C3C",
"s  c #1E2023",
"d  c #1E212D",
"f  c #1E2133",
"g  c #1E213B",
"h  c #222324",
"j  c #24262A",
"k  c #27282C",
"l  c #2B2B2D",
"z  c #282725",
"x  c #222533",
"c  c #2D2E31",
"v  c #22253B",
"b  c #25293E",
"n  c #272A38",
"m  c #2F3032",
"M  c #323334",
"N  c #353639",
"B  c #3B3C3D",
"V  c #37383A",
"C  c #530505",
"Z  c #0A0F45",
"A  c #0A0F4B",
"S  c #0D1247",
"D  c #111641",
"F  c #181D46",
"G  c #141A57",
"H  c #090F50",
"J  c #1E2344",
"K  c #1D224C",
"L  c #1C2153",
"P  c #1F255C",
"I  c #0F234B",
"U  c #212544",
"Y  c #252942",
"T  c #2A2F4D",
"R  c #24294A",
"E  c #2B304B",
"W  c #393B46",
"Q  c #252A52",
"!  c #252B59",
"~  c #2C335D",
"^  c #2B3255",
"/  c #393D55",
"(  c #363B57",
")  c #181F71",
"_  c #1D267C",
"`  c #252C66",
"'  c #2D3564",
"]  c #2D356B",
"[  c #353C63",
"{  c #343C6B",
"}  c #353C63",
"|  c #2E3878",
" . c #333B70",
".. c #323C7C",
"X. c #212975",
"o. c #3E4244",
"O. c #3A405C",
"+. c #3A4169",
"@. c #394375",
"#. c #444444",
"$. c #44464B",
"%. c #4B4B4C",
"&. c #47494B",
"*. c #4C4D51",
"=. c #4E5152",
"-. c #4A5053",
";. c #545454",
":. c #55565B",
">. c #5B5B5B",
",. c #585959",
"<. c #454963",
"1. c #585B63",
"2. c #444C76",
"3. c #4B5279",
"4. c #5D6367",
"5. c #5E647E",
"6. c #636363",
"7. c #66666A",
"8. c #6B6C6C",
"9. c #66686E",
"0. c #6E6F73",
"q. c #646876",
"w. c #68777A",
"e. c #747474",
"r. c #7B7B7C",
"t. c #777878",
"y. c #FF0000",
"u. c #F70101",
"i. c #EF0711",
"p. c #80807F",
"a. c #2C3680",
"s. c #3D4B9F",
"d. c #246CA8",
"f. c #1047B0",
"g. c #4A578A",
"h. c #4D5C95",
"j. c #767A85",
"k. c #6D7A8E",
"l. c #5A6FA2",
"z. c #536293",
"x. c #1566FF",
"c. c #1367FC",
"v. c #114DC1",
"b. c #586EC7",
"n. c #2C96BC",
"m. c #568486",
"M. c #6D8589",
"N. c #7E8182",
"B. c #738386",
"V. c #789398",
"C. c #4796A7",
"Z. c #778FA5",
"A. c #2B9BC0",
"S. c #7288C7",
"D. c #51D4DA",
"F. c #4AD4DE",
"G. c #53E4EC",
"H. c #838384",
"J. c #8B8B8B",
"K. c #888887",
"L. c #8E8F91",
"P. c #858D97",
"I. c #899697",
"U. c #949494",
"Y. c #95969A",
"T. c #9B9B9C",
"R. c #979898",
"E. c #8F908E",
"W. c #9FA09F",
"Q. c #A0A09F",
"!. c #8B99A3",
"~. c #9D9DA1",
"^. c #868AA1",
"/. c #89A3A6",
"(. c #9CA4A9",
"). c #84AAB1",
"_. c #9AB3B4",
"`. c #96A7B7",
"'. c #A4A4A4",
"]. c #ABABAB",
"[. c #A4A9AB",
"{. c #ACADB3",
"}. c #ACB2B2",
"|. c #B4B4B4",
" X c #B6B6B9",
".X c #B4BABB",
"XX c #BBBBBB",
"oX c #B8B7B7",
"OX c #C0BFBF",
"+X c #C0C0BF",
"@X c #B9B9C0",
"#X c #BDC4C4",
"$X c #B7C5C7",
"%X c #B7D3D4",
"&X c #ADCDCE",
"*X c #B6DDE3",
"=X c #BEE1E4",
"-X c #C3C3C3",
";X c #C4CCCC",
":X c #CCCCCC",
">X c #C8C7C7",
",X c #C4D1D1",
"<X c #C9D3D3",
"1X c #C5DCDC",
"2X c #CCDCDC",
"3X c #D3D3D3",
"4X c #DCDCDC",
"5X c #D7D8D8",
"6X c #C3DFE0",
"7X c #CCE4E4",
"8X c #C8E4E4",
"9X c #D7E4E5",
"0X c #E4E4E4",
"qX c #ECECEC",
"wX c #E1EFEF",
"eX c #E6F2F2",
"rX c #F4F4F4",
"tX c #FCFCFC",
"yX c None",
/* pixels */
"yXyXyXyXyXyXyXyXyXyXyXyXyXyXyXyXyXyXyXyXyXyXyXyXyXyXyXyXyXyXyXyXyXyXyXyXyXyXyXyXyXyXyXyXyXyXyXyXyXyXyXyXyXyXyXyXyXyXyXyXyXyXyXyXyXyXyXyXyXyXyXyXyXyXyXyXyXyXyXyX",
"yXyXyXyXyXyXyXyXyXyXyXyXyXyXyXyXyXyXyXyXyXyXyXyXyXyXyXyXyXx.x.x.x.x.yXyXyXyXy.y.y.y.yXyXO yXyXyXx.x.x.yXyXyXyXyXyXyXyXyXyXyXyXyXyXyXyXyXyXyXyXyXyXyXyXyXyXyXyXyX",
"yXyXyXyXyXyXyXyXyXyXyXyXyXyXyXyXyXyXyXyXyXyXyXyXyXyXyXyXyXyXyXyXyXyXI   yXy.y.y.y.y.y.yX  yXyXyXx.yXyXyXyXyXyXyXyXyXyXyXyXyXyXyXyXyXyXyXyXyXyXyXyXyXyXyXyXyXyXyX",
"yXyXyXyXyXyXyXyXyXyXyXyXyXyXyXyXyXyXyXyXyXyXyXyXyXyXyXyXyXyXyXyXyXyXh > u.y.y.y.y.y.y.y.> s yXyXyXyXyXyXyXyXyXyXyXyXyXyXyXyXyXyXyXyXyXyXyXyXyXyXyXyXyXyXyXyXyXyX",
"yXyXyXyXyXyXyXyXyXyXyXyXyXyXyXyXyXyXyXyXyXyXyXyXyXyXyXyXyXyXx.x.yX,.m C y.y.y.y.y.y.y.y.yXl >.yXyXx.x.yXyXyXyXyXyXyXyXyXyXyXyXyXyXyXyXyXyXyXyXyXyXyXyXyXyXyXyXyX",
"yXyXyXyXyXyXyXyXyXyXyXyXyXyXyXyXyXyXyXyXyXyXyXyXyXyXyXyXx.x.yXyXr.8.; yXy.y.y.y.y.y.y.y.yX= 7.r.yXyXyXx.x.yXyXyXyXyXyXyXyXyXyXyXyXyXyXyXyXyXyXyXyXyXyXyXyXyXyXyX",
"yXyXyXyXyXyXyXyXyXyXyXyXyXyXyXyXyXyXyXyXyXyXyXyXyXyXyXyXyXyXyXe.E.&.4 yXu.y.y.y.y.y.y.i.yX4 #.E.r.yXyXyXyXyXyXyXyXyXyXyXyXyXyXyXyXyXyXyXyXyXyXyXyXyXyXyXyXyXyXyX",
"yXyXyXyXyXyXyXyXyXyXyXyXyXyXyXyXyXyXyXyXyXyXyXyXyXyXyXyXyXyXyXU.r.l f.x.yXy.y.y.y.y.y.yXc.v.z t.U.yXyXyXyXyXyXyXyXyXyXyXyXyXyXyXyXyXyXyXyXyXyXyXyXyXyXyXyXyXyXyX",
"yXyXyXyXyXyXyXyXyXyXyXyXyXyXyXyXyXyXyXyXyXyXyXyXyXyXyXyXyXyXJ.U.,.; c.c.yXyXy.y.y.y.yXyXyXyX= ;.U.J.yXyXyXyXyXyXyXyXyXyXyXyXyXyXyXyXyXyXyXyXyXyXyXyXyXyXyXyXyXyX",
"yXyXyXyXyXyXyXyXyXyXyXyXyXyXyXyXyXyXyXyXyXyXyXyXyXyXyXyXyXyX}.H.B yXyXc.x.yXyXyXyXyXyXx.x.yXyXV H.|.yXyXyXyXyXyXyXyXyXyXyXyXyXyXyXyXyXyXyXyXyXyXyXyXyXyXyXyXyXyX",
"yXyXyXyXyXyXyXyXyXyXyXyXyXyXyXyXyXyXyXyXyXyXyXyXyXyXyXyXyX].|.e.l yXyXx.yXyXx.yXyXx.yXx.yXyXyXh e.].].yXyXyXyXyXyXyXyXyXyXyXyXyXyXyXyXyXyXyXyXyXyXyXyXyXyXyXyXyX",
"yXyXyXyXyXyXyXyXyXyXyXyXyXyXyXyXyXyXyXyXyXyXyXyXyXyXyXyXyX'.'.7.: yXyXx.yXx.yXyXyXyXyXx.yXyXyX: 6.'.'.yXyXyXyXyXyXyXyXyXyXyXyXyXyXyXyXyXyXyXyXyXyXyXyXyXyXyXyXyX",
"yXyXyXyXyXyXyXyXyXyXyXyXyXyXyXyXyXyXyXyXyXyXyXyXyXyXyXyXQ.E.K.>.yXyXyXx.yXyXyXyXe.yXyXyXx.x.yXyX;.K.J.'.yXyXyXyXyXyXyXyXyXyXyXyXyXyXyXyXyXyXyXyXyXyXyXyXyXyXyXyX",
"yXyXyXyXyXyXyXyXyXyXyXyXyXyXyXyXyXyXyXyXyXyXyXyXyXyXyXyX-XQ.8.;.yXyXyXyXyXyXyXt.H.6.yXyXyXyXyXyX;.8.T.-XH.yXyXyXyXyXyXyXyXyXyXyXyXyXyXyXyXyXyXyXyXyXyXyXyXyXyXyX",
"yXyXyXyXyXyXyXyXyXyXyXyXyXyXyXyXyXyXyXyXyXyXyXyXyXyXyX'.:XU.7.M yXyXyXyXyXyXV t.t.#.yXyXyXyXyXyXM 6.J.:X[.yXyXyXyXyXyXyXyXyXyXyXyXyXyXyXyXyXyXyXyXyXyXyXyXyXyXyX",
"yXyXyXyXyXyXyXyXyXyXyXyXyXyXyXyXyXyXyXyXyXyXyXyXyXyXyX-X>XE.>.l yXyXyXyXyXyXB t.e.B yXyXyXyXyXyXl ,.K.:X>XyXyXyXyXyXyXyXyXyXyXyXyXyXyXyXyXyXyXyXyXyXyXyXyXyXyXyX",
"yXyXyXyXyXyXyXyXyXyXyXyXyXyXyXyXyXyXyXyXyXyXyXyXyXyXU.3XoXK.;.yXyXyXyXyXyXl ;.U.U.;.c yXyXyXyXyXyX=.K.oX:XT.yXyXyXyXyXyXyXyXyXyXyXyXyXyXyXyXyXyXyXyXyXyXyXyXyXyX",
"yXyXyXyXyXyXyXyXyXyXyXyXyXyXyXyXyXyXyXyXyXyXyXyXyXyX-X:X'.K.=.yXyXyXyXyXyX#.6.|.+X7.#.yXyXyXyXyXyX%.H.'.:X>XyXyXyXyXyXyXyXyXyXyXyXyXyXyXyXyXyXyXyXyXyXyXyXyXyXyX",
"yXyXyXyXyXyXyXyXyXyXyXyXyXyXyXyXyXyXyXyXyXyXyXyXyX;.:X:XT.r.&.yXyXyXyXyXyX>.r.].oXt.6.yXyXyXyXyXyX#.e.R.:X3X>.yXyXyXyXyXyXyXyXyXyXyXyXyXyXyXyXyXyXyXyXyXyXyXyXyX",
"yXyXyXyXyXyXyXyXyXyXyXyXyXyXyXyXyXyXyXyXyXyXyXyXyXt.~.>XU.0.M yXyXyXyXyXyXe.J.Q.'.K.p.yXyXyXyXyXyXM 8.U.>X'.t.yXyXyXyXyXyXyXyXyXyXyXyXyXyXyXyXyXyXyXyXyXyXyXyXyX",
"yXyXyXyXyXyXyXyXyXyXyXyXyXyXyXyXyXyXyXyXyXyXyXyX8.3XH.'.U.8.h yXyXyXyXyXz E.T.r.p.T.U.l yXyXyXyXyXh 6.U.'.p.:Xe.yXyXyXyXyXyXyXyXyXyXyXyXyXyXyXyXyXyXyXyXyXyXyXyX",
"yXyXyXyXyXyXyXyXyXyXyXyXyXyXyXyXyXyXyXyXyXyXyXyXQ.0XoX8.J.6.7 yXyXyXyXyX: E.'.m.m.Q.E.h yXyXyXyXyX; 6.K.8.|.0X'.yXyXyXyXyXyXyXyXyXyXyXyXyXyXyXyXyXyXyXyXyXyXyXyX",
"yXyXyXyXyXyXyXyXyXyXyXyXyXyXyXyXyXyXyXyXyXyXyX;.-X4X:XH.6.6.5 yXyXyXyXyXz E.V.D.D.V.U.l yXyXyXyXyX5 >.4.p.:X4X:X;.yXyXyXyXyXyXyXyXyXyXyXyXyXyXyXyXyXyXyXyXyXyXyX",
"yXyXyXyXyXyXyXyXyXyXyXyXyXyXyXyXyXyXyXyXyXyXyXK.5X5X>XT.8.&.- yXyXyXyXyX: 8.C.G.G.C.e.h yXyXyXyXyX* %.8.U.>X5X5XU.yXyXyXyXyXyXyXyXyXyXyXyXyXyXyXyXyXyXyXyXyXyXyX",
"yXyXyXyXyXyXyXyXyXyXyXyXyXyXyXyXyXyXyXyXyXyX&.-X4X:XXXT.e.#.Z yXyXyXyX: e.I.n.F.F.A.P.r.: yXyXyXyXZ W e.T.XX:X5X:X%.yXyXyXyXyXyXyXyXyXyXyXyXyXyXyXyXyXyXyXyXyXyX",
"yXyXyXyXyXyXyXyXyXyXyXyXyXyXyXyXyXyXyXyXyXyXH.0X0X>X].T.e./ H yXyXyXyXl K.j.d.).).d.k.K.M yXyXyXyXA ( e.T.].-X0X0XJ.yXyXyXyXyXyXyXyXyXyXyXyXyXyXyXyXyXyXyXyXyXyX",
"yXyXyXyXyXyXyXyXyXyXyXyXyXyXyXyXyXyXyXyXyXyXXXqX0X:X'.U.e.N % yXyXyXyX#.L.3.g.>X:Xz.2.U.#.yXyXyXyX$ c e.L.'.:X0XqX+XyXyXyXyXyXyXyXyXyXyXyXyXyXyXyXyXyXyXyXyXyXyX",
"yXyXyXyXyXyXyXyXyXyXyXyXyXyXyXyXyXyXyXyXyXe.3X0X4X>X].K.8.j Z Z yXyXyX;.T.<.^.3X3XY.+.R.,.yXyXyXyXZ h 7.K.].-X4X0X5Xt.yXyXyXyXyXyXyXyXyXyXyXyXyXyXyXyXyXyXyXyXyX",
"yXyXyXyXyXyXyXyXyXyXyXyXyXyXyXyXyXyXyXyXyX].3XT.1.-.p.;.c i A # yXyXyX>.T.<.{.3X3XoX<.Y.6.yXyXyXX Z i l =.H.<.:.T.3X].yXyXyXyXyXyXyXyXyXyXyXyXyXyXyXyXyXyXyXyXyX",
"yXyXyXyXyXyXyXyXyXyXyXyXyXyXyXyXyXyXyXyXyXt.4.6 q y x G 0 G 1 2 yXyX> 7.U.1. Xr.r.oX1.L.0.# yXyXw 1 G 8 G d 9 e - 1.r.yXyXyXyXyXyXyXyXyXyXyXyXyXyXyXyXyXyXyXyXyX",
"yXyXyXyXyXyXyXyXyXyXyXyXyXyXyXyXyXyXyXyXyXyX+ % i 6 u Q a i r w yXyX> e.K.0.U.:.>.E.t.H.t.= yXyX2 D e g Q g ; i < + yXyXyXyXyXyXyXyXyXyXyXyXyXyXyXyXyXyXyXyXyXyX",
"yXyXyXyXyXyXyXyXyXyXyXyXyXyXyXyXyXyXyXyX6.U.r.Y Y #.7.0.%.5 A $ X yX: t.J.T.8.T.'.6.Q.K.r.h yX. $ A 5 $.0.7.$.Y b t.U.8.yXyXyXyXyXyXyXyXyXyXyXyXyXyXyXyXyXyXyXyX",
"yXyXyXyXyXyXyXyXyXyXyXyXyXyXyXyXyXyXyX1.|.5X0XXX|.oXQ.e.;.p r 1 +   l p.W.oX%.-X5X%.oXQ.p.M   . 1 e p =.t.Q.oXoXXX0X4X|.6.yXyXyXyXyXyXyXyXyXyXyXyXyXyXyXyXyXyXyX",
"yXyXyXyXyXyXyXyXyXyXyXyXyXyXyXyXyXyXyXJ.:X3X5X5X3X-XT.e.%.5 5 e +   B K.'.].#.0X0X#.'.'.K.#.  @ 4 4 5 %.0.T.OX:X5X5X3X3XU.yXyXyXyXyXyXyXyXyXyXyXyXyXyXyXyXyXyXyX",
"yXyXyXyXyXyXyXyXyXyXyXyXyXyXyXyXyXyXyXT.:X3X:X-XoX|.U.8.&.= y 3 @ X &.K.].U.#.qXqX#.E.].K.%.o @ 3 y = #.7.U.|.oX+X3X3X:XT.yXyXyXyXyXyXyXyXyXyXyXyXyXyXyXyXyXyXyX",
"yXyXyXyXyXyXyXyXyXyXyXyXyXyXyXyXyXyXyX#X4X:X-XXXoX'.K.6.M & K - - o ;.H.].J.#.qXrX%.K.].H.>.> - - K - l 1.H.'.oXOX+X:X5X;X-.yXyXyXyXyXyXyXyXyXyXyXyXyXyXyXyXyXyX",
"yXyXyXyXyXyXyXyXyXyXyXyXyXyXyXyXyXyX>.2XeXqX3X|.}.].r.;.: d Q h : = >.p.].E.&.0XrX%.K.].p.6.- - h Q f : ;.r.[.|.}.3XqXeX7X4.yXyXyXyXyXyXyXyXyXyXyXyXyXyXyXyXyXyX",
"yXyXyXyXyXyXyXyXyXyXyXyXyXyXyXyXyXyX8.3X9XqXeX<X].R.t.%.= T U c = : 6.H.'.E.&.qXqX%.J.].p.7.: > l J T = #.t.U.].:XwXeX0X3Xe.yXyXyXyXyXyXyXyXyXyXyXyXyXyXyXyXyXyX",
"yXyXyXyXyXyXyXyXyXyXyXyXyXyXyXyXyXyXJ.5X4X4X5X7X%X(.e.B = ~ Y M o : 6.p.'.R.%.rXqX=.E.].H.7.: > M b ' = V 0.(.%X7X<X5X4X5XE.yXyXyXyXyXyXyXyXyXyXyXyXyXyXyXyXyXyX",
"yXyXyXyXyXyXyXyXyXyXyXyXyXyXyXyXyXz '.3X9X4X>XXX@X`.Z./ : +.n M O : 6.p.'.].,.0XqX6.'.].p.6.h O M n +.: W Z.`.@XXX>X4X4X3X].m yXyXyXyXyXyXyXyXyXyXyXyXyXyXyXyXyX",
"yXyXyXyXyXyXyXyXyXyXyXyXyXyXyXyXyX#.XX:X5X4X-X|.].U.8.c 7 2.n l   z >.t.Q.|.8.4XqXe.|.'.r.6.z   k n 2.h l 7.U.].|.-X4X5X:XOX%.yXyXyXyXyXyXyXyXyXyXyXyXyXyXyXyXyX",
"yXyXyXyXyXyXyXyXyXyXyXyXyXyXyXyXyX6.:X3X3XQ.0.oX'.U.6.l h g.M :   l 6.e.R.oXJ.qX0XK.|.T.e.6.l   : l g.k j 6.U.'.|.e.T.:X5X:X8.yXyXyXyXyXyXyXyXyXyXyXyXyXyXyXyXyX",
"yXyXyXyXyXyXyXyXyXyXyXyXyXyXyXyXyXK.:X5X|.n :.XX~.K.e.#.k T k O   m 6.e.E.|.Q.0X0XT.|.U.e.6.M   O z E l B e.H.Q.XX4.x {.5X3XJ.yXyXyXyXyXyXyXyXyXyXyXyXyXyXyXyXyX",
"yXyXyXyXyXyXyXyXyXyXyXyXyXyXyXyXyX].5X3X1.w 7.-XL.L.r.$.{.|.e.V   l 6.e.J.|.'.4XqX].].E.e.6.M O N e.'.{.$.t.L.E.-X0.q :.:X5X|.yXyXyXyXyXyXyXyXyXyXyXyXyXyXyXyXyX",
"yXyXyXyXyXyXyXyXyXyXyXyXyXyXyXyX$.-X4X'.x 1 7.oXY.E.q.s.{.tXtX0Xe.M 6.e.J.].}.0XqX].].E.e.6.V 0.0XrXtX Xh.g.J.T. X0.0 9 ~.5X>X%.yXyXyXyXyXyXyXyXyXyXyXyXyXyXyXyX",
"yXyXyXyXyXyXyXyXyXyXyXyXyXyXyXyX6.:X3X6.t - :.'.[.j.b.@.j.qXrXtXqX8.#.e.H.'.'.0X0X'.'.H.t.%.7.qXrXrXtXJ.{ b.j.'.[.>.- t 1.:X3X8.yXyXyXyXyXyXyXyXyXyXyXyXyXyXyXyX",
"yXyXyXyXyXyXyXyXyXyXyXyXyXyX*.8.p.5X@XE y 6 M T.~.S.h.M ;.0XrXtXqX7.9 ,.H.T.Q.3X3XQ.T.K.>.8 4.qXtXrXqX>.M h.S.Y.Q.M 6 a Y  X5XK.7.-.yXyXyXyXyXyXyXyXyXyXyXyXyXyX",
"yXyXyXyXyXyXyXyXyXyXyXyXyXI._.T.T.3XY.J u u z R.j.l.&.M M XXtXqXK.E ` s 8.U.U.OX:XU.U.8.h ` T p.rXtX XM c $.l.j.R.c 9 u F L.5XT.Q._./.yXyXyXyXyXyXyXyXyXyXyXyXyX",
"yXyXyXyXyXyXyXyXyXyXyXyXI.&X}.].'.5X0.D j g s Y.4.k o.N l 7.XXq./ O.[ K l p.J.|.XXK.H.m J } O.( q.oX8.c M #.l 1./.h a d D 7.3X].].|.&XI.yXyXyXyXyXyXyXyXyXyXyXyX",
"yXyXyXyXyXyXyXyXyXyXyXyX&XI.>X6.>.3X>.r f x d !.Z.& B M m M s s { W +.' s B r.N.p.t.#.6 ' +.W  .f 7 M M M V o V./.9 v j i ;.3X6.:.3XP.&XyXyXyXyXyXyXyXyXyXyXyXyX",
"yXyXyXyXyXyXyXyXyXyXyX&X_.'.oXo h XX4.< a j 7 V.V.X l M m M s ; Q ( O.+.R = B : ; B = Y { O.[ ^ - h M c M l O M./.7 j a 1 ;.+Xl O ].'._.&XyXyXyXyXyXyXyXyXyXyXyX",
"yXyXyXyXyXyXyXyXyXyX$X%XN.5X%.  ; |.0.* p j s M.B.o & M l m m = d  ./ +.' ; O X o O ; ~ +.( { d > c m c M ; X t.V.s j p % 7.XX7   o.:XN.%X$XyXyXyXyXyXyXyXyXyXyX",
"yXyXyXyXyXyXyXyXyXyX8X/.(.W.O X o.+X<.* e d 7 k.4.=   j l l N j & ^ [ [ { f   O O   d { O.[ ! = h N c k j O # :.j.h u t * <.XX*.X . U.'.I.2XyXyXyXyXyXyXyXyXyXyX",
"yXyXyXyXyXyXyXyXyX#X7Xt.>XV . # K.W.Y d * y 7 4.%.; O ; l k m B s d  .[ +.Y o . . o Y +.[  .f s B c l l : O 7 #.q.7 a - 9 U U.L.& . c XXt.1X;XyXyXyXyXyXyXyXyXyX",
"yXyXyXyXyXyXyXyXyX2X}.J.N.. X m }.8.b b - 5 6 j.o.s & & l l l V &.: ~ { [ ^ &     & Q +.+.' ; &.B l l l = # h V M.6 5 = b Y 6.oXN +   r.R._.7XT.yXyXyXyXyXyXyXyX",
"yXyXyXyXyXyXyXyX|.7XN.U.h . # e.(.N x E : & s V.l k 6 @ k m M V ,.V f ..} ' -     & ~ } ..b M ,.V M M l # 5 x l V.d # : T n c Q.r.& . 7 T.p.7X|.yXyXyXyXyXyXyXyX",
"yXyXyXyXyXyXyXp.;X2X6.*.. . 7 U.e.h k T x # W B.; n F . : m M V &.>.s ]  .' 7     ; ] ] | s >.%.V M M : . a x 7 w.o.o d E k s 0.T.s . . $.6.1X,XK.yXyXyXyXyXyXyX",
"yXyXyXyXyXyXyXT.2X1X&.@ . . k T.%.j j x n #.U.%.; g a X = l m M B >.m R a.] 9 . . 6 ' ..Q l >.B M c l = X p J ; &.R.#.c n d j &.T.m . . # W ,X2XT.yXyXyXyXyXyXyX",
"yXyXyXyXyXyXJ.|.6X<X%.  . + N Y.V l c >.U.oXT.7 * J 8 @   l M M B ;.&.d a.` 8 . O 0 ` | d &.;.B M M l X @ 8 F - ; R..XR.4.m l N U.W + X   #.;X8XoXJ.yXyXyXyXyXyX",
"yXyXyXyXyXyX(.-X7X;Xe.. + $ $.R.W M J.:X-XoXJ.- # D 3 @   h M M V &.;.h ` X.t @ X t _ ` h ;.&.V M M h   @ * D % & K.|.-X:XE.N N R.*.@ @ . 8.;X7X#X'.yXyXyXyXyXyX",
"yXyXyXyXyXt.].#X7X-XT.: @ * ;.T.V ;.-X:XXX|.R.l + w $ @ + & m = ; V %.M g _ p @ @ p _ J m %.V : = M = . @ % w + l U.}.XX:X-X,.N T.>.% @ = R.-X7X#X].r.yXyXyXyXyX",
"yXyXyXyXyXU.].$X7X-X|.$.# - 4.U.M r.>X#XT.U.U.6.% 2 @ $ , X M = yX: #.M 6 ) D @ @ D ) 5 m &.s yX= M X , $ @ 2 # >.E.U.T.+X>XH.m J.8.- * #.|.+X7X%X].T.yXyXyXyXyX",
"yXyXyXyXyX].|.%X2X#XoX8.- : 8.K.N '.-XN.l h %.t.o.X @ , , O M : yXyXm l @ r 1     , D o z M > yX= M O , , @ # V t.=.j k r.+X[.V p.e.7 - 6.|.@X1X,X|.}.8.yXyXyXyX",
"yXyXyXyXp.].oX1X,XoX].7.# - e.t.&.|.r.l ; - # &.6.: . , ,   l s yXyX: M o O   yXyX  . O m : yXyX: M . , , . ; 6.&.= & : k t.|.=.e.t.- = >.].oX,X1XoX].H.yXyXyXyX",
"yXyXyXyXT.'.].8X;X|.'.,.yX= e.J.r.T.W v J t 3 # *.&.  , , . k z yXyXo M : yXyXyXyXyXyX: M = yXyXh l . , ,   #.=.* < t F v N R.p.K.r.6.K.>.Q.|.:X8X}.[.T.yXyXyXyX",
"yXyXyXH.].].].*X;XoXR.%.yXyXr.Q.'.:.J Y a p D r 9 ,.h $ < @ z c yXyX  l h yXyXyXyXyXyX: l O yXyXl l X < , h :.j r Z p u U U -.'.Q.j.'.5X;.U.|.;X=X[.].].H.yXyXyX",
"yXyXyXU.|.}.].*X#X|.E.%.yXyXp.T.E.h # v g 0 * 1 q N :.k % @ h M yXyXyXh h yXyXyXyXyXyXh h yXyXyXM h # % j ,.V r 4 - 0 g v & : J.Q.p.H.4X;.J.|.@X*X{.].|.Y.yXyXyX",
"yXyXyXT.XX|..X*X].].H.;.yXl H.T.6.yX. 5 v a i t 5 - %.=.= # h B yXyXyX: h yXyXyXyXyXyXh : yXyXyXB h # = =.%.- < t i a U 0 O yX6.R.H.0.4X,.p.].}.*X.X|.XX'.yXyXyX",
"yXyXyX].oXoX].w.>.R.e.>.yXc K.p.yXyXyX# F L i t D e 7 ,.N # : B yXyXyX; : yXyXyXyXyXyX: : yXyXyXB h o M ,.h 4 D t p K F @ yXyXyXr.K.>.4X6.e.E.6.w.[.oXoX].yXyXyX",
"yXyXH.].oX}.4.yXyXH.8.7.3X#.K.;.yXyXyX  - v F G y 0 < M ,.z z V yXyXyXyX= yXyXyXyXyXyX= yXyXyXyXM l h ;.M 3 4 y G F v * . yXyXyX;.K.,.0X0.7.H.yXyX,.}.oX|.K.yXyX",
"yXyXU.|.|.K.yXyXyXe.8.0.3X=.e.yXyXyXyXyX@ L U u G t yXyXV ;.%.h yXyXyXyXO yXyXyXyXyXyXO yXyXyXyX: %.;.#.yXyXe G u F L % yXyXyXyXyXe.%.5Xr.7.e.yXyXyXr.|.|.U.yXyX",
"yXyXU.|.T.yXyXyXyX;.6.p.3X#.=.yXyXyXyXyXyX0 ! P 5 yXyXyX: %.#.> yXyXyXyXyXyXyXyXyXyXyXyXyXyXyXyX> B =.: yXyXyX5 P ! 9 yXyXyXyXyXyX%.#.+Xp.>.>.yXyXyXyXT.|.R.yXyX",
"yXyXU.].t.yXyXyXyXyX,.J.+Xc c yXyXyXyXyXyXyX: t q yXyXyXyXM h yXyXyXyXyXyXyXyXyXyXyXyXyXyXyXyXyXyXh M yXyXyXyX1 t : yXyXyXyXyXyXyXyXl oXE.;.#.yXyXyXyXe.'.T.yXyX",
"yXyXU.K.yXyXyXyXyXyX&.U.'.= yXyXyXyXyXyXyXyXyXyXyXyXyXyXyXyXO yXyXyXyXyXyXyXyXyXyXyXyXyXyXyXyXyXyX> yXyXyXyXyXyXyXyXyXyXyXyXyXyXyXyX> '.].&.yXyXyXyXyXyXH.T.&.yX",
"yX&.r.yXyXyXyXyXyXyXl '.R.  yXyXyXyXyXyXyXyXyXyXyXyXyXyXyXyXyXyXyXyXyXyXyXyXyXyXyXyXyXyXyXyXyXyXyXyXyXyXyXyXyXyXyXyXyXyXyXyXyXyXyXyXyXK.W.l yXyXyXyXyXyXyXr.%.yX",
"yXV #.yXyXyXyXyXyXyX= yX8.yXyXyXyXyXyXyXyXyXyXyXyXyXyXyXyXyXyXyXyXyXyXyXyXyXyXyXyXyXyXyXyXyXyXyXyXyXyXyXyXyXyXyXyXyXyXyXyXyXyXyXyXyXyXyXyX& yXyXyXyXyXyXyX#.V yX",
"yX= yXyXyXyXyXyXyXyXyXyXyXyXyXyXyXyXyXyXyXyXyXyXyXyXyXyXyXyXyXyXyXyXyXyXyXyXyXyXyXyXyXyXyXyXyXyXyXyXyXyXyXyXyXyXyXyXyXyXyXyXyXyXyXyXyXyXyXyXyXyXyXyXyXyXyXyX= yX",
"yX  yXyXyXyXyXyXyXyXyXyXyXyXyXyXyXyXyXyXyXyXyXyXyXyXyXyXyXyXyXyXyXyXyXyXyXyXyXyXyXyXyXyXyXyXyXyXyXyXyXyXyXyXyXyXyXyXyXyXyXyXyXyXyXyXyXyXyXyXyXyXyXyXyXyXyXyX  yX",
"yXyXyXyXyXyXyXyXyXyXyXyXyXyXyXyXyXyXyXyXyXyXyXyXyXyXyXyXyXyXyXyXyXyXyXyXyXyXyXyXyXyXyXyXyXyXyXyXyXyXyXyXyXyXyXyXyXyXyXyXyXyXyXyXyXyXyXyXyXyXyXyXyXyXyXyXyXyXyXyX",
"yXyXyXyXyXyXyXyXyXyXyXyXyXyXyXyXyXyXyXyXyXyXyXyXyXyXyXyXyXyXyXyXyXyXyXyXyXyXyXyXyXyXyXyXyXyXyXyXyXyXyXyXyXyXyXyXyXyXyXyXyXyXyXyXyXyXyXyXyXyXyXyXyXyXyXyXyXyXyXyX"
};
