/* XPM */
static char *c2b812c28f8f4783ba3e28ba4fccdd53[] = {
/* columns rows colors chars-per-pixel */
"70 70 211 2 ",
"   c None",
".  c #040506",
"X  c #04060B",
"o  c #07080B",
"O  c #0B0B0C",
"+  c #080808",
"@  c #040712",
"#  c #060A14",
"$  c #0B0D13",
"%  c #070A1C",
"&  c #0A0D1A",
"*  c #0E1114",
"=  c #0E111B",
"-  c #131315",
";  c #12141B",
":  c #15181D",
">  c #1A1B1C",
",  c #0A110F",
"<  c #3D0606",
"1  c #070B23",
"2  c #070C2A",
"3  c #0A0E2B",
"4  c #0A0E22",
"5  c #0E1225",
"6  c #0D112B",
"7  c #111323",
"8  c #171A22",
"9  c #1B1D23",
"0  c #12152B",
"q  c #16192C",
"w  c #1B1E2B",
"e  c #070C37",
"r  c #0E1235",
"t  c #0C113E",
"y  c #121534",
"u  c #151934",
"i  c #1A1D35",
"p  c #11153B",
"a  c #15193B",
"s  c #1A1E3B",
"d  c #1F2023",
"f  c #1F2128",
"g  c #1F2234",
"h  c #18213C",
"j  c #232324",
"k  c #23252B",
"l  c #27282A",
"z  c #2B2B2C",
"x  c #222535",
"c  c #2D2E31",
"v  c #22253A",
"b  c #25283D",
"n  c #292B3A",
"m  c #262937",
"M  c #2E3033",
"N  c #2E313D",
"B  c #323333",
"V  c #353639",
"C  c #36383B",
"Z  c #3B3B3C",
"A  c #2F302F",
"S  c #400505",
"D  c #0D1243",
"F  c #0A1049",
"G  c #151944",
"H  c #161A48",
"J  c #141A54",
"K  c #1E2244",
"L  c #1C214E",
"P  c #1D2257",
"I  c #202441",
"U  c #252A44",
"Y  c #292C43",
"T  c #252B4D",
"R  c #21264C",
"E  c #2E3144",
"W  c #2E334C",
"Q  c #3D3E41",
"!  c #33354B",
"~  c #353848",
"^  c #252B52",
"/  c #232952",
"(  c #2C3253",
")  c #2B325A",
"_  c #393D53",
"`  c #393E5B",
"'  c #373C57",
"]  c #1A2061",
"[  c #2E366A",
"{  c #343B65",
"}  c #383F65",
"|  c #323A6B",
" . c #333A64",
".. c #242C78",
"X. c #2C3671",
"o. c #323C77",
"O. c #3F4043",
"+. c #3C405A",
"@. c #3B4161",
"#. c #444444",
"$. c #444549",
"%. c #47484A",
"&. c #4B4B4C",
"*. c #50504F",
"=. c #4D4E50",
"-. c #4B4D5A",
";. c #4F5055",
":. c #545454",
">. c #54555B",
",. c #5B5B5C",
"<. c #5E5F62",
"1. c #555868",
"2. c #565A7A",
"3. c #485473",
"4. c #5B6369",
"5. c #5D6175",
"6. c #636464",
"7. c #65676C",
"8. c #6C6C6C",
"9. c #676867",
"0. c #666A76",
"q. c #6A747B",
"w. c #697779",
"e. c #747474",
"r. c #7C7C7C",
"t. c #75767A",
"y. c #B70202",
"u. c #FF0000",
"i. c #F1060F",
"p. c #E30F26",
"a. c #2C5C96",
"s. c #4E5786",
"d. c #596A98",
"f. c #626C82",
"g. c #777B88",
"h. c #777C96",
"j. c #6D788B",
"k. c #4D5FB5",
"l. c #4E61B5",
"z. c #115EEA",
"x. c #1566FF",
"c. c #1568FF",
"v. c #4A4FC5",
"b. c #697EC1",
"n. c #3A8CB0",
"m. c #5D929D",
"M. c #68848B",
"N. c #73868B",
"B. c #748F95",
"V. c #6C80BF",
"C. c #51BDC3",
"Z. c #47CBD8",
"A. c #4EDDE6",
"S. c #838484",
"D. c #85868B",
"F. c #848B8B",
"G. c #8C8C8C",
"H. c #90908F",
"J. c #8D8F92",
"K. c #838699",
"L. c #8E9292",
"P. c #899697",
"I. c #939393",
"U. c #93999B",
"Y. c #9B9C9C",
"T. c #93969B",
"R. c #908F8F",
"E. c #A09F9F",
"W. c #9E9EA2",
"Q. c #8E9FB1",
"!. c #96A6A7",
"~. c #8CAAB4",
"^. c #98B6BB",
"/. c #90A1B2",
"(. c #A3A3A4",
"). c #ABABAB",
"_. c #A7A8A8",
"`. c #ACB3B3",
"'. c #AEBBBB",
"]. c #B4B4B4",
"[. c #B6B6B9",
"{. c #B4BABA",
"}. c #BBBCBC",
"|. c #B8B8B7",
" X c #AABFC0",
".X c #A9C3C4",
"XX c #BCC4C4",
"oX c #B5C7C9",
"OX c #BBD8DA",
"+X c #B6DAE1",
"@X c #C3C3C3",
"#X c #C3CCCC",
"$X c #CBCBCB",
"%X c #C4D3D3",
"&X c #C4DADB",
"*X c #CDDEDE",
"=X c #C5D7D7",
"-X c #D5D5D5",
";X c #D3D3D3",
":X c #DBDBDB",
">X c #D5DFDF",
",X c #CCE2E2",
"<X c #C7E2E2",
"1X c #DEE3E3",
"2X c #DAE8E8",
"3X c #E2E2E2",
"4X c #EBEBEA",
"5X c #E4EBEB",
"6X c #EAF3F3",
"7X c #F5F5F5",
"8X c #FBFBFB",
/* pixels */
"                                                                                                                                            ",
"                                                    x.  x.c.  +   u.u.u.u.  +       x.x.x.                                                  ",
"                                                            * < u.u.u.u.u.u.S O                                                             ",
"                                                      x.  Z d y.u.u.u.u.u.u.y.> Z                                                           ",
"                                                    x.  f.,.- u.u.u.u.u.u.u.  , ,.e.    x.x.                                                ",
"                                                        G.#.  p.u.u.u.u.u.u.    Z G.                                                        ",
"                                                      G.t.k z.  u.u.u.u.u.u.  z.k e.G.                                                      ",
"                                                    G.I.*.h x.      u.i.  v.      &.I.G.                                                    ",
"                                                    ).S.B     x.            x.    B S.).                                                    ",
"                                                  Y.|.e.j     x.  x.        x.    j 8.|.Y.                                                  ",
"                                                  G.Y.6.      x.            x.x.    6.Y.L.                                                  ",
"                                                Y.).t.,.            8.S.            ,.t.).(.                                                ",
"                                                @X).8.#.          B e.t.Z           Z 8._.@X                                                ",
"                                              G.$X_.6.B           B e.8.B           B 6.(.$XI.                                              ",
"                                              |.@XY.,.j           &.I.I.&.            ,.Y.@X|.                                              ",
"                                            r.;X|.G.,.          B 8._.|.8.B           ,.G.|.;XS.                                            ",
"                                            e.;X].S.&.          &.S._._.S.&.          &.r.).;Xt.                                            ",
"                                          8.Y.Y.).t.Z           6.Y.R.I.Y.6.          Z t._.Y.Y.8.                                          ",
"                                          Y.:XD.G.t.c           6._.w.w._.8.          z t.G.S.:X(.                                          ",
"                                        &.@X:X].9.8.x         O 6.U.C.C.U.8.-         k 8.6.).:X@X:.                                        ",
"                                        S.;X;X|.S.,.9         - :.m.A.A.m.,.-         9 :.r.|.;X;XG.                                        ",
"                                        }.:X$X].G.>.G         &.I.n.Z.Z.n.I.&.        G :.S.].$X:X@X                                        ",
"                                      r.3X3X@X(.G.>.D         6.D.a.~.~.a.D.6.        D ;.S.(.@X3X3XS.                                      ",
"                                      ).4X3X$XY.S.&.4         t.q.s.$X$Xs.0.t.>       4 %.S.Y.@X3X4X|.                                      ",
"                                    t.$X;X(.T.I.6.c F 3     j S.0.h.;X;XK.5.G.j     3 F c 6.I.Y.!.;X;Xr.                                    ",
"                                    r.Y.$.u m ! s p D 1     l G.4.W.)._.(.1.I.z     % t p i ! n u O.Y.S.                                    ",
"                                      = % p 8 L K G r e     z I.7.W.,.:.Y.7.I.B     e r G K L 8 p % =                                       ",
"                                    S.t.E U $.7.,.f D 1 X   Z G.G.S.G.I.r.G.R.Q   X 1 D w ,.7.%.Y Y e.D.                                    ",
"                                  G.$X3X@X[.].I.6.n t 3 @ + &.I.|.6.|.@X4.|.I.:.+ X 3 t v 6.H.].[.@X3X;XI.                                  ",
"                                  |.;X;X;X$X|.G.,.l 5 6 @ o ,.I.].&.;X:X&.].I.6.O @ 6 7 k ,.G.|.$X;X;X;X|.                                  ",
"                                8.@X$X$X@X|._.S.:.j u 0 $ - 6.Y._.#.3X:X#._.Y.8.; $ 7 u > :.S._.|.@X$X$X@Xe.                                ",
"                                F.2X1X$X|.|.Y.t.#.; R 9 ; > 8.I.).#.;X3X#._.I.8.j - 9 R ; #.e.Y.|.|.$X3X2XP.                                ",
"                                I.1X6X5X@X_.Y.8.z 9 ^ l - l e.I._.#.:X3X&._.I.e.z - l ^ w l 8.I._.@X5X6X1XY.                                ",
"                                _.:X:X>X,XoXU.6.j v ^ z O z e.I.).:.3X:X&._.I.e.B O z ^ b j 6.T.oX,X,X:X:X).                                ",
"                              &.}.:X3X$X}.oX/.f.w W ( A o z 8.I.].6.;X3X6.].I.8.B o z W ( 9 f.Q.oX}.$X3X:X}.&.                              ",
"                              6.$X;X:X@X]._.G.>.> ` ! l + B 6.G.|.r.;X:Xr.|.G.8.B + l E @.> >.G._.].@X:X;X$X8.                              ",
"                              S.;X;X_.<.`.(.G.:.> ` ~ > + C 6.S.].Y.:X:XI.].S.8.Z + > ~ } > :.G.(.].6.(.;X;XG.                              ",
"                              _.;X@X_ $.}.Y.D.8.#.1.V O . Z 8.r._._.:X:X_._.S.8.#.. o B >.#.9.S.I.}.%.! @X;X).                              ",
"                            &.@X;Xg.6 -.|.I.H.1.j.4X;XI.z Z 8.r.(.).:X3X).(.S.8.#.z Y.$X3Xh.1.G.I.|.1.6 t.;X@X:.                            ",
"                            8.;X@X_ 7 $._.(.g.l.2.:X7X8X@X&.6.r.Y._.:X:X_.Y.r.6.&.}.7X8X4X2.k.j.(._.=.7 ! }.;Xe.                            ",
"                          ,.G.;XT.i q l I.Y.V.3.Z |.7X8X4X-.V t.I.(.;X;X(.I.t.C -.4X7X8X$XZ 3.b.Y.Y.z q i J.:XG.:.                          ",
"                        !.U.E.;X0.i i d G.g.d.Q z S.8X4XD.) K #.G.Y.|.@XY.G.&.K ( S.7X8XS.z Z d.g.G.j i i 2.;X_.Y.!.                        ",
"                       X`.)._.$X+.i g w D.4.c Z c #.(.0._ ` [ w ,.G.).].G.6.w [ ` _ 0.(.%.z Z B 1.J.w g i _ @X_._.'..X                      ",
"                    .X!.|.,.,.@XN a k w N.B.- Z M B j 9  ._ } ^ j 6.6.6.6.j T } _ | w d B M Z - M.B.w k a n }.6.:.@X!..X                    ",
"                  '..X!.].O z |.B r k d M.g.o z c B z ; U { +. .9 > - - > 9  .@.{ T ; z B c z + w.B.d k y c |.B O (.Y..X X                  ",
"                  OXP.}.&.. C |.! 5 i j w.7.o > c z B > 8 | ` { U o X o X b { ` | 9 > B z c > X 4.w.j i 6 E [.O.. Z }.F.OX                  ",
"                #XoXL.Y.O $ r.J.K ; y 9 4.&.- O k z c B > T { } ) $ + X $ ( } { T : B c z l O - $.4.w u ; K G.S.$ O G.G..X%X                ",
"                *XU.(.B X k _.,.U 8 ; 0 4.O.9 o j z z C C w | {  .: . . ;  .{ | w Z Z z z j o 9 Z 0.q 7 8 U >.).l X z _.L.*X                ",
"              ].&XS.8.X @ 6.Y.c Y x - : N.B k % > B B V :.z ) |  .w . . 9  .| ) z :.C B B > & k c N.8 - x Y c Y.8.$ X 8.S.=X|.              ",
"            S.%XoX,.d X = G.8.j m Y - M w.9 v y O z B B &.&.x o.[ g + + i [ o.v &.=.V B z O 6 v 9 w.V - U m j 6.G.; X 9 ,.'.=XS.            ",
"            Y.*X{.j X X 9 G.#.k k n ;.J.&.: K 0 X j c B Z ,.k X.X.h X X i X.X.k ,.Q B c j X 0 K 8 %.I.:.N k k O.I.f X X 9 `.,X(.            ",
"          G.|.<X}.z X X c I.C c 6.(.|._.j = G = X > B B Z :.Z R ..G o o a ../ C :.Q B B > X = G ; d Y.|._.6.M V G.M @ X k |.<X|.G.          ",
"          Y.XX<XXX>.X $ C I.C >.@X$X|.Y.l # r & X O B j z #.&.g ..H $ $ G ..g %.#.z j B $ X & r % j Y.|.$X$X,.V I.O.# X =.}.<XXXY.          ",
"        r._.XX,X@XG.; = $.I.C S.$X}._.Y.:.# 2 # % @ l > O c &.d P J $ $ J ] w %.B O - z @ % # 2 % :.Y._.}.$XG.V I.=.= = S.}.,XXX_.S.        ",
"        I.|.oX&X}.(.c ; :.S.Q _.|.6.C >.t.M @ # 2 X l >   > Z - y D X X t y - Z >   > l X 2 # @ c t.,.C <.|.).#.S.,.; z Y.}.&XoX|.I.        ",
"        Y.|.=X%X|.Y.B $ ,.r.:.).6.d ; $ #.,.- @ 2 X j j     z > X X     X X > z     j j X 2 @ $ ,.&.* ; d ,.).,.t.<.- B Y.|.#X&X|.(.        ",
"      S._._.&X#X].G.B   6.G.S.S.b I a 6 = &.Z X 2 @ > l     > z             l >     l j @ 2 X B *.; 6 a K b g.G.G.8.G.6.S.].#X&X)._.S.      ",
"      Y.)._.OX#X].r.B   8.Y.Y.~ v x q r t s :.d 1 # > B     - z             z -     B > # 1 9 :.v t r q x v E Y.Y.t.$XG.t.].#XOX_.).Y.      ",
"      ).].`.+XXX_.e.&.  8.Y.r.O ; I s 0 5 6 V :.9 $ > Z       j             k O     V > $ > :.Z 6 5 0 s I ; o t.Y.e.].Y.8._.}.+X`.].).      ",
"    r.|.|.|.^.L.Y.6.t.  e.G.    X u K a p r 7 &.#.$ > Z       d -         - d       C > $ O.&.; r p a K i X     G.t.Y.(.6.Y.L.^.{.|.|.S.    ",
"    I.|.|.G.V   S.,.Y.6.t.8.      & K H G y r j :.z > Z       > *         - >       Z > l :.k r y G H K &       8.t.G.|.,.S.  M G.|.|.I.    ",
"    (.|._.&.    t.,.|.t.8.#.      X u K s H 6   B &.#.l         o         o         l #.&.B   6 H s K a o       Z 8.t.@X,.t.    &.(.|.(.    ",
"    (.).r.      6.,.@X8.&.          7 / P 0       Z &.>                             - &.Z       0 P / 7           *.6.}.,.6.      t.)._.    ",
"  ,._.I.        &.>.@X:.l             > y 3         l                                 j         3 y >             l &.$X,.&.        I._.6.  ",
"  ,.I.            :.@XB                                                                                             B $X:.            I.6.  ",
"  :.6.            #.}.B                                                                                             z _.z             ,.,.  ",
"  j                                                                                                                                     j   ",
"  +                                                                                                                                     +   ",
"                                                                                                                                            ",
"                                                                                                                                            "
};
