/* XPM */
static char *result[] = {
/* columns rows colors chars-per-pixel */
"80 80 222 2 ",
"   c #040405",
".  c #04060A",
"X  c #06080D",
"o  c #0A0B0C",
"O  c #080709",
"+  c #040611",
"@  c #060A13",
"#  c #0B0D13",
"$  c #060B1C",
"%  c #0A0D19",
"&  c #0F1014",
"*  c #0E111B",
"=  c #121314",
"-  c #13151A",
";  c #17181D",
":  c #1A1B1D",
">  c #141104",
",  c #232219",
"<  c #2C260D",
"1  c #070B24",
"2  c #0A0E23",
"3  c #080C2B",
"4  c #0E1123",
"5  c #0D112B",
"6  c #131523",
"7  c #161923",
"8  c #1C1D22",
"9  c #16192C",
"0  c #1A1D2B",
"q  c #121629",
"w  c #090E35",
"e  c #0D1234",
"r  c #0E123C",
"t  c #121634",
"y  c #12163C",
"u  c #15193B",
"i  c #181C37",
"p  c #1E2023",
"a  c #1E212D",
"s  c #1E2133",
"d  c #1E213B",
"f  c #222324",
"g  c #24262A",
"h  c #27282C",
"j  c #2B2B2D",
"k  c #2A2820",
"l  c #222533",
"z  c #2D2E31",
"x  c #22253B",
"c  c #26293A",
"v  c #2F3032",
"b  c #323334",
"n  c #353639",
"m  c #3B3C3C",
"M  c #37383A",
"N  c #393421",
"B  c #453D1A",
"V  c #44390C",
"C  c #403D2F",
"Z  c #554A14",
"A  c #645306",
"S  c #45433B",
"D  c #0A0F47",
"F  c #0D1247",
"G  c #161B45",
"H  c #141A57",
"J  c #090F50",
"K  c #1E2344",
"L  c #1D224C",
"P  c #1D2255",
"I  c #252942",
"U  c #2A2F4D",
"Y  c #232847",
"T  c #2B304B",
"R  c #393C46",
"E  c #252B56",
"W  c #2C335A",
"Q  c #383C56",
"!  c #181F71",
"~  c #1D267C",
"^  c #252C66",
"/  c #2D3564",
"(  c #2D356B",
")  c #353C63",
"_  c #343C6B",
"`  c #353C63",
"'  c #323B75",
"]  c #273077",
"[  c #3E4244",
"{  c #3A405C",
"}  c #3A4169",
"|  c #394375",
" . c #444444",
".. c #44464B",
"X. c #4B4B4C",
"o. c #47494B",
"O. c #4C4D51",
"+. c #4C5152",
"@. c #545454",
"#. c #55565B",
"$. c #5B5B5B",
"%. c #57595A",
"&. c #454963",
"*. c #585B63",
"=. c #444C76",
"-. c #4B5279",
";. c #5D6367",
":. c #5E647E",
">. c #636363",
",. c #66666A",
"<. c #6B6C6C",
"1. c #66686E",
"2. c #686B74",
"3. c #68777A",
"4. c #747474",
"5. c #7B7B7C",
"6. c #767779",
"7. c #FF1B04",
"8. c #FF1504",
"9. c #FF2704",
"0. c #FF3504",
"q. c #8B740D",
"w. c #FF5904",
"e. c #FF4804",
"r. c #FF6A04",
"t. c #FF7604",
"y. c #B99906",
"u. c #A5890A",
"i. c #9C810D",
"p. c #C19C07",
"a. c #FF8704",
"s. c #FF9804",
"d. c #C8A305",
"f. c #D2AD06",
"g. c #DDB206",
"h. c #FFA704",
"j. c #E4BB04",
"k. c #FFB504",
"l. c #FFBA04",
"z. c #FFC404",
"x. c #FDCB04",
"c. c #F5C804",
"v. c #FFD204",
"b. c #EEC404",
"n. c #80807F",
"m. c #2C3680",
"M. c #3D4B9F",
"N. c #246CA8",
"B. c #4A578A",
"V. c #4D5C95",
"C. c #767A85",
"Z. c #6D7A8E",
"A. c #5A6FA2",
"S. c #536293",
"D. c #586EC7",
"F. c #2C96BC",
"G. c #568486",
"H. c #7E8182",
"J. c #738386",
"K. c #789398",
"L. c #6D8589",
"P. c #4796A7",
"I. c #778FA5",
"U. c #2B9BC0",
"Y. c #7288C7",
"T. c #4DD4DC",
"R. c #53E4EC",
"E. c #838384",
"W. c #8B8B8B",
"Q. c #888887",
"!. c #8E8F91",
"~. c #858D97",
"^. c #899697",
"/. c #949494",
"(. c #9B9B9C",
"). c #969799",
"_. c #8F908E",
"`. c #9FA09F",
"'. c #9197A2",
"]. c #89A3A6",
"[. c #9CA4A9",
"{. c #9AB3B4",
"}. c #8DA9B4",
"|. c #A4A4A4",
" X c #ABABAB",
".X c #A4A9AB",
"XX c #ACADB3",
"oX c #ACB2B2",
"OX c #B4B4B4",
"+X c #BBBBBB",
"@X c #B5B8BA",
"#X c #A0A09F",
"$X c #C0BFBF",
"%X c #C0C0BF",
"&X c #B9B9C0",
"*X c #BDC4C4",
"=X c #B7C5C7",
"-X c #B7D3D4",
";X c #ADCDCE",
":X c #B6DDE3",
">X c #BEE1E4",
",X c #C3C3C3",
"<X c #C4CCCC",
"1X c #CCCCCC",
"2X c #C8C7C7",
"3X c #C5DCDC",
"4X c #CCDCDC",
"5X c #C6D2D2",
"6X c #D3D3D3",
"7X c #DCDCDC",
"8X c #D7D8D8",
"9X c #CCE4E4",
"0X c #C8E4E4",
"qX c #D7E4E5",
"wX c #E4E4E4",
"eX c #ECECEC",
"rX c #E1EFEF",
"tX c #E6F2F2",
"yX c #F4F4F4",
"uX c #FCFCFC",
"iX c #C3DFE0",
"pX c None",
/* pixels */
"pXpXpXpXpXpXpXpXpXpXpXpXpXpXpXpXpXpXpXpXpXpXpXpXpXpXpXpXpXpXpXpXpXpXpXpXpXpXpXpXpXpXpXpXpXpXpXpXpXpXpXpXpXpXpXpXpXpXpXpXpXpXpXpXpXpXpXpXpXpXpXpXpXpXpXpXpXpXpXpX",
"pXpXpXpXpXpXpXpXpXpXpXpXpXpXpXpXpXpXpXpXpXpXpXpXpXpXpXpXpXpXpXpXpXpXpXO pXpXpXpXpXpXpXpXO pXpXpXpXpXpXpXpXpXpXpXpXpXpXpXpXpXpXpXpXpXpXpXpXpXpXpXpXpXpXpXpXpXpXpX",
"pXpXpXpXpXpXpXpXpXpXpXpXpXpXpXpXpXpXpXpXpXpXpXpXpXpXpXpXpXpXpXpXpXpXpX  pXpXpXpXpXpXpXpXO pXpXpXpXpXpXpXpXpXpXpXpXpXpXpXpXpXpXpXpXpXpXpXpXpXpXpXpXpXpXpXpXpXpXpX",
"pXpXpXpXpXpXpXpXpXpXpXpXpXpXpXpXpXpXpXpXpXpXpXpXpXpXpXpXpXpXpXpXpXpXf o pXpXpXpXpXpXpXpXO f pXpXpXpXpXpXpXpXpXpXpXpXpXpXpXpXpXpXpXpXpXpXpXpXpXpXpXpXpXpXpXpXpXpX",
"pXpXpXpXpXpXpXpXpXpXpXpXpXpXpXpXpXpXpXpXpXpXpXpXpXpXpXpXpXpXpXpXpX%.v pXpXpXpXpXpXpXpXpXpXj $.pXpXpXpXpXpXpXpXpXpXpXpXpXpXpXpXpXpXpXpXpXpXpXpXpXpXpXpXpXpXpXpXpX",
"pXpXpXpXpXpXpXpXpXpXpXpXpXpXpXpXpXpXpXpXpXpXpXpXpXpXpXpXpXpXpXpX5.<.: pXpXpXpXpXpXpXpXpXpX= ,.5.pXpXpXpXpXpXpXpXpXpXpXpXpXpXpXpXpXpXpXpXpXpXpXpXpXpXpXpXpXpXpXpX",
"pXpXpXpXpXpXpXpXpXpXpXpXpXpXpXpXpXpXpXpXpXpXpXpXpXpXpXpXpXpXpX4._.X.o pXpXpXpXpXpXpXpXpXpXpXo.W.6.pXpXpXpXpXpXpXpXpXpXpXpXpXpXpXpXpXpXpXpXpXpXpXpXpXpXpXpXpXpXpX",
"pXpXpXpXpXpXpXpXpXpXpXpXpXpXpXpXpXpXpXpXpXpXpXpXpXpXpXpXpXpXpX/.5.j pXpXpXpXpXpXpXpXpXpXpXpXk 6./.pXpXpXpXpXpXpXpXpXpXpXpXpXpXpXpXpXpXpXpXpXpXpXpXpXpXpXpXpXpXpX",
"pXpXpXpXpXpXpXpXpXpXpXpXpXpXpXpXpXpXpXpXpXpXpXpXpXpXpXpXpXpXW./.@.; pXpXpXpXpXpXpXpXpXpXpXpX= @./.W.pXpXpXpXpXpXpXpXpXpXpXpXpXpXpXpXpXpXpXpXpXpXpXpXpXpXpXpXpXpX",
"pXpXpXpXpXpXpXpXpXpXpXpXpXpXpXpXpXpXpXpXpXpXpXpXpXpXpXpXpXpX XQ.m pXpXpXpXpXpXpXpXpXpXpXpXpXpXM E.OXpXpXpXpXpXpXpXpXpXpXpXpXpXpXpXpXpXpXpXpXpXpXpXpXpXpXpXpXpXpX",
"pXpXpXpXpXpXpXpXpXpXpXpXpXpXpXpXpXpXpXpXpXpXpXpXpXpXpXpXpX XOX4.j pXpXpXpXpXpXpXpXpXpXpXpXpXpXf 4. X XpXpXpXpXpXpXpXpXpXpXpXpXpXpXpXpXpXpXpXpXpXpXpXpXpXpXpXpXpX",
"pXpXpXpXpXpXpXpXpXpXpXpXpXpXpXpXpXpXpXpXpXpXpXpXpXpXpXpXpX|.|.>.: pXpXpXpXpXpXpXpXpXpXpXpXpXpX: >.|.|.pXpXpXpXpXpXpXpXpXpXpXpXpXpXpXpXpXpXpXpXpXpXpXpXpXpXpXpXpX",
"pXpXpXpXpXpXpXpXpXpXpXpXpXpXpXpXpXpXpXpXpXpXpXpXpXpXpXpX#X_.W.$.pXpXpXpXpXpXpXpX4.pXpXpXpXpXpXpX%.Q.W.|.pXpXpXpXpXpXpXpXpXpXpXpXpXpXpXpXpXpXpXpXpXpXpXpXpXpXpXpX",
"pXpXpXpXpXpXpXpXpXpXpXpXpXpXpXpXpXpXpXpXpXpXpXpXpXpXpXpX,X#X<.@.pXpXpXpXpXpXpX5.E.>.pXpXpXpXpXpXX.<.(.,XE.pXpXpXpXpXpXpXpXpXpXpXpXpXpXpXpXpXpXpXpXpXpXpXpXpXpXpX",
"pXpXpXpXpXpXpXpXpXpXpXpXpXpXpXpXpXpXpXpXpXpXpXpXpXpXpX|.1X/.>.n pXpXpXpXpXpXm 4.5.S pXpXpXpXpXpXb >./.1X XpXpXpXpXpXpXpXpXpXpXpXpXpXpXpXpXpXpXpXpXpXpXpXpXpXpXpX",
"pXpXpXpXpXpXpXpXpXpXpXpXpXpXpXpXpXpXpXpXpXpXpXpXpXpXpX,X2X_.$.j pXpXpXpXpXpXm 4.<. .pXpXpXpXpXpXh $.W.,X,XpXpXpXpXpXpXpXpXpXpXpXpXpXpXpXpXpXpXpXpXpXpXpXpXpXpXpX",
"pXpXpXpXpXpXpXpXpXpXpXpXpXpXpXpXpXpXpXpXpXpXpXpXpXpX/.6X@XW.@.pXpXpXpXpXpXj +././.@.j pXpXpXpXpXpX@.Q.OX6X).pXpXpXpXpXpXpXpXpXpXpXpXpXpXpXpXpXpXpXpXpXpXpXpXpXpX",
"pXpXpXpXpXpXpXpXpXpXpXpXpXpXpXpXpXpXpXpXpXpXpXpXpXpX,X1X|.E.@.pXpXpXpXpXpX .>.OX,X>.o.pXpXpXpXpXpXX.E.|.1X2XpXpXpXpXpXpXpXpXpXpXpXpXpXpXpXpXpXpXpXpXpXpXpXpXpXpX",
"pXpXpXpXpXpXpXpXpXpXpXpXpXpXpXpXpXpXpXpXpXpXpXpXpX@.6X1X(.5.o.pXpXpXpXpXpX$.6. X@X5.>.pXpXpXpXpXpX .4.).2X6X$.pXpXpXpXpXpXpXpXpXpXpXpXpXpXpXpXpXpXpXpXpXpXpXpXpX",
"pXpXpXpXpXpXpXpXpXpXpXpXpXpXpXpXpXpXpXpXpXpXpXpXpX6.(.2X/.<.b pXpXpXpXpXpX6.W.`.|.Q.5.pXpXpXpXpXpXb <./.2X|.5.pXpXpXpXpXpXpXpXpXpXpXpXpXpXpXpXpXpXpXpXpXpXpXpXpX",
"pXpXpXpXpXpXpXpXpXpXpXpXpXpXpXpXpXpXpXpXpXpXpXpX<.6Xn.|./.,.f pXpXpXpXpXf _.(.5.n.)._.j pXpXpXpXpXf >./.|.n.1X4.pXpXpXpXpXpXpXpXpXpXpXpXpXpXpXpXpXpXpXpXpXpXpXpX",
"pXpXpXpXpXpXpXpXpXpXpXpXpXpXpXpXpXpXpXpXpXpXpXpX(.wX@X<.W.,.8 pXpXpXpXpX, _.|.Z.G.#X_.f pXpXpXpXpX; >.W.<.OXwX.XpXpXpXpXpXpXpXpXpXpXpXpXpXpXpXpXpXpXpXpXpXpXpXpX",
"pXpXpXpXpXpXpXpXpXpXpXpXpXpXpXpXpXpXpXpXpXpXpX@.,XwX1XE.>.>.6 pXpXpXpXpXf _.K.T.T.K.).k pXpXpXpXpX6 *.>.5.2XwX2X%.pXpXpXpXpXpXpXpXpXpXpXpXpXpXpXpXpXpXpXpXpXpXpX",
"pXpXpXpXpXpXpXpXpXpXpXpXpXpXpXpXpXpXpXpXpXpXpXQ.8X8X2X(.,.X.= pXpXpXpXpXf <.P.R.R.P.4.f pXpXpXpXpX= X.,.(.,X8X6X/.pXpXpXpXpXpXpXpXpXpXpXpXpXpXpXpXpXpXpXpXpXpXpX",
"pXpXpXpXpXpXpXpXpXpXpXpXpXpXpXpXpXpXpXpXpXpXo.,X7X1X+X(.4. .D pXpXpXpX: 6.~.F.T.T.U.~.6.p pXpXpXpXD R 4.(.+X1X7X2XX.pXpXpXpXpXpXpXpXpXpXpXpXpXpXpXpXpXpXpXpXpXpX",
"pXpXpXpXpXpXpXpXpXpXpXpXpXpXpXpXpXpXpXpXpXpXE.wXwX2X X(.4.Q J pXpXpXpXj Q.C.N.I.}.N.Z.Q.b pXpXpXpXD Q 4.).XX2X7XwXW.pXpXpXpXpXpXpXpXpXpXpXpXpXpXpXpXpXpXpXpXpXpX",
"pXpXpXpXpXpXpXpXpXpXpXpXpXpXpXpXpXpXpXpXpXpX+XeXwX1X|./.4.n % pXpXpXpXS _.-.S.5X2XS.=./.o.pXpXpXpX$ z 4._.|.1XwXeX,XpXpXpXpXpXpXpXpXpXpXpXpXpXpXpXpXpXpXpXpXpXpX",
"pXpXpXpXpXpXpXpXpXpXpXpXpXpXpXpXpXpXpXpXpX4.6XwX7X2X XQ.<.g D D pXpXpX@.(.=.~.6X6X'.&.).%.pXpXpXpXD f ,.Q. X,X7XwX8X6.pXpXpXpXpXpXpXpXpXpXpXpXpXpXpXpXpXpXpXpXpX",
"pXpXpXpXpXpXpXpXpXpXpXpXpXpXpXpXpXpXpXpXpX X6X(.*.O.E.@.z y D @ pXpXpX$.(.&.XX6X6XOX&.).>.pXpXpXX D y j +.E.&.#.(.6X XpXpXpXpXpXpXpXpXpXpXpXpXpXpXpXpXpXpXpXpXpX",
"pXpXpXpXpXpXpXpXpXpXpXpXpXpXpXpXpXpXpXpXpX6.;.7 e t 0 H q H 3 w pXpX> >./.#.@X5.6.+X*.!.<.& pXpXw 3 H 9 H a 0 t - *.5.pXpXpXpXpXpXpXpXpXpXpXpXpXpXpXpXpXpXpXpXpX",
"pXpXpXpXpXpXpXpXpXpXpXpXpXpXpXpXpXpXpXpXpXpX+ % y 7 i E i y r 3 pXpX= 4.Q.4.).@.%._.6.Q.6.; pXpX3 D t i E d 8 y 2 + pXpXpXpXpXpXpXpXpXpXpXpXpXpXpXpXpXpXpXpXpXpX",
"pXpXpXpXpXpXpXpXpXpXpXpXpXpXpXpXpXpXpXpX>./.5.I I  .1.4.X.6 F 1 + pX: 4.W.).<.#X.X>.(.Q.5., pX. $ F 6 ..<.1. .I x 6./.<.pXpXpXpXpXpXpXpXpXpXpXpXpXpXpXpXpXpXpXpX",
"pXpXpXpXpXpXpXpXpXpXpXpXpXpXpXpXpXpXpX$. X7XwX$XOX@X#X6.@.y r 3 +   j 5.#X+XX.,X8XX.OX#Xn.v   . 3 t y X.5.#XOXOX$XwX7XOX>.pXpXpXpXpXpXpXpXpXpXpXpXpXpXpXpXpXpXpX",
"pXpXpXpXpXpXpXpXpXpXpXpXpXpXpXpXpXpXpX_.6X6X8X8X6X%X(.4.X.7 q 5 @   m Q.|. X .7XeX .|. XQ.S   @ 5 q q o.<.).$X6X8X6X6X1X).pXpXpXpXpXpXpXpXpXpXpXpXpXpXpXpXpXpXpX",
"pXpXpXpXpXpXpXpXpXpXpXpXpXpXpXpXpXpXpX).1X6X1X,X@XOX/.,.o.= t 6 @ O X.Q. X). .yXeX ._. XQ.O.O o 4 t =  .,./.OX+X$X6X6X1X(.pXpXpXpXpXpXpXpXpXpXpXpXpXpXpXpXpXpXpX",
"pXpXpXpXpXpXpXpXpXpXpXpXpXpXpXpXpXpXpX*X7X1X,X&X@X|.Q.>.b = L - = # @.E. XW.S eXeXX.Q. XQ.#.& - ; L - v >.E.#XOX$X$X1X7X<X+.pXpXpXpXpXpXpXpXpXpXpXpXpXpXpXpXpXpX",
"pXpXpXpXpXpXpXpXpXpXpXpXpXpXpXpXpXpX$.9XtXeX6XXXOX X5.@.: g E f : = $.5. XW. .wXyXX.Q. Xn.>.- = f Y g ; @.5. XOXoX6XwXtX9X>.pXpXpXpXpXpXpXpXpXpXpXpXpXpXpXpXpXpX",
"pXpXpXpXpXpXpXpXpXpXpXpXpXpXpXpXpXpX<.1XwXtXrX5X X/.5.X.= U L j = : >.n.|./.X.eXeXX.W. Xn.,.: & j L U =  .4./.XX5XtXtXwX6X4.pXpXpXpXpXpXpXpXpXpXpXpXpXpXpXpXpXpX",
"pXpXpXpXpXpXpXpXpXpXpXpXpXpXpXpXpXpXQ.8X7X8X8X9X-X[.4.S = W c v o : >.E.|.).X.yXeX@./. XE.,., o b c / ; m 6.[.:X9X6X8X7X8X/.pXpXpXpXpXpXpXpXpXpXpXpXpXpXpXpXpXpX",
"pXpXpXpXpXpXpXpXpXpXpXpXpXpXpXpXpXj |.6XwX7X2X&X&X}.I.R : } c b o : >.n.|. X%.wXeX$.|. Xn.>.f O b c _ : R Z.}.&X+X,X7X7X6X Xj pXpXpXpXpXpXpXpXpXpXpXpXpXpXpXpXpX",
"pXpXpXpXpXpXpXpXpXpXpXpXpXpXpXpXpX .+X6X8X7X,XOX X/.2.v 8 =.c v O , $.5.#XOX<.7XeX4.OX|.5.$.k   j c =.f z ,.!. XOX,X7X8X1X$Xo.pXpXpXpXpXpXpXpXpXpXpXpXpXpXpXpXpX",
"pXpXpXpXpXpXpXpXpXpXpXpXpXpXpXpXpX>.2X6X1X|.2.OX|./.,.k f B.b :   j >.4.).+XW.eXwXQ.OX(.4.>.b   : h B.h f >./.|.OX4.(.1X8X1X1.pXpXpXpXpXpXpXpXpXpXpXpXpXpXpXpXpX",
"pXpXpXpXpXpXpXpXpXpXpXpXpXpXpXpXpXQ.1X8XOXc $.+X(.Q.6.R h U g o   v >.4._.OX(.eXwX(.OX/.4.>.b   O h T j m 4.Q.#X+X*.l .X8X1X/.pXpXpXpXpXpXpXpXpXpXpXpXpXpXpXpXpX",
"pXpXpXpXpXpXpXpXpXpXpXpXpXpXpXpXpX X8X6X*.e ,.,X/.!.5...XXOX4.n   b $.4._. X|.7XeX X X_.6.>.b O b 4.|.XXo.6.!._.,X4.e *.1X8XOXpXpXpXpXpXpXpXpXpXpXpXpXpXpXpXpXpX",
"pXpXpXpXpXpXpXpXpXpXpXpXpXpXpXpX..$X7X|.l 5 1.@X).W.2.M.XXuXuXwX4.b >.4.Q. X XwXeX X X_.4.>.M <.wXyXuX@XV.B.W.(.@X2.5 0 `.8X2XX.pXpXpXpXpXpXpXpXpXpXpXpXpXpXpXpX",
"pXpXpXpXpXpXpXpXpXpXpXpXpXpXpXpX>.6X6X>.t = %.|..XC.D.| C.eXyXuXeX<.o.6.E.|.|.wXwX|.|.E.6.X.,.eXyXyXuXW.' D.C.|. X>.= t *.6X6X,.pXpXpXpXpXpXpXpXpXpXpXpXpXpXpXpX",
"pXpXpXpXpXpXpXpXpXpXpXpXpXpXO.2.n.8X&XT u 7 v (.(.Y.V.n @.wXuXuXeX1.9 @.E.(.#X6X6X#X#XE.$.0 ;.eXyXyXeX$.b B.Y.).#Xb 7 i I @X8XQ.<.X.pXpXpXpXpXpXpXpXpXpXpXpXpXpX",
"pXpXpXpXpXpXpXpXpXpXpXpXpX^.XX(.).6X).L 0 0 h /.C.A...b b +XuXwXQ.T ^ p <./.).$X1X/./.<.f ^ U n.yXuX@Xb z ..A.C.(.j 0 s G !.8X(.#X{.].pXpXpXpXpXpXpXpXpXpXpXpXpX",
"pXpXpXpXpXpXpXpXpXpXpXpX^.;XoX X|.8X2.G a d p ).;.h [ b j <.@X2.Q Q _ Y j C.W.OX+XW.E.j K / { Q 2.+X<.z b  .j *.'.f d a G 1.6X.X|.@X;X^.pXpXpXpXpXpXpXpXpXpXpXpX",
"pXpXpXpXpXpXpXpXpXpXpXpX;X^.,X>.$.6X$.t a x a ^.I.- [ b v v p p _ R } / 8 S 5.H.H.6. .8 ( } R } s p b b b m & K.].0 x a e @.6X>.$.6X~.;XpXpXpXpXpXpXpXpXpXpXpXpX",
"pXpXpXpXpXpXpXpXpXpXpX;X{.|.@X& f +X;.4 i g 8 I.K.O h b v b p ; U ) { } Y = m : ; m = I } { } E - p b z v j X J.].8 g i 3 @.,Xj O  X|.{.;XpXpXpXpXpXpXpXpXpXpXpX",
"pXpXpXpXpXpXpXpXpXpX=X-XE.6XX.  : OX2.$ u g f L.J.o = v j v v = 0 _ Q } / :   X o   - W } { ( a = z b j v ; X 4.K.p g u % ,.+X8   [ 1XH.-X=XpXpXpXpXpXpXpXpXpXpX",
"pXpXpXpXpXpXpXpXpXpX0X].[.#XO X  .%X&.* t s a 3.>.& O f j j n g = E ) } _ s   X O   a _ Q ) W = f n j j g O & %.Z.f i t * ..&X+.X . /.|.^.9XpXpXpXpXpXpXpXpXpXpX",
"pXpXpXpXpXpXpXpXpX*X0X6.2Xn   # Q.(.I a * t p ;.o.:   : j j j m p 0 ' Q } I o   X o x } ) ' s 8 m j j j : O 7  .1.8 i - 0 Y ).!.& . j +X4.3X<XpXpXpXpXpXpXpXpXpX",
"pXpXpXpXpXpXpXpXpX4XoXW.H.  X v oX<.c K = 6 9 C.[ a & & j j j m o.: W _ ) W &     & W ) _ / ; o.m j j z & # f M J.0 6 = c I >.OXn @   5./.{.4X(.pXpXpXpXpXpXpXpX",
"pXpXpXpXpXpXpXpXOX9XE./.f . % 4..XM l T : & 8 K.j h 6 @ j v v M %.M x ' ` / =     * W ) | x b $.M b b j # 6 l j K.a # : U x v |.5.# . f (.n.9XOXpXpXpXpXpXpXpXpX",
"pXpXpXpXpXpXpXH.<X4X,.X.O . 7 /.6.f g U g # m L.p l G X : b b M o.$.p _ ( / 8 .   ; / ( ' a $.X.n v v p X G l : 3.[ o a T h p 3.(.8 O . ..,.3X5XQ.pXpXpXpXpXpXpX",
"pXpXpXpXpXpXpX(.4X3Xo.@ X . g (.o.g g x l  ./.X.; d u X & j j b m *.v Y m.( 9   . 7 ( ' U h $.m b v j & X u d : o.).o.z s h h  .(.v . . @ m 5X9X(.pXpXpXpXpXpXpX",
"pXpXpXpXpXpXW.OX0X5XX.. . + n ).M z v $./.OX(.p - G t #   j b n m @.o.a m.^ 9 X X q ^ m.s ..@.m M b j o X 9 G - : ).OX).;.v j n ).R @ . . o.<X0XOXW.pXpXpXpXpXpX",
"pXpXpXpXpXpX`.,X0X,X4.X + $  .(.m n Q.1X,X+X!.- @ G 4 @   , b b m o.@.f ^ ] t X X 9 ~ ^ p @.o.n v b f   @ 4 F % & Q.OX,X1X_.n n ).O.@ X . ,.,X9X,X|.pXpXpXpXpXpX",
"pXpXpXpXpX6. X*X9X,X`.: @ * @.(.m O.,X1X+XOX).j . w $ @ + # b = ; M X.b i ~ u % # t ~ K b O.M : = v = X @ $ e + f /. X+X1X,X%.n ).$.* @ - (.$X9X*X X5.pXpXpXpXpX",
"pXpXpXpXpX(. X=X9X%XOX..& * >.!.b 5.,X,X`././.>.& 3 @ $ 1 X b = pX,  .v 6 ! F % @ F ! 6 z  ., pX= b o $ $ @ 3 % $./.(.(.%X2XE.b _.,.; % S  X,X9X-X X(.pXpXpXpXpX",
"pXpXpXpXpX XOX-X3X,XOX<.- ; <.E.n |.*XH.h f X.6.[ + @ 1 1 O b : pXpXv j o r 1     1 r # f n & pX= b X 1 1 @ X m 5.@.g g 6.%X.Xn n.4.7 = >.OX,X3X-XOX X<.pXpXpXpX",
"pXpXpXpXn. XOXiX5XOX X,.& - 4.H.X.OX5.j 8 = # o.>.: . 1 1   j p pXpX: v X O < pXpX> O   b : pXpX: b   1 1 . - >.X.# & : j 4.OX@.6.6.; # >. XOX5X4X@X XQ.pXpXpXpX",
"pXpXpXpX(.|. X0X5XOX#X%.pX= 4.W.5.(.R x Y t 2 = X.o.O 1 1 O j f pXpXo b , c.v.v.v.v.pX, b # pXpXf j X 1 1    .@.= 2 t d I n ).C.Q.5.,.W.%.#XOX1X0XoX X(.pXpXpXpX",
"pXpXpXH. X X X>X<X@X(.X.pXpX5.#X|.#.K I i u F r 0 @.f $ 2 + f v pXpX  h B c.x.k.x.v.v.Z h O pXpXj j @ % $ 8 %.a r F y i I L +.|.#Xn.|.8X@./.OX<X>X.X X XE.pXpXpX",
"pXpXpX/.OXoX X:X*XOX_.X.pXpXn.#X_.p # x i 9 - 5 r R %.h @ # f n pXpXpX8 N j.l.0.w.x.c.Z f A pXpXn f @ % g $.m w 5 * 0 i x # : W.#XE.n.7X@.W.OX+X:XoX XOX).pXpXpX",
"pXpXpX(.@XOX@X:X X XE.@.pXj E.).>.pXO 6 x i F e 6 = o.X.- # p m i.v.b.Z f d.v.r.7.l.f.k B j.v.y.S f # = X.X.- 2 e G u x 6 O pX>.).E.<.7X$.5. XoX:X@XOX+X|.pXpXpX",
"pXpXpX X+XOX X3.$./.4.$.pXj Q.n.pXpXpX@ G E u t G t f @.n o f S y.v.v.q., d.v.r.9.z.y.: u.v.v.f.S f o b %.f 5 G t u H L @ pXpXpX5.Q.>.7X>.4./.>.3..X@XOX XpXpXpX",
"pXpXE. XOXOX;.pXpXE.<.,.6Xo.Q.%.pXpXpXO = i G H t 5 2 b @.h j b f.x.l.g.N y.z.0.r.v.d., d.v.v.j.C j f @.n 4 5 t H G x = O pXpXpX@.Q.@.wX<.<.E.pXpX$. X+XOXQ.pXpX",
"pXpX/.OXOXQ.pXpXpX4.<.<.6XX.4.pXpXpXpXpX% H I i H e pXpXm @.X., b.h.0.k.A u.l.9.t.v.y.A x.v.x.c.Z ..@. .pXpXe H i Y P % pXpXpXpXpX4.o.6X5.,.4.pXpXpXn.OXOX/.pXpX",
"pXpX/.OX(.pXpXpXpX@.>.E.6X .X.pXpXpXpXpXpX9 E E 6 pXpXpX: o. .< v.h.8.s.y.y.x.0.w.v.d.p.h.x.v.v.V R X.: pXpXpX6 P E 9 pXpXpXpXpXpXX. .%XE.$.%.pXpXpXpX(.OX).pXpX",
"pXpX/. X6.pXpXpXpXpX@.W.%Xj v pXpXpXpXpXpXpX: t 5 pXpXpXpXb f pXv.l.7.t.v.c.v.t.9.l.v.h.9.s.v.v.pXf b pXpXpXpX5 t : pXpXpXpXpXpXpXpXj OX!.%.S pXpXpXpX4. X).pXpX",
"pXpX/.Q.pXpXpXpXpXpXo.(.|.= pXpXpXpXpXpXpXpXpXpXpXpXpXpXpXpXO pXv.z.0.0.k.v.v.t.8.h.c.t.8.s.v.x.pXo pXpXpXpXpXpXpXpXpXpXpXpXpXpXpXpX& |. X..pXpXpXpXpXpXn.(. .pX",
"pXo.5.pXpXpXpXpXpXpXj |./.O pXpXpXpXpXpXpXpXpXpXpXpXpXpXpXpXpXpXpXv.k.9.e.z.x.w.w.l.e.7.r.x.v.v.pXpXpXpXpXpXpXpXpXpXpXpXpXpXpXpXpXpXpXQ.`.z pXpXpXpXpXpXpXC.X.pX",
"pXm  .pXpXpXpXpXpXpX= pX<.pXpXpXpXpXpXpXpXpXpXpXpXpXpXpXpXpXpXpXpXv.v.t.7.k.v.l.z.h.7.a.v.x.v.pXpXpXpXpXpXpXpXpXpXpXpXpXpXpXpXpXpXpXpXpXpX> pXpXpXpXpXpXpXS m pX",
"pX= pXpXpXpXpXpXpXpXpXpXpXpXpXpXpXpXpXpXpXpXpXpXpXpXpXpXpXpXpXpXpXpXv.r.9.z.v.v.x.a.7.k.v.x.pXpXpXpXpXpXpXpXpXpXpXpXpXpXpXpXpXpXpXpXpXpXpXpXpXpXpXpXpXpXpXpX= pX",
"pX  pXpXpXpXpXpXpXpXpXpXpXpXpXpXpXpXpXpXpXpXpXpXpXpXpXpXpXpXpXpXpXpXv.a.7.t.x.v.s.7.0.l.v.pXpXpXpXpXpXpXpXpXpXpXpXpXpXpXpXpXpXpXpXpXpXpXpXpXpXpXpXpXpXpXpXpX  pX",
"pXpXpXpXpXpXpXpXpXpXpXpXpXpXpXpXpXpXpXpXpXpXpXpXpXpXpXpXpXpXpXpXpXpXpXz.r.7.a.v.k.a.l.v.pXpXpXpXpXpXpXpXpXpXpXpXpXpXpXpXpXpXpXpXpXpXpXpXpXpXpXpXpXpXpXpXpXpXpXpX",
"pXpXpXpXpXpXpXpXpXpXpXpXpXpXpXpXpXpXpXpXpXpXpXpXpXpXpXpXpXpXpXpXpXpXpXpXx.h.k.v.x.v.pXpXpXpXpXpXpXpXpXpXpXpXpXpXpXpXpXpXpXpXpXpXpXpXpXpXpXpXpXpXpXpXpXpXpXpXpXpX"
};
