/* XPM */
static char *b2967cccd4f441fa9db8c96799cb49de[] = {
/* columns rows colors chars-per-pixel */
"70 70 223 2 ",
"   c None",
".  c #040506",
"X  c #04060B",
"o  c #07080B",
"O  c #0B0B0C",
"+  c #080808",
"@  c #040712",
"#  c #060A14",
"$  c #0B0D13",
"%  c #070A1C",
"&  c #0A0D1A",
"*  c #0E111B",
"=  c #0E1014",
"-  c #131315",
";  c #12141B",
":  c #1A1B1C",
">  c #15181D",
",  c #100E0A",
"<  c #211C0A",
"1  c #312D1C",
"2  c #070B23",
"3  c #070C2A",
"4  c #0A0E2B",
"5  c #0A0E22",
"6  c #0D112B",
"7  c #0E1225",
"8  c #111323",
"9  c #1B1D23",
"0  c #12152B",
"q  c #16192C",
"w  c #1B1E2B",
"e  c #171A22",
"r  c #0E1235",
"t  c #0C113E",
"y  c #121534",
"u  c #151934",
"i  c #1A1D35",
"p  c #11153B",
"a  c #15193B",
"s  c #1A1E3B",
"d  c #070C37",
"f  c #1F2024",
"g  c #1F2128",
"h  c #1F2234",
"j  c #1C213C",
"k  c #222324",
"l  c #23252B",
"z  c #27282A",
"x  c #2B2B2D",
"c  c #292927",
"v  c #222535",
"b  c #2D2E31",
"n  c #22253A",
"m  c #25283D",
"M  c #282A39",
"N  c #2E3033",
"B  c #2E313D",
"V  c #323334",
"C  c #35363A",
"Z  c #36383B",
"A  c #3B3B3C",
"S  c #3E3D37",
"D  c #33322B",
"F  c #403F3C",
"G  c #463C12",
"H  c #66550B",
"J  c #695912",
"K  c #7A650A",
"L  c #474331",
"P  c #5D4F14",
"I  c #0D1243",
"U  c #0A1049",
"Y  c #151944",
"T  c #161A48",
"R  c #141A54",
"E  c #1E2244",
"W  c #1C214E",
"Q  c #1D2257",
"!  c #252A44",
"~  c #292C43",
"^  c #252B4D",
"/  c #202546",
"(  c #2E3247",
")  c #3D3E41",
"_  c #33354B",
"`  c #353848",
"'  c #252B52",
"]  c #232952",
"[  c #2C3253",
"{  c #2B325A",
"}  c #393D53",
"|  c #393E5B",
" . c #373C57",
".. c #1A2061",
"X. c #2E366A",
"o. c #343B65",
"O. c #383F65",
"+. c #323A6B",
"@. c #333A64",
"#. c #242C78",
"$. c #323C77",
"%. c #2C3671",
"&. c #3F4043",
"*. c #3C405A",
"=. c #3B4161",
"-. c #444444",
";. c #444549",
":. c #47484A",
">. c #4B4C4C",
",. c #4D4E50",
"<. c #4B4D5A",
"1. c #4F5055",
"2. c #545454",
"3. c #54555B",
"4. c #5B5B5C",
"5. c #50504F",
"6. c #595A65",
"7. c #565A7A",
"8. c #485473",
"9. c #5B6369",
"0. c #5D6175",
"q. c #636464",
"w. c #65676C",
"e. c #6C6C6C",
"r. c #676867",
"t. c #666A76",
"y. c #69777B",
"u. c #747474",
"i. c #7C7C7C",
"p. c #75767A",
"a. c #FF2204",
"s. c #FF2D04",
"d. c #FF3404",
"f. c #957C0C",
"g. c #FF4604",
"h. c #FF5804",
"j. c #FF6B04",
"k. c #FF6404",
"l. c #FF7C04",
"z. c #FF7204",
"x. c #9C8106",
"c. c #A78A06",
"v. c #B89709",
"b. c #FF8C04",
"n. c #FF8404",
"m. c #FF9B04",
"M. c #FF9404",
"N. c #D3AD06",
"B. c #D3AD06",
"V. c #FFA304",
"C. c #FFB704",
"Z. c #E9AD05",
"A. c #FFC404",
"S. c #FECC04",
"D. c #F2C704",
"F. c #FFD204",
"G. c #FFDA04",
"H. c #E8C004",
"J. c #2C5C96",
"K. c #4E5786",
"L. c #596A98",
"P. c #777B88",
"I. c #6D758C",
"U. c #4E60B5",
"Y. c #697EC1",
"T. c #3A8CB0",
"R. c #5D929D",
"E. c #73868B",
"W. c #6F8A91",
"Q. c #6C80BF",
"!. c #51BDC3",
"~. c #47CBD8",
"^. c #4EDDE6",
"/. c #838484",
"(. c #85868B",
"). c #8C8C8C",
"_. c #848B8B",
"`. c #90908F",
"'. c #8D8F92",
"]. c #838699",
"[. c #8E9292",
"{. c #899697",
"}. c #939393",
"|. c #9B9C9C",
" X c #93989B",
".X c #908F8F",
"XX c #A09F9F",
"oX c #9E9EA2",
"OX c #8E9FB1",
"+X c #96A6A7",
"@X c #92ADB6",
"#X c #A3A3A4",
"$X c #ABABAB",
"%X c #A7A8A8",
"&X c #ADB5B6",
"*X c #B4B4B4",
"=X c #B4BABA",
"-X c #BBBCBC",
";X c #B7B7B8",
":X c #AABFC0",
">X c #A9C3C4",
",X c #BCC4C4",
"<X c #B5C7C9",
"1X c #BBD8DA",
"2X c #B6DAE1",
"3X c #C3C3C3",
"4X c #C3CCCC",
"5X c #CBCBCB",
"6X c #C4DADB",
"7X c #C7D7D7",
"8X c #D4D4D4",
"9X c #DBDBDB",
"0X c #D5DFDF",
"qX c #CCE2E2",
"wX c #C7E2E2",
"eX c #DEE3E3",
"rX c #DAE8E8",
"tX c #E2E2E2",
"yX c #EBEBEA",
"uX c #E4EBEB",
"iX c #F5F5F5",
"pX c #FBFBFB",
"aX c #EAF3F3",
/* pixels */
"                                                                                                                                            ",
"                                                              +             +                                                               ",
"                                                            O                 O                                                             ",
"                                                          A :                 : A                                                           ",
"                                                        e.4.-                 - 4.u.                                                        ",
"                                                        ).-.                    A ).                                                        ",
"                                                      ).p.k                     k u.).                                                      ",
"                                                    ).}.2.                        >.}.).                                                    ",
"                                                    $X/.V                         V /.$X                                                    ",
"                                                  |.;Xu.k                         k e.;X|.                                                  ",
"                                                  ).|.q.                            q.|.[.                                                  ",
"                                                |.$Xp.4.            e./.            4.p.$X#X                                                ",
"                                                3X$Xe.-.          V u.p.A           A e.%X3X                                                ",
"                                              ).5X%Xq.V           V u.e.V           V q.#X5X}.                                              ",
"                                              ;X3X|.4.k           >.}.}.>.            4.|.3X;X                                              ",
"                                            i.8X;X).4.          V e.%X;Xe.V           4.).;X8X/.                                            ",
"                                            u.8X*X/.>.          >./.%X%X/.>.          >.i.$X8Xp.                                            ",
"                                          e.|.|.$Xp.A           q.|..X}.|.q.          A p.%X|.|.e.                                          ",
"                                          |.9X(.).p.b           q.%Xy.y.%Xe.          x p.)./.9X#X                                          ",
"                                        >.3X9X*Xr.e.v         O q. X!.!. Xe.-         l e.q.$X9X3X2.                                        ",
"                                        /.8X8X;X/.4.9         - 2.R.^.^.R.4.-         9 2.i.;X8X8X).                                        ",
"                                        -X9X5X*X).3.Y         >.}.T.~.~.T.}.>.        Y 2./.*X5X9X3X                                        ",
"                                      i.tXtX3X#X).3.I         q.(.J.OX@XJ.(.q.        I 1./.#X3XtXtX/.                                      ",
"                                      $XyXtX5X|./.>.5         p.y.K.5X5XK.t.p.:       5 :./.|.3XtXyX;X                                      ",
"                                    p.5X8X#X X}.q.b U 4     k /.t.P.8X8X].0.).k     4 U b q.}. X+X8X8Xi.                                    ",
"                                    i.|.;.u M ` s p I 2     c ).9.oX$X%X#X6.}.x     % t p i _ M u &.|./.                                    ",
"                                      * % p e W E Y r d     x }.w.oX4.2.oXw.}.V     d r Y E W e p & *                                       ",
"                                    /.p.( ! ;.w.4.g I 2 X   A ).)./.).}.i.).}.    X 2 I w 4.w.:.~ ~ u.(.                                    ",
"                                  ).5XtX3X;X*X}.q.M t 4 @ + >.}.;Xq.;X3Xq.;X}.2.+ X 4 t n q.`.*X;X3XtX8X}.                                  ",
"                                  ;X8X8X8X5X;X).4.z 7 6 @ o 4.}.*X>.8X9X>.*X|.q.O @ 6 8 l 4.).;X5X8X8X8X;X                                  ",
"                                e.3X5X5X3X;X%X/.2.k u 0 $ - q.|.%X-.tX9X-.%X|.e.; $ 8 u : 2./.%X;X3X5X5X3Xe.                                ",
"                                _.rXeX5X;X;X|.p.-.; ^ 9 ; : e.}.$X-.8XtX-.%X}.u.k - 9 ^ ; -.u.|.;X;X5XtXrX{.                                ",
"                                }.eXaXuX3X%X|.e.x 9 ' z - c u.}.%X-.9XtX>.%X}.u.x - z ' w c e.}.%X3XuXaXeX|.                                ",
"                                %X9X9X0XqX<X Xq.k n ' x O x u.}.$X2.tX9X>.%X}.u.V O x ' m k q. X<XqX0X9X9X$X                                ",
"                              >.-X9XtX5X-X<XOXI.w ( [ b o x e.}.*Xq.8XtXq.*X}.e.V o x ( [ 9 I.OX<X-X5XtX9X-X>.                              ",
"                              q.5X8X9X3X*X%X).3.: | _ c + V q.).;Xi.8X9Xi.;X).e.V + c ( =.: 3.).%X*X3X9X8X5Xe.                              ",
"                              /.8X8X%X6.$X#X).2.: | ` : + A q./.*X|.9X9X}.*X/.e.) + : ` O.: 2.).#X*Xq.#X8X8X).                              ",
"                              %X8X3X} ;.-X|.(.e.-.6.C O . A e.i.%X%X9X9X%X%X/.e.-.. o V 3.-.r./.}.-X:._ 3X8X$X                              ",
"                            >.3X8XP.6 <.;X}.`.6.I.yX8X}.x A e.i.#X$X9XtX$X#X/.e.-.x |.5XtXI.6.).}.;X6.6 p.8X3X2.                            ",
"                            e.8X3X} 8 ;.%X#XP.U.7.9XiXpX3X>.q.i.|.%X9X9X%X|.i.q.>.-XiXpXyX7.U.P.#X%X,.8 _ -X8Xu.                            ",
"                          4.).8X Xi q c }.|.Q.8.A ;XiXpXyX<.C p.}.#X8X8X#X}.p.Z <.yXiXpX5XA 8.Y. X|.x q i '.9X).2.                          ",
"                        +X XXX8Xt.i i f ).P.L.) x /.pXyX(.{ E -.).|.;X3X|.).>.E [ /.iXpX/.x A L.P.).k i i 7.8X%X|.+X                        ",
"                      :X&X$X%X5X*.i h w (.9.b A b -.#Xt.} | X.w 4.).$X*X).q.w X.| } t.#X:.x A V 6.'.w h i } 3X%X%X&X>X                      ",
"                    >X+X;X4.4.3XB a l w E.W.- A N V k 9 @.} O.' k q.q.q.q.k ^ O.} +.w f V N A - E.W.w l a M -Xq.2.3X+X>X                    ",
"                  =X>X+X*XO x ;XV r l f W.P.o x b V x ; ^ o.*.@.9 : - - : 9 @.=.o.^ ; x V b x + y.W.f l y b ;XV O #X|.>X:X                  ",
"                  1X{.-X>.. Z ;X` 7 i k y.w.o : b x V : e +.| o.! o X o X m o.| +.9 : V x b : X 9.y.k i 6 ( ;X&.. A -X{.1X                  ",
"                4X<X[.|.O $ i.'.E ; y 9 9.>.- O z x b V : ^ o.O.{ $ + X $ [ O.o.^ > V b x z O - :.9.w u ; E )./.$ O ).).>X4X                ",
"                0X X#XV X l %X4.^ e ; 0 9.&.9 o k x x Z A w +.o.@.> . . ; @.o.+.w A A x x k o 9 A t.q 8 e ! 3.$Xz X x %X[.0X                ",
"              *X7X/.e.X @ q.|.b ~ v - > E.V l & : V V C 2.x { +.@.w . . 9 @.+.{ x 2.Z V V : & l b E.e - v ~ b |.e.$ X e./.7X;X              ",
"            /.7X<X4.f X * ).e.k M ~ - N y.9 n y O x V V >.>.v $.X.h + + i X.$.n >.,.C V x O 6 n 9 y.C - ! M k q.).; X 9 4.=X7X/.            ",
"            |.6X=Xk X X 9 ).-.z l B 1.'.>.> E 0 X k b V A 4.z %.%.j X X i %.%.z 4.) V b k X 0 E e :.}.2.B l z &.}.g X X 9 &XqX#X            ",
"          ).;XwX-Xx X X b }.Z b q.#X;X%Xk * Y * X : V V A 2.A ^ #.Y o o a #.] Z 2.) V V : X * Y ; f |.;X%Xq.N C ).N @ X z ;XwX;X).          ",
"          |.,XwX,X3.X $ Z }.Z 3.3X5X;X|.z # r & X O V k x -.>.h #.T @ $ Y #.h :.-.x k V $ X & r % k |.;X5X5X4.C }.&.# X ,.-XwX,X|.          ",
"        i.%X,XqX3X).; * ;.}.Z /.5X-X%X|.2.# 3 # % @ c : O b >.f Q R $ $ R ..w :.V O - x @ % # 3 % 2.|.%X-X5X).V }.,.* * /.-XqX,X%X/.        ",
"        }.;X<X7X-X#Xb ; 2./.) %X;Xq.Z 3.p.N @ # 3 X z :   : A - y I X X t y - A :   : c X 3 # @ b p.4.Z 6.;X$X-./.4.; x |.-X7X<X;X}.        ",
"        |.;X6X4X;X|.V $ 4.i.2.$Xq.f ; $ -.4.- @ 3 X k k     x : o <     , X : x     k k X 3 @ $ 4.>.= ; f 4.$X4.p.6.- V |.;X4X6X;X#X        ",
"      /.%X%X6X4X*X).V   q.)././.m / a 6 * >.A X 3 @ : c     : x   F.F.F.F.  c :     c k @ 3 X V 5.; 6 a E m P.).).e.).q./.*X4X6X$X%X/.      ",
"      |.$X%X1X4X*Xi.V   e.|.|.` n v q r t s 2.f 2 # : V     $ x v.S.m.C.F.B.D -     V : # 2 9 2.n t r q v n ( |.|.p.5X).p.*X4X1X%X$X|.      ",
"      $X*X&X2X,X%Xu.>.  e.|.i.O ; / s 0 7 6 C 2.9 $ : C J   H z f.S.g.g.S.c.c H G.f.A : $ : 2.A 6 7 0 s / ; o p.|.u.*X|.e.%X-X2X&X*X$X      ",
"    i.;X;X;X@X[.|.q.p.  u.).    X u E a p r ; >.-.$ : F v.F.N.1 K F.n.s.A.K 1 N.F.B.L : $ &.>.; r p a E i X     ).p.|.#Xq.|.[.@X=X;X;X/.    ",
"    }.;X;X).C   /.4.|.q.p.e.      & E T Y y r k 2.x : S B.F.S.J K F.h.h.F.K P S.F.N.L : c 2.z r y Y T E &       e.p.).;X4./.  N ).;X;X}.    ",
"    #X;X%X>.    p.4.;Xp.e.-.      X u E s T 6   V >.-.D H.b.z.c.H A.d.n.F.K c.F.F.D.L -.>.V   6 T s E a o       A e.p.3X4.p.    >.#X;X#X    ",
"    #X$Xi.      q.4.3Xe.>.          8 ] Q 0       A >.1 F.l.d.Z.x.S.g.k.F.c.Z.C.F.F.G ;.A       0 Q ] 8           5.q.-X4.q.      p.$X%X    ",
"  4.%X}.        >.4.3X2.c             : y 4         c   G.M.a.C.D.F.l.d.A.S.k.h.F.F.  k         4 y :             c >.5X4.>.        }.%Xq.  ",
"  4.}.            2.3XV                                 F.C.s.h.S.F.l.s.C.b.a.j.F.F.                                V 5X2.            }.q.  ",
"  2.q.            -.-XV                                   F.m.a.b.F.l.b.m.a.z.A.F.                                  x %Xx             4.4.  ",
"  k                                                       F.A.s.n.F.S.F.j.g.S.F.F.                                                      k   ",
"  +                                                         A.d.j.S.F.V.s.h.F.F.                                                        +   ",
"                                                              b.a.l.F.m.j.C.F.                                                              ",
"                                                                V.V.F.F.F.                                                                  "
};
