/* XPM */
static char *result[] = {
/* columns rows colors chars-per-pixel */
"80 80 213 2 ",
"   c #040505",
".  c #04060A",
"X  c #06080D",
"o  c #0A0B0C",
"O  c #080709",
"+  c #040611",
"@  c #060A13",
"#  c #0B0D13",
"$  c #060B1C",
"%  c #0A0D19",
"&  c #0F1014",
"*  c #0E111B",
"=  c #121314",
"-  c #13151A",
";  c #17181D",
":  c #1B1B1D",
">  c #070B24",
",  c #0A0D24",
"<  c #060A2C",
"1  c #0A0E2B",
"2  c #0E1123",
"3  c #0D112B",
"4  c #131523",
"5  c #161923",
"6  c #1C1D22",
"7  c #16192C",
"8  c #1A1D2B",
"9  c #121629",
"0  c #0A0E35",
"q  c #080D36",
"w  c #0D1234",
"e  c #0E123C",
"r  c #121634",
"t  c #151835",
"y  c #1B1E33",
"u  c #12163C",
"i  c #15193B",
"p  c #181C3C",
"a  c #1E2023",
"s  c #1E212D",
"d  c #1E2133",
"f  c #1E213B",
"g  c #222324",
"h  c #24262A",
"j  c #27282C",
"k  c #2B2B2D",
"l  c #222533",
"z  c #2D2E31",
"x  c #22253B",
"c  c #25293E",
"v  c #272A38",
"b  c #2F3032",
"n  c #323334",
"m  c #353639",
"M  c #3B3C3D",
"N  c #37383A",
"B  c #090F48",
"V  c #0D1242",
"C  c #0C124B",
"Z  c #111641",
"A  c #1B1F43",
"S  c #171B48",
"D  c #141A57",
"F  c #090F50",
"G  c #1E2344",
"H  c #1D224C",
"J  c #1C2153",
"K  c #1F255C",
"L  c #212544",
"P  c #252942",
"I  c #2A2F4D",
"U  c #24294A",
"Y  c #2B304B",
"T  c #393B46",
"R  c #252A52",
"E  c #252B59",
"W  c #2C335D",
"Q  c #2B3255",
"!  c #393D55",
"~  c #363B57",
"^  c #181F71",
"/  c #1D267C",
"(  c #252C66",
")  c #2D3564",
"_  c #2D356B",
"`  c #353C63",
"'  c #343C6B",
"]  c #353C63",
"[  c #212975",
"{  c #2E3878",
"}  c #333B70",
"|  c #323C7C",
" . c #3E4244",
".. c #3A405C",
"X. c #3A4169",
"o. c #394375",
"O. c #444444",
"+. c #44464B",
"@. c #4B4C4C",
"#. c #47494B",
"$. c #4C4D51",
"%. c #4E5152",
"&. c #4A5053",
"*. c #545454",
"=. c #55565B",
"-. c #5B5B5B",
";. c #57595A",
":. c #454963",
">. c #5D5E62",
",. c #555964",
"<. c #444C76",
"1. c #4B5279",
"2. c #5E6162",
"3. c #5C656C",
"4. c #5E647E",
"5. c #636364",
"6. c #66666A",
"7. c #6B6C6C",
"8. c #66686E",
"9. c #6E6F73",
"0. c #646876",
"q. c #68777A",
"w. c #747474",
"e. c #7B7B7C",
"r. c #767779",
"t. c #80807F",
"y. c #2C3680",
"u. c #3D4B9F",
"i. c #246CA8",
"p. c #4A578A",
"a. c #4D5C95",
"s. c #6B7785",
"d. c #767A85",
"f. c #727F9F",
"g. c #5A6FA2",
"h. c #536293",
"j. c #586EC7",
"k. c #2C96BC",
"l. c #568486",
"z. c #6D8589",
"x. c #7E8182",
"c. c #738386",
"v. c #789398",
"b. c #4796A7",
"n. c #778FA5",
"m. c #2B9BC0",
"M. c #7288C7",
"N. c #4AD4DE",
"B. c #51D4DA",
"V. c #53E4EC",
"C. c #838384",
"Z. c #8B8B8B",
"A. c #888887",
"S. c #8E8F91",
"D. c #858D97",
"F. c #8E9292",
"G. c #879799",
"H. c #949494",
"J. c #95969A",
"K. c #9B9B9C",
"L. c #979898",
"P. c #8F908E",
"I. c #9FA09F",
"U. c #A0A09F",
"Y. c #8B99A3",
"T. c #9093A2",
"R. c #89A3A6",
"E. c #9CA4A9",
"W. c #84AAB1",
"Q. c #9AB3B4",
"!. c #96A7B7",
"~. c #A4A4A4",
"^. c #ABABAB",
"/. c #A4A9AB",
"(. c #ACAEB1",
"). c #AAACBC",
"_. c #ACB2B2",
"`. c #B4B4B4",
"'. c #B6B6B9",
"]. c #B4BABB",
"[. c #BBBBBB",
"{. c #B8B7B7",
"}. c #C0BFBF",
"|. c #C0C0BF",
" X c #B9B9C0",
".X c #BDC4C4",
"XX c #B7C5C7",
"oX c #B7D3D5",
"OX c #ADCDCE",
"+X c #B6DDE3",
"@X c #BEE1E4",
"#X c #C3C3C3",
"$X c #C4CCCC",
"%X c #CCCCCC",
"&X c #C8C7C7",
"*X c #C4D1D1",
"=X c #C9D3D3",
"-X c #C5DCDC",
";X c #CCDCDC",
":X c #D3D3D3",
">X c #DCDCDC",
",X c #D7D8D8",
"<X c #C3DFE0",
"1X c #CCE4E4",
"2X c #C8E4E4",
"3X c #D7E4E5",
"4X c #E4E4E4",
"5X c #ECECEC",
"6X c #E1EFEF",
"7X c #E6F2F2",
"8X c #F4F4F4",
"9X c #FCFCFC",
"0X c None",
/* pixels */
"0X0X0X0X0X0X0X0X0X0X0X0X0X0X0X0X0X0X0X0X0X0X0X0X0X0X0X0X0X0X0X0X0X0X0X0X0X0X0X0X0X0X0X0X0X0X0X0X0X0X0X0X0X0X0X0X0X0X0X0X0X0X0X0X0X0X0X0X0X0X0X0X0X0X0X0X0X0X0X0X",
"0X0X0X0X0X0X0X0X0X0X0X0X0X0X0X0X0X0X0X0X0X0X0X0X0X0X0X0X0X0X0X0X0X0X0X0X0X0X0X0X0X0X0X0X0X0X0X0X0X0X0X0X0X0X0X0X0X0X0X0X0X0X0X0X0X0X0X0X0X0X0X0X0X0X0X0X0X0X0X0X",
"0X  0X0X0X0X0X0X0X0X0X0X0X0X0X0X0X0X0X0X0X0X0X0X0X0X0X0X0X0X0X0X0X0X0X0X0X0X0X0X0X0X0X0X0X0X0X0X0X0X0X0X0X0X0X0X0X0X0X0X0X0X0X0X0X0X0X0X0X0X0X0X0X0X0X0X0X0XO 0X",
"0X= 0X0X0X0X0X0X0X0X0X0X0X0X0X0X0X0X0X0X0X0X0X0X0X0X0X0X0X0X0X0X0X0X0X0X0X0X0X0X0X0X0X0X0X0X0X0X0X0X0X0X0X0X0X0X0X0X0X0X0X0X0X0X0X0X0X0X0X0X0X0X0X0X0X0X0X0X= 0X",
"0XM O.0X0X0X0X0X0X0Xo 0X0X0X0X0X0X0X0X0X0X0X0X0X0X0X0X0X0X0X0X0X0X0X0X0X0X0X0X0X0X0X0X0X0X0X0X0X0X0X0X0X0X0X0X0X0X0X0X0X0X0X0X0X0X0X0X7.0X= 0X0X0X0X0X0X0XO.M 0X",
"0X@.e.0X0X0X0X0X0X0Xk U.A.0X0X0X0X0X0X0X0X0X0X0X0X0X0X0X0X0X0X0X0X0X0X0X0X0X0X0X0X0X0X0X0X0X0X0X0X0X0X0X0X0X0X0X0X0X0X0X0X0X0X0X0X0XO L.~.z 0X0X0X0X0X0X0Xt.O.0X",
"0XO.K.C.0X0X0X0X0X0XO.^.^.o 0X0X0X0X0X0X0X0X0X0X0X0X0X0X0X0Xo 0X0X0X0X0X0X0X0X0X0X0X0X0X0X0X0X0X0Xo 0X0X0X0X0X0X0X0X0X0X0X0X0X0X0X0X= ~.L.O.0X0X0X0X0X0XA.L.0X0X",
"0X0XK.~.w.0X0X0X0XO.*.H.`.k 0X0X0X0X0X0X0X0X; t 0 0X0X0X0Xn g 0X0X0X0X0X0X0X0X0X0X0X0X0X0X0X0X0X0Xg n 0X0X0X0X0 r : 0X0X0X0X0X0X0Xk z }.P.*.0X0X0X0X0Xe.~.L.0X0X",
"0X0XK.^.K.0X0X0X0X;.5.t.|.O.@.0X0X0X0X0X0X8 E D 4 0X0X0X: @.M = 0X0X0X0X0X0X0X0X0X0X0X0X0X0X0X0Xo O.@.: 0X0X0X9 E E 8 0X0X0X0X0X0X@.O.:XC.5.*.0X0X0X0XI.`.H.0X0X",
"0X0XH.`.`.C.0X0X0Xw.5.e.,X@.w.0X0X0X0X0X% J L y S w 0X0XO.*.@.: 0X0X0X0Xo 0X0X0X0X0X0Xo 0X0X0X0Xg @.*.M 0X0Xw S y A D # 0X0X0X0X0Xw.@.:X9.6.w.0X0X0XA.`.`.H.0X0X",
"0X0XA.`.`.`.;.0X0XC.6.7.>X*.A.%.0X0X0XO - x S D t w * N *.g k n 0X0X0X0X= 0X0X0X0X0X0X= 0X0X0X0Xn k h *.n 2 3 i D S x - O 0X0X0X*.A.O.:X5.7.C.0X0X5.`.`.^.C.0X0X",
"0X0X0X^.{.{.E.q.5.H.w.2.>X2.Z.e.0X0X0X@ S J i r Z w g ;.n o g M 0X0X0X: : 0X0X0X0X0X0X: ; 0X0X0XM : # m ;.a w Z 3 i J S X 0X0X0XC.A.k 0X-.r.H.2.q./.{.{.^.0X0X0X",
"0X0X0X~.{.`.].+X(.~.t.-.>X7.A.L.2.0XO 9 f p u w % - @.$.& & a N 0X0X0X: a 0X0X0X0X0X0Xg : 0X0X0XM g o = %.@.= 2 r Z Z x 4   0X5.L.C.k 0X*.C.^._.+X]._.].~.0X0X0X",
"0X0X0XK.`.^._.+X}.`.Z.;.4Xt.t.U.Z.; & x f 7 * 1 e M ;.h & @ h N 0X0X0Xg g 0X0X0X0X0X0Xg g 0X0X0XN g # & j -.m 0 1 % 8 x x & g P.U.t.0X0X#.P.`..X+X(.^.`.H.0X0X0X",
"0X0X0XC.^.^./.2X$X`.H.*.:X~.t.U.~.=.L L f t Z e d ;.a $ $ @ k k 0X0XO k : 0X0X0X0X0X0Xg j   0X0Xz g + , $ g ;.8 e V t y L L ,.~.U.e.0X0X@.L.`.$X+X/.^.^.e.0X0X0X",
"0X0X0X0XK.^.(.2X$X`.U.;.Z.5.e.A.e.J.m L A r , = *.O.  > ,   k g 0X0X= n : 0X0X0X0X0X0X: n o 0X0Xg k . > > O O.%.- , t A L m K.e.Z.r.= 0X;.~.`.%X2X^.^.K.0X0X0X0X",
"0X0X0X0XA.^.`.2X*X`.^.2.= - e.r.%.`.r.j : & & #.5.; . > >   n a 0X0Xa k O .   0X0X  O O n : 0X0Xg z O > > . : 5.#.# = : k e.`.@.d.w.; & 6.(.{.*X<X{.^.t.0X0X0X0X",
"0X0X0X0X7.^.`.oX-X|.`.5.= : w.e.N ~.|.e.h h %.r.M + @ > > O n = 0X& n h & e 1     < e # j n 0X0X: b O > > @ +  .r.@.g j C.#X~.n C.7.; = 6.{.|.<XoX{.^.0X0X0X0X0X",
"0X0X0X0X0XK.^..X1X#X(. .% - 8.Z.n C.&X#XK.H.H.2.% < @ $ > o b - 0Xa O.b 4 ^ u @ @ Z ^ - n O.: 0X= n O > $ @ < % 5.H.L.K..X&Xe.n F.5.* & #._.|.3XXX^.L.0X0X0X0X0X",
"0X0X0X0X0Xe.^.$X1X|.L.- # * -.K.m =.#X%X}._.H.g @ q $ @ . & b = : N @.b G / i @ $ i / f n @.N ; = z & + @ $ q . k L._.}.%X#X$.M K.*.* @ : U.|.1X.X~.e.0X0X0X0X0X",
"0X0X0X0X0X0X~..X2X$X7.  @ @ $.L.m m F.%X#X`.A.= % u 2 @   g n k N #.*.g ( [ r X X r [ ( g ;.O.N z m g   o 2 Z # = P.{.#X%XZ.n T K.+.@ + . w.$X2X#X~.0X0X0X0X0X0X",
"0X0X0X0X0X0XZ.`.2X%XO.  . X T L.m z b >.L.`.L.: * H 9 @ o k n N M *.#.s y.( 9 . O y ( { s @.*.M m n k   @ 7 A - a K.`.H.-.z k N L.m + .   @.=X2X`.Z.0X0X0X0X0X0X",
"0X0X0X0X0X0X0X~.;X*XT @ . . z K.O.h h l v #.H.O.; f f X = k b n M >.j I { _ 5 .   8 _ y.U k -.N n k z = o p f 5 $.H.O.v l h h @.K.j . . # O.=X;XK.0X0X0X0X0X0X0X",
"0X0X0X0X0X0X0XA.=X-X6.+.. . 6 K.9.a h I h &  .q.a d i O : n b N @.;.a } } ) ;     5 _ } } g -.#.m n z : . S l : z.M # l I h g r.H.5 . . $.6.2X$Xx.0X0X0X0X0X0X0X",
"0X0X0X0X0X0X0X0X`.1Xx.K.g . & e.~.b v I : & s v.j h 4 # k b b N ;.n x | ` W =     - ) ` | d N ;.N n b k @ 5 j k v.6 & : Y l N ~.w.% . g J.x.1X`.0X0X0X0X0X0X0X0X",
"0X0X0X0X0X0X0X0XK.;X/.K.e.  @ n `.5.c x = 2 s z.M g # & j k b M +.; ) ` ` Q #     & Q ` X.W : #.N b j k & & s  .s.7 4 = c c 7.`.b .   x.Z._.;X0X0X0X0X0X0X0X0X0X",
"0X0X0X0X0X0X0X0X0X$X-Xw.[.k O & P.H.U 8 * f a 0.O.:   : k k n M a 8 } X.X.P O   O o P X.X.} s a M b k k ;   : #.3.a i * 8 P K.C.& . N &Xr.1X.X0X0X0X0X0X0X0X0X0X",
"0X0X0X0X0X0X0X0X0X0X<XY.E.H.O O @.|.X.* r d a s.;.&   j k k n g = W ` ` ' s   X O   d ' ~ ` E * j b k k g O = 2.q.a d r 2 :..XO.O X I.~.R.<X0X0X0X0X0X0X0X0X0X0X",
"0X0X0X0X0X0X0X0X0X0X.XOXx.=XM   a {.5.% i h a v.q.o = n k n n & s } ..X.W ;   # o O ; ) X...} 8 & n n k b = o c.z.g j Z % 9.`.;   #.:Xx.oX X0X0X0X0X0X0X0X0X0X0X",
"0X0X0X0X0X0X0X0X0X0X0XOXQ.~.^.o k #X=.1 y h 6 R.c.. k n b b a ; E ~ ..` P = M ; : M = U ` ..~ R ; a n k n k O v.n.6 j y , 5.[.g = {.~.Q.OX0X0X0X0X0X0X0X0X0X0X0X",
"0X0X0X0X0X0X0X0X0X0X0X0XoXD.%X;.5.:X*.e l l 8 R.n.& M n n n a s ' ! X.) 5 O.r.C.x.r.M 6 ) X.! } s a n n n M = n.G.s l 8 e >.:X-.5.&XG.OX0X0X0X0X0X0X0X0X0X0X0X0X",
"0X0X0X0X0X0X0X0X0X0X0X0XG.OX].^.^.:X6.Z s f g K.3.h O.n k 7.{.0.T ..' G k A.A.[.{.Z.x.k H `  ...8.[.5.k n #.s 3.J.a G g Z 9.,X~.^.(.OXG.0X0X0X0X0X0X0X0X0X0X0X0X",
"0X0X0X0X0X0X0X0X0X0X0X0X0XR.Q.~.K.:XS.A y 7 k L.d.g.+.z n `.9X8Xx.I E h 7.L.H.%X}.H.H.7.a E I A.4X9X[.b n #.g.d.H.k y y A T.:XL.U.Q.G.0X0X0X0X0X0X0X0X0X0X0X0X0X",
"0X0X0X0X0X0X0X0X0X0X0X0X0X0X@.7.A.,X Xv p ; m U.J.M.p.m -.5X9X8X5X3.8 -.C.U.K.,X:XK.K.C.-.7 6.8X9X8X4X*.m a.M.K.K.z 5 t T  X:XC.7.&.0X0X0X0X0X0X0X0X0X0X0X0X0X0X",
"0X0X0X0X0X0X0X0X0X0X0X0X0X0X0X0X6.:X:X,.t & >././.d.j.' Z.9X8X5X5X5.@.r.A.~.~.4X4X^.~.t.w.#.6.5X9X8X5Xt.| j.d./.~.;.& t 2.:X:X5.0X0X0X0X0X0X0X0X0X0X0X0X0X0X0X0X",
"0X0X0X0X0X0X0X0X0X0X0X0X0X0X0X0X@.&X>XK.y 3 w.`.J.Z.4.u. X9X9X4X7.M 5.r.Z.^.(.4X4X^.^.A.w.5.m w.4X9X9X).u.0.P.K.{.8.3 d ~.>X}.O.0X0X0X0X0X0X0X0X0X0X0X0X0X0X0X0X",
"0X0X0X0X0X0X0X0X0X0X0X0X0X0X0X0X0X`.:X:X=.q 9.#XZ.H.r.+.(.~.w.N O n 5.w.S.(.^.5X4X~.^.P.w.5.n   N w.`.^.+.e.S.P.#X8.0 ,.:X:X^.0X0X0X0X0X0X0X0X0X0X0X0X0X0X0X0X0X",
"0X0X0X0X0X0X0X0X0X0X0X0X0X0X0X0X0XP.:X,X^.l >. XI.A.w.T k P h O   n 5.w.P.`.K.4X4XK.{.P.w.5.k   O k I j O.w.A.U.}.=.v `.,X:XA.0X0X0X0X0X0X0X0X0X0X0X0X0X0X0X0X0X",
"0X0X0X0X0X0X0X0X0X0X0X0X0X0X0X0X0X6.%X:X:XK.w.`.~.H.5.g j p.z 6   k 5.w.K.`.A.4X4XZ.{.K.w.-.k   : n 1.h k 5.H.~.`.9.~.%X:X%X5.0X0X0X0X0X0X0X0X0X0X0X0X0X0X0X0X0X",
"0X0X0X0X0X0X0X0X0X0X0X0X0X0X0X0X0X@.}.:X:X>X#X`.^.P.8.z h o.z k O g >.e.~.`.w.5X4X7.`.U.e.-.g O z v <.8 z 8.H.^.`.&X>X:X:X[.O.0X0X0X0X0X0X0X0X0X0X0X0X0X0X0X0X0X",
"0X0X0X0X0X0X0X0X0X0X0X0X0X0X0X0X0Xz ^.:X>X>X&X[..X!.f.T ; o.v n O g 5.t.~.~.>.8X4X-.^.~.t.>.: o n v ' ; T n.!..X{.&X>X>X,X~.k 0X0X0X0X0X0X0X0X0X0X0X0X0X0X0X0X0X",
"0X0X0X0X0X0X0X0X0X0X0X0X0X0X0X0X0X0XP.:X>X,X:X1XoXE.w.N = W c b o g 7.t.^.H.@.5X5X@.K.~.C.5.: o n L ~ = M e.E.oX;X;X,X>X:XZ.0X0X0X0X0X0X0X0X0X0X0X0X0X0X0X0X0X0X",
"0X0X0X0X0X0X0X0X0X0X0X0X0X0X0X0X0X0Xr.:X4X7X6X=X^.H.w.O.= I G z = : 5.t.^.A.@.5X8XO.H.~.t.5.: = k U I = +.r.H.(.=X6X7X3X:X7.0X0X0X0X0X0X0X0X0X0X0X0X0X0X0X0X0X0X",
"0X0X0X0X0X0X0X0X0X0X0X0X0X0X0X0X0X0X5.1X7X5X:X(._.^.e.*.: d U g = = 5.t.^.A.@.8X4XO.P.^.t.-.= ; a R s : *.t.^._.`.:X5X7X;X-.0X0X0X0X0X0X0X0X0X0X0X0X0X0X0X0X0X0X",
"0X0X0X0X0X0X0X0X0X0X0X0X0X0X0X0X0X0X&.$X,X%X.X[.{.~.A.5.b - H ; ; = *.A.(.A.@.8X4XO.P.^.t.*.# - ; U & n 5.A.~.{.[.#X%X>X.X0X0X0X0X0X0X0X0X0X0X0X0X0X0X0X0X0X0X0X",
"0X0X0X0X0X0X0X0X0X0X0X0X0X0X0X0X0X0X0XK.%X:X%X|.{.`.H.6.O.= t 2 X O %.Z.^.P.#.5X8XO.H.^.A.@.O + 2 t = +.7.H.`.{.#X:X:X%XL.0X0X0X0X0X0X0X0X0X0X0X0X0X0X0X0X0X0X0X",
"0X0X0X0X0X0X0X0X0X0X0X0X0X0X0X0X0X0X0XH.:X:X>X,X:X[.K.7.@.4 9 3 +   O.A.~.~.O.4X>XO.^.~.A.M   + 1 9 9 @.9.K.#X:X,X,X:X%XF.0X0X0X0X0X0X0X0X0X0X0X0X0X0X0X0X0X0X0X",
"0X0X0X0X0X0X0X0X0X0X0X0X0X0X0X0X0X0X0X5.`.>X4X[.'.{.K.r.@.u w 1 X   z t.U.{.@.,X&X@.{.U.t.k   O 1 r u *.r.~.`.'.[.4X,X`.-.0X0X0X0X0X0X0X0X0X0X0X0X0X0X0X0X0X0X0X",
"0X0X0X0X0X0X0X0X0X0X0X0X0X0X0X0X0X0X0X0X6.H.r.P P O.8.9.O.2 C $ o 0X: t.A.U.5.~.K.6.J.Z.r.: 0XX > C 4 #.9.6.O.P c t.P.6.0X0X0X0X0X0X0X0X0X0X0X0X0X0X0X0X0X0X0X0X",
"0X0X0X0X0X0X0X0X0X0X0X0X0X0X0X0X0X0X0X0X0X0X@ % u ; f R f e V < 0X0X= w.C.r.S.-.-.J.w.Z.w.= 0X0X< e u f R p 5 u $ + 0X0X0X0X0X0X0X0X0X0X0X0X0X0X0X0X0X0X0X0X0X0X",
"0X0X0X0X0X0X0X0X0X0X0X0X0X0X0X0X0X0X0X0X0Xe.-.4 w 8 s D 9 D 1 < 0X0X= 9.S.,.{.e.t.{.,.S.5.o 0X0Xq 1 D 9 D d 7 0 5 >.e.0X0X0X0X0X0X0X0X0X0X0X0X0X0X0X0X0X0X0X0X0X",
"0X0X0X0X0X0X0X0X0X0X0X0X0X0X0X0X0X0X0X0X0X(.:XL.=.:.C.%.z u C o 0X0X0X5.L.:.`.:X:X(.&.K.2.0X0X0XX C u z *.C.&.,.K.:X^.0X0X0X0X0X0X0X0X0X0X0X0X0X0X0X0X0X0X0X0X0X",
"0X0X0X0X0X0X0X0X0X0X0X0X0X0X0X0X0X0X0X0X0Xe.:X4X>X&X^.A.6.g B 0X0X0X0X;.L.X.T.:X:XT.' K.%.0X0X0XV B h 7.Z.^.&X>X5X:Xw.0X0X0X0X0X0X0X0X0X0X0X0X0X0X0X0X0X0X0X0X0X",
"0X0X0X0X0X0X0X0X0X0X0X0X0X0X0X0X0X0X0X0X0X0X#X5X4X%X~.S.w.z $ 0X0X0X0XO.H.<.h.%X&Xp.1.P.O.0X0X0X0X$ n w.P.~.%X4X4X{.0X0X0X0X0X0X0X0X0X0X0X0X0X0X0X0X0X0X0X0X0X0X",
"0X0X0X0X0X0X0X0X0X0X0X0X0X0X0X0X0X0X0X0X0X0XA.4X>X&X^.J.w.~ B 0X0X0X0Xn Z.s.i.W.W.i.d.A.n 0X0X0X0XF ! r.K.^.&X4X4XA.0X0X0X0X0X0X0X0X0X0X0X0X0X0X0X0X0X0X0X0X0X0X",
"0X0X0X0X0X0X0X0X0X0X0X0X0X0X0X0X0X0X0X0X0X0X@.%X>X%X[.K.w.T B 0X0X0X0Xg e.D.m.N.N.m.S.w.: 0X0X0X0XB O.w.K.}.%X>X&XO.0X0X0X0X0X0X0X0X0X0X0X0X0X0X0X0X0X0X0X0X0X0X",
"0X0X0X0X0X0X0X0X0X0X0X0X0X0X0X0X0X0X0X0X0X0X0XH.,X,X&XK.6.@.* 0X0X0X0X0Xg r.b.V.V.b.7.g 0X0X0X0X0X& @.7.K.%X,X:XA.0X0X0X0X0X0X0X0X0X0X0X0X0X0X0X0X0X0X0X0X0X0X0X",
"0X0X0X0X0X0X0X0X0X0X0X0X0X0X0X0X0X0X0X0X0X0X0X;.%X>X&Xe.5.-.4 0X0X0X0X0Xk H.v.B.B.v.H.g 0X0X0X0X0X4 5.5.C.%X>X#X*.0X0X0X0X0X0X0X0X0X0X0X0X0X0X0X0X0X0X0X0X0X0X0X",
"0X0X0X0X0X0X0X0X0X0X0X0X0X0X0X0X0X0X0X0X0X0X0X0X~.4X`.7.Z.5.; 0X0X0X0X0Xg P.K.l.l.U.P.: 0X0X0X0X0X6 5.Z.7.{.4XU.0X0X0X0X0X0X0X0X0X0X0X0X0X0X0X0X0X0X0X0X0X0X0X0X",
"0X0X0X0X0X0X0X0X0X0X0X0X0X0X0X0X0X0X0X0X0X0X0X0Xw.%Xt.~.H.5.g 0X0X0X0X0Xk H.L.C.e.K.P.k 0X0X0X0X0Xg 6.H.~.C.:X7.0X0X0X0X0X0X0X0X0X0X0X0X0X0X0X0X0X0X0X0X0X0X0X0X",
"0X0X0X0X0X0X0X0X0X0X0X0X0X0X0X0X0X0X0X0X0X0X0X0X0Xe.~.&XH.7.n 0X0X0X0X0X0Xe.A.~.U.P.w.0X0X0X0X0X0Xm w.H.&XU.e.0X0X0X0X0X0X0X0X0X0X0X0X0X0X0X0X0X0X0X0X0X0X0X0X0X",
"0X0X0X0X0X0X0X0X0X0X0X0X0X0X0X0X0X0X0X0X0X0X0X0X0X-.:X%XL.r.O.0X0X0X0X0X0X5.e.{.(.e.-.0X0X0X0X0X0XO.e.L.%X%X*.0X0X0X0X0X0X0X0X0X0X0X0X0X0X0X0X0X0X0X0X0X0X0X0X0X",
"0X0X0X0X0X0X0X0X0X0X0X0X0X0X0X0X0X0X0X0X0X0X0X0X0X0X#X%X~.C.@.0X0X0X0X0X0XO.5.#X`.5.O.0X0X0X0X0X0X@.C.~.=X#X0X0X0X0X0X0X0X0X0X0X0X0X0X0X0X0X0X0X0X0X0X0X0X0X0X0X",
"0X0X0X0X0X0X0X0X0X0X0X0X0X0X0X0X0X0X0X0X0X0X0X0X0X0XK.%X`.A.*.0X0X0X0X0X0Xk *.H.H.%.k 0X0X0X0X0X0X=.Z.{.%XH.0X0X0X0X0X0X0X0X0X0X0X0X0X0X0X0X0X0X0X0X0X0X0X0X0X0X",
"0X0X0X0X0X0X0X0X0X0X0X0X0X0X0X0X0X0X0X0X0X0X0X0X0X0X0X&X&XA.-.j 0X0X0X0X0X0XO.9.w.M 0X0X0X0X0X0Xk -.P.&X}.0X0X0X0X0X0X0X0X0X0X0X0X0X0X0X0X0X0X0X0X0X0X0X0X0X0X0X",
"0X0X0X0X0X0X0X0X0X0X0X0X0X0X0X0X0X0X0X0X0X0X0X0X0X0X0X^.%XZ.5.n 0X0X0X0X0X0XM e.w.M 0X0X0X0X0X0XN 5.L.%X~.0X0X0X0X0X0X0X0X0X0X0X0X0X0X0X0X0X0X0X0X0X0X0X0X0X0X0X",
"0X0X0X0X0X0X0X0X0X0X0X0X0X0X0X0X0X0X0X0X0X0X0X0X0X0X0XC.#XK.7.%.0X0X0X0X0X0X5.C.r.0X0X0X0X0X0X0X*.7.U.}.0X0X0X0X0X0X0X0X0X0X0X0X0X0X0X0X0X0X0X0X0X0X0X0X0X0X0X0X",
"0X0X0X0X0X0X0X0X0X0X0X0X0X0X0X0X0X0X0X0X0X0X0X0X0X0X0X0XU.P.A.;.0X0X0X0X0X0X0Xr.0X0X0X0X0X0X0X0X-.Z.P.U.0X0X0X0X0X0X0X0X0X0X0X0X0X0X0X0X0X0X0X0X0X0X0X0X0X0X0X0X",
"0X0X0X0X0X0X0X0X0X0X0X0X0X0X0X0X0X0X0X0X0X0X0X0X0X0X0X0X0X~.~.5.: 0X0X0X0X0X0X0X0X0X0X0X0X0X0Xg 5.~.~.0X0X0X0X0X0X0X0X0X0X0X0X0X0X0X0X0X0X0X0X0X0X0X0X0X0X0X0X0X",
"0X0X0X0X0X0X0X0X0X0X0X0X0X0X0X0X0X0X0X0X0X0X0X0X0X0X0X0X0X(.(.w.g 0X0X0X0X0X0X0X0X0X0X0X0X0X0Xk r.`.^.0X0X0X0X0X0X0X0X0X0X0X0X0X0X0X0X0X0X0X0X0X0X0X0X0X0X0X0X0X",
"0X0X0X0X0X0X0X0X0X0X0X0X0X0X0X0X0X0X0X0X0X0X0X0X0X0X0X0X0X0X^.t.N 0X0X0X0X0X0X0X0X0X0X0X0X0X0XM C.(.0X0X0X0X0X0X0X0X0X0X0X0X0X0X0X0X0X0X0X0X0X0X0X0X0X0X0X0X0X0X",
"0X0X0X0X0X0X0X0X0X0X0X0X0X0X0X0X0X0X0X0X0X0X0X0X0X0X0X0X0X0XP.H.*.; 0X0X0X0X0X0X0X0X0X0X0X0X= -.H.P.0X0X0X0X0X0X0X0X0X0X0X0X0X0X0X0X0X0X0X0X0X0X0X0X0X0X0X0X0X0X",
"0X0X0X0X0X0X0X0X0X0X0X0X0X0X0X0X0X0X0X0X0X0X0X0X0X0X0X0X0X0X0XH.e.g 0X0X0X0X0X0X0X0X0X0X0X0Xk e.P.0X0X0X0X0X0X0X0X0X0X0X0X0X0X0X0X0X0X0X0X0X0X0X0X0X0X0X0X0X0X0X",
"0X0X0X0X0X0X0X0X0X0X0X0X0X0X0X0X0X0X0X0X0X0X0X0X0X0X0X0X0X0X0Xe.P.O.0X0X0X0X0X0X0X0X0X0X0Xo @.Z.w.0X0X0X0X0X0X0X0X0X0X0X0X0X0X0X0X0X0X0X0X0X0X0X0X0X0X0X0X0X0X0X",
"0X0X0X0X0X0X0X0X0X0X0X0X0X0X0X0X0X0X0X0X0X0X0X0X0X0X0X0X0X0X0X0Xe.5.= 0X0X0X0X0X0X0X0X0X0X: 7.e.0X0X0X0X0X0X0X0X0X0X0X0X0X0X0X0X0X0X0X0X0X0X0X0X0X0X0X0X0X0X0X0X",
"0X0X0X0X0X0X0X0X0X0X0X0X0X0X0X0X0X0X0X0X0X0X0X0X0X0X0X0X0X0X0X0X0X-.k 0X0X0X0X0X0X0X0X0X0Xz -.0X0X0X0X0X0X0X0X0X0X0X0X0X0X0X0X0X0X0X0X0X0X0X0X0X0X0X0X0X0X0X0X0X",
"0X0X0X0X0X0X0X0X0X0X0X0X0X0X0X0X0X0X0X0X0X0X0X0X0X0X0X0X0X0X0X0X0X0Xg o 0X0X0X0X0X0X0X0Xo g 0X0X0X0X0X0X0X0X0X0X0X0X0X0X0X0X0X0X0X0X0X0X0X0X0X0X0X0X0X0X0X0X0X0X",
"0X0X0X0X0X0X0X0X0X0X0X0X0X0X0X0X0X0X0X0X0X0X0X0X0X0X0X0X0X0X0X0X0X0X0X  0X0X0X0X0X0X0X0XO 0X0X0X0X0X0X0X0X0X0X0X0X0X0X0X0X0X0X0X0X0X0X0X0X0X0X0X0X0X0X0X0X0X0X0X",
"0X0X0X0X0X0X0X0X0X0X0X0X0X0X0X0X0X0X0X0X0X0X0X0X0X0X0X0X0X0X0X0X0X0X0XO 0X0X0X0X0X0X0X0XO 0X0X0X0X0X0X0X0X0X0X0X0X0X0X0X0X0X0X0X0X0X0X0X0X0X0X0X0X0X0X0X0X0X0X0X",
"0X0X0X0X0X0X0X0X0X0X0X0X0X0X0X0X0X0X0X0X0X0X0X0X0X0X0X0X0X0X0X0X0X0X0X0X0X0X0X0X0X0X0X0X0X0X0X0X0X0X0X0X0X0X0X0X0X0X0X0X0X0X0X0X0X0X0X0X0X0X0X0X0X0X0X0X0X0X0X0X"
};
