/* XPM */
static char *cb53bee700774f81a0400dbe5088dd45[] = {
/* columns rows colors chars-per-pixel */
"70 70 209 2 ",
"   c None",
".  c #040506",
"X  c #04060B",
"o  c #07080B",
"O  c #0B0B0C",
"+  c #080808",
"@  c #040711",
"#  c #060A14",
"$  c #0B0D13",
"%  c #070A1C",
"&  c #0A0D1A",
"*  c #0E111B",
"=  c #0F1013",
"-  c #131315",
";  c #12141B",
":  c #15181D",
">  c #1A1B1C",
",  c #070B23",
"<  c #070C2A",
"1  c #0A0E2B",
"2  c #0A0E22",
"3  c #0E1225",
"4  c #0D112B",
"5  c #111323",
"6  c #171A22",
"7  c #1B1D23",
"8  c #12152B",
"9  c #16192C",
"0  c #1B1E2B",
"q  c #080C37",
"w  c #0E1235",
"e  c #0C113E",
"r  c #121534",
"t  c #151934",
"y  c #1A1D35",
"u  c #11153B",
"i  c #15193B",
"p  c #1A1E3B",
"a  c #1F2024",
"s  c #1F2128",
"d  c #1F2234",
"f  c #1C213C",
"g  c #222324",
"h  c #24252B",
"j  c #27282A",
"k  c #2B2B2C",
"l  c #2F302F",
"z  c #222535",
"x  c #2D2E31",
"c  c #22253A",
"v  c #25283D",
"b  c #292B3A",
"n  c #262937",
"m  c #2E3033",
"M  c #2E313D",
"N  c #323334",
"B  c #353639",
"V  c #36383B",
"C  c #3B3B3C",
"Z  c #0D1243",
"A  c #0A1049",
"S  c #151944",
"D  c #161A4A",
"F  c #161A48",
"G  c #141A54",
"H  c #1E2244",
"J  c #1C214E",
"K  c #1D2257",
"L  c #202441",
"P  c #252A44",
"I  c #292C43",
"U  c #252B4D",
"Y  c #21264C",
"T  c #2E3144",
"R  c #2E334C",
"E  c #3E3F41",
"W  c #33354B",
"Q  c #353848",
"!  c #252B52",
"~  c #232952",
"^  c #2C3253",
"/  c #2B325A",
"(  c #393D53",
")  c #393E5B",
"_  c #373C57",
"`  c #1A2061",
"'  c #2D356D",
"]  c #2F3668",
"[  c #343B65",
"{  c #383F65",
"}  c #323A6B",
"|  c #333A64",
" . c #242C78",
".. c #2C3671",
"X. c #323C77",
"o. c #3F4043",
"O. c #3C405A",
"+. c #3B4161",
"@. c #444444",
"#. c #444549",
"$. c #47484A",
"%. c #4B4B4C",
"&. c #50504F",
"*. c #4D4E50",
"=. c #4B4D5A",
"-. c #4F5055",
";. c #545454",
":. c #54555B",
">. c #5B5B5C",
",. c #5E5F62",
"<. c #555868",
"1. c #565A7A",
"2. c #485473",
"3. c #5B6369",
"4. c #5D6175",
"5. c #646464",
"6. c #65676C",
"7. c #6C6C6C",
"8. c #676867",
"9. c #666A76",
"0. c #6A747B",
"q. c #6A7A7C",
"w. c #677678",
"e. c #747474",
"r. c #7C7C7C",
"t. c #75767A",
"y. c #2C5C96",
"u. c #4E5786",
"i. c #596A98",
"p. c #626B83",
"a. c #6F7F83",
"s. c #777B88",
"d. c #777C96",
"f. c #6B7092",
"g. c #4D5FB5",
"h. c #4E61B5",
"j. c #697EC1",
"k. c #3A8CB0",
"l. c #5D929D",
"z. c #68848B",
"x. c #73868B",
"c. c #708E92",
"v. c #768F96",
"b. c #6C80BF",
"n. c #51BDC3",
"m. c #47CBD8",
"M. c #4EDDE6",
"N. c #838484",
"B. c #85868B",
"V. c #848B8B",
"C. c #8C8C8C",
"Z. c #908F8F",
"A. c #90908F",
"S. c #8D8F92",
"D. c #838699",
"F. c #859394",
"G. c #8E9292",
"H. c #8E999A",
"J. c #939393",
"K. c #93969B",
"L. c #93999B",
"P. c #9B9C9C",
"I. c #A09F9F",
"U. c #9E9EA2",
"Y. c #8E9FB1",
"T. c #93ABAB",
"R. c #99A2A3",
"E. c #8CAAB4",
"W. c #98B6BB",
"Q. c #90A1B2",
"!. c #A3A3A4",
"~. c #ABABAB",
"^. c #A7A8A8",
"/. c #ACB3B3",
"(. c #AEBBBB",
"). c gray71",
"_. c #B4B4B4",
"`. c #B6B6B9",
"'. c #B4BABA",
"]. c #BBBCBC",
"[. c #B8B8B7",
"{. c #A3BFC0",
"}. c #B1BFC0",
"|. c #A4C2C4",
" X c #ADC4C5",
".X c #BCC4C4",
"XX c #B5C7C9",
"oX c #BBD8DA",
"OX c #B6DAE1",
"+X c #C3C3C3",
"@X c #C3CCCC",
"#X c #CBCBCB",
"$X c #C4D3D3",
"%X c #C4DADB",
"&X c #CDDEDE",
"*X c #C5D7D7",
"=X c #D4D4D4",
"-X c #DBDBDB",
";X c #D5DFDF",
":X c #CCE2E2",
">X c #C7E2E2",
",X c #DEE3E3",
"<X c #DAE8E8",
"1X c #E2E2E2",
"2X c #EBEBEA",
"3X c #E4EBEB",
"4X c #EAF3F3",
"5X c #F5F5F5",
"6X c #FBFBFB",
/* pixels */
"                                                                                                                                            ",
"                                                                                                                                            ",
"  .                                                                                                                                     .   ",
"  j                                                                                                                                     h   ",
"  >.>.            k !.k                                                                                             B ].@.            5.:.  ",
"  5.J.            :.#XN                                                                                             B +X;.            K.>.  ",
"  5.!.J.        %.>.#X%.k             > r 1         j                                 k         1 r >             k ;.+X:.%.        J.!.>.  ",
"    !.~.t.      5.>.].5.&.          5 ~ K 8       C %.-                             > %.C       8 K ~ 5           %.7.+X>.5.      r.~.!.    ",
"    !.).!.%.    t.>.+Xe.7.E       O i H p D 3   N %.#.k         O         O         k #.%.N   1 D p H t o       @.7.r.).>.t.    %.!.).!.    ",
"    K.).[.C.m   N.>.).C.t.8.      & H D S r w h ;.k > V       > -         = >       V > k ;.g w r S D H &       7.e.5.P.>.B.  B C.[.).J.    ",
"    N.).[.'.W.G.P.5.!.P.e.C.    o y H i u w : %.o.$ > C       g -         - a       C > $ @.%.: w u i H t o     C.e.  t.8.P.G.W.'.[.).r.    ",
"      ~._./.OX].~.7.P._.e.P.t.O ; L p 8 3 3 V :.> $ > B     O h             j       V > $ 7 :.B 4 3 8 p L ; O r.P.7.  %.e.~..XOX/._.~.      ",
"      P.~.~.oX@X_.e.C.#Xt.P.P.T c z 9 w e c ;.7 , # > N     - k             k -     N > # , a ;.p e w 9 z c Q P.P.7.  N r._.@XoX~.~.P.      ",
"      N.~.~.%X@X_.N.8.C.7.C.C.s.v H i 4 ; &.N X < @ g k     > k             k >     k > @ < X V %.* 4 i L v N.N.C.5.  N C._.@X%X~.!.N.      ",
"        !.).%X@X).P.N - ,.t.>.~.>.a ; = %.>.$ @ < X j g     k > o o     o o > k     g g X < @ - >.#.$ ; a 5.~.:.r.>.$ N P.).$X*X).P.        ",
"        K.).XX*X].P.k ; >.N.@.~.[.,.C >.e.x @ # < X k >   > V - r e o o Z r - V >   > j X < # @ m e.:.C 5.[.~.E N.;.; x !.].*XXX).K.        ",
"        N.~..X:X].N.* * *.J.B C.#X].~.P.;.% < # % @ k - O N $.7 ` G $ $ G K a %.x O > k @ % # < # :.P.~.].#XN.V J.#.* ; C.+X:X.X~.r.        ",
"          P..X:X].*.X # E J.B >.#X#X).P.g % w & X $ N g k #.$.d  .F # # D  .d %.#.k g N O X & w # j P.).#X+X:.C K.V # X :..X:X.XP.          ",
"          C.'.:X'.h X @ m C.B m 8.!.[.P.7 ; S * X > B B E :.V ~  .i o o S  .Y V ;.C B B > X * S ; g !.[.!.5.x C J.x X X k ].>X'.C.          ",
"            !.:X/.7 X X s J.o.h h M ;.J.$.6 H 5 o j x N E >.h ..' p o o f ..' h >.C N x g o 8 H : %.Z.&.b h h #.C.7 X X g '.&XP.            ",
"            N.*X(.>.7 X ; C.5.g n I - B w.7 c 4 O k N B *.%.c X.] y . . d ] X.c %.%.B N k O r c 7 q.m - I n g 8.C.; X a >. X$XN.            ",
"              '.*XN.7.X # 7.P.k I z - 6 x.x h & > N N V :.k / } | 7 . . 0 | } / k :.B N N > & h N x.: - z I x P.8.@ X 7.N.*X_.              ",
"                &XG.~.k X j ~.:.P 6 5 9 9.C 7 o g k k C V 0 } [ | ; . . : | [ } 0 V C k k g o 7 o.3.8 5 6 P >.~.h X N !.H.&X                ",
"                $X XC.C.o $ N.B.H ; t 7 3.#.- O j k x B : U [ { ^ $ o . $ ^ { [ P > B x k h O - %.3.7 t : H S.r.# O P.G.XX@X                ",
"                  oXF.].C . o.`.T 3 y g q.3.o > x k N > 7 } ) [ v o o o O I [ ) } 6 > N k x > O 6.w.g y 3 Q [.V . %.].F.oX                  ",
"                  }.|.P.!.O N ).x r h a c.w.+ k x N k ; U [ +.| 7 > - - > 7 | O.[ P ; k N x k O a.z.a h w B ).k O _.R.|.'.                  ",
"                     XT.+X:.8.].b i h 0 v.z.- V m N a 0 } ( { U g 8.8.8.8.g ! { ( | 7 g N m V - c.x.0 h i M +X>.>.[.T. X                    ",
"                      |.(.~.~.+X( y d 0 S.<.N C k $.!.9.( ) ] 0 5.C._.~.C.>.0 ] ) ( 9.!.#.x C x 3.V.0 d y O.#X!.~./.(.                      ",
"                        T.P.!.=X1.y y g C.d.i.C k N.6X5XN.^ H %.C.P.+X[.P.C.#.H ^ B.2X6XN.k E i.s.C.a y y 9.=XI.L.T.                        ",
"                          ;.C.-XS.y 9 k P.P.j.2.V #X6X5X2X=.V t.K.!.=X=X!.J.t.B =.2X6X5X[.V 2.b.P.K.k 9 y K.=XC.>.                          ",
"                            e.=X].W 5 *.~.!.s.g.1.2X6X5X].%.8.r.P.~.-X-X~.P.r.8.%.+X6X5X-X1.h.s.!.~.#.3 ( +X=X8.                            ",
"                            ;.+X=Xt.4 <.[.J.C.<.d.1X#XP.k @.8.N.!.~.1X-X~.!.r.8.E x K.=X2Xf.<.A.J.].=.4 s.=X+X%.                            ",
"                              ~.=X+XW $.].K.N.8.#.:.N O . @.8.N.~.!.-X-X!.~.r.8.C . O B <.#.8.N.P.].#.( +X=X~.                              ",
"                              C.=X=XI.5._.!.C.;.> { Q > . C 8.N._.K.-X-XP./.N.8.V . > Q ) > ;.C.!.~.,.!.=X=XN.                              ",
"                              7.#X=X-X+X_.~.C.:.> +.T k . B 8.C.).r.-X=Xr.).C.8.N . k W ) > :.B.~._.+X-X=X#X8.                              ",
"                              %.].-X1X#X].XXY.p.7 ^ R k O N 7.J._.5.1X=X5._.J.7.k O l ^ R 7 p.Q.XX].#X1X-X].%.                              ",
"                                ~.-X-X:X:XXXK.5.g v ! k O N e.J.~.%.-X1X;.~.J.e.k O k ! c g 8.L.XX:X;X-X-X~.                                ",
"                                P.,X4X3X+X~.K.8.k 0 ! j - k e.J.!.$.1X-X#.~.J.e.k - j ! 7 k 7.P.~.+X3X4X,XJ.                                ",
"                                F.<X,X#X).).P.e.@.; Y 7 - g 7.K.!.#.1X=X@.~.K.8.7 ; 7 Y ; #.e.P.).).#X,X<XV.                                ",
"                                7.+X#X#X+X).!.N.;.> t 5 # ; 8.P.^.#.-X1X#.~.P.8.- $ 5 t g :.N.!.).+X#X#X+X8.                                ",
"                                  [.=X=X=X#X).C.>.h 5 3 @ O 8.K._.%.-X=X%._.K.>.O @ 4 3 h >.C.[.#X=X=X=X).                                  ",
"                                  K.=X1X+X)._.A.5.c e 1 @ + ;.J.).5.+X).5.).J.%.. @ 1 e n 8.J._.`.+X1X#XC.                                  ",
"                                    B.t.I I $.6.>.7 Z , X   C C.C.r.K.C.N.C.C.V   X , Z s >.6.#.I T t.N.                                    ",
"                                      * & u 6 J H S w q     N J.6.P.:.>.U.6.J.k     q w F H J 6 u % *                                       ",
"                                    N.P.o.t n W y u e %     k J.<.!.~.~.U.4.C.k     , Z u p Q n t #.P.r.                                    ",
"                                    r.=X=XR.P.J.5.x A 1     j C.4.D.=X=Xd.9.N.g     1 A x 8.K.K.!.=X#Xe.                                    ",
"                                      ).2X1X+XP.N.$.2       > t.9.u.#X#Xu.0.e.        2 %.N.P.#X1X2X~.                                      ",
"                                      N.1X1X+X!.N.=.Z         8.B.y.E.E.y.B.5.        Z :.C.!.+X1X1Xr.                                      ",
"                                        +X-X#X_.N.:.S         %.J.k.m.m.k.J.%.        S :.C._.#X-X].                                        ",
"                                        C.=X=X).r.:.7         - >.l.M.M.l.;.-         7 >.N.[.=X=XN.                                        ",
"                                        ;.+X-X~.8.7.h         - 7.H.n.n.L.8.O         z 7.8._.-X+X%.                                        ",
"                                          !.-XN.C.e.k           8.!.q.q.~.8.          x t.C.V.-XP.                                          ",
"                                          7.P.P.~.t.V           8.P.J.Z.P.5.          C t.~.P.P.8.                                          ",
"                                            e.=X~.r.%.          %.N.~.!.N.%.          %.N._.=Xe.                                            ",
"                                            N.=X).C.>.          B 8.).~.8.N           >.C.[.=Xr.                                            ",
"                                              [.+XP.>.            %.J.J.%.          j >.P.+X).                                              ",
"                                              J.#X!.5.N           B 7.e.B           N 8.!.#XB.                                              ",
"                                                +X~.7.C           V t.e.N           @.7.~.+X                                                ",
"                                                !.~.e.>.            N.8.            >.e.~.P.                                                ",
"                                                  G.P.5.                            8.P.C.                                                  ",
"                                                  P.).7.g                         j e.).P.                                                  ",
"                                                    ~.N.N                         B N.~.                                                    ",
"                                                    C.J.%.                        ;.K.C.                                                    ",
"                                                      C.e.g                     j e.C.                                                      ",
"                                                        C.C                     @.C.                                                        ",
"                                                        e.>.-                 - >.7.                                                        ",
"                                                          C >                 7 C                                                           ",
"                                                            O                 O                                                             ",
"                                                              .             .                                                               ",
"                                                                                                                                            "
};
