/* XPM */
static char *result[] = {
/* columns rows colors chars-per-pixel */
"80 80 215 2 ",
"   c #030304",
".  c #04060B",
"X  c #06080D",
"o  c #0A0B0C",
"O  c #080709",
"+  c #040611",
"@  c #060A13",
"#  c #0B0D13",
"$  c #060B1B",
"%  c #0A0D1A",
"&  c #05071B",
"*  c #0F1014",
"=  c #0E121D",
"-  c #121315",
";  c #13151A",
":  c #17181C",
">  c #1B1B1D",
",  c #3B0000",
"<  c #060C24",
"1  c #090D23",
"2  c #06092C",
"3  c #0A0E2B",
"4  c #0E1123",
"5  c #0D112B",
"6  c #051225",
"7  c #131523",
"8  c #161922",
"9  c #1C1E22",
"0  c #16192C",
"q  c #1A1D2B",
"w  c #121629",
"e  c #0A0E35",
"r  c #080D39",
"t  c #0D1234",
"y  c #0E123C",
"u  c #121533",
"i  c #151835",
"p  c #1B1E33",
"a  c #12163C",
"s  c #15193B",
"d  c #181C3C",
"f  c #1E2024",
"g  c #1E212D",
"h  c #1E2133",
"j  c #1E213B",
"k  c #232324",
"l  c #24262A",
"z  c #27282C",
"x  c #2B2B2D",
"c  c #2A2926",
"v  c #222533",
"b  c #2D2E31",
"n  c #22263C",
"m  c #25293E",
"M  c #272A38",
"N  c #2F3032",
"B  c #323334",
"V  c #353639",
"C  c #3C3C3D",
"Z  c #373839",
"A  c #090F46",
"S  c #080E4E",
"D  c #0C1446",
"F  c #111641",
"G  c #181D46",
"H  c #141A57",
"J  c #1E2344",
"K  c #1D224C",
"L  c #1C2153",
"P  c #1F255C",
"I  c #212544",
"U  c #252942",
"Y  c #2A2F4D",
"T  c #24294A",
"R  c #2B304B",
"E  c #393C46",
"W  c #252A52",
"Q  c #252B59",
"!  c #2C335D",
"~  c #2B3255",
"^  c #393D55",
"/  c #363B57",
"(  c #181F71",
")  c #1D267C",
"_  c #252C66",
"`  c #2D3564",
"'  c #2D356B",
"]  c #353C63",
"[  c #343C6B",
"{  c #353C63",
"}  c #333B70",
"|  c #323C7C",
" . c #273077",
".. c #3E4244",
"X. c #3A405C",
"o. c #3A4169",
"O. c #394375",
"+. c #444445",
"@. c #44464B",
"#. c #444A4B",
"$. c #4B4C4C",
"%. c #4C4D51",
"&. c #4F5053",
"*. c #535454",
"=. c #55565B",
"-. c #5B5B5B",
";. c #575858",
":. c #454963",
">. c #585B63",
",. c #444C76",
"<. c #4B5279",
"1. c #5D6369",
"2. c #5F6C7B",
"3. c #636364",
"4. c #66666B",
"5. c #6B6B6C",
"6. c #66686E",
"7. c #6E6F73",
"8. c #646876",
"9. c #6A777A",
"0. c #747474",
"q. c #7B7B7C",
"w. c #767779",
"e. c #ED0101",
"r. c #E60000",
"t. c #F30000",
"y. c #FE0000",
"u. c #D70711",
"i. c #80807F",
"p. c #2C3680",
"a. c #3D4B9F",
"s. c #0D47B5",
"d. c #246CA8",
"f. c #4A578A",
"g. c #4D5C95",
"h. c #757A86",
"j. c #6D7A8E",
"k. c #5A6FA2",
"l. c #536293",
"z. c #1566FF",
"x. c #1266FB",
"c. c #586EC7",
"v. c #2C96BC",
"b. c #568486",
"n. c #6D8589",
"m. c #7E8182",
"M. c #738386",
"N. c #789398",
"B. c #4796A7",
"V. c #778FA5",
"C. c #2B9BC0",
"Z. c #7288C7",
"A. c #51D4DA",
"S. c #4AD4DE",
"D. c #53E4EC",
"F. c #838383",
"G. c #8B8B8B",
"H. c #888887",
"J. c #8E8F92",
"K. c #858D97",
"L. c #889496",
"P. c #949494",
"I. c #95969A",
"U. c #9B9C9C",
"Y. c #979898",
"T. c #8F908E",
"R. c #9FA09F",
"E. c #A0A09F",
"W. c #9092A3",
"Q. c #86A2A6",
"!. c #99A5A8",
"~. c #9AB3B4",
"^. c #8DA9B4",
"/. c #A4A4A4",
"(. c #ABABAB",
"). c #A4A9AB",
"_. c #ACADB3",
"`. c #ACB2B3",
"'. c #ADB7B8",
"]. c #B4B4B4",
"[. c #B6B6B9",
"{. c #BBBBBB",
"}. c #B4B9B9",
"|. c #C0BFBF",
" X c #C0C0BF",
".X c #B9B9C0",
"XX c #ABC6C8",
"oX c #BDC4C4",
"OX c #B6C8C9",
"+X c #B8D3D5",
"@X c #AFD1D4",
"#X c #B6DDE3",
"$X c #BEE1E4",
"%X c #C3C3C3",
"&X c #C4CCCC",
"*X c #CCCCCC",
"=X c #C8C7C7",
"-X c #C4D1D1",
";X c #C9D3D3",
":X c #C5DBDC",
">X c #CCDCDC",
",X c #D3D3D3",
"<X c #DCDCDC",
"1X c #D7D8D8",
"2X c #C3DFE0",
"3X c #CCE4E4",
"4X c #C8E4E4",
"5X c #D7E5E5",
"6X c #E4E4E4",
"7X c #ECECEC",
"8X c #E1EFEF",
"9X c #E6F2F2",
"0X c #F4F4F4",
"qX c #FCFCFC",
"wX c None",
/* pixels */
"wXwXwXwXwXwXwXwXwXwXwXwXwXwXwXwXwXwXwXwXwXwXwXwXwXwXwXwXwXwXwXwXwXwXwXwXwXwXwXwXwXwXwXwXwXwXwXwXwXwXwXwXwXwXwXwXwXwXwXwXwXwXwXwXwXwXwXwXwXwXwXwXwXwXwXwXwXwXwXwX",
"wXwXwXwXwXwXwXwXwXwXwXwXwXwXwXwXwXwXwXwXwXwXwXwXwXwXwXwXwXwXwXwXwXwXwXwXwXwXwXwXwXwXwXwXwXwXwXwXwXwXwXwXwXwXwXwXwXwXwXwXwXwXwXwXwXwXwXwXwXwXwXwXwXwXwXwXwXwXwXwX",
"wX  wXwXwXwXwXwXwXwXwXwXwXwXwXwXwXwXwXwXwXwXwXwXwXwXwXwXwXwXwXwXwXwXwXwXwXwXwXwXwXwXwXwXwXwXwXwXwXwXwXwXwXwXwXwXwXwXwXwXwXwXwXwXwXwXwXwXwXwXwXwXwXwXwXwXwXwX  wX",
"wXo wXwXwXwXwXwXwXwXwXwXwXwXwXwXwXwXwXwXwXwXwXwXwXwXwXwXwXwXwXwXwXwXwXwXwXwXwXwXwXwXwXwXwXwXwXwXwXwXwXwXwXwXwXwXwXwXwXwXwXwXwXwXwXwXwXwXwXwXwXwXwXwXwXwXwXwXo wX",
"wXZ C wXwXwXwXwXwXwXO wXwXwXwXwXwXwXwXwXwXwXwXwXwXwXwXwXwXwXwXwXwXwXwXwXwXwXwXwXwXwXwXwXwXwXwXwXwXwXwXwXwXwXwXwXwXwXwXwXwXwXwXwXwXwXwX*.wXo wXwXwXwXwXwXwXC V wX",
"wX+.i.wXwXwXwXwXwXwXc H.F.wXwXwXwXwXwXwXwXwXwXwXwXwXwXwXwXwXwXwXwXwXwXwXwXwXwXwXwXwXwXwXwXwXwXwXwXwXwXwXwXwXwXwXwXwXwXwXwXwXwXwXwXwX  P.U.x wXwXwXwXwXwXwXi.+.wX",
"wXC U.i.wXwXwXwXwXwX+.(.(.o wXwXwXwXwXwXwXwXwXwXwXwXwXwXwXwX  wXwXwXwXwXwXwXwXwXwXwXwXwXwXwXwXwXwX  wXwXwXwXwXwXwXwXwXwXwXwXwXwXwXwX* /.Y.+.wXwXwXwXwXwXF.P.wXwX",
"wXwXY./.7.wXwXwXwXZ *.P.].z wXwXwXwXwXwXwXwX; u 3 wXwXwXwXN k wXwXwXwXwXwXwXwXwXwXwXwXwXwXwXwXwXwXc x wXwXwXwX2 u - wXwXwXwXwXwXwXc N  XG.;.wXwXwXwXwX0.(.P.wXwX",
"wXwXY.(.U.wXwXwXwX*.3.F. X+.$.wXwXwXwXwXwXq Q H 7 wXwXwX> $.C O wXwXwXwXwXwXwXwXwXwXwXwXwXwXwXwXO +.$.- wXwXwXw Q Q q wXwXwXwXwXwX$.+.,Xq.3.$.wXwXwXwXU.].P.wXwX",
"wXwXP.].].i.wXwXwX0.3.w.*X@.0.wXwXwXwXwX@ L I p H 3 wXwXC *.$.: wXwXwXwX  wXwXwXwXwXwX  wXwXwXwX> $.*.C wXwXe G p G H + wXwXwXwXwX0.$.1X5.5.0.wXwXwXF.].].T.wXwX",
"wXwXF.].}.(.;.wXwXF.5.5.<X*.H.$.wXwXwX  ; h G H i 5 @ B *.k x B wXwXwXwX- wXwXwXwXwXwX- wXwXwXwXB c c *.B & 3 i H G n ;   wXwXwX*.H.C %X3.5.F.wXwX-.].].(.q.wXwX",
"wXwXwX(.{.{.).2.-.P.0.3.<X3.G.w.wXwXwX@ H W a u F 5 k ;.B o k C wXwXwX- > wXwXwXwXwXwX> - wXwXwXC 9 # Z *.9 t F 5 d L G X wXwXwXq.G.c wX-.w.P.-.9.(.{.{.(.wXwXwX",
"wXwXwX/.{.].}.#X(./.i.-.<X0.F.Y.-.wX. 7 n d F u 7 - $.&.* * k Z wXwXwX: 9 wXwXwXwXwXwXk ; wXwXwXC 9 # - &.$.- 7 u F d n 7   wX3.Y.F.k wX&.F.(.`.#X'.].{.U.wXwXwX",
"wXwXwXP.].(.`.#X%X].G.;.<XF.i.E.G.; * v d 0 = 5 e E ;.l % @ k V wXwXwXk k wXwXwXwXwXwXk 9 wXwXwXZ k # % z ;.V r 3 % 0 n n # > G.E.i.wXwX+.G.].oX#X`._.].P.wXwXwX",
"wXwXwXq.(.(.(.$X&X].P.*.,X/.i.E./.=.I U h a F r g ;.k & < X c x wXwX  N > wXwXwXwXwXwX9 c   wXwXB k X 1 & c ;.q A F i p I I >./.E.q.wXwX@.U.].&X$X(.(./.w.wXwXwX",
"wXwXwXwXY.).`.4X&X].E.;.G.4.q.F.h.Y.V I d u 1 - *.+.. < < . x c wXwXo B - wXwXwXwXwXwX- B o wXwXc z . < < O +.&.- 1 i G I V U.q.H.w.- wX;.E.].-X4X(.(.Y.wXwXwXwX",
"wXwXwXwXF.(.{.2X&X].(.3.- ; q.w.&.].w.x : * * $.4.; . < < O B > wXwX> N       wXwX      B : wXwX> B   < < . > 4.+.* * 8 x q.].$.q.0.; * 4.(.}.-X:X].(.i.wXwXwXwX",
"wXwXwXwX3.(.].+X:X|.].3.- 8 0.h.Z /. Xq.l l &.w.Z . @ < < O B - wXo B c # D <     3 a @ z B wXwX; B . < $ @ + ..w.$.c z F.oX/.V F.5.: ; 5.}.%X:X+X].(.wXwXwXwXwX",
"wXwXwXwXwXU.(.OX3X%X(...* = 5.T.B H.%X XU.P.T.3.= 2 @ $ < X V - wXf +.x 7 ( a @ @ F ( : B +.> wX- B o < $ @ 2 * 3.P.P.U.%X%Xq.B P.3.; % +.].%X3XOX(.P.wXwXwXwXwX",
"wXwXwXwXwXw.(.&X3X%XY.; @ = -.Y.B ;.=X*X{.(.P.c + e $ @ . * N o - Z &.N J ) i @ $ s ) j B $.V - * B # + @ $ r . x Y.].{.*X%X&.Z U.*.% @ > U.%X3XoX(.0.wXwXwXwXwX",
"wXwXwXwXwXwX/.%X3X=X5.. @ @ %.Y.V V T.*X%X}.H.- @ F 4 @   k B N Z $.*.k _ ) i X X i  ._ l *.@.V x B k   @ 4 F % ; T.}.%X*XG.B E Y.@.$ + . 0.&X4X%XU.wXwXwXwXwXwX",
"wXwXwXwXwXwXG.].4X-X+.. X X E Y.V x N 1.Y.}.Y.: ; K 0 @ o x B V C *.+.g p._ 0 O . 0 _  .q $.*.C Z B x   @ 0 G ; 9 E.].P.-.N x Z Y.V X X   $.-X4X].H.wXwXwXwXwXwX",
"wXwXwXwXwXwXwXU.>X-XC @ . . b Y.+.z l h M #.P.+.: j d X - x x V C >.x W | _ 8 . . q ' p.Y b -.C B x x - X d j : $.P.+.M v l l $.Y.x . . % +.;X>XY.wXwXwXwXwXwXwX",
"wXwXwXwXwXwXwXi.&X:X5.@.. . f U.7.f l Y l * ..9.> v d X > N B Z %.;.f } [ ` 8     8 ' } ' k -.$.Z B B > X G v > n.E o v Y l k w.P.8 . . $.5.4X*Xq.wXwXwXwXwXwXwX",
"wXwXwXwXwXwXwXwX].3Xm.U.k . # w./.N M Y > * g N.z z 7 @ x B B Z -.B m | ] ` -     : ` { | n V *.Z N N x @ 7 l x N.8 * > R v Z /.0.# . k P.m.3X`.wXwXwXwXwXwXwXwX",
"wXwXwXwXwXwXwXwXP.>X).Y.q.. @ V ].3.m n - 7 g n.C k X - b x x C +.> ` [ ] ~ *     - ~ ] [ ! : $.Z N x x * # l ..h.8 4 - m m 5.`.N X . i.G.'.>XwXwXwXwXwXwXwXwXwX",
"wXwXwXwXwXwXwXwXwXoX:Xw.{.x . - J.P.I q ; i 8 8.+.> o > x l N C f g } ] o.U X     o U o.] } g f C N z z ; o > $.1.f j = q U U.H.# . Z =Xw.4X{.wXwXwXwXwXwXwXwXwX",
"wXwXwXwXwXwXwXwXwXwX4XL./.P.X X %.{.:.= u h f h.-.# O l l x V k - ! ] / [ g   X . . v ] / [ ~ - k V x z c O * 3.9.g g t 4 :.oX+.X O E.!.Q.:XwXwXwXwXwXwXwXwXwXwX",
"wXwXwXwXwXwXwXwXwXwX'.@Xm.*XC   9 {.4.% s l f N.9.o - N b B N - h } ^ o.! : O o o . > ` o.^ } g - N N x N - o M.n.k l s % 7.].:   &.1Xm.+X'.wXwXwXwXwXwXwXwXwXwX",
"wXwXwXwXwXwXwXwXwXwXwXXX~.(.(.o x oX*.3 j l f Q.M.  x B N B f ; ~ / X.] U - C : > C - T ] X.] W ; k B N B z O N.N.9 l d 1 3.{.k o {./.~.XXwXwXwXwXwXwXwXwXwXwXwX",
"wXwXwXwXwXwXwXwXwXwXwXwX@XL.*X-.3.,X*.a g v q Q.V.* C B B B f g } ^ o.` 8 +.w.m.q.w.C q ` o.E } f f B N B C ; V.Q.q v h y -.,X-.3.%XL.XXwXwXwXwXwXwXwXwXwXwXwXwX",
"wXwXwXwXwXwXwXwXwXwXwXwXL.XX'./.).,X4.F g j k U.1.z ..N x 5.}.7.^ ^ [ J N F.G.{.{.G.i.z T ] ^ ^ 8.{.4.x N #.z 1.P.9 j q G 7.1X/.(.'.XXL.wXwXwXwXwXwXwXwXwXwXwXwX",
"wXwXwXwXwXwXwXwXwXwXwXwXwXL.).!.U.,XJ.G p 0 x U.h.k.@.N B [.qX0Xq.Y Q l 5.Y.P.*X|.P.P.5.9 Q R H.7XqX{.N B @.k.h.I.l p h G W.,XY.U.~.N.wXwXwXwXwXwXwXwXwXwXwXwXwX",
"wXwXwXwXwXwXwXwXwXwXwXwXwXwX#.3.H.1X[.U d : V U.W.Z.f.B -.7XqX0X7X1.q -.F.U.U.1X1XU.U.H.;.0 6.7X0XqX6X&.Z g.Z.U.U.N 8 i E {.,Xi.3.#.wXwXwXwXwXwXwXwXwXwXwXwXwXwX",
"wXwXwXwXwXwXwXwXwXwXwXwXwXwXwXwX3.,X,X>.i ; -.(./.h.c.} G.qX0X7X7X3.$.w.H./.).<X6X/.E.H.w.$.4.7XqX0X7Xi.} c.h.(./.;.; u 3.,X,X-.wXwXwXwXwXwXwXwXwXwXwXwXwXwXwXwX",
"wXwXwXwXwXwXwXwXwXwXwXwXwXwXwXwX+.=X<XU.q 5 7.[.Y.T.2.a..XqXqX6X0.V 3.w.G.(.(.7X6X(.(.H.0.3.B w.6XqXqX_.a.8.T.Y.{.4.5 h /.<X|.+.wXwXwXwXwXwXwXwXwXwXwXwXwXwXwXwX",
"wXwXwXwXwXwXwXwXwXwXwXwXwXwXwXwXwX].,X*X=.e 7.|.T.J.q.@.(./.7.V O B 3.w.T.(.(.7X6X/.(.G.0.3.N O Z 0.].(.@.q.J.T.%X4.e >.*X1X(.wXwXwXwXwXwXwXwXwXwXwXwXwXwXwXwXwX",
"wXwXwXwXwXwXwXwXwXwXwXwXwXwXwXwXwXJ.,X<X_.v 3.|.U.H.0.C x U c o   B 3.0.P.].U.6X6XU.].P.0.3.x   o z Y z ..0.G.E.{.;.M ].1X,XH.wXwXwXwXwXwXwXwXwXwXwXwXwXwXwXwXwX",
"wXwXwXwXwXwXwXwXwXwXwXwXwXwXwXwXwX5.*X,X*XU.7.[./.P.3.k z f.x 9   x 3.7.U.[.H.6X7XH.{.U.0.-.c   9 N f.l l 4.P./.].7.E.,X1X*X3.wXwXwXwXwXwXwXwXwXwXwXwXwXwXwXwXwX",
"wXwXwXwXwXwXwXwXwXwXwXwXwXwXwXwXwX+.|.,X,X<X=X].(.T.6.M g ,.b x   c 3.q.E.].0.7X<X5.].E.q.-.k O x b ,.9 N 6.P.(.].=X<X1X*X{.E wXwXwXwXwXwXwXwXwXwXwXwXwXwXwXwXwX",
"wXwXwXwXwXwXwXwXwXwXwXwXwXwXwXwXwXc ).,X<X<X=X{.oX^.j.E : } M B O k 3.i././.3.7X6X;.(./.i.3.> o B M [ : E V.^.oX{.=X6X<X,X/.k wXwXwXwXwXwXwXwXwXwXwXwXwXwXwXwXwX",
"wXwXwXwXwXwXwXwXwXwXwXwXwXwXwXwXwXwXT.1X<X<X1X>X+X!.q.E ; { m B o k 3.F.(.P.$.7X0X$.U./.F.3.> o B I / - E w.).+X3X;X1X<X,XH.wXwXwXwXwXwXwXwXwXwXwXwXwXwXwXwXwXwX",
"wXwXwXwXwXwXwXwXwXwXwXwXwXwXwXwXwXwX0.,X5X9X8X-X(.P.0.+.- Y I x - > 4.i.(.H.$.7X0X+.P./.F.3.: - x T Y - +.q.P.(.;X8X7X5X,X5.wXwXwXwXwXwXwXwXwXwXwXwXwXwXwXwXwXwX",
"wXwXwXwXwXwXwXwXwXwXwXwXwXwXwXwXwXwX-.3X9X7X*X].]./.i.&.> g W 9 - ; 3.i.(.H.$.0X6X+.T.(.i.-.- : f W q > *.i.(.].].,X7X9X>X*.wXwXwXwXwXwXwXwXwXwXwXwXwXwXwXwXwXwX",
"wXwXwXwXwXwXwXwXwXwXwXwXwXwXwXwXwXwX#.&X<X*X%X{.].E.F.3.b - K : ; - ;.F.(.H.$.0X7X+.T.(.i.;.# - ; W * B 3.F./.[.{.%X*X<XOXwXwXwXwXwXwXwXwXwXwXwXwXwXwXwXwXwXwXwX",
"wXwXwXwXwXwXwXwXwXwXwXwXwXwXwXwXwXwXwXY.*X,X*X%X{.].P.5.+.- s 4 X O &.G.(.T.+.7X7X+.P.(.H.$.. @ 5 i - +.5.P.].{.%X,X,X*XP.wXwXwXwXwXwXwXwXwXwXwXwXwXwXwXwXwXwXwX",
"wXwXwXwXwXwXwXwXwXwXwXwXwXwXwXwXwXwXwXP.,X,X1X<X,X|.U.7.$.7 w 3 @   C H././.+.6X<X+.(./.H.C   + 3 5 7 $.0.U.|.,X1X1X,X*XG.wXwXwXwXwXwXwXwXwXwXwXwXwXwXwXwXwXwXwX",
"wXwXwXwXwXwXwXwXwXwXwXwXwXwXwXwXwXwXwX-.].<X6X{.[.[.U.w.$.a t 3 .   N F./.[.$.1X=X$.].E.i.c   . 3 u s *.w./.].[.{.6X1X].-.wXwXwXwXwXwXwXwXwXwXwXwXwXwXwXwXwXwXwX",
"wXwXwXwXwXwXwXwXwXwXwXwXwXwXwXwXwXwXwXwX4.T.w.m m +.5.7.@.4 D $ . wX> i.G.E.3./.U.4.Y.G.q.> wX. % H = $.7.4.+.U m q.G.3.wXwXwXwXwXwXwXwXwXwXwXwXwXwXwXwXwXwXwXwX",
"wXwXwXwXwXwXwXwXwXwXwXwXwXwXwXwXwXwXwXwXwXwX+ 1 a 8 d W j t D 2 wXwX- w.F.w.T.-.;.I.0.G.0.o wXwXe r i d W j 8 a % + wXwXwXwXwXwXwXwXwXwXwXwXwXwXwXwXwXwXwXwXwXwX",
"wXwXwXwXwXwXwXwXwXwXwXwXwXwXwXwXwXwXwXwXwXq.-.8 t q l H 0 H 3 2 wXwXX 7.J.>.{.w.i.[.=.P.4.O wXwXe 3 H 0 H g 0 e 8 >.w.wXwXwXwXwXwXwXwXwXwXwXwXwXwXwXwXwXwXwXwXwX",
"wXwXwXwXwXwXwXwXwXwXwXwXwXwXwXwXwXwXwXwXwX(.,XI.>.:.F.%.b a A . wXwXwX3.Y.:.].,X,X_.:.U.-.wXwXwX. S u b =.h.&.>.U.,X(.wXwXwXwXwXwXwXwXwXwXwXwXwXwXwXwXwXwXwXwXwX",
"wXwXwXwXwXwXwXwXwXwXwXwXwXwXwXwXwXwXwXwXwXw.1X7X1X=X(.H.5.f A wXwXwXwX*.Y.o.W.,X,XW.o.Y.*.wXwXwXr A l 5.H.(.=X<X6X,X0.wXwXwXwXwXwXwXwXwXwXwXwXwXwXwXwXwXwXwXwXwX",
"wXwXwXwXwXwXwXwXwXwXwXwXwXwXwXwXwXwXwXwXwXwX{.6X6X=X/.T.0.b $ wXwXwXwX+.P.:.l.*X=Xf.<.P.C wXwXwXwX& V 0.J./.*X6X7X{.wXwXwXwXwXwXwXwXwXwXwXwXwXwXwXwXwXwXwXwXwXwX",
"wXwXwXwXwXwXwXwXwXwXwXwXwXwXwXwXwXwXwXwXwXwXG.6X<X=X(.Y.w./ A wXwXwXwXB G.j.d.^.^.d.h.H.c wXwXwXwXS ^ w.U.(.=X6X6Xi.wXwXwXwXwXwXwXwXwXwXwXwXwXwXwXwXwXwXwXwXwXwX",
"wXwXwXwXwXwXwXwXwXwXwXwXwXwXwXwXwXwXwXwXwXwX$.=X<X*X.XU.0.E A wXwXwXwX> w.N.C.S.S.v.J.0.> wXwXwXwXA +.0.U.|.*X<X%X+.wXwXwXwXwXwXwXwXwXwXwXwXwXwXwXwXwXwXwXwXwXwX",
"wXwXwXwXwXwXwXwXwXwXwXwXwXwXwXwXwXwXwXwXwXwXwXP.1X1X=XY.5.$.# wXwXwXwXwXk w.B.D.D.B.5.k wXwXwXwXwX# $.5.U.=X1X1XG.wXwXwXwXwXwXwXwXwXwXwXwXwXwXwXwXwXwXwXwXwXwXwX",
"wXwXwXwXwXwXwXwXwXwXwXwXwXwXwXwXwXwXwXwXwXwXwX*.=X<X=Xi.3.>.; wXwXwXwXwXc P.N.A.A.N.T.k wXwXwXwXwX; 3.3.F.*X<X%X$.wXwXwXwXwXwXwXwXwXwXwXwXwXwXwXwXwXwXwXwXwXwXwX",
"wXwXwXwXwXwXwXwXwXwXwXwXwXwXwXwXwXwXwXwXwXwXwXwX(.6X].5.G.>.: wXwXwXwXwX> P.R.b.b.E.G.: wXwXwXwXwX8 3.G.7.[.6XE.wXwXwXwXwXwXwXwXwXwXwXwXwXwXwXwXwXwXwXwXwXwXwXwX",
"wXwXwXwXwXwXwXwXwXwXwXwXwXwXwXwXwXwXwXwXwXwXwXwX0.*Xi./.P.3.k wXwXwXwXwXc P.I.m.i.U.T.k wXwXwXwXwXk 5.P./.i.*X5.wXwXwXwXwXwXwXwXwXwXwXwXwXwXwXwXwXwXwXwXwXwXwXwX",
"wXwXwXwXwXwXwXwXwXwXwXwXwXwXwXwXwXwXwXwXwXwXwXwXwXw./.=XP.7.N wXwXwXwXwXwXw.G././.G.w.wXwXwXwXwXwXV 7.P.&XE.w.wXwXwXwXwXwXwXwXwXwXwXwXwXwXwXwXwXwXwXwXwXwXwXwXwX",
"wXwXwXwXwXwXwXwXwXwXwXwXwXwXwXwXwXwXwXwXwXwXwXwXwX;.1X=XP.q.C wXwXwXwXwXwX3.w.].(.q.-.wXwXwXwXwXwX+.q.U.=X,X&.wXwXwXwXwXwXwXwXwXwXwXwXwXwXwXwXwXwXwXwXwXwXwXwXwX",
"wXwXwXwXwXwXwXwXwXwXwXwXwXwXwXwXwXwXwXwXwXwXwXwXwXwX%X*XE.F.$.wXwXwXwXwXwX+.5. X].3.C wXwXwXwXwXwX$.F./.*X%XwXwXwXwXwXwXwXwXwXwXwXwXwXwXwXwXwXwXwXwXwXwXwXwXwXwX",
"wXwXwXwXwXwXwXwXwXwXwXwXwXwXwXwXwXwXwXwXwXwXwXwXwXwXY.*X[.H.&.wXwXwXwXwXwXz *.P.P.*.c wXwXwXwXwXwX*.H.{.*XP.wXwXwXwXwXwXwXwXwXwXwXwXwXwXwXwXwXwXwXwXwXwXwXwXwXwX",
"wXwXwXwXwXwXwXwXwXwXwXwXwXwXwXwXwXwXwXwXwXwXwXwXwXwXwX%X=XG.;.k wXwXwXwXwXwXC 0.w.C wXwXwXwXwXwXc -.G.*X%XwXwXwXwXwXwXwXwXwXwXwXwXwXwXwXwXwXwXwXwXwXwXwXwXwXwXwX",
"wXwXwXwXwXwXwXwXwXwXwXwXwXwXwXwXwXwXwXwXwXwXwXwXwXwXwX).*XP.3.N wXwXwXwXwXwXC q.w.B wXwXwXwXwXwXV 3.P.*XE.wXwXwXwXwXwXwXwXwXwXwXwXwXwXwXwXwXwXwXwXwXwXwXwXwXwXwX",
"wXwXwXwXwXwXwXwXwXwXwXwXwXwXwXwXwXwXwXwXwXwXwXwXwXwXwXi.%XU.5.&.wXwXwXwXwXwX-.F.0.wXwXwXwXwXwXwX*.5.U.%XwXwXwXwXwXwXwXwXwXwXwXwXwXwXwXwXwXwXwXwXwXwXwXwXwXwXwXwX",
"wXwXwXwXwXwXwXwXwXwXwXwXwXwXwXwXwXwXwXwXwXwXwXwXwXwXwXwXR.G.H.;.wXwXz.z.wXwXwX-.wXwXwXwXz.wXwXwX-.G.T.U.wXwXwXwXwXwXwXwXwXwXwXwXwXwXwXwXwXwXwXwXwXwXwXwXwXwXwXwX",
"wXwXwXwXwXwXwXwXwXwXwXwXwXwXwXwXwXwXwXwXwXwXwXwXwXwXwXwXwX/./.3.- wXwXwXz.wXwXwXwXwXz.wXz.wXwX: 3././.wXwXwXwXwXwXwXwXwXwXwXwXwXwXwXwXwXwXwXwXwXwXwXwXwXwXwXwXwX",
"wXwXwXwXwXwXwXwXwXwXwXwXwXwXwXwXwXwXwXwXwXwXwXwXwXwXwXwXwX(.].7.k wXwXwXz.wXz.wXwXz.wXwXz.wXwXc w.]./.wXwXwXwXwXwXwXwXwXwXwXwXwXwXwXwXwXwXwXwXwXwXwXwXwXwXwXwXwX",
"wXwXwXwXwXwXwXwXwXwXwXwXwXwXwXwXwXwXwXwXwXwXwXwXwXwXwXwXwXwX(.i.Z wXwXz.z.wXwXwXwXwXwXz.z.wXwXC F.(.wXwXwXwXwXwXwXwXwXwXwXwXwXwXwXwXwXwXwXwXwXwXwXwXwXwXwXwXwXwX",
"wXwXwXwXwXwXwXwXwXwXwXwXwXwXwXwXwXwXwXwXwXwXwXwXwXwXwXwXwXwXG.P.*.- wXwXwXwXr.e.t.t.wXwXz.x.- ;.P.G.wXwXwXwXwXwXwXwXwXwXwXwXwXwXwXwXwXwXwXwXwXwXwXwXwXwXwXwXwXwX",
"wXwXwXwXwXwXwXwXwXwXwXwXwXwXwXwXwXwXwXwXwXwXwXwXwXwXwXwXwXwXwXP.w.c s.x.wXt.y.y.y.y.y.wXx.s.c q.P.wXwXwXwXwXwXwXwXwXwXwXwXwXwXwXwXwXwXwXwXwXwXwXwXwXwXwXwXwXwXwX",
"wXwXwXwXwXwXwXwXwXwXwXwXwXwXwXwXwXwXwXwXwXwXwXwXwXwXwXwXwXwXwX0.G.+.1 wXu.y.y.y.y.y.y.t.wX6 $.G.5.wXwXwXwXwXwXwXwXwXwXwXwXwXwXwXwXwXwXwXwXwXwXwXwXwXwXwXwXwXwXwX",
"wXwXwXwXwXwXwXwXwXwXwXwXwXwXwXwXwXwXwXwXwXwXwXwXwXwXwXz.z.wXwXwXw.5.- wXt.y.y.y.y.y.y.t.wX- 5.w.wXwXz.z.wXwXwXwXwXwXwXwXwXwXwXwXwXwXwXwXwXwXwXwXwXwXwXwXwXwXwXwX",
"wXwXwXwXwXwXwXwXwXwXwXwXwXwXwXwXwXwXwXwXwXwXwXwXwXwXwXwXwXz.z.wXwX;.z wXt.y.y.y.y.y.y.y., N ;.wXz.z.wXwXwXwXwXwXwXwXwXwXwXwXwXwXwXwXwXwXwXwXwXwXwXwXwXwXwXwXwXwX",
"wXwXwXwXwXwXwXwXwXwXwXwXwXwXwXwXwXwXwXwXwXwXwXwXwXwXwXwXwXwXwXwXwXwXk   r.y.y.y.y.y.y.r.o k wXwXwXwXwXwXwXwXwXwXwXwXwXwXwXwXwXwXwXwXwXwXwXwXwXwXwXwXwXwXwXwXwXwX",
"wXwXwXwXwXwXwXwXwXwXwXwXwXwXwXwXwXwXwXwXwXwXwXwXwXwXwXwXwXwXwXz.wXwXwX  wXt.y.y.y.y.y.wX  D wXwXwXwXwXwXwXwXwXwXwXwXwXwXwXwXwXwXwXwXwXwXwXwXwXwXwXwXwXwXwXwXwXwX",
"wXwXwXwXwXwXwXwXwXwXwXwXwXwXwXwXwXwXwXwXwXwXwXwXwXwXwXwXwXz.z.z.wXwXwX  wXwXr.t.t.e.wXwXwXwXz.z.z.z.z.wXwXwXwXwXwXwXwXwXwXwXwXwXwXwXwXwXwXwXwXwXwXwXwXwXwXwXwXwX",
"wXwXwXwXwXwXwXwXwXwXwXwXwXwXwXwXwXwXwXwXwXwXwXwXwXwXwXwXwXwXwXwXwXwXwXwXwXwXwXwXwXwXwXwXwXwXwXwXwXwXwXwXwXwXwXwXwXwXwXwXwXwXwXwXwXwXwXwXwXwXwXwXwXwXwXwXwXwXwXwX"
};
