/* XPM */
static char *b8043de2bc194fbba3f8fbaf692ca67f[] = {
/* columns rows colors chars-per-pixel */
"70 70 214 2 ",
"   c None",
".  c #030405",
"X  c #04050B",
"o  c #07090B",
"O  c #0B0B0C",
"+  c #080709",
"@  c #040612",
"#  c #060A14",
"$  c #0B0D13",
"%  c #060A1C",
"&  c #0A0D1A",
"*  c #0E111C",
"=  c #0E1014",
"-  c #131315",
";  c #12141B",
":  c #16191D",
">  c #1B1B1D",
",  c #2E0201",
"<  c #070B24",
"1  c #0A0D23",
"2  c #070B2A",
"3  c #0A0F28",
"4  c #0E1124",
"5  c #0D112B",
"6  c #111323",
"7  c #171A22",
"8  c #1B1D23",
"9  c #11142B",
"0  c #16192C",
"q  c #1B1E2B",
"w  c #070B37",
"e  c #0E1234",
"r  c #0C113E",
"t  c #0E1C36",
"y  c #111534",
"u  c #151934",
"i  c #1A1D35",
"p  c #11153B",
"a  c #15193B",
"s  c #1A1E3B",
"d  c #1F2024",
"f  c #1E2129",
"g  c #1F2234",
"h  c #1C213C",
"j  c #232324",
"k  c #23252C",
"l  c #27282A",
"z  c #2B2B2D",
"x  c #222536",
"c  c #2D2E31",
"v  c #22253A",
"b  c #25283D",
"n  c #292B3A",
"m  c #262937",
"M  c #2E3033",
"N  c #2E313D",
"B  c #323334",
"V  c #353639",
"C  c #37383B",
"Z  c #3B3B3C",
"A  c #3C3A36",
"S  c #2F302F",
"D  c #0D1243",
"F  c #0A1049",
"G  c #151944",
"H  c #161A48",
"J  c #141A54",
"K  c #1E2244",
"L  c #1C214E",
"P  c #1D2357",
"I  c #202441",
"U  c #252A44",
"Y  c #292C43",
"T  c #252B4D",
"R  c #21264C",
"E  c #2E3144",
"W  c #2E334C",
"Q  c #3D3E41",
"!  c #33354B",
"~  c #353848",
"^  c #252B52",
"/  c #232852",
"(  c #2C3253",
")  c #2B325A",
"_  c #393D53",
"`  c #393E5B",
"'  c #373C57",
"]  c #1A2061",
"[  c #2D356D",
"{  c #2F3668",
"}  c #343B65",
"|  c #383F65",
" . c #323A6B",
".. c #333A64",
"X. c #242C78",
"o. c #2C3671",
"O. c #323C77",
"+. c #3F4043",
"@. c #3C405A",
"#. c #3B4161",
"$. c #444545",
"%. c #444549",
"&. c #47484A",
"*. c #4B4B4C",
"=. c #50504F",
"-. c #4D4E50",
";. c #4B4D5A",
":. c #4F5055",
">. c #545454",
",. c #54555B",
"<. c #5B5B5C",
"1. c #5E5F62",
"2. c #555868",
"3. c #565A7A",
"4. c #485473",
"5. c #5B6369",
"6. c #5D6175",
"7. c #646464",
"8. c #65676C",
"9. c #6C6C6C",
"0. c #676867",
"q. c #656A77",
"w. c #6A747B",
"e. c #677A7C",
"r. c #747474",
"t. c #757679",
"y. c #7B7B7B",
"u. c #777878",
"i. c #9B0000",
"p. c #A20000",
"a. c #E60204",
"s. c #F40000",
"d. c #FE0000",
"f. c #CC0F26",
"g. c #2C5C96",
"h. c #4E5786",
"j. c #596A98",
"k. c #626B83",
"l. c #777B88",
"z. c #777C96",
"x. c #6D788B",
"c. c #4D5FB5",
"v. c #4E61B5",
"b. c #3A4FC5",
"n. c #0F5CE8",
"m. c #1566FF",
"M. c #1568FF",
"N. c #697EC1",
"B. c #3A8CB0",
"V. c #5D929D",
"C. c #68848B",
"Z. c #76888B",
"A. c #748F95",
"S. c #6C80BF",
"D. c #51BDC3",
"F. c #47CBD8",
"G. c #4EDDE6",
"H. c #838484",
"J. c #8C8C8C",
"K. c #86878A",
"L. c #90908F",
"P. c #8D8F92",
"I. c #838699",
"U. c #8D9292",
"Y. c #889596",
"T. c #939393",
"R. c #94999A",
"E. c #9B9C9C",
"W. c #93969B",
"Q. c #908F8F",
"!. c #9E9EA2",
"~. c #8E9FB1",
"^. c #96A6A7",
"/. c #8CAAB4",
"(. c #97B6BA",
"). c #90A1B2",
"_. c #A3A3A3",
"`. c #AAAAAA",
"'. c #ADADAD",
"]. c #ABABAB",
"[. c #A8A8A8",
"{. c #ADB3B3",
"}. c #A7BABA",
"|. c #B1B1B1",
" X c #B4B4B4",
".X c #B6B6B9",
"XX c #B4B9B9",
"oX c #BCBCBC",
"OX c #B8B8B7",
"+X c #A9BFC0",
"@X c #A8C2C4",
"#X c #BCC4C4",
"$X c #B5C7C9",
"%X c #BAD7D9",
"&X c #B6DAE1",
"*X c #C3C4C4",
"=X c #C2CCCC",
"-X c #CBCBCB",
";X c #C4DADB",
":X c #CDDEDE",
">X c #C4D4D5",
",X c #D4D4D4",
"<X c #DBDBDB",
"1X c #D5DFDF",
"2X c #CCE2E2",
"3X c #C7E2E2",
"4X c #DEE3E3",
"5X c #DBE8E8",
"6X c #E2E2E2",
"7X c #EBEBEA",
"8X c #E4EBEB",
"9X c #EAF3F3",
"0X c #F5F5F5",
"qX c #FBFBFB",
/* pixels */
"                                                                                                                                            ",
"                                                                                                                                            ",
"  .                                                                                                                                     .   ",
"  j                                                                                                                                     j   ",
"  ,.<.            j J.j                                                                                             B '.Z             <.,.  ",
"  <.T.            ,.-XB                                                                                             V *X>.            T.<.  ",
"  <._.J.        &.<.-X*.j             - y <         j                                 j         2 9 -             j >.*X,.&.        T._.<.  ",
"    _.'.r.      <.<.oX7.*.          4 / P 9       Z *.-                             - *.Z       9 P / *           *.9.*X<.<.      u.'._.    ",
"    _. X_.&.    u.<.*Xr.9.Z       . a K s H 1   B *.&.j         .         .         l &.*.z   1 H s K u .       Z 9.u. X<.u.    *._. XE.    ",
"    T. XOXJ.c   H.<. XJ.u.0.      & K H G y e j >.l > V       - O         O -       C > z >.8 e u G H K &       9.r.>.T.<.H.  M J.OX XT.    ",
"    y. XOXXX(.U.E.7._.E.r.J.    . i K a p e ; *.+.$ > Z       8 O         O 8       C > $ $.*.; e p a K u .     J.r.  r.0.E.U.(.XXOX Xu.    ",
"      '.|.{.&XoX`.9.E.|.r.E.u.. ; I s 9 4 4 Z ,.> $ > V     O j             j       V > $ 8 ,.V 5 4 9 s I ; . y.E.9.  Z r.`.#X&X{.|.'.      ",
"      E.'.`.%X=X|.r.J.-Xr.E.E.E v x 0 e r v >.8 < # > c     - l             l $     B > # < d >.s r e u x v ~ E.!.9.  l y.|.=X%X`.'.E.      ",
"      H.`.'.;X=X|.H.0.J.9.J.J.l.b K a 5 ; =.V X 2 @ j l     > l             l >     l > @ 2 X Z *.* 5 a I b H.H.J.7.  z J.|.=X;X`._.H.      ",
"        _. X;X=X XE.B - 1.u.<.'.<.d ; = *.<.$ @ 2 X j j     z > . .     . . > l     j j X 2 @ - <.&.$ ; d 7.'.,.y.<.$ B E. X>X>X XE.        ",
"        T. X$X;XoXE.l ; <.H.$.'.OX1.C <.r.c @ # 2 X l >   > Z - y r + + D y - Z -   > l X 2 # @ M r.,.C 7.OX`.Q H.>.; c _.oX;X$X XT.        ",
"        y.`.#X2XoXH.* * -.T.V J.-XoX`.E.>.% 2 # % @ z - + B &.8 ] J $ $ J P d *.c . - l @ % # 2 # ,.E.`.oX-XH.C T.%.* ; J.*X2X#X[.u.        ",
"          E.*X2XoX-.X # Q T.V <.-X-X XE.j % e & X $ B j l &.&.g X.H # # H X.g *.&.l j B O X & e # l E. X-X*X,.C T.C # X ,.#X2X#XE.          ",
"          J.XX2XXXl X @ M J.V M 0._.OXE.8 ; G * X > V V Q ,.C / X.a o o G X.R Z >.Z V V > X * G ; j _.OX_.7.c C T.c X X z oX3XXXH.          ",
"            _.2X{.8 X X f T.+.l k N >.T.&.7 K 6 + j c B Q <.l o.[ s + + h o.[ l <.Z B c j + 9 K : *.Q.>.n k l &.J.8 X X j XX:XE.            ",
"            H.>XXX<.8 X ; J.7.j m Y - V w.8 v 5 O z B V -.*.v O.{ i . . g { O.v *.*.V B l O y v 8 e.M - Y m j 9.J.; X d <.$X>Xy.            ",
"              XX>XH.9.X # 9.E.c Y x - 7 Z.c k & > B B C ,.l )  ...8 . . q .. .) z ,.V B B > & k B Z.: - x Y c E.0.@ X 9.H.;X{.              ",
"                :XY.`.z X l ].,.U 7 6 0 q.Z 8 o j l z Z Z q  .} ..; . . : ..}  .q Z C l l j o 8 +.5.9 ; 7 U <.`.k X B _.R.:X                ",
"                =X@XJ.J.o $ H.K.K ; u 8 5.%.- O l l c V : T } | ( $ + . $ ( | } U > V c l l O - *.5.8 u ; K P.y.# O R.U.$X#X                ",
"                  %XY.oXZ . +..XE 4 i j e.5.+ > c z B > 8  .` } b + o + O Y } `  .7 > B z c > O 8.e.j i 4 ~ OXC . *.oXY.%X                  ",
"                  }.@XE._.O B  Xc y k d A.w.+ z c B l ; T } #...8 > - - > 8 ..@.} U ; l B c z O l.C.d k e V  Xl O |.^.@X{.                  ",
"                    @X^.*X,.0.oXn a k q A.C.- Z M B d q  ._ | T j 0.0.0.0.j ^ | _ ..8 j B M Z - A.Z.q k a V *X<.<.OX^.+X                    ",
"                      }.}.`.`.*X_ i g q P.2.B Z z &._.q._ ` { q 7.J.|.'.J.<.q { ` _ q._.&.c Z c 5.K.q g i @.-X_.'.{.}.                      ",
"                        ^.E._.,X3.i i j J.z.j.Z l H.qX0XH.( K *.J.E.*XOXE.J.&.K ( K.7XqXH.l Q j.l.J.d i i q.,XE.R.^.                        ",
"                          *.J.<XP.i 0 z E.E.N.4.Z -XqX0X7X;.C u.T._.,X,X_.T.u.V ;.7XqX0XOXZ 4.S.E.T.l 0 i W.,XH.=.                          ",
"                            9.,XoX! 6 -.`._.x.c.3.7XqX0XoX*.0.y.E.`.<X<X`.E.y.0.*.*XqX0X<X3.v.l._.`.%.4 _ *X,X0.                            ",
"                            *.*X,Xt.5 2.OXT.J.2.z.6X-XE.z $.9.H._.'.6X<X'._.y.9.Q c T.,X7Xx.2.T.T.oX;.5 l.,X*X%.                            ",
"                              '.,X*X! &.oXT.H.0.&.,.B O . $.9.H.`._.<X<X_.`.y.9.Z . O V 2.&.9.H.E.OX%._ *X,X`.                              ",
"                              J.,X,X_.7.|._.J.>.> | ~ > . Z 9.H.|.T.<X<XE.|.H.0.Z . > ~ ` > >.J._.'.1._.,X,XH.                              ",
"                              9.-X,X<X*X|.`.J.,.> #.E l . V 9.J. Xy.<X,Xy. XJ.0.B . l ! ` > ,.K.`.|.*X<X,X-X0.                              ",
"                              *.oX<X6X-XoX$X~.k.8 ( W z O B 9.T.|.7.6X,X7. XT.9.z O S ( W 8 k.).$XoX-X6X<XoX&.                              ",
"                                '.<X<X2X2X$XW.7.j b T z O B r.T.`.*.<X6X>.].T.r.z O z ^ v j 0.R.$X2X1X<X<X`.                                ",
"                                R.4X9X8X*X`.T.9.l q ^ l - z r.T._.*.6X<X&.`.T.r.l - l ^ 8 z 9.E.`.*X8X9X4XT.                                ",
"                                Y.5X4X-X X XE.r.$.; R 8 - j 9.T._.&.6X,X$.`.T.9.8 ; 8 R ; &.r.E. X X-X4X5XZ.                                ",
"                                9.*X-X-X*X X_.H.,.> u 6 # ; 9.E.[.&.<X<X&.`.E.0.- $ 6 u j ,.H._. X*X-X-X*X0.                                ",
"                                  OX,X,X,X-X XJ.<.k 6 4 @ O 0.R.|.*.<X,X*. XT.<.O @ 5 4 k <.J.OX-X,X,X,X X                                  ",
"                                  T.,X6X*X.X|.L.7.v r 3 X . >.T. X5.*X X7. XT.*.. @ 3 r m 0.T.|..X*X6X-XJ.                                  ",
"                                    H.t.Y Y &.8.<.8 D < .   Z J.J.y.T.J.H.J.J.Z   . < D f <.8.%.Y E u.H.                                    ",
"                                      & & p 7 L K G e w     B T.8.E.,.<.!.8.T.z     w e H K L 7 p % &                                       ",
"                                    y.E.+.u m ! i p r %     l T.2._.`.'.!.6.J.j     % D p s ~ m u %.E.u.                                    ",
"                                    u.,X,X^.E.T.7.c F 2     j J.6.I.,X,Xz.q.H.>     2 F c 0.T.W._.,X-Xr.                                    ",
"                                       X7X6X*XE.H.&.1       > u.q.h.-X-Xh.w.r.        1 *.H.E.-X6X7X'.                                      ",
"                                      H.6X6X*X_.H.:.D         0.K.g././.g.K.7.        D ,.J._.*X6X6Xu.                                      ",
"                                        *X<X-X|.H.,.D         *.T.B.F.F.B.T.*.        G ,.J.|.-X<XoX                                        ",
"                                        H.,X,X Xy.,.7         - <.V.G.G.V.,.-         8 <.H.OX,X,XH.                                        ",
"                                        *.*X<X'.0.9.k         O 9.R.D.D.R.0.O         k 9.0.|.<XoX&.                                        ",
"                                          E.<XH.J.r.l           9._.e.e.`.0.          z u.J.K.<XE.                                          ",
"                                          9.E.E.].u.Z           0.E.T.Q.E.7.          Z u.'.E.E.0.                                          ",
"                                            r.,X'.y.*.          *.H.`._.H.&.          *.H.|.,X9.                                            ",
"                                            y.,X XJ.,.          B 9. X`.9.z           <.J.OX,Xu.                                            ",
"                                              OX*XE.<.            *.T.T.*.          j <.E.*X X                                              ",
"                                              J.-X_.7.z           V 9.r.B           z 0._.-XJ.                                              ",
"                                                *X`.9.Z           V u.r.z           Z 9.'.oX                                                ",
"                                                _.'.r.<.            u.7.            <.r.'.E.                                                ",
"                                                  J.E.<.    m.m.            m.      7.E.J.                                                  ",
"                                                  E. X9.>     m.        m.  m.    j r. XT.                                                  ",
"                                                    '.H.z     m.            m.    B H.`.                                                    ",
"                                                    J.T.*.      b.  a.a.      m.t =.T.H.                                                    ",
"                                                      J.r.f n.  a.d.d.d.d.d.  n.j r.J.                                                      ",
"                                                        H.Z     d.d.d.d.d.d.f.  $.K.                                                        ",
"                                                m.m.    9.<.o   d.d.d.d.d.d.a.O <.q.  m.                                                    ",
"                                                          Z : i.d.d.d.d.d.d.p.> A   m.                                                      ",
"                                                            O , s.d.d.d.d.s., $                                                             ",
"                                                  m.m.m.      .   s.s.s.s.  .   M.m.  m.                                                    ",
"                                                                                                                                            "
};
