/* XPM */
static char *b7f8f14ac8e149658c385f30a7099074[] = {
/* columns rows colors chars-per-pixel */
"70 70 218 2 ",
"   c None",
".  c #030305",
"X  c #04050B",
"o  c #07080B",
"O  c #0A0B0C",
"+  c #080708",
"@  c #040612",
"#  c #060A14",
"$  c #0B0D13",
"%  c #060A1C",
"&  c #0A0D1A",
"*  c #0E111B",
"=  c #0E1014",
"-  c #131315",
";  c #12141B",
":  c #1B1B1D",
">  c #15181D",
",  c #151107",
"<  c #211E12",
"1  c #342F19",
"2  c #070C2A",
"3  c #090D28",
"4  c #080C23",
"5  c #0E1124",
"6  c #0D112B",
"7  c #111323",
"8  c #171A22",
"9  c #1B1D23",
"0  c #11152B",
"q  c #16192C",
"w  c #1B1E2B",
"e  c #0E1234",
"r  c #0C113E",
"t  c #111534",
"y  c #151934",
"u  c #1A1D35",
"i  c #11153B",
"p  c #15193B",
"a  c #1A1E3B",
"s  c #070B37",
"d  c #1F2024",
"f  c #1F2128",
"g  c #1F2234",
"h  c #1C213C",
"j  c #222324",
"k  c #23252B",
"l  c #27282A",
"z  c #2B2C2D",
"x  c #2A2A27",
"c  c #222536",
"v  c #2D2E31",
"b  c #22253A",
"n  c #25283D",
"m  c #282A39",
"M  c #2E3033",
"N  c #2E313D",
"B  c #323334",
"V  c #353639",
"C  c #37383B",
"Z  c #3B3B3C",
"A  c #3A3936",
"S  c #353329",
"D  c #403D34",
"F  c #564708",
"G  c #574A13",
"H  c #66560E",
"J  c #776209",
"K  c #48453A",
"L  c #0C1243",
"P  c #0A1049",
"I  c #151944",
"U  c #161A48",
"Y  c #141A54",
"T  c #1E2244",
"R  c #1C214E",
"E  c #1D2357",
"W  c #252A44",
"Q  c #292C43",
"!  c #252B4D",
"~  c #202546",
"^  c #2E3247",
"/  c #3D3E41",
"(  c #33354B",
")  c #353848",
"_  c #252B52",
"`  c #232852",
"'  c #2C3253",
"]  c #2B325A",
"[  c #393D53",
"{  c #393E5B",
"}  c #373C57",
"|  c #1A2061",
" . c #2E366A",
".. c #343B65",
"X. c #383F65",
"o. c #323A6B",
"O. c #333A64",
"+. c #242C78",
"@. c #323C77",
"#. c #2C3671",
"$. c #3F4043",
"%. c #3C405A",
"&. c #3B4161",
"*. c #444445",
"=. c #444549",
"-. c #47484A",
";. c #4B4C4C",
":. c #4D4E50",
">. c #4B4D5A",
",. c #4F5158",
"<. c #545454",
"1. c #55565A",
"2. c #5B5B5C",
"3. c #50504F",
"4. c #595A65",
"5. c #565A7A",
"6. c #485473",
"7. c #5B6369",
"8. c #5D6175",
"9. c #646464",
"0. c #65676C",
"q. c #6C6C6C",
"w. c #676867",
"e. c #666A76",
"r. c #68787C",
"t. c #747474",
"y. c #7B7B7B",
"u. c #74767A",
"i. c #FF2204",
"p. c #FF2D04",
"a. c #FF3404",
"s. c #907705",
"d. c #FF4604",
"f. c #FF5804",
"g. c #FF6904",
"h. c #FF7C04",
"j. c #FF7204",
"k. c #A98A06",
"l. c #B29209",
"z. c #C29F06",
"x. c #FF8D04",
"c. c #FE8504",
"v. c #FE9B04",
"b. c #FF9504",
"n. c #D5AB04",
"m. c #CFAA05",
"M. c #FFA404",
"N. c #FDB704",
"B. c #E8B403",
"V. c #EFC403",
"C. c #F2C503",
"Z. c #FDC404",
"A. c #F5CB03",
"S. c #FDCD04",
"D. c #FFD204",
"F. c #2C5C96",
"G. c #4E5786",
"H. c #596A98",
"J. c #787C87",
"K. c #6D758C",
"L. c #4E60B5",
"P. c #697EC1",
"I. c #3A8CB0",
"U. c #5D929D",
"Y. c #788689",
"T. c #6F8A91",
"R. c #6C80BF",
"E. c #51BDC3",
"W. c #47CBD8",
"Q. c #4EDDE6",
"!. c #848484",
"~. c #8C8C8C",
"^. c #85868A",
"/. c #90908F",
"(. c #8D8F92",
"). c #838699",
"_. c #8A9394",
"`. c #939393",
"'. c #9B9C9C",
"]. c #94989B",
"[. c #908F8F",
"{. c #9E9EA2",
"}. c #8E9FB1",
"|. c #96A6A7",
" X c #91ADB6",
".X c #A3A3A3",
"XX c #ABABAB",
"oX c #A8A8A8",
"OX c #ACB3B4",
"+X c #A9BBBB",
"@X c #B4B4B4",
"#X c #B4B9B9",
"$X c #BCBCBC",
"%X c #B7B7B8",
"&X c #A2BFC0",
"*X c #A8C2C3",
"=X c #BCC3C3",
"-X c #B5C7C9",
";X c #BAD7D9",
":X c #B6DAE1",
">X c #C3C4C4",
",X c #C2CCCC",
"<X c #CBCBCB",
"1X c #C4DADB",
"2X c #C7D8D8",
"3X c #D4D4D4",
"4X c #DBDBDB",
"5X c #D5DFDF",
"6X c #CCE2E2",
"7X c #C7E2E2",
"8X c #DEE3E3",
"9X c #DBE8E8",
"0X c #E2E2E2",
"qX c #EBEBEA",
"wX c #E4EBEB",
"eX c #F5F5F5",
"rX c #FBFBFB",
"tX c #EAF3F3",
/* pixels */
"                                                                  V.S.D.M.v.                                                                ",
"                                                              V.N.g.v.D.h.i.c.                                                              ",
"  .                                                         C.S.f.p.M.D.S.g.a.N.                                                        .   ",
"  j                                                       C.D.S.d.g.D.S.D.c.p.Z.V.                                                      j   ",
"  1.2.            j `.j                                   D.Z.j.i.v.x.h.D.x.i.v.S.                                  B @XZ             2.<.  ",
"  2.`.            <.<XB                                 C.D.g.i.x.N.p.h.D.S.f.p.N.V.                                V >X<.            `.2.  ",
"  2..X~.        -.2.<X;.j             - t 3         j   A.D.f.g.A.Z.a.h.D.B.N.i.b.A.  j         3 0 -             j <.>X<.*.        `..X2.  ",
"    .XXXt.      9.2.$X9.;.          5 ` E 0       Z -.1 A.D.N.B.s.D.g.d.S.s.n.a.h.C.< ;.Z       0 E ` *           ;.q.>X2.2.      u.XX.X    ",
"    .X@X.X*.    u.2.  t.q.Z       . p T a U 4   B ;.*.S B.D.D.s.J D.c.a.Z.F k.j.x.n.x *.;.z   4 U a T y .       Z q.u.@X2.u.    ;..X@X'.    ",
"    ].@X%X~.v   !.2.@X~.u.w.      & T U I t e j <.l : D n.D.S.G J D.f.f.S.J H Z.D.z.A : z <.9 e y I U T &       w.t.<.'.2.!.  M ~.%X@X`.    ",
"    Y.@X%X#X X(.'.9..X'.!.].    . u T p i e > ;.$.$ : K m.D.n.1 H Z.p.c.D.J x n.D.l.Z : $ *.;.> e i p T y .     ~.t.  t.w.'.(. X#X%X@Xu.    ",
"      XX@XOX:X$XXXq.'.@Xt..XJ.O ; ~ a 0 5 5 Z <.: $ : V J C.F x k.S.d.d.S.s.j F   F V : $ 9 <.V 6 5 0 a ~ ; o y.'.q.  Z t.XX=X:XOX@XXX      ",
"      '.XXXX;X,X@Xu.~.<Xu.{.'.^ b c q e r b <.9 4 # : v     $ S z.D.N.v.S.k.l $     B : # 4 d <.a r e q n W $.'.{.w.  l y.@X,X;XXXXX'.      ",
"      !.XXXX1X,X@X!.w.~.q.~.~.J.n T p 6 ; 3.V X 2 @ j l     : l   C.S.A.C.  l :     l : @ 2 X Z ;.* 6 p ! Q !.!.~.9.  v ~.@X,X1XXX.X!.      ",
"        .X@X1X,X@X'.B - 2.u.2.XX2.d ; = ;.2.$ @ 2 X j j     z : . +     , . : l     j j X 2 @ - 2.*.$ ; j w.@X1.  2.$ B '.@X,X1X@X'.        ",
"        ].@X-X2X$X'.l ; 2.!.*.XX%X4.C 2.t.v @ # 2 X l :   : Z - t r X X L t - Z >   : l X 2 # @ M t.1.C w.$XXX$.^.<.; v .X$X2X-X@X`.        ",
"        y.XX-X6X$X!.* * :.`.V ~.<X$XXX'.<.% 2 # % @ z - o B -.9 | Y $ $ Y E d ;.v + - l @ % # 2 # <.'.XX$X<X!.C `.-.* ; ~.>X6X-XoXu.        ",
"          '.>X6X$X:.X # / `.V 2.<X<X@X'.j % e & X $ B j l *.-.g +.U # # U +.g ;.*.l j B O X & e # l '.@X<X>X1.C ].C # X <.=X6X=X'.          ",
"          ~.#X6X#Xl X @ M ~.V M w..X%X'.9 ; I * X : V V / <.C ` +.p o o I +.! Z <.Z V V : X * I ; j .X%X.X9.v C `.v X X z $X7X#X!.          ",
"            .X6XOX9 X X f `.$.l k N <.`.-.8 T 7 o j v B / 2.l #.#.a o o h #.#.l 2.Z B v j o 0 T 8 :.[.<.N k l *.~.9 X X j #X1X'.            ",
"            !.2X+X2.9 X ; ~.9.j m W - V r.9 b 6 O z B V :.;.b @. .u + + g  .@.c ;.;.V B l O t b 9 r.M - Q m j w.~.; X d 2.-X2Xy.            ",
"              #X2X!.q.X # q.'.v Q c - 8 Y.v k & : B B C <.l ] o.O.9 . . w O.o.] z <.V B B : & k B Y.> - c Q v '.9.@ X q.!.2XOX              ",
"                5X_.XXz X l XX1.W 8 7 q e.Z 9 o j l z Z Z w o...O.; . . > O...o.w Z C l l j o 9 $.7.0 ; 8 ! 2.XXk X B .X].5X                ",
"                ,X*X~.~.o $ !.^.T ; y 9 7.-.- O l l v V > ! ..X.' $ o + $ ' X...! : V v l l O - ;.7.9 y > T (.y.# O ].(.-X,X                ",
"                  ;X_.$XZ . $.%X^ 5 u j K.7.o : v z B : 9 o.{ ..n o o o O W ..{ o.8 : B z v : O 0.r.j u 5 ) %XC . ;.$X_.;X                  ",
"                  +X*X'..XO B @Xv t k d T.r.+ z v B l ; ! ..&.O.9 : - - : 9 O.%...! ; l B v z O J.T.d k e V @Xl O @X|.*XOX                  ",
"                    *X|.>X<.w.$Xm p k w T.T.- C M B d w o.[ X.! j w.w.w.w.j _ X.[ O.9 j B M Z - T.Y.w k p V >X2.2.%X|.*X                    ",
"                      &X+XXXXX>X[ u g w (.4.B Z z -..Xe.[ {  .w 9.~.@XXX~.2.w  .{ [ e..X*.v Z v 7.^.w g u %.<X.XXXOX+X                      ",
"                        |.'..X3X5.u u j ~.J.H.Z l !.rXeX!.' T ;.~.'.>X%X'.~.*.T ' ^.qXrX!.l / H.J.~.d u u e.3X'.].|.                        ",
"                          ;.~.4X(.u q z '.'.P.6.Z <XrXeXqX>.C u.]..X3X3X.X`.u.V ,.qXrXeX%XC 6.R.'.].l q u ].3X!.<.                          ",
"                            q.3X$X( 7 :.XX.XK.L.5.qXrXeX$X;.w.y.'.XX4X4XXX'.y.w.;.>XrXeX4X5.L.J..XXX-.5 [ >X3Xw.                            ",
"                            ;.>X3Xu.6 4.%X`.~.4.K.0X<X'.z *.w.!..XXX0X4XXX.Xy.w./ v ].3XqXK.4./.`.$X>.6 J.3X>X;.                            ",
"                              XX3X>X( -.$X].!.w.*.1.B O . *.w.!.XX.X4X4X.XXXy.w.Z . O V 4.*.w.!.'.$X=.[ >X3XXX                              ",
"                              ~.3X3X{.9.@X.X~.<.: X.) : + Z w.!.@X].4X4X'.@X!.w.Z + : ) { : <.~..XXX4..X3X3X!.                              ",
"                              w.<X3X4X>X@XXX~.1.: &.^ l + V w.~.@Xy.4X3Xy.@X~.w.B + l ( { : 1.^.XX@X>X4X3X<Xw.                              ",
"                              ;.$X4X0X<X$X-X}.K.9 ' ' z O B q.`.@X9.0X3X9.@X`.q.z O v ' ^ 9 K.}.-X$X<X0X4X$X*.                              ",
"                                XX4X4X6X6X-X].9.j n _ z O B t.`.XX;.4X0X<.XX`.t.z O z _ b j w.].-X6X5X4X4XXX                                ",
"                                ].8XtXwX>XXX].w.l w _ l - z t.`..X;.0X4X*.XX`.t.l - l _ 9 z q.'.XX>XwXtX8X`.                                ",
"                                _.9X8X<X@X@X'.t.*.> ! 9 - j q.]..X*.0X3X*.XX].w.9 > 9 ! > *.t.'.@X@X<X8X9XY.                                ",
"                                q.>X<X<X>X@X.X!.<.: y 7 # > w.'.oX*.4X0X*.XX'.w.- $ 7 y j <.!..X@X>X<X<X>Xw.                                ",
"                                  %X3X3X3X<X@X~.2.k 7 5 @ O w.].@X;.4X3X;.@X].2.O @ 6 5 k 2.~.%X<X3X3X3X@X                                  ",
"                                  `.3X0X>X%X@X/.9.b r 3 X . <.`.@X7.>X@X9.@X`.;.. @ 3 r m w.`.@X%X>X0X<X~.                                  ",
"                                    !.u.Q Q -.0.2.9 L 4 X   Z ~.~.y.].~.!.~.~.Z   X 4 L d 2.0.-.W ^ u.!.                                    ",
"                                      & & i 8 R T I e s     B `.0.'.1.2.{.0.`.z     s e I T R 8 i % *                                       ",
"                                    !.'.$.y m ( u i r %     l `.4..XXXXX{.8.~.j     % L i a ) n y =.'.y.                                    ",
"                                    u.3X3X|.'.`.9.v P 2     j ~.8.).3X3XJ.e.!.:     2 P v w.].]..X3X<Xt.                                    ",
"                                      @XqX0X>X'.!.-.4       : u.e.G.<X<XG.u.t.        4 ;.!.'.<X0XqXXX                                      ",
"                                        0X0X>X.X!.,.L         w.^.F. X XF.^.7.        L 1.~..X>X0X0Xu.                                      ",
"                                        >X4X<X@X!.<.L         ;.`.I.W.W.I.`.;.        I 1.~.@X<X4X$X                                        ",
"                                        !.3X3X@Xy.<.8         - 2.U.Q.Q.U.<.-         9 2.!.%X3X3X!.                                        ",
"                                        ;.>X4XXXw.q.k         O q.].E.E.].w.O         k q.w.@X4X$X*.                                        ",
"                                          '.4X!.~.t.l           w..Xr.r.XXw.          z u.~.~.4X'.                                          ",
"                                          w.'.'.XXu.Z           w.'.`.[.'.9.          Z u.XX'.'.w.                                          ",
"                                            t.3XXXy.;.          ;.!.XX.X!.*.          ;.!.@X3Xq.                                            ",
"                                            y.3X@X~.<.          B w.@XXXw.z           2.~.%X3Xu.                                            ",
"                                              %X>X'.2.            ;.`.`.;.          j 2.'.>X@X                                              ",
"                                              ~.<X.X9.z           V q.t.B           z w..X<X~.                                              ",
"                                                >XXXq.Z           V u.t.z           Z q.XX$X                                                ",
"                                                .XXXt.2.            y.9.            2.t.XX'.                                                ",
"                                                  ~.'.2.                            9.'.~.                                                  ",
"                                                  '.@Xq.:                         j t.@X].                                                  ",
"                                                    XX!.z                         B !.XX                                                    ",
"                                                    ~.`.;.                        <.].!.                                                    ",
"                                                      ~.t.:                     j t.~.                                                      ",
"                                                        !.Z                     *.~.                                                        ",
"                                                        q.2.O                 - 2.w.                                                        ",
"                                                          Z :                 : Z                                                           ",
"                                                            O                 O                                                             ",
"                                                              .             .                                                               ",
"                                                                                                                                            "
};
