/* XPM */
static char *result[] = {
/* columns rows colors chars-per-pixel */
"80 80 223 2 ",
"   c #030304",
".  c #04060B",
"X  c #06080D",
"o  c #0A0B0C",
"O  c #090705",
"+  c #040611",
"@  c #060A13",
"#  c #0B0D13",
"$  c #060A1B",
"%  c #090C1A",
"&  c #0F1014",
"*  c #0E121D",
"=  c #131315",
"-  c #13151A",
";  c #17181C",
":  c #1A1B1D",
">  c #181714",
",  c #171406",
"<  c #27251E",
"1  c #352E12",
"2  c #070B24",
"3  c #060A2C",
"4  c #090D2B",
"5  c #090D23",
"6  c #0E1123",
"7  c #0D112B",
"8  c #131523",
"9  c #1C1E22",
"0  c #16192C",
"q  c #1A1D2B",
"w  c #141725",
"e  c #090D37",
"r  c #0D1234",
"t  c #0E123C",
"y  c #121533",
"u  c #12163C",
"i  c #15193B",
"p  c #181C37",
"a  c #1E2024",
"s  c #1E212D",
"d  c #1E2133",
"f  c #1E213B",
"g  c #232325",
"h  c #24262A",
"j  c #27282C",
"k  c #2B2B2D",
"l  c #222533",
"z  c #2D2E31",
"x  c #22263C",
"c  c #26293A",
"v  c #2F3032",
"b  c #323334",
"n  c #353639",
"m  c #3C3C3D",
"M  c #373839",
"N  c #37352D",
"B  c #211E11",
"V  c #473C0F",
"C  c #403F3C",
"Z  c #53470E",
"A  c #48463A",
"S  c #090E49",
"D  c #0D1247",
"F  c #161B45",
"G  c #141A57",
"H  c #1E2344",
"J  c #1D224C",
"K  c #1D2255",
"L  c #252942",
"P  c #2A2F4D",
"I  c #232847",
"U  c #2B304B",
"Y  c #3A3C45",
"T  c #252B56",
"R  c #2C335A",
"E  c #383C56",
"W  c #181F71",
"Q  c #1D267C",
"!  c #252C66",
"~  c #2D3564",
"^  c #2D356B",
"/  c #353C63",
"(  c #343C6B",
")  c #353C63",
"_  c #323B75",
"`  c #273077",
"'  c #3E4243",
"]  c #3A405C",
"[  c #3A4169",
"{  c #394375",
"}  c #444445",
"|  c #45464A",
" . c #4B4B4C",
".. c #444A4B",
"X. c #4C4D51",
"o. c #4F5053",
"O. c #545454",
"+. c #55565B",
"@. c #5B5B5B",
"#. c #575859",
"$. c #454963",
"%. c #585B63",
"&. c #444C76",
"*. c #4B5279",
"=. c #5D6369",
"-. c #5F6C7C",
";. c #636364",
":. c #66666B",
">. c #6B6B6C",
",. c #67686B",
"<. c #686B74",
"1. c #6A777A",
"2. c #747474",
"3. c #7B7B7C",
"4. c #767779",
"5. c #FF1B04",
"6. c #FF1504",
"7. c #FF2704",
"8. c #FF3604",
"9. c #866E0A",
"0. c #FF5904",
"q. c #FF4804",
"w. c #FF6904",
"e. c #FF7604",
"r. c #807F7F",
"t. c #A88B06",
"y. c #B79504",
"u. c #9C8002",
"i. c #FF8704",
"p. c #FF9804",
"a. c #C7A304",
"s. c #DCB403",
"d. c #D4AC02",
"f. c #FFA304",
"g. c #FEAD04",
"h. c #E8BA03",
"j. c #FEB404",
"k. c #FFBA04",
"l. c #C09D06",
"z. c #ECC203",
"x. c #F1C503",
"c. c #FFC404",
"v. c #F5C904",
"b. c #FECC04",
"n. c #FFD204",
"m. c #80807F",
"M. c #2C3680",
"N. c #3D4B9F",
"B. c #246CA8",
"V. c #4A578A",
"C. c #4D5C95",
"Z. c #757A86",
"A. c #6D7A8E",
"S. c #5A6FA2",
"D. c #536293",
"F. c #586EC7",
"G. c #2C96BC",
"H. c #568486",
"J. c #7E8182",
"K. c #738386",
"L. c #789398",
"P. c #6D8589",
"I. c #4796A7",
"U. c #778FA5",
"Y. c #2B9BC0",
"T. c #7288C7",
"R. c #4DD4DC",
"E. c #53E4EC",
"W. c #838383",
"Q. c #8B8B8B",
"!. c #888887",
"~. c #8E8F92",
"^. c #858D97",
"/. c #889496",
"(. c #949494",
"). c #9B9B9C",
"_. c #969799",
"`. c #8F908E",
"'. c #9496A2",
"]. c #99A5A8",
"[. c #9AB3B4",
"{. c #8BA6AF",
"}. c #A4A4A4",
"|. c #ABABAB",
" X c #A5A9AB",
".X c #ACADB3",
"XX c #ACB2B3",
"oX c #AFB9BA",
"OX c #B4B4B4",
"+X c #BBBBBB",
"@X c #B5B7B9",
"#X c #A0A09F",
"$X c #C0BFBF",
"%X c #C0C0BF",
"&X c #BABBC0",
"*X c #ACC7C8",
"=X c #BDC4C4",
"-X c #B6C8C9",
";X c #B8D3D5",
":X c #AFD1D4",
">X c #B6DDE3",
",X c #BEE1E4",
"<X c #C3C3C3",
"1X c #C4CCCC",
"2X c #CCCCCC",
"3X c #C8C7C7",
"4X c #C5DCDC",
"5X c #CCDCDC",
"6X c #C6D2D2",
"7X c #D3D3D3",
"8X c #DCDCDC",
"9X c #D7D8D8",
"0X c #CCE4E4",
"qX c #C8E4E4",
"wX c #D7E5E5",
"eX c #E4E4E4",
"rX c #ECECEC",
"tX c #E1EFEF",
"yX c #E6F2F2",
"uX c #F4F4F4",
"iX c #FCFCFC",
"pX c #C3DFE0",
"aX c None",
/* pixels */
"aXaXaXaXaXaXaXaXaXaXaXaXaXaXaXaXaXaXaXaXaXaXaXaXaXaXaXaXaXaXaXaXaXaXaXaXaXaXx.n.n.k.f.h.aXaXaXaXaXaXaXaXaXaXaXaXaXaXaXaXaXaXaXaXaXaXaXaXaXaXaXaXaXaXaXaXaXaXaXaX",
"aXaXaXaXaXaXaXaXaXaXaXaXaXaXaXaXaXaXaXaXaXaXaXaXaXaXaXaXaXaXaXaXaXaXaXaXx.j.i.g.n.i.5.w.h.aXaXaXaXaXaXaXaXaXaXaXaXaXaXaXaXaXaXaXaXaXaXaXaXaXaXaXaXaXaXaXaXaXaXaX",
"aX  aXaXaXaXaXaXaXaXaXaXaXaXaXaXaXaXaXaXaXaXaXaXaXaXaXaXaXaXaXaXaXaXaXv.c.8.5.p.n.b.e.6.i.z.aXaXaXaXaXaXaXaXaXaXaXaXaXaXaXaXaXaXaXaXaXaXaXaXaXaXaXaXaXaXaXaX  aX",
"aXo aXaXaXaXaXaXaXaXaXaXaXaXaXaXaXaXaXaXaXaXaXaXaXaXaXaXaXaXaXaXaXaXb.n.j.6.i.n.n.n.c.7.w.b.aXaXaXaXaXaXaXaXaXaXaXaXaXaXaXaXaXaXaXaXaXaXaXaXaXaXaXaXaXaXaXaXo aX",
"aXM C aXaXaXaXaXaXaXo aXaXaXaXaXaXaXaXaXaXaXaXaXaXaXaXaXaXaXaXaXaXv.b.n.i.6.p.b.k.n.j.6.e.n.z.aXaXaXaXaXaXaXaXaXaXaXaXaXaXaXaXaXaXaXaX@.aXo aXaXaXaXaXaXaXC b aX",
"aX} Z.aXaXaXaXaXaXaXk Q.W.aXaXaXaXaXaXaXaXaXaXaXaXaXaXaXaXaXaXaXh.b.b.w.5.0.k.0.0.b.c.q.7.g.n.aXaXaXaXaXaXaXaXaXaXaXaXaXaXaXaXaXaXaX  (.}.k aXaXaXaXaXaXaXr.} aX",
"aXC ).r.aXaXaXaXaXaX} |.}.o aXaXaXaXaXaXaXaXaXaXaXaXaXaXaXaXO aXz.n.p.6.w.c.g.6.i.b.n.k.8.8.c.z.aXO aXaXaXaXaXaXaXaXaXaXaXaXaXaXaXaX& }.(.} aXaXaXaXaXaXW.(.aXaX",
"aXaX_.}.2.aXaXaXaXM O.(.OXk aXaXaXaXaXaXaXaX; y 4 aXaXaXaXv a aXv.n.p.7.j.v.j.7.e.n.h.v.e.5.k.v.aXg z aXaXaXaX3 y - aXaXaXaXaXaXaXk k $XQ.#.aXaXaXaXaX4.|.(.aXaX",
"aXaX(.XX).aXaXaXaXO.;.m.$X}  .aXaXaXaXaXaXq T G 8 aXaXaX;  .C 1 b.n.c.g.y.y.n.0.8.b.y.t.p.6.f.v., } } > aXaXaX8 T T q aXaXaXaXaXaX .} 7Xr.;.o.aXaXaXaX).OX(.aXaX",
"aXaX(.OXOXm.aXaXaX2.;.3.7X} 2.aXaXaXaXaX@ K L p G 4 aXaXC O...1 z.n.n.x.Z y.n.e.7.c.9.V j.8.f.s.<  .O.m aXaX4 G p F G @ aXaXaXaXaX2. .9X>.>.2.aXaXaXW.OXOX`.aXaX",
"aXaXW.OX@XXX#.aXaXW.>.>.eXO.!. .aXaXaX  - f F G y 7 $ b O.g k N a.n.n.l.B l.n.w.8.b.y.1 s.k.n.y.v j j #.b $ 7 p G F x -   aXaXaX .!.} 3X;.>.W.aXaX@.OXOX|.3.aXaX",
"aXaXaX|.OX+X[.-.@.(.2.;.8X@.Q.3.aXaXaX@ G I i y u y g #.b o g A d.n.n.t.; y.c.7.w.n.a.1 9.n.n.y.C 9 o n #.9 7 D 0 i K F X aXaXaXr.!.j aX@.4.(.#.1.|.+X+X|.aXaXaX",
"aXaXaX}.+XOX@X;X.X}.r.@.8X>.W._.@.aX  w x F u y 6 -  .o.& & g C y.b.h.V : a.k.5.w.n.y.< V h.b.9.C 9 # = O. .- 6 r u F x 8   aX;.(.W.g aXo.W.|.XX>XoXOX+X).aXaXaX",
"aXaXaX(.OX|.XX>X=XOXQ.#.8XW.W.}.!.; & x p w 6 7 e m #.h # @ g b aXaXV 9 Z z.b.0.8.k.s.k 9 aXaXaXb g # % j #.n e 4 - q p x & : Q.#Xr.aXaX} `.OX=X>X.XXXXX(.aXaXaX",
"aXaXaXr.|.|.|.,X1XOX(.O.9X}.3.#X}.O.I L d i D e d #.a $ $ @ k k aXaX. j Z v.n.c.j.b.z.1 k   aXaXv g + 5 $ g #.q t D y x I I %.}.#X3.aXaX ._.OX1X,X|.|.}.3.aXaXaX",
"aXaXaXaX_.|.XXqX1XOX#XO.Q.;.3.!.Z._.n x F y 6 = O.}   2 2 O k g aXaX# b ; aXx.v.x.x.d.> v o aXaXj j . 2 2 O | o.# 6 y F x n ).3.!.4.& aX#.}.OX1XqX|.|._.aXaXaXaX",
"aXaXaXaXW.|.+X4X1XOX|.;.& ; 3.2.o.OX3.j ; = #  .;.; . 2 2 . v : aXaX: v     O aXaX, O   b ; aXaX: z O 2 2 . ; ,.} & = ; k 3.OX .3.2.- & :.|.@X6XpXOX|.m.aXaXaXaX",
"aXaXaXaX,.|.OX;X5X%XOX;.= w 2.J.M }.=X4.h h o.4.m + + 2 2 O b = aXo b h # t 2     3 t # k b aXaX> n O 2 2 @ @ Y 4. .g k W.%X}.b W.>.w - >.OX<X5X;XOX|.aXaXaXaXaX",
"aXaXaXaXaX_.|.=X0X<XXX' & - ,.`.v W.3X%X).(.`.;.* 2 @ $ 2 o b = aXa } v w W u @ @ D W - b } : aX> b X 2 $ @ 3 # ;.(.(.#X<X<X3.b (.;.- # | OX%X0X-X|.(.aXaXaXaXaX",
"aXaXaXaXaX4.|.1X0X%X(.- @ * @._.n #.3X2X+XXX(.g + e $ @ . * v & > M X.v H Q i @ # i Q f b  .n = & v # + @ % e . k _.OX+X2X<Xo.m ).O.% @ : #X%X0X=X|.2.aXaXaXaXaX",
"aXaXaXaXaXaX}.<XqX3X>.. @ @ X._.n n `.7X3XOX!.= & D * @   g b v M ..O.g ! Q y X @ y ` ! h O.} n z b <   @ 6 F % - Q.+X<X2XQ.b m _...@ @ X 2.1XqX=X#XaXaXaXaXaXaX",
"aXaXaXaXaXaXQ.OXqX1X} . X X Y _.n k v @.(.+X(.; * H 0 + O v b M m O.} s ` ` q . X 0 ! ` s  .O.m n b k O @ 0 F - < ).OX(.%.v j m _.n + X    .6XpXOX!.aXaXaXaXaXaX",
"aXaXaXaXaXaXaX#X5X6Xm @ . . z ).| h h l c | (.| : H i X & k k b m @.k P _ ! w .   q ^ M.I v @.M b v k & X i x ;  .~.} c l h h  .).j . . # } 5X5X_.aXaXaXaXaXaXaX",
"aXaXaXaXaXaXaXm.6X4X:.... . a _.<.a h U h & ' 1.: l i X a v b M o.#.q _ ( ~ ; .   9 ~ _ ( g @. .M v v : + F l : P.Y # l P h a 4.(.w . .  .>.5X1X3.aXaXaXaXaXaXaX",
"aXaXaXaXaXaXaXaXOX0XJ.).g . & 3.}.v c U : & s L.k j 8 % k v v n #.b x _ / R =     - ~ ) _ x M #.M v v k # 6 h v L.a & : U j M ].2.& . a _.J.0XXXaXaXaXaXaXaXaXaX",
"aXaXaXaXaXaXaXaX(.5X X_.3.  + n OX;.c x = 8 a P.M h o & z k v m } ; ~ / / R &     & R ) ( R ; | M z k k & & g ' Z.w 8 = H c >.OXv . . m.!.oX5XaXaXaXaXaXaXaXaXaX",
"aXaXaXaXaXaXaXaXaX=XpX2.+Xv . & `.(.I q * i 9 <.} : . : k j k C g q _ [ [ L X     o U [ / ( s g m v j k ; O : ..=.a i * s I #X!.# . M 3X4.5X=XaXaXaXaXaXaXaXaXaX",
"aXaXaXaXaXaXaXaXaXaXqX/.#X(.X X  .%X[ * r s a P.@.# o g k k n g = R ) / ( s O X . O l ( / / T - h b k k g X & =.1.a d r 6 $.%X' X X #X}.{.4XaXaXaXaXaXaXaXaXaXaX",
"aXaXaXaXaXaXaXaXaXaXoX:XJ.7XC   a +X:.% i h g L.1.o > v k v v & s _ E [ R ; O X o . ; R [ E _ q = v v k b = o K.P.g h F # 2.XX;    .9XJ.:XoXaXaXaXaXaXaXaXaXaXaX",
"aXaXaXaXaXaXaXaXaXaXaX*X[. X|.o k %XO.4 p h g L.K.O k b v n a ; T E ] / I = m : ; m - I ( ] E P ; a b v b j O L.L.9 h p 7 @.+Xh o +X}.[.*XaXaXaXaXaXaXaXaXaXaXaX",
"aXaXaXaXaXaXaXaXaXaXaXaX*X/.7X#.;.7XO.t h x q {.U.& ' v v b a s _ Y [ ~ w } 4.J.J.3.C q ~ [ Y _ a 9 b b b C & U./.s l d u @.7X@.;.<X/.:XaXaXaXaXaXaXaXaXaXaXaXaX",
"aXaXaXaXaXaXaXaXaXaXaXaX/.*XoX X|.7X:.F q f g ).%.j ' v k >.+X<.E ] ( H v W.Q.+XOXQ.J.j I / E E <.+X:.k b ..s =._.s f a F <.9X}.|.XX*X^.aXaXaXaXaXaXaXaXaXaXaXaX",
"aXaXaXaXaXaXaXaXaXaXaXaXaX/.[.}.).9X^.H p q v (.Z.S.| z b @XiXuXm.U T s >.(.(.2X+X(.(.>.a ! P !.eXiX+Xv v | S.Z.(.j q p H '.7X(.).[./.aXaXaXaXaXaXaXaXaXaXaXaXaX",
"aXaXaXaXaXaXaXaXaXaXaXaXaXaX..;.!.9X@XL p 8 b #X#XF.C.b #.rXiXuXrX=.q @.W.#X#X9X7X#X#XW.#.w :.uXiXuXeXO.n C.T.).#Xv 8 p Y &X7XW.>...aXaXaXaXaXaXaXaXaXaXaXaXaXaX",
"aXaXaXaXaXaXaXaXaXaXaXaXaXaXaXaX:.7X7X+.i = %.|.}.Z.F.( `.iXuXrXrX,. .4.!.}.}.eXeX}.}.!.4. .;.rXiXuXrXr._ F.Z.|.}.+.= y ;.7X7X@.aXaXaXaXaXaXaXaXaXaXaXaXaXaXaXaX",
"aXaXaXaXaXaXaXaXaXaXaXaXaXaXaXaX| 3X8X#Xq 6 2.OX).`.-.N.&XiXiXeX2.b ;.4.Q.|.|.eXeX|.|.!.2.;.n 2.eXiXiX.XN.<.`._.+X:.7 d }.8X$X} aXaXaXaXaXaXaXaXaXaXaXaXaXaXaXaX",
"aXaXaXaXaXaXaXaXaXaXaXaXaXaXaXaXaXOX7X2X+.e <.$X`.`.2.| .X}.2.M O N ;.4.`.|.|.rX8X|.|.`.4.;.k O M 2.OX|.| 3.(.~.<X:.e %.7X7X XaXaXaXaXaXaXaXaXaXaXaXaXaXaXaXaXaX",
"aXaXaXaXaXaXaXaXaXaXaXaXaXaXaXaXaX`.7X8X|.l ;.$X#X!.2.' k P g O   b ;.2.(.OX).eXeX).OX`.2.;.k   o j P j } 2.!.#X+X#.c OX9X7X!.aXaXaXaXaXaXaXaXaXaXaXaXaXaXaXaXaX",
"aXaXaXaXaXaXaXaXaXaXaXaXaXaXaXaXaX>.2X7X2X#X<.OX}.(.;.g j *.v 9   k ;.2._.+X!.eXrX!.OX_.2.@.k   a v V.s g ;.(.}.OX2.#X7X9X2X;.aXaXaXaXaXaXaXaXaXaXaXaXaXaXaXaXaX",
"aXaXaXaXaXaXaXaXaXaXaXaXaXaXaXaXaX} $X7X7X8X3XOX|.(.:.z q &.z k   j @.3.}.OX2.rXeX>.OX#X4.;.g O k z &.9 v <.(.|.OX<X8X7X7X+XY aXaXaXaXaXaXaXaXaXaXaXaXaXaXaXaXaX",
"aXaXaXaXaXaXaXaXaXaXaXaXaXaXaXaXaXk |.7X8XeX<X+X=X{.A.Y w ( c b O g ;.r.|.}.@.rXeX#.|.}.r.;.: o b c ( > E A.[.=X+X3X8XeX7X}.g aXaXaXaXaXaXaXaXaXaXaXaXaXaXaXaXaX",
"aXaXaXaXaXaXaXaXaXaXaXaXaXaXaXaXaXaX`.9X8X9X9X5X;X}.Z.m = ) x v o a ,.W.}.(.O.rXuX .).}.W.;.: o b I E = } 4.].;XqX7X9X8X7X!.aXaXaXaXaXaXaXaXaXaXaXaXaXaXaXaXaXaX",
"aXaXaXaXaXaXaXaXaXaXaXaXaXaXaXaXaXaX2.7XwXyXwX6X|.(.2.} = P I k & : ,.m.|.Q. .rXrX} (.}.W.;.; = z I P =  .4.(.|.6XtXrXwX7X>.aXaXaXaXaXaXaXaXaXaXaXaXaXaXaXaXaXaX",
"aXaXaXaXaXaXaXaXaXaXaXaXaXaXaXaXaXaX@.0XyXrX7XOXXX|.3.O.: l J g > > ;.r.|.!. .uXeX} `.|.m.@.= ; a T s : #.Z.|.|.OX7XrXyX5XO.aXaXaXaXaXaXaXaXaXaXaXaXaXaXaXaXaXaX",
"aXaXaXaXaXaXaXaXaXaXaXaXaXaXaXaXaXaX..1X8X2X<X+XOX}.W.;.v = J - - & #.W.OXW. .uXrX} `.|.W.O.o - - I & b ;.W.}.+X+X<X2X9X-XaXaXaXaXaXaXaXaXaXaXaXaXaXaXaXaXaXaXaX",
"aXaXaXaXaXaXaXaXaXaXaXaXaXaXaXaXaXaXaX_.2X7X2X<X+XOX(.,.} & p 6 o .  .Q.|.`.} rXuX} (.|.!. .. @ 6 i = | >.(.OX+X<X7X7X2X(.aXaXaXaXaXaXaXaXaXaXaXaXaXaXaXaXaXaXaX",
"aXaXaXaXaXaXaXaXaXaXaXaXaXaXaXaXaXaXaX(.7X9X9X9X2X$X).<. .8 0 7 +   ' !.}.}.} eXeXC |.}.!.m   + 3 8 w  .2.).$X7X9X9X7X7XQ.aXaXaXaXaXaXaXaXaXaXaXaXaXaXaXaXaXaXaX",
"aXaXaXaXaXaXaXaXaXaXaXaXaXaXaXaXaXaXaX@.OX8XeX+XOX+X#X4. .u r 4 X   k W.}.+X .7X$X .+X#Xr.j   . 4 u u O.4.}.OX@X+XeX9XOX#.aXaXaXaXaXaXaXaXaXaXaXaXaXaXaXaXaXaXaX",
"aXaXaXaXaXaXaXaXaXaXaXaXaXaXaXaXaXaXaXaX,.`.3.x L } >.<.| 8 D $ . aX: 3.Q.#X;.}.).:.).!.3.: aX. % D 8 | 2.:.Y L x 3.Q.;.aXaXaXaXaXaXaXaXaXaXaXaXaXaXaXaXaXaXaXaX",
"aXaXaXaXaXaXaXaXaXaXaXaXaXaXaXaXaXaXaXaXaXaX+ 5 u ; f T p t D 3 aXaX= 4.W.4.~.#.#._.2.!.2.o aXaXe t u f T p 9 u 5 @ aXaXaXaXaXaXaXaXaXaXaXaXaXaXaXaXaXaXaXaXaXaX",
"aXaXaXaXaXaXaXaXaXaXaXaXaXaXaXaXaXaXaXaXaX3.@.8 y q h G 0 G 4 3 aXaXo 2.~.%.+X3.3.+X%.(.;.O aXaX3 4 G 0 G h 0 r 8 %.3.aXaXaXaXaXaXaXaXaXaXaXaXaXaXaXaXaXaXaXaXaX",
"aXaXaXaXaXaXaXaXaXaXaXaXaXaXaXaXaXaXaXaXaX|.7X_.%.$.r.X.k u D . aXaXaX;._.$.OX7X7X.X$.).@.aXaXaXX S u z O.r.$.+.).7X|.aXaXaXaXaXaXaXaXaXaXaXaXaXaXaXaXaXaXaXaXaX",
"aXaXaXaXaXaXaXaXaXaXaXaXaXaXaXaXaXaXaXaXaX4.9XrX9X<X|.!.:.g S aXaXaXaXO._.$.'.7X7X^.&._.o.aXaXaXS S h >.!.|.3X8XeX7X2.aXaXaXaXaXaXaXaXaXaXaXaXaXaXaXaXaXaXaXaXaX",
"aXaXaXaXaXaXaXaXaXaXaXaXaXaXaXaXaXaXaXaXaXaX$XeXeX2X}.`.2.z $ aXaXaXaX} `.&.D.3X3XV.*.~.C aXaXaXaX@ n 2.~.}.2XeXrX+XaXaXaXaXaXaXaXaXaXaXaXaXaXaXaXaXaXaXaXaXaXaX",
"aXaXaXaXaXaXaXaXaXaXaXaXaXaXaXaXaXaXaXaXaXaXQ.eXeX<X.X_.2.E S aXaXaXaXv Q.A.B.{.{.B.Z.!.k aXaXaXaXS E 4.).|.2XeXeXW.aXaXaXaXaXaXaXaXaXaXaXaXaXaXaXaXaXaXaXaXaXaX",
"aXaXaXaXaXaXaXaXaXaXaXaXaXaXaXaXaXaXaXaXaXaX} 2X9X2X+X).2.Y S aXaXaXaX: Z.L.Y.R.R.G.~.2.; aXaXaXaXS } 2.).$X2X8X3XC aXaXaXaXaXaXaXaXaXaXaXaXaXaXaXaXaXaXaXaXaXaX",
"aXaXaXaXaXaXaXaXaXaXaXaXaXaXaXaXaXaXaXaXaXaXaX(.9X7X3X_.>. .# aXaXaXaXaXg 2.I.E.E.I.>.< aXaXaXaXaX#  .>._.2X9X9XQ.aXaXaXaXaXaXaXaXaXaXaXaXaXaXaXaXaXaXaXaXaXaXaX",
"aXaXaXaXaXaXaXaXaXaXaXaXaXaXaXaXaXaXaXaXaXaXaXO.3XeX3Xr.;.@.6 aXaXaXaXaXj (.L.R.R.L.`.< aXaXaXaXaX- ;.;.W.2X8X3X .aXaXaXaXaXaXaXaXaXaXaXaXaXaXaXaXaXaXaXaXaXaXaX",
"aXaXaXaXaXaXaXaXaXaXaXaXaXaXaXaXaXaXaXaXaXaXaXaX}.eXXX>.Q.=.; aXaXaXaXaX< (.#XH.H.}.Q.; aXaXaXaXaXw ;.Q.>.+XeX).aXaXaXaXaXaXaXaXaXaXaXaXaXaXaXaXaXaXaXaXaXaXaXaX",
"aXaXaXaXaXaXaXaXaXaXaXaXaXaXaXaXaXaXaXaXaXaXaXaX2.7XW.}.`.;.: aXaXaXaXaXg (._.m.r.).`.g aXaXaXaXaXg ,.(.}.W.2X>.aXaXaXaXaXaXaXaXaXaXaXaXaXaXaXaXaXaXaXaXaXaXaXaX",
"aXaXaXaXaXaXaXaXaXaXaXaXaXaXaXaXaXaXaXaXaXaXaXaXaX3.}.<X(.>.b aXaXaXaXaXaX3.W.}.}.Q.2.aXaXaXaXaXaXb 2.(.3X).4.aXaXaXaXaXaXaXaXaXaXaXaXaXaXaXaXaXaXaXaXaXaXaXaXaX",
"aXaXaXaXaXaXaXaXaXaXaXaXaXaXaXaXaXaXaXaXaXaXaXaXaX#.7X2X(.3.} aXaXaXaXaXaX;.3.+XOX3.#.aXaXaXaXaXaX} 3._.2X7XO.aXaXaXaXaXaXaXaXaXaXaXaXaXaXaXaXaXaXaXaXaXaXaXaXaX",
"aXaXaXaXaXaXaXaXaXaXaXaXaXaXaXaXaXaXaXaXaXaXaXaXaXaX<X2X}.W. .aXaXaXaXaXaX} ;.<XOX;.C aXaXaXaXaXaX .!.}.2X<XaXaXaXaXaXaXaXaXaXaXaXaXaXaXaXaXaXaXaXaXaXaXaXaXaXaX",
"aXaXaXaXaXaXaXaXaXaXaXaXaXaXaXaXaXaXaXaXaXaXaXaXaXaX_.2XOXQ. .aXaXaXaXaXaXk O.(.(. .k aXaXaXaXaXaXO.!.+X2X(.aXaXaXaXaXaXaXaXaXaXaXaXaXaXaXaXaXaXaXaXaXaXaXaXaXaX",
"aXaXaXaXaXaXaXaXaXaXaXaXaXaXaXaXaXaXaXaXaXaXaXaXaXaXaX3X3XQ.#.g aXaXaXaXaXaXC 2.2.m aXaXaXaXaXaXj @.`.2X$XaXaXaXaXaXaXaXaXaXaXaXaXaXaXaXaXaXaXaXaXaXaXaXaXaXaXaX",
"aXaXaXaXaXaXaXaXaXaXaXaXaXaXaXaXaXaXaXaXaXaXaXaXaXaXaX X2X~.;.v aXaXaXaXaXaXm 3.4.b aXaXaXaXaXaXb ;.(.2X#XaXaXaXaXaXaXaXaXaXaXaXaXaXaXaXaXaXaXaXaXaXaXaXaXaXaXaX",
"aXaXaXaXaXaXaXaXaXaXaXaXaXaXaXaXaXaXaXaXaXaXaXaXaXaXaXm.%X).,.o.aXaXaXaXaXaX@.W.2.aXaXaXaXaXaXaXO.>.#X<XaXaXaXaXaXaXaXaXaXaXaXaXaXaXaXaXaXaXaXaXaXaXaXaXaXaXaXaX",
"aXaXaXaXaXaXaXaXaXaXaXaXaXaXaXaXaXaXaXaXaXaXaXaXaXaXaXaX#X`.!.#.aXaXaXaXaXaXaX;.aXaXaXaXaXaXaXaX@.Q.`.).aXaXaXaXaXaXaXaXaXaXaXaXaXaXaXaXaXaXaXaXaXaXaXaXaXaXaXaX",
"aXaXaXaXaXaXaXaXaXaXaXaXaXaXaXaXaXaXaXaXaXaXaXaXaXaXaXaXaX}.}.;.> aXaXaXaXaXaXaXaXaXaXaXaXaXaX: ;.}.}.aXaXaXaXaXaXaXaXaXaXaXaXaXaXaXaXaXaXaXaXaXaXaXaXaXaXaXaXaX",
"aXaXaXaXaXaXaXaXaXaXaXaXaXaXaXaXaXaXaXaXaXaXaXaXaXaXaXaXaX|.XX2.g aXaXaXaXaXaXaXaXaXaXaXaXaXaXj 4.OX XaXaXaXaXaXaXaXaXaXaXaXaXaXaXaXaXaXaXaXaXaXaXaXaXaXaXaXaXaX",
"aXaXaXaXaXaXaXaXaXaXaXaXaXaXaXaXaXaXaXaXaXaXaXaXaXaXaXaXaXaX|.m.b aXaXaXaXaXaXaXaXaXaXaXaXaXaXm W.|.aXaXaXaXaXaXaXaXaXaXaXaXaXaXaXaXaXaXaXaXaXaXaXaXaXaXaXaXaXaX",
"aXaXaXaXaXaXaXaXaXaXaXaXaXaXaXaXaXaXaXaXaXaXaXaXaXaXaXaXaXaX`.(.O.= aXaXaXaXaXaXaXaXaXaXaXaX= #.(.Q.aXaXaXaXaXaXaXaXaXaXaXaXaXaXaXaXaXaXaXaXaXaXaXaXaXaXaXaXaXaX",
"aXaXaXaXaXaXaXaXaXaXaXaXaXaXaXaXaXaXaXaXaXaXaXaXaXaXaXaXaXaXaX(.4.j aXaXaXaXaXaXaXaXaXaXaXaXk 3.`.aXaXaXaXaXaXaXaXaXaXaXaXaXaXaXaXaXaXaXaXaXaXaXaXaXaXaXaXaXaXaX",
"aXaXaXaXaXaXaXaXaXaXaXaXaXaXaXaXaXaXaXaXaXaXaXaXaXaXaXaXaXaXaX2.`.} aXaXaXaXaXaXaXaXaXaXaXO  .Q.>.aXaXaXaXaXaXaXaXaXaXaXaXaXaXaXaXaXaXaXaXaXaXaXaXaXaXaXaXaXaXaX",
"aXaXaXaXaXaXaXaXaXaXaXaXaXaXaXaXaXaXaXaXaXaXaXaXaXaXaXaXaXaXaXaX3.;.= aXaXaXaXaXaXaXaXaXaX- >.3.aXaXaXaXaXaXaXaXaXaXaXaXaXaXaXaXaXaXaXaXaXaXaXaXaXaXaXaXaXaXaXaX",
"aXaXaXaXaXaXaXaXaXaXaXaXaXaXaXaXaXaXaXaXaXaXaXaXaXaXaXaXaXaXaXaXaXO.k aXaXaXaXaXaXaXaXaXaXk O.aXaXaXaXaXaXaXaXaXaXaXaXaXaXaXaXaXaXaXaXaXaXaXaXaXaXaXaXaXaXaXaXaX",
"aXaXaXaXaXaXaXaXaXaXaXaXaXaXaXaXaXaXaXaXaXaXaXaXaXaXaXaXaXaXaXaXaXaXg O aXaXaXaXaXaXaXaXO g aXaXaXaXaXaXaXaXaXaXaXaXaXaXaXaXaXaXaXaXaXaXaXaXaXaXaXaXaXaXaXaXaXaX",
"aXaXaXaXaXaXaXaXaXaXaXaXaXaXaXaXaXaXaXaXaXaXaXaXaXaXaXaXaXaXaXaXaXaXaX  aXaXaXaXaXaXaXaX  aXaXaXaXaXaXaXaXaXaXaXaXaXaXaXaXaXaXaXaXaXaXaXaXaXaXaXaXaXaXaXaXaXaXaX",
"aXaXaXaXaXaXaXaXaXaXaXaXaXaXaXaXaXaXaXaXaXaXaXaXaXaXaXaXaXaXaXaXaXaXaX  aXaXaXaXaXaXaXaX  aXaXaXaXaXaXaXaXaXaXaXaXaXaXaXaXaXaXaXaXaXaXaXaXaXaXaXaXaXaXaXaXaXaXaX",
"aXaXaXaXaXaXaXaXaXaXaXaXaXaXaXaXaXaXaXaXaXaXaXaXaXaXaXaXaXaXaXaXaXaXaXaXaXaXaXaXaXaXaXaXaXaXaXaXaXaXaXaXaXaXaXaXaXaXaXaXaXaXaXaXaXaXaXaXaXaXaXaXaXaXaXaXaXaXaXaX"
};
