/* XPM */
static char *_bf628a372b04b43889d73ecc5daedf3[] = {
/* columns rows colors chars-per-pixel */
"70 70 207 2 ",
"   c None",
".  c #0C0D0E",
"X  c #06070C",
"o  c #0D0C13",
"O  c #0E0D19",
"+  c #0E071C",
"@  c #100F11",
"#  c #110D1D",
"$  c #131314",
"%  c #13131B",
"&  c #17181C",
"*  c #1A1A1D",
"=  c #0F1010",
"-  c #130B23",
";  c #15012C",
":  c #190C2D",
">  c #150929",
",  c #151221",
"<  c #191624",
"1  c #1D1C22",
"2  c #1A142B",
"3  c #1E1B2C",
"4  c #170031",
"5  c #1B0234",
"6  c #1B0B32",
"7  c #1D003A",
"8  c #1D1132",
"9  c #1F1931",
"0  c #201F25",
"q  c #211E2C",
"w  c #210C3C",
"e  c #22063F",
"r  c #221B34",
"t  c #23143C",
"y  c #251B3A",
"u  c #231838",
"i  c #1F2021",
"p  c #232325",
"a  c #24242A",
"s  c #27282B",
"d  c #2B2C2D",
"f  c #29272D",
"g  c #262332",
"h  c #282633",
"j  c #2E2D32",
"k  c #2A243C",
"l  c #2D293B",
"z  c #27203B",
"x  c #302D36",
"c  c #2F3031",
"v  c #333334",
"b  c #353539",
"n  c #3B3B3C",
"m  c #36393C",
"M  c #1E0042",
"N  c #220045",
"B  c #24004B",
"V  c #28084A",
"C  c #2A1B45",
"Z  c #291549",
"A  c #2D1A4F",
"S  c #261543",
"D  c #2B0053",
"F  c #2C005A",
"G  c #270055",
"H  c #2F1555",
"J  c #311B56",
"K  c #2D2542",
"L  c #2E224C",
"P  c #322C44",
"I  c #332B4B",
"U  c #382E4D",
"Y  c #3D3D41",
"T  c #39334C",
"R  c #383349",
"E  c #322354",
"W  c #362857",
"Q  c #3D3654",
"!  c #3F3758",
"~  c #3A007A",
"^  c #3C1472",
"/  c #2F0063",
"(  c #3C246A",
")  c #3C2867",
"_  c #3F3362",
"`  c #3F2670",
"'  c #41395B",
"]  c #421B7C",
"[  c #413365",
"{  c #413169",
"}  c #423862",
"|  c #402671",
" . c #402F69",
".. c #3F4041",
"X. c #434344",
"o. c #45454A",
"O. c #47484B",
"+. c #4B4B4C",
"@. c #4D4C55",
"#. c #514F5C",
"$. c #535353",
"%. c #56555A",
"&. c #5B5B5B",
"*. c #585759",
"=. c #4F5051",
"-. c #5F5F62",
";. c #585568",
":. c #4E417B",
">. c #5E547B",
",. c #53526C",
"<. c #635E78",
"1. c #615E6E",
"2. c #5A6368",
"3. c #646464",
"4. c #65666C",
"5. c #6C6C6C",
"6. c #676867",
"7. c #696877",
"8. c #65757A",
"9. c #69787A",
"0. c #737373",
"q. c #767679",
"w. c #7B7B7C",
"e. c #6134B7",
"r. c #3F4798",
"t. c #584787",
"y. c #615A99",
"u. c #656483",
"i. c #777689",
"p. c #746A95",
"a. c #767B8C",
"s. c #7666C2",
"d. c #807F83",
"f. c #3F84B3",
"g. c #5B909E",
"h. c #69838A",
"j. c #7A8588",
"k. c #6E8B94",
"l. c #7B9297",
"z. c #4282B0",
"x. c #45BCC3",
"c. c #38CADB",
"v. c #3ADEEA",
"b. c #42C0C6",
"n. c #838484",
"m. c #85848A",
"M. c #8C8C8C",
"N. c #878789",
"B. c #888994",
"V. c #908F92",
"C. c #8D9292",
"Z. c #8A9698",
"A. c #939393",
"S. c #95959B",
"D. c #969898",
"F. c #9B9B9B",
"G. c #908F8F",
"H. c #9EA09F",
"J. c #A0A19F",
"K. c #9D9DA2",
"L. c #8F9BB2",
"P. c #8EA7A6",
"I. c #98A6A7",
"U. c #8AA7B4",
"Y. c #95B5BB",
"T. c #A3A3A4",
"R. c #A7A9A9",
"E. c #ABABAB",
"W. c #A9A7A7",
"Q. c #B0AEAE",
"!. c #ACB7B8",
"~. c #B4B4B4",
"^. c #B5B6B9",
"/. c #B4BABA",
"(. c #BBBCBC",
"). c #ADAFB2",
"_. c #9FBFC0",
"`. c #C0BFC2",
"'. c #A1C1C4",
"]. c #ABC4C6",
"[. c #B3C2C3",
"{. c #BBC3C4",
"}. c #B8CACC",
"|. c #BBD6D8",
" X c #BCD8D9",
".X c #B3D9E2",
"XX c #C3C3C3",
"oX c #C1CBCB",
"OX c #CBCBCB",
"+X c #C8C7C8",
"@X c #C6D2D2",
"#X c #C3DBDB",
"$X c #CBDFDF",
"%X c #D4D4D3",
"&X c #DCDCDC",
"*X c #D3DFDF",
"=X c #D0D0CF",
"-X c #C5E3E3",
";X c #CAE1E1",
":X c #DCE4E4",
">X c #D8E8E8",
",X c #E3E3E3",
"<X c #ECECEB",
"1X c #E3EBEB",
"2X c #E9F3F3",
"3X c #F5F5F5",
"4X c #FBFBFB",
/* pixels */
"                                                                                                                                            ",
"                                                                                                                              3.3.*.s .     ",
"                                                                                                                      n.D.T.T.T.A.&.        ",
"                                                                                                                N.F.E.^.^.^.E.A.            ",
"                                                                                                          n.D.T.T.E.~.^.^.T.q.              ",
"                                                                                                      M.F.E.~.^.E.E.).^.M.O.                ",
"                                                                                                  N.I./.{.{.}. X#X X.XY.v                   ",
"                                                                                                /.@X;X-X-X;X#X}.oX{.(.C.                    ",
"                                                                                            @X$X|.!.)./.(.(.(.^.Q.E.W.F.N.q.3.+.            ",
"                                                                                        /.|.].C.n.&.p d =.n.F.F.N.0.5.3.*.*.*.*.%.v         ",
"                                                                                      ].'.B.M.E.5.p o o o & j v 6.M.F.T.^.XX(.XXOXT.        ",
"                                                                                    '.P.F.(.M.v o o o O % & < * M.+XQ.F.M.0.3.+.b v         ",
"                                                                                  P.!.XXJ...$ o % < a b X.=.&.-.5.0.0.0.w.5.$.d             ",
"                                                                                $.F.T.$.$ X % j 5.M.M.M.A.M.n.w.M.F.F.M.5.X.                ",
"                                                                            $.0.M.T.E.6.b X.n.E.D.3.X.m m m X.*.N.F.w.                      ",
"                                                                    $.5.M.E.XX%X%X=XXX(.^.^.N.%.j s d v &.M.E.E.w.R $                       ",
"                                                            5.Z.D.E.(.+X%X%X%X(.B.>.Q x v P C L I l f 6.XX+X^.&.K C < o                     ",
"                                                        A.^.XX>X:X&X&X%X%X`.q.U y r y w 7 : < 0 h K P T.+X^.-.s C k C r , $                 ",
"                                                w.n.  N.OX%XOX&X2X&X&X&XK.T 4 < 9 y z h h y w < & * $.^.^.T.m * e r t Z C t 2               ",
"                                            n.~.OXF., 0.,X%X+X+X1X;XOXXX3.O.#.=.v s a r s s p 3 1 m C.F.F.F.*.& 6 7 8 w D C H 1             ",
"                                      $.N.XX,X,X%XX.- P `.%X(.^.{.;X(.~.~.^.^.R.F.M.M.l.k.9.2.4.h.8.O.s s $.0.O.< M 2 e N S D 6             ",
"                                  5.F.XX%X&X&X,XK.t 7 P ^.+X~.^.E.}.[.E.T.D.C.H.S.i.;.h.8.2.O.Y v p 1 < - # x *.$.y : 5 w B 2 4             ",
"                              n.0.F.&X&X%X+X(.XXS.l 1 O.~.^.T.F.D.A.L.M.N.N.M.i.s.y.b * @ @ * p h k Z N 7 ; + & b $.n < 7 :                 ",
"                          A.^.%X%XF.n.E.^.~.T.F.A.T D 4.M.M.n.0.5.3.u.%.$.6.,.e.:.Y Y n v p $ $ , 6 2 < , % # O o p $.O.d                   ",
"                      T.XXOXXX~.E.E.M.6.w.N.N.n.3.u C &.3.&.$.X.d s p p p O.p.>.n j v v v j d s p $ o o o - ; 4 4 ; 1 X.$.b                 ",
"                  F.M.E.E.T.F.M.w.0.0.5.*.$.#.O.j N B a k f p * a K U } [ %.,X<X+Xn.O.b b j j j v j s p $ # o o O % % & d +.X.              ",
"              M.E.~.F.0.5.3.&.*.+.n j h p N N > B M 7 N M 2 u A J E I I R b OX4X4X4XT.s j b v j v v v b v j d s s p p p p o.O.s             ",
"            M.A.n.5.3.*.X.v                     4 - 7 ; ; 6 2 p d v v d * $ F.3X3X3X7.q * p m n m m b m s * p s d v m n m d *               ",
"        0.N.0.+.v s                                   o o O % * & $ $ . . X v (.<Xd.! ( E q 1 m $.$.X.X.c $                                 ",
"      Y *.n s                                           = $ * s c v b m X.X.o.+.#.E ' Q _ ( E g j O.*.$.O.v p                               ",
"    $ p &                                     s s v b X.$.3.5.5.0.0.5.5.5.5.5.6.Y Z ( { } ! { | W k d m O.O.n c p & $                       ",
"  $                                   $ * +.6.w.M.A.V.M.A.D.F.D.A.A.A.M.n.j.w.w.w.O.g E ) { { { ` ] ^ J g a * i d j d s 1                   ",
"                              m +.6.5.5.&.V.m.7.<.;.4.M.^.Q.T.T.T.E.~.^.~.E.T.F.A.M.3.s q K W ) ) ( ^ ~ ~ / 7 o       & & $                 ",
"                        n m +.5.n.D.T.Z.g.f.t.t.B.T.F.w.2.+.o.O.O.+.3.w.D.T.E.E.T.F.M.6.s @ $ * 3 r y S B G M o                             ",
"                      n.q.5.A.^.T.G.9.b.v.c.U.+X%XE.*.A.XX%X&X,X,X&X&X&X&X&X,X&XOXXX~.6.* $ o . . . o $ % % o                               ",
"                      5.0.0.M.E.T.M.9.x.v.c.U.+X%XE.*.M.^.%X&X%X&X,X%X%X&X&X&X&XOX^.E.6.* o . . . o o $ % % o                               ",
"                        b b +.5.n.F.W.S.g.z.r.t.a.K.F.n.3.$.O.o.O.$.3.w.D.T.E.E.T.F.M.6.p $ & 1 q y C S B F N o                             ",
"                              b O.3.6.6.$.V.m.7.7.1.4.N.^.~.E.E.R.E.~.^.E.T.T.F.A.M.&.s q K W ) ) ( ^ ~ ~ F 6 o       & & $                 ",
"  $                                   $ & O.3.0.N.M.M.M.A.D.D.A.M.A.A.M.n.w.w.w.0.o.r E ) { { { | ] ^ A g s * p j c s s 1                   ",
"    $ s &                                       s d v n +.&.6.5.0.0.5.6.6.5.5.6.m Z ( { } !  .` W k d n O.O.n j p &                         ",
"      X.&.X.s                                           = $ * p d c v b n n X.+.#.E ' Q _ ( L a j +.*.$.o.v 1                               ",
"        5.M.0.$.b s                                   o O O % * & $ $ = . X v XX<Xm.! ( L 3 1 n $.+.Y ..j $                                 ",
"            M.A.N.0.6.&.X.b s                   5 > 7 ; : 6 2 p d v v d i $ D.4X4X,X7.a * p m n m m b m s 1 p s d b m n n d *               ",
"              M.E.~.F.0.5.6.&.*.$.n v h p N N > N M 7 N M 2 u A J E U T T m %X3X3X4XT.s j b v j v v v b v d d s p i 1 1 0 o.O.d             ",
"                  F.M.E.E.T.F.M.w.w.w.5.*.*.%.+.v N B a l h s * q k U ' _ ;.<X&X^.n.O.b b j j j v j s p $ + o o O % % & v $.n               ",
"                      F.(.OXXX^.~.E.M.6.w.N.N.n.6.t C &.6.&.$.o.v s a p p o.p.>.m j v v v v d s 1 $ o o o - ; 4 4 ; p o.$.v                 ",
"                          M.^.%X%XF.N.E.^.~.T.F.A.T D 4.A.M.n.0.5.6.u.;.$.5.;.e.:.Y ..n v * $ $ , 6 2 < , % # O o s $.O.a                   ",
"                              w.0.F.&X&X%X+XXXXXS.l 1 O.~.^.T.F.D.S.L.M.M.N.M.i.s.y.v * $ $ * p h k Z N 7 ; + & m $.m < 5 :                 ",
"                                  5.F.(.%X&X,X,XT.t 7 K ^.OX~.^.E.}.[.R.T.F.A.I.F.a.2.k.a.4.+.X.b p 1 < # # b &.+.y : 5 w B 8 4             ",
"                                      O.n.^.&X,X%Xo.- P XX%XXX^.XX;X(.~.E.^.^.E.D.N.N.k.h.8.2.2.h.9.=.s d *.0.O.< M 2 7 N S F 8             ",
"                                            w.E.OXF., q.,X%XOX+X1X*XOXXX-.X.@.o.d s q r s s p 3 1 v M.T.F.F.*.& 6 7 8 w D C H 1             ",
"                                                0.w.  N.OX%XOX:X2X&X&X&XT.! 6 < 9 y z h h y w < * * $.^.^.E.m * w r t Z Z t <               ",
"                                                        M.^.XX>X:X&X%X%X%XXXi.Q y r u e 7 : < 0 k I P T.+X(.3.s C k C r , $                 ",
"                                                            5.l.A.R.^.+X%X%X%XXXS.<.' b m R C L P l f 3.XX+X^.3.K K < o                     ",
"                                                                    O.6.N.E.XX%X%X%X+XXX^.^.V.&.v s d v %.N.E.E.n.R $                       ",
"                                                                            +.5.M.F.T.&.j Y w.E.F.5.O.Y n m X.%.N.F.w.                      ",
"                                                                                *.D.E.&.$ X % f 3.M.M.M.A.A.N.w.M.F.F.M.5.o.                ",
"                                                                                  P.!.^.Q.O.$ o % * p j Y O.$.*.3.5.5.0.0.5.$.d             ",
"                                                                                    _.P.F.(.D.b o o o o % & < &         3.w.5.$.m m         ",
"                                                                                      ].'.Z.C.T.5.s o o o < v b b b +.w.F.~.XXXXXX^.        ",
"                                                                                        /.|.].Z.j.&.s j %.m.T.F.M.w.0.6.&.*.*.*.$.X.        ",
"                                                                                            oX$X#X[.!.(.(.(.(.^.~.~.E.F.N.w.3.O.            ",
"                                                                                                !.@X#X-X-X;X#X|.oXoX{.C.                    ",
"                                                                                                  n.F.^.{.[.}. X X|..XY.m                   ",
"                                                                                                      M.F.T.~.~.E.R.Q.~.M.+.                ",
"                                                                                                          w.A.F.T.E.~.^.^.T.w.              ",
"                                                                                                                n.F.E.~.^.^.E.A.            ",
"                                                                                                                      w.A.F.T.T.A.3.        ",
"                                                                                                                              &.&.*.d $     ",
"                                                                                                                                            "
};
