/* XPM */
static char *result[] = {
/* columns rows colors chars-per-pixel */
"80 80 220 2 ",
"   c #0C0D0E",
".  c #06070A",
"X  c #0D0D13",
"o  c #0E0C19",
"O  c #110F1C",
"+  c #100F11",
"@  c #0F1016",
"#  c #131214",
"$  c #14141B",
"%  c #17181B",
"&  c #1A1B1D",
"*  c #18171B",
"=  c #130D23",
"-  c #15012B",
";  c #140A29",
":  c #190D2C",
">  c #15012A",
",  c #161324",
"<  c #191624",
"1  c #1D1C23",
"2  c #1B152A",
"3  c #1D1A2B",
"4  c #171229",
"5  c #1A0234",
"6  c #1E0B36",
"7  c #1D003B",
"8  c #1F0D38",
"9  c #170031",
"0  c #1F1732",
"q  c #211D2D",
"w  c #201F25",
"e  c #21013E",
"r  c #210D3C",
"t  c #231C34",
"y  c #22123B",
"u  c #261D3C",
"i  c #221935",
"p  c #1F2022",
"a  c #232324",
"s  c #25252A",
"d  c #2B2B2C",
"f  c #27282A",
"g  c #252232",
"h  c #292735",
"j  c #2D2D32",
"k  c #2A243C",
"l  c #2D2B3B",
"z  c #262337",
"x  c #302F33",
"c  c #333334",
"v  c #353539",
"b  c #3B3B3C",
"n  c #38383C",
"m  c #2F3030",
"M  c #1F0043",
"N  c #1F0048",
"B  c #210044",
"V  c #240B43",
"C  c #21004C",
"Z  c #28034C",
"A  c #251242",
"S  c #271A41",
"D  c #291D43",
"F  c #2B1B4A",
"G  c #2A144B",
"H  c #2A0054",
"J  c #2B005B",
"K  c #230051",
"L  c #31005D",
"P  c #311755",
"I  c #2E1654",
"U  c #2C2443",
"Y  c #2E234A",
"T  c #2E2841",
"R  c #332A4D",
"E  c #312C42",
"W  c #3E3E41",
"Q  c #3A3647",
"!  c #332552",
"~  c #36245C",
"^  c #352956",
"/  c #3E3755",
"(  c #350267",
")  c #360078",
"_  c #3E1E72",
"`  c #391869",
"'  c #3C2767",
"]  c #3F3264",
"[  c #3F2371",
"{  c #403F43",
"}  c #413A5A",
"|  c #421F7B",
" . c #420A7F",
".. c #412C6D",
"X. c #413464",
"o. c #42326C",
"O. c #483C66",
"+. c #402472",
"@. c #483577",
"#. c #3D4243",
"$. c #444444",
"%. c #464649",
"&. c #474849",
"*. c #4B4B4C",
"=. c #484749",
"-. c #4E4E52",
";. c #484751",
":. c #4B5252",
">. c #535354",
",. c #55545A",
"<. c #5B5B5B",
"1. c #58595B",
"2. c #4C4464",
"3. c #524D62",
"4. c #5D5D62",
"5. c #575764",
"6. c #534872",
"7. c #605F66",
"8. c #635D7D",
"9. c #5D6367",
"0. c #5F7479",
"q. c #636364",
"w. c #66666B",
"e. c #6B6B6C",
"r. c #6E6E72",
"t. c #666674",
"y. c #706F74",
"u. c #68787D",
"i. c #747474",
"p. c #777779",
"a. c #7B7B7C",
"s. c #787877",
"d. c #817F7F",
"f. c #410481",
"g. c #513F81",
"h. c #5206A1",
"j. c #3B58AA",
"k. c #584992",
"l. c #6C7D82",
"z. c #777984",
"x. c #6C6B89",
"c. c #635DA3",
"v. c #7777A1",
"b. c #6B3FCB",
"n. c #7D71C9",
"m. c #6C43C9",
"M. c #358CBF",
"N. c #538487",
"B. c #6D8489",
"V. c #7E8282",
"C. c #74878E",
"Z. c #789298",
"A. c #6F8F9A",
"S. c #4593A8",
"D. c #7EA4AC",
"F. c #7799A8",
"G. c #3292C3",
"H. c #3ED5DD",
"J. c #37D4E1",
"K. c #3EE6F0",
"L. c #838484",
"P. c #8B8B8C",
"I. c #878887",
"U. c #91918F",
"Y. c #8D8C93",
"T. c #858996",
"R. c #869697",
"E. c #949494",
"W. c #969599",
"Q. c #9B9B9B",
"!. c #97999A",
"~. c #8E908F",
"^. c #A09E9F",
"/. c #8D91A2",
"(. c #A19FA1",
"). c #9BA7AD",
"_. c #95A6B5",
"`. c #99B3B4",
"'. c #89A5A9",
"]. c #A3A4A4",
"[. c #A5A9AB",
"{. c #ABABAB",
"}. c #A7A5A7",
"|. c #ABABB4",
" X c #A9B3B3",
".X c #B3B3B3",
"XX c #B4BABB",
"oX c #BCBCBC",
"OX c #B7B6B8",
"+X c #B8BFC1",
"@X c #B3AFC0",
"#X c #AAC9CA",
"$X c #BDC2C2",
"%X c #B9C7C7",
"&X c #ACD1D5",
"*X c #BAD4D6",
"=X c #B6CFD1",
"-X c #B5DDE3",
";X c #BAE1E5",
":X c #C3C3C3",
">X c #C3CCCC",
",X c #CCCCCC",
"<X c #C6D2D2",
"1X c #C4DCDC",
"2X c #CADEDE",
"3X c #CED5D5",
"4X c #D3D3D3",
"5X c #DCDCDC",
"6X c #D8D8D8",
"7X c #C3E3E2",
"8X c #CBE4E4",
"9X c #C9E8E8",
"0X c #DEE7E7",
"qX c #E4E4E4",
"wX c #ECECEC",
"eX c #E7EAEA",
"rX c #E4F2F2",
"tX c #F4F4F4",
"yX c #FCFCFC",
"uX c None",
/* pixels */
"uXuXuXuXuXuXuXuXuXuXuXuXuXuXuXuXuXuXuXuXuXuXuXuXuXuXuXuXuXuXuXuXuXuXuXuXuXuXuXuXuXuXuXuXuXuXuXuXuXuXuXuXuXuXuXuXuXuXuXuXuXuXuXuXuXuXuXuXuXuXuXuXuXuXuXuXuXuXuXuX",
"uXuXuXuXuXuXuXuXuXuXuXuXuXuXuXuXuXuXuXuXuXuXuXuXuXuXuXuXuXuXuXuXuXuXuXuXuXuXuXuXuXuXuXuXuXuXuXuXuXuXuXuXuXuXuXuXuXuXuXuXuXuXuXuXuXuXuXuXuXuXuXuXuX=.*.W % + uXuX",
"uXuXuXuXuXuXuXuXuXuXuXuXuXuXuXuXuXuXuXuXuXuXuXuXuXuXuXuXuXuXuXuXuXuXuXuXuXuXuXuXuXuXuXuXuXuXuXuXuXuXuXuXuXuXuXuXuXuXuXuXuXuXuXuXuXuXuXuXuXI.E.!.!.!.d.{ uXuXuXuX",
"uXuXuXuXuXuXuXuXuXuXuXuXuXuXuXuXuXuXuXuXuXuXuXuXuXuXuXuXuXuXuXuXuXuXuXuXuXuXuXuXuXuXuXuXuXuXuXuXuXuXuXuXuXuXuXuXuXuXuXuXuXuXuXuXuXd.!.].{..X.X{.].L.uXuXuXuXuXuX",
"uXuXuXuXuXuXuXuXuXuXuXuXuXuXuXuXuXuXuXuXuXuXuXuXuXuXuXuXuXuXuXuXuXuXuXuXuXuXuXuXuXuXuXuXuXuXuXuXuXuXuXuXuXuXuXuXuXuXuXuXuXuXr.L.Q.[..XOXOXOX.XQ.i.uXuXuXuXuXuXuX",
"uXuXuXuXuXuXuXuXuXuXuXuXuXuXuXuXuXuXuXuXuXuXuXuXuXuXuXuXuXuXuXuXuXuXuXuXuXuXuXuXuXuXuXuXuXuXuXuXuXuXuXuXuXuXuXuXuXuXuXuXz.Q.{.{.}.[.{..XOX{.d.uXuXuXuXuXuXuXuXuX",
"uXuXuXuXuXuXuXuXuXuXuXuXuXuXuXuXuXuXuXuXuXuXuXuXuXuXuXuXuXuXuXuXuXuXuXuXuXuXuXuXuXuXuXuXuXuXuXuXuXuXuXuXuXuXuXuXuXuXP.].[.{..XOX.X[. XXX[.<.uXuXuXuXuXuXuXuXuXuX",
"uXuXuXuXuXuXuXuXuXuXuXuXuXuXuXuXuXuXuXuXuXuXuXuXuXuXuXuXuXuXuXuXuXuXuXuXuXuXuXuXuXuXuXuXuXuXuXuXuXuXuXuXuXuXuXuXL.(.OX$X%X%X*X1X;X-X-X-X0.uXuXuXuXuXuXuXuXuXuXuX",
"uXuXuXuXuXuXuXuXuXuXuXuXuXuXuXuXuXuXuXuXuXuXuXuXuXuXuXuXuXuXuXuXuXuXuXuXuXuXuXuXuXuXuXuXuXuXuXuXuXuXuXuXuXuX!..X<X2X7X9X9X8X1X%X>X>XoX{.q.uXuXuXuXuXuXuXuXuXuXuX",
"uXuXuXuXuXuXuXuXuXuXuXuXuXuXuXuXuXuXuXuXuXuXuXuXuXuXuXuXuXuXuXuXuXuXuXuXuXuXuXuXuXuXuXuXuXuXuXuXuXuXuXuXuX>X2X9X1X*X<X:X+X:XoXOX.X.X.X}.E.L.i.1.$.uXuXuXuXuXuXuX",
"uXuXuXuXuXuXuXuXuXuXuXuXuXuXuXuXuXuXuXuXuXuXuXuXuXuXuXuXuXuXuXuXuXuXuXuXuXuXuXuXuXuXuXuXuXuXuXuXuXuXuX$X1X1X[.V.q.$.$.e.!.{..X{.Q.E.P.a.i.e.q.q.>.=.c # uXuXuXuX",
"uXuXuXuXuXuXuXuXuXuXuXuXuXuXuXuXuXuXuXuXuXuXuXuXuXuXuXuXuXuXuXuXuXuXuXuXuXuXuXuXuXuXuXuXuXuXuXuXuXuX&X&XR.i.E.W.*.# . X w { q.q.<.>.1.1.4.e.a.d.E.}.^.uXuXuXuXuX",
"uXuXuXuXuXuXuXuXuXuXuXuXuXuXuXuXuXuXuXuXuXuXuXuXuXuXuXuXuXuXuXuXuXuXuXuXuXuXuXuXuXuXuXuXuXuXuXuXR.&X`.V.^.oXa.a X X @ @ O $ & * I.4X5X5X5X5X4X$X.X}.I.uXuXuXuXuX",
"uXuXuXuXuXuXuXuXuXuXuXuXuXuXuXuXuXuXuXuXuXuXuXuXuXuXuXuXuXuXuXuXuXuXuXuXuXuXuXuXuXuXuXuXuXuXuXR.#XR.].>X!.c X X X X o O * < w 1 q.].L.i.q.>.*.$.m # uXuXuXuXuXuX",
"uXuXuXuXuXuXuXuXuXuXuXuXuXuXuXuXuXuXuXuXuXuXuXuXuXuXuXuXuXuXuXuXuXuXuXuXuXuXuXuXuXuXuXuXuXuX:.`.OX,X}.{ X X # < q x { -.<.e.i.p.a.d.d.L.P.I.i.*.uXuXuXuXuXuXuXuX",
"uXuXuXuXuXuXuXuXuXuXuXuXuXuXuXuXuXuXuXuXuXuXuXuXuXuXuXuXuXuXuXuXuXuXuXuXuXuXuXuXuXuXuXuXuXuXe.^.}.<.# . X * v s.!.!.E.!.!.Y.a.i.L.^.Q.!.s.>.uXuXuXuXuXuXuXuXuXuX",
"uXuXuXuXuXuXuXuXuXuXuXuXuXuXuXuXuXuXuXuXuXuXuXuXuXuXuXuXuXuXuXuXuXuXuXuXuXuXuXuXuXuXuXuX-.w.I.Q.}.q.m f :.U..X].e.%.n n n c n >.s.].P.q.uXuXuXuXuXuXuXuXuXuXuXuX",
"uXuXuXuXuXuXuXuXuXuXuXuXuXuXuXuXuXuXuXuXuXuXuXuXuXuXuXuXuXuXuXuXuXuXuXuXuXuXuXc =.e.U..X:X4X6X4X4X4X$X.XoXE.q.c f j j n 1.L.]..X!.,.1 uXuXuXuXuXuXuXuXuXuXuXuXuX",
"uXuXuXuXuXuXuXuXuXuXuXuXuXuXuXuXuXuXuXuXuXuXuXuXuXuXuXuXuXuXuXuXuXuXuX:.9.i.U.}.:X,X4X4X5X,XOXT.w.>.1.w.O.F T l f d c Y.:X:XoXs.Q G & X uXuXuXuXuXuXuXuXuXuXuXuX",
"uXuXuXuXuXuXuXuXuXuXuXuXuXuXuXuXuXuXuXuXuXuXuXuXuXuXuXuXuXuXuXuXq.!.Q.>X8X,X6X,X,X4X6X,XQ.5.E A B e 9 O < 3 U R ! k 4.,X,X:Xs.m D U k 3 O   uXuXuXuXuXuXuXuXuXuX",
"uXuXuXuXuXuXuXuXuXuXuXuXuXuXuXuXuXuXuXuXuXuXuXuXuXuXuXuXuXuXuXe..X,X,X5XrX0X5X0X4X,X|.,.t r y u g g y B e < & a h l !.:XoX!.d 1 A u u S H 1 $ uXuXuXuXuXuXuXuXuX",
"uXuXuXuXuXuXuXuXuXuXuXuXuXuXuXuXuXuXuXuXuXuXuXuXuXuXuXs.{.s.uXY.5X4X,X,XeXrX6X5X5X!.h 7 : & 1 t u k d d g r 4 % # $..X.X{.!.d < 8 8 0 A H u J i uXuXuXuXuXuXuXuX",
"uXuXuXuXuXuXuXuXuXuXuXuXuXuXuXuXuXuXuXuXuXuXuXuX-.P.$X4X4X4.o p.qX6X,X:X4X0X3X:X:Xy.7.y.i.4.v c f q s a f a p h &.~.!.I.U.E.>.$ : B < B e Z S L p uXuXuXuXuXuXuX",
"uXuXuXuXuXuXuXuXuXuXuXuXuXuXuXuXuXuXuXuXuXuX1.E.,XqXqXeXW.< 4 U OX6X$XoX{.<X8XOX.X.XoX:X.X].^.!.Q.'.'.A.l.t.B.Z.l.&.p % d <.s.*.& M : 5 y H t L 6 uXuXuXuXuXuXuX",
"uXuXuXuXuXuXuXuXuXuXuXuXuXuXuXuXuXuXuXuXi.}.:X4X5X5XqX5X3.7 e T .X4XOX.X.X{.*X+X{.].Q.P.!.].W.x.9.A.C.i.1.%.b d 1 p 1 $ o $ W q.>.g e 4 B y Z 2 5 uXuXuXuXuXuXuX",
"uXuXuXuXuXuXuXuXuXuXuXuXuXuXuXuXuXuX<.s.,XqXqX4X,X:X,X:X3.0 1 %.OXoX.X].}.E.)._.U.U.I.U.P.z.n.c.j # X # $ a d h k D Z M 7 9 o 1 $.<.b & 5 5 e uXuXuXuXuXuXuXuXuX",
"uXuXuXuXuXuXuXuXuXuXuXuXuXuXuXuX!.:X4X].d..X:X:XoX{.].[.L.g S e.Q.!.E.d.a.s.e.v.w.q.i.s.8.b.k.%.%.W x & @ X $ 3 V A 0 4 O o o X   a <.-.f : uXuXuXuXuXuXuXuXuXuX",
"uXuXuXuXuXuXuXuXuXuXuXuXuXd.{.:X,X,X,X:X}.e.z.!.!.E.U.I.-.J P e.s.r.e.4.>.%.b Q l d #.;.h.o.v c c c c c d a # $ X @ @ @ O = ; - > > f -.<.v uXuXuXuXuXuXuXuXuXuX",
"uXuXuXuXuXuXuXuXuXuXuXuX].:X,X:X.X].!.U.U.P.q.e.i.i.i.e.j 0 S =.-.*.=.c p % & p f l j {.@XP.<.v m c m m d d c c a % +   o - - ; = ; O % v >.$.a uXuXuXuXuXuXuXuX",
"uXuXuXuXuXuXuXuXuXuX{.].P.!.U.P.I.L.s.r.q.q.4.*.{ Q c f 7 J 7 4 e 2 * < z ! ' o.@.g.R ].yXyXeXOXr.v v v m m x c c m m f % @ + X + + $ $ # a >.*.v uXuXuXuXuXuXuX",
"uXuXuXuXuXuXuXuXP.{..X].I.e.q.<.-.*.$.c f 1 2 * C K = C C 9 M K e 2 y G I F l l x c d i.yXtXyXyXOXa a v v c m c v m c v c c v v m d d d f m *.$.f # uXuXuXuXuXuX",
"uXuXuXuXuXuXp.E.E.L.e.q.1.-.c d uXuXuXuXuXuXuXuXuXuXuXuX$ 9 9 = 9 - 4 & f c c c d a + b qXwXtXtXt.g 1 % f #.W b b b b c % & & p d m b b W v a % uXuXuXuXuXuXuXuX",
"uXuXuXuXuXa.P.s.1.b f a uXuXuXuXuXuXuXuXuXuXuXuXuXuXuXuXuXuXuX@ @ O # & & * # #   . .   e.wXwXd./ +.~ g & a &.1.*.#.{ b 1 uXuXuXuXuXuXuXuXuXuXuXuXuXuXuXuXuXuXuX",
"uXuXuXuX<.w.=.d & uXuXuXuXuXuXuXuXuXuXuXuXuXuXuXuXuXuXuXuXuXuXuX  . + % & a a a d m c b b q.w.R } Q X.+.~ z p v 1.4.>.=.b a % uXuXuXuXuXuXuXuXuXuXuXuXuXuXuXuXuX",
"uXuXuXa m & uXuXuXuXuXuXuXuXuXuXuXuXuXuXuXuXuXuXuXuXuXuXuX% & a c $.>.1.q.q.e.q.q.q.q.q.q.*.q L ' o.} / ] +.' U f j =.>.>.=.c a % + uXuXuXuXuXuXuXuXuXuXuXuXuXuX",
"uX# + # uXuXuXuXuXuXuXuXuXuXuXuXuXuXuXuXuXuXuXuXf c *.>.q.r.i.a.d.I.I.L.d.d.L.d.s.i.i.s.s.s.<.f F ' o.X.] ] [ +._ ! g f c c f c c m f a & uXuXuXuXuXuXuXuXuXuXuX",
"uXuXuXuXuXuXuXuXuXuXuXuXuXuXuXuXuXuXuXuXm a d f a.P.U.E.!.Y.L.P.^.}.{.{.{.[.}.}.^.Q.U.U.I.L.L.e.c q T ' ' o.] ' [  .f.( S 3 # + & a d a a & # uXuXuXuXuXuXuXuXuX",
"uXuXuXuXuXuXuXuXuXuXuXuXuXuXuXuXc *.q.a.U.U.E.i.T.x.6.O.2.5.p.Q.OX].U.L.L.I.E.}..X.X.X{.{.].^.E.L.$.& 1 t T ! ' ' ` ) ) ) ) B X uXuXuXuXuXuXuXuXuXuXuXuXuXuXuXuX",
"uXuXuXuXuXuXuXuXuXuXuXuXuXq.$.$.>.w.s.I.!.).A.S.G.j.k./..X.XU.q.*.&.&.*.*.*.:.<.i.I.Q.[.{.[.^.E.P.p.W + X # # % < 3 3 0 8 M -   uXuXuXuXuXuXuXuXuXuXuXuXuXuXuXuX",
"uXuXuXuXuXuXuXuXuXuXuXuXi.d.i.r.E.oXOX].V.N.H.K.J.'.,X4X4Xs.<.}.6XqXwXtXtXwXeXtXwXqXqXwXeX5X4X,XOXa.w # #           X o $ $   uXuXuXuXuXuXuXuXuXuXuXuXuXuXuXuXuX",
"uXuXuXuXuXuXuXuXuXuXuXuXuXs.s.s.E..X{.^.d.N.H.K.J.'.>X4X4Xz.1.Q.:X5XtXqXqXwXtXqX5XeXqX5X5XqX4XoX.Xd.w # X X       X   @ $ O   uXuXuXuXuXuXuXuXuXuXuXuXuXuXuXuXuX",
"uXuXuXuXuXuXuXuXuXuXuXuXuXuXb W >.q.a.P.Q.^.Z.S.M.j.k.T.|.OXE.w.*.$.&.&.$.*.*.<.e.I.Q.}.{.}.^.E.P.s.b +   # $ & 1 3 i y V B -   uXuXuXuXuXuXuXuXuXuXuXuXuXuXuXuX",
"uXuXuXuXuXuXuXuXuXuXuXuXuXuXuXuXd $.<.s.P.P.U.e.Y.x.6.O.O.3.i.!.OX{.E.U.U.U.!.[.OXOX.X{.}.].!.E.L.W & w z Y ~ ' [ ` ) ) ) ( B X uXuXuXuXuXuXuXuXuXuXuXuXuXuXuXuX",
"uXuXuXuXuXuXuXuXuXuXuXuXuXuXuXuXuXuXuXuXd a f a i.I.U.!.Q.E.I.P.^.].}.{.}.].}.].^.E.U.U.I.L.L.e.d s Y ~ ..o.] ' [ f. .L S 3 # # a a d a a * # uXuXuXuXuXuXuXuXuX",
"uX#   # uXuXuXuXuXuXuXuXuXuXuXuXuXuXuXuXuXuXuXuXa c $.>.<.e.r.p.d.L.I.L.a.V.d.d.s.i.i.i.i.i.<.f F ' o.X.] X...| _ Y s d v v d c c m a a p uXuXuXuXuXuXuXuXuXuXuX",
"uXuXuXd c p # uXuXuXuXuXuXuXuXuXuXuXuXuXuXuXuXuXuXuXuXuXuX# % a m b *.>.<.q.q.q.<.q.q.q.q.&.t L [ X.O./ ] [ ' z s c *.,.-.%.c a # + uXuXuXuXuXuXuXuXuXuXuXuXuXuX",
"uXuXuXuX<.e.*.c & uXuXuXuXuXuXuXuXuXuXuXuXuXuXuXuXuXuXuXuXuXuXuX  . X # & p a a a m m c b e.q.R / / ] [ ~ q w n <.4.>.$.n a uXuXuXuXuXuXuXuXuXuXuXuXuXuXuXuXuXuX",
"uXuXuXuXuXs.P.s.<.W m a uXuXuXuXuXuXuXuXuXuXuXuXuXuXuXuXuXuXuXX # # $ & 1 * # # +   .   i.wXwXI./ [ ! s & f =.1.*.b $.b & uXuXuXuXuXuXuXuXuXuXuXuXuXuXuXuXuXuXuX",
"uXuXuXuXuXuXi.E.E.L.i.q.<.>.c c uXuXuXuXuXuXuXuXuXuXuXB $ 9 9 = 9 5 2 1 f c c v x a + b qXyXyXqXt.g < & d #.b n n c n c & & p a d c n $.{ c a % uXuXuXuXuXuXuXuX",
"uXuXuXuXuXuXuXuXP.{..X].P.e.q.1.>.>.=.v d s 3 * C K = N K - M K e 2 r G P F T E l v d i.yXtXtXyXOXf a c c c c c c c c v c v c c d d a a a d *.$.d # uXuXuXuXuXuX",
"uXuXuXuXuXuXuXuXuXuX{.].U.^.E.P.P.L.a.e.w.q.q.*.%./ v d e J e < e 2 % & g R ^ o.@.k.R .XyXwXqXOXw.c v v j j m v c c c a $ # + + X o $ # % f >.*.c uXuXuXuXuXuXuX",
"uXuXuXuXuXuXuXuXuXuXuXuX^.$X4X:XOX].!.E.E.I.q.e.i.i.p.e.c i u =.>.*.*.c w & & & a f j |.|.z.>.v m c c m j j m d a #     o - > > ; ; $ % b 1.W a uXuXuXuXuXuXuXuX",
"uXuXuXuXuXuXuXuXuXuXuXuXuXuX].oX,X,X,X,X].e.L.!.Q.!.P.P.,.J P y.s.i.e.q.>.*.W } c d =.%.h.@.v x c v c c d p $ $ o @ @ O o = ; - > > d >.1.c uXuXuXuXuXuXuXuXuXuX",
"uXuXuXuXuXuXuXuXuXuXuXuXuXuXuXuXE.:X,XQ.L..X,X,XoX{.].{.a.g u w.^.Q.E.L.d.p.i.v.w.q.i.a.8.m.k.;.=.{ j %   + $ 3 V A 0 < $ o @ X   f 1.*.a : uXuXuXuXuXuXuXuXuXuX",
"uXuXuXuXuXuXuXuXuXuXuXuXuXuXuXuXuXuX>.s.,XqX5X4X,X,X,X:X3.i w $.OX:X.X^.}.!.)._.E.E.I.U.~.z.n.c.d % + + % p f h h U V C 7 - o p =.1.Q & 5 6 7 uXuXuXuXuXuXuXuXuX",
"uXuXuXuXuXuXuXuXuXuXuXuXuXuXuXuXuXuXuXuXe.Q.:X4X5X5XqX5X3.5 B U .X,XOXOX{.|.*X+X{.(.^.U.W.].W.z.9.F.Z.V.9.*.#.c p 1 < O o * $.w.>.t 5 4 B y H 2 5 uXuXuXuXuXuXuX",
"uXuXuXuXuXuXuXuXuXuXuXuXuXuXuXuXuXuXuXuXuXuX>.P.:XqXeXqXQ.1 4 T oX6X$XoX.X<X2XOX.X.XoX:X.X}.Q.!.!.Z.F.B.l.9.l.Z.B.-.f & m q.i.&.* B : 7 6 H t L y uXuXuXuXuXuXuX",
"uXuXuXuXuXuXuXuXuXuXuXuXuXuXuXuXuXuXuXuXuXuXuXuX=.I.OX4X4X4.o a.qX6X,X$X4XeX3X:X:Xr.1.w.w.,.c j f g p f s s 3 s #.P.Q.P.!.E.*.$ 4 B < B V Z F L & uXuXuXuXuXuXuX",
"uXuXuXuXuXuXuXuXuXuXuXuXuXuXuXuXuXuXuXuXuXuXuXuXuXuXuXi.[.p.uXU.6X4X4X,XeXrX5X5X5X(.l 7 : < 1 t u k f f t V 4 % $ $..X.X{.E.d % r r i A H k H 3 uXuXuXuXuXuXuXuX",
"uXuXuXuXuXuXuXuXuXuXuXuXuXuXuXuXuXuXuXuXuXuXuXuXuXuXuXuXuXuXuXq.{.,X,X5XrX0X5X5X4X,X.X7.z r y t g g u M 6 < & a h l E.:X+XQ.j a S u u u H * O uXuXuXuXuXuXuXuXuX",
"uXuXuXuXuXuXuXuXuXuXuXuXuXuXuXuXuXuXuXuXuXuXuXuXuXuXuXuXuXuXuXuX9.P.!.%X8X,X6X4X,X4X6X,X(.7.Q G B 7 - , < t U R ! z <.,X,X:Xz.c u U k 2 O + uXuXuXuXuXuXuXuXuXuX",
"uXuXuXuXuXuXuXuXuXuXuXuXuXuXuXuXuXuXuXuXuXuXuXuXuXuXuXuXuXuXuXuXuXuXuXuX<.e.I.(.OX,X4X4X5X4XOXW.r.<.4.y.2.Y U h d j c I.:X:XoXd.Q F * X uXuXuXuXuXuXuXuXuXuXuXuX",
"uXuXuXuXuXuXuXuXuXuXuXuXuXuXuXuXuXuXuXuXuXuXuXuXuXuXuXuXuXuXuXuXuXuXuXuXuXuXuXm =.q.I.}.$X,X4X4X4X4XoX.XoXQ.e.n f h c v >.d.].{.Q.5.a uXuXuXuXuXuXuXuXuXuXuXuXuX",
"uXuXuXuXuXuXuXuXuXuXuXuXuXuXuXuXuXuXuXuXuXuXuXuXuXuXuXuXuXuXuXuXuXuXuXuXuXuXuXuXuXuXuXuX;.7.d.!.].<.f w %.L..X].i.*.b b n v v -.s.].U.w.uXuXuXuXuXuXuXuXuXuXuXuX",
"uXuXuXuXuXuXuXuXuXuXuXuXuXuXuXuXuXuXuXuXuXuXuXuXuXuXuXuXuXuXuXuXuXuXuXuXuXuXuXuXuXuXuXuXuXuXr.Q.{.w.% . @ % c i.E.!.W.!.!.U.L.a.P.Q.(.!.d.>.uXuXuXuXuXuXuXuXuXuX",
"uXuXuXuXuXuXuXuXuXuXuXuXuXuXuXuXuXuXuXuXuXuXuXuXuXuXuXuXuXuXuXuXuXuXuXuXuXuXuXuXuXuXuXuXuXuX:.`. X:XOX*.@   @ $ 1 j Q &.>.q.e.i.i.a.a.L.I.I.i.:.c uXuXuXuXuXuXuX",
"uXuXuXuXuXuXuXuXuXuXuXuXuXuXuXuXuXuXuXuXuXuXuXuXuXuXuXuXuXuXuXuXuXuXuXuXuXuXuXuXuXuXuXuXuXuXuXR.#XR.(.3X(.n X X X X o O , < 1 1 & uXuXd m *.*.=.c % + uXuXuXuXuX",
"uXuXuXuXuXuXuXuXuXuXuXuXuXuXuXuXuXuXuXuXuXuXuXuXuXuXuXuXuXuXuXuXuXuXuXuXuXuXuXuXuXuXuXuXuXuXuXuXR.&X`.V.^.:XV.s X X X O $ $ & $ uXuXuXuXuX4X4X,X$X].E.e.uXuXuXuX",
"uXuXuXuXuXuXuXuXuXuXuXuXuXuXuXuXuXuXuXuXuXuXuXuXuXuXuXuXuXuXuXuXuXuXuXuXuXuXuXuXuXuXuXuXuXuXuXuXuXuX#X&X'.s.I.E.:.$ . X p &.e.e.1.*.=.>.<.w.i.a.P.!.].uXuXuXuXuX",
"uXuXuXuXuXuXuXuXuXuXuXuXuXuXuXuXuXuXuXuXuXuXuXuXuXuXuXuXuXuXuXuXuXuXuXuXuXuXuXuXuXuXuXuXuXuXuXuXuXuXuX+X1X1X XV.w.&.-.i.Q..X.X{.].!.~.L.i.e.e.q.>.%.c % uXuXuXuX",
"uXuXuXuXuXuXuXuXuXuXuXuXuXuXuXuXuXuXuXuXuXuXuXuXuXuXuXuXuXuXuXuXuXuXuXuXuXuXuXuXuXuXuXuXuXuXuXuXuXuXuXuXuX$X1X9X1X3X<X:X$X:XoXOX.X.X.X].E.L.i.>.uXuXuXuXuXuXuXuX",
"uXuXuXuXuXuXuXuXuXuXuXuXuXuXuXuXuXuXuXuXuXuXuXuXuXuXuXuXuXuXuXuXuXuXuXuXuXuXuXuXuXuXuXuXuXuXuXuXuXuXuXuXuXuXuX.X>X1X7X9X9X8X1X1X>X>X$X.X<.uXuXuXuXuXuXuXuXuXuXuX",
"uXuXuXuXuXuXuXuXuXuXuXuXuXuXuXuXuXuXuXuXuXuXuXuXuXuXuXuXuXuXuXuXuXuXuXuXuXuXuXuXuXuXuXuXuXuXuXuXuXuXuXuXuXuXuXuXd.!..X$X$X%X=X*X7X-X-X-Xu.uXuXuXuXuXuXuXuXuXuXuX",
"uXuXuXuXuXuXuXuXuXuXuXuXuXuXuXuXuXuXuXuXuXuXuXuXuXuXuXuXuXuXuXuXuXuXuXuXuXuXuXuXuXuXuXuXuXuXuXuXuXuXuXuXuXuXuXuXuXuXI.^.}.{..X.X{.{.[.XX[.q.uXuXuXuXuXuXuXuXuXuX",
"uXuXuXuXuXuXuXuXuXuXuXuXuXuXuXuXuXuXuXuXuXuXuXuXuXuXuXuXuXuXuXuXuXuXuXuXuXuXuXuXuXuXuXuXuXuXuXuXuXuXuXuXuXuXuXuXuXuXuXuXp.!.{.{.}.{.{..XOX.XI.uXuXuXuXuXuXuXuXuX",
"uXuXuXuXuXuXuXuXuXuXuXuXuXuXuXuXuXuXuXuXuXuXuXuXuXuXuXuXuXuXuXuXuXuXuXuXuXuXuXuXuXuXuXuXuXuXuXuXuXuXuXuXuXuXuXuXuXuXuXuXuXuXuXL.!.[..XOXOX.X.XQ.s.uXuXuXuXuXuXuX",
"uXuXuXuXuXuXuXuXuXuXuXuXuXuXuXuXuXuXuXuXuXuXuXuXuXuXuXuXuXuXuXuXuXuXuXuXuXuXuXuXuXuXuXuXuXuXuXuXuXuXuXuXuXuXuXuXuXuXuXuXuXuXuXuXuXa.!.Q.}..X.X{.[.L.uXuXuXuXuXuX",
"uXuXuXuXuXuXuXuXuXuXuXuXuXuXuXuXuXuXuXuXuXuXuXuXuXuXuXuXuXuXuXuXuXuXuXuXuXuXuXuXuXuXuXuXuXuXuXuXuXuXuXuXuXuXuXuXuXuXuXuXuXuXuXuXuXuXuXuXuXd.U.!.E.!.d.$.uXuXuXuX",
"uXuXuXuXuXuXuXuXuXuXuXuXuXuXuXuXuXuXuXuXuXuXuXuXuXuXuXuXuXuXuXuXuXuXuXuXuXuXuXuXuXuXuXuXuXuXuXuXuXuXuXuXuXuXuXuXuXuXuXuXuXuXuXuXuXuXuXuXuXuXuXuXuXuX=.b % # uXuX",
"uXuXuXuXuXuXuXuXuXuXuXuXuXuXuXuXuXuXuXuXuXuXuXuXuXuXuXuXuXuXuXuXuXuXuXuXuXuXuXuXuXuXuXuXuXuXuXuXuXuXuXuXuXuXuXuXuXuXuXuXuXuXuXuXuXuXuXuXuXuXuXuXuXuXuXuXuXuXuXuX"
};
