/* XPM */
static char *ca6d2981b3d34298ba7604bcfe74f21e[] = {
/* columns rows colors chars-per-pixel */
"70 70 211 2 ",
"   c None",
".  c #040506",
"X  c #04060B",
"o  c #07080B",
"O  c #0B0B0C",
"+  c #080808",
"@  c #040712",
"#  c #060A14",
"$  c #0B0D13",
"%  c #070A1C",
"&  c #0A0D1A",
"*  c #0E1114",
"=  c #0E111B",
"-  c #131315",
";  c #12141B",
":  c #15181D",
">  c #1A1B1C",
",  c #0A110F",
"<  c #3D0606",
"1  c #070B23",
"2  c #070C2A",
"3  c #0A0E2B",
"4  c #0A0E22",
"5  c #0E1225",
"6  c #0D112B",
"7  c #111323",
"8  c #171A22",
"9  c #1B1D23",
"0  c #12152B",
"q  c #16192C",
"w  c #1B1E2B",
"e  c #070C37",
"r  c #0E1235",
"t  c #0C113E",
"y  c #121534",
"u  c #151934",
"i  c #1A1D35",
"p  c #11153B",
"a  c #15193B",
"s  c #1A1E3B",
"d  c #1F2023",
"f  c #1F2128",
"g  c #1F2234",
"h  c #18213C",
"j  c #232324",
"k  c #23252B",
"l  c #27282A",
"z  c #2B2B2C",
"x  c #222535",
"c  c #2D2E31",
"v  c #22253A",
"b  c #25283D",
"n  c #292B3A",
"m  c #262937",
"M  c #2E3033",
"N  c #2E313D",
"B  c #323333",
"V  c #353639",
"C  c #36383B",
"Z  c #3B3B3C",
"A  c #2F302F",
"S  c #400505",
"D  c #0D1243",
"F  c #0A1049",
"G  c #151944",
"H  c #161A48",
"J  c #141A54",
"K  c #1E2244",
"L  c #1C214E",
"P  c #1D2257",
"I  c #202441",
"U  c #252A44",
"Y  c #292C43",
"T  c #252B4D",
"R  c #21264C",
"E  c #2E3144",
"W  c #2E334C",
"Q  c #3D3E41",
"!  c #33354B",
"~  c #353848",
"^  c #252B52",
"/  c #232952",
"(  c #2C3253",
")  c #2B325A",
"_  c #393D53",
"`  c #393E5B",
"'  c #373C57",
"]  c #1A2061",
"[  c #2D356D",
"{  c #2F3668",
"}  c #343B65",
"|  c #383F65",
" . c #323A6B",
".. c #333A64",
"X. c #242C78",
"o. c #2C3671",
"O. c #323C77",
"+. c #3F4043",
"@. c #3C405A",
"#. c #3B4161",
"$. c #444444",
"%. c #444549",
"&. c #47484A",
"*. c #4B4B4C",
"=. c #50504F",
"-. c #4D4E50",
";. c #4B4D5A",
":. c #4F5055",
">. c #545454",
",. c #54555B",
"<. c #5B5B5C",
"1. c #5E5F62",
"2. c #555868",
"3. c #565A7A",
"4. c #485473",
"5. c #5B6369",
"6. c #5D6175",
"7. c #636464",
"8. c #65676C",
"9. c #6C6C6C",
"0. c #676867",
"q. c #666A76",
"w. c #6A747B",
"e. c #697779",
"r. c #747474",
"t. c #7C7C7C",
"y. c #75767A",
"u. c #B70202",
"i. c #FF0000",
"p. c #F1060F",
"a. c #E30F26",
"s. c #2C5C96",
"d. c #4E5786",
"f. c #596A98",
"g. c #626C82",
"h. c #777B88",
"j. c #777C96",
"k. c #6D788B",
"l. c #4D5FB5",
"z. c #4E61B5",
"x. c #115EEA",
"c. c #1566FF",
"v. c #1568FF",
"b. c #4A4FC5",
"n. c #697EC1",
"m. c #3A8CB0",
"M. c #5D929D",
"N. c #68848B",
"B. c #73868B",
"V. c #748F95",
"C. c #6C80BF",
"Z. c #51BDC3",
"A. c #47CBD8",
"S. c #4EDDE6",
"D. c #838484",
"F. c #85868B",
"G. c #848B8B",
"H. c #8C8C8C",
"J. c #90908F",
"K. c #8D8F92",
"L. c #838699",
"P. c #8E9292",
"I. c #899697",
"U. c #939393",
"Y. c #93999B",
"T. c #9B9C9C",
"R. c #93969B",
"E. c #908F8F",
"W. c #A09F9F",
"Q. c #9E9EA2",
"!. c #8E9FB1",
"~. c #96A6A7",
"^. c #8CAAB4",
"/. c #98B6BB",
"(. c #90A1B2",
"). c #A3A3A4",
"_. c #ABABAB",
"`. c #A7A8A8",
"'. c #ACB3B3",
"]. c #AEBBBB",
"[. c #B4B4B4",
"{. c #B6B6B9",
"}. c #B4BABA",
"|. c #BBBCBC",
" X c #B8B8B7",
".X c #AABFC0",
"XX c #A9C3C4",
"oX c #BCC4C4",
"OX c #B5C7C9",
"+X c #BBD8DA",
"@X c #B6DAE1",
"#X c #C3C3C3",
"$X c #C3CCCC",
"%X c #CBCBCB",
"&X c #C4D3D3",
"*X c #C4DADB",
"=X c #CDDEDE",
"-X c #C5D7D7",
";X c #D4D4D4",
":X c #DBDBDB",
">X c #D5DFDF",
",X c #CCE2E2",
"<X c #C7E2E2",
"1X c #DEE3E3",
"2X c #DAE8E8",
"3X c #E2E2E2",
"4X c #EBEBEA",
"5X c #E4EBEB",
"6X c #EAF3F3",
"7X c #F5F5F5",
"8X c #FBFBFB",
/* pixels */
"                                                                                                                                            ",
"                                                                                                                              7.7.,.j +     ",
"                                                                                                                      D.Y.).`.`.U.<.        ",
"                                                                                                                D.T._.[.[.[._.U.            ",
"                                                                                                          D.Y.)._._.[. X X).t.              ",
"                                                                                                      H.T._.[.[._._.'.}.F.&.                ",
"                                                                                                  D.).}.oXoXOX*X*X+X@X/.M                   ",
"                                                                                                }.-X,X<X<X,X*X$X$X$X|.P.                    ",
"                                                                                            &X=X-X].'.}.|.|.|.[.[.[._.T.D.t.7.&.            ",
"                                                                                        .X+XXXP.D.<.9 l -.D.T.T.D.r.9.7.,.,.,.,.>.z         ",
"                                                                                      XXXXG.H._.9.9 X X X = z B 0.H.T.).[.#X|.%X%X`.        ",
"                                                                                    XX~.T.|.H.z X X X @ # = ; - F.%X[.T.F.r.7.*.B z         ",
"                                                                                  ~.].#X).Z o X $ ; f M +.-.,.7.9.r.r.r.t.9.>.z             ",
"                                                                                >.T._.>.O . $ l 9.H.U.H.Y.U.D.t.F.T.T.H.9.Q                 ",
"                                                                            >.r.H.`._.0.B +.D._.T.7.+.V C V $.,.F.T.t.                      ",
"                                                                    *.9.H._.#X;X:X;X#X|.[.{.F.,.c j l M <.H._._.h.E O                       ",
"                                                            r.I.T._.|.%X;X;X;X|.K.3._ n c E K U Y m k 0.%X%X X<.b v ; X                     ",
"                                                        Y. X#X2X2X:X:X;X;X#Xy.! i i i a y 6 ; 8 x Y N `.%X|.1.d K x I i & o                 ",
"                                                t.D.  F.;X;X%X1X6X:X3X:X).! 6 7 q i g k k i u 7 - - >. X[._.C ; a q s K K a 7               ",
"                                            D.[.;XT.= r.3X;X%X%X5X,X%X#X7.&.2.-.z j w w d j w q 8 V P.T.T.T.,.* 6 r 0 a H K / >             ",
"                                      >.F.#X3X4X;X+.& Y #X;X#X[.#X,X|.[.[.|. X_.T.H.K.V.V.e.5.q.B.e.&.9 j >.r.&.; t 5 p G s P y             ",
"                                  9.).#X;X:X3X3X~.u p Y {.%X[.[._.OXOX_.).Y.U.).T.j.2.N.e.5.%.Z c 9 8 = % % c ,.=.v 6 r y H 0 3             ",
"                              D.r.T.:X:X;X%X#X#XT.m 8 &.[.[.`.T.Y.R.!.F.F.D.H.k.n.f.B - + X - 9 k v K G r 2 @ $ B >.Z ; r 6                 ",
"                          U. X;X;XT.D._.[.[.).T.U.! L 8.J.F.D.r.9.7.g.,.>.0.2.l.4.Z Z Z z > O o & 6 7 = & # # @ X 9 >.&.l                   ",
"        c.            ).#X%X#X[._._.H.0.t.D.D.D.7.i K <.7.<.>.$.z j 9 > > $.j.3.Z z z M c c l j > O X X X % 2 2 2 1 > +.>.B                 ",
"  c.    c.        T.P._._.).T.H.t.y.r.9.>.>.:.&.c a G w m k > ; w b W #.| ,.3X4X%XD.&.B B z z z B z j > $ @ X X @ # $ $ z *.Z               ",
"  c.          H._.[.T.r.9.7.<.,.*.Z z k 9 D D 4 F t r D t 7 u R / T W E ~ B %X8X8X8X).d z B c z B B c B B z z j j > > > > $.&.j             ",
"  c.        H.U.D.9.7.,.Z B                     3 % e 1 3 6 7 9 l z z z > O T.7X7X7Xq.w ; > B Z C V B B j - > j z B V C Z z -               ",
"        r.F.r.*.B j                                   X X @ $ - - O O + + . z |.4XD._  .T 9 : Z >.-.Q Q z O                                 ",
"      Z ,.Z k                                           + O ; j z B B B Z $.$.&.;.( ` _ }  .T w z &.,.>.$.B >                               ",
"    O > ,   x.      c.                        > j z B Z >.0.9.9.r.r.9.9.9.9.9.0.C K { | #.` |  .) v l C &.&.Z z > - O                       ",
"  + S u.        c.c.c.                - - *.0.t.F.U.U.H.U.Y.T.Y.U.Y.U.H.D.D.D.t.t.&.w T ..| | |  .O.o./ g w - > z z l d >                   ",
"    i.i.i.i.i.b.              B *.0.9.9.,.U.F.q.6.2.0.F.[.[.`.`.`._.[.[.[._.).T.Y.H.7.j 9 b ( ....{ [ X.X.] y X       - - O                 ",
"  i.i.i.i.i.i.          Z B *.9.D.T.`.Y.M.m.s.d.L.).T.t.7.*.$.$.&.*.7.t.Y.`._._.).T.H.0.> X $ ; 9 i s a G J t X                             ",
"  i.i.i.i.i.i.p.      D.t.9.U.[._.U.e.Z.S.A.^.%X;X_.,.Y.#X:X:X3X3X:X3X:X:X:X3X:X;X#X[.0.- o + . . + X o $ $ X                               ",
"  i.i.i.i.i.i.i.      9.r.r.U._.`.E.e.Z.S.A.^.%X;X_.,.H.[.;X3X;X:X3X;X;X:X:X:X:X;X X_.0.- X + . . + X o $ $ X                               ",
"  i.i.i.i.i.i.    c.    B B &.9.D.T._.Y.M.m.s.d.B.Q.).D.7.*.$.$.$.>.7.t.Y.`._._.).T.H.0.> O $ : w g h G H J D X                             ",
"    i.i.i.i.i.                B &.7.0.0.>.U.F.w.q.8.8.F.[.[._._._._.[.[.'._.).T.U.F.<.j 9 Y ( ....{ o.X.X.P y X       - * O                 ",
"  + < u.i.a.    c.c.c.                O - &.7.r.D.H.U.H.U.Y.T.Y.U.U.U.F.D.t.t.t.t.$.w ^ ..| | |  .O.[ R g d - > z z j d >                   ",
"    * d -   x.c.                                j z z Z *.<.0.9.r.r.9.0.0.9.9.0.V K { | @.` |  .) x l Z &.&.Z z > -                         ",
"  v.  Z <.$.l h                                         + O - 9 z z z B Z Z Q *.;.( ` _ }  .T w z *.,.>.$.c >                               ",
"  c.    g.F.r.=.B j                                   X @ @ $ ; - O O + + . c #X4XF._ ..T 8 > Z >.*.Z Z z O                                 ",
"      c.    H.Y.D.r.0.<.$.B j                   3 1 e 1 3 6 7 9 l z A z > O Y.8X8X4Xq.9 ; > B C V B B B j > > j z B Z Z Z z >               ",
"  c.    c.    F._.[.T.r.9.0.<.,.*.Z c x 9 D D 4 F D r D t 5 u R ^ ^ W ! ~ V ;X7X7X8X).j z B c z B B c B B z l j > > > > > $.&.z             ",
"                  T.H._._.`.T.H.D.t.t.9.,.,.,.*.c a G f m l j ; 9 v W ` ` 2.4X:X XD.$.B B z z z B z j > O @ X X @ # $ $ z *.Z               ",
"                      T.#X%X#X X[._.H.0.D.F.F.D.0.s I <.0.<.>.$.z j w > > $.k.3.Z z c M c c l j > O X X X % 2 2 2 1 9 $.>.B                 ",
"                          F.[.;X;XT.F.[. X[.`.T.Y.~ L 8.U.F.D.r.9.0.g.,.>.9.2.z.4.Q Z Z z > O o & y 0 = & # # @ X d >.&.j                   ",
"                              t.r.T.:X:X;X%X#X%XR.m 8 %.[. X`.T.T.Y.(.F.F.D.J.h.C.f.c - O O - w k v K G r 2 @ - Z >.V ; r 6                 ",
"                                  9.T.#X;X:X3X3X).u p Y {.%X[.[._.OXOX_.).T.U.).T.h.5.V.h.8.*.+.B 9 : = % # M <.*.s 6 y y H 0 3             ",
"                                      &.D.|.3X4X;X%.% E #X;X#X[.#X,X|.[._. X X_.Y.F.F.B.N.e.5.5.B.e.*.j z >.r.$.= t 5 p G s P y             ",
"                                            t._.%XT.= y.3X;X%X%X5X>X%X#X1.%.;.%.z d w w d j w 0 : M K.`.T.T.,.$ 6 r 0 a H K / >             ",
"                                                r.t.  D.%X;X%X1X6X:X3X:X`._ 6 7 q i g k k i u ; - - :. X X_.C ; a q s K K u 7               ",
"                                                        H.[.#X2X2X:X:X;X;X#Xh._ i i s a r 5 ; 8 x Y n ).%X|.7.d I x I u & X                 ",
"                                                            9.G.U._.|.%X;X;X;X#XR.q.@.N B ~ K U Y m k 7.#X%X X7.b v ; X                     ",
"                                                                    &.0.D._.#X;X;X;X%X#X[. XK.<.c j l c ,.D._._.D.~ O                       ",
"                                                                            *.9.F.W.`.<.z C t._.T.9.$.C C C Q >.D.T.t.                      ",
"                                                                                ,.Y._.<.O . $ k 0.F.H.U.Y.U.D.t.H.T.T.H.9.$.                ",
"                                                                                  ~.'. X[.&.O X @ ; 9 c C %.>.,.7.9.9.r.r.9.*.z             ",
"                                                                                    .X~.~.|.T.B X X X o # = ; $         7.t.9.>.B B         ",
"                                                                                      XXXXI.P.).9.d X X X ; c B B B &.t.T.[.#X#X#X|.        ",
"                                                                                        }.+XOXY.D.<.j z >.F.).T.H.t.r.0.<.,.,.,.>.$.        ",
"                                                                                            $X=X*XOX}.|.oX#X|.[.[.[._.T.D.t.7.&.            ",
"                                                                                                [.&X=X<X<X,X*X&X$X$XoXP.                    ",
"                                                                                                  D.T.}.oXoXOX-X*X+X@X/.C                   ",
"                                                                                                      H.T._.[.[._._.'.}.H.*.                ",
"                                                                                                          t.Y.T.`._.[. X X`.t.              ",
"                                                                                                                D.T._.[.[.[._.U.            ",
"                                                                                                                      t.U.).).`.Y.7.        ",
"                                                                                                                              <.<.>.j +     ",
"                                                                                                                                            "
};
