/* XPM */
static char *result[] = {
/* columns rows colors chars-per-pixel */
"80 80 219 2 ",
"   c #040405",
".  c #04060A",
"X  c #06080D",
"o  c #0A0B0C",
"O  c #080709",
"+  c #040611",
"@  c #060A13",
"#  c #0B0D13",
"$  c #060B1C",
"%  c #0A0D19",
"&  c #0F1014",
"*  c #0E111B",
"=  c #121314",
"-  c #13151A",
";  c #16181C",
":  c #1B1B1D",
">  c #140B0B",
",  c #070B24",
"<  c #0A0D24",
"1  c #0A0E2B",
"2  c #060A2C",
"3  c #0E1123",
"4  c #0C122B",
"5  c #131523",
"6  c #161923",
"7  c #1C1D22",
"8  c #16192C",
"9  c #1A1D2B",
"0  c #121629",
"q  c #0A0E35",
"w  c #080D36",
"e  c #0D1234",
"r  c #0E123C",
"t  c #121634",
"y  c #151835",
"u  c #1B1E33",
"i  c #12163C",
"p  c #15193B",
"a  c #181C3C",
"s  c #1E2023",
"d  c #1E212D",
"f  c #1E2133",
"g  c #1E213B",
"h  c #222324",
"j  c #24262A",
"k  c #27282C",
"l  c #2B2B2D",
"z  c #282725",
"x  c #222533",
"c  c #2D2E31",
"v  c #22253B",
"b  c #25293E",
"n  c #272A38",
"m  c #2F3032",
"M  c #323334",
"N  c #353639",
"B  c #3B3C3D",
"V  c #37383A",
"C  c #530505",
"Z  c #0A0F45",
"A  c #0A0F4B",
"S  c #0D1247",
"D  c #111641",
"F  c #181D46",
"G  c #141A57",
"H  c #090F50",
"J  c #1E2344",
"K  c #1D224C",
"L  c #1C2153",
"P  c #1F255C",
"I  c #0F234B",
"U  c #212544",
"Y  c #252942",
"T  c #2A2F4D",
"R  c #24294A",
"E  c #2B304B",
"W  c #393B46",
"Q  c #252A52",
"!  c #252B59",
"~  c #2C335D",
"^  c #2B3255",
"/  c #393D55",
"(  c #363B57",
")  c #181F71",
"_  c #1D267C",
"`  c #252C66",
"'  c #2D3564",
"]  c #2D356B",
"[  c #353C63",
"{  c #343C6B",
"}  c #353C63",
"|  c #2E3878",
" . c #333B70",
".. c #323C7C",
"X. c #212975",
"o. c #3E4244",
"O. c #3A405C",
"+. c #3A4169",
"@. c #394375",
"#. c #444444",
"$. c #44464B",
"%. c #4B4B4C",
"&. c #47494B",
"*. c #4C4D51",
"=. c #4E5152",
"-. c #4A5053",
";. c #545454",
":. c #55565B",
">. c #5B5B5B",
",. c #585959",
"<. c #454963",
"1. c #585B63",
"2. c #444C76",
"3. c #4B5279",
"4. c #5D6367",
"5. c #5E647E",
"6. c #636363",
"7. c #66666A",
"8. c #6B6C6C",
"9. c #66686E",
"0. c #6E6F73",
"q. c #646876",
"w. c #68777A",
"e. c #747474",
"r. c #7B7B7C",
"t. c #777878",
"y. c #FF0000",
"u. c #F70101",
"i. c #EF0711",
"p. c #80807F",
"a. c #2C3680",
"s. c #3D4B9F",
"d. c #246CA8",
"f. c #1047B0",
"g. c #4A578A",
"h. c #4D5C95",
"j. c #767A85",
"k. c #6D7A8E",
"l. c #5A6FA2",
"z. c #536293",
"x. c #1566FF",
"c. c #1367FC",
"v. c #114DC1",
"b. c #586EC7",
"n. c #2C96BC",
"m. c #568486",
"M. c #6D8589",
"N. c #7E8182",
"B. c #738386",
"V. c #789398",
"C. c #4796A7",
"Z. c #778FA5",
"A. c #2B9BC0",
"S. c #7288C7",
"D. c #51D4DA",
"F. c #4AD4DE",
"G. c #53E4EC",
"H. c #838384",
"J. c #8B8B8B",
"K. c #888887",
"L. c #8E8F91",
"P. c #858D97",
"I. c #899697",
"U. c #949494",
"Y. c #95969A",
"T. c #9B9B9C",
"R. c #979898",
"E. c #8F908E",
"W. c #9FA09F",
"Q. c #A0A09F",
"!. c #8B99A3",
"~. c #9D9DA1",
"^. c #868AA1",
"/. c #89A3A6",
"(. c #9CA4A9",
"). c #84AAB1",
"_. c #9AB3B4",
"`. c #96A7B7",
"'. c #A4A4A4",
"]. c #ABABAB",
"[. c #A4A9AB",
"{. c #ACADB3",
"}. c #ACB2B2",
"|. c #B4B4B4",
" X c #B6B6B9",
".X c #B4BABB",
"XX c #BBBBBB",
"oX c #B8B7B7",
"OX c #C0BFBF",
"+X c #C0C0BF",
"@X c #B9B9C0",
"#X c #BDC4C4",
"$X c #B7C5C7",
"%X c #B7D3D4",
"&X c #ADCDCE",
"*X c #B6DDE3",
"=X c #BEE1E4",
"-X c #C3C3C3",
";X c #C4CCCC",
":X c #CCCCCC",
">X c #C8C7C7",
",X c #C4D1D1",
"<X c #C9D3D3",
"1X c #C5DCDC",
"2X c #CCDCDC",
"3X c #D3D3D3",
"4X c #DCDCDC",
"5X c #D7D8D8",
"6X c #C3DFE0",
"7X c #CCE4E4",
"8X c #C8E4E4",
"9X c #D7E4E5",
"0X c #E4E4E4",
"qX c #ECECEC",
"wX c #E1EFEF",
"eX c #E6F2F2",
"rX c #F4F4F4",
"tX c #FCFCFC",
"yX c None",
/* pixels */
"yXyXyXyXyXyXyXyXyXyXyXyXyXyXyXyXyXyXyXyXyXyXyXyXyXyXyXyXyXyXyXyXyXyXyXyXyXyXyXyXyXyXyXyXyXyXyXyXyXyXyXyXyXyXyXyXyXyXyXyXyXyXyXyXyXyXyXyXyXyXyXyXyXyXyXyXyXyXyXyX",
"yXyXyXyXyXyXyXyXyXyXyXyXyXyXyXyXyXyXyXyXyXyXyXyXyXyXyXyXyXyXyXyXyXyXyXyXyXyXyXyXyXyXyXyXyXyXyXyXyXyXyXyXyXyXyXyXyXyXyXyXyXyXyXyXyXyXyXyXyXyXyXyXyX#.%.B = O yXyX",
"yXyXyXyXyXyXyXyXyXyXyXyXyXyXyXyXyXyXyXyXyXyXyXyXyXyXyXyXyXyXyXyXyXyXyXyXyXyXyXyXyXyXyXyXyXyXyXyXyXyXyXyXyXyXyXyXyXyXyXyXyXyXyXyXyXyXyXyXyXH.U.T.U.T.r.#.yXyXyXyX",
"yXyXyXyXyXyXyXyXyXyXyXyXyXyXyXyXyXyXyXyXyXyXyXyXyXyXyXyXyXyXyXyXyXyXyXyXyXyXyXyXyXyXyXyXyXyXyXyXyXyXyXyXyXyXyXyXyXyXyXyXyXyXyXyXyXH.T.'.].|.|.|.'.H.yXyXyXyXyXyX",
"yXyXyXyXyXyXyXyXyXyXyXyXyXyXyXyXyXyXyXyXyXyXyXyXyXyXyXyXyXyXyXyXyXyXyXyXyXyXyXyXyXyXyXyXyXyXyXyXyXyXyXyXyXyXyXyXyXyXyXyXyXyX8.K.T.].}.oXoXoXoXT.t.yXyXyXyXyXyXyX",
"yXyXyXyXyXyXyXyXyXyXyXyXyXyXyXyXyXyXyXyXyXyXyXyXyXyXyXyXyXyXyXyXyXyXyXyXyXyXyXyXyXyXyXyXyXyXyXyXyXyXyXyXyXyXyXyXyXyXyXyXr.T.].].].].}.|.oX].p.yXyXyXyXyXyXyXyXyX",
"yXyXyXyXyXyXyXyXyXyXyXyXyXyXyXyXyXyXyXyXyXyXyXyXyXyXyXyXyXyXyXyXyXyXyXyXyXyXyXyXyXyXyXyXyXyXyXyXyXyXyXyXyXyXyXyXyXyXE.'.[.|.oXoX}.[.{..X[.>.yXyXyXyXyXyXyXyXyXyX",
"yXyXyXyXyXyXyXyXyXyXyXyXyXyXyXyXyXyXyXyXyXyXyXyXyXyXyXyXyXyXyXyXyXyXyXyXyXyXyXyXyXyXyXyXyXyXyXyXyXyXyXyXyXyXyXyXH.W. X#X-X$X%X1X8X*X*X*Xw.yXyXyXyXyXyXyXyXyXyXyX",
"yXyXyXyXyXyXyXyXyXyXyXyXyXyXyXyXyXyXyXyXyXyXyXyXyXyXyXyXyXyXyXyXyXyXyXyXyXyXyXyXyXyXyXyXyXyXyXyXyXyXyXyXyXyXT..X<X2X8X7X7X7X1X,X:X;X+X}.6.yXyXyXyXyXyXyXyXyXyXyX",
"yXyXyXyXyXyXyXyXyXyXyXyXyXyXyXyXyXyXyXyXyXyXyXyXyXyXyXyXyXyXyXyXyXyXyXyXyXyXyXyXyXyXyXyXyXyXyXyXyXyXyXyXyX;X2X7X1X<X,X-X-X-XXXoX|.|.|.'.U.H.e.;.#.yXyXyXyXyXyXyX",
"yXyXyXyXyXyXyXyXyXyXyXyXyXyXyXyXyXyXyXyXyXyXyXyXyXyXyXyXyXyXyXyXyXyXyXyXyXyXyXyXyXyXyXyXyXyXyXyXyXyXyX$X6X2X[.N.6.W #.8.R.].|.].T.R.J.p.e.7.6.6.;.#.l & yXyXyXyX",
"yXyXyXyXyXyXyXyXyXyXyXyXyXyXyXyXyXyXyXyXyXyXyXyXyXyXyXyXyXyXyXyXyXyXyXyXyXyXyXyXyXyXyXyXyXyXyXyXyXyX&X%XI.e.U.T.&.@   . ; o.6.6.,.;.,.,.6.8.r.H.U.[.Q.yXyXyXyXyX",
"yXyXyXyXyXyXyXyXyXyXyXyXyXyXyXyXyXyXyXyXyXyXyXyXyXyXyXyXyXyXyXyXyXyXyXyXyXyXyXyXyXyXyXyXyXyXyXyXY.&X_.N.'.XXr.7 . . X X # % = = J.5X4X4X4X0X3X+X|.'.K.yXyXyXyXyX",
"yXyXyXyXyXyXyXyXyXyXyXyXyXyXyXyXyXyXyXyXyXyXyXyXyXyXyXyXyXyXyXyXyXyXyXyXyXyXyXyXyXyXyXyXyXyXyX/.&XV.'.:XU.c . . . . X % % - 6 ; 6.'.H.0.>.;.%.#.l > yXyXyXyXyXyX",
"yXyXyXyXyXyXyXyXyXyXyXyXyXyXyXyXyXyXyXyXyXyXyXyXyXyXyXyXyXyXyXyXyXyXyXyXyXyXyXyXyXyXyXyXyXyX-._. X:X].#.. . X & 7 n W %.>.8.e.t.r.p.p.H.J.J.e.%.yXyXyXyXyXyXyXyX",
"yXyXyXyXyXyXyXyXyXyXyXyXyXyXyXyXyXyXyXyXyXyXyXyXyXyXyXyXyXyXyXyXyXyXyXyXyXyXyXyXyXyXyXyXyXyX8.T.].,.o   X & N r.T.T.R.R.R.J.p.t.K.Q.T.R.r.=.yXyXyXyXyXyXyXyXyXyX",
"yXyXyXyXyXyXyXyXyXyXyXyXyXyXyXyXyXyXyXyXyXyXyXyXyXyXyXyXyXyXyXyXyXyXyXyXyXyXyXyXyXyXyXyX%.8.K.T.'.6.l s %.E.oX'.8.&.N N N m V =.j.'.E.>.yXyXyXyXyXyXyXyXyXyXyXyX",
"yXyXyXyXyXyXyXyXyXyXyXyXyXyXyXyXyXyXyXyXyXyXyXyXyXyXyXyXyXyXyXyXyXyXyXyXyXyXyXM %.8.E.{.>X3X5X5X3X3X#XXX+XU.6.m s j c N ;.H.[.|.Y.;.: yXyXyXyXyXyXyXyXyXyXyXyXyX",
"yXyXyXyXyXyXyXyXyXyXyXyXyXyXyXyXyXyXyXyXyXyXyXyXyXyXyXyXyXyXyXyXyXyXyX-.4.e.L.[.OX:X3X5X5X3XXXP.9.;.;.7.+.Y Y x j j m E.-X-XXXr.N F & O yXyXyXyXyXyXyXyXyXyXyXyX",
"yXyXyXyXyXyXyXyXyXyXyXyXyXyXyXyXyXyXyXyXyXyXyXyXyXyXyXyXyXyXyXyX6.U.T.;X7X3X3X3X:X5X5X:XT.1.n F D t 1 % * 9 b E T v >.3X:X#Xr.l U Y b 0 # O yXyXyXyXyXyXyXyXyXyX",
"yXyXyXyXyXyXyXyXyXyXyXyXyXyXyXyXyXyXyXyXyXyXyXyXyXyXyXyXyXyXyX8.oX3X:X5XeX0X4X0X5X:X{.:.u t p u d j u D t - = : j n Y.-XXXT.j : a a x v F - # yXyXyXyXyXyXyXyXyX",
"yXyXyXyXyXyXyXyXyXyXyXyXyXyXyXyXyXyXyXyXyXyXyXyXyXyXyXr.].r.yXL.4X3X3X:XqXeX5X4X4XT.x q 0 - ; u a v j j f p 5 & o #.oXoX|.U.j = t i 0 a Q v G 8 yXyXyXyXyXyXyXyX",
"yXyXyXyXyXyXyXyXyXyXyXyXyXyXyXyXyXyXyXyXyXyXyXyX=.J.XX5X5X>.+ t.0X5X3XXX:XwX5X>X-X0.>.e.0.>.N l h 9 7 s s 7 6 j o.U.Y.K.U.U.=.# 3 D % i i F J ! : yXyXyXyXyXyXyX",
"yXyXyXyXyXyXyXyXyXyXyXyXyXyXyXyXyXyXyXyXyXyX,.U.:X0X0XqXU.5 < b XX5X#X+X|.;X8XXX|.|.OX-XoX[.T.Y.T././.V.M.q.B.V.k.$.: = z >.t.%.= Z 4 r t G y Q t yXyXyXyXyXyXyX",
"yXyXyXyXyXyXyXyXyXyXyXyXyXyXyXyXyXyXyXyXt.'.:X5X4X0X0X4X:.e i Y |.3XoXoX|.].%X#X].'.T.J.R.'.Y.j.1.V.B.w.:.#.W k ; ; - % . % B 6.;.d q < D t G 5 1 yXyXyXyXyXyXyX",
"yXyXyXyXyXyXyXyXyXyXyXyXyXyXyXyXyXyX>.r.:X0X4X5X:X-X:X-X<.8 7 #.oXOX|.Q.'.R.(.`.E.U.K.U.J.j.S.l.k = o o % 7 h j f g I D w 2 X ; #.,.B - t 4 t yXyXyXyXyXyXyXyXyX",
"yXyXyXyXyXyXyXyXyXyXyXyXyXyXyXyXT.-X3X'.H.|.:X-XXX].'.[.H.d g 7.T.T.U.H.r.t.e.k.9.6.e.t.q.b.h.$.o.o.l = O O # 5 g p 8 3 $ @ + X   s >.%.h 3 yXyXyXyXyXyXyXyXyXyX",
"yXyXyXyXyXx.yXyXyXyXyXyXyXH.].-X:X:X:X-X'.8.r.R.T.R.E.K.*.G Q 0.t.0.7.6.;.#.V ( n z B $.s. .M M m m M m z : = # X X @ @ @ $ , , , , j %.,.M yXyXyXyXyXyXyXyXyXyX",
"yXyXyXyXyXx.yXyXyXyXyXyX'.-X:X>XoX'.U.U.U.J.6.8.e.e.e.8.c 8 g $.%.%.#.m : = - : h j l |.@XJ.>.N l m l l l l c l h = O   + , , , , $ % = M ;.#.: yXyXyXyXyXyXyXyX",
"yXx.yXyXx.yXyXyXyXyX].'.J.T.E.J.K.H.r.8.6.6.>.&.W W c h r G t 5 i 5 = - f T ~ +.@.g.T '.tXtXqXoX8.N M N l l l m l l l h = o   . X X @ # o h ;.%.M yXyXyXyXyXyXyX",
"yXx.yXyXx.yXyXyXE.].|.Q.J.8.6.,.=.%.#.M h 6 - * A H % Z A 1 S A e 0 y K Q J b n c c j e.rXrXrXtXoXs s l M l l M M m M M M M M M l j z z z l %.B h o yXyXyXyXyXyX",
"yXx.x.yXyXyXt.U.U.H.0.6.,.=.M z yXyXyXyXyXyXyXyXyXyXyXyXX 2 2 $ 1 4 3 - h l M M l : . B 0XqXtXrXq.d ; = z B B V V M V l = = - : z l M B B m h o yXyXyXyXyXyXyXyX",
"yXyXyXyXyXr.E.t.;.V z : yXyXyXyXyXyXyXyXyXyXyXyXyXyXyXyXyXyXyXo + @ X = ; = o O       O 8.qXqXN.(  .Q d = 7 $.,.%.B B B ; yXyXyXyXyXyXyXyXyXyXyXyXyXyXyXyXyXyXyX",
"yXyXyXyX>.7.#.z = yXyXyXyXyXyXyXyXyXyXyXyXyXyXyXyXyXyXyXyXyXyXyX    X # - : : h z m m M V 8.7.E / / (  .~ x ; M >.>.;.#.V s > yXyXyXyXyXyXyXyXyXyXyXyXyXyXyXyXyX",
"yXyXyXh l = 4 v.yXyXyXyXx.yXyXyXyXyXyXyXyXyXyXyXyXyXyXyXyX& ; : l #.%.>.6.7.7.6.>.6.6.6.6.%.9 ! { +.[ / [  .' b d l #.;.=.#.N : > X yXyXyXyXyXyXyXyXyXyXyXyXyXyX",
"yXO   > yXyXyXc.yXx.yXyXx.yXyXyXyXyXyXyXyXyXyXyXh M #.;.6.0.e.r.H.K.J.H.p.p.H.p.r.e.e.e.e.e.>.h U } { [ ( [ { .. .Q j d m c z M M l h : ; yXyXyXyXyXyXyXyXyXyXyX",
"yXyXyXy.y.y.i.yXyXx.x.x.yXyXyXyXyXyXyXyXl : l h r.K.E.R.Y.L.H.J.Q.'.].|.].'.].].'.R.U.U.K.K.K.8.l 7 Y ' { { [ }  ...a.` J 5 o X : : h h : = o yXyXyXyXyXyXyXyXyX",
"yXyXy.y.y.y.y.y.yXyXyXyXyXyXyXyXl &.6.p.U.E.U.t.P.k.2.<.<.1.e.~.oX'.E.p.K.J.U.'.|.oX|.].].'.T.R.H.#.= ; d b T ' ' ] ` X._ ) r   yXyXyXyXyXyXyXyXyXyXyXyXyXyXyXyX",
"yXy.y.y.y.y.y.y.y.yXx.yXyX6.B #.;.6.t.K.R.(.V.C.n.d.z.!.|. XU.6.%.#.#.%.=.=.=.>.e.K.R.].].].T.U.J.e.W     o # = - 0 0 8 i i 1   yXyXyXyXyXyXyXyXyXyXyXyXyXyXyXyX",
"yXy.y.y.y.y.y.y.y.yXyXyXe.p.r.0.U.-XoX'.H.m.D.G.D.).>X3X3Xr.>.'.3XqXqXrXrXqXqXqXqX0X0XqXqX4X5X:XOXp.; o o         . X X @ @   yXyXyXyXyXyXyXyXyXyXyXyXyXyXyXyXyX",
"yXy.y.y.y.y.y.y.y.yXyXyXyXt.t.t.U.|.].'.p.m.D.G.F.).>X3X3Xj.>.T.+X4XrXqX0XqXrX0X4XqX0X4X0X0X3XOXoXr.: o .         . X X @ @ . yXyXyXyXyXyXyXyXyXyXyXyXyXyXyXyXyX",
"yXy.y.y.y.y.y.y.y.yXx.yXyXyXV B =.6.r.J.T.'.V.C.n.d.g.^.{.oXU.7.%.#.#.#.#.&.%.,.8.J.T.].].'.T.R.J.r.B     o # - 7 0 y y p D 1   yXyXyXyXyXyXyXyXyXyXyXyXyXyXyXyX",
"yXyXy.y.y.y.y.y.yXyXyXx.yXyXyXyXl #.>.t.J.J.E.8.L.j.3.<.<.1.0.T.oX].U.E.E.U.T.].oXoX|.].].'.T.U.H.B - : x R ~ ' ' ] ` X._ ) r . yXyXyXyXyXyXyXyXyXyXyXyXyXyXyXyX",
"yXyXyXu.y.y.u.yXyXx.yXyXyXyXyXyXyXyXyXyXz : h h t.K.E.R.T.U.K.J.Q.'.].].].'.'.'.T.R.E.E.K.H.H.8.k 7 R ~ { +.} }  .a.| ` g 5 o o : 7 z h : = o yXyXyXyXyXyXyXyXyX",
"yXyX  > C yXyXc.x.x.x.x.x.yXyXyXyXyXyXyXyXyXyXyX: l #.;.>.7.0.r.p.K.K.H.r.H.p.p.r.e.e.e.e.e.,.d R ] { +.( [  .@. .T d j M M l M M l h : - yXyXyXyXyXyXyXyXyXyXyX",
"yXyXI h m ; 4 f.c.yXyXyXyXyXyXyXyXyXyXyXyXyXyXyXyXyXyXyXyXo = : l B %.;.>.6.6.6.>.6.6.6.6.#.9 ! { [ O./ [ { ~ v 7 l %.;.%.#.l : o O yXyXyXyXyXyXyXyXyXyXyXyXyXyX",
"yXx.yXyX,.8.%.l ; yXyXyXyXyXyXyXyXyXyXyXyXyXyXyXyXyXyXyXyXyXyXyX      o - ; : : h l l M V 8.7.E / W ( { ! d : V >.>.;.#.V : yXyXyXyXyXyXyXyXyXyXyXyXyXyXyXyXyXyX",
"yXx.yXyXyXt.E.r.,.B l h yXyXyXyXyXyXyXyXyXyXyXyXyXyXyXyXyXyXyXX O # + ; : = o O         e.qXqXK.(  .^ 9 = s &.,.&.B B V ; yXyXyXyXyXyXyXyXyXyXyXyXyXyXyXyXyXyXyX",
"yXx.yXyXx.yXe.U.U.H.e.7.>.;.M l yXyXyXyXyXyXyXyXyXyXyXZ X w 2 % 1 1 3 - h l M M c 7 O V 0XtXtX0Xq.d ; = h B B V N M N m = = : s z M M B B M : = yXyXyXyXyXyXyXyX",
"yXx.yXyXx.yXyXyXJ.}.oX'.K.8.6.>.;.;.#.N h 7 5 * Z H % Z A 1 r H i 0 p R Q R Y Y n M z e.tXrXrXtXoXh s c N m l M M l M N m M M l l h s s s l %.#.z O yXyXyXyXyXyX",
"yXx.yXyXyXx.yXyXyXyX[.'.E.Q.U.E.J.H.r.8.8.6.6.&.o./ N h i G i - i 5 = = d R ( { 2.g.T  XtXqX0XXX6.M N m l k l m m l l : & X O   X + # # > z ;.%.M yXyXyXyXyXyXyX",
"yXyXyXyXyXx.yXyXyXyXyXyX'.+X:X:XoX'.T.U.U.J.6.8.e.r.e.8.c 8 g &.;.%.&.M : = = : 7 h k {.{.p.=.M l M l l k l l l : & o   . , , 3 , , @ = V ;.B : yXyXyXyXyXyXyXyX",
"yXyXyXyXyXyXyXyXyXyXyXyXyXyX'.-X:X:X:X:X'.8.H.T.T.R.U.K.;.G Q 0.t.e.8.6.;.&.B O.c z #.$.s...V M M N M l z : & @ X X @ @ @ $ , , , $ k ;.,.M yXyXyXyXyXyXyXyXyXyX",
"yXyXyXyXyXyXyXyXyXyXyXyXyXyXyXyXU.-X3XT.H.oX:X>XOX].'.].p.x a 7.Q.T.U.H.r.r.t.k.9.7.e.r.q.b.h.$.#.B l = O X # 5 p F 8 3 $ @ @ .   z ,.&.s < yXyXyXyXyXyXyXyXyXyX",
"yXyXyXyXyXyXyXyXyXyXyXyXyXyXyXyXyXyX;.r.:X0X4X5X:X>X:X>X<.8 ; #.oXOX|.'.'.R._.`.U.U.K.L.E.j.S.l.j - o o & : s k x g F i w 2 + : #.,.N - e 4 r yXyXyXyXyXyXyXyXyX",
"yXyXyXyXyXyXyXyXyXyXyXyXyXyXyXyXyXyXyXyX0.T.-X5X4X0X0X4X1.q i Y oX3XoXoX|.|.%X@X].'.Q.L.R.[.T.j.4.Z.V.B.4.&.o.m 7 ; - % + & o.6.=.u w 5 D y F 1 q yXyXyXyXyXyXyX",
"yXyXyXyXyXyXyXyXyXyXyXyXyXyXyXyXyXyXyXyXyXyX;.J.-X0X0X0XT.6 * b XX5X-XOX|.<X7XoX|.|.XX-XoX'.~.U.I.I.V.M.k.4.j.V.M.%.: = m 6.t.#.& Z 3 e t G u ! u yXyXyXyXyXyXyX",
"yXyXyXyXyXyXyXyXyXyXyXyXyXyXyXyXyXyXyXyXyXyXyXyX%.H.XX3X5X1.@ r.0X5X:XOX:XeX5X>X-X0.:.7.9.>.m z s d s s s 7 0 7 o.L.W.E.R.U.%.& 3 D * D p F J ! ; yXyXyXyXyXyXyX",
"yXyXyXyXyXyXyXyXyXyXyXyXyXyXyXyXyXyXyXyXyXyXyXyXyXyXyXt.[.r.yXL.4X3X3X:XqXeX5X4X4X'.n e 1 = 6 9 g n d j d p 5 = o #.oX X}.U.h * t y 0 F L u L 0 yXyXyXyXyXyXyXyX",
"yXyXyXyXyXyXyXyXyXyXyXyXyXyXyXyXyXyXyXyXyXyXyXyXyXyXyXyXyXyXyX6.].3X:X4XeX0X4X9X3X3X|.1.f y p u d f g p t * = : j v U.-XXXW.k : F u v v K - # yXyXyXyXyXyXyXyXyX",
"yXyXyXyXyXyXyXyXyXyXyXyXyXyXyXyXyXyXyXyXyXyXyXyXyXyXyXyXyXyXyXyX6.J.T.#X2X<X3X3X:X5X5X:X[.1.E J D i < * 5 9 Y T T x >.:X3X-XN.l g Y v 5 #   yXyXyXyXyXyXyXyXyXyX",
"yXyXyXyXyXyXyXyXyXyXyXyXyXyXyXyXyXyXyXyXyXyXyXyXyXyXyXyXyXyXyXyXyXyXyXyX,.0.K.'.XX:X3X5X4X5XXXY.0.>.>.0.<.Y b x j j M K.-X-X-Xr.W U #   yXyXyXyXyXyXyXyXyXyXyXyX",
"yXyXyXyXyXyXyXyXyXyXyXyXyXyXyXyXyXyXyXyXyXyXyXyXyXyXyXyXyXyXyXyXyXyXyXyXyXyXyXl #.6.K.[.-X:X5X3X5X3X+X}.OXT.8.N h j n M =.r.'.}.T.1.h yXyXyXyXyXyXyXyXyXyXyXyXyX",
"yXyXyXyXyXyXyXyXyXyXyXyXyXyXyXyXyXyXyXyXyXyXyXyXyXyXyXyXyXyXyXyXyXyXyXyXyXyXyXyXyXyXyXyX#.6.H.U.'.>.h 7 $.H.|.[.e.&.B B V M N %.r.'.J.6.yXyXyXyXyXyXyXyXyXyXyXyX",
"yXyXyXyXyXyXyXyXyXyXyXyXyXyXyXyXyXyXyXyXyXyXyXyXyXyXyXyXyXyXyXyXyXyXyXyXyXyXyXyXyXyXyXyXyXyX0.T.}.6.&   . & l e.U.T.R.T.T.L.H.p.J.T.W.R.p.;.yXyXyXyXyXyXyXyXyXyX",
"yXyXyXyXyXyXyXyXyXyXyXyXyXyXyXyXyXyXyXyXyXyXyXyXyXyXyXyXyXyXyXyXyXyXyXyXyXyXyXyXyXyXyXyXyXyX-._.}.-X X=.O . X # 6 j N $.:.6.8.0.t.r.p.H.K.K.e.*.l yXyXyXyXyXyXyX",
"yXyXyXyXyXyXyXyXyXyXyXyXyXyXyXyXyXyXyXyXyXyXyXyXyXyXyXyXyXyXyXyXyXyXyXyXyXyXyXyXyXyXyXyXyXyXyXI.&XI.'.5XW.V . . . . @ @ & - 6 ; = yXyXl l #.%.#.l = O yXyXyXyXyX",
"yXyXyXyXyXyXyXyXyXyXyXyXyXyXyXyXyXyXyXyXyXyXyXyXyXyXyXyXyXyXyXyXyXyXyXyXyXyXyXyXyXyXyXyXyXyXyXyXI.&X_.N.W.>XN.s . . . X @ @ - & yXyXyXyXyX3X3X3X+X'.R.8.yXyXyXyX",
"yXyXyXyXyXyXyXyXyXyXyXyXyXyXyXyXyXyXyXyXyXyXyXyXyXyXyXyXyXyXyXyXyXyXyXyXyXyXyXyXyXyXyXyXyXyXyXyXyXyX$X%X/.t.J.R.%.# . . : #.7.7.,.%.&.;.>.6.e.p.J.U.'.yXyXyXyXyX",
"yXyXyXyXyXyXyXyXyXyXyXyXyXyXyXyXyXyXyXyXyXyXyXyXyXyXyXyXyXyXyXyXyXyXyXyXyXyXyXyXyXyXyXyXyXyXyXyXyXyXyX$X6X2X}.H.7.&.%.t.Q.|.oX].Q.T.E.H.t.8.7.6.,.#.l - yXyXyXyX",
"yXyXyXyXyXyXyXyXyXyXyXyXyXyXyXyXyXyXyXyXyXyXyXyXyXyXyXyXyXyXyXyXyXyXyXyXyXyXyXyXyXyXyXyXyXyXyXyXyXyXyXyXyX#X6X9X6X<X<X;X-X+X#XoX|.oX|.'.U.H.e.;.yXyXyXyXyXyXyXyX",
"yXyXyXyXyXyXyXyXyXyXyXyXyXyXyXyXyXyXyXyXyXyXyXyXyXyXyXyXyXyXyXyXyXyXyXyXyXyXyXyXyXyXyXyXyXyXyXyXyXyXyXyXyXyXyX}.;X1X8X8X9X7X1X,X:X;X#X}.6.yXyXyXyXyXyXyXyXyXyXyX",
"yXyXyXyXyXyXyXyXyXyXyXyXyXyXyXyXyXyXyXyXyXyXyXyXyXyXyXyXyXyXyXyXyXyXyXyXyXyXyXyXyXyXyXyXyXyXyXyXyXyXyXyXyXyXyXyXr.T.oX#X-X$X%X1X8X=X*X*Xw.yXyXyXyXyXyXyXyXyXyXyX",
"yXyXyXyXyXyXyXyXyXyXyXyXyXyXyXyXyXyXyXyXyXyXyXyXyXyXyXyXyXyXyXyXyXyXyXyXyXyXyXyXyXyXyXyXyXyXyXyXyXyXyXyXyXyXyXyXyXyXJ.'.[.].oXoX].[.]..X].>.yXyXyXyXyXyXyXyXyXyX",
"yXyXyXyXyXyXyXyXyXyXyXyXyXyXyXyXyXyXyXyXyXyXyXyXyXyXyXyXyXyXyXyXyXyXyXyXyXyXyXyXyXyXyXyXyXyXyXyXyXyXyXyXyXyXyXyXyXyXyXyXr.U.].[.[.].}.|.oX|.H.yXyXyXyXyXyXyXyXyX",
"yXyXyXyXyXyXyXyXyXyXyXyXyXyXyXyXyXyXyXyXyXyXyXyXyXyXyXyXyXyXyXyXyXyXyXyXyXyXyXyXyXyXyXyXyXyXyXyXyXyXyXyXyXyXyXyXyXyXyXyXyXyXyXH.R.[.|.oXoXoXoXT.r.yXyXyXyXyXyXyX",
"yXyXyXyXyXyXyXyXyXyXyXyXyXyXyXyXyXyXyXyXyXyXyXyXyXyXyXyXyXyXyXyXyXyXyXyXyXyXyXyXyXyXyXyXyXyXyXyXyXyXyXyXyXyXyXyXyXyXyXyXyXyXyXyXyXp.R.T.].|.|.|.[.H.yXyXyXyXyXyX",
"yXyXyXyXyXyXyXyXyXyXyXyXyXyXyXyXyXyXyXyXyXyXyXyXyXyXyXyXyXyXyXyXyXyXyXyXyXyXyXyXyXyXyXyXyXyXyXyXyXyXyXyXyXyXyXyXyXyXyXyXyXyXyXyXyXyXyXyXyXp.U.U.U.T.p.#.yXyXyXyX",
"yXyXyXyXyXyXyXyXyXyXyXyXyXyXyXyXyXyXyXyXyXyXyXyXyXyXyXyXyXyXyXyXyXyXyXyXyXyXyXyXyXyXyXyXyXyXyXyXyXyXyXyXyXyXyXyXyXyXyXyXyXyXyXyXyXyXyXyXyXyXyXyXyXyX#.V =   yXyX",
"yXyXyXyXyXyXyXyXyXyXyXyXyXyXyXyXyXyXyXyXyXyXyXyXyXyXyXyXyXyXyXyXyXyXyXyXyXyXyXyXyXyXyXyXyXyXyXyXyXyXyXyXyXyXyXyXyXyXyXyXyXyXyXyXyXyXyXyXyXyXyXyXyXyXyXyXyXyXyXyX"
};
