/* XPM */
static char *_21c9183ef614e0d95582a2cca736cf1[] = {
/* columns rows colors chars-per-pixel */
"70 70 223 2 ",
"   c None",
".  c #040506",
"X  c #04060B",
"o  c #07080B",
"O  c #0B0B0C",
"+  c #080808",
"@  c #040712",
"#  c #060A14",
"$  c #0B0D13",
"%  c #070A1C",
"&  c #0A0D1A",
"*  c #0E111B",
"=  c #0E1014",
"-  c #131315",
";  c #12141B",
":  c #1A1B1C",
">  c #15181D",
",  c #100E0A",
"<  c #211C0A",
"1  c #312D1C",
"2  c #070B23",
"3  c #070C2A",
"4  c #0A0E2B",
"5  c #0A0E22",
"6  c #0D112B",
"7  c #0E1225",
"8  c #111323",
"9  c #1B1D23",
"0  c #12152B",
"q  c #16192C",
"w  c #1B1E2B",
"e  c #171A22",
"r  c #0E1235",
"t  c #0C113E",
"y  c #121534",
"u  c #151934",
"i  c #1A1D35",
"p  c #11153B",
"a  c #15193B",
"s  c #1A1E3B",
"d  c #070C37",
"f  c #1F2024",
"g  c #1F2128",
"h  c #1F2234",
"j  c #1C213C",
"k  c #222324",
"l  c #23252B",
"z  c #27282A",
"x  c #2B2B2D",
"c  c #292927",
"v  c #222535",
"b  c #2D2E31",
"n  c #22253A",
"m  c #25283D",
"M  c #282A39",
"N  c #2E3033",
"B  c #2E313D",
"V  c #323334",
"C  c #35363A",
"Z  c #36383B",
"A  c #3B3B3C",
"S  c #3E3D37",
"D  c #33322B",
"F  c #403F3C",
"G  c #463C12",
"H  c #66550B",
"J  c #695912",
"K  c #7A650A",
"L  c #474331",
"P  c #5D4F14",
"I  c #0D1243",
"U  c #0A1049",
"Y  c #151944",
"T  c #161A48",
"R  c #141A54",
"E  c #1E2244",
"W  c #1C214E",
"Q  c #1D2257",
"!  c #252A44",
"~  c #292C43",
"^  c #252B4D",
"/  c #202546",
"(  c #2E3247",
")  c #3D3E41",
"_  c #33354B",
"`  c #353848",
"'  c #252B52",
"]  c #232952",
"[  c #2C3253",
"{  c #2B325A",
"}  c #393D53",
"|  c #393E5B",
" . c #373C57",
".. c #1A2061",
"X. c #2E366A",
"o. c #343B65",
"O. c #383F65",
"+. c #323A6B",
"@. c #333A64",
"#. c #242C78",
"$. c #323C77",
"%. c #2C3671",
"&. c #3F4043",
"*. c #3C405A",
"=. c #3B4161",
"-. c #444444",
";. c #444549",
":. c #47484A",
">. c #4B4C4C",
",. c #4D4E50",
"<. c #4B4D5A",
"1. c #4F5055",
"2. c #545454",
"3. c #54555B",
"4. c #5B5B5C",
"5. c #50504F",
"6. c #595A65",
"7. c #565A7A",
"8. c #485473",
"9. c #5B6369",
"0. c #5D6175",
"q. c #636464",
"w. c #65676C",
"e. c #6C6C6C",
"r. c #676867",
"t. c #666A76",
"y. c #69777B",
"u. c #747474",
"i. c #7C7C7C",
"p. c #75767A",
"a. c #FF2204",
"s. c #FF2D04",
"d. c #FF3404",
"f. c #957C0C",
"g. c #FF4604",
"h. c #FF5804",
"j. c #FF6B04",
"k. c #FF6404",
"l. c #FF7C04",
"z. c #FF7204",
"x. c #9C8106",
"c. c #A78A06",
"v. c #B89709",
"b. c #FF8C04",
"n. c #FF8404",
"m. c #FF9B04",
"M. c #FF9404",
"N. c #D3AD06",
"B. c #D3AD06",
"V. c #FFA304",
"C. c #FFB704",
"Z. c #E9AD05",
"A. c #FFC404",
"S. c #FECC04",
"D. c #F2C704",
"F. c #FFD204",
"G. c #FFDA04",
"H. c #E8C004",
"J. c #2C5C96",
"K. c #4E5786",
"L. c #596A98",
"P. c #777B88",
"I. c #6D758C",
"U. c #4E60B5",
"Y. c #697EC1",
"T. c #3A8CB0",
"R. c #5D929D",
"E. c #73868B",
"W. c #6F8A91",
"Q. c #6C80BF",
"!. c #51BDC3",
"~. c #47CBD8",
"^. c #4EDDE6",
"/. c #838484",
"(. c #85868B",
"). c #8C8C8C",
"_. c #848B8B",
"`. c #90908F",
"'. c #8D8F92",
"]. c #838699",
"[. c #8E9292",
"{. c #899697",
"}. c #939393",
"|. c #9B9C9C",
" X c #93989B",
".X c #908F8F",
"XX c #A09F9F",
"oX c #9E9EA2",
"OX c #8E9FB1",
"+X c #96A6A7",
"@X c #92ADB6",
"#X c #A3A3A4",
"$X c #ABABAB",
"%X c #A7A8A8",
"&X c #ADB5B6",
"*X c #B4B4B4",
"=X c #B4BABA",
"-X c #BBBCBC",
";X c #B7B7B8",
":X c #AABFC0",
">X c #A9C3C4",
",X c #BCC4C4",
"<X c #B5C7C9",
"1X c #BBD8DA",
"2X c #B6DAE1",
"3X c #C3C3C3",
"4X c #C3CCCC",
"5X c #CBCBCB",
"6X c #C4DADB",
"7X c #C7D7D7",
"8X c #D4D4D4",
"9X c #DBDBDB",
"0X c #D5DFDF",
"qX c #CCE2E2",
"wX c #C7E2E2",
"eX c #DEE3E3",
"rX c #DAE8E8",
"tX c #E2E2E2",
"yX c #EBEBEA",
"uX c #E4EBEB",
"iX c #F5F5F5",
"pX c #FBFBFB",
"aX c #EAF3F3",
/* pixels */
"                                                                                                                                            ",
"                                                                                                                              q.q.3.c +     ",
"                                                                                                                      /. X#X%X%X}.4.        ",
"                                                                                                                /.|.$X*X*X*X$X}.            ",
"                                                                                                          /. X#X$X$X*X;X;X#Xi.              ",
"                                                                                                      ).|.$X*X*X$X$X&X=X(.:.                ",
"                                                                                                  /.#X=X,X,X<X6X6X1X2X@XN                   ",
"                                                                                                =X7XqXwXwXqX7X4X4X4X-X[.                    ",
"                                                                                            4X0X7X=X&X=X-X-X-X*X*X*X$X|./.i.q.:.            ",
"                                                                                        :X1X>X[./.4.9 z ,./.|.|./.p.e.q.3.3.3.3.2.x         ",
"                                                                                      >X>X{.).$Xe.9 X X X * x V r.).|.#X*X3X-X5X5X%X        ",
"                                                                                    >X+X|.-X).x X X X @ # * ; - (.5X*X|.(.p.q.>.V x         ",
"                                                                                  +X&X3X#XA o X $ ; g N &.>.3.q.e.p.u.p.i.e.5.x             ",
"                                                                                2.|.$X2.O . $ z e.).}.).}.}./.i.(.|.|.).e.A                 ",
"                                                                            2.u.).%X$Xr.V &./.$X|.q.&.Z Z Z -.3.(.|.i.                      ",
"                                                                    >.e.).$X3X8X9X8X3X-X*X;X(.3.b k z N 4.).$X$XP.( O                       ",
"                                                            e.{.|.$X-X5X8X8X8X-X'.7.} M b ( E ! ~ M l r.5X5X;X4.m n ; X                     ",
"                                                         X;X3XrXeX9X9X8X8X3Xp._ i i i a y 6 ; e v ~ B %X5X-X6.f E v / i & o                 ",
"                                                i./.  (.8X8X5XeXaX9XtX9X#X_ 6 8 q i h l l i u 8 - - 2.;X*X$XZ ; a q s E E a 8               ",
"                                            /.*X8X|.* u.tX8X5X5XuXqX5X3X9.:.6.,.x k w w f k w q e C [.|.|.|.3.= 6 r 0 a T E ] :             ",
"                                      2.(.3XtXyX8X&.& ~ 3X8X3X*X3XqX-X*X*X-X;X$X|.).'.W.W.y.9.t.E.y.:.9 k 2.p.:.; t 7 p Y s Q y             ",
"                                  e.#X3X8X9XtXtX+Xu p ~ ;X5X*X*X$X<X<X$X#X X}.#X XP.6.E.y.9.:.A b 9 e * % % b 3.5.n 6 r y T 0 4             ",
"                              /.p.|.9X9X8X5X3X3X XM e :.*X*X%X|. X XOX(.(./.).P.Y.L.V - + X - 9 l n E Y r 3 @ $ V 2.Z > r 6                 ",
"                          }.;X8X8X|./.$X*X*X#X|.}._ W w.`.(./.u.e.q.I.3.2.r.6.U.8.A A Z x : O o & 6 8 * & # # @ X 9 2.:.z                   ",
"                      #X3X5X3X*X$X$X).r.i./././.q.i E 4.q.4.2.-.x k 9 : : ;.I.7.Z x x N b b z k : O X X X % 3 3 3 2 : &.2.V                 ",
"                  |.[.$X$X#X|.).i.p.p.e.2.2.1.:.b a Y w n l : ; w m [ =.O.3.tXyX5X/.:.V V x x x V x c : $ @ X X @ # $ $ x >.A               ",
"              ).$X*X|.p.e.q.4.3.>.Z x l 9 I I 5 U t r I t 8 u / ] ^ ( ( ` V 5XpXpXpX#Xf x V b x V V b V V x x c k : : : : -.:.c             ",
"            ).}./.e.q.3.A V                     4 % d 2 4 6 8 9 z x x z : O |.iXiXiXt.w ; : V A Z Z V V k - : k x V Z L L L G               ",
"        u.(.u.>.V k                                   X X @ $ - - O O + + . x -XyX/.} +.^ 9 > Z 2.,.) ) x O         f.B.N.D.F.F.F.          ",
"      A 3.A k                                           + O ; k x V V V A -.-.:.<.[ | } o.+.^ w x :.3.2.;.V :       G.F.F.F.F.F.F.F.F.      ",
"    O : -                                     : c x V A 2.r.e.e.u.u.e.e.e.e.e.r.Z E X.O.=.| O.+.{ n z Z :.:.Z x : - H N.S.F.C.h.j.A.F.F.    ",
"  +                                   - - >.r.i.(.}.}.).}. X|. X}. X}.)./././.i.i.:.w ^ @.O.O.O.+.$.%.] h w - : x D c 1 P c.Z.k.a.z.S.F.F.  ",
"                              V >.r.e.e.3.}.(.t.0.6.r.(.*X*X%X%X%X$X*X*X*X$X#X|. X).q.k 9 m [ @.@.X.%.#.#...y X   B.c.K K K c.S.b.a.g.h.C.  ",
"                        Z V >.e./.|.%X XR.T.J.K.].#X|.i.q.>.;.;.:.>.q.i. X%X$X$X#X|.).r.: X $ ; 9 i s a Y R t , F.F.S.A.F.F.F.A.C.m.j.s.j.F.",
"                      /.i.e.}.*X$X}.y.!.^.~.@X5X8X$X3. X3X9X9XtXtX9XtX9X9X9XtX9X8X3X*Xr.- o + . . + X o $ $ X   F.C.g.s.h.n.k.d.s.b.F.V.m.F.",
"                      e.u.u.}.$X%X.Xy.!.^.~.OX5X8X$X3.).*X8XtX8X9XtX8X8X9X9X9X9X8X;X$Xr.- X + . . + X o $ $ X   F.m.g.n.h.d.g.l.l.l.S.F.F.F.",
"                        V V :.e./.|.$X XR.T.J.K.E.oXXX/.q.>.;.-.;.2.q.i. X%X$X$X#X|.).r.: O $ > w h j Y T R I < F.S.S.F.F.A.S.F.F.F.F.S.l.V.",
"                              V :.q.r.r.2.}.(.y.t.w.w.(.*X*X$X$X$X$X*X*X*X$X#X|.}.(.4.k 9 ~ [ @.@.X.%.#.#.Q y o   v.f.K K H x.D.S.b.n.j.a.V.",
"  +                                   O - :.q.p./.).}.).}. X|. X}.}.}.(./.i.i.i.i.;.w ' @.O.O.O.+.$.%.^ h f - : x x z 1 J c.Z.C.h.a.s.d.b.  ",
"    O 9 -                                       k x x Z >.4.r.e.u.u.e.r.r.e.e.r.C E X.O.*.| O.+.{ v z Z :.:.Z x : $ H N.S.z.d.a.s.m.A.A.    ",
"      A 4.-.c                                           + O - 9 x x x V Z A ) :.<.[ | } o.+.^ w x >.3.2.;.b :         F.F.b.l.M.C.F.F.      ",
"        e.(.p.2.V c                                   X @ @ $ ; - O O + + . b 3XyX(.} @.^ e : Z 2.>.A A x O         J v.B.H.F.G.F.          ",
"            ). X/.u.r.4.-.V c                   4 2 d 2 4 6 8 9 z x b x : O  XpXpXyXt.9 ; : V Z Z V V V k : : k x V Z F S D 1               ",
"              (.$X*X|.p.e.r.4.3.>.A b v 9 I I 5 U I r I t 7 u / ' ' ( _ ` Z 8XiXiXpX#Xk x V b x V V b V V x z k : : : : : ;.:.x             ",
"                  |.).$X$X%X|.)./.i.i.e.3.3.3.>.b a Y g M z k ; 9 n ( | | 6.yX9X;X/.;.V V x x x V x k : O @ X X @ # $ $ x >.A               ",
"                      |.3X5X3X;X*X$X).r./.(.(./.r.s E 4.r.4.2.;.x k w : : ;.I.7.Z x b N b b z k : O X X X % 3 3 3 2 9 -.2.V                 ",
"                          (.*X8X8X|.(.*X;X*X%X|. X` W w.}.(./.p.e.r.I.6.2.e.6.U.8.) A Z x : O o & y 0 * & # # @ X f 2.:.k                   ",
"                              i.u.|.9X9X8X5X3X5X XM : :.*X;X%X|.|. XOX(.(./.`.P.Q.L.b - O O - w l n E Y r 3 @ - Z 2.Z > r 6                 ",
"                                  e.|.3X8X9XtXtX#Xu p ~ ;X5X*X*X$X<X<X$X#X|.}.#X|.P.9.W.P.w.>.&.V 9 > * % # N 4.>.s 6 y y T 0 4             ",
"                                      :./.-XtXyX8X;.% ( 3X8X3X*X3XqX-X*X$X;X;X$X X(.(.E.W.y.9.9.E.y.>.k x 2.p.;.* t 7 p Y s Q y             ",
"                                            i.$X5X|.* p.tX8X5X5XuX0X5X3X6.;.<.:.x f w w f k w 0 > N '.%X|.|.3.$ 6 r 0 a T E ] :             ",
"                                                p.i.  /.5X8X5XeXaX9XtX9X%X} 6 8 q i h l l i u ; - - 5.;X*X$XZ ; a q s E E u 8               ",
"                                                        ).*X3XrXeX9X9X8X8X3XP.} i i s a r 7 ; e v ~ B #X5X-Xq.f / v / u & X                 ",
"                                                            e._.}.$X-X5X8X8X8X3X Xt.*.B V ` E ! ~ M l q.3X5X;Xq.m n ; X                     ",
"                                                                    :.r./.$X3X8X8X8X5X3X*X;X'.4.b k z b 3./.$X$X/.` O                       ",
"                                                                            >.e.(.XX%X4.x Z i.$X|.e.;.Z Z Z ) 2./.|.i.                      ",
"                                                                                3. X$X4.O . $ l r.(.).}. X}./.i.).|.|.).e.-.                ",
"                                                                                  +X&X;X*X:.O X @ ; 9 b Z :.2.3.q.e.e.u.p.e.>.x             ",
"                                                                                    :X+X+X-X|.V X X X o $ * ; $         q.i.e.2.V V         ",
"                                                                                      >X>X{.[.#Xe.f X X X ; b V V V :.i.|.*X3X3X3X-X        ",
"                                                                                        =X1X<X X/.4.k x 2.(.#X|.).i.u.r.4.3.3.3.2.-.        ",
"                                                                                            4X0X7X<X=X-X,X3X-X*X*X*X$X|./.i.q.:.            ",
"                                                                                                *X4X6XwXwXqX7X4X4X4X,X[.                    ",
"                                                                                                  /.|.=X,X,X<X6X6X1X2X@XZ                   ",
"                                                                                                      ).|.$X*X*X$X$X&X=X).>.                ",
"                                                                                                          i. X|.%X$X*X;X;X%Xi.              ",
"                                                                                                                /.|.$X*X*X*X$X}.            ",
"                                                                                                                      i.}.#X#X%X Xq.        ",
"                                                                                                                              4.4.2.c +     ",
"                                                                                                                                            "
};
