/* XPM */
static char *result[] = {
/* columns rows colors chars-per-pixel */
"80 80 222 2 ",
"   c #040405",
".  c #04060A",
"X  c #06080D",
"o  c #0A0B0C",
"O  c #080709",
"+  c #040611",
"@  c #060A13",
"#  c #0B0D13",
"$  c #060B1C",
"%  c #0A0D19",
"&  c #0F1014",
"*  c #0E111B",
"=  c #121314",
"-  c #13151A",
";  c #17181D",
":  c #1A1B1D",
">  c #141104",
",  c #232219",
"<  c #2C260D",
"1  c #070B24",
"2  c #0A0E23",
"3  c #080C2B",
"4  c #0E1123",
"5  c #0D112B",
"6  c #131523",
"7  c #161923",
"8  c #1C1D22",
"9  c #16192C",
"0  c #1A1D2B",
"q  c #121629",
"w  c #090E35",
"e  c #0D1234",
"r  c #0E123C",
"t  c #121634",
"y  c #12163C",
"u  c #15193B",
"i  c #181C37",
"p  c #1E2023",
"a  c #1E212D",
"s  c #1E2133",
"d  c #1E213B",
"f  c #222324",
"g  c #24262A",
"h  c #27282C",
"j  c #2B2B2D",
"k  c #2A2820",
"l  c #222533",
"z  c #2D2E31",
"x  c #22253B",
"c  c #26293A",
"v  c #2F3032",
"b  c #323334",
"n  c #353639",
"m  c #3B3C3C",
"M  c #37383A",
"N  c #393421",
"B  c #453D1A",
"V  c #44390C",
"C  c #403D2F",
"Z  c #554A14",
"A  c #645306",
"S  c #45433B",
"D  c #0A0F47",
"F  c #0D1247",
"G  c #161B45",
"H  c #141A57",
"J  c #090F50",
"K  c #1E2344",
"L  c #1D224C",
"P  c #1D2255",
"I  c #252942",
"U  c #2A2F4D",
"Y  c #232847",
"T  c #2B304B",
"R  c #393C46",
"E  c #252B56",
"W  c #2C335A",
"Q  c #383C56",
"!  c #181F71",
"~  c #1D267C",
"^  c #252C66",
"/  c #2D3564",
"(  c #2D356B",
")  c #353C63",
"_  c #343C6B",
"`  c #353C63",
"'  c #323B75",
"]  c #273077",
"[  c #3E4244",
"{  c #3A405C",
"}  c #3A4169",
"|  c #394375",
" . c #444444",
".. c #44464B",
"X. c #4B4B4C",
"o. c #47494B",
"O. c #4C4D51",
"+. c #4C5152",
"@. c #545454",
"#. c #55565B",
"$. c #5B5B5B",
"%. c #57595A",
"&. c #454963",
"*. c #585B63",
"=. c #444C76",
"-. c #4B5279",
";. c #5D6367",
":. c #5E647E",
">. c #636363",
",. c #66666A",
"<. c #6B6C6C",
"1. c #66686E",
"2. c #686B74",
"3. c #68777A",
"4. c #747474",
"5. c #7B7B7C",
"6. c #767779",
"7. c #FF1B04",
"8. c #FF1504",
"9. c #FF2704",
"0. c #FF3504",
"q. c #8B740D",
"w. c #FF5904",
"e. c #FF4804",
"r. c #FF6A04",
"t. c #FF7604",
"y. c #B99906",
"u. c #A5890A",
"i. c #9C810D",
"p. c #C19C07",
"a. c #FF8704",
"s. c #FF9804",
"d. c #C8A305",
"f. c #D2AD06",
"g. c #DDB206",
"h. c #FFA704",
"j. c #E4BB04",
"k. c #FFB504",
"l. c #FFBA04",
"z. c #FFC404",
"x. c #FDCB04",
"c. c #F5C804",
"v. c #FFD204",
"b. c #EEC404",
"n. c #80807F",
"m. c #2C3680",
"M. c #3D4B9F",
"N. c #246CA8",
"B. c #4A578A",
"V. c #4D5C95",
"C. c #767A85",
"Z. c #6D7A8E",
"A. c #5A6FA2",
"S. c #536293",
"D. c #586EC7",
"F. c #2C96BC",
"G. c #568486",
"H. c #7E8182",
"J. c #738386",
"K. c #789398",
"L. c #6D8589",
"P. c #4796A7",
"I. c #778FA5",
"U. c #2B9BC0",
"Y. c #7288C7",
"T. c #4DD4DC",
"R. c #53E4EC",
"E. c #838384",
"W. c #8B8B8B",
"Q. c #888887",
"!. c #8E8F91",
"~. c #858D97",
"^. c #899697",
"/. c #949494",
"(. c #9B9B9C",
"). c #969799",
"_. c #8F908E",
"`. c #9FA09F",
"'. c #9197A2",
"]. c #89A3A6",
"[. c #9CA4A9",
"{. c #9AB3B4",
"}. c #8DA9B4",
"|. c #A4A4A4",
" X c #ABABAB",
".X c #A4A9AB",
"XX c #ACADB3",
"oX c #ACB2B2",
"OX c #B4B4B4",
"+X c #BBBBBB",
"@X c #B5B8BA",
"#X c #A0A09F",
"$X c #C0BFBF",
"%X c #C0C0BF",
"&X c #B9B9C0",
"*X c #BDC4C4",
"=X c #B7C5C7",
"-X c #B7D3D4",
";X c #ADCDCE",
":X c #B6DDE3",
">X c #BEE1E4",
",X c #C3C3C3",
"<X c #C4CCCC",
"1X c #CCCCCC",
"2X c #C8C7C7",
"3X c #C5DCDC",
"4X c #CCDCDC",
"5X c #C6D2D2",
"6X c #D3D3D3",
"7X c #DCDCDC",
"8X c #D7D8D8",
"9X c #CCE4E4",
"0X c #C8E4E4",
"qX c #D7E4E5",
"wX c #E4E4E4",
"eX c #ECECEC",
"rX c #E1EFEF",
"tX c #E6F2F2",
"yX c #F4F4F4",
"uX c #FCFCFC",
"iX c #C3DFE0",
"pX c None",
/* pixels */
"pXpXpXpXpXpXpXpXpXpXpXpXpXpXpXpXpXpXpXpXpXpXpXpXpXpXpXpXpXpXpXpXpXpXpXpXpXpXpXpXpXpXpXpXpXpXpXpXpXpXpXpXpXpXpXpXpXpXpXpXpXpXpXpXpXpXpXpXpXpXpXpXpXpXpXpXpXpXpXpX",
"pXpXpXpXpXpXpXpXpXpXpXpXpXpXpXpXpXpXpXpXpXpXpXpXpXpXpXpXpXpXpXpXpXpXpXpXpXpXpXpXpXpXpXpXpXpXpXpXpXpXpXpXpXpXpXpXpXpXpXpXpXpXpXpXpXpXpXpXpXpXpXpXpXo.o.m = O pXpX",
"pXpXpXpXpXpXpXpXpXpXpXpXpXpXpXpXpXpXpXpXpXpXpXpXpXpXpXpXpXpXpXpXpXpXpXpXpXpXpXpXpXpXpXpXpXpXpXpXpXpXpXpXpXpXpXpXpXpXpXpXpXpXpXpXpXpXpXpXpXQ./.(.).(.n.S pXpXpXpX",
"pXpXpXpXpXpXpXpXpXpXpXpXpXpXpXpXpXpXpXpXpXpXpXpXpXpXpXpXpXpXpXpXpXpXpXpXpXpXpXpXpXpXpXpXpXpXpXpXpXpXpXpXpXpXpXpXpXpXpXpXpXpXpXpXpXE.(.|. XOXOX X|.E.pXpXpXpXpXpX",
"pXpXpXpXpXpXpXpXpXpXpXpXpXpXpXpXpXpXpXpXpXpXpXpXpXpXpXpXpXpXpXpXpXpXpXpXpXpXpXpXpXpXpXpXpXpXpXpXpXpXpXpXpXpXpXpXpXpXpXpXpXpX<.Q.(. XOX@X+X@XOX(.4.pXpXpXpXpXpXpX",
"pXpXpXpXpXpXpXpXpXpXpXpXpXpXpXpXpXpXpXpXpXpXpXpXpXpXpXpXpXpXpXpXpXpXpXpXpXpXpXpXpXpXpXpXpXpXpXpXpXpXpXpXpXpXpXpXpXpXpXpX5.`. X X.XoX XOX+X XE.pXpXpXpXpXpXpXpXpX",
"pXpXpXpXpXpXpXpXpXpXpXpXpXpXpXpXpXpXpXpXpXpXpXpXpXpXpXpXpXpXpXpXpXpXpXpXpXpXpXpXpXpXpXpXpXpXpXpXpXpXpXpXpXpXpXpXpXpXW.|. X XOX@XoX.XoX&X.X$.pXpXpXpXpXpXpXpXpXpX",
"pXpXpXpXpXpXpXpXpXpXpXpXpXpXpXpXpXpXpXpXpXpXpXpXpXpXpXpXpXpXpXpXpXpXpXpXpXpXpXpXpXpXpXpXpXpXpXpXpXpXpXpXpXpXpXpXQ.#XOX*X<X=X-X0X0X:X:X-X3.pXpXpXpXpXpXpXpXpXpXpX",
"pXpXpXpXpXpXpXpXpXpXpXpXpXpXpXpXpXpXpXpXpXpXpXpXpXpXpXpXpXpXpXpXpXpXpXpXpXpXpXpXpXpXpXpXpXpXpXpXpXpXpXpXpXpX(.@X<X4X0X0X9X9X3X<X<X<X*X X>.pXpXpXpXpXpXpXpXpXpXpX",
"pXpXpXpXpXpXpXpXpXpXpXpXpXpXpXpXpXpXpXpXpXpXpXpXpXpXpXpXpXpXpXpXpXpXpXpXpXpXpXpXpXpXpXpXpXpXpXpXpXpXpXpXpX<X4X9X3X5X5X,X*X,X,XOXOXOX X X/.Q.4.$. .pXpXpXpXpXpXpX",
"pXpXpXpXpXpXpXpXpXpXpXpXpXpXpXpXpXpXpXpXpXpXpXpXpXpXpXpXpXpXpXpXpXpXpXpXpXpXpXpXpXpXpXpXpXpXpXpXpXpXpX=XiX4X.XH.,.m  .<.(. XOX X#X).W.E.4.<.>.$.@.o.j & pXpXpXpX",
"pXpXpXpXpXpXpXpXpXpXpXpXpXpXpXpXpXpXpXpXpXpXpXpXpXpXpXpXpXpXpXpXpXpXpXpXpXpXpXpXpXpXpXpXpXpXpXpXpXpX;X-X^.4./.(.o.# . . - m >.>.$.@.@.$.$.<.n.E._. X|.pXpXpXpXpX",
"pXpXpXpXpXpXpXpXpXpXpXpXpXpXpXpXpXpXpXpXpXpXpXpXpXpXpXpXpXpXpXpXpXpXpXpXpXpXpXpXpXpXpXpXpXpXpXpX^.;X{.H.|.+X5.p . . . @ # % = = W.6X7X7X7XwX6X$XOX XE.pXpXpXpXpX",
"pXpXpXpXpXpXpXpXpXpXpXpXpXpXpXpXpXpXpXpXpXpXpXpXpXpXpXpXpXpXpXpXpXpXpXpXpXpXpXpXpXpXpXpXpXpXpX^.;X^.|.1X/.v   . . . + @ * - 7 - >.|.E.<.>.@.o. .j o pXpXpXpXpXpX",
"pXpXpXpXpXpXpXpXpXpXpXpXpXpXpXpXpXpXpXpXpXpXpXpXpXpXpXpXpXpXpXpXpXpXpXpXpXpXpXpXpXpXpXpXpXpX+.{.OX6X X[ . . @ % 8 z S O.*.<.4.6.5.n.n.E.Q.Q.4.X.pXpXpXpXpXpXpXpX",
"pXpXpXpXpXpXpXpXpXpXpXpXpXpXpXpXpXpXpXpXpXpXpXpXpXpXpXpXpXpXpXpXpXpXpXpXpXpXpXpXpXpXpXpXpXpX<.#X|.%.o   . & n 5.(.(.).).).W.n.6.Q.#X#X).6.@.pXpXpXpXpXpXpXpXpXpX",
"pXpXpXpXpXpXpXpXpXpXpXpXpXpXpXpXpXpXpXpXpXpXpXpXpXpXpXpXpXpXpXpXpXpXpXpXpXpXpXpXpXpXpXpXO.,.Q.(. X>.j p O.!.OX|.<...n n n v n +.5.|.W.>.pXpXpXpXpXpXpXpXpXpXpXpX",
"pXpXpXpXpXpXpXpXpXpXpXpXpXpXpXpXpXpXpXpXpXpXpXpXpXpXpXpXpXpXpXpXpXpXpXpXpXpXpXz X.<.!.XX2X6X8X8X6X6X,X@X+X/.>.b f g z M @.Q.|.OX).#.: pXpXpXpXpXpXpXpXpXpXpXpXpX",
"pXpXpXpXpXpXpXpXpXpXpXpXpXpXpXpXpXpXpXpXpXpXpXpXpXpXpXpXpXpXpXpXpXpXpX+.;.4.!. X$X1X6X6X7X6X@X!.,.@.@.,.&.Y I l g g v W.,X,X,X6.n G = . pXpXpXpXpXpXpXpXpXpXpXpX",
"pXpXpXpXpXpXpXpXpXpXpXpXpXpXpXpXpXpXpXpXpXpXpXpXpXpXpXpXpXpXpXpX,./.(.<X9X6X6X6X1X8X7X1X(.#.c Y G r 3 % * 0 c U U l *.6X1X,X6.j Y I x 6 @   pXpXpXpXpXpXpXpXpXpX",
"pXpXpXpXpXpXpXpXpXpXpXpXpXpXpXpXpXpXpXpXpXpXpXpXpXpXpXpXpXpXpX<.OX6X2X7XtXqX7XwX8X1XXX#.0 t u i a a i u r - = : g z ).,X+X(.g 8 i x i I G - $ pXpXpXpXpXpXpXpXpX",
"pXpXpXpXpXpXpXpXpXpXpXpXpXpXpXpXpXpXpXpXpXpXpXpXpXpXpX5.oX5.pX!.7X6X6X1XeXeX8X7X7X(.l w q = 6 0 d l g g s u - & o o.OXOXOX/.g & t y 9 i E i E i pXpXpXpXpXpXpXpX",
"pXpXpXpXpXpXpXpXpXpXpXpXpXpXpXpXpXpXpXpXpXpXpXpXO.W.,X8X6X$.+ 6.wX8X6X%X6XrX6X,X,X4.>.2.4.*.n z f 0 8 p p p 9 g [ /.).Q./._.@.# 2 F * F y G i E ; pXpXpXpXpXpXpX",
"pXpXpXpXpXpXpXpXpXpXpXpXpXpXpXpXpXpXpXpXpXpX@./.1XwXwXwX).6 2 c +X8X%X+XoX5X9X+XOXOX$X,X@X|.(./.(.].].K.L.1.L.K.3...; = g >.6.o.= r 5 t t H i E t pXpXpXpXpXpXpX",
"pXpXpXpXpXpXpXpXpXpXpXpXpXpXpXpXpXpXpXpX4.|.2X8X8XwXwX7X*.e y I @X6X@XOXOX X-X&X X|.#XW.(.|.).C.*.K.L.4.#. .m j 7 7 * & + % M >.@.g w 4 y t H 6 e pXpXpXpXpXpXpX",
"pXpXpXpXpXpXpXpXpXpXpXpXpXpXpXpXpXpX$.6.1XwXwX8X1X,X1X,X&.9 ;  .@X+XOX#X X/.[.{._./.Q.!.W.C.Y.A.h = o o # 8 a g l d K F w 3 + ;  .@.R - 5 t t pXpXpXpXpXpXpXpXpX",
"pXpXpXpXpXpXpXpXpXpXpXpXpXpXpXpX(.,X8X|.E.OX2X,X+X X|. XE.a i <.#X(./.E.5.6.4.Z.1.>.4.6.:.D.V...[ [ j = . . # 6 K i 9 4 $ @ @ .   f %.X.f 2 pXpXpXpXpXpXpXpXpXpX",
"pXpXpXpXpXpXpXpXpXpXpXpXpXE. X,X1X1X1X,X|.<.E.).(.).W.Q.+.H E <.6.<.<.>.@. .M Q z g m o.M._ b b v v v b h : = @ . X @ @ @ % 1 1 3 $ g X.%.b pXpXpXpXpXpXpXpXpXpX",
"pXpXpXpXpXpXpXpXpXpXpXpX|.,X1X2X@X|.)././.W.>.<.4.4.4.<.z 9 d o.X.o. .z ; = = ; g l j XX&XW.%.n j b v j j j z j p = .   + 1 1 1 2 2 @ * b @. ., pXpXpXpXpXpXpXpX",
"pXpXpXpXpXpXpXpXpXpX X|.W.(._.W.Q.E.6.<.>.>.$.o.m Q z f r H t 4 G q = = l U W | | -.T |.uXuXeX+X<.b b v j j j z v j v k & o . . . . # # @ f @.X.b pXpXpXpXpXpXpX",
"pXpXpXpXpXpXpXpX_.XXOX|.W.<.>.$.@.X. .b f ; 6 * D J $ D D 3 F J t q u Y Y Y c c z z g 4.yXyXyXuX@Xp p v n j j v v v b b b b b b j h k f f j o.m f o pXpXpXpXpXpX",
"pXpXpXpXpXpX6././.n.<.>.%.O.b k pXpXpXpXpXpXpXpXpXpXpXpXX 3 3 $ 3 3 2 - f z b b j : O n wXyXyXyX2.a ; = k m m M M b b v = = = : g j b S S C B V pXpXpXpXpXpXpXpX",
"pXpXpXpXpXn.W.4.@.M k : pXpXpXpXpXpXpXpXpXpXpXpXpXpXpXpXpXpXpXO . + @ - - & o O         4.wXeXn.Q _ E a = 8 ..$.X.R m m ; pXpXpXpXpXpXy.f.j.c.v.v.v.v.pXpXpXpXpX",
"pXpXpXpX%.>.o.j = pXpXpXpXpXpXpXpXpXpXpXpXpXpXpXpXpXpXpXpXpXpXpX    O # = , p f k j b b M <.1.U Q Q Q ' W a ; b $.$.@...M p & pXpXpXpXv.v.v.x.v.v.v.v.v.pXpXpXpX",
"pXpXpXf j = pXpXpXpXpXpXpXpXpXpXpXpXpXpXpXpXpXpXpXpXpXpXpX& = , v  .X.%.>.>.>.>.>.>.>.>.>.X.0 E _ ) ) Q ) _ / x f j  .@.X.o.b : &   A j.v.v.x.x.a.s.x.x.v.pXpXpX",
"pXO O o pXpXpXpXpXpXpXpXpXpXpXpXpXpXpXpXpXpXpXpX, b o.@.>.2.6.C.E.Q.W.E.n.E.E.n.5.4.4.6.4.4.$.f Y ` _ ) ) ) _ ' ' E g 8 z b k z v j 0 Z i.f.x.h.9.8.t.v.v.v.pXpX",
"pXpXpXpXpXpXpXpXpXpXpXpXpXpXpXpXpXpXpXpXj , h k 5.W./.).).!.E.W.#X X XOX X X X|.|.(./._.Q.Q.Q.<.j 8 Y W _ _ ` ` ( m.' ^ K 6 o . , Z Z k : < A y.k.r.7.s.h.z.v.pX",
"pXpXpXpXpXpXpXpXpXpXpXpXpXpXpXpXz o.>.5./././.4.~.Z.-.) &.*.6.(.OX|.W.E.Q.W./.|.OXOXOX X X|.(.).Q. .= ; g I W W ( ( ^ ~ ~ ! r . pXx.c.f.y.d.y.d.c.z.e.7.7.0.l.pX",
"pXpXpXpXpXpXpXpXpXpXpXpXpX>. .S @.>.6.Q.).#XK.P.U.N.S.'.OX+X_.>.X. . .X.X.X.O.$.4.Q.). X X|.(./.Q.6.m   O O & = ; 7 9 9 y y 3 > v.v.x.k.z.v.v.v.l.h.z.s.a.7.a.v.",
"pXpXpXpXpXpXpXpXpXpXpXpX4.E.6.2./.,X@X|.n.G.T.R.T.}.1X1X6X5.@. X8XwXeXyXyXeXeXyXeXwXwXeXeXwX8X1X+Xn.7 o O .       . . X @ @   pXv.x.w.9.9.w.t.w.9.8.w.z.v.s.h.v.",
"pXpXpXpXpXpXpXpXpXpXpXpXpX6.4.6./.OX X|.n.G.T.R.T.}.,X6X6XC.%.(.2X7XyXeXwXeXyXwX7XwXeX7XwXwX6X$XOXE.: o .         . . @ @ @   pXv.k.0.r.r.0.9.0.r.a.w.l.v.v.v.x.",
"pXpXpXpXpXpXpXpXpXpXpXpXpXpXn S X.,.5.W.(.|.K.P.F.N.B.~.XX+X/.<.X.S  . . .o.X.$.<.W.(. X X|.#X/.W.6.m     o & - 7 9 9 t u G 3 < v.x.l.v.v.x.l.x.v.x.x.v.v.x.a.k.",
"pXpXpXpXpXpXpXpXpXpXpXpXpXpXpXpXj  .$.6.!.W._.<.!.Z.-.&.&.*.2.).@X X/._.W._.(. XOX+XOX X X|.(./.E.m = 7 l Y W / / ( ^ ] ~ ! r O c.c.j.d.d.y.u.y.c.v.z.k.z.t.7.h.",
"pXpXpXpXpXpXpXpXpXpXpXpXpXpXpXpXpXpXpXpXk : k , 4.Q._.(.(./.W.W.#X|. X X X|. X|.#X(._.W.Q.E.E.<.h 0 U W _ } ) ) _ m.m.^ d - o . , B N k , N A y.x.l.e.7.9.7.r.x.",
"pXO   & pXpXpXpXpXpXpXpXpXpXpXpXpXpXpXpXpXpXpXpXp j S @.$.>.4.6.n.Q.Q.E.5.n.n.n.6.4.4.4.4.4.#.a Y ` _ ) ) } _ ' _ Y 0 g n b h b b g f B q.g.k.s.t.0.9.t.r.a.x.pX",
"pXpXpXf z ; o pXpXpXpXpXpXpXpXpXpXpXpXpXpXpXpXpXpXpXpXpXpXo = : j m X.@.$.>.>.>.$.>.>.>.>. .9 W ` } { Q ) _ W l p v o.@.X. .v : o . pXb.v.l.0.8.7.0.k.v.v.v.pXpX",
"pXpXpXpX@.<.X.j : pXpXpXpXpXpXpXpXpXpXpXpXpXpXpXpXpXpXpXpXpXpXpX    . # = : : : , j j v M <.,.T Q R ) _ E a ; M $.$.@. .M : pXpXpXpXpXv.v.x.h.h.l.z.v.v.pXpXpXpX",
"pXpXpXpXpX5._.5.@.m j p pXpXpXpXpXpXpXpXpXpXpXpXpXpXpXpXpXpXpX. . @ @ = : = o o O       4.eXeXQ.Q _ E 0 = f o.#.X.m m m ; pXpXpXpXpXpXi.d.f.b.v.v.v.pXpXpXpXpXpX",
"pXpXpXpXpXpX6././.E.4.>.$.@.b j pXpXpXpXpXpXpXpXpXpXpXD @ 3 3 2 3 5 2 - p j b b z 8 O M wXuXuXwX2.a - = g m M M n b M v = = : , g j M m S b k < pXpXpXpXpXpXpXpX",
"pXpXpXpXpXpXpXpXW. XoX XW.<.>.$.@.O.o.b f 8 6 & D J $ D D 3 D F y q u Y E Y I c z v h 4.uXyXyXuX+Xp p v n j j b b j b b v b v v j g , f : j o. .g O pXpXpXpXpXpX",
"pXpXpXpXpXpXpXpXpXpX X|._.#X/._.W.E.5.4.<.>.>.X. .Q b g y H y 6 y 6 = = 0 U W =.=.B.U @XuXyXwX+X,.b n v j j j v v j j p = .   . . X @ # # k @.X.b pXpXpXpXpXpXpX",
"pXpXpXpXpXpXpXpXpXpXpXpX#X,X1X2X@X|.(././.W.>.<.4.6.6.<.z 9 s X.@.X.o.b : = = 7 8 p g XXXX5.@.v j b j j j j j j : & O   + 1 1 1 1 2 $ = M @.m : pXpXpXpXpXpXpXpX",
"pXpXpXpXpXpXpXpXpXpXpXpXpXpX|.,X1X1X1X2X|.<.E.(.(.(./.Q.@.H E <.6.4.<.>.@...S Q z h  . .M.' n b b b b v f : & @ X . @ @ @ $ 1 1 1 $ g @.@.b pXpXpXpXpXpXpXpXpXpX",
"pXpXpXpXpXpXpXpXpXpXpXpXpXpXpXpX/.,X6X(.E.@X1X2X$X X|. Xn.g i ,.#X(./.E.n.6.6.Z.2.>.4.5.2.D.V...o.m j = O O & 6 G G 9 4 % @ @ . . k %.X.f 2 pXpXpXpXpXpXpXpXpXpX",
"pXpXpXpXpXpXpXpXpXpXpXpXpXpXpXpXpXpX@.5.1XwX7X8X1X2X1X2X&.9 7  .+X%XOX|..X).[.{././.Q.!._.C.Y.A.g & o o & : g g l d G G w 1 + :  .@.n = e 5 e pXpXpXpXpXpXpXpXpX",
"pXpXpXpXpXpXpXpXpXpXpXpXpXpXpXpXpXpXpXpX<.#X,X8X8XwXwX7X*.e y I OX1X+X@XOXOX-X&X X|.#X!./. X(.C.;.I.K.J.;.o.[ j : ; - @ + & [ ,.@.i w 2 G i H q e pXpXpXpXpXpXpX",
"pXpXpXpXpXpXpXpXpXpXpXpXpXpXpXpXpXpXpXpXpXpX@.W.,XwXwXwX(.7 * c $X8X$X$XOX5X4X+XOXOX$X,X@X|.#X/.^.^.K.L.Z.;.6.K.J.+.p = j >.6. .= r 3 e t H i E t pXpXpXpXpXpXpX",
"pXpXpXpXpXpXpXpXpXpXpXpXpXpXpXpXpXpXpXpXpXpXpXpX..Q.+X8X6X*.@ 5.wX8X6X$X6XrX6X2X2X2.%.,.,.@.z h p p a p p p 9 0 R _.(._.)./.X.& 6 F * y u G K E ; pXpXpXpXpXpXpX",
"pXpXpXpXpXpXpXpXpXpXpXpXpXpXpXpXpXpXpXpXpXpXpXpXpXpXpX4. X5.pX/.8X6X6X1XeXtX8XqX7X#Xc w q - 6 i K l a g a t 6 & o [ OX@XoX).f - i t 9 u P d P 9 pXpXpXpXpXpXpXpX",
"pXpXpXpXpXpXpXpXpXpXpXpXpXpXpXpXpXpXpXpXpXpXpXpXpXpXpXpXpXpXpX>. X6X1X7XtXwX7X7X8X1XOX*.a y i 0 a a d y t - - 8 g c /.2X+X`.h : G i x x L = + pXpXpXpXpXpXpXpXpX",
"pXpXpXpXpXpXpXpXpXpXpXpXpXpXpXpXpXpXpXpXpXpXpXpXpXpXpXpXpXpXpXpX*._.).*X4X6X6X6X6X8X8X6X.X>.T K K r 4 % 6 0 I U U l $.5X1X%XE.j d I x 6 o O pXpXpXpXpXpXpXpXpXpX",
"pXpXpXpXpXpXpXpXpXpXpXpXpXpXpXpXpXpXpXpXpXpXpXpXpXpXpXpXpXpXpXpXpXpXpXpX$.2.Q.|.+X2X1X8X8X6X+X).2.$.>.2.&.Y c l g g z W.,X2X%Xn.R Y #   pXpXpXpXpXpXpXpXpXpXpXpX",
"pXpXpXpXpXpXpXpXpXpXpXpXpXpXpXpXpXpXpXpXpXpXpXpXpXpXpXpXpXpXpXpXpXpXpXpXpXpXpXj  .>.Q. X,X1X8X8X6X6X+XOX$X(.<.n g g j v @.5.|.oX(.*.f pXpXpXpXpXpXpXpXpXpXpXpXpX",
"pXpXpXpXpXpXpXpXpXpXpXpXpXpXpXpXpXpXpXpXpXpXpXpXpXpXpXpXpXpXpXpXpXpXpXpXpXpXpXpXpXpXpXpXo.>.n.).|.$.g ;  .Q.XX|.4.X.m M m b n o.6.|.W.,.pXpXpXpXpXpXpXpXpXpXpXpX",
"pXpXpXpXpXpXpXpXpXpXpXpXpXpXpXpXpXpXpXpXpXpXpXpXpXpXpXpXpXpXpXpXpXpXpXpXpXpXpXpXpXpXpXpXpXpX4.(. X,.o   o & j 4.).(.).(.(._.E.n.Q.`.`.).n.@.pXpXpXpXpXpXpXpXpXpX",
"pXpXpXpXpXpXpXpXpXpXpXpXpXpXpXpXpXpXpXpXpXpXpXpXpXpXpXpXpXpXpXpXpXpXpXpXpXpXpXpXpXpXpXpXpXpXO.{.oX,X+XX.. X . & 7 l b o.@.>.<.4.6.5.n.E.Q.Q.4.X.j pXpXpXpXpXpXpX",
"pXpXpXpXpXpXpXpXpXpXpXpXpXpXpXpXpXpXpXpXpXpXpXpXpXpXpXpXpXpXpXpXpXpXpXpXpXpXpXpXpXpXpXpXpXpXpX^.;X^.|.8X#XM . . . . @ @ * * 7 - = pXpXj j o.X.o.j = O pXpXpXpXpX",
"pXpXpXpXpXpXpXpXpXpXpXpXpXpXpXpXpXpXpXpXpXpXpXpXpXpXpXpXpXpXpXpXpXpXpXpXpXpXpXpXpXpXpXpXpXpXpXpX^.;X{.J.#X<XH.p . . . . @ & * & pXpXpXpXpX6X6X6X$X X/.<.pXpXpXpX",
"pXpXpXpXpXpXpXpXpXpXpXpXpXpXpXpXpXpXpXpXpXpXpXpXpXpXpXpXpXpXpXpXpXpXpXpXpXpXpXpXpXpXpXpXpXpXpXpXpXpX;X-X].6.W./.O.@ . X ; o.<.<.%.X.o.@.$.,.<.n.W.).|.pXpXpXpXpX",
"pXpXpXpXpXpXpXpXpXpXpXpXpXpXpXpXpXpXpXpXpXpXpXpXpXpXpXpXpXpXpXpXpXpXpXpXpXpXpXpXpXpXpXpXpXpXpXpXpXpXpX&X4XiXoXQ.<. .X.4.(.OXOX X#X(.W.E.4.<.<.>.@.o.z = pXpXpXpX",
"pXpXpXpXpXpXpXpXpXpXpXpXpXpXpXpXpXpXpXpXpXpXpXpXpXpXpXpXpXpXpXpXpXpXpXpXpXpXpXpXpXpXpXpXpXpXpXpXpXpXpXpXpX*X4X9XiX6X5X<X,X%X%X@XOXOXOX X/.E.4.@.pXpXpXpXpXpXpXpX",
"pXpXpXpXpXpXpXpXpXpXpXpXpXpXpXpXpXpXpXpXpXpXpXpXpXpXpXpXpXpXpXpXpXpXpXpXpXpXpXpXpXpXpXpXpXpXpXpXpXpXpXpXpXpXpXoX<X4X0X9X9X9X3X5X5X1X*X X;.pXpXpXpXpXpXpXpXpXpXpX",
"pXpXpXpXpXpXpXpXpXpXpXpXpXpXpXpXpXpXpXpXpXpXpXpXpXpXpXpXpXpXpXpXpXpXpXpXpXpXpXpXpXpXpXpXpXpXpXpXpXpXpXpXpXpXpXpX5.(.OX,X*X=X-X3XiX>X:X:X3.pXpXpXpXpXpXpXpXpXpXpX",
"pXpXpXpXpXpXpXpXpXpXpXpXpXpXpXpXpXpXpXpXpXpXpXpXpXpXpXpXpXpXpXpXpXpXpXpXpXpXpXpXpXpXpXpXpXpXpXpXpXpXpXpXpXpXpXpXpXpXW.|. X XOXOXOX|.oX@X X$.pXpXpXpXpXpXpXpXpXpX",
"pXpXpXpXpXpXpXpXpXpXpXpXpXpXpXpXpXpXpXpXpXpXpXpXpXpXpXpXpXpXpXpXpXpXpXpXpXpXpXpXpXpXpXpXpXpXpXpXpXpXpXpXpXpXpXpXpXpXpXpX6.(. X X X X XOX@XOXQ.pXpXpXpXpXpXpXpXpX",
"pXpXpXpXpXpXpXpXpXpXpXpXpXpXpXpXpXpXpXpXpXpXpXpXpXpXpXpXpXpXpXpXpXpXpXpXpXpXpXpXpXpXpXpXpXpXpXpXpXpXpXpXpXpXpXpXpXpXpXpXpXpXpXE.).|.OX+X+XOXOX(.6.pXpXpXpXpXpXpX",
"pXpXpXpXpXpXpXpXpXpXpXpXpXpXpXpXpXpXpXpXpXpXpXpXpXpXpXpXpXpXpXpXpXpXpXpXpXpXpXpXpXpXpXpXpXpXpXpXpXpXpXpXpXpXpXpXpXpXpXpXpXpXpXpXpXn./.`. XOXOXOX XQ.pXpXpXpXpXpX",
"pXpXpXpXpXpXpXpXpXpXpXpXpXpXpXpXpXpXpXpXpXpXpXpXpXpXpXpXpXpXpXpXpXpXpXpXpXpXpXpXpXpXpXpXpXpXpXpXpXpXpXpXpXpXpXpXpXpXpXpXpXpXpXpXpXpXpXpXpXH././././.5. .pXpXpXpX",
"pXpXpXpXpXpXpXpXpXpXpXpXpXpXpXpXpXpXpXpXpXpXpXpXpXpXpXpXpXpXpXpXpXpXpXpXpXpXpXpXpXpXpXpXpXpXpXpXpXpXpXpXpXpXpXpXpXpXpXpXpXpXpXpXpXpXpXpXpXpXpXpXpXpXo.m =   pXpX",
"pXpXpXpXpXpXpXpXpXpXpXpXpXpXpXpXpXpXpXpXpXpXpXpXpXpXpXpXpXpXpXpXpXpXpXpXpXpXpXpXpXpXpXpXpXpXpXpXpXpXpXpXpXpXpXpXpXpXpXpXpXpXpXpXpXpXpXpXpXpXpXpXpXpXpXpXpXpXpXpX"
};
