/* XPM */
static char *_ff34fb7f77b49d5888ee69b2ab99f9f[] = {
/* columns rows colors chars-per-pixel */
"70 70 7 1 ",
"  c #010101",
". c #030301",
"X c #020202",
"o c gray1",
"O c #040402",
"+ c #040404",
"@ c gray2",
/* pixels */
"ooooooooooooooooooooooooooooooooooooooooooooooo+oooooooooooooooooooo++",
"oooooooooooooooooooooooooooooooooooooooooooooooooooooooooooooooooooo++",
"oooooooooooooooooooooooooooooooooooooooooooooooooooooooooooooooooooo++",
"oooooooooooooooooooooooooooooooooooooooooooooooooooooooooooooooooooo++",
"oooooooooooooooooooooooooooooooooooooooooooooooooooooooooooooooooooo++",
"oooooooooooooooooooooooooooooooooooooooooooooooooooooooooooooooooooo++",
"oooooooooooooooooooooooooooooooooooooooooooooooooooooooooooooooooooo++",
"oooooooooooooooooooooooooooooooooooooooooooooooooooooooooooooooooooo++",
"oooooooooooooooooooooooooooooooooooooooooooooooooooooooooooooooooooooo",
"oooooooooooooooooooooooooooooooooooooooooooooooooooooooooooooooooooooo",
"oooooooooooooooooooooooooooooooooooooooooooooooooooooooooooooooooooooo",
"oooooooooooooooooooooooooooooooooooooooooooooooooooooooooooooooooooooo",
"oooooooooooooooooooooooooooooooooooooooooooooooooooooooooooooooooooooo",
"oooooooooooooooooooooooooooooooooooooooooooooooooooooooooooooooooooooo",
"oooooooooooooooooooooooooooooooooooooooooooooooooooooooooooooooooooooo",
"oooooooooooooooooooooooooooooooooooooooooooooooooooooooooooooooooooooo",
"oooooooooooooooooooooooooooooooooooooooooooooooooooooooooooooooooooooo",
"oooooooooooooooooooooooooooooooooooooooooooooooooooooooooooooooooooooo",
"oooooooooooooooooooooooooooooooooooooooooooooooooooooooooooooooooooooo",
"oooooooooooooooooooooooooooooooooooooooooooooooooooooooooooooooooooooo",
"oooooooooooooooooooooooooooooooooooooooooooooooooooooooooooooooooooooo",
"oooooooooooooooooooooooooooooooooooooooooooooooooooooooooooooooooooooo",
"oooooooooooooooooooooooooooooooooooooooooooooooooooooooooooooooooooooo",
"oooooooooooooooooooooooooooooooooooooooooooooooooooooooooooooooooooooo",
"ooooooooooooooooooooooooooooooooooooooooooooooooooooooooooooooo+oooooo",
"ooooooooooooooooooooooooooooooooooooooooooooooooooooooooooooooo+oooooo",
"ooooooooooooooooooooooooooooooooooooooooooooooooooooooooooooooo+oooooo",
"ooooooooooooooooooooooooooooooooooooooooooooooooooooooooooooooo+oooooo",
"ooooooooooooooooooooooooooooooooooooooooooooooooooooooooooooooo+oooooo",
"ooooooooooooooooooooooooooooooooooooooooooooooooooooooooooooooo+oooooo",
"ooooooooooooooooooooooooooooooooooooooooooooooooooooooooooooooo+oooooo",
"ooooooooooooooooooooooooooooooooooooooooooooooooooooooooooooooo+oooooo",
"ooooooooooooooooooooooooooooooooooooooooooooooooooooooooooooooo+oooooo",
"ooooooooooooooooooooooooooooooooooooooooooooooooooooooooooooooo+oooooo",
"ooooooooooooooooooooooooooooooooooooooooooooooooooooooooooooooo+oooooo",
"ooooooooooooooooooooooooooooooooooooooooooooooooooooooooooooooo+oooooo",
"ooooooooooooooooooooooooooooooooooooooooooooooooooooooooooooooo+oooooo",
"ooooooooooooooooooooooooooooooooooooooooooooooooooooooooooooooo+oooooo",
"ooooooooooooooooooooooooooooooooooooooooooooooooooooooooooooooo+oooooo",
"ooooooooooooooooooooooooooooooooooooooooooooooooooooooooooooooo+oooooo",
"oooooooooooooooooooooooooooooooooooooooooooooooooooooooooooooooooooo++",
"oooooooooooooooooooooooooooooooooooooooooooooooooooooooooooooooooooo++",
"oooooooooooooooooooooooooooooooooooooooooooooooooooooooooooooooooooo++",
"oooooooooooooooooooooooooooooooooooooooooooooooooooooooooooooooooooo++",
"ooooooooooooooooooooooooooooooooooooooooooooooooooooooooooooooooooooOO",
"ooooooooooooooooooooooooooooooooooooooooooooooooooooooooooooooooooooOO",
"ooooooooooooooooooooooooooooooooooooooooooooooooooooooooooooooooooooOO",
"oooooooooooooooooooooooooooooooooooooooooooooooooooooooooooooooooooo++",
"ooooooooooooooooooooooooooooooooooooooooooooooooooooooooooooooooooooOO",
"ooooooooooooooooooooooooooooooooooooooooooooooooooooooooooooooooooooOO",
"ooooooooooooooooooooooooooooooooooooooooooooooooooooooooooooooooooooOO",
"ooooooooooooooooooooooooooooooooooooooooooooooooooooooooooooooooooooOO",
"ooooooooooooooooooooooooooooooooooooooooooooooooooooooooooooooooooooOO",
"ooooooooooooooooooooooooooooooooooooooooooooooooooooooooooooooooooooOO",
"ooooooooooooooooooooooooooooooooooooooooooooooooooooooooooooooooooooOO",
"ooooooooooooooooooooooooooooooooooooooooooooooooooooooooooooooooooooOO",
"ooooooooooooooooooooooooooooooooooooooooooooooooooooooooooooooo+OOOOOO",
"ooooooooooooooooooooooooooooooooooooooooooooooooooooooooooooooo+OOOOOO",
"ooooooooooooooooooooooooooooooooooooooooooooooooooooooooooooooo+OOOOOO",
"ooooooooooooooooooooooooooooooooooooooooooooooooooooooooooooooo+OOOOOO",
"ooooooooooooooooooooooooooooooooooooooooooooooooooooooooooooooo+OOOOOO",
"ooooooooooooooooooooooooooooooooooooooooooooooooooooooooooooooo+OOOOOO",
"ooooooooooooooooooooooooooooooooooooooooooooooooooooooooooooooo+OOOOOO",
"ooooooooooooooooooooooooooooooooooooooooooooooooooooooooooooooo+OOOOOO",
"oooooooooooooooooooooooooooooooooooooooooooooooooooooooooooo++++OOOOOO",
"oooooooooooooooooooooooooooooooooooooooooooooooooooooooooooo++++OOOOOO",
"oooooooooooooooooooooooooooooooooooooooooooooooooooooooooooo++++OOOOOO",
"oooooooooooooooooooooooooooooooooooooooooooooooooooooooooooo++++OOOOOO",
"ooooooooooooooooooooooooooooooooooooooooooooooooooooooooooooOOOOOOOOOO",
"ooooooooooooooooooooooooooooooooooooooooooooooooooooooooooooOOOOOOOOOO"
};
