/* XPM */
static char *result[] = {
/* columns rows colors chars-per-pixel */
"100 100 7 1 ",
"  c gray1",
". c #020202",
"X c #040404",
"o c gray2",
"O c #010101",
"+ c #040402",
"@ c white",
/* pixels */
"                        ........................................        .      X..    XXXXXXXXXXooXX",
"                        ........................................        .      X..    XXXXXXXXXXooXX",
"                        ........................................        .      X        XXXXXXXXXXXX",
"                        ........................................        .      X        XXXXXXXXXXXX",
"                        .................................................      X                XXXX",
"                        .................................................      X                XXXX",
"                        .................................................      XXX    ..          XX",
"                        .................................................      XXX    ..          XX",
"                 ...   .........................................................                  XX",
"                 ...   .........................................................                  XX",
"                 ...   .........................................................                  XX",
"                 ...   .........................................................                  XX",
"                 ...   .........................................................                XX  ",
"                 ...   .........................................................                XX  ",
"                 ...   .........................................................                XX  ",
"                 ...   .........................................................                XX  ",
"        ....................................................................                        ",
"        ....................................................................                        ",
"        ....................................................................                        ",
"        ....................................................................                        ",
"        ....................................................................                        ",
"        ....................................................................                        ",
"        ....................................................................                        ",
"        ....................................................................                        ",
"        .........................................................................      X            ",
"        .........................................................................      X            ",
"        .........................................................................      X            ",
"        .........................................................................      X            ",
"        .........................................................................      X            ",
"        .........................................................................      X            ",
"        .........................................................................      X            ",
"        .........................................................................      X            ",
"        ................................................................O...... ........            ",
"        ................................................................O...... ........            ",
"        ................................................................O...... ........            ",
"        ................................................................O...... ........            ",
"        ................................................................O...... ........            ",
"        ................................................................O...... ........            ",
"        ................................................................O...... ........            ",
"        ................................................................O...... ........            ",
"        ............................................................................                ",
"        ............................................................................            ..  ",
"        ............................................................................            ....",
"        ............................................................................            .   ",
"        ............................................................................             XXX",
"        ............................................................................            XXXX",
"        ............................................................................            XXXX",
"        ............................................................................                ",
"        ................................................................OO..  XX....            XXXX",
"        ................................................................O...   X....            XXXX",
"        ....................................................................    ....            XXXX",
"        ....................................................................    ....            XXXX",
"        ....................................................................    ....            XXXX",
"        ....................................................................    ....            XXXX",
"        ................................................................    ........            XXXX",
"        ................................................................    ........            XXXX",
"        ....................................................................            .      XXXXX",
"        ....................................................................            .      XXXXX",
"        ....................................................................            .      X    ",
"        ....................................................................            .      X    ",
"        ....................................................................            .      X    ",
"        ....................................................................            .      X    ",
"        ....................................................................            .      XXXXX",
"        ....................................................................            .      XXXXX",
"        ....................................................................            .      X.   ",
"        ....................................................................            .      X    ",
"        ....................................................................            .      X    ",
"        ....................................................................            .      X    ",
"        ....................................................................            .      X   X",
"        ....................................................................            .      X  XX",
"        ....................................................................            .      X XXX",
"        ....................................................................            .      XXXXX",
"        ........................................................................        .      X    ",
"        ........................................................................        .      X    ",
"        ........................................................................        .      X    ",
"        ........................................................................        .      X    ",
"        ........................................................................        .      X    ",
"        ........................................................................        .      X    ",
"        ........................................................................        .      X    ",
"        ........................................................................        .      X    ",
"        ................................................................                    XXXXXXXX",
"        ................................................................                    XXXXXXXX",
"        ................................................................                    XXXXXXXX",
"        ................................................................                    XXXXXXXX",
"        ................................................................                    XXXXXXXX",
"        ................................................................                    XXXXXXXX",
"        ................................................................                    XXXXXXXX",
"        ................................................................                    XXXXXXXX",
"                        ............    ............                                XXXX XXXXXXo    ",
"                        ............    ............                                XXXX XXXXXXoXXXX",
"                        ............    ............                                XXXX XXXXXXoXXXX",
"                        ............    ............                                XXXX XXXXXXoXXXX",
"                        ............            ....                                XXXX XXXXXXoXXXX",
"                        ............            ....                                XXXX XXXXXXoXXXX",
"                        ............            ....                                XXXX XXXXXXoXXXX",
"                        ............            ....                                XXXX XXXXXXooooo",
"X .  X .                                ....     ...   ..      X        XXXXXXXX++++++++ XXXXXXo++++",
"X .  X .                                ....     ...   ..      X        XXXXXXXX++++++++ XXXXXXo++++",
"X .  X .                                ....     ...   ..      X        XXXXXXXX++++++++ XXXXXXo++++",
"X .  X .                                ....     ...   ..      X        XXXXXXXX++++++++ XXXXXXo++++"
};
