/* XPM */
static char *bc09dff26ad94935ea392774383e3f0fTUapGKvnTWaSNF6q[] = {
/* columns rows colors chars-per-pixel */
"100 100 24 1 ",
"  c black",
". c #010101",
"X c #030102",
"o c #010302",
"O c #020202",
"+ c gray1",
"@ c #040203",
"# c #030502",
"$ c #020403",
"% c #020305",
"& c #030504",
"* c #030406",
"= c #040404",
"- c #040605",
"; c #040507",
": c #050507",
"> c #050706",
", c #060807",
"< c #030708",
"1 c #050608",
"2 c #060709",
"3 c #040809",
"4 c #05090A",
"5 c #07080A",
/* pixels */
"####&&&&&&&&;;;;&,&&,,1111111111&1&,,,33555555555544444453151511<4<4<<11111111::;-&&&;###&:X;--X--X-",
"####&&&&&&&&;;;;&,&,,&1&11111111;,,,,,15555555553344444455515111<<4<4<11111111::;X&#&;&###X--X;XXXXX",
"####&&&&&&&&;;;;&&,&,,&111111111,,,,,,51222222223333333315155111<<<<<<31111111,;;--#&&&#---X-X--X--X",
"####&&&&&&&&&;;;,&&&&,1111111111,&&,,515222222223333333351511111<<4<<<11111111:;--##&&#*X---X--X-XX-",
"####&&&&*&&&*11*&&,,;,1111111111,-,-,,;5222222223333333351511111<<<<1111111111;;&&&&&;&&--XX====oXX-",
"####&&&&oo&&***1,&&&,&1111111111-,-,,,23222222223333333315111111<<<<1111111111;;1&&&&&&#X---====-XXo",
"####&&&&#o&&**1*,&&&,&1111111111,-,-;,22222222223333333351111111<<<<<<1&1111111;&&&&&&&&--======XXX-",
"####&&&&o&#****1&&,&,,1&11111111-,-,,,22222222223333333351111111<<<<<<1&11111111&&&&&&&#--======-o-X",
"####&&&&&&&&&1*1,&&,,&1111111111--,--,,2222222223333333311111111<<<<<<11111;::::&&&&&&&&&&;;====XXX-",
"####&&&&&&&&*11*&&&&,,1111111111---,,,22222222223333333311111111<<<<<<11111;::::&&&&&&&&&&--====-o-X",
"####&&&&&&&&*1*1&,&&&&1111111111,-,-;,22222222223333333311111111<<<<<<1111;;::::&&&&&&&&##X-====X-oX",
"####&&&&&&&&**1*&,&&,,1111111111-,-,,;12222222223333333311111111<<<<<<1111;*:*::&&&&&&&&&--X====Xo-X",
"####&&&&&&&&*1*1,&&,,;1111111111,-,-,-11;52222223333333311111111<<<<1111111;;;;:&&&&&&&&&&X--X==X-oX",
"####&&&&&&&&**1*&&&&,;1111111111-,-,-,11,;2222223333333311111111<<<<<111111;;;;,&&&&&&&&&&-XX-==-X-X",
"####&&&&&&&&*1*1&,#&;,1111111111,-,-,-;,111222253333333311111111<<<<<<11111;;;;;&&&&&&&&&&:-;--XX-X-",
"####&&&&&&#***1*&,&#,-1111111111-,-,-,,;111222253333333311111111<<<<<<11111;;;;;&&&&&&&&&&X;-XX--XXo",
"*o&&&&&&&&&&&&&&&&&,&,;1111111111111111122222222;;,-,-;,11111111111111111;;;;;;*---o-oo-----X-X-o#o&",
"#o&&&&&&&&&&&&&&,;&,&311111111111111111111111111,,-,-,,;11111111111111111;;;;;;*oo--------XX--XX#o&o",
"*o&&&&&&&&&&&&&&#&&&-,11111111111111111111111111,-,-;,1111111111111111111;;;;;;*--o-o--oX-X--XX-o&o&",
"o#&&&&&&&&&&&&&&&&,&-;11111111111111111111111111-,-,,;1111111111111111111;;;;;;*-o--o--o----X-X-#o&o",
"&o&&&&&&&&&&&&&&&&,&--;,111111111111111111111111,-,-,-1111111111111111111;;;;;;:--o-o---#&:XX-XXo&o&",
"o&&&&&&&&&&&&&&&&&#&--;;111111111111111122222222-,-,-,,311111111111111111;;;;;;;o-o---o-##X---X-&o&o",
"&o&&&&&&&&&&&&&&&&#,#,;;111111111111111111111111,-,-,-;;11111111111111111;;;;;;;-o---o-oo-;--X-Xo&o&",
"o&&&&&&&&&&&&&&&&&#-;;;;111111111111111111111111-,-,-,,;11111111111111111;;;;;;;---o-o-----X;Xo-&o&o",
"&o&o&&&&&&&&&&&&&&&&-,;1111111111111111111111111,-,-;,1111111111;;111111;;;;;***o--o---o&&:X-oXXo&o&",
"o&o&&&&&&&&&&&&&&&#&;;,&111111111111111111111111-,-,,;1111111111;;111111;;;;;***o--o-o--&#X;XXo-&o&o",
"&o&o&&&&&&&&&&&&&&&&;,1*111111111111111111111111,-,-,-1111111111;;111111;;;;;***----o-o-##X--oXXo&o&",
"o&o&&&&&&&&&&&&&&&&&&&11&11111111111111111111111-,-,-,1111111111;1111111;;;;;***-oo---o----;X-X-&o&o",
"&o&o&&&&&&&&&&&&&&&&&311111111111111111111111111,-,-,-;,111111111111;;;;;;;;;***-oo---o-&&:XXoXoo&o&",
"o&o&&&&&&&&&&&&&&&&&;;&1*11111111111111111111111-,-,-,,;1111111111111;;;;;;;;***----o-o-##X---X:&o&o",
"&o&o&&&&&&&&&&&&&&&&--;&1*11111111111111111111;,,-,-;,1111111111111111;;;;;;;***o--o-o-----XXXoXo&o&",
"o&o&&&&&&&&&&&&&&&&&--;&*1*1111111111111111111,;-,-,,;1111111111111111;;;;;;;**:o--o---oX--;o-o*&o&o",
"o&o&o&&&&&&&&&&&&&&&&&,&*1*11151111111111111111111;;111;11111111-,-,-,&,&&&&&&&&&&&&&&&&&o&o&o&o-XXX",
"oo&o&&&&&&&&&&&&&&&&&&&&1*1*1111111111111111111111;;111;11111111,-,-,#&,&,&&&&&&&&&&&&&&o&o&o&o&ooXo",
"ooo&o&&&&&&&&&&&#&&&&&&&*1111111111111111111111111;;111;11111111-,-,&&&&&,&&&&&&&&&&&&&&&o&o&o&oXooX",
"o&&o&&&&&&&&&&&&&&,&&,&,1*111111111111111111111111;;111;11111111,-,-&,,&&&&&&&&&&&&&&&&&o&o&o&o&oXXo",
"o&o&&&&&&&&&&&&&&#&&1&&;*1*1*111111111111111111111;;111;11111111,-,,----,&&&&&&&&&&&&&&&&o&o&o&oXX-X",
"oo&o#&&&&&&&&&&&#*&&&&&&1*1*1*11111111111111111111;;111;11111111,-#&----,&&&&&&&&&&&&&&&o&o&o&o&X--X",
"o&o&&&&&&&&&&&&&&&&&&&&&*1*1*1*1111111111111111111;;111;11111111------;-&&&&&&&&&&&&&&&&&o&o&o&oo-oX",
"oo&o#&&&&&&&&&&&&&&&&&&&1*1*1*1*111111111111111111;;111;11111111------&,&,&&&&&&&&&&&&&&o&o&o&o&XXX-",
"o&o&o&o&&&&&&&&&&&&&&&&&***1*1*1;;1111111111111111111111;111111;-----#&&&&&&&&&&&&&&&&&&##*o&o&o-XXX",
"&o&o&o&o&&&&&&&&&&&&&&3&****1*1*;;;111111111111111111111;111111;----;#&&&&&&&&&&&&&&&&&&#&o#o&o&-XXo",
"o&o&o&o&&&&&&&&&&&&&&#;;***1*1*1;;;;11111111111111111111;;1111;;----;#&&&&&&&&&&&&&&&&&&&o&o&o&ooXXo",
"&o&o&o&o&&&&&&&&&&&&&#--****1*1*;;;;1111;111111111111111;;1111;;-----#&&&&&&&&&&&&&&&&&&o&o&o&o&X--o",
"o&o&o&o&&&&&&&&&&&&&&&,&***1*11&;;;;;111;;;1111111111111;;;11;;;----;&&&&&&&#&&&&&&&&&&&&o&o&o&o-XXo",
"&o&o&o&o&&&&&&&&&&&&&&,&****1*11;;;;;;;1;;;;111111111111;;;11;;;----;&&&&&&&##&&&&&&&&&&o&o&o&o&X-XX",
"o&o&o&o&&&&&&&&&&&&&&&&&***1*111;;;;;;;;;;;;1111;;;;;;;;;;;;;;;;-----#&&&&&&----&&&&&&&&&o&o&o&oX--o",
"&o&o&o&o&&&&&&&&&&&&&&&,****1*&1;;;;;;;;;;;;;111;;;;;;;;;;;;;;;;---;;#&&&&&&-X--&&&&&&&&o&o&o&o&XoXo",
"ooX:-oXX-oXX;X-X&&&&&&&&&&&&&&&&&&&&----1*1*1*1*;;;;;;;;;;**;;;;,##&&&&&&&;-====X--;-XXX-XXXXXo-oXoX",
"ooXoX-X-XXo-----&&&&&&&&&&&&&&&,&&&&----*1*1*1*1;;;;;;;;;;*:;;;*;&&&&,&&&&X-====--XXXo--Xo----XXXoXo",
"oXXXXX-X-oXX=XX-&&&&&&&&&&&&&&&&&&&&--;-1*1*1*1*;;;;;;;;;;::;;;*&&&&&&&&##--====X=X-X-oXX-oXoX-XoXoX",
"Xoo:o-XXX-X-=--X&&&&&&&&&&&&&&,,&&&##-;;*1*1*1*1;;;;;;;;;;:*;;;*,&&&,&&&&--X======--Xo-XXo-XX-XoXoXo",
"oXXX-X-oXX-X====&&&&&&&&&&&&&&&&&&&&&&&&1*1*1*1*;;;;;;;;;***;;;*;##&-;&&&&X-X;======X-oX--oXoX--oXoX",
"Xoo-o-X---XX====&&&&&&&&&&&&&&,;&&&&&&&&*1*1*1*1;;;;;;;;;***;;;*;#&&-;&&&&--X-======X-X-XXX--XXXXoXo",
"oXXXXX-XX-X-====&&&&&&&&&&&&&&&&&&&&&&&&1*1*1*1*;;;;;;;;;***;;**;#&#--&&&&:X--XX====oX-XXXX--XXXoXoX",
"XoX-X-oXXX-X====&&&&&&&&&&&&&&&&&&&&&&&&*1*1*1*1;;;;;;;;;***;;**;&&#--&&&&X;-X--====-XXo--XoXo--XoXo",
"XoX--XXo-oX-XoX-&&&&&&&&&&&&&&&&&&&&&&&&1*1*1*1*&&&&&&&&#&&&&&&&&&&&&&&&---X-X-X-XX-o-X-oX-XX-XXoXoX",
"oXoXoX---Xo-X-XX&&&&&&&&&&&&&&&&&&&&&&&&********&&&&&&&&&&&&&&&&&&&&&&&&-;X,X,X,-X-XXXXoXXX-XoXoXoXo",
"XoXoX-XXXoXX-X-o&&&&&&&&&&&&&&&&&&&&&&&&********&&&&&&&&&&&&&&&&&&&&&&&&---X,X-XXX-XXXX-Xo-X--oXoXoX",
"oXooXX-XX--XoX-X&&&&&&&&&&&&&&&&&&&&&&&&*1*11*1*&&&&&&&&&&&&&&&&&&&&&&&&-XX,X-X,-XX--o-XooX-XXooXoXo",
"XoXoXXX-X--XXX-o&&&&&&&#&&&&&&&&&&&&&&&&*****1**&&&&&&&&&&&&&&&&&&&&&&&&##;XX--Xo-XXXXX-XoXX-XoXoXoX",
"oXoXoXoXXXoX-X-Xo&&&&&&#&&&&&&&&&&&&&&&&********&&&&&&&&&&&&&&&&&&&&&&&&##-;-XX-XX-o-o-XoXoXXoXoXoXo",
"XoXoXoXo-oX-X-XX&o&&&&#;&&&&&&&&&&&&&&&&o*******&&&&&&&&&&&&&&&&&&&&&&&&--X-----X-X-o-oXXoXooooXoXoX",
"oXoXoXoo-Xo-XXo-#&#&&&;;&&&&&&&&&&&&&&&&********&&&&&&&&&&&&&&&&&&&&&&###-X-X-XX-X-XXX-XoXoXoXXoXoXo",
"ooXoXoXXXoX-X-XX#&o&&&&&&&&&&&&&&&&&&&&&&&&&&&&&&&&&&&&&&&&&&&&&&*-X-===XX--XX-oXX-o-oXXooXoXoXooXoX",
"oooXoX-XoXXXXX-X##&o&&&&&&&&&&&&&&&&&&&&&&&&&&&&&&&&&&&&&&&&&&&&o:;X-X==-XoXo-XX-X-XXX-XoXoXoXoXXoXo",
"ooXoXoX-XoXo--Xoo&o&o&&&&&&&&&&&&&&&&&&&&&&&&&&&&&&&&&&&&&&&&&&&XX--====-oXoXX--X-XXX-X-XoXoXoXooXoo",
"XooXoXoooo--oXX-&o&o&o&&&&&&&&&&&&&&&&&&&&&&&&&&&&&&&&&&&&&&&&&&;--X====XX---XoXXXo-o-XXoXoXoXoXXooo",
"XoXoXoXooXXXX--Xo&o&o&o&&&&&&&&&&&&&&&&&&&&&&&&&&&&&&&&&&&&&&&&&========-oXXXoX--oX-XX-oXoXoXoXooooo",
"oXoXoXoXXo-XXXoX&o&o&o&o&&&&&&&&&&&&&&&&&&&&&&&&&&&&&&&&&&&&&&&&========XX-X--XX-Xo-o-XXoXoXoXoXoooo",
"XoXoXoXooX-X-oX-o&o&o&o&&&&&&&&&&&&&&&&&&&&&&&&&&&&&&&&&&&&&&&&&========X-X-XX-oXoXXXX--XoXoXoXooooo",
"oXoXoXoXXooX-Xo-&o&o&o&o&&&&&&&&&&&&&&##&&&&&&&&&&&&&&&&&&&&&&&&========o-XXo-XXX--X-XoXoXoXoXoXoooo",
"XoXoXoXoXoXo-oXXo&o&o&o&&o&o&&&&&&&&&&;;&&&&&&&&&&&&&&&&&&&&&&&&X-XX-oXX--XXXX---XXXXoXoXoXoXoXooooo",
"oXoXoXoXoXoXXX-X&o&o&o&oo&o&&&&&&&&&&&&;&&&&&&&&&&&&&&&&&&&&&&&&-XX-XX-XoXo--XoXoX-ooXoXoXoXoXoXoooo",
"XoXoXoXoXoXoX-X-o&o&o&o&&o&oo&&&&&&&&&&&&&&&&&&&&&&&&&&&&&&&&&&&X--XX-X-XoX--oXoX-XoXoXoXoXoXoXooooo",
"oXoXoXoXoXoXo-XX&o&o&o&oo&o&&&&&&&&&&&&&&&&&&&&&&&&&&&&&&&&&&&&&XX-Xo-XX--XXXX--XX-XoXoXoXoXoXoXoooo",
"XoXoXoXoXoXoXX-oo&o&o&o&o&o&o&o&&&&&&&&&&&&&&&&&&&&&&&&&##&o&o&o-oX-XX-oXX-oX-XX--XoXoXoXoXoXoXooooo",
"oXoXoXoXoXoX-XXX&o&o&o&o&o&o&o&oo&o&&&&&&&&&&&&&&&&&&&&&#&o&o&o&-Xo-o-XXo-XXXX-XoXXooXoXoXoXoXoXoooo",
"XoXoXoXoXoXoXX--o&o&o&o&o&o&o&o&&o&&&&&&&&&&&&#-&&&&&&&&*o&o&o&oXoXXXX--XX----XoXoXXXoXoXoXoXoXooooo",
"oXoXoXoXoXoX-XoX&o&o&o&o&o&o&o&oo&o#&&&&&&&&&&#-&&&&&&&&o#o&o&o&X--X-XoX-XoXoXX---X#oXoXoXoXoXoXoooo",
"ooooXoXoXoXoXoXooooo-XXX-XX-oXX-XX-oXX-X-X-X-X-X-X-X-XXo-XXoXo-Xo--o-oooo-XXX-XXooXoXoXoXooooooooooo",
"oooooXoXoXoXoXoXoooXXo-o-XX-X-Xoo-X-X-XXoXo-XXoXXXo-o-X-o-X-X-XXoooooo--XX---X;XoXoXoXoXoXoooooooooo",
"ooooXoXoXoXoXoXoXoXoX-o-oXXX-X-X-X-X-X-oXoXX-oXo-oXXXX-XXX-X-X-o-oo-o-ooX-XXXXXXXoXoXoXoXooooooooooo",
"oooooXoXoXoXoXoXoXoXX-XXX--oXo-XXXo-oXX-X-X-X-X-XXo-X-XXX-XXo-X--oo-oo-ooooo-XoXoXoXoXoXoXoooooooooo",
"ooooXoXoXoXoXoXoXoXoX:-Xo--XXX-X-X-X-XXo-X-oXX-X-oXXXX-o-X-X-X-Xooo-o#ooXoXoXoXoXoXoXoXoXooooooooooo",
"oooooXoXoXoXoXoXoXoXXXXoXXXo-o-XXXoXo-X-o-X-X-XXX-X-o-X-oXo-XXoXo-oo#oX:oXoXoXoXoXoXoXoXoXoooooooooo",
"ooooXoXoXoXoXoXoXoXoXX---XX-o-oX-oXoXX-XXX-X-X-o-X-o-X-XXoXX-oXo-o-oX--XXoXoXoXoXoXoXoXoXooooooooooo",
"oooooXoXoXoXoXoXoXoX-oXX-XX-XXX-X-X-X-XXX-oXoXX-o-XXXXo-X-X-X-X-oo-o-XXXoXoXoXoXoXoXoXoXoXoooooooooo",
"oooooooooooooXXoXoXoXoXoooXX;X-o-X-X-X-o-XXoXo-XXX-X-X-XXX-oXX-XXX-oXX-oXoXoooooXoXoXooooooooooooooo",
"ooooooooooooXXoXoXoXoXoXXooXX-XXXXoXo-X-o-X-X-XXX-XXoXo-o-X-X-XXX-X-X-XXoXoXoooooXoXoooooooooooooooo",
"ooooooooooooo-ooXoXoXoXooXoX-X-X-oXoXX-XXX-X-X-o-X-oXoXX-X-X-X-o-XXX-X-XXoooooooXoXoXooooooooooooooo",
"ooooooooooooXXoXoXoXoXoXXoXoXXo-X-X-X-oXX-XXo-X-oXX-X-X-XXo-oXX-oooXoXoooXoooooooXoXoooooooooooooooo",
"ooooooooooooXXXoXoXoXoXoXoXooX-X-oXXXo-X-X-X-X-X-XXo-oXX-X-X-XXooXoXoXoXooooooooXoXooooooooooooooooo",
"oooooooooooooXoXoXoXoXoXoXoXoXo-X-X-X-XXoXo-XXoXo-X-X-X-XXoXo-X-XoXoXoXooooooooooXoXXooooooooooooooo",
"ooooooooooooX-XoXoXoXoXoXoXoXoooXX-X-X-oXoXX-oXoXX-X-X-o-oXoXX-XXXoXoXoXooooooooXoXooooooooooooooooo",
"oooooooooooooXoXoXoXoXoXoXoXoXoXo-XXo-X-X-X-X-X-X-XXo-XXX-X-X-XXXXXoXoXooooooooooXoXXooooooooooooooo",
"oooooooooooooooooooXoXoXoXXoXoXoXoXoXoXoXooXoXoXXoXoXooXooXooXoXoXoXXoXoXoXoXoXooooooooooooooooooooo",
"ooooooooooooooXoooXoXoXoXooXoXoXoXoXoXoXoXooXoXooooXoXooXXoXo-XoXoXooXoXoXoXoXoXoooooooooooooooooooo",
"oooooooooooooXoooooXoXoXXoXoooXoXoXoXoXoXX--o-XX-XXXXX--XoXoX;o#-XoXXoXoXoXoXoXooooooooooooooooooooo",
"ooooooooooooXoXoXoXoXoXooXoXX-XXoXoXoXoXX-XXXXX-Xo--X-XXXXoXXXoXXXXooXoooXoXoXoXoooooooooooooooooooo"
};
