/* XPM */
static char *_451fb771d4841bfd16d1c41c995f4ebPXxtzz0hX5viiKRq[] = {
/* columns rows colors chars-per-pixel */
"50 50 190 2 ",
"   c #010203",
".  c #080705",
"X  c #0B0906",
"o  c #04050B",
"O  c #0A060D",
"+  c #05090C",
"@  c #0C0A0E",
"#  c #040903",
"$  c #10060F",
"%  c #120C0E",
"&  c #13120E",
"*  c #060610",
"=  c #0A0710",
"-  c #050C14",
";  c #0C0C13",
":  c #060F1A",
">  c #0C0F19",
",  c #110E14",
"<  c #120F1A",
"1  c #120612",
"2  c #0D1116",
"3  c #071019",
"4  c #0D141C",
"5  c #0E191E",
"6  c #121115",
"7  c #1A1513",
"8  c #191816",
"9  c #12141B",
"0  c #19161B",
"q  c #12191E",
"w  c #1A1A1B",
"e  c #201E1F",
"r  c #0D1621",
"t  c #0E1923",
"y  c #0F1628",
"u  c #0E1B2B",
"i  c #061323",
"p  c #131622",
"a  c #131A23",
"s  c #191B24",
"d  c #151D2A",
"f  c #1A1D2B",
"g  c #1C172B",
"h  c #151C32",
"j  c #1C1E31",
"k  c #221D23",
"l  c #26172A",
"z  c #231B2C",
"x  c #281B2F",
"c  c #271930",
"v  c #2C1E32",
"b  c #311D34",
"n  c #132026",
"m  c #15212C",
"M  c #1A222C",
"N  c #152333",
"B  c #1A2633",
"V  c #1D2630",
"C  c #1B2433",
"Z  c #1D2935",
"A  c #15253C",
"S  c #19263B",
"D  c #1C2C3D",
"F  c #1D2A3B",
"G  c #242224",
"H  c #21242D",
"J  c #282425",
"K  c #36322F",
"L  c #232433",
"P  c #2D2137",
"I  c #222A34",
"U  c #282C35",
"Y  c #212639",
"T  c #232B3B",
"R  c #2B2C3D",
"E  c #35233A",
"W  c #38203A",
"Q  c #30283D",
"!  c #253036",
"~  c #24303D",
"^  c #2B323D",
"/  c #353432",
"(  c #1D2741",
")  c #1D2D43",
"_  c #162F45",
"`  c #1F3146",
"'  c #1D364C",
"]  c #1C3351",
"[  c #242D42",
"{  c #292D42",
"}  c #232E4A",
"|  c #332F40",
" . c #243344",
".. c #2A3344",
"X. c #2D3847",
"o. c #25344B",
"O. c #2A364B",
"+. c #26394C",
"@. c #2B3A4D",
"#. c #30354B",
"$. c #323C4D",
"%. c #383A48",
"&. c #253652",
"*. c #293651",
"=. c #263A56",
"-. c #2B3C53",
";. c #243D5A",
":. c #293D58",
">. c #323D53",
",. c #1F3D61",
"<. c #233B61",
"1. c #4D304C",
"2. c #583352",
"3. c #34404E",
"4. c #39434F",
"5. c #2C4057",
"6. c #26415E",
"7. c #2C425A",
"8. c #2F4A5F",
"9. c #334254",
"0. c #3B4455",
"q. c #32455C",
"w. c #3B445A",
"e. c #3D4B5C",
"r. c #2C4563",
"t. c #274569",
"y. c #2A4668",
"u. c #2B4965",
"i. c #314664",
"p. c #384764",
"a. c #344A63",
"s. c #394C64",
"d. c #344D6A",
"f. c #3D4F69",
"g. c #35516C",
"h. c #3C536D",
"j. c #354D72",
"k. c #365375",
"l. c #3B5473",
"z. c #3E597A",
"x. c #434B5D",
"c. c #424F64",
"v. c #435163",
"b. c #485065",
"n. c #45546C",
"m. c #425673",
"M. c #425A74",
"N. c #4B5F77",
"B. c #435C7B",
"V. c #495E7B",
"C. c #654260",
"Z. c #7A4D6E",
"A. c #44607C",
"S. c #49617B",
"D. c #506273",
"F. c #3E5F8A",
"G. c #395B81",
"H. c #476186",
"J. c #4A6482",
"K. c #45668B",
"L. c #4E6689",
"P. c #4C6C8B",
"I. c #516586",
"U. c #536A8A",
"Y. c #5C718E",
"T. c #4D6E99",
"R. c #516C92",
"E. c #4D7098",
"W. c #5B7693",
"Q. c #52749A",
"!. c #597799",
"~. c #557898",
"^. c #66728A",
"/. c #627C9B",
"(. c #5578A2",
"). c #607DA7",
"_. c #5B80AC",
"`. c #6181A7",
"'. c #6B85A3",
"]. c #6082A8",
"[. c #6985AD",
"{. c #7188A7",
"}. c #728CAF",
"|. c #688AB0",
" X c #7797B5",
".X c #7798C1",
"XX c #86A3C3",
"oX c #98BBD9",
"OX c #92B3D2",
"+X c #A1B8D7",
/* pixels */
"2 +   o = = o * 4 2 + + = ; ; = , O + 6 2 3 - - q 2 2 4 q 3 4 4 n n n n t 3 t d a 2 > 2 2 : 2 2 r 4 ",
"+ o o ; < < 3 i 9 4 > ; > 2 ; ; , ; + 2 2 ; 3 s a 2 4 4 4 4 4 q t t n m m d C Y s q 2 3 2 2 > q a a ",
"+ + @ ; ; = - 3 4 2 ; ; = ; ; < ; ; 6 2 ; 3 n I a 4 4 4 q 4 a n d d a d u u d F M a 2 4 3 3 3 a a a ",
"@ @ = ; = * - a 2 2 - - ; = ; ; ; 2 2 2 3 2 n V d a q p p 9 a f t a d d i 4 N ..V a 3 4 4 4 4 4 5 4 ",
"o O @ , < 9 f U 2 2 > > ; = ; < - 2 2 3 4 t d d d u a a p > p g r p f d y d +.v.V a 4 4 i 5 i a 4 4 ",
"+ O ; , ; > a Z 2 4 2 ; ; ; < < 2 2 q 4 4 t u t m d d d p p s L d d h d u m +.e.C d 3 t u a t t 5 5 ",
"2 + ; ; = * - 4 2 2 6 > ; > < p 2 a M a t d d m B m d a p g c | Y c f C N A _  .C u i u m m m d 5 5 ",
"+ + = < 6 > - 4 > : > ; ; = > < 3 M I M t u N Z D B d y p f Q %.{ j f Z ..+.o. .B d t n B B m m 5 4 ",
"O @ @ = ; - > : - - 4 4 q 9 4 > 2 9 a d m N F +...M d V m i A p.#.h h [ @.s.p._ D B m f ^ 9.@._ 4 4 ",
"O @ ; ; ; > > - 4 4 5 t a d f f p 9 d M m N F +.#.~ T ^ ! B @.n.0.[ S ( ` s.m.:.o.[ C V ..$.@.) a a ",
"@ ; @ ; ; > 3 3 q t 4 5 t m Z F p a f Z C N S o.o.@.@...F Z O.w.@.X.o.) &.m.I.l.@. .Z Z ^ X. .S n n ",
"@ + + ; 2 3 4 4 4 5 4 4 t m B Z p s V I S S ) -.=.q.a.o.S S T T  .-.9.-.d.I.L.j.7. .N M I U F u q t ",
"; @ @ 2 2 3 3 5 5 4 5 5 a d m M p f V T [ [ o.-.:.d.f.-.) [  .T +.s.s.a.M.U.B.t.7.o.N m M V h d 4 5 ",
"+ 2 - @ 3 2 5 5 5 5 a d s f f f g f C { O.O.@.*.' :.i.=.&.:.5.+.d.B.g.r.B.L.z.u.s.+.B m M M m d 5 4 ",
"2 2 + - 2 2 5 n 5 n q s f z x x V C C { @.-.-.&.-.q.a.r.i.d.g.8.L.R.B.y.z.B.l.h.h.:.S N f f a d 4 4 ",
"2 + 2 - 3 5 5 5 5 t a a z l v b Y c C ..>.>.@.o.D.D.V.J.J.P.J.B.(.[.R.z.B.g.6.a.h.5.F N d a p a 4 5 ",
"+ 2 ; ; > 3 4 a 9 s 5 d c E C.Z.p x.Y Y 0.} *.s.F.T.Q.K.K.~.~.P.W.{.+X{.J.r.u.A.g.A.` B a > U : a p ",
"2 ; + + > 4 q r p M t m f c 1.2.j $.R >.b.*.>.c.k.l.j.j.R. XOXoX}.}.XX'.J.d.6.g.g.A. .B d p ^ p 2 9 ",
"@ @ ; 2 ; 3 4 a a M t n m g E W T { { x.c...@.>.p.>.-.i.A.'. X.X.X|.`.!.J.A.a.h.d.M.` B f a ^ d 4 3 ",
"@ ; + ; 2 4 4 p d M t m C j R P ..T $.x.$.S [ N s p d T +.a.A.W._.(.G.k.6.h.q.9.5.q.F m d s U d 4 2 ",
"+ @ ; 2 2 4 r p u m 5 n C C { R ....e.0.Z I T p & 2 9 d u N 5.A.T.`.H.l.] 8.5.D +.+.Z d a s L m > 4 ",
"2 @ + 2 2 4 4 r t n 3 d m C R Y .. .e.X.d T Z i & 8 G ! M u F +.G./.U.V.q.9.9.F  .~ L f s M f d 9 < ",
"@ @ 2 2 2 4 4 r 4 f 5 m C d T T @. .@.Z m I r -     2 H ^ X...~ >.n.s.q.5.F +.D F B V s s f a r < < ",
"+ + ; @ 2 4 4 q : s p M L C ..T e.D ..Z I I + o +   # - H X.X.Z b.w.X.@.9.m 9.9.B m M p 9 a : : > > ",
"2 3 3 2 4 a 2 - > 4 a f L Y { { q.-. .~ I a - o       + q U ..D 4.^ ^ 3.6.t.l.^.I M y h j d 4 - ; > ",
"- 2 3 3 4 a 4 : 2 9 p p j Y { ..h.7.) F I M ;         + a T  .F T H U 0.a.t.a.b.s a f j C d y a 2 ; ",
"- 3 3 - 3 4 4 3 , 9 q 4 d Y .. .r.i.-. .Z M 4         - d T ) S C m H @.d.d.:.[ a a d f f p 2 2 2 6 ",
"- 3 2 - : 2 q 3 2 9 4 4 a Z ` ~ ] f.S.s.D d 2 o #     3 d [ [ ( T M s  .a.l.:.j q 6 > p 4 > + + ; ; ",
": 3 3 3 > 3 q 2 & 5 5 5 a V Z S ) h.Y.J.q.T a o     - d T ..} ( T M s T a.z.9.g G 6 = - < < ; , @ ; ",
"> 4 q 2 3 q p r 2 & q 9 p f L V [ p.V.I.U.S.9.I y d I X.$.{ C u Z f s ~ a.n.>.z / G 9 , 9 , @ X O @ ",
"- q a q 4 q a q 2 5 6 < p l v v L Y >.z.L.L.M.s.o.o.#.>...Z f d F m a F *.-.Y p K J 0 7 7 , % X ; = ",
"> a s d a a a a 2 2 2 , < l b E l j ( ;.y.y.i.i.O.} } S N u m U X.M a h ( h y 7 7 % $ < 1 % % 7 $ , ",
"3 m m d d M m r 6 9 9 9 9 0 s s d d M V Z T R ..V f 0 0 k L ..O.U H s H H s q 0 9 9 > 6 < 6 ; = = = ",
"3 a d r a d d 3 < 2 < 6 9 9 0 9 a d d M j V M C d a 9 9 s z Y [ s 9 q 0 s p 9 s 9 8 6 6 6 ; ; ; @ @ ",
"- r 5 4 4 a t 3 ; > ; > < < 9 9 d n M V M f a r a 9 9 0 s s g j 6 6 6 p 0 6 9 s 0 6 , 6 6 , ; ; = , ",
"- 3 4 3 3 q 3 > ; ; > ; < < 9 9 m M M M M d t r d a p a p s p p , 6 9 9 6 , 9 w 9 6 , ; ; , ; ; = @ ",
"> 2 4 2 2 q 4 > > , ; > 2 9 9 9 a n a d a t t 5 q a a 4 2 9 0 7 ; 9 0 6 6 6 6 9 6 6 , , 6 , ; ; $ ; ",
"2 3 2 2 2 4 4 2 ; > 6 2 6 9 9 s n a q 5 t q a a q a a 5 4 > % & , 6 , , @ , , , 6 6 ; ; , 2 ; ; = @ ",
"2 2 2 9 6 q 2 9 < ; , < < 9 9 0 n t q q a a s M q q n n a 6 % % % , % @ % 7 , % 2 ; ; , ; 6 , @ @ ; ",
"6 > ; 2 2 2 2 6 > ; > ; < < 9 9 2 2 5 4 5 5 q q q n V V d 9 6 % , , 7 % 6 0 7 , 6 , ; ; ; , ; ; ; @ ",
"> 4 9 r p 4 q p ; > ; < 1 , > 6 4 4 q q q p a q p 4 p 9 w 7 & X X 6 6 @ ; 0 0 , ; ; ; ; % @ ; ; @ @ ",
"> : > 9 4 q p 9 2 < , < < < < 2 a 4 p t a a a a g p 6 6 w e e 7 7 G J 7 @ ; , = , ; ; ; ; ; ; @ @ @ ",
"- - > 4 9 9 9 q 2 < , , < < 9 4 p 5 4 q 5 q a a I g > , 0 w 7 % & e G 0 @ @ , , ; ; ; ; @ ; @ = @ @ ",
"= ; ; > > 9 4 9 2 > < , , < 9 6 4 4 a a a a a a H s 6 @ , 6 % $ X 6 6 , @ , , 9 ; ; , ; ; ; O ; @ @ ",
"; ; ; ; 6 2 6 6 > < < < < < < > 4 p 4 a a a a a , ; ; , , 7 1 , % & + @ @ , ; O ; ; ; ; O = @ = @ X ",
"= ; ; ; ; , ; ; > ; ; 1 , < < 2 4 4 4 4 4 4 q a ; , < , 1 7 1 7 & & @ @ ; , @ O ; ; + = ; O @ = % @ ",
"O O ; ; ; 2 2 ; > = 1 > , , ; 2 4 3 4 4 4 q p 4 0 6 , , 1 1 $ O X O X , , , , , @ ; ; @ @ ; = @ @ @ ",
". O @ @ % , , 6 > = ; 1 ; ; ; > 4 2 3 4 4 4 2 q 6 % O $ 1 < 1 1 & & @ , @ o O @ ; @ = = @ = = + @ @ ",
"O O + @ = ; ; ; , ; @ ; , 6 , ; ; ; ; 2 9 9 < - ; % 2 @ % % @ % @ & % @ ; @ X @ & + @ @ @ & @ X @ @ ",
"O O O - = ; ; ; ; @ ; ; , 6 ; ; > ; ; < 6 9 < ; @ ; @ % , @ % % @ @ @ @ @ @ @ @ 6 @ @ @ @ + @ + @ @ "
};
