/* XPM */
static char *_fcf9d9dcf4944c9ef0a6b6ffd5daca3XNd4Q3stF0NJJl7G[] = {
/* columns rows colors chars-per-pixel */
"50 50 202 2 ",
"   c black",
".  c #000100",
"X  c #010101",
"o  c #000201",
"O  c #010302",
"+  c #020202",
"@  c gray1",
"#  c #020403",
"$  c #030504",
"%  c #040404",
"&  c gray2",
"*  c #040605",
"=  c #050706",
"-  c #060606",
";  c #070707",
":  c #060807",
">  c #070908",
",  c gray3",
"<  c #090909",
"1  c #080A09",
"2  c #090B0A",
"3  c gray4",
"4  c #0B0B0B",
"5  c #0A0C0B",
"6  c #0B0D0C",
"7  c #0C0C0C",
"8  c gray5",
"9  c #0C0E0D",
"0  c #0D0F0E",
"q  c #0E0E0E",
"w  c gray6",
"e  c #0E100F",
"r  c #0F1110",
"t  c #101010",
"y  c #111111",
"u  c #101211",
"i  c #111312",
"p  c gray7",
"a  c #131313",
"s  c #121413",
"d  c #131514",
"f  c gray8",
"g  c #151515",
"h  c #141615",
"j  c #151716",
"k  c #161616",
"l  c gray9",
"z  c #161817",
"x  c #171918",
"c  c #181818",
"v  c #191919",
"b  c #181A19",
"n  c #191B1A",
"m  c gray10",
"M  c #1B1B1B",
"N  c #1B1D1C",
"B  c gray11",
"V  c #1D1D1D",
"C  c #1D1F1E",
"Z  c #1E1E1E",
"A  c gray12",
"S  c #202020",
"D  c gray13",
"F  c #212322",
"G  c #222222",
"H  c #232323",
"J  c #222423",
"K  c #232524",
"L  c gray14",
"P  c #252525",
"I  c #242625",
"U  c #252726",
"Y  c gray15",
"T  c #272727",
"R  c #262827",
"E  c #272928",
"W  c #282828",
"Q  c gray16",
"!  c #282A29",
"~  c #292B2A",
"^  c #2A2A2A",
"/  c gray17",
"(  c #2A2C2B",
")  c #2B2D2C",
"_  c #2C2C2C",
"`  c #2D2D2D",
"'  c #2D2F2E",
"]  c gray18",
"[  c #2F2F2F",
"{  c #2E302F",
"}  c #2F3130",
"|  c gray19",
" . c #313131",
".. c #303231",
"X. c #323232",
"o. c gray20",
"O. c #333534",
"+. c #343434",
"@. c #353535",
"#. c #353736",
"$. c gray21",
"%. c #363837",
"&. c gray22",
"*. c #393939",
"=. c #383A39",
"-. c #3A3A3A",
";. c gray23",
":. c #3C3C3C",
">. c gray24",
",. c #3E3E3E",
"<. c #3F3F3F",
"1. c gray25",
"2. c #414141",
"3. c gray26",
"4. c #434343",
"5. c #444444",
"6. c gray27",
"7. c #464646",
"8. c gray28",
"9. c #464847",
"0. c #484848",
"q. c #494949",
"w. c gray29",
"e. c #4B4B4B",
"r. c #4A4C4B",
"t. c #4C4C4C",
"y. c #4E4E4E",
"u. c #505050",
"i. c #515151",
"p. c #505251",
"a. c gray32",
"s. c #535353",
"d. c #535554",
"f. c gray33",
"g. c #555555",
"h. c #565656",
"j. c #585858",
"k. c #5A5A5A",
"l. c #5B5B5B",
"z. c #5A5C5B",
"x. c gray36",
"c. c #5D5D5D",
"v. c #5C5E5D",
"b. c gray37",
"n. c #5F5F5F",
"m. c gray38",
"M. c #616362",
"N. c #626262",
"B. c gray39",
"V. c #646464",
"C. c #656565",
"Z. c #656766",
"A. c gray40",
"S. c #686868",
"D. c DimGray",
"F. c #6A6A6A",
"G. c #6A6C6B",
"H. c #6F6F6F",
"J. c gray44",
"K. c #717171",
"L. c #727272",
"P. c gray45",
"I. c #747474",
"U. c gray46",
"Y. c #777777",
"T. c gray47",
"R. c #7C7C7C",
"E. c gray49",
"W. c #7E7E7E",
"Q. c gray50",
"!. c gray51",
"~. c gray52",
"^. c #888888",
"/. c #898989",
"(. c gray54",
"). c #8B8B8B",
"_. c gray55",
"`. c #8D8D8D",
"'. c gray56",
"]. c #909090",
"[. c gray57",
"{. c #939393",
"}. c #979797",
"|. c #9D9D9D",
" X c #A5A5A5",
".X c gray65",
"XX c #A7A7A7",
"oX c #A9A9A9",
"OX c gray67",
"+X c gray71",
"@X c gray72",
"#X c gray73",
"$X c #C0C0C0",
"%X c #C1C1C1",
"&X c gray76",
"*X c gray79",
"=X c #DFDFDF",
"-X c gray88",
";X c #EFEFEF",
":X c #F6F6F6",
">X c gray97",
",X c #FEFEFE",
/* pixels */
"@ A N.M @ 7 ; ; @ ; ; ; ; ; ; @ ; # < @ > : * : : 1 C K d : # e ; ; < ; @ ; ; ; ; ; @ ; < ; @ ; $ ; ",
"@ S 4.A ; @ @ @ ; ; ; ; ; ; ; ; > : 2 $ 2 : 1 : : @ =.M.2 # e # < < @ ; < @ @ @ @ 7 < < ; @ A ; ; $ ",
"@ ; ; ; @ ; @ 7 < ; ; ; ; < < < 6 > > > : @ : # 2 : h N r * @ : @ < @ ; < < < ; ; p b.[ @ ; ; < $ $ ",
"< ; ; @ < Y M A p < ; ; < < < ; : : : 2 : : e 6 : * : @ 2 : # 2 @ ; @ @ @ ; < ; ; p 5.S @ ; ; @ : : ",
"@ @ < 7 S [ :.$.Y f < ; < ; ; < : : # : # $ : : # ; : 2 @ 2 # : w 7 f < ; < @ ; @ < @ ; @ ; 7 @ $ : ",
"< < @ M $.t.[.Y.4.Y p ; ; ; ; < : > * @ # e @ @ e : # @ : : # d Y X.[ c p < @ < @ @ ; ; < < @ < : : ",
"@ < ; M 4.[.,X%Xt.[ 7 ; < ; ; < # : > $ d ! 6 e e @ d : : @ d K q.(.A./ f , @ < ; ; @ @ < < < < : $ ",
"< @ < Y / A.#X(.5./ < @ ; ; @ ; : 2 2 # z } $ # : > : # * : d ! T.>X+X4.B ; ; < ; ; 7 @ 7 < 7 @ : : ",
"; ; ; 7 Y :.5.:.[ A 7 @ < 7 @ ; @ @ ; ; ; @ @ ; # $ @ , @ ; 4 Y 5.'.G.X.p @ ; @ ; < 7 < ; ; @ ; : : ",
"; ; ; < f S Y Y A ; ; 7 @ ; < ; f ; < @ ; ; < ; 2 7 < $ @ 7 ; p / :.[ a 7 4 ; @ 7 ; ; ; ; ; @ @ $ : ",
"; @ @ @ ; < 7 7 < @ < @ < f < p 4.< ; ; < @ p A Y L c < @ ; @ ; 7 < f 7 ; ; @ , @ @ < < < < ; 7 : $ ",
"@ @ ; < < @ ; < < < ; @ 4.q.@ ; 7 @ ; ; < p / X.q.5./ S 7 ; @ ; ; @ < ; @ ; < ; ; ; < @ @ ; ; 7 $ $ ",
"< ; < 7 < ; ; < < ; @ < -.-.@ ; @ < < ; ; M [ h.OX'.4.Y p @ ; @ ; ; @ @ ; ; < @ ; @ < ; < ; ; @ : : ",
"< ; ; ; ; ; < 7 @ ; ; < @ p [ ; < ; @ < < M -.(.>X*Xb.[ a , 7 @ ; < @ ; < ; @ ; ; @ < ; @ @ S A 2 : ",
"; ; @ ; ; ; < < ; ; ; < @ M X.@ @ < ; ; @ M / i.}.R.:.Y 7 @ ; ; ; @ ; ; 7 7 ; @ @ @ ; ; ; A W.(.e > ",
"@ ; < < ; ; ; @ @ ; ; @ ; ; @ < ; @ @ @ ; p A [ :.+.Y A ; @ p -.< f X.A ; < @ < ; ; ; < @ < N.k.r 2 ",
"@ 2 : : 2 > : 2 f 7 ; ; @ ; ; ; 7 ; < p , , , S A S f 7 @ ; p Y ; :.#Xk.p < < ; ; ; @ < ; < ; p : $ ",
"1 : 6 2 : $ > K Y.i.7 @ @ ; < @ A / [ A ; @ < @ 7 7 ; @ ; ; @ @ ; Y L.q.@ @ < ; ; @ ; < @ < ; ; : : ",
"@ # > # 2 : @ } .XS.; [ [ @ ; < p ^.G.; @ < < ; ; @ @ 7 < @ 7 / ; ; 7 ; ; < S 7 p @ < 7 < @ ; < $ : ",
"6 @ 2 e $ $ > e M / @ M M @ ; @ f -.X.p w @ @ < ; 7 < ; @ < < ; @ @ 7 < ; < $.p @ 4.h.@ @ ; < @ $ : ",
"# > # # > 2 r # ; @ ; ; @ ; < 5.c @ 7 t @ @ < A Y 7 ; 7 7 ; ; ; @ p @ @ ; < ; @ @ X.-.< < ; @ < : : ",
": : 2 d $ z %.d < ; ; ; < ; 7 S < % @ % ; ; M ~..XS @ X.b.f ; 7 ; @ ; ; < @ @ ; ; < @ @ ; [ f @ : $ ",
"# e : # $ 2 d < @ < ; @ ; @ < @ < @ ; @ ; ; p k.G.M < Y 4.7 @ @ < ; ; < t./ < < < < ; ; ; Y M @ : $ ",
"> 2 : : 6 < # $ ; M 5.f ; ; @ < ; % < @ 7 ; ; 7 p 7 < @ @ M Y A @ ; @ 7 4.Y @ @ 7 < < @ < @ @ < : : ",
": : # : 1 > : 2 @ M i.M @ ; @ ; < < @ @ 7 @ < ; 4 @ ; ; ; f S.S ; < ; p @ ; ; ; @ ; ; ; ; ; 7 ; $ : ",
": @ @ 2 : $ : > ; @ < @ p f M f @ < p @ < 7 ; < @ w < @ ; 7 7 7 @ $.k.7 @ ; < @ ; ; ; ; ; @ @ ; $ : ",
": : 6 2 @ # 2 # @ < @ < A $.k./ M @ ; ; p S [ S < @ ; @ p < @ 7 < / :.; @ < ; 4.t.p @ < @ < < < : : ",
"# : @ @ e d e 2 @ < @ p X.(.=XT.A p @ < @ -.'.f @ < ; p @ ; 7 @ @ @ @ < ; < p (.OXX.@ < < < @ @ : $ ",
": @ d : @ 6.v.: < < @ 7 / W.#XA.S ; < @ 7 S A S @ ; @ < < @ < @ < ; < @ < ; < :.5.M ; ; < @ @ [ : $ ",
"* @ # # : K E e @ ; ; < p X.q.Y M ; < @ @ ; ; @ < @ 7 @ 7 M M < @ @ ; @ < < 7 @ < @ @ @ 7 7 @ p : : ",
": 2 > * # # # * 7 7 ; @ < p f 7 7 ; 7 @ < [ -.7 ; @ @ < X..XG.p ; ; < 7 ; @ ; < @ @ ; ; ; < > @ $ : ",
"# : # # e : # 1 < @ @ < ; ; ; @ f @ @ @ ; $.b.; ; ; ; ; Y !.b.7 ; @ @ ; ; ; ; @ ; 7 ; @ < < ; 6 $ : ",
": > # : 2 @ 2 2 2 : : : : : : * @ ; @ < < 7 7 7 ; ; @ @ < p 7 < ; ; @ < ; @ < @ ; @ ; @ M A.M ; $ : ",
"2 : : # x d # 2 : 2 : # # > > # ; ; ; f S / f < ; f 7 < @ ; ; < ; @ @ @ < f M M ; < ; @ M -.A @ : : ",
"@ 1 : : O.R @ : # : : $ : 6 e > ; A p < S.(.M ; S :.7 @ @ < @ p [ A p ; f $.h.X.f < @ ; 7 < < @ : $ ",
"2 : # # $ @ 2 # : 2 2 2 : : * # @ X.Y f :.t.Y @ @ 7 @ f ; < @ < N.$.@ @ / W.=X(.[ < ; < ; @ @ < : $ ",
": # : * 2 $ : # : $ : 2 : # $ e < @ ; 7 < < M ; $./ @ @ ; < @ < p p @ p Y N.%XY.[ < ; ; ; < < @ : : ",
"* * R z > : @ : 2 $ # : : # 2 z p @ 7 ; ; ; @ 7 S < < < ; @ < < ; @ ; ; f [ q.Y f @ @ ; @ @ < @ $ : ",
"2 : v.p.: @ e @ N e > 1 : # * 2 < ; @ @ ; A :.7 @ @ @ @ A A @ @ @ ; 7 ; < 7 p f < ; 7 7 7 Y M ; $ : ",
"# : N d : $ 1 @ d 2 : : 1 2 : : ; @ ; < @ [ N.M ; ; ; @ A / ; ; ; ; @ ; @ ; < @ @ ; 7 @ 7 L.[ @ : : ",
"# : # # 1 d d e * # # # : : : * < ; ; @ < 7 7 7 @ ; 7 @ 7 @ @ < < ; ; ; ; ; @ ; @ < @ p :.p f < $ : ",
": @ : @ 1 r.d.: $ 2 @ z # : @ d M Y A 7 @ < @ @ @ 7 < < @ < 7 @ ; @ ; @ ; < < ; @ < f A / ; @ @ $ : ",
": # 2 2 2 K R 2 > # 2 # # 2 : E h.'.t.f ; ; ; < @ @ ; 7 ; @ ; < ; @ ; ; < @ ; ; 7 @ k.i.@ @ 7 < $ : ",
"@ 2 * @ : # @ : $ # e # 2 # e { |.;XY.[ 7 @ ; @ < @ < @ < < @ ; @ ; ; @ < < 7 @ @ < A f < < @ @ $ : ",
": # : 2 * 1 e 2 # : @ : : # r K k.'.4.S @ @ p @ ; @ ; ; ; @ < @ ; @ < ; < @ ; ; @ 7 @ < < @ X.M $ : ",
"e @ : d # @ 2 e : d ( e @ 2 : r A / M 7 ; < @ @ 7 4.; @ d f f < ; @ < < 7 7 @ < < ; @ ; < ; / f $ : ",
"@ : # @ # 2 > # # C G.R # : @ # ; < ; @ < ; @ ; p A ; ; # q.n., @ < < @ f i.[ @ < @ 7 ; @ < @ ; $ : ",
": N N 6 # : : $ : e b d @ : e # ; ; ; @ < @ S < ; @ ; ; < S S : ; @ ; ; M q.A ; @ < @ < ; ; @ ; $ : ",
"$ %.Z.e @ : e # * : * : * : * : # : : # : 2 e 6 : * : * : * : * $ ; $ : : : $ : : $ > $ 2 : > $ : $ ",
": d ( 2 : # @ # : * : * : * : * # : : # # : : : : : * : * : * : ; $ : $ $ : $ : I I ) E { ( ( I E E "
};
