/* XPM */
static char *_24fe229cc054881d8e7dd159b60b02bsTGmGe7T97DIcqMU[] = {
/* columns rows colors chars-per-pixel */
"50 50 106 2 ",
"   c #000000",
".  c #0B0B0B",
"X  c #060612",
"o  c #0A0A16",
"O  c #0D0D1A",
"+  c #0E101F",
"@  c #111111",
"#  c #10101C",
"$  c #111D1B",
"%  c #1D1D1D",
"&  c #0D0E20",
"*  c #0F1022",
"=  c #121324",
"-  c #161729",
";  c #17182A",
":  c #191A2C",
">  c #232323",
",  c #2C2C2C",
"<  c #232436",
"1  c #252638",
"2  c #272938",
"3  c #2B2C3E",
"4  c #312F30",
"5  c #2F3130",
"6  c #333433",
"7  c #3B3D3C",
"8  c #41383B",
"9  c #38413E",
"0  c #2E2F41",
"q  c #323345",
"w  c #373946",
"e  c #383A47",
"r  c #37384A",
"t  c #3A3C4B",
"y  c #3E3F51",
"u  c #3F4150",
"i  c gray26",
"p  c #4C4C4C",
"a  c #534D4F",
"s  c #424452",
"d  c #4D4F5E",
"f  c #5A4E52",
"g  c #545454",
"h  c #545A58",
"j  c #5C5C5C",
"k  c #605C5D",
"l  c #545567",
"z  c #5B5C6E",
"x  c #5E6765",
"c  c #636363",
"v  c #6B6B6B",
"b  c #616372",
"n  c #717171",
"m  c #7B7B7B",
"M  c #847B7E",
"N  c #8B787C",
"B  c #B57083",
"V  c #838483",
"C  c #8C8C8C",
"Z  c #908281",
"A  c #9C858D",
"S  c #939292",
"D  c gray61",
"F  c #A49EA0",
"G  c #A3A3A3",
"H  c #ABABAB",
"J  c #B8A2A5",
"K  c #B0A7AA",
"L  c #A5BAB1",
"P  c #B5B5B4",
"I  c #BBBABB",
"U  c #C7A4AB",
"Y  c #CFA9B4",
"T  c #C2B8B7",
"R  c #BBC4BF",
"E  c #B8DACA",
"W  c #C3C3C3",
"Q  c #C5CBC7",
"!  c #CBCBCB",
"~  c #D3CDCF",
"^  c #DBC8CA",
"/  c #C3D4CA",
"(  c #C6D9D3",
")  c #D4D4D4",
"_  c #DAD3D6",
"`  c #D5DAD6",
"'  c #D9D7D8",
"]  c #DBDBDB",
"[  c #E2D1D7",
"{  c #E2DBDD",
"}  c #DCE2DE",
"|  c #E9DDE1",
" . c #D6E7E1",
".. c #DCE7E1",
"X. c #DCEAE5",
"o. c #DFF0EA",
"O. c #E3E3E3",
"+. c #EAE4E5",
"@. c #EEE5E8",
"#. c #EBEBEB",
"$. c #F2E3E6",
"%. c #F2E7EB",
"&. c #F0EAEE",
"*. c #EDF1F0",
"=. c #F3F3F3",
"-. c #F9FFFD",
/* pixels */
"@ . @ @ @ @ @ . @ @ . @ @ @ @ @ . @ . . @ @ @ . @ @ @ . @ @ . @ @ @ . @ @ @ @ @ . @ @ @ @ @ . @ @ @ ",
"                                  .         .         .     .                                       ",
"                                                .   .                                               ",
"                                      .                                                             ",
"                                    .         .   .                                                 ",
"                                  .       .     6 v     .                                           ",
"                                          .   . S O.> .                                             ",
"                                            . 6 #.#.G                                               ",
"                                  .           G =.' O.u   .                                         ",
"                                            % ) #.' O.V                                             ",
"                                            , =.O.O.} H                                             ",
"                                        .   5 =.O.' ] H .     .                                     ",
"                                        .   > O.#.' O.I                                             ",
"                                            > O.~ ! ~ P     .                                       ",
"                                            > O.@._ O.T .                                           ",
"                                      .     : +.{ F ] I .                                           ",
"                                            6 O.=.) ] ! %                                           ",
"                                .           D #.O.#.] ..F . .                                       ",
"                                .     .   C #.O.' I O.) #.S                                         ",
"                                        p O.) O.P V W ' ) O.p                                       ",
"                                        I ) ! O.' =.W ] W ' H                                       ",
"                                  .   @ ! I ) ' O.P O.! ! H W @                                     ",
"                                      % I S ! O.D m v ~ ` C P @                                     ",
"                                      . P D ! ' ] ' W W Q C I %                                     ",
"                                        D W E ' =.] ] ! R I G .                                     ",
"                                        k ~ T ] =.O.' ) I ~ V                                       ",
"                                .   .   b ! I ] =.O.~ ` I ~ V                                       ",
"                                        k ! I O.*.O.' #.W W C                                       ",
"                                  .     j W I #.*.O.' O.! P C                                       ",
"                                    .   h W W &.*.O.) ] ) E B                                       ",
"                                        h ~ ) +.#.#.' O.O.Q C                                       ",
"                                      . G ) O.O.*.+.) ..O.Q / 5                                     ",
"                                    . , ! ) ) +.*.O.( ..$./ E Z .   .       .                       ",
"                                    > W W ' O.O.=.+.| { } ^ U T c .     .                           ",
"                                .   D W ! ! ] #.o. ._ | ..Y N J W ,                                 ",
"                                    F ) ! ) } O.%.@.~ O.+._ ^ H P 6 .   .                           ",
"                                    p V I W ] O.-.*. .o.[ R R m i @                                 ",
"                                        n C j v B K S j a x V ,                                     ",
"                                .       m m p , 9 x h 5 5 f A 8     .                               ",
"                                        g n g > u u h 9 6 h x $           .                         ",
"              X                   .     . , 4 % 4 , % % > > %                                       ",
".                                                                 .                                 ",
"          .         .                 .       .     .       X                                       ",
"                                                                                                    ",
"                                  .                                                                 ",
"                        .                                           X           X                   ",
"O o O X o X X o X o o o X O # # O O # # # O O O O O = # o o & & O O o O O O O o o o o o o O O O O O ",
"= : 1 1 1 1 q t 1 0 0 : = - - & - = = * = ; = = - * = = = = = = = = = = = = - - = - - - - : : : = = ",
"& 2 u s e t d b l z t * * - & * * = = * = = = = * = = = * = = = # = * ; q t r y w w w w w u s s < - ",
"O = = = * * * + * ; * o - * & - = = = = = = = * = = * = = = = * = - * * ; ; = = = = = = = # = = - # "
};
