/* XPM */
static char *e6903b272b494a0686ac60e783fdcfffwyGBjRY0EmIE44Rq[] = {
/* columns rows colors chars-per-pixel */
"50 50 59 1 ",
"  c black",
". c #010000",
"X c #010100",
"o c #010101",
"O c #020001",
"+ c #020200",
"@ c #030200",
"# c #030301",
"$ c #030102",
"% c #020202",
"& c gray1",
"* c #050100",
"= c #040300",
"- c #040301",
"; c #060200",
": c #070300",
"> c #060201",
", c #040203",
"< c #070302",
"1 c #050400",
"2 c #060500",
"3 c #060501",
"4 c #070601",
"5 c #040402",
"6 c #050402",
"7 c #050503",
"8 c #040404",
"9 c gray2",
"0 c #060604",
"q c #080500",
"w c #080401",
"e c #090401",
"r c #090601",
"t c #090502",
"y c #080403",
"u c #0A0502",
"i c #0B0602",
"p c #0A0603",
"a c #0C0703",
"s c #0B0704",
"d c #0A0605",
"f c #0C0704",
"g c #0B0803",
"h c #0A0904",
"j c #0A0905",
"k c #0C0904",
"l c #0C0805",
"z c #0D0805",
"x c #0D0906",
"c c #0C0807",
"v c #0E0906",
"b c #0D0C0A",
"n c #11100E",
"m c #151110",
"M c #171614",
"N c #191514",
"B c #1C1B19",
"V c #1D1C1A",
"C c #231F1E",
/* pixels */
"77#99979#9997777&9&9&&&&&9&&&&&9&99999&9&&&&&&&&&&",
"####7#77#####7##&&&#&&&&&&&&&&&&&&&&&&&&&&&&&&&&#&",
"#################&#&#&#&&&#&#&&&&#&#&#&#&#&&&#&###",
"################&#&#&#&#&&&#&#&&#&#&&&#&#&#&#&#&##",
"#################&#&#&#&#&#&#&#&&&&&&&&&&#&#&#&###",
"################&#&#&#&#&#&#&#&##&&##&#&#&#&#&#&##",
"#################&#&#&#&#&#&#&#&&#&#&#&#&#&#&#&###",
"########################&#&#&#&##&#&#&#&##########",
"#################&#&#&#&#&#&#&#&&#&#&#&#&#&#&#&###",
"################&#&#&#&#&#&#&#&##&#&#&#&#&#&#&#&##",
"#################&#&#&#&#&#&#&#&&#&#&#&#&#&#&#&###",
"################&#&#&#&#&#&#&#&##&#&#&#&#&#&#&#&##",
"#################&#&#&#&#&#&#&#&&#&#&#&#&#&#&#&###",
"################&#&#&#&#&#&#&#&##&#&#&#&#&#&#&#&##",
"#################&#&#&#&#&#&#&#&&#&#&#&#&#&#&#&###",
"################&#&#&#&#&#&#&#&##&#&#&#&#&#&#&#&##",
"#################&#&#&#&#&#&#&#&&#&#&#&#&#&#######",
"################&#&#&#&#&#&#&#&##&#&#&#&#&#&&#####",
"#################&#&#&#&#&#&#&#&&#&#&#&#&#&#######",
"################&#&#&#&#&#&#&#&##&#&#&#&#&#&&#####",
"#################&#&#&#&#&#&#&#&&#&#&#&#&#&#&#####",
"################&#&#&#&#&#&#&#&##&#&#&#&#&#&######",
"#################&#&#&#&#&#&#&#&&#&#&#&#&#&#&#####",
"################&#&#&#&#&#&#&#&##&#&#&#&#&#&######",
"#################&#&#&#&#&#&#&#&&#&#&#&#&#&#&#&###",
"################&#&#&#&#&#&#&#&##&#&#&#&#&#&#&#&##",
"#################&#&#&#&#&#&#&#&&#&#&#&#&#&#&#&###",
"################&#&#&#&#&#&#&#&##&#&#&#&#&#&#&#&##",
"#################&#&#&#&#&#&#&#&&#&#&#&#&#&#&#&###",
"################&&&&&&&&&#&#&#&##&#&#&#&#&#&#&#&##",
"################&&&&&&&&#&#&#&#&&#&#&#&#&#&#&#&###",
"################&&&&&&&&&#&#&#&##&#&#&#&#&#&#&#&##",
"#####*5*55#*5*5555#5#*55###################&#&#&##",
"####555#*#555#*#*#*555*###################&#&#&###",
"#*#*#*#55*5*#555555*#5#5#*#*#*#5#########&#&#&#&##",
"##*#55*55#5#*5*#*#5#*5*5*#*#55*5########&#&#&#&###",
"#*#*77#*#5#55*5555#55*5*55#*55#*#########&#&#&#&##",
"*#5*7755*5*55#*#*#*55#5#*#55*#55########&#&#&#&###",
"5*57*7**55#*#555555*#*555*5*5*5*#########&#&#&#&##",
"5#57777#*#55*5*#*#5#55*#5#5#5#5#########&#&#&#&###",
"#55*77777777*7*7#5#77#5#5*5*5*5*#########&#&#&#&##",
"#*#7*7*7777*7777*#*77**#5#5#5#5#########&#&#&#&###",
"##77777**7*777*7555*#5#5#*55#*55#########&#&#&#&##",
"#**7*77777777*77*#5#*5*555*#55*#########&#&#&#&###",
"#*#77*7*7777*7*755#5#5#*#5#*#*#5#########&#&#&#&&#",
"##7*77777*7*7777*#*5*5*#*555***5########&#&#&#&###",
"#*#77*77*77777*7*55*55*7#################&#&#&#&##",
"##7*77*7*77*7*7777*#*##*#######*##########&#&#&###",
"#7rr:rrr:r:dr:77rrrrrr:f::r::::d#*::r:dr:***d#mVMb",
"7gggggvfvfvvvvccaraafafdfrddfr:farfffvffddddc*NCBn"
};
